<?xml version="1.0" encoding="utf-8"?>
<!-- Generator: Adobe Illustrator 22.0.0, SVG Export Plug-In . SVG Version: 6.00 Build 0)  -->
<svg version="1.1" id="Layer_1" xmlns="http://www.w3.org/2000/svg" xmlns:xlink="http://www.w3.org/1999/xlink" x="0px" y="0px"
	 viewBox="0 0 498.9 217.5" style="enable-background:new 0 0 498.9 217.5;" xml:space="preserve">
<style type="text/css">
	.st0{enable-background:new    ;}
	.st1{fill:#FFFFFF;}
	.st2{fill:#263238;}
	.st3{fill:#282828;}
	.st4{fill:#CBECF4;}
	.st5{fill:#FE5356;}
	.st6{fill:#1A2E35;}
	.st7{fill:#A1E2EC;}
	.st8{fill:#FFBE9D;}
	.st9{filter:url(#Adobe_OpacityMaskFilter);}
	.st10{mask:url(#mask-2_1_);}
	.st11{fill:#EA424A;}
	.st12{filter:url(#Adobe_OpacityMaskFilter_1_);}
	.st13{mask:url(#mask-4_1_);}
</style>
<g id="Page-1">
	<g id="_x34_04" transform="translate(-434.000000, -300.000000)">
		<g id="Graphic" transform="translate(431.000000, 239.000000)">
			<g class="st0">
				<path d="M102.6,246.7v-25.4H34c-8.7,0-15.2-2-19.5-5.9c-4.3-3.9-6.5-9.2-6.5-16c0-1.7,0.3-3.5,1-5.3c0.6-1.8,1.6-3.6,2.9-5.6
					c1.3-2,2.6-3.8,4-5.7c1.4-1.8,3.1-4.1,5.1-6.7l72.5-96.9c4.7-6.4,8.6-11,11.7-13.9c3.1-2.9,6.7-4.3,11-4.3
					c13.9,0,20.8,7.9,20.8,23.8v105.8h5.9c7,0,12.6,1,16.9,2.9s6.4,6.1,6.4,12.6c0,5.3-1.7,9.1-5.2,11.6c-3.5,2.4-8.7,3.6-15.6,3.6
					h-8.3v25.4c0,7-1.6,12.2-4.6,15.7c-3.1,3.4-7.2,5.1-12.4,5.1c-5.1,0-9.2-1.8-12.4-5.3S102.6,253.5,102.6,246.7z M43.8,190.6
					h58.8v-79.4L43.8,190.6z"/>
			</g>
			<g class="st0">
				<path d="M438.6,246.7v-25.4H370c-8.7,0-15.2-2-19.5-5.9c-4.3-3.9-6.5-9.2-6.5-16c0-1.7,0.3-3.5,1-5.3c0.6-1.8,1.6-3.6,2.9-5.6
					c1.3-2,2.6-3.8,4-5.7c1.4-1.8,3.1-4.1,5.1-6.7l72.5-96.9c4.7-6.4,8.6-11,11.7-13.9c3.1-2.9,6.7-4.3,11-4.3
					c13.9,0,20.8,7.9,20.8,23.8v105.8h5.9c7,0,12.6,1,16.9,2.9s6.4,6.1,6.4,12.6c0,5.3-1.7,9.1-5.2,11.6c-3.5,2.4-8.7,3.6-15.6,3.6
					h-8.3v25.4c0,7-1.6,12.2-4.6,15.7c-3.1,3.4-7.2,5.1-12.4,5.1c-5.1,0-9.2-1.8-12.4-5.3S438.6,253.5,438.6,246.7z M379.8,190.6
					h58.8v-79.4L379.8,190.6z"/>
			</g>
			<g class="st0">
				<path class="st1" d="M97.6,246.7v-25.4H29c-8.7,0-15.2-2-19.5-5.9c-4.3-3.9-6.5-9.2-6.5-16c0-1.7,0.3-3.5,1-5.3
					c0.6-1.8,1.6-3.6,2.9-5.6c1.3-2,2.6-3.8,4-5.7c1.4-1.8,3.1-4.1,5.1-6.7l72.5-96.9c4.7-6.4,8.6-11,11.7-13.9
					c3.1-2.9,6.7-4.3,11-4.3c13.9,0,20.8,7.9,20.8,23.8v105.8h5.9c7,0,12.6,1,16.9,2.9s6.4,6.1,6.4,12.6c0,5.3-1.7,9.1-5.2,11.6
					c-3.5,2.4-8.7,3.6-15.6,3.6h-8.3v25.4c0,7-1.6,12.2-4.6,15.7c-3.1,3.4-7.2,5.1-12.4,5.1c-5.1,0-9.2-1.8-12.4-5.3
					S97.6,253.5,97.6,246.7z M38.8,190.6h58.8v-79.4L38.8,190.6z"/>
			</g>
			<g class="st0">
				<path class="st1" d="M433.6,246.7v-25.4H365c-8.7,0-15.2-2-19.5-5.9c-4.3-3.9-6.5-9.2-6.5-16c0-1.7,0.3-3.5,1-5.3
					c0.6-1.8,1.6-3.6,2.9-5.6c1.3-2,2.6-3.8,4-5.7c1.4-1.8,3.1-4.1,5.1-6.7l72.5-96.9c4.7-6.4,8.6-11,11.7-13.9
					c3.1-2.9,6.7-4.3,11-4.3c13.9,0,20.8,7.9,20.8,23.8v105.8h5.9c7,0,12.6,1,16.9,2.9s6.4,6.1,6.4,12.6c0,5.3-1.7,9.1-5.2,11.6
					c-3.5,2.4-8.7,3.6-15.6,3.6h-8.3v25.4c0,7-1.6,12.2-4.6,15.7c-3.1,3.4-7.2,5.1-12.4,5.1c-5.1,0-9.2-1.8-12.4-5.3
					S433.6,253.5,433.6,246.7z M374.8,190.6h58.8v-79.4L374.8,190.6z"/>
			</g>
			<g id="Group-2" transform="translate(148.000000, 62.000000)">
				<g id="Oval">
					<circle class="st1" cx="102.8" cy="102.5" r="103.5"/>
				</g>
				<g id="Group-81" transform="translate(25.000000, 24.000000)">
					<g id="Fill-1">
						<path class="st2" d="M55.4,18.7c-1.9,6.4-3.8,12.7-5.7,19.1c-0.3,0.9-0.5,1.8-0.5,2.7c0.1,2.7,2.6,4.8,5.2,5.3s5.4-0.3,8-0.9
							c0.7,2.7,4,3.9,6.7,4.5c12.5,2.3,14.9-18.8,12-26.9c-9.7,0.4-6.4,0.3-16.1,0.7c-1.7,0.1-3.5,0.2-5.2-0.4
							c-1.6-0.6-3.1-2-3.2-3.7"/>
					</g>
					<g id="Fill-3">
						<path class="st2" d="M93.3,11.3c2.7,6.1,6.5,16.7,9.3,22.8c0.3,0.9,0.8,1.7,0.9,2.6c0.3,2.7-1.9,5.2-4.5,6s-5.3,0.5-8,0.2
							c-0.3,2.8-3.3,4.5-6,5.3c-11.9,4-17.4-16.5-15.6-24.9c9.7-0.9,6.4-0.6,16-1.5c1.7-0.2,3.4-0.3,5-1.1c1.5-0.8,2.7-2.4,2.7-4.1"
							/>
					</g>
					<g id="Fill-5">
						<path class="st1" d="M89.3,49.2c0,0-0.6,10.4-10,10c-2.1-0.1-3.8-0.5-5.2-1.3c-5.3-2.6-7-8.2-7-8.2c4.5-1.1,4.5-9.4,4.5-9.4
							l12.4,0.3c0,0,0,0.9,0.1,2.1c0.2,1.6,0.7,3.8,1.8,5C87.8,50,89.3,49.2,89.3,49.2"/>
					</g>
					<g id="Fill-7">
						<path class="st3" d="M89.3,49.2c-0.9,0.4-2,0.1-2.7-0.5c-0.4-0.3-0.8-0.6-1.1-0.9c-0.3-0.4-0.5-0.9-0.8-1.3
							c-0.4-0.9-0.7-1.8-0.9-2.7c-0.2-0.9-0.3-1.9-0.3-2.9l0.3,0.3L77.6,41c-2.1,0-4.1-0.1-6.2-0.2l0.4-0.3c0,0.9-0.1,1.9-0.3,2.8
							s-0.3,1.9-0.7,2.7s-0.7,1.8-1.4,2.6c-0.6,0.8-1.5,1.4-2.5,1.6l0.3-0.5c0.9,2.4,2.4,4.7,4.4,6.4c2,1.7,4.6,2.7,7.2,2.8h2
							l0.9-0.2c0.2,0,0.3-0.1,0.5-0.1l0.4-0.2c1.3-0.3,2.4-1.1,3.3-2.1C87.9,54.5,88.9,51.9,89.3,49.2 M89.3,49.2
							c-0.2,2.7-1,5.4-2.8,7.5c-0.9,1-2.1,1.9-3.4,2.3l-0.5,0.2c-0.2,0.1-0.3,0.1-0.5,0.1l-1,0.2c-0.7,0-1.4,0.1-2.1,0.1
							c-1.4-0.1-2.7-0.3-4-0.8c-1.3-0.5-2.5-1.2-3.6-2.1c-1.1-0.9-2-1.9-2.8-3c-0.8-1.1-1.5-2.3-1.9-3.7l-0.2-0.4l0.4-0.1
							c0.8-0.3,1.5-0.7,2.1-1.4c0.5-0.7,0.9-1.5,1.3-2.3c0.6-1.7,0.9-3.5,0.9-5.3V40h0.3c2.1,0.1,4.1,0.1,6.2,0.3l6.2,0.3H84v0.3
							c0,0.9,0.1,1.9,0.2,2.8s0.3,1.9,0.7,2.7c0.2,0.4,0.4,0.9,0.7,1.2c0.3,0.3,0.6,0.7,1,0.9C87.4,49.1,88.3,49.6,89.3,49.2"/>
					</g>
					<g id="Fill-9">
						<path class="st4" d="M74.4,44.1c0,0-3.5,4.8-2.7,7.6c0.9,2.8,3.2,5.5,5.4,5.8L74,58.1c-5.3-2.6-7-8.2-7-8.2
							c4.5-1.1,4.5-9.4,4.5-9.4l12.4,0.3c0,0,0,0.9,0.1,2.1C82.5,43.8,78.8,45.4,74.4,44.1"/>
					</g>
					<g id="Fill-11">
						<path class="st1" d="M51.3,143.2l-2.3,7.9l-1.2,4.1c0,0-26.9-15.9-27.5-27.3c-0.6-11.3,6.1-35.1,6.1-35.1s1.5,0.8,4,1.7
							c1.7,0.7,3.8,1.5,6,2.1c5.7,1.5,7.3,2,7.3,2s-6.9,22.5-5.2,31.2C40.2,138.4,51.3,143.2,51.3,143.2"/>
					</g>
					<g id="Fill-13">
						<path class="st3" d="M51.2,143.2c-1.9-0.8-3.8-1.9-5.6-3.1c-1.7-1.2-3.3-2.7-4.7-4.4c-1.4-1.7-2.4-3.7-2.8-5.8
							c-0.4-2.1-0.3-4.3-0.2-6.4c0.3-4.3,1.1-8.5,2.1-12.6c0.9-4.1,2-8.3,3.3-12.4l0.3,0.5l-4.4-1.2c-1.5-0.4-2.9-0.8-4.4-1.3
							c-1.5-0.4-2.9-0.9-4.3-1.5c-1.4-0.6-2.8-1.2-4.2-1.9l0.4-0.2c-1.7,6-3.3,12.1-4.5,18.3c-0.6,3.1-1.1,6.2-1.5,9.3l-0.2,2.3
							c-0.1,0.8-0.1,1.5-0.1,2.3c0,1.5-0.1,3.2,0.4,4.6c0.4,1.5,1.2,2.8,2.1,4.1c0.9,1.3,1.9,2.5,2.9,3.7c2.1,2.3,4.4,4.5,6.8,6.4
							c4.8,4,10,7.6,15.3,11l-0.3,0.2l1.8-5.9L51.2,143.2z M51.3,143.2l-1.6,6c-0.5,2.1-1.1,4-1.7,6l-0.1,0.3l-0.3-0.2
							c-5.4-3.2-10.6-6.9-15.5-10.8c-2.4-2.1-4.7-4.2-6.9-6.5c-1-1.2-2-2.5-2.8-3.8c-0.9-1.4-1.6-2.7-2-4.3
							c-0.4-1.5-0.3-3.2-0.3-4.7c0.1-0.8,0.1-1.5,0.2-2.4l0.3-2.3c0.4-3.1,0.9-6.3,1.5-9.4c1.1-6.2,2.6-12.4,4.1-18.5l0.1-0.3
							l0.3,0.2c1.4,0.7,2.7,1.2,4.2,1.8c1.4,0.5,2.8,1,4.3,1.5c1.5,0.4,2.9,0.8,4.4,1.2l4.4,1.2l0.4,0.1l-0.1,0.4
							c-1.2,4-2.3,8.2-3.3,12.3c-0.4,2.1-0.9,4.1-1.3,6.3c-0.4,2.1-0.7,4.2-0.9,6.3c-0.2,2.1-0.3,4.2,0.1,6.3s1.4,3.9,2.6,5.7
							c1.3,1.7,2.8,3.1,4.6,4.4C47.6,141.1,49.4,142.2,51.3,143.2L51.3,143.2z"/>
					</g>
					<g id="Fill-15">
						<path class="st1" d="M136.3,127.9c-0.4,8.3-15,19.1-22.8,24.3c-2.8,1.9-4.7,3-4.7,3l-3.5-12c0,0,2.2-0.9,4.8-2.7
							c0.1-0.1,0.2-0.1,0.3-0.2c3.2-2.2,6.9-5.8,7.7-10.5c1.6-8.7-6-31.3-6-31.3s1.6-0.4,5.2-1.5c0.9-0.3,1.8-0.5,2.8-0.8
							c5.5-1.5,10-3.5,10-3.5S136.9,116.5,136.3,127.9"/>
					</g>
					<g id="Fill-17">
						<path class="st3" d="M136.3,127.9c0.1-3-0.2-5.9-0.6-8.9c-0.4-2.9-0.9-5.8-1.6-8.8c-1.3-5.8-2.7-11.6-4.3-17.3l0.6,0.3
							c-2.9,1.3-5.9,2.3-9,3.3c-1.5,0.4-3.1,0.9-4.6,1.3l-4.6,1.2l0.3-0.5c1.2,3.6,2.2,7.3,3.2,10.9c0.9,3.7,1.7,7.4,2.3,11.2
							c0.3,1.9,0.4,3.8,0.5,5.7c0,0.9,0,1.9-0.2,2.8c-0.1,0.9-0.3,1.9-0.7,2.8c-0.7,1.8-1.7,3.4-3,4.8c-1.3,1.5-2.7,2.7-4.3,3.8
							h-0.1h0.1c0.1-0.1,0-0.1,0.1-0.1v0.1l-0.1,0.1c-0.8,0.5-1.6,1.1-2.5,1.6c-0.9,0.5-1.7,0.9-2.6,1.4l0.1-0.3l3.7,11.9l-0.5-0.2
							l4.1-2.7c1.4-0.9,2.7-1.9,4.1-2.7c2.7-1.9,5.3-3.9,7.9-6c2.6-2.1,5-4.4,7.1-6.9c1-1.3,2.1-2.6,2.8-4
							C135.6,131.1,136.2,129.6,136.3,127.9 M136.4,127.9c-0.1,1.6-0.7,3.3-1.5,4.7c-0.8,1.5-1.8,2.8-2.8,4.1
							c-2.1,2.6-4.5,4.9-7,7.1c-2.5,2.2-5.2,4.2-7.8,6.2c-2.7,2-5.5,3.7-8.3,5.5l-0.4,0.3l-0.1-0.4l-3.3-12l-0.1-0.2l0.2-0.1
							c0.9-0.3,1.7-0.9,2.6-1.3c0.9-0.5,1.6-1,2.5-1.5l-0.1,0.2l0.1-0.1c0.1-0.1,0.1,0,0.1-0.1h-0.1c1.5-1.1,3-2.3,4.2-3.7
							c1.2-1.5,2.3-3,2.9-4.8c0.3-0.9,0.6-1.8,0.6-2.7c0.2-0.9,0.1-1.9,0.1-2.8c-0.1-1.9-0.3-3.8-0.6-5.6c-0.6-3.7-1.5-7.4-2.5-11.1
							c-1-3.6-2.1-7.3-3.3-10.8l-0.2-0.4l0.4-0.1l9.1-2.5c3-0.9,6-2,8.8-3.2l0.4-0.2l0.2,0.5c0.8,2.9,1.5,5.8,2.1,8.7
							c0.7,2.9,1.3,5.8,1.8,8.8c0.5,2.9,1,5.9,1.3,8.8C136.3,121.9,136.6,125,136.4,127.9"/>
					</g>
					<g id="Fill-19">
						<path class="st5" d="M67.7,49.2c0,0,3.7,9.1,10.8,9.3c7.4,0.1,9.1-4.7,10-9.3c35-0.3,45.8,45.9,45.8,45.9s-3.9,1.8-7.6,2.9
							c-3.9,1.2-12.4,3.5-12.4,3.5l0.8,63.7H40.8l1.5-63.6c0,0-7.6-1.8-11.6-3.1c-5.8-1.9-8-3.8-8-3.8S32,49.1,67.7,49.2"/>
					</g>
					<g id="Fill-21">
						<path class="st6" d="M44.3,95.1c0.3-2.8,0.8-5.6,1.5-8.2c0.3-1.4,0.9-2.7,1.2-4c0.3-1.4,0.7-2.7,0.9-4.1
							c0.5-2.7,1.2-5.5,2.1-8.2c0.9-2.7,1.9-5.3,3.3-7.7h0.1v0.1c-0.9,2.7-1.6,5.3-2.5,8c-0.9,2.7-1.6,5.3-2.5,8
							c-0.4,1.4-0.8,2.7-1.1,4c-0.3,1.4-0.5,2.7-0.8,4.1C45.9,89.7,45.2,92.3,44.3,95.1C44.4,95.1,44.4,95.1,44.3,95.1"/>
					</g>
					<g id="Fill-23">
						<path class="st6" d="M110.2,94.2c-0.3-0.9-0.7-1.8-1.1-2.7l-1-2.7l-2.1-5.3c-0.7-1.8-1.4-3.5-2.1-5.3
							c-0.3-0.9-0.8-1.8-1.1-2.7l-0.6-1.3c-0.3-0.4-0.4-0.9-0.6-1.3c1.2,1.5,2.1,3.3,2.9,5s1.6,3.5,2.3,5.3c0.7,1.8,1.4,3.6,1.9,5.4
							C109.2,90.4,109.7,92.3,110.2,94.2"/>
					</g>
					<g id="Fill-25">
						<path class="st6" d="M89.3,76.8c-0.3,3.9-1.3,7.7-2.6,11.4c-1.3,3.7-3,7.3-5.2,10.6c-1.1,1.6-2.3,3.2-3.6,4.6
							c-1.3,1.5-2.7,2.8-4.4,4c-1.5,1.2-3.3,2.2-5.1,3.1l-1.4,0.6l-1.4,0.5c-0.9,0.3-1.9,0.6-2.8,0.9c3.7-1.3,7.2-3.2,10.1-5.6
							c3-2.4,5.6-5.4,7.7-8.6c2.1-3.2,3.9-6.7,5.2-10.4c0.7-1.8,1.3-3.7,1.9-5.6C88.4,80.6,88.9,78.7,89.3,76.8"/>
					</g>
					<g id="Fill-27">
						<path class="st6" d="M75.5,84.5c-0.2,1.2-0.5,2.3-0.9,3.4c-0.4,1.1-0.9,2.2-1.5,3.2c-0.6,1-1.3,2-2,2.9l-2,2.9
							c-1.3,2-3,3.7-4.8,5.2c-1.9,1.5-4.1,2.5-6.4,3.1h-0.1v-0.1c2.1-1.1,4-2.2,5.8-3.7c1.8-1.5,3.5-3,5.1-4.7
							c0.8-0.9,1.5-1.8,2.1-2.8c0.3-0.5,0.6-1,0.9-1.5l0.8-1.5C73.5,88.7,74.4,86.7,75.5,84.5C75.5,84.4,75.5,84.4,75.5,84.5
							C75.5,84.4,75.5,84.5,75.5,84.5"/>
					</g>
					<g id="Fill-29">
						<path class="st6" d="M67.8,48.9c-5.4,0-10.9,1.3-15.8,3.8c-4.9,2.5-9.1,6.1-12.6,10.2c-3.5,4.2-6.4,8.9-8.6,13.8
							c-2.3,5-4.1,10.1-5.3,15.5l-0.1-0.3c1.2,0.9,2.7,1.6,4.2,2.3c1.5,0.6,3.1,1.1,4.6,1.6c3.2,0.9,6.4,1.7,9.5,2.5l0.3,0.1v0.3
							L42.7,159l-0.4-0.4l70.6,0.3l-0.2,0.2l-0.2-15.1l-0.3-15.1l-0.4-30.2v-0.3l0.2-0.1l9.5-2.7c1.6-0.4,3.2-0.9,4.7-1.5
							c1.5-0.6,3.1-1.2,4.6-1.9l-0.2,0.3c-1.4-5.3-3.3-10.5-5.8-15.5c-2.4-5-5.3-9.7-8.8-13.9c-3.5-4.2-7.7-7.9-12.6-10.4
							C98.6,50.2,93.2,49,87.7,49l0.3-0.2c-0.5,2.3-1.2,4.8-2.9,6.6c-0.9,0.9-2,1.5-3.1,1.9c-1.2,0.3-2.4,0.4-3.6,0.4
							c-2.5,0-4.7-1.3-6.4-2.9C70.1,53.1,68.8,51,67.8,48.9 M67.9,48.8c1,2.2,2.3,4.2,4,5.8c1.7,1.6,4,2.8,6.3,2.7
							c2.3,0,4.8-0.6,6.4-2.3c1.6-1.7,2.3-4,2.7-6.4v-0.2h0.2c5.6-0.1,11.2,1.1,16.1,3.7c5,2.5,9.3,6.2,12.9,10.5
							c3.6,4.2,6.5,9,9,14c2.4,5,4.4,10.2,5.8,15.6l0.1,0.3l-0.3,0.1c-1.5,0.7-3.1,1.3-4.6,1.9c-1.5,0.6-3.2,1-4.8,1.5l-9.6,2.7
							l0.2-0.3l0.3,30.2l0.2,15.1l0.3,15.1v0.2h-0.2l-70.6,0.3h-0.4v-0.4l1.4-60.4l0.3,0.4c-3.2-0.8-6.4-1.5-9.6-2.5
							c-1.6-0.5-3.2-1-4.7-1.7c-1.5-0.7-3-1.4-4.5-2.4l-0.2-0.2l0.3-0.2c1.3-5.4,3.2-10.6,5.5-15.5c2.3-5,5.2-9.7,8.8-13.9
							c3.5-4.2,7.9-7.8,12.8-10.2C56.9,49.9,62.4,48.7,67.9,48.8"/>
					</g>
					<g id="Fill-31">
						<path class="st7" d="M125.4,162.4H36.6l-2-54.6c-0.1-1.4,1.1-2.6,2.6-2.6h87.8c1.5,0,2.6,1.2,2.6,2.6L125.4,162.4z"/>
					</g>
					<g id="Fill-33">
						<path class="st6" d="M121.4,159.9l1.5-50.8l0.1-3.2c0-0.6,0.1-1-0.1-1.4c-0.2-0.4-0.4-0.8-0.9-1c-0.3-0.3-0.8-0.3-1.3-0.3
							h-1.6h-3.2h-12.7H77.8l-25.4-0.1L39.7,103h-3.2h-1.6c-0.5,0-0.9,0.1-1.4,0.3c-0.4,0.3-0.7,0.7-0.9,1.1
							c-0.2,0.4-0.2,0.9-0.1,1.5l0.1,3.2c0.5,16.9,1.1,33.9,1.9,50.8l-0.3-0.3l21.7-0.1h21.7l21.8,0.1L121.4,159.9z M121.5,160
							l-21.7,0.2L78,160.2H56.1l-21.9-0.1H34v-0.3c-0.4-16.9-1.1-33.9-1.8-50.8l-0.1-3.2c0-0.5-0.1-1.1,0.2-1.6c0.2-0.5,0.6-1,1-1.4
							c0.5-0.3,1.1-0.5,1.6-0.4h1.6h3.2l12.7-0.1l25.4-0.1h25.4H116h3.2h1.6c0.6,0,1.2,0.2,1.7,0.5c0.5,0.3,0.9,0.9,1.1,1.5
							c0.1,0.3,0.2,0.6,0.2,0.9v0.9l-0.2,3.2L121.5,160z"/>
					</g>
					<g id="Fill-35">
						<path class="st5" d="M119.3,179.6c0,0,1.7-1.6,5.2-1.4c2.2,0.2,8.6,2.3,11.6,2.6c3.1,0.3,6.4-0.1,7.8,2.7
							c2.5,4.7,0.9,8.6-4.3,8.7c-2.7,0.1-4.8-2-9.2-2c-4.2,0-10.6-2.1-12.3-5.3"/>
					</g>
					<g id="Fill-37">
						<path class="st8" d="M113.5,176.9c0,0,3.3,1.3,5.5,1.6c2.2,0.3,7.3,0.3,9.4,2c2.3,1.8,0.9,5.9-0.7,6.8
							c-2.7,1.4-4.6,0.3-9.1-1.6c-4.5-1.9-10-1.9-10-1.9"/>
					</g>
					<g id="Fill-39">
						<path class="st1" d="M12.4,138.2c-7.7-0.5-14.1,6.1-12.9,13.7c0,0.1,0,0.3,0.1,0.3c2,11.4,16.1,18.6,33,22.7
							c16.9,4,81.1,11.8,81.1,11.8s3.2-3.2,2.8-11.4c0,0-14.9-4.9-34.1-14.9C58.5,147.8,37.5,140,12.4,138.2"/>
					</g>
					<g id="Group-43" transform="translate(0.000000, 138.467250)">
						<g id="Clip-42">
						</g>
						<defs>
							<filter id="Adobe_OpacityMaskFilter" filterUnits="userSpaceOnUse" x="-0.7" y="-0.3" width="117.7" height="48.9">
								<feColorMatrix  type="matrix" values="1 0 0 0 0  0 1 0 0 0  0 0 1 0 0  0 0 0 1 0"/>
							</filter>
						</defs>
						<mask maskUnits="userSpaceOnUse" x="-0.7" y="-0.3" width="117.7" height="48.9" id="mask-2_1_">
							<g class="st9">
								<polygon id="path-1_1_" class="st1" points="-0.7,-0.3 116.9,-0.3 116.9,48.6 -0.7,48.6 								"/>
							</g>
						</mask>
						<g id="Fill-41" class="st10">
							<path class="st3" d="M12.4-0.3c4.6,0.3,9.3,0.9,13.8,1.6c4.6,0.8,9.1,1.7,13.7,2.8c9,2.3,17.8,5.5,26.3,9.3
								c4.3,1.9,8.4,4,12.5,6c4.1,2.1,8.2,4.2,12.4,6.3c8.3,4,16.8,7.6,25.6,10.7l0.3,0.1v0.3v1.5c0,0.5,0,1-0.1,1.5
								c-0.1,1-0.2,2.1-0.4,3c-0.3,1-0.5,2-0.9,2.9c-0.4,0.9-0.9,1.9-1.6,2.7l-0.1,0.1h-0.2c-12.1-1.5-24.1-3.1-36.2-4.8
								c-12-1.6-24.1-3.3-36.2-5.2l-4.5-0.9c-1.5-0.3-3-0.6-4.5-0.9c-3-0.7-5.9-1.5-8.8-2.5c-5.8-2-11.5-4.5-16.2-8.3
								c-2.4-1.9-4.6-4.2-6-7l-0.5-1l-0.4-1.1c-0.2-0.3-0.3-0.7-0.4-1.1l-0.3-1.1c-0.4-1.5-0.4-3.1-0.3-4.6c0.3-3.1,2.1-5.8,4.5-7.8
								C6.3,0.4,9.4-0.5,12.4-0.3 M12.4-0.2c-3-0.2-6.1,0.7-8.5,2.7c-2.3,1.9-4,4.7-4.3,7.7c-0.2,1.5-0.1,3,0.3,4.5l0.3,1.1
								c0.1,0.3,0.3,0.7,0.4,1l0.4,1l0.5,0.9c1.5,2.7,3.6,4.8,6,6.7c2.4,1.8,5,3.3,7.7,4.7c2.7,1.3,5.6,2.4,8.4,3.3
								c2.8,0.9,5.8,1.8,8.8,2.5c2.9,0.7,5.9,1.3,8.9,1.8c11.9,2.1,24,3.9,36.1,5.6c12,1.5,24.1,3.1,36.2,4.5l-0.3,0.1
								c0.6-0.7,1-1.6,1.5-2.5c0.3-0.9,0.6-1.9,0.9-2.8c0.2-0.9,0.3-2,0.4-2.9c0-0.5,0-1,0.1-1.5v-1.5l0.3,0.3
								c-8.8-3-17.3-6.6-25.8-10.6c-4.2-2-8.3-4.1-12.5-6.3c-4.1-2.1-8.3-4.1-12.5-6c-8.4-3.8-17.1-7.1-26-9.6
								c-4.5-1.2-9-2.2-13.6-3.1C21.7,0.7,17.1,0.1,12.4-0.2"/>
						</g>
					</g>
					<g id="Fill-44">
						<path class="st11" d="M129.9,181.2c0,0-1.6-1.1-2.3-0.2c-0.7,0.9-1.5,5.2-1.2,6c0.4,1.3,2.9,1.1,2.9,1.1l2.6-5.3L129.9,181.2z
							"/>
					</g>
					<g id="Group-48" transform="translate(11.163043, 178.825946)">
						<g id="Clip-47">
						</g>
						<defs>
							<filter id="Adobe_OpacityMaskFilter_1_" filterUnits="userSpaceOnUse" x="-0.7" y="-0.3" width="27.7" height="13.9">
								<feColorMatrix  type="matrix" values="1 0 0 0 0  0 1 0 0 0  0 0 1 0 0  0 0 0 1 0"/>
							</filter>
						</defs>
						<mask maskUnits="userSpaceOnUse" x="-0.7" y="-0.3" width="27.7" height="13.9" id="mask-4_1_">
							<g class="st12">
								<polygon id="path-3_1_" class="st1" points="-0.7,-0.3 26.9,-0.3 26.9,13.6 -0.7,13.6 								"/>
							</g>
						</mask>
						<g id="Fill-46" class="st13">
							<path class="st5" d="M25.8,1.1c0,0-1.7-1.6-5.3-1.4C18.2-0.1,11.7,2,8.6,2.3C5.4,2.5,2.3,2.2,0.5,4.5c-3.3,4.4,0.7,9,5.9,9.1
								c2.8,0.1,3.5-1.6,8-1.6c4.4,0,10.9-2.1,12.5-5.4"/>
						</g>
					</g>
					<g id="Fill-49">
						<path class="st8" d="M42.9,177.2c0,0-3.3,1.4-5.7,1.7c-2.3,0.3-7.6,0.3-9.7,2.1c-2.4,1.9-1,6.1,0.7,7c2.7,1.4,4.7,0.3,9.4-1.6
							c4.6-2,10.2-2,10.2-2"/>
					</g>
					<g id="Fill-51">
						<path class="st1" d="M143.8,138.2c7.7-0.5,14.1,6.1,12.9,13.7c0,0.1,0,0.3-0.1,0.3c-2,11.4-16.1,18.6-33,22.7
							c-16.9,4-81.1,11.8-81.1,11.8s-3.2-3.2-2.8-11.4c0,0,14.9-4.9,34.1-14.9C97.7,147.8,118.7,140,143.8,138.2"/>
					</g>
					<g id="Fill-53">
						<path class="st3" d="M143.8,138.3c-4.6,0.3-9.2,0.9-13.8,1.7c-4.6,0.9-9.1,1.9-13.6,3.1c-8.9,2.5-17.6,5.8-26,9.6
							c-4.2,1.9-8.4,3.9-12.5,6c-4.1,2.1-8.2,4.3-12.5,6.3c-8.4,3.9-16.9,7.6-25.8,10.6l0.3-0.3v1.5c0,0.5,0,1,0.1,1.5
							c0.1,0.9,0.2,2,0.4,2.9c0.2,0.9,0.4,1.9,0.9,2.8c0.3,0.9,0.9,1.8,1.5,2.5l-0.3-0.1c12.1-1.4,24.1-2.9,36.2-4.5
							c12-1.6,24.1-3.4,36.1-5.6c3-0.5,6-1.1,8.9-1.8c2.9-0.7,5.8-1.5,8.8-2.5c2.8-0.9,5.7-2.1,8.4-3.3c2.7-1.3,5.3-2.8,7.7-4.7
							c2.4-1.8,4.5-4,6-6.7l0.5-0.9l0.4-1c0.2-0.3,0.3-0.7,0.4-1l0.3-1.1c0.4-1.5,0.5-3,0.3-4.5c-0.3-3-2-5.8-4.3-7.7
							C149.9,139,146.8,138.1,143.8,138.3 M143.8,138.2c3-0.2,6.2,0.7,8.6,2.7c2.4,1.9,4.1,4.7,4.5,7.8c0.2,1.5,0.2,3.1-0.3,4.6
							l-0.3,1.1c-0.1,0.3-0.3,0.7-0.4,1.1l-0.4,1.1l-0.5,1c-1.5,2.7-3.6,5-6,7c-4.8,3.9-10.5,6.4-16.2,8.3c-2.9,0.9-5.8,1.8-8.8,2.5
							c-1.5,0.3-3,0.7-4.5,0.9L115,177c-12,2-24,3.5-36.2,5.2c-12,1.7-24.1,3.3-36.2,4.8h-0.2l-0.1-0.1c-0.8-0.9-1.2-1.7-1.6-2.7
							c-0.4-0.9-0.7-2-0.9-2.9c-0.3-1-0.3-2-0.4-3c0-0.5-0.1-1-0.1-1.5v-1.5v-0.3l0.3-0.1c8.7-3.1,17.3-6.7,25.6-10.7
							c4.2-2,8.2-4.1,12.4-6.3c4.1-2.1,8.3-4.1,12.5-6c8.5-3.8,17.3-7,26.3-9.3c4.5-1.1,9-2.1,13.7-2.8
							C134.5,139,139.2,138.5,143.8,138.2"/>
					</g>
					<g id="Fill-55">
						<path class="st11" d="M26.1,181.5c0,0,1.6-1.1,2.3-0.2c0.7,1,1.5,5.4,1.2,6.1c-0.4,1.3-3,1.1-3,1.1l-2.7-5.4L26.1,181.5z"/>
					</g>
					<g id="Fill-57">
						<path class="st1" d="M77,42.9c0,0-15.8,2.1-13.9-29.2l16.4-8.3l13.6,8.3C93.1,13.7,96.7,44.8,77,42.9"/>
					</g>
					<g id="Fill-59">
						<path class="st3" d="M77,42.9c1.6,0.2,3.3,0.1,4.8-0.3c1.5-0.3,3.1-1,4.3-2c2.6-2,4.2-4.9,5.2-7.9c1-3,1.5-6.3,1.6-9.4
							c0.2-3.2,0.1-6.4-0.3-9.5l0.2,0.3L79.2,5.9h0.4l-16.4,8.2l0.2-0.3c-0.2,3-0.3,6-0.1,9s0.5,6,1.4,8.9c0.9,2.9,2.1,5.8,4.2,7.9
							C71,41.7,74,43.1,77,42.9 M77,42.9c-3,0.2-6-1.2-8.2-3.3c-2.1-2.1-3.5-5-4.4-7.9c-0.9-2.9-1.4-5.9-1.6-8.9
							c-0.3-3-0.3-6.1-0.1-9.1v-0.2l0.2-0.1L79.2,5l0.2-0.1L79.6,5l13.6,8.4l0.2,0.1v0.2c0.3,3.3,0.3,6.4,0,9.7
							c-0.3,3.2-0.8,6.4-1.9,9.4c-1.1,3-2.7,5.9-5.3,7.9c-1.3,0.9-2.8,1.6-4.4,2C80.3,43,78.6,43,77,42.9"/>
					</g>
					<g id="Fill-61">
						<path class="st1" d="M82.8,129.6c0,3.1-2.5,5.6-5.6,5.6c-3.1,0-5.6-2.5-5.6-5.6c0-3.1,2.5-5.6,5.6-5.6
							C80.4,123.9,82.8,126.5,82.8,129.6"/>
					</g>
					<g id="Fill-63">
						<path class="st6" d="M70.2,25.9c0,0.6,0.5,1.1,1.1,1.1c0.6,0,1.1-0.4,1.1-1.1c0-0.6-0.5-1.1-1.1-1.1
							C70.7,24.7,70.2,25.3,70.2,25.9"/>
					</g>
					<g id="Fill-65">
						<path class="st6" d="M69.4,24.1c0.2,0.2,1-0.5,2.2-0.6c1.2-0.1,2.1,0.5,2.3,0.4c0.1-0.1-0.1-0.3-0.5-0.6
							c-0.4-0.3-1-0.5-1.8-0.5c-0.8,0-1.4,0.3-1.8,0.6C69.5,23.8,69.3,24.1,69.4,24.1"/>
					</g>
					<g id="Fill-67">
						<path class="st6" d="M82.7,26c0,0.6,0.5,1.1,1.1,1.1s1.1-0.4,1.1-1.1c0-0.6-0.5-1.1-1.1-1.1S82.7,25.4,82.7,26"/>
					</g>
					<g id="Fill-69">
						<path class="st6" d="M81.6,24c0.2,0.2,1-0.5,2.2-0.6c1.2-0.1,2.1,0.5,2.3,0.4c0.1-0.1-0.1-0.3-0.5-0.6c-0.4-0.3-1-0.5-1.8-0.5
							c-0.8,0-1.4,0.3-1.8,0.6C81.6,23.6,81.5,23.9,81.6,24"/>
					</g>
					<g id="Fill-71">
						<path class="st6" d="M78.3,34.1c0-0.1-0.6-0.2-1.7-0.3c-0.3,0-0.5-0.1-0.6-0.3c-0.1-0.2,0-0.5,0.2-0.8
							c0.3-0.7,0.4-1.3,0.7-2.1c1-2.9,1.7-5.2,1.6-5.3c-0.1,0-1,2.3-2,5.2c-0.3,0.7-0.4,1.4-0.7,2.1c-0.1,0.3-0.3,0.7-0.1,1
							c0.1,0.2,0.3,0.3,0.4,0.3c0.2,0.1,0.3,0.1,0.4,0.1H78.3z"/>
					</g>
					<g id="Fill-73">
						<path class="st6" d="M82.8,36c-0.2-0.1-0.6,1.2-2,1.8c-1.4,0.6-2.7,0-2.7,0.2c-0.1,0.1,0.3,0.3,0.8,0.5
							c0.6,0.2,1.5,0.3,2.3-0.1c0.9-0.3,1.4-1,1.5-1.5C82.9,36.4,82.9,36.1,82.8,36"/>
					</g>
					<g id="Fill-75">
						<path class="st6" d="M81.1,19.1c0.2,0.3,1.4,0.2,2.8,0.3c1.5,0.1,2.7,0.5,2.8,0.2c0.1-0.2-0.2-0.4-0.6-0.8
							c-0.5-0.3-1.3-0.5-2.1-0.6c-0.9-0.1-1.6,0.1-2.2,0.3C81.3,18.6,81,19,81.1,19.1"/>
					</g>
					<g id="Fill-77">
						<path class="st6" d="M69.7,20.5c0.3,0.3,1-0.1,2.1-0.1c1-0.1,1.9,0.2,2.1-0.2c0.1-0.2-0.1-0.4-0.4-0.7c-0.3-0.3-1-0.4-1.7-0.4
							c-0.7,0.1-1.3,0.3-1.6,0.6C69.7,20.1,69.6,20.4,69.7,20.5"/>
					</g>
					<g id="Fill-79">
						<path class="st2" d="M42.8,36.7c0.7,0,1.6-0.1,2.7-0.6c1-0.5,2.1-1.5,2.9-2.8c0.9-1.4,1.5-3,2.2-4.7c1.4-3.4,2.4-6.6,3.2-9
							c0.1-0.3,0.2-0.7,0.3-1c0.1-0.4,0.1-0.8,0.2-1C58.3,2.1,71.9-0.8,74.6-0.8c2.9,0,7.9-1.5,15.3,6.1c1.2,1.3,2.1,2.6,2.8,3.9
							c1.9,2.4,2.9,5,3.3,7c0.4,2.2,1.7,3.3,1.6,3.3c-0.5-0.5-1.5-1-2.1-3.2c-0.3-1.1-0.8-2.3-1.5-3.7c1.1,4.8-0.8,8.6-0.8,8.6
							l-2.7-0.7l-9.4-3.2C82,14.4,80.7,10.7,80,9l-0.1-0.1C77.8,20,65.5,21.2,65.5,21.2l-2.2,4.4c-12.5-2.7-9.9,0.3-9.8-3.1
							c-0.6,1.9-1.3,4.1-2.2,6.4c-0.7,1.7-1.4,3.4-2.3,4.8c-0.9,1.4-2.1,2.4-3.3,2.9c-1.2,0.5-2.2,0.6-2.9,0.4c-0.7-0.2-1-0.3-1-0.4
							C41.8,36.5,42.1,36.7,42.8,36.7"/>
					</g>
				</g>
			</g>
		</g>
	</g>
</g>
</svg>
