<?xml version="1.0" encoding="UTF-8"?>
<svg width="9px" height="7px" viewBox="0 0 9 7" version="1.1" xmlns="http://www.w3.org/2000/svg" xmlns:xlink="http://www.w3.org/1999/xlink">
    <!-- Generator: Sketch 57.1 (83088) - https://sketch.com -->
    <title>Arrow</title>
    <desc>Created with Sketch.</desc>
    <g id="Page-1" stroke="none" stroke-width="1" fill="none" fill-rule="evenodd">
        <g id="Arrow" transform="translate(4.375000, 3.500000) scale(-1, 1) translate(-4.375000, -3.500000) " fill="#70343E" fill-rule="nonzero">
            <g id="next" transform="translate(4.375000, 3.500000) scale(-1, 1) translate(-4.375000, -3.500000) ">
                <path d="M8.71911063,3.52991715 C8.74723685,3.46187866 8.73157895,3.38358918 8.67945419,3.33160088 L5.40460039,0.0567470761 C5.33233187,-0.0130653022 5.21714912,-0.0110526315 5.14733675,0.0612158869 C5.07924707,0.131727583 5.07924707,0.243499025 5.14733675,0.313993665 L8.11181286,3.27846978 L0.181942008,3.27846978 C0.0814619883,3.27848685 0,3.35994883 0,3.46042885 C0,3.56090887 0.0814619883,3.64237086 0.181942008,3.64237086 L8.11181286,3.64237086 L5.14771199,6.60647173 C5.07544347,6.67628412 5.0734308,6.7914498 5.14324317,6.86373538 C5.21305556,6.9360039 5.32822125,6.93799951 5.40050683,6.86820419 C5.40202485,6.86673733 5.40350877,6.86525341 5.40497563,6.86373538 L8.67982944,3.58888158 C8.69664717,3.57197856 8.71000244,3.55195419 8.71911063,3.52991715 Z" id="Path"></path>
                <path d="M5.27614766,6.91720825 C5.17566764,6.91739522 5.0940692,6.83606969 5.09388101,6.73558967 C5.0937963,6.68714912 5.11303607,6.64067008 5.14733675,6.60645468 L8.29375487,3.46042885 L5.14733675,0.314385965 C5.07752437,0.242117446 5.07953704,0.126934698 5.15180556,0.0571223197 C5.22231725,-0.010967349 5.33408869,-0.010967349 5.40458334,0.0571223197 L8.67943714,3.33197612 C8.75046051,3.40301657 8.75046051,3.51818226 8.67943714,3.58923976 L5.40458334,6.86409356 C5.37050439,6.89810429 5.3243153,6.91720825 5.27614766,6.91720825 Z" id="Path"></path>
                <path d="M8.55100146,3.6423538 L0.181942008,3.6423538 C0.0814619883,3.6423538 0,3.56090887 0,3.46042885 C0,3.35994883 0.0814619883,3.27848685 0.181942008,3.27848685 L8.55101852,3.27848685 C8.65149854,3.27848685 8.73296053,3.35994883 8.73296053,3.46042885 C8.73296053,3.56090887 8.65148148,3.6423538 8.55100146,3.6423538 Z" id="Path"></path>
            </g>
        </g>
    </g>
</svg>