<?xml version="1.0" encoding="UTF-8"?>
<svg width="10px" height="8px" viewBox="0 0 10 8" version="1.1" xmlns="http://www.w3.org/2000/svg" xmlns:xlink="http://www.w3.org/1999/xlink">
    <!-- Generator: Sketch 57.1 (83088) - https://sketch.com -->
    <title>next</title>
    <desc>Created with Sketch.</desc>
    <g id="Page-1" stroke="none" stroke-width="1" fill="none" fill-rule="evenodd">
        <g id="next" transform="translate(5.000000, 3.957115) scale(-1, 1) translate(-5.000000, -3.957115) " fill="#217CED" fill-rule="nonzero">
            <path d="M9.96469786,4.03419103 C9.99684211,3.95643275 9.97894737,3.86695906 9.91937622,3.80754386 L6.17668616,0.0648538012 C6.09409357,-0.0149317739 5.96245614,-0.0126315789 5.88267057,0.0699610136 C5.8048538,0.150545809 5.8048538,0.2782846 5.88267057,0.358849903 L9.27064327,3.74682261 L0.207933723,3.74682261 C0.0930994152,3.74684211 0,3.83994152 0,3.95477583 C0,4.06961014 0.0930994152,4.16270955 0.207933723,4.16270955 L9.27064327,4.16270955 L5.88309942,7.55025341 C5.80050682,7.63003899 5.79820663,7.76165692 5.8779922,7.84426901 C5.95777778,7.9268616 6.08939571,7.9291423 6.1720078,7.84937622 C6.17374269,7.84769981 6.1754386,7.8460039 6.17711501,7.84426901 L9.91980507,4.10157895 C9.93902534,4.08226121 9.9542885,4.05937622 9.96469786,4.03419103 Z" id="Path"></path>
            <path d="M6.02988304,7.90538049 C5.91504873,7.90559454 5.82179337,7.81265107 5.82157862,7.69781676 C5.82148148,7.64245614 5.84346979,7.58933723 5.88267057,7.55023392 L9.478577,3.95477583 L5.88267057,0.359298246 C5.80288499,0.276705653 5.80518519,0.145068226 5.88777778,0.0652826511 C5.96836257,-0.0125341131 6.09610136,-0.0125341131 6.17666667,0.0652826511 L9.91935673,3.80797271 C10.0005263,3.88916179 10.0005263,4.02077973 9.91935673,4.1019883 L6.17666667,7.84467836 C6.1377193,7.88354776 6.08493177,7.90538049 6.02988304,7.90538049 Z" id="Path"></path>
            <path d="M9.7725731,4.16269006 L0.207933723,4.16269006 C0.0930994152,4.16269006 0,4.06961014 0,3.95477583 C0,3.83994152 0.0930994152,3.74684211 0.207933723,3.74684211 L9.77259259,3.74684211 C9.8874269,3.74684211 9.98052632,3.83994152 9.98052632,3.95477583 C9.98052632,4.06961014 9.88740741,4.16269006 9.7725731,4.16269006 Z" id="Path"></path>
        </g>
    </g>
</svg>