<?xml version="1.0" encoding="UTF-8"?>
<svg width="12px" height="13px" viewBox="0 0 12 13" version="1.1" xmlns="http://www.w3.org/2000/svg" xmlns:xlink="http://www.w3.org/1999/xlink">
    <!-- Generator: Sketch 57.1 (83088) - https://sketch.com -->
    <title>Close</title>
    <desc>Created with Sketch.</desc>
    <g id="Page-1" stroke="none" stroke-width="1" fill="none" fill-rule="evenodd">
        <g id="Close" fill="#CACACA" fill-rule="nonzero">
            <path d="M10.165,12.1123333 L0.407,2.35433333 C0.154204823,2.10174662 0.055365885,1.7334821 0.147714855,1.3882617 C0.240063883,1.0430413 0.50957065,0.77331205 0.854714867,0.680678367 C1.19985897,0.588044683 1.5682048,0.68657995 1.821,0.939166667 L11.579,10.6971667 C11.9297873,11.0937963 11.9114952,11.6948754 11.5372389,12.0694405 C11.1629825,12.4440056 10.5619189,12.4627935 10.165,12.1123333" id="Path"></path>
            <path d="M0.407,12.1123333 C0.218976267,11.924935 0.11319607,11.6704556 0.112976537,11.404992 C0.112758372,11.1395282 0.218118883,10.8848747 0.405833333,10.6971667 L10.1638333,0.939166667 C10.5573834,0.565210917 11.1772881,0.573122667 11.5611661,0.957000567 C11.945044,1.34087858 11.9529557,1.9607833 11.579,2.35433333 L1.821,12.1123333 C1.63364617,12.3001317 1.37927282,12.405673 1.114,12.405673 C0.848727183,12.405673 0.594353833,12.3001317 0.407,12.1123333" id="Path"></path>
        </g>
    </g>
</svg>