<svg xmlns="http://www.w3.org/2000/svg" width="401.304" height="97.713" viewBox="0 0 401.304 97.713"><defs><style>.a{fill:#fff;stroke:rgba(0,0,0,0);stroke-miterlimit:10;}</style></defs><path class="a" d="M253.5,84.343q-3.349-1.216-4.327-3.556a6.72,6.72,0,0,1-.232-4.725,6.556,6.556,0,0,1,2.651-3.649,4.83,4.83,0,0,1,4.513-.327,33.207,33.207,0,0,0,7.4,2.2,37.909,37.909,0,0,0,5.721.515q5.675,0,8.514-2.387t2.838-7.438v-4.3A13.631,13.631,0,0,1,274.718,66a18.389,18.389,0,0,1-8.374,1.965,19.744,19.744,0,0,1-10.7-2.854,19.364,19.364,0,0,1-7.117-8,26.806,26.806,0,0,1-2.559-12.07,26.806,26.806,0,0,1,2.559-12.07,19.364,19.364,0,0,1,7.117-8,19.744,19.744,0,0,1,10.7-2.854,18.668,18.668,0,0,1,8.419,1.918,12.423,12.423,0,0,1,5.63,5.193q.837-6.923,8.187-6.924,8.095,0,8.095,8.328V63.009q0,12.07-6.7,18.059T270.81,87.056Q260.3,87.056,253.5,84.343Zm11.536-47.158q-2.418,2.808-2.418,7.86t2.418,7.86a8.056,8.056,0,0,0,6.421,2.807,8.16,8.16,0,0,0,6.512-2.807q2.419-2.807,2.419-7.86t-2.419-7.86a8.16,8.16,0,0,0-6.512-2.807A8.056,8.056,0,0,0,265.041,37.184ZM365.757,85.371a6.074,6.074,0,0,1-2.186-3.883,9.4,9.4,0,0,1,.837-5.193L369.153,66,354.732,32.881q-1.862-4.211,0-7.392t7.257-3.182a7.852,7.852,0,0,1,4.746,1.357q1.86,1.357,3.349,5.287l7.816,20.3,8.187-20.4q1.489-3.837,3.4-5.193a8.749,8.749,0,0,1,5.163-1.357,6.073,6.073,0,0,1,5.815,3.182q1.721,3.181-.139,7.392L379.2,80.6a11.507,11.507,0,0,1-3.675,4.959,9.077,9.077,0,0,1-5.071,1.31A7.141,7.141,0,0,1,365.757,85.371Zm-326.712-8.2c.03-.056-.036-.083-.162-.1.212-.092,1.287-.018,1.173.122A4.221,4.221,0,0,0,39.046,77.169Zm1.669-.12A.557.557,0,0,1,40.488,77a.549.549,0,0,0-.263-.049,8.377,8.377,0,0,1-1.663-.092c.006-.066.2-.083.418-.076a2.445,2.445,0,0,1,.577.065c.028-.086-.194-.108-.457-.119a3.31,3.31,0,0,1-.69-.07c.23-.022.465-.022.714-.022s.5.008.758.022c.141,0,.284.011.425.017.369.015.736.032,1.088.022.569-.005,1.4-.1,2.2-.158.4-.041.791-.064,1.138-.079a3.629,3.629,0,0,1,.871.053c.313-.053.43-.086.536-.11a3.6,3.6,0,0,1,.47-.062,1.407,1.407,0,0,1-.281.124c-.127.042-.282.085-.45.13-.34.093-.741.166-1.093.224a13.907,13.907,0,0,1-3.049.155,3.2,3.2,0,0,1-.379.01c-.241,0-.481,0-.462.061-.056,0-.1.006-.144.006Zm3.844-.486a3.921,3.921,0,0,0-.411.053,1.307,1.307,0,0,0-.557.19c.253-.031.581-.055.85-.086s.475-.086.484-.16c-.028,0-.058-.005-.089-.006H44.78C44.71,76.552,44.636,76.556,44.559,76.563Zm-9.751-.011-.365-.056c-.255-.039-.53-.076-.81-.112s-.564-.068-.838-.1l-.774-.1a3.89,3.89,0,0,1-.652-.124c-.292-.05-.357-.019-.662-.079-.4-.1-.846-.266-1.285-.357-.146-.031-.292-.056-.44-.077l-.222-.033-.225-.041c-.3-.054-.608-.113-.925-.2-.192-.051-.4-.112-.611-.179-.107-.031-.214-.069-.323-.111l-.328-.125c-.44-.167-.881-.34-1.274-.483l-1.693-.7c-.15-.059-.3-.132-.446-.2l-.451-.215-.918-.437c-.307-.156-.608-.326-.913-.49s-.612-.327-.911-.5-.59-.36-.879-.539l-.432-.266c-.144-.087-.285-.175-.42-.272q-.591-.408-1.175-.81c-.1-.069-.2-.132-.29-.205l-.28-.215-.557-.427c-.185-.142-.369-.284-.554-.425s-.352-.3-.528-.446c-.347-.3-.7-.594-1.035-.9l-.847-.825c-.117-.112-.235-.229-.355-.348-.06-.059-.123-.119-.182-.181s-.117-.127-.177-.19c-.094-.1-.074-.159-.193-.28-.169-.175-1.037-.967-1.424-1.447-.231-.265-.408-.566-.608-.822-.538-.714-1.093-1.416-1.691-2.338-.225-.332-.413-.676-.617-1.011s-.4-.678-.629-1.007c-.2-.3-.289-.447-.449-.717a28.71,28.71,0,0,1-1.366-2.666c-.421-.945-.816-1.927-1.159-2.924A54.251,54.251,0,0,1,2.26,46.72a1.271,1.271,0,0,0-.094-.5,4.14,4.14,0,0,1-.173-.621.975.975,0,0,0-.014-.516c-.04-.2-.1-.424-.131-.629-.07-.439-.117-.84-.173-1.256s-.1-.846-.176-1.343c-.041-.288-.081-.34-.114-.646a3.336,3.336,0,0,1,0-.49c-.143-1.422-.252-2.881-.346-4.7a.212.212,0,0,1-.051-.161c0-.281,0-.778,0-1.34S1,33.323,1,32.782c0-1.535.02-3.127.14-5q.024-.329.047-.668c.022-.226.042-.454.064-.686.04-.462.094-.931.141-1.4.087-.829.133-1.6.266-2.443.066-.414.191-.787.28-1.287.013-.067.028-.4.085-.656a4.127,4.127,0,0,1,.145-.475c.041-.2-.017-.292.014-.506a4.934,4.934,0,0,1,.167-.671c.071-.226.144-.44.186-.609.154-.628.4-1.624.714-2.709s.7-2.255,1.087-3.236c.3-.771.713-1.569,1.063-2.326.383-.791.745-1.591,1.165-2.353.2-.385.426-.754.649-1.117.112-.181.236-.355.355-.528s.241-.343.373-.5a8.274,8.274,0,0,1,.6-1c.116-.167.239-.338.365-.509l.4-.51.21-.26c.072-.086.145-.172.22-.258q.219-.263.445-.532c.308-.355.614-.726.929-1.1A5.644,5.644,0,0,0,12,.653c.143-.156.292-.3.44-.455s.3-.3.454-.451a5.971,5.971,0,0,1,.565-.463c.188-.139.4-.277.657-.5.165-.138.427-.376.714-.631.139-.131.3-.251.45-.371s.3-.234.427-.332l.486-.365.248-.184.259-.175,1.063-.71c.178-.125.368-.232.558-.346l.572-.339.581-.343c.2-.111.4-.212.6-.319a32.833,32.833,0,0,1,5.2-2.229l.686-.226.344-.112.348-.1,1.39-.381c.467-.109.934-.209,1.4-.312s.932-.183,1.4-.264l.695-.118c.115-.019.229-.043.346-.057l.345-.043,1.366-.17c.453-.049.9-.076,1.341-.115L35.6-9.5c.22-.016.435-.021.65-.03.424-.018.874-.007,1.307-.019a5.292,5.292,0,0,0,1.21-.1c.34.012.684.017,1.039.035s.716.045,1.077.068c.724.062,1.448.125,2.139.222.161.021.4.022.606.041s.385.065.42.148a25.081,25.081,0,0,1,5.2,1.313c.107.039.213.075.318.116l.316.13.628.26c.208.086.413.191.621.286s.413.193.617.3a24.226,24.226,0,0,1,2.388,1.394c.172.114.342.223.512.331l.5.345c.165.115.333.227.5.35s.323.255.484.388c.352.281.693.621,1.04.954l.131.126.116.124c.079.083.158.165.234.247.154.165.307.32.452.482.528.589,1.034,1.23,1.5,1.83.12.155.246.308.374.461s.248.319.374.48a10,10,0,0,1,.71,1.013c.044.071.089.143.129.219l.12.235c.078.158.156.321.23.483s.144.332.215.5.139.326.212.48c.126.277.268.59.428.942.076.18.15.373.229.579.036.1.076.209.115.318s.069.226.1.344a16.392,16.392,0,0,1,.593,2.945c.013.122.026.242.038.364s.024.241.03.361c.012.24.022.479.034.717s0,.472,0,.706c0,.117,0,.234,0,.351s-.014.264-.02.4c-.02.267-.046.536-.086.811-.017.137-.041.271-.068.416s-.058.3-.092.445a9.46,9.46,0,0,1-.563,1.693,8.594,8.594,0,0,1-2.03,2.83l-.222.2c-.071.064-.16.136-.232.2-.131.112-.28.224-.42.333a10.063,10.063,0,0,1-.958.627,8.032,8.032,0,0,1-1.313.6,7.107,7.107,0,0,1-1.57.362c-.139.016-.282.027-.422.033s-.284.009-.426.008l-.106,0h-.054l-.032,0-.124-.006-.249-.014c-.167-.012-.338-.026-.511-.042s-.347-.035-.528-.063l-.271-.04c-.092-.014-.187-.032-.28-.05-.184-.031-.382-.079-.575-.123a9.258,9.258,0,0,1-1.25-.4,7.3,7.3,0,0,1-1.382-.747A6.193,6.193,0,0,1,48.371,17.5l-1.336-1.724.877-2.03a4.363,4.363,0,0,0,.26-.9,8.73,8.73,0,0,0,.127-1.232c.01-.224,0-.455.006-.684,0-.113-.011-.224-.014-.336l-.007-.169c0-.056-.009-.109-.014-.165l-.03-.328L48.2,9.608c-.013-.107-.035-.21-.054-.313s-.034-.21-.063-.308c-.064-.256-.156-.3-.048-.419-.1-.26-.2-.486-.315-.727-.058-.118-.109-.247-.177-.378-.032-.066-.064-.136-.1-.209s-.076-.145-.113-.223a1.38,1.38,0,0,1-.054-.192s-.029-.044-.073-.108c-.022-.032-.048-.07-.074-.111l-.1-.122c-.123-.172-.274-.333-.287-.356s-.043-.059-.065-.089l-.075-.087c-.049-.06-.1-.121-.148-.183s-.109-.12-.164-.182-.111-.13-.169-.183-.116-.115-.173-.175-.126-.112-.189-.17c-.124-.121-.275-.221-.413-.338a6.935,6.935,0,0,0-1.017-.608c-.093-.049-.2-.087-.294-.132L43.89,3.93c-.05-.022-.105-.039-.158-.058l-.32-.114-.337-.1a.273.273,0,0,0-.1-.007.325.325,0,0,1-.132-.014,11.651,11.651,0,0,0-2.705-.525L39.7,3.082c-.146-.01-.292-.02-.444-.022l-.448-.015c-.149,0-.286,0-.428,0l-.418.006-.206,0-.2.015c-.265.022-.521.04-.764.057a15.386,15.386,0,0,0-4.121.988,5.57,5.57,0,0,0-.668.3c-.22.117-.444.229-.662.348s-.428.261-.643.381l-.16.088-.156.1c-.1.064-.205.125-.31.184a2.055,2.055,0,0,0-.286.14c-.046.027-.091.054-.135.085s-.085.067-.126.1c-.165.139-.318.288-.461.428a1.649,1.649,0,0,0-.536.379c-.148.144-.277.3-.433.452-.216.15-.417.307-.617.464-.1.081-.2.162-.3.247s-.194.185-.293.284A17.743,17.743,0,0,0,25.5,9.722c-.179.232-.253.374-.393.552s-.19.148-.3.283c-.12.157-.261.415-.446.668-.139.194-.4.428-.51.62a1.573,1.573,0,0,1-.22.5,1.88,1.88,0,0,1-.266.3c-.208.326-.436.72-.695,1.143-.122.217-.241.448-.366.683q-.1.175-.191.355c-.033.06-.065.121-.1.182s-.059.125-.089.186c-.234.507-.5,1.01-.7,1.531-.111.257-.22.511-.325.759s-.192.5-.282.736l-.214.556c-.068.187-.128.38-.192.571s-.127.382-.19.574l-.1.288-.082.3c-.109.394-.223.788-.329,1.185s-.189.806-.282,1.211a43.654,43.654,0,0,0-.757,4.982c-.025.305-.029.561-.047.857-.005.1-.027.281-.056.522-.014.122-.033.257-.047.408s-.023.315-.036.49c-.007.12.041.145.025.291a1.213,1.213,0,0,0-.07.282c-.009.206-.014.4-.014.6s.013.39.021.587c.019.393.04.8.045,1.263,0,0,0,.025-.01.062s-.014.091-.023.149a2.43,2.43,0,0,0-.026.357c.006.172.042.418.078.694s.071.584.093.873c.023.373.028.763.028,1.165,0,.2,0,.4.013.608s.017.412.026.622c.009.181.031.365.05.551s.052.372.065.563c.023.328,0,.648.032.977.015.19.045.377.077.567s.065.382.1.576.066.388.1.586.076.391.113.59c.032.176.066.393.1.611s.064.433.1.6c.08.364.206.754.262,1.058.025.151.042.3.059.456a4.7,4.7,0,0,0,.067.487c.069.328.179.709.274,1.044.076.308.146.617.217.925s.165.6.253.9c.051.162.094.337.141.514a4.529,4.529,0,0,0,.181.506c.094.221.26.411.381.708s.246.573.358.864c.059.145.115.289.173.43s.131.273.2.405c.083.158.174.314.263.467.045.076.088.15.132.226.021.038.042.076.064.112l.066.11c.172.289.247.535.415.82a7.778,7.778,0,0,0,.493.618c.075.112.154.254.231.4s.149.29.225.4c.33.492.592,1.072.98,1.57.083.112.17.221.259.33s.182.218.282.319c.2.206.4.417.6.647l.142.167.148.158.3.318c.2.212.393.435.609.634s.427.418.654.626.477.4.731.6c.115.1.243.185.365.277l.364.268.177.131.087.064.088.057c.118.072.233.144.342.21.173.105.341.2.508.281s.34.14.507.216c.084.037.167.076.25.118s.166.09.254.13a3.821,3.821,0,0,1,.535.313,5.562,5.562,0,0,0,.869.491,7.708,7.708,0,0,0,.965.381l.25.087c.085.026.171.046.257.069l.52.139c.088.022.174.051.263.068l.267.054c.179.037.356.075.535.117l.134.031.14.023.277.042c.185.032.368.06.549.09.367.039.725.068,1.057.1.192.01.43.081.61.085.1,0,.2,0,.307,0l.163-.008c.054,0,.116-.011.175-.016a3.825,3.825,0,0,1,.644-.022,1.684,1.684,0,0,0,.443-.06,3.256,3.256,0,0,1,.6-.094c.093,0,.185,0,.277,0l.137.005h.135c.179,0,.358.011.538.021l.271.016.139.008H42.5c.183,0,.367,0,.559-.014.1-.005.211-.014.322-.023s.218-.031.331-.048c.225-.034.457-.072.687-.112l.658-.148.307-.065c.1-.025.192-.049.28-.069.2-.047.389-.094.584-.146s.38-.126.569-.191l.284-.1c.1-.033.184-.076.277-.112l.547-.231c.712-.336,1.4-.677,2.042-1.019a2.251,2.251,0,0,1,.176-.154c.064-.053.137-.1.207-.164.14-.118.3-.236.445-.352a.573.573,0,0,0,.284-.307.631.631,0,0,1,.274-.313c.067-.035.135-.076.205-.117s.136-.1.207-.145l.424-.307c.034-.024.07-.048.1-.073s.067-.052.1-.076c.065-.05.129-.1.191-.139a1.592,1.592,0,0,1,.342-.188c.1-.116.2-.25.311-.371s.216-.245.329-.362.213-.246.323-.367l.331-.363.312-.379c.1-.126.214-.248.305-.384s.189-.268.281-.4c.046-.069.095-.135.136-.205l.119-.216c.063-.113.14-.248.219-.39.018-.034.038-.07.058-.106l.051-.113c.031-.075.063-.15.092-.225.02-.05-.037-.107-.023-.148a1.945,1.945,0,0,1,.09-.211c.02-.038.041-.08.066-.131s.053-.11.087-.181a4.185,4.185,0,0,1,.356-.581c.116-.178.242-.357.382-.6.11-.2.24-.517.353-.743.05-.094.089-.2.136-.311s.091-.223.139-.34c.1-.23.181-.491.268-.756.041-.133.087-.267.122-.406s.066-.284.1-.426.063-.285.091-.43.039-.292.057-.439a2.423,2.423,0,0,1,.115-.3c.043-.095.09-.182.13-.267.087-.169.18-.323.263-.482a3.585,3.585,0,0,1,.481-.846c-.008.006.051.042.1.008.145-.112.14.014.331.032a1.1,1.1,0,0,0,.121,0c.166,0,.324-.005.47.326.089.074.192.019.288-.038.133-.075.257-.152.328.1a1.932,1.932,0,0,1,.192.444c.058-.324.175.034.169.162.015.3-.05.767.07.866-.04.22-.088.433-.143.639a5.78,5.78,0,0,1-.19.6c-.151.387-.29.77-.449,1.157a3.756,3.756,0,0,0-.112.391c-.02.072-.038.146-.056.214a1.909,1.909,0,0,1-.071.187c-.1.227-.189.3-.268.488-.045.108-.084.22-.132.325l-.142.318c-.092.21-.174.418-.267.608a21.281,21.281,0,0,1-2.464,3.962l-.1.125-.1.121c-.068.08-.136.161-.2.242l-.2.244a3.119,3.119,0,0,1-.21.241c-.292.314-.573.644-.891.949-.157.153-.307.313-.466.465l-.483.444c-.082.074-.158.153-.242.223l-.253.212-.5.426c-.164.124-.306.277-.52.431a1.266,1.266,0,0,1-.229.134,1.561,1.561,0,0,0-.244.13c-.192.127-.382.255-.573.384s-.394.239-.591.361l-.3.182-.307.166-.612.334-.63.3c-.106.049-.21.1-.318.147l-.324.133c-.217.087-.429.183-.649.261l-.662.225a19.173,19.173,0,0,1-3.006.7l-.393.063c-.132.018-.266.031-.4.047l-.8.089c-.269.017-.537.036-.8.055-.134.009-.267.021-.4.027l-.4.011-.647.021c-.133,0-.264,0-.393,0-.076,0-.15,0-.224,0l-.591,0h-.144l-.139-.007-.275-.015a20.376,20.376,0,0,1-2.2-.208c-.233-.04-.311-.045-.542-.1-.2-.044-.189-.088-.407-.075l-.673-.143c-.224-.048-.454-.088-.671-.157-.441-.127-.885-.23-1.3-.385l-.612-.2c-.2-.072-.387-.153-.572-.226l-.537-.209-.483-.215c-.13-.057-.259-.118-.387-.178s-.254-.113-.37-.174c-.219-.1-.432-.165-.648-.278-.116-.063-.23-.124-.337-.2l-.309-.221c-.206-.148-.411-.3-.643-.438-.282-.2-.644-.4-.956-.616-.09-.057-.174-.122-.258-.188l-.255-.2-.51-.392c-.086-.064-.168-.135-.249-.206l-.247-.211-.494-.421-.117-.1-.112-.106-.226-.214-.457-.431c-.075-.073-.154-.142-.229-.22l-.221-.232L23.066,59l-.225-.237c-.076-.079-.144-.163-.216-.246l-.434-.5-.218-.251c-.075-.084-.145-.168-.212-.256l-.412-.527a31.881,31.881,0,0,1-2.927-4.515c-.206-.408-.428-.776-.629-1.182-.132-.283-.1-.4-.174-.571a2.79,2.79,0,0,1-.253-.381c-.192-.391-.334-.794-.494-1.185q-.119-.293-.237-.586c-.073-.2-.145-.392-.219-.589a.671.671,0,0,0,.035.46.648.648,0,0,0,.1.164.939.939,0,0,0,.081.094c.057.175-.017.213.006.313a1.263,1.263,0,0,0,.191.41c.053.159.109.323.167.493.027.084.058.168.092.253s.065.172.1.259c.134.351.264.722.4,1.114.271.272.29.654.517.918q.028.134.07.273a2.221,2.221,0,0,0,.1.278c.076.184.166.371.258.557s.191.371.285.553l.07.134.076.13c.049.085.1.17.143.25.149.269.292.542.434.809.068.136.149.262.223.389s.151.249.226.37c.085.138.173.283.263.43.046.075.091.148.136.225l.148.22c.2.3.4.6.6.884a5.36,5.36,0,0,0,.337.43c.118.141.237.282.35.423s.222.28.319.42a3.442,3.442,0,0,1,.265.407c.168.171.329.347.482.527.078.089.15.185.23.272l.236.265c.314.355.61.733.962,1.059.177.171.363.334.551.5l.142.122c.049.04.1.078.148.116.1.078.2.158.3.242.212.179.393.352.57.519s.363.311.561.463c.094.071.211.147.324.217l.163.1c.051.031.1.06.14.088.225.162.486.348.776.55a5.275,5.275,0,0,0,.466.29c.165.1.335.194.512.292.109.057.213.119.325.17s.225.1.338.147c.226.1.455.2.689.3l.691.289.343.144.168.068c.056.022.112.038.168.056.221.068.319.032.587.119a6.6,6.6,0,0,0,.692.245c.2.046.4.082.593.113s.381.067.571.084a11.025,11.025,0,0,0,2.6.368c.289-.013.621.01,1.007.027l.62.014.34.007c.116,0,.236.007.363,0a1.8,1.8,0,0,1,.445-.041,1.793,1.793,0,0,0,.374,0c.112-.013.248-.02.51-.039.173-.01.546-.06.732-.065a3.469,3.469,0,0,1,.355.02,2.359,2.359,0,0,0,.379-.006c.175-.02.346-.041.515-.064l.251-.034c.084-.014.166-.032.247-.047.329-.065.658-.126,1-.187a28.828,28.828,0,0,0,4.018-1.055c.1-.034.2-.06.3-.1s.2-.07.3-.107c.2-.07.405-.142.6-.225.238-.113.475-.3.741-.419a1.522,1.522,0,0,1,.224-.067,1.824,1.824,0,0,0,.305-.128c.294-.164.627-.332.958-.549.166-.1.338-.211.513-.319s.338-.237.511-.356a21.862,21.862,0,0,0,1.905-1.508c.362-.332.859-.791,1.407-1.367a2.707,2.707,0,0,0,.327-.271,4.174,4.174,0,0,1,.25-.342c.1-.106.207-.211.313-.318l.31-.33.315-.334c.108-.112.2-.236.3-.356a3.048,3.048,0,0,0,.236-.353l.11-.176c.036-.061.07-.121.11-.177.139-.2.348-.361.468-.528a17.363,17.363,0,0,0,1.656-3.092q.08-.207.161-.412l.076-.207c.025-.07.045-.142.066-.212.086-.283.171-.563.251-.846s.139-.572.212-.855c.04-.141.067-.286.1-.429s.067-.287.1-.43c.087-.321.1-.571.173-.833.053-.207.17-.418.235-.652a1.183,1.183,0,0,0-.01-.756c.041-.238.075-.436.117-.612s.088-.327.135-.476a8.2,8.2,0,0,0,.282-1.4c.089.061.163-.016.238-.076s.15-.1.243.007c.065-.278.106-.265.155-.226s.108.1.2-.041c.043.595.207.889.254,1.511a1.76,1.76,0,0,1-.05.648,2.087,2.087,0,0,0-.04.716c-.1.431-.279.357-.337,1.019-.034.252-.071.508-.11.768-.02.13-.04.26-.06.391s-.055.261-.081.393c-.058.261-.108.53-.178.8s-.147.533-.222.8a20.483,20.483,0,0,1-1.286,3.221A23.367,23.367,0,0,1,56.383,62.1l-.194.2c-.063.068-.127.136-.194.2l-.167.165.095-.04a1.068,1.068,0,0,0,.307-.218c.154-.141.28-.291.4-.424s.217-.264.31-.367c.216-.256.39-.408.537-.362-.1.118-.194.229-.276.335s-.147.19-.213.278c-.12.167-.227.318-.334.469-.056.076-.108.154-.167.229s-.122.152-.19.23a4.642,4.642,0,0,1-.494.5c-.186.136-.1.171-.163.265q.421-.358.828-.74,6.757-6.348,7.111-16.493a2.052,2.052,0,0,1,1.587-.544.258.258,0,0,1,.169-.105,1.406,1.406,0,0,1,.472-.03,2.489,2.489,0,0,1,.585.13,3.461,3.461,0,0,1,.507.232,2.968,2.968,0,0,1,.441.3,2.741,2.741,0,0,1,.415.41,2.836,2.836,0,0,1,.491,1,4.29,4.29,0,0,1,.135.914c.016.292.018.573.027.855.011.315.028.617.025.939,0,.16-.005.32-.011.482s-.022.327-.044.491a18.366,18.366,0,0,1-.921,3.669c-.2.593-.427,1.225-.657,1.758s-.567,1.039-.812,1.521c-.265.526-.437,1.04-.729,1.563-.144.262-.348.484-.517.785-.145.246-.211.439-.374.689-.261.41-.629.86-.91,1.272-.153.226-.285.437-.414.654s-.265.432-.431.662c-.122.17-.359.386-.515.587l-.441.579c-.137.182-.274.36-.417.542-.174.23-.38.464-.594.71-.11.122-.227.243-.346.367l-.179.188-.19.186c-.253.254-.531.5-.813.753-.145.124-.292.247-.439.373s-.3.244-.455.368c-.617.486-1.269.957-1.922,1.4s-1.306.848-1.918,1.234a1.743,1.743,0,0,1-.561.255,1.972,1.972,0,0,0-.469.158,15.756,15.756,0,0,1-2.041,1,23.789,23.789,0,0,1-2.344.806c-.746.224-1.5.4-2.25.56-.376.069-.75.148-1.125.2-.186.03-.372.063-.559.089l-.558.076a35.532,35.532,0,0,1-5.038.293c-.417,0-.8-.03-1.19-.049l-1.159-.068c-.18-.015-.354-.021-.524-.026-.2-.005-.384-.012-.574-.031-.234-.026-.527-.189-.776-.124l-.186-.016-.183-.025c-.122-.016-.243-.035-.364-.052l-.709-.105-.688-.1c-.225-.042-.445-.084-.665-.121-.379-.065-.751-.113-1.116-.161s-.717-.126-1.061-.2c-.216-.05-.428-.1-.642-.159-.105-.03-.212-.054-.318-.089l-.316-.1c-.422-.139-.849-.278-1.3-.408-.556-.179-1.155-.375-1.806-.578-.491-.175-1.143-.358-1.651-.572a2.2,2.2,0,0,1-.263-.127c-.086-.047-.172-.1-.259-.145-.171-.1-.343-.2-.515-.31L22.161,70.5c-.242-.145-.5-.3-.778-.451-.137-.077-.278-.154-.418-.236l-.421-.265-.869-.535c-.072-.044-.148-.087-.219-.135l-.212-.148c-.142-.1-.284-.193-.424-.289l-.828-.568-.746-.572c-.238-.183-.463-.355-.668-.518s-.376-.33-.534-.472c-.217-.194-.431-.382-.645-.562l-.158-.134-.152-.139c-.1-.092-.2-.181-.3-.268q-.3-.262-.595-.5c-.1-.077-.2-.154-.293-.226s-.187-.149-.28-.22a10.858,10.858,0,0,0-.968-1.049c-.138-.161-.25-.294-.373-.416s-.246-.242-.388-.4c-.167-.192-.359-.421-.571-.678s-.429-.548-.653-.855-.456-.626-.675-.958l-.33-.491-.312-.489c-.15-.226-.334-.578-.655-1.094a32.972,32.972,0,0,1-2.625-5.612c-.106-.287-.21-.568-.3-.859s-.2-.582-.285-.9-.2-.643-.293-1-.212-.748-.321-1.182c-.113-.4-.266-1.12-.293-1.23-.049-.2-.1-.408-.142-.617s-.095-.418-.139-.629a8.226,8.226,0,0,1-.157-1.241c-.118-.464-.223-.933-.3-1.4-.038-.235-.077-.472-.109-.707l-.086-.707c-.058-.47-.094-.94-.146-1.406s-.092-.928-.143-1.386c-.035-.308-.125-.61-.149-.936-.029-.447,0-.973-.006-1.417-.046-1.186-.122-2.551-.1-3.767a1.378,1.378,0,0,0-.038-.314c0-.088.105-.535.122-.78.024-.427-.02-.806.012-1.256.015-.24.039-.476.064-.71s.055-.463.075-.695c.013-.143-.033-.346,0-.63a2.982,2.982,0,0,0,.091-.465c.034-.6.029-1.14.077-1.73.1-1.011.293-2,.485-3.115.167-1,.3-2.169.515-3.123.1-.464.241-.908.35-1.326a5.232,5.232,0,0,0,.226-1.151c.473-1.169.717-2.356,1.1-3.507a26.481,26.481,0,0,1,1.557-3.677C8.326,9.193,8.96,8.131,9.506,7.232A25.743,25.743,0,0,1,12.289,3.38c.527-.594,1.07-1.186,1.643-1.718.283-.268.568-.535.849-.8l.106-.1L15,.667,15.22.478,15.659.1c.153-.13.305-.254.456-.375l.114-.089.117-.084.232-.164c.31-.217.611-.428.905-.653.16-.128.329-.241.492-.363l.489-.364.491-.366c.165-.121.342-.227.517-.338-.041.025.092,0,.165-.043.134-.08.38-.234.686-.426.076-.046.155-.1.24-.148l.266-.149c.181-.1.37-.209.563-.315l.571-.32c.191-.1.381-.189.556-.275.351-.171.653-.315.85-.4.151-.08.623-.244,1.105-.422l.7-.256.5-.162c.385-.13.769-.258,1.154-.386s.778-.22,1.169-.329l.589-.16.6-.131c.4-.086.8-.176,1.206-.256l1.65-.266c.547-.07,1.1-.13,1.648-.2.275-.04.554-.049.834-.074l.85-.065.43-.032.437-.015.892-.031c.546-.03,1.09-.008,1.633.005l.815.024c.274.016.547.038.821.058l.412.031c.137.01.276.029.413.042l.829.088.835.114.419.057.419.071c.307.053.594.079.882.124s.581.09.9.156c.335.073.733.183,1.159.3.212.062.429.134.65.2s.446.138.664.222c.438.163.87.316,1.249.484l.536.224.442.2.382.168.191.081.189.091.756.353c.247.13.5.263.744.4l.187.1.182.113c.122.077.242.154.365.234a18.58,18.58,0,0,1,2.615,2.164,25.862,25.862,0,0,1,2.34,2.6A18.6,18.6,0,0,1,60.1,4.19a15.265,15.265,0,0,1,1.275,3.5c.041.153.065.31.1.464l.086.468c.046.313.083.629.119.945.019.318.048.635.055.955l0,.477v.239c0,.081-.005.172-.009.257a8.191,8.191,0,0,1-.105.952c-.029.15-.057.323-.1.49-.021.085-.038.174-.062.263s-.048.182-.073.279c-.04.145-.091.287-.137.421s-.1.257-.146.365a3.116,3.116,0,0,1-.134.4c-.055.1-.158.207-.137.165-.076.149-.148.256-.215.365s-.139.21-.224.346a6.389,6.389,0,0,1-.92,1.133c-.1.1-.2.193-.309.29l-.153.135-.157.13c-.1.086-.218.169-.328.252s-.228.161-.348.235a5.843,5.843,0,0,1-1.217.591,5.418,5.418,0,0,1-1.885.292c-.1,0-.142-.005-.207-.009l-.184-.011c-.123-.006-.252-.021-.378-.031-.257-.023-.526-.057-.8-.1a7.944,7.944,0,0,1-1.816-.5,5.511,5.511,0,0,1-1.013-.559,4.461,4.461,0,0,1-.972-.921l-.733-.946.482-1.1a6.17,6.17,0,0,0,.381-1.261,10.973,10.973,0,0,0,.179-1.5c.014-.243.028-.5.041-.746.005-.126.005-.249.008-.373s0-.244-.01-.358-.022-.238-.035-.348-.037-.214-.054-.317-.035-.206-.053-.311-.041-.208-.057-.32c-.023-.193-.043-.325-.05-.46,0-.067-.006-.134-.014-.205s-.022-.147-.04-.233a6.965,6.965,0,0,0-.185-.7c-.085-.232-.169-.472-.281-.7a8.6,8.6,0,0,0-.771-1.35c-.153-.217-.164-.288-.266-.434-.225-.274-.342-.266-.633-.634a2.349,2.349,0,0,1-.114-.246,6.422,6.422,0,0,0-.7-.542,12.23,12.23,0,0,0-1.487-1.015,8.489,8.489,0,0,0-1.992-.827c-.127-.031-.292-.074-.467-.1s-.349-.058-.481-.091A17.061,17.061,0,0,0,40.295.937q-.278-.027-.57-.049c-.192-.018-.39-.019-.586-.029-.1,0-.2-.009-.293-.012s-.191,0-.284,0c-.188,0-.374,0-.553-.011-.087,0-.176-.007-.264-.013-.054,0-.107,0-.16,0h-.1L36.955.806a7.411,7.411,0,0,0-1.073.032L35.551.87a3.264,3.264,0,0,0-.334.054l-.675.128c-.055.012-.112.021-.167.033l-.165.045c-.109.03-.218.059-.327.087l-.319.084c-.1.029-.211.049-.311.085-.241.078-.3.046-.552.131-.034.011-.108.05-.2.093s-.206.09-.319.136a4.385,4.385,0,0,1-.958.282,4.729,4.729,0,0,1-.63.4c-.106.058-.215.109-.324.161s-.214.114-.323.168c-.219.109-.444.213-.674.321s-.452.252-.684.393a17.263,17.263,0,0,0-2.054,1.589c-.089.076-.148.045-.252.15-.14.138-.393.4-.651.663-.065.067-.13.13-.192.2l-.176.2c-.113.124-.215.233-.292.311-.049.049-.153.139-.262.231l-.158.137c-.05.047-.091.089-.124.122-.094.1-.229.239-.391.412l-.257.276c-.091.1-.185.2-.274.31-.184.216-.373.438-.547.647-.089.1-.176.2-.255.3l-.212.268c-.311.394-.648.8-.955,1.274q-.236.348-.482.722-.228.385-.464.8c-.073.128-.176.288-.275.446s-.184.323-.241.447c-.117.249-.151.455-.27.69-.075.143-.14.292-.205.439l-.2.442-.2.439c-.032.074-.068.146-.1.22L19,15.417l-.375.894-.094.221-.086.227-.171.452-.17.45c-.057.149-.118.3-.166.451l-.3.906c-.05.151-.1.3-.149.451s-.086.3-.129.455c-.085.3-.168.6-.252.9-.115.443-.211.916-.314,1.384-.025.116-.05.233-.076.349s-.04.235-.059.351c-.04.232-.077.46-.115.68-.025.153-.05.463-.046.445-.026.12-.084.131-.1.283a56.276,56.276,0,0,0-.652,7.577,45.164,45.164,0,0,0,.336,7.119c.014.225.049.5.094.815.024.157.046.328.077.508s.067.368.1.568c.065.36.118.718.179,1.078s.142.715.22,1.076c.1.5.237.987.365,1.492s.292,1.02.475,1.58c.045.139.1.271.148.4s.114.263.167.4c.123.327.242.652.36.975s.262.635.388.953l.191.476.212.466q.209.466.421.933c.144.285.285.575.426.866.071.146.137.293.212.436l.231.423c.157.279.307.558.47.821s.346.5.521.734c-.134-.286-.281-.571-.435-.853s-.284-.581-.432-.866l-.218-.424-.194-.424c-.127-.279-.25-.549-.362-.806-.143-.371-.31-.814-.5-1.3-.093-.242-.174-.5-.266-.768s-.19-.538-.275-.82a29.387,29.387,0,0,1-.842-3.443c-.057-.332-.108-.657-.149-.983s-.065-.656-.109-.992c-.019-.152-.04-.312-.059-.478s-.031-.338-.048-.51c-.032-.345-.066-.69-.105-1-.025-.178-.04-.355-.059-.533s-.038-.351-.059-.526-.042-.351-.064-.527c-.011-.087-.023-.176-.033-.265s-.016-.179-.025-.269c-.063-.722-.149-1.474-.157-2.336a2.752,2.752,0,0,1-.054-.436,1.083,1.083,0,0,0,.044-.291c0-.072-.008-.142-.012-.212s0-.139-.008-.206c-.007-.134-.014-.266-.022-.4-.014-.263-.029-.52-.03-.794a3.447,3.447,0,0,1,.032-.431,3.064,3.064,0,0,0,.045-.445,51.269,51.269,0,0,1,.4-5.98c.031-.233.087-.243.109-.425.1-.686.248-2,.409-2.72.046-.224.105-.239.137-.413.047-.3.151-.765.246-1.243.051-.238.1-.481.151-.7s.112-.42.158-.583c.088-.294.168-.587.26-.872l.29-.845c.048-.14.094-.28.142-.418s.1-.275.155-.412c.1-.274.208-.546.311-.82.079-.226.17-.422.248-.611s.156-.365.229-.541c.139-.352.3-.679.46-1.06.1-.238.183-.487.269-.654.124-.228.274-.454.421-.673s.284-.437.412-.631c.14-.225.265-.448.388-.671l.183-.335c.067-.107.134-.214.205-.322.187-.282.37-.566.559-.846l.6-.814.149-.2c.049-.068.106-.132.158-.2l.322-.4.322-.4c.106-.131.223-.252.335-.379l.337-.376c.112-.125.221-.256.342-.371l.706-.714c.241-.229.49-.448.736-.674l.184-.168.193-.156.384-.313A16.642,16.642,0,0,1,34.9,2.354l.73-.14c.247-.038.494-.064.743-.1.124-.014.248-.037.374-.046l.378-.023.379-.027.189-.013a1.2,1.2,0,0,1,.127,0h.065l.766,0c.127,0,.259,0,.392.009l.4.016c.263.014.523.039.783.058s.516.054.766.091a14.683,14.683,0,0,1,2.723.643,10.42,10.42,0,0,1,1.209.515c.094.049.194.092.284.148l.274.157c.094.05.175.112.264.168s.176.109.257.173l.247.182c.082.061.158.129.237.193l.118.1.111.1.221.206a8.838,8.838,0,0,1,.814.937,8.234,8.234,0,0,1,.648,1.038c.052.088.087.184.133.275a2.928,2.928,0,0,1,.127.282l.118.287.1.3c.044.115.076.251.115.386s.068.275.095.408a12.663,12.663,0,0,1,.221,1.691c.006.165.014.33.022.5s0,.341,0,.514c0,.347-.022.691-.058,1.022a6.184,6.184,0,0,1-.422,1.769L48.2,15.63l.971,1.246A5.34,5.34,0,0,0,50.6,18.135a6.617,6.617,0,0,0,1.445.65,9.364,9.364,0,0,0,1.315.31c.418.066.816.105,1.207.131l.288.014.072,0,.036,0h.051l.222,0c.149,0,.3-.013.443-.022s.292-.031.433-.056a6.348,6.348,0,0,0,1.558-.478,7.652,7.652,0,0,0,1.234-.71l.266-.194.251-.2.251-.212.252-.227c.118-.112.22-.215.321-.316a7.922,7.922,0,0,0,2.017-3.793c.022-.087.04-.177.056-.267l.048-.255c.023-.166.052-.335.067-.5s.034-.329.043-.491l.014-.241,0-.22a14.418,14.418,0,0,0-.061-1.779l-.076-.647c-.029-.216-.07-.428-.107-.643l-.057-.32-.074-.317c-.05-.211-.1-.423-.153-.634-.123-.415-.238-.834-.394-1.237-.138-.41-.312-.806-.481-1.2-.087-.2-.187-.389-.282-.583l-.143-.291c-.048-.1-.1-.189-.154-.284-.106-.187-.211-.375-.316-.564s-.228-.365-.342-.549l-.173-.275L59.5,1.48,59.126.949l-.4-.514-.2-.257c-.071-.083-.139-.166-.21-.249-.1-.116-.175-.231-.257-.347-.041-.058-.08-.117-.125-.176s-.094-.113-.148-.17-.169-.172-.293-.294-.266-.265-.426-.4L56.6-1.9c-.039-.036-.076-.072-.114-.107s-.079-.07-.117-.105c-.077-.068-.15-.135-.218-.2A21.425,21.425,0,0,0,52.98-4.885c-.243-.147-.483-.294-.726-.442s-.5-.27-.745-.4-.5-.257-.759-.377-.51-.248-.771-.352L49.2-6.784l-.791-.286c-.263-.1-.528-.18-.795-.262l-.4-.123c-.133-.042-.266-.083-.4-.116l-.8-.211c-.133-.038-.266-.067-.4-.1l-.4-.089c-.536-.126-1.074-.211-1.61-.309-.268-.048-.535-.078-.8-.119s-.535-.08-.8-.1c-.534-.056-1.066-.119-1.593-.151-.029,0-.079,0-.145,0-.159,0-.413-.013-.687-.034-.431-.026-.945-.043-1.514-.056-.142,0-.288-.008-.437-.005l-.457.011L36.2-8.71l-.5.016-.507.039-1.024.076c-.343.019-.686.065-1.026.1l-1.008.109c-.085.009-.158.011-.227.012s-.131,0-.194,0a2.29,2.29,0,0,0-.42.023c-.27.041-.682.167-.984.215l-.248.038-.245.049-.491.093c-.329.062-.66.125-1,.2-.3.073-.668.235-.967.311-.357.095-.857.214-1.394.4l-.838.266c-.141.046-.285.086-.426.137s-.278.1-.413.15c-.381.138-.766.257-1.148.376s-.747.27-1.105.419a4.965,4.965,0,0,0-.6.328c-.285.143-.845.427-1.417.715l-.214.109-.206.118-.4.226-.63.365c-.056.032-.317.252-.552.4a3.28,3.28,0,0,0-.452.246c-.242.171-.481.361-.726.553s-.482.413-.745.61-.549.384-.83.58-.555.406-.822.62c-.113.09-.229.186-.348.284s-.238.2-.352.312l-.688.65-.5.467-.482.486-.558.553-.278.277c-.091.093-.174.187-.252.277-.115.13-.233.267-.356.409s-.241.294-.367.446c-.253.306-.5.636-.752.971-.129.166-.247.338-.367.509s-.245.342-.359.514c-.226.346-.455.682-.652,1.013a1,1,0,0,0-.224.261c-.187.366-.665,1.337-1.076,2.127-.065.13-.459.818-.584,1.029a24.407,24.407,0,0,0-1.507,3.265c-.422,1.116-.765,2.228-1.049,3.257-.1.4-.257.793-.361,1.271-.066.287-.093.692-.156.979-.193.791-.517,1.864-.712,3.024-.029.178-.094.5-.152.845a7.109,7.109,0,0,0-.106.926,1.8,1.8,0,0,0,.067.175c-.044.379-.1.778-.17,1.184s-.118.817-.157,1.219c-.045.576-.054,1.127-.115,2.09-.07,1.122-.12,2.438-.12,3.77s.023,2.693.072,3.9c.049,1.045.054,2.022.168,3.2a18.744,18.744,0,0,0,.426,4.333c.079.63.106,1.314.2,1.939.167,1.076.475,2.271.753,3.343.076.282.154.572.247.861s.182.581.267.866c.076.241.114.544.193.8.108.348.209.466.3.767q.153.514.306,1.031c.1.346.215.687.338,1.018a26.829,26.829,0,0,0,1.288,2.694c.148.3.156.41.33.763.113.23.31.494.432.711.145.263.262.512.392.75s.255.475.4.72l.347.569c.057.091.114.18.173.273l.2.284c.3.427.659.895.995,1.344.267.341.521.688.794,1.022l.4.5.413.494c.069.082.137.166.208.246l.215.238c.145.158.288.317.433.474s.292.316.439.474c.074.078.146.158.223.236l.238.225c.392.372.7.685,1.071,1.046a36.047,36.047,0,0,0,4.882,3.767l.71.439c.242.148.483.308.743.443l.772.427.39.214c.13.072.258.146.392.207l1.57.764,1.494.636c.092.04.131.032.151.024s.014-.008.019-.006c1.954.752,3.973,1.307,5.826,1.91a1.146,1.146,0,0,0,.527.048,1.29,1.29,0,0,1,.625.075c.274.1.868.163.786.29a.512.512,0,0,0,.362.014.661.661,0,0,1,.3-.014,3.635,3.635,0,0,0,.474.164c.183.037.479.068.722.112s.431.085.4.176Zm-12.04-6.7.154.085c.051.026.1.049.157.075l.1.047c-.147-.073-.3-.148-.44-.224Zm-1.311-.665a1.962,1.962,0,0,0,.323.13q-.518-.292-1.026-.6C21,68.889,21.245,69.07,21.456,69.189ZM19.91,68.184l.109.067-.337-.224Zm-4.072-3.165c-.027.012-.1,0,.009.1.207.147.432.325.666.516.116.1.235.2.355.3s.239.209.369.3c.2.157.411.312.61.46q-1.037-.81-2.011-1.711C15.85,65.006,15.847,65.014,15.837,65.019Zm36.948.026c-.135.1-.282.19-.428.285a1.679,1.679,0,0,0,.235-.118c.126-.086.372-.252.624-.448l.02-.014C53.081,64.849,52.929,64.947,52.785,65.045ZM14.771,64.013a5.776,5.776,0,0,0,.784.708q-.468-.444-.923-.909A1.439,1.439,0,0,1,14.771,64.013ZM55.6,62.895l-.167.167c.075-.068.153-.146.163-.156a.153.153,0,0,0,.031-.039ZM37.217-6.152c-.377,0-.8,0-1.155.011-.231,0-.455.026-.677.045l-.654.064-.649.065c-.216.029-.434.059-.655.086-.248.03-.473.044-.7.058a5.2,5.2,0,0,0-.7.074c-.687.127-1.406.228-2.136.406l-.553.123-.28.061c-.094.021-.187.042-.281.069L27.65-4.78c-.385.1-.762.234-1.148.358l-.58.192c-.1.033-.194.06-.29.1l-.287.113-1.163.454c-.383.169-.766.347-1.151.522s-.762.375-1.141.572l-.568.3L21.18-2.1l-.138.082-.277.166-.553.331-.276.167c-.093.055-.186.111-.274.172l-1.067.728c-.181.119-.349.253-.52.384l-.51.392c-.169.132-.339.261-.508.394l-.483.419-.482.418-.239.209c-.079.07-.153.146-.23.219l-.9.878A27.953,27.953,0,0,0,10.458,8.4a2.659,2.659,0,0,1-.283.373c-.436.743-.75,1.466-1.114,2.219A40.914,40.914,0,0,0,6.949,16.3c-.077.252-.191.427-.278.723-.1.37-.284,1-.454,1.692-.091.346-.169.709-.253,1.059s-.148.695-.214,1c-.085.412-.159.774-.248,1.21a55.576,55.576,0,0,0-.815,6.1c-.167,2.047-.232,4.1-.225,6.17,0,.352.008.708.009,1.066s.008.723.012,1.089c.022,1.625.109,3.352.3,5.119.05.442.1.888.163,1.334q.046.333.094.671c.035.223.071.447.106.671s.075.448.116.673.082.448.123.672l.139.671.069.337.076.334c.2.894.437,1.778.69,2.649s.544,1.725.855,2.558.643,1.642,1.006,2.417c.044.1.087.194.132.292s.093.191.139.286c.092.19.184.38.275.566l.287.551c.048.092.095.183.142.273s.1.179.147.267a35.292,35.292,0,0,0,4.263,6.026c.079.065.162.136.246.211-.17-.185-.339-.374-.506-.565q-9.477-10.836-8.8-30.27t10.309-28.9A31.68,31.68,0,0,1,18.58.117,24.815,24.815,0,0,1,24.8-3.4a6.385,6.385,0,0,1,.926-.459c.354-.134.734-.25,1.076-.368.2-.067.4-.139.607-.2l.631-.175.646-.177c.109-.029.216-.061.327-.086l.333-.074c.446-.094.9-.2,1.351-.29s.917-.157,1.374-.233l.311-.059L32.7-5.58c.205-.036.407-.072.6-.095l.532-.059c.094-.01.191-.023.289-.03l.3-.021L35.7-5.868l.164-.011.162,0,.322-.009c.214-.007.424-.014.627-.02l.587-.023c.187-.013.364-.005.527-.011l1.35-.023c.234-.005.472.006.715.01s.487.007.736.022l.754.049c.127.01.255.015.382.03l.386.044c.257.032.516.059.776.1s.52.09.781.137c-.129-.2-.922-.249-1.219-.278l-.481-.063c-.162-.023-.325-.045-.491-.058l-1-.1-1.028-.066c-.173-.014-.345-.015-.517-.02l-.517-.014c-.023,0-.1.009-.206.019a3.017,3.017,0,0,1-.418.019l-.353-.015c-.075,0-.156,0-.243,0ZM58.709,48.875l.095.014c.013-.085.025-.169.037-.253l-.1-.014C58.733,48.705,58.721,48.791,58.709,48.875Zm-3-31.757a4.128,4.128,0,0,0,1.048-.313,5.38,5.38,0,0,0,.913-.526,7.16,7.16,0,0,0,.8-.658A5.362,5.362,0,0,0,59.493,14.3a5.444,5.444,0,0,1-1.061,1.292,7.258,7.258,0,0,1-.806.636,5.3,5.3,0,0,1-.916.5,4.046,4.046,0,0,1-1.039.29,3.58,3.58,0,0,1-.547.03l-.068,0-.062,0-.122-.008c-.083,0-.164-.007-.246-.016a7.971,7.971,0,0,1-1.956-.374,4.326,4.326,0,0,1-.929-.438,3.053,3.053,0,0,1-.784-.708l-.157-.2.1-.229a8.4,8.4,0,0,0,.625-2.317,14.725,14.725,0,0,0,.114-2.372,11.663,11.663,0,0,0-.923-4.344c-.04.016-.047.065-.035.131a.711.711,0,0,0,.032.113c.013.041.027.086.044.131.068.184.175.383.2.486a12.625,12.625,0,0,1,.553,4.02,14.5,14.5,0,0,1-.173,2.1A8.22,8.22,0,0,1,50.767,15l-.14.311.212.275a3.19,3.19,0,0,0,.843.752,4.447,4.447,0,0,0,.973.445,7.99,7.99,0,0,0,1.986.352c.084.006.165.008.248.014s.16.008.259.007A3.631,3.631,0,0,0,55.706,17.117ZM45.036-5.372c.292.017.309-.008.235-.035a1.151,1.151,0,0,0-.289-.056h-.013C44.9-5.463,44.885-5.44,45.036-5.372ZM38.087-7.279l.319,0v-.1l-.319,0ZM34.551,76.277c-.14,0-.362-.046-.531-.065.059-.1.448-.047.656.045a.154.154,0,0,1-.1.02Zm24.331-4.991c.119-.009.3-.274.534-.453a10.152,10.152,0,0,0,1.261-.957c-.064-.043-.243.082-.459.259s-.479.394-.69.554c-.165.112-.105.022-.03-.037a29.13,29.13,0,0,0,2.585-2.265c.1-.1.193-.191.288-.285l.272-.29q.136-.143.266-.282l.248-.283.238-.273c.071-.084.139-.167.207-.248.134-.162.262-.316.378-.464.172-.216.328-.437.485-.663s.311-.453.484-.679c.3-.4.722-.841,1.038-1.3.148-.221.284-.427.426-.653l.483-.757c.448-.685.966-1.571,1.372-2.335a9.728,9.728,0,0,1,.783-1.521,5.356,5.356,0,0,1,.354-.941c.182-.492.287-.359.448-.724A7.334,7.334,0,0,1,70.3,55.2a9.518,9.518,0,0,0,.5-1.687c.119-.3.246-.319.358-.68a10.814,10.814,0,0,0,.309-2.258c0-.053,0-.1.007-.157l0-.076,0-.068c0-.086.005-.171.008-.252.006-.163.012-.318.022-.453a2.463,2.463,0,0,1,.043-.346.385.385,0,0,1,.077-.2c.025.392.032.769.029,1.13,0,.169-.007.4-.016.6s-.028.408-.048.6a13.463,13.463,0,0,1-.382,2.069c.056.112.109-.025.162-.234s.1-.5.141-.682a3.477,3.477,0,0,1-.205,1.2,10.712,10.712,0,0,1-.452,1.129,18.59,18.59,0,0,1-1.029,2.89c-.1.235-.2.46-.312.7s-.216.472-.327.7-.216.452-.322.667-.206.426-.3.63c-.121.316-.167.289-.213.264s-.076-.044-.157.124c-.206.319-.036.258-.165.5-.349.514-.789,1.279-1.266,2.018A11.392,11.392,0,0,1,65.332,65.2c.024.145-.309.52-.876,1.225l-.645.8c-.261.311-.55.657-.846.974A13.532,13.532,0,0,1,61.3,69.773c-.008-.067.156-.213.346-.388s.415-.365.536-.509a3.9,3.9,0,0,0-.707.554c-.26.227-.53.491-.809.7-.382.308-.782.715-1.076.924a6.416,6.416,0,0,1-.661.386,3.668,3.668,0,0,0-.683.454C58.1,71.822,58.469,71.565,58.882,71.285Zm3.609-2.861.068.066c.085-.085.167-.173.248-.263l-.07-.064C62.655,68.252,62.574,68.339,62.491,68.424Zm7.022-10.534a2.352,2.352,0,0,0-.163.373c-.035.109-.04.193,0,.226a.589.589,0,0,0,.139-.2c.059-.11.125-.252.188-.4a2.112,2.112,0,0,0,.205-.644C69.826,57.342,69.654,57.626,69.512,57.891Zm247.306,9.375a21.52,21.52,0,0,1-9.35-8.374,24.446,24.446,0,0,1-3.256-12.819,24.535,24.535,0,0,1,3.117-12.444,22.174,22.174,0,0,1,8.56-8.468,25.024,25.024,0,0,1,12.421-3.041,23.67,23.67,0,0,1,11.956,2.9,19.528,19.528,0,0,1,7.815,8.281,27.344,27.344,0,0,1,2.745,12.585q0,3.649-4.279,3.649H320.028q.837,4.491,3.721,6.457t8,1.965a27.752,27.752,0,0,0,4.652-.468,23.094,23.094,0,0,0,5.117-1.5,5.991,5.991,0,0,1,5.025-.047,5.42,5.42,0,0,1,2.744,3.275,6.6,6.6,0,0,1-.186,4.491,6.42,6.42,0,0,1-3.488,3.509,27.462,27.462,0,0,1-6.932,2.292,39.409,39.409,0,0,1-7.4.7A32.916,32.916,0,0,1,316.818,67.266Zm6.141-32.14a10.973,10.973,0,0,0-3.024,6.55h17.306q-.279-4.4-2.372-6.6a7.646,7.646,0,0,0-5.815-2.2A8.51,8.51,0,0,0,322.959,35.126ZM206.938,67.266a21.527,21.527,0,0,1-9.351-8.374,24.445,24.445,0,0,1-3.256-12.819,24.544,24.544,0,0,1,3.117-12.444,22.174,22.174,0,0,1,8.56-8.468,25.026,25.026,0,0,1,12.421-3.041,23.668,23.668,0,0,1,11.956,2.9A19.53,19.53,0,0,1,238.2,33.3a27.344,27.344,0,0,1,2.745,12.585q0,3.649-4.28,3.649H210.147q.838,4.491,3.722,6.457t8,1.965a27.77,27.77,0,0,0,4.652-.468,23.1,23.1,0,0,0,5.117-1.5,5.989,5.989,0,0,1,5.024-.047,5.422,5.422,0,0,1,2.745,3.275,6.6,6.6,0,0,1-.186,4.491,6.422,6.422,0,0,1-3.489,3.509,27.455,27.455,0,0,1-6.931,2.292,39.419,39.419,0,0,1-7.4.7A32.912,32.912,0,0,1,206.938,67.266Zm6.141-32.14a10.963,10.963,0,0,0-3.024,6.55H227.36q-.278-4.4-2.372-6.6a7.643,7.643,0,0,0-5.815-2.2A8.506,8.506,0,0,0,213.079,35.126ZM168.745,65.395q-4.186-4.818-4.187-14.549V10.8q0-8.421,8.187-8.421a8.446,8.446,0,0,1,6.188,2.152q2.187,2.152,2.186,6.269V50.284q0,3.463,1.349,5.053a4.365,4.365,0,0,0,3.489,1.591,6.833,6.833,0,0,0,1.349-.14q.7-.14,1.535-.234a2.62,2.62,0,0,1,2.419,1.216q.744,1.216.744,4.959a7.791,7.791,0,0,1-1.3,4.912,6.241,6.241,0,0,1-4,2.106,15.966,15.966,0,0,1-2.14.327q-1.395.14-2.6.14Q172.932,70.214,168.745,65.395Zm-32.378,0q-4.188-4.818-4.187-14.549V10.8q0-8.421,8.187-8.421a8.449,8.449,0,0,1,6.188,2.152q2.186,2.152,2.186,6.269V50.284q0,3.463,1.349,5.053a4.363,4.363,0,0,0,3.489,1.591,6.84,6.84,0,0,0,1.349-.14q.7-.14,1.535-.234a2.618,2.618,0,0,1,2.419,1.216q.744,1.216.744,4.959a7.791,7.791,0,0,1-1.3,4.912,6.246,6.246,0,0,1-4,2.106,15.99,15.99,0,0,1-2.14.327q-1.4.14-2.605.14Q140.553,70.214,136.367,65.395ZM86.032,67.313a21.143,21.143,0,0,1-8.839-8.327A25.009,25.009,0,0,1,74.03,46.167,24.944,24.944,0,0,1,77.193,33.3a21.24,21.24,0,0,1,8.839-8.281,28.866,28.866,0,0,1,13.3-2.9,28.863,28.863,0,0,1,13.3,2.9,20.936,20.936,0,0,1,8.792,8.281,25.235,25.235,0,0,1,3.118,12.866,25.3,25.3,0,0,1-3.118,12.819,20.844,20.844,0,0,1-8.792,8.327,28.863,28.863,0,0,1-13.3,2.9A28.866,28.866,0,0,1,86.032,67.313ZM93.1,37.138q-2.419,2.761-2.419,9.03,0,6.175,2.419,8.982a7.85,7.85,0,0,0,6.233,2.807,7.751,7.751,0,0,0,6.141-2.807q2.419-2.807,2.419-8.982,0-6.269-2.419-9.03a7.81,7.81,0,0,0-6.141-2.76A7.911,7.911,0,0,0,93.1,37.138Zm-34.8,22.888c.026.072-.167.3-.283.459C57.96,60.387,58.151,60.132,58.307,60.026Z" transform="translate(-0.486 10.156)"/></svg>