<?xml version="1.0" encoding="UTF-8"?>
<svg width="100px" height="97px" viewBox="0 0 100 97" version="1.1" xmlns="http://www.w3.org/2000/svg" xmlns:xlink="http://www.w3.org/1999/xlink">
    <!-- Generator: Sketch 57.1 (83088) - https://sketch.com -->
    <title>Group 103</title>
    <desc>Created with Sketch.</desc>
    <defs>
        <polygon id="path-1" points="2.53077145e-06 0.5144 99.6967514 0.5144 99.6967514 96 2.53077145e-06 96"></polygon>
        <polygon id="path-3" points="0.14744 0.19872 94.0968 0.19872 94.0968 91.9998292 0.14744 91.9998292"></polygon>
    </defs>
    <g id="Page-1" stroke="none" stroke-width="1" fill="none" fill-rule="evenodd">
        <g id="Group-103">
            <path d="M6.52096,38.654 L6.35296,41.7652 C6.30176,42.7108 7.19776,43.5388 7.91696,43.2108 L10.32336,42.1148 C11.01056,41.8028 11.01616,40.662 10.33376,40.0476 L8.09456,38.0332 C7.42416,37.43 6.56896,37.7676 6.52096,38.654" id="Fill-1" fill="#8C3021"></path>
            <path d="M7.76312,40.92744 C8.45032,40.61464 8.45512,39.47544 7.77272,38.86024 L6.79672,37.98184 C6.64392,38.14104 6.53672,38.36424 6.52072,38.65384 L6.44632,40.02984 C6.40872,40.72824 7.12632,41.21784 7.76312,40.92744" id="Fill-3" fill="#FFF9F9"></path>
            <path d="M10.33344,40.04776 L8.09504,38.03256 C7.84864,37.81096 7.57744,37.71896 7.33024,37.73096 L9.31744,39.52056 C9.99984,40.13496 9.99504,41.27496 9.30784,41.58776 L6.90064,42.68376 C6.82064,42.72056 6.73824,42.74056 6.65504,42.75016 C6.97024,43.17816 7.47584,43.41176 7.91664,43.21096 L10.32384,42.11496 C11.01104,41.80216 11.01664,40.66216 10.33344,40.04776" id="Fill-5" fill="#692217"></path>
            <g id="Group-9" transform="translate(0.000000, 0.285600)">
                <mask id="mask-2" fill="white">
                    <use xlink:href="#path-1"></use>
                </mask>
                <g id="Clip-8"></g>
                <path d="M2.45608,39.18088 C2.45608,39.18088 2.02328,12.18968 31.40888,3.79368 C53.92888,-2.64072 84.49048,0.57608 89.31608,11.83528 C94.14168,23.09608 107.00968,47.22328 94.14168,74.56808 C81.27368,101.91288 41.06088,97.08808 31.40888,92.26248 C21.75848,87.43608 -8.80392,74.56808 2.45608,39.18088" id="Fill-7" fill="#FFBF61" mask="url(#mask-2)"></path>
            </g>
            <g id="Group-12" transform="translate(5.600000, 4.285600)">
                <mask id="mask-4" fill="white">
                    <use xlink:href="#path-3"></use>
                </mask>
                <g id="Clip-11"></g>
                <path d="M83.71624,7.83632 C82.33864,4.62112 78.85784,2.06512 74.06984,0.19872 C79.54744,12.53072 88.94584,34.61952 77.31304,59.33952 C64.44424,86.68432 24.23144,81.85792 14.58024,77.03312 C11.33704,75.41152 5.73224,72.87472 0.14744,68.88672 C7.57144,79.93872 20.20744,85.46112 25.80984,88.26192 C35.46104,93.08752 75.67384,97.91312 88.54184,70.56832 C101.40984,43.22272 88.54184,19.09552 83.71624,7.83632" id="Fill-10" fill="#A6523D" opacity="0.26" mask="url(#mask-4)"></path>
            </g>
            <path d="M69.98304,10.92744 C71.65184,16.71064 60.64864,24.96424 45.40704,29.36264 C30.16544,33.76104 16.45584,32.63864 14.78704,26.85544 C13.11824,21.07224 24.12144,12.81784 39.36384,8.42024 C54.60544,4.02184 68.31424,5.14424 69.98304,10.92744" id="Fill-13" fill="#FFF9F9" opacity="0.1"></path>
            <path d="M77.10104,3.03288 L71.68264,9.27848 C70.03464,11.17848 70.56344,14.37208 72.60584,14.85688 L79.43464,16.47928 C81.38424,16.94168 83.25064,14.56168 82.82104,12.16168 L81.40984,4.29368 C80.98744,1.93768 78.64584,1.25208 77.10104,3.03288" id="Fill-15" fill="#8C3021"></path>
            <path d="M76.00144,9.8212 C77.95104,10.2836 79.81824,7.9036 79.38784,5.5044 L78.77264,2.074 C78.19344,2.158 77.60464,2.4516 77.10144,3.0332 L72.03024,8.8772 L76.00144,9.8212 Z" id="Fill-17" fill="#FFF9F9" opacity="0.1"></path>
            <path d="M82.82096,12.16176 L81.40976,4.29376 C81.25456,3.42736 80.83776,2.79216 80.29776,2.41696 L81.55056,9.40256 C81.98096,11.80256 80.11376,14.18176 78.16416,13.71936 L71.33536,12.09776 C71.10736,12.04416 70.90176,11.95056 70.71216,11.83536 C70.67456,13.24496 71.35456,14.55936 72.60576,14.85696 L79.43456,16.47856 C81.38416,16.94176 83.25136,14.56176 82.82096,12.16176" id="Fill-19" fill="#692217"></path>
            <path d="M79.34592,30.08832 L79.13632,33.96512 C79.07312,35.14352 80.18912,36.17632 81.08592,35.76832 L84.08512,34.40192 C84.94112,34.01152 84.94752,32.59072 84.09632,31.82512 L81.30752,29.31472 C80.47152,28.56272 79.40592,28.98272 79.34592,30.08832" id="Fill-21" fill="#8C3021"></path>
            <path d="M80.894,32.92192 C81.75,32.53232 81.7572,31.11152 80.906,30.34512 L79.69,29.25152 C79.4988,29.44912 79.3652,29.72752 79.346,30.08832 L79.2532,31.80272 C79.206,32.67312 80.1004,33.28352 80.894,32.92192" id="Fill-23" fill="#FFF9F9" opacity="0.1"></path>
            <path d="M84.09672,31.82504 L81.30712,29.31384 C80.99992,29.03864 80.66232,28.92264 80.35432,28.93944 L82.83112,31.16824 C83.68152,31.93384 83.67512,33.35464 82.81912,33.74424 L79.81992,35.11064 C79.71992,35.15624 79.61672,35.18104 79.51352,35.19304 C79.90552,35.72664 80.53592,36.01784 81.08552,35.76824 L84.08472,34.40184 C84.94152,34.01144 84.94792,32.59064 84.09672,31.82504" id="Fill-25" fill="#692217"></path>
            <path d="M7.13112,59.23056 L6.92152,63.10736 C6.85832,64.28576 7.97432,65.31776 8.87112,64.90976 L11.87032,63.54416 C12.72632,63.15376 12.73272,61.73296 11.88152,60.96736 L9.09272,58.45616 C8.25672,57.70496 7.19112,58.12496 7.13112,59.23056" id="Fill-27" fill="#8C3021"></path>
            <path d="M8.67912,62.06416 C9.53512,61.67456 9.54232,60.25376 8.69112,59.48736 L7.47512,58.39376 C7.28392,58.59136 7.15032,58.86976 7.13112,59.23056 L7.03832,60.94496 C6.99112,61.81536 7.88552,62.42576 8.67912,62.06416" id="Fill-29" fill="#FFF9F9" opacity="0.1"></path>
            <path d="M11.88184,60.96728 L9.09224,58.45608 C8.78504,58.18088 8.44744,58.06488 8.13944,58.08168 L10.61544,60.31048 C11.46664,61.07608 11.46024,62.49688 10.60424,62.88648 L7.60504,64.25208 C7.50504,64.29848 7.40184,64.32328 7.29864,64.33528 C7.69064,64.86888 8.32104,65.16008 8.87064,64.90968 L11.86984,63.54408 C12.72664,63.15368 12.73304,61.73288 11.88184,60.96728" id="Fill-31" fill="#692217"></path>
            <path d="M91.33816,53.65088 L91.17016,56.76208 C91.11896,57.70768 92.01416,58.53568 92.73416,58.20848 L95.14056,57.11248 C95.82776,56.79968 95.83336,55.65968 95.15016,55.04448 L92.91176,53.03088 C92.24136,52.42688 91.38616,52.76448 91.33816,53.65088" id="Fill-33" fill="#8C3021"></path>
            <path d="M92.57992,55.92504 C93.26712,55.61144 93.27272,54.47224 92.58952,53.85784 L91.61352,52.97944 C91.46072,53.13864 91.35352,53.36184 91.33832,53.65064 L91.26312,55.02664 C91.22632,55.72584 91.94312,56.21464 92.57992,55.92504" id="Fill-35" fill="#FFF9F9" opacity="0.1"></path>
            <path d="M95.15024,55.04464 L92.91184,53.03024 C92.66544,52.80864 92.39424,52.71584 92.14704,52.72864 L94.13424,54.51744 C94.81744,55.13184 94.81184,56.27184 94.12464,56.58544 L91.71824,57.68144 C91.63824,57.71824 91.55504,57.73744 91.47264,57.74704 C91.78704,58.17504 92.29344,58.40944 92.73424,58.20864 L95.14064,57.11264 C95.82784,56.79904 95.83344,55.65984 95.15024,55.04464" id="Fill-37" fill="#692217"></path>
            <path d="M9.8928,34.2852 L9.7248,37.3964 C9.6736,38.342 10.5688,39.17 11.2888,38.842 L13.6952,37.746 C14.3824,37.4332 14.388,36.2932 13.7056,35.6788 L11.4664,33.6644 C10.796,33.0612 9.9408,33.398 9.8928,34.2852" id="Fill-39" fill="#8C3021"></path>
            <path d="M11.13496,36.55864 C11.82216,36.24584 11.82776,35.10664 11.14456,34.49144 L10.16856,33.61304 C10.01576,33.77224 9.90856,33.99544 9.89256,34.28504 L9.81816,35.66104 C9.78056,36.35944 10.49816,36.84904 11.13496,36.55864" id="Fill-41" fill="#FFF9F9" opacity="0.1"></path>
            <path d="M13.70528,35.67896 L11.46688,33.66376 C11.22048,33.44216 10.94928,33.34936 10.70208,33.36216 L12.68928,35.15176 C13.37168,35.76536 13.36688,36.90536 12.67968,37.21896 L10.27248,38.31496 C10.19248,38.35176 10.11008,38.37176 10.02688,38.38136 C10.34208,38.80936 10.84768,39.04296 11.28848,38.84216 L13.69568,37.74616 C14.38288,37.43256 14.38848,36.29336 13.70528,35.67896" id="Fill-43" fill="#692217"></path>
            <path d="M48.39904,10.93368 L48.23104,14.04488 C48.17984,14.99048 49.07504,15.81848 49.79504,15.49128 L52.20144,14.39528 C52.88864,14.08248 52.89424,12.94248 52.21104,12.32728 L49.97264,10.31288 C49.30224,9.70968 48.44704,10.04728 48.39904,10.93368" id="Fill-45" fill="#8C3021"></path>
            <path d="M49.64128,13.20792 C50.32848,12.89432 50.33328,11.75512 49.65088,11.14072 L48.67488,10.26152 C48.52208,10.42152 48.41488,10.64472 48.39888,10.93352 L48.32448,12.30952 C48.28688,13.00872 49.00448,13.49752 49.64128,13.20792" id="Fill-47" fill="#FFF9F9" opacity="0.1"></path>
            <path d="M52.2112,12.32744 L49.9728,10.31224 C49.7264,10.09064 49.4552,9.99864 49.208,10.01144 L51.1952,11.80024 C51.8784,12.41464 51.8728,13.55464 51.1856,13.86824 L48.7792,14.96424 C48.6992,15.00104 48.616,15.02024 48.5336,15.02984 C48.848,15.45784 49.3544,15.69224 49.7952,15.49144 L52.2016,14.39544 C52.8888,14.08184 52.8944,12.94264 52.2112,12.32744" id="Fill-49" fill="#692217"></path>
            <path d="M45.99128,79.07824 L45.82328,82.18944 C45.77208,83.13504 46.66728,83.96304 47.38728,83.63584 L49.79368,82.53904 C50.48088,82.22704 50.48648,81.08704 49.80328,80.47184 L47.56488,78.45744 C46.89448,77.85424 46.03928,78.19184 45.99128,79.07824" id="Fill-51" fill="#8C3021"></path>
            <path d="M47.23304,81.3524 C47.92024,81.0388 47.92584,79.8996 47.24264,79.2844 L46.26664,78.406 C46.11384,78.566 46.00664,78.7892 45.99144,79.078 L45.91624,80.454 C45.87944,81.1532 46.59624,81.642 47.23304,81.3524" id="Fill-53" fill="#FFF9F9" opacity="0.1"></path>
            <path d="M49.80336,80.47192 L47.56496,78.45672 C47.31856,78.23512 47.04736,78.14312 46.80016,78.15592 L48.78736,79.94472 C49.47056,80.55912 49.46496,81.69912 48.77776,82.01192 L46.37136,83.10872 C46.29136,83.14472 46.20816,83.16472 46.12496,83.17432 C46.44016,83.60232 46.94656,83.83672 47.38736,83.63592 L49.79376,82.53912 C50.48096,82.22632 50.48656,81.08712 49.80336,80.47192" id="Fill-55" fill="#692217"></path>
            <path d="M22.23496,69.30944 L13.00536,72.93664 C10.19816,74.03984 8.82136,77.68624 10.60136,79.30464 L16.55336,84.71824 C18.25256,86.26304 21.57016,84.77344 22.57016,82.01584 L25.84856,72.97584 C26.83096,70.26784 24.86696,68.27584 22.23496,69.30944" id="Fill-57" fill="#8C3021"></path>
            <path d="M17.05808,75.85168 C18.75728,77.39728 22.07488,75.90768 23.07488,73.15008 L24.50368,69.20928 C23.86608,68.98288 23.09408,68.97248 22.23568,69.30928 L18.15328,70.91408 C16.07968,71.72928 15.48288,74.41968 17.05808,75.85168" id="Fill-59" fill="#FFF9F9" opacity="0.1"></path>
            <path d="M22.57016,82.01568 L25.84856,72.97568 C26.20936,71.98048 26.16696,71.08528 25.84456,70.39808 L22.93416,78.42448 C21.93416,81.18128 18.61656,82.67088 16.91736,81.12608 L10.96536,75.71328 C10.76696,75.53248 10.61336,75.32448 10.49096,75.09888 C9.60936,76.56208 9.51176,78.31328 10.60216,79.30448 L16.55336,84.71808 C18.25336,86.26368 21.57016,84.77328 22.57016,82.01568" id="Fill-61" fill="#692217"></path>
            <path d="M75.08536,69.30944 L84.31576,72.93664 C87.12216,74.03984 88.49896,77.68624 86.71896,79.30464 L80.76696,84.71824 C79.06776,86.26304 75.75016,84.77344 74.75016,82.01584 L71.47176,72.97584 C70.49016,70.26784 72.45416,68.27584 75.08536,69.30944" id="Fill-63" fill="#8C3021"></path>
            <path d="M80.26232,75.85168 C78.56312,77.39728 75.24552,75.90768 74.24552,73.15008 L72.81672,69.20928 C73.45432,68.98288 74.22632,68.97248 75.08552,69.30928 L79.16712,70.91408 C81.24072,71.72928 81.83752,74.41968 80.26232,75.85168" id="Fill-65" fill="#FFF9F9" opacity="0.1"></path>
            <path d="M74.75024,82.01568 L71.47184,72.97568 C71.11104,71.98048 71.15344,71.08528 71.47584,70.39808 L74.38624,78.42448 C75.38704,81.18128 78.70384,82.67088 80.40304,81.12608 L86.35504,75.71328 C86.55344,75.53248 86.70704,75.32448 86.82944,75.09888 C87.71104,76.56208 87.80944,78.31328 86.71824,79.30448 L80.76704,84.71808 C79.06784,86.26368 75.75024,84.77328 74.75024,82.01568" id="Fill-67" fill="#692217"></path>
            <path d="M24.99632,17.04384 L24.26352,8.80864 C24.04112,6.30384 21.37552,4.46624 19.60832,5.59904 L13.69952,9.38784 C12.01312,10.46864 12.42992,13.46544 14.45552,14.82224 L21.09632,19.26944 C23.08512,20.60144 25.20512,19.39264 24.99632,17.04384" id="Fill-69" fill="#8C3021"></path>
            <path d="M20.87488,11.53992 C19.18768,12.62152 19.60448,15.61832 21.63008,16.97432 L24.52448,18.91272 C24.86768,18.43752 25.06448,17.81032 24.99648,17.04472 L24.31088,9.33672 L20.87488,11.53992 Z" id="Fill-71" fill="#FFF9F9" opacity="0.1"></path>
            <path d="M14.45528,14.82192 L21.09608,19.26992 C21.82808,19.75952 22.57528,19.90032 23.22008,19.77232 L17.32248,15.82352 C15.29688,14.46752 14.88088,11.47072 16.56808,10.38912 L22.47608,6.60112 C22.67288,6.47392 22.88248,6.39072 23.09688,6.33472 C22.10808,5.32912 20.69048,4.90512 19.60808,5.59952 L13.70008,9.38752 C12.01288,10.46912 12.42968,13.46592 14.45528,14.82192" id="Fill-73" fill="#692217"></path>
            <path d="M38.13072,44.54304 C38.13072,47.42464 35.79552,49.75984 32.91392,49.75984 C30.03232,49.75984 27.69712,47.42464 27.69712,44.54304 C27.69712,41.66144 30.03232,39.32624 32.91392,39.32624 C35.79552,39.32624 38.13072,41.66144 38.13072,44.54304" id="Fill-75" fill="#100806"></path>
            <path d="M33.62368,42.87976 C33.62368,44.14696 32.59648,45.17416 31.32928,45.17416 C30.06208,45.17416 29.03568,44.14696 29.03568,42.87976 C29.03568,41.61256 30.06208,40.58616 31.32928,40.58616 C32.59648,40.58616 33.62368,41.61256 33.62368,42.87976" id="Fill-77" fill="#FFF9F9"></path>
            <path d="M35.15528,45.75944 C35.15528,46.28184 34.73128,46.70584 34.20888,46.70584 C33.68648,46.70584 33.26248,46.28184 33.26248,45.75944 C33.26248,45.23624 33.68648,44.81224 34.20888,44.81224 C34.73128,44.81224 35.15528,45.23624 35.15528,45.75944" id="Fill-79" fill="#FFF9F9"></path>
            <path d="M73.25728,44.54304 C73.25728,47.42464 70.92128,49.75984 68.04048,49.75984 C65.15888,49.75984 62.82368,47.42464 62.82368,44.54304 C62.82368,41.66144 65.15888,39.32624 68.04048,39.32624 C70.92128,39.32624 73.25728,41.66144 73.25728,44.54304" id="Fill-81" fill="#100806"></path>
            <path d="M68.75024,42.87976 C68.75024,44.14696 67.72304,45.17416 66.45584,45.17416 C65.18864,45.17416 64.16224,44.14696 64.16224,42.87976 C64.16224,41.61256 65.18864,40.58616 66.45584,40.58616 C67.72304,40.58616 68.75024,41.61256 68.75024,42.87976" id="Fill-83" fill="#FFF9F9"></path>
            <path d="M70.28184,45.75944 C70.28184,46.28184 69.85784,46.70584 69.33544,46.70584 C68.81224,46.70584 68.38904,46.28184 68.38904,45.75944 C68.38904,45.23624 68.81224,44.81224 69.33544,44.81224 C69.85784,44.81224 70.28184,45.23624 70.28184,45.75944" id="Fill-85" fill="#FFF9F9"></path>
            <path d="M74.32448,51.93056 C74.32448,52.62656 73.07248,53.19136 71.52688,53.19136 C69.98208,53.19136 68.73008,52.62656 68.73008,51.93056 C68.73008,51.23456 69.98208,50.66976 71.52688,50.66976 C73.07248,50.66976 74.32448,51.23456 74.32448,51.93056" id="Fill-87" fill="#FF8BC2"></path>
            <path d="M30.96704,50.92664 C30.96704,51.62264 29.71504,52.18744 28.16944,52.18744 C26.62464,52.18744 25.37264,51.62264 25.37264,50.92664 C25.37264,50.23064 26.62464,49.66584 28.16944,49.66584 C29.71504,49.66584 30.96704,50.23064 30.96704,50.92664" id="Fill-89" fill="#FF8BC2"></path>
            <path d="M12.91824,58.4212 C12.91824,61.234 10.63744,63.514 7.82464,63.514 C5.01184,63.514 2.73184,61.234 2.73184,58.4212 C2.73184,55.6076 5.01184,53.3276 7.82464,53.3276 C10.63744,53.3276 12.91824,55.6076 12.91824,58.4212" id="Fill-91" fill="#A6523D" opacity="0.26"></path>
            <path d="M86.8088,26.9704 C86.8088,29.7832 84.5288,32.0632 81.7152,32.0632 C78.9024,32.0632 76.6224,29.7832 76.6224,26.9704 C76.6224,24.1568 78.9024,21.8776 81.7152,21.8776 C84.5288,21.8776 86.8088,24.1568 86.8088,26.9704" id="Fill-93" fill="#A6523D" opacity="0.26"></path>
            <path d="M67.67096,69.56256 C67.67096,72.37616 65.39096,74.65536 62.57816,74.65536 C59.76456,74.65536 57.48456,72.37616 57.48456,69.56256 C57.48456,66.74896 59.76456,64.46976 62.57816,64.46976 C65.39096,64.46976 67.67096,66.74896 67.67096,69.56256" id="Fill-95" fill="#A6523D" opacity="0.26"></path>
            <path d="M56.71624,32.454 C56.71624,35.2676 54.43544,37.5468 51.62264,37.5468 C48.80984,37.5468 46.52984,35.2676 46.52984,32.454 C46.52984,29.6404 48.80984,27.3612 51.62264,27.3612 C54.43544,27.3612 56.71624,29.6404 56.71624,32.454" id="Fill-97" fill="#A6523D" opacity="0.26"></path>
            <path d="M21.40456,23.97824 C21.40456,26.79104 19.12376,29.07104 16.31096,29.07104 C13.49816,29.07104 11.21816,26.79104 11.21816,23.97824 C11.21816,21.16464 13.49816,18.88464 16.31096,18.88464 C19.12376,18.88464 21.40456,21.16464 21.40456,23.97824" id="Fill-99" fill="#A6523D" opacity="0.26"></path>
            <path d="M59.0764,55.16728 C59.0764,59.94888 55.2004,63.82408 50.4196,63.82408 C45.6388,63.82408 41.762,59.94888 41.762,55.16728" id="Stroke-101" stroke="#100806" stroke-width="3" stroke-linecap="round" stroke-linejoin="round"></path>
        </g>
    </g>
</svg>