<svg xmlns="http://www.w3.org/2000/svg" width="14" height="14">
    <path fill="#217CED" fill-rule="evenodd" d="M12.497 12.054c-.279 0-.506-.226-.506-.505 0-.28.227-.506.506-.506s.505-.226.505-.505V1.534c0-.279-.226-.505-.505-.505H3.462c-.279 0-.505.226-.505.505 0 .28-.226.506-.506.506-.279 0-.505-.226-.505-.506 0-.837.679-1.516 1.516-1.516h9.035c.837 0 1.516.679 1.516 1.516v9.004c0 .837-.679 1.516-1.516 1.516zM10.986 4.53v7.936c0 .837-.679 1.516-1.516 1.516H1.503c-.837 0-1.516-.679-1.516-1.516V4.53c0-.837.679-1.516 1.516-1.516H9.47c.837 0 1.516.679 1.516 1.516zm-9.988 0v7.936c0 .279.226.505.505.505H9.47c.279 0 .505-.226.505-.505V4.53c0-.279-.226-.505-.505-.505H1.503c-.279 0-.505.226-.505.505z"/>
</svg>
