<?xml version="1.0" encoding="UTF-8"?>
<svg width="198px" height="173px" viewBox="0 0 198 173" version="1.1" xmlns="http://www.w3.org/2000/svg" xmlns:xlink="http://www.w3.org/1999/xlink">
    <!-- Generator: Sketch 57.1 (83088) - https://sketch.com -->
    <title>ShakeHand</title>
    <desc>Created with Sketch.</desc>
    <g id="Page-1" stroke="none" stroke-width="1" fill="none" fill-rule="evenodd">
        <g id="ShakeHand" fill-rule="nonzero">
            <path d="M55.7228571,98.703 L42.1032857,109.593 L41.3678571,110.172857 C37.462415,113.297211 36.8292177,118.995986 39.9535714,122.901429 C43.0779252,126.806871 48.7767007,127.440068 52.6821429,124.315714 L52.6821429,124.315714 L67.0371429,112.831714 L67.0371429,112.831714 C70.942585,109.707361 71.5757823,104.008585 68.4514286,100.103143 C65.3270748,96.1977007 59.6282993,95.5645034 55.7228571,98.6888571 L55.7228571,98.703 Z" id="Path" fill="#FFFFFF"></path>
            <path d="M67.0371429,112.831714 L52.6821429,124.315714 L52.6821429,124.315714 C49.0441241,127.51335 48.5623125,133.00594 51.5880594,136.788124 C54.6138063,140.570307 60.0781941,141.305938 63.9964286,138.458571 L78.3514286,127.002857 L84.6732857,121.953857 C88.3113044,118.756221 88.793116,113.263631 85.7673692,109.481448 C82.7416223,105.699264 77.2772344,104.963634 73.359,107.811 L67.0654286,112.845857 L67.0371429,112.831714 Z" id="Path" fill="#FFFFFF"></path>
            <path d="M78.3655714,126.988714 L64.0105714,138.444429 C61.3094252,140.407342 59.9059659,143.696186 60.3576901,147.004534 C60.8094143,150.312881 63.0431858,153.105096 66.171683,154.272025 C69.3001802,155.438954 72.8168855,154.791667 75.3248571,152.587286 L83.3721429,146.152286 L89.6798571,141.103286 C93.5852993,137.978932 94.2184966,132.280156 91.0941429,128.374714 C87.9697891,124.469272 82.2710136,123.836075 78.3655714,126.960429 L78.3655714,126.988714 Z" id="Path" fill="#FFFFFF"></path>
            <path d="M83.4428571,146.166429 L75.3955714,152.601429 C72.8691933,154.622531 71.612969,157.837913 72.1001061,161.036372 C72.5872431,164.234831 74.7437338,166.930444 77.7572489,168.107801 C80.7707641,169.285157 84.183479,168.765388 86.7098571,166.744286 L94.743,160.323429 C98.6433592,157.196278 99.2760664,151.501913 96.1572857,147.594857 C93.0260906,143.701858 87.3380995,143.069859 83.4287143,146.180571 L83.4428571,146.166429 Z" id="Path" fill="#FFFFFF"></path>
            <path d="M53.1347143,54.846 L28.2857143,98.7454286 C34.353,100.470857 39.6,104.402571 42.075,109.593 L55.6945714,98.703 C58.2209495,96.6818975 61.6336645,96.1621285 64.6471796,97.3394849 C67.6606948,98.5168412 69.8171855,101.212455 70.3043225,104.410913 C70.7914595,107.609372 69.5352352,110.824755 67.0088571,112.845857 L73.3024286,107.811 C77.220663,104.963634 82.6850509,105.699264 85.7107977,109.481448 C88.7365446,113.263631 88.254733,118.756221 84.6167143,121.953857 L78.2948571,127.002857 C80.8212352,124.981754 84.2339503,124.461985 87.2474655,125.639342 C90.2609808,126.816698 92.4174715,129.512312 92.9046085,132.71077 C93.3917455,135.909229 92.1355211,139.124612 89.6091429,141.145714 L83.4428571,146.166429 C86.53442,143.693323 90.8745105,143.516392 94.1571211,145.729642 C97.4397316,147.942893 98.9030483,152.032685 97.7695714,155.826 L105.859286,162.289286 C108.385664,164.310388 111.798379,164.830157 114.811894,163.652801 C117.825409,162.475444 119.9819,159.779831 120.469037,156.581372 C120.956174,153.382913 119.69995,150.167531 117.173571,148.146429 L122.745857,152.601429 C126.664092,155.448795 132.128479,154.713165 135.154226,150.930981 C138.179973,147.148797 137.698162,141.656208 134.060143,138.458571 C136.586521,140.479674 139.999236,140.999443 143.012751,139.822087 C146.026266,138.64473 148.182757,135.949117 148.669894,132.750658 C149.157031,129.552199 147.900807,126.336817 145.374429,124.315714 C149.279871,127.440068 154.978646,126.80687 158.103,122.901428 C161.227353,118.995986 160.594156,113.297211 156.688714,110.172857 L155.967429,109.593 L144.257143,100.230429 C138.218143,95.4077143 131.401286,90.0617143 124.923857,85.4228571 C113.199429,77.022 107.429143,71.4497143 92.7488571,74.3914286 C81.6467143,76.6401429 72.666,73.2458571 70.3324286,63.6428571 C69.975581,62.3950107 69.975581,61.0721322 70.3324286,59.8242857 L53.1347143,54.846 Z" id="Path" fill="#FFFFFF"></path>
            <path d="M101.079,52.173 L84.447,53.5872857 C76.4562857,54.2944286 71.5062857,56.1471429 70.3041429,59.7535714 C69.9472953,61.0014179 69.9472953,62.3242964 70.3041429,63.5721429 C72.6377143,73.1751429 81.6184286,76.5694286 92.7205714,74.3207143 C107.400857,71.379 113.171143,76.9512857 124.881429,85.3521429 C131.358857,89.991 138.189857,95.337 144.228857,100.159714 L155.953286,109.522286 C158.371714,104.289429 163.661143,100.400143 169.728429,98.6747143 L144.936,54.8318571 L134.625857,57.816 C127.554429,59.8667143 128.487857,59.2302857 121.699286,56.8684286 L111.672,53.361 C108.315987,52.0041112 104.65221,51.5932204 101.079,52.173 L101.079,52.173 Z" id="Path" fill="#FFFFFF"></path>
            <path d="M142.743857,51.0557143 L144.893571,54.846 L169.686,98.6888571 L172.359,103.412571 C173.926937,106.144586 177.399635,107.108874 180.151714,105.576429 L190.419429,99.9192857 C190.994859,99.605139 191.507777,99.1880935 191.932714,98.6888571 C193.509842,96.8578346 193.775348,94.2366613 192.597429,92.1265714 L191.932714,90.981 L162.968143,39.7414286 C161.405974,37.0098325 157.932739,36.0499566 155.189571,37.5917143 L144.907714,43.2488571 C143.578667,43.9832985 142.600674,45.2212037 142.193714,46.6841302 C141.786755,48.1470568 141.984999,49.7121701 142.743857,51.0274286 L142.743857,51.0557143 Z" id="Path" fill="#A0C8FF"></path>
            <path d="M35.0177143,39.7414286 L5.41671429,92.07 C4.65340267,93.3865149 4.45248272,94.9550944 4.85966001,96.4214649 C5.26683729,97.8878354 6.24764861,99.1283081 7.58057143,99.8627143 L17.8482857,105.519857 C20.6003653,107.052303 24.0730627,106.088015 25.641,103.356 L28.2857143,98.7454286 L53.1064286,54.9025714 L55.2278571,51.1688571 C55.986715,49.8535986 56.1849597,48.2884853 55.7780001,46.8255588 C55.3710406,45.3626323 54.393047,44.1247271 53.064,43.3902857 L42.7821429,37.7331429 C40.076764,36.1927495 36.6369224,37.0824717 35.0177143,39.7414286 Z" id="Path" fill="#FF9EB1"></path>
            <path d="M99,27.1967143 C101.11675,27.1967143 102.832714,25.4807497 102.832714,23.364 L102.832714,3.83271429 C102.832714,1.71596464 101.11675,0 99,0 C96.8832503,0 95.1672857,1.71596464 95.1672857,3.83271429 L95.1672857,23.364 C95.1672857,24.380499 95.5710884,25.3553649 96.2898617,26.0741383 C97.0086351,26.7929116 97.983501,27.1967143 99,27.1967143 Z" id="Path" fill="#000000"></path>
            <path d="M70.1768571,33.5044286 C70.8778177,34.6162099 72.1012676,35.2893745 73.4155714,35.2865718 C74.1380423,35.292805 74.8463833,35.0862055 75.4521429,34.6924286 C76.3126296,34.153615 76.9231213,33.294312 77.1486984,32.3044269 C77.3742754,31.3145418 77.196365,30.275576 76.6542857,29.4171429 L66.4714286,13.1952857 C65.3388503,11.4026879 62.9675266,10.8676363 61.1749287,12.0002145 C59.3823309,13.1327927 58.8472791,15.5041163 59.9798571,17.2967143 L70.1768571,33.5044286 Z" id="Path" fill="#000000"></path>
            <path d="M122.547857,34.7065714 C124.342961,35.8204332 126.699952,35.2847534 127.837286,33.5044286 L138.048429,17.2825714 C139.173196,15.4821626 138.62548,13.1108388 136.825071,11.9860715 C135.024663,10.8613042 132.653339,11.4090198 131.528571,13.2094286 L121.345714,29.4171429 C120.223658,31.2108663 120.760739,33.5740241 122.547857,34.7065714 Z" id="Path" fill="#000000"></path>
            <path d="M195.921,90.2738571 L189.259714,78.507 C188.585171,77.3145495 187.325703,76.5725443 185.955739,76.5604904 C184.585775,76.5484365 183.313446,77.2681652 182.618025,78.4485618 C181.922604,79.6289583 181.909743,81.0906924 182.584286,82.2831429 L189.245571,94.05 C189.748183,94.9454762 189.439731,96.0785647 188.552571,96.5957143 L178.284857,102.252857 C177.370557,102.745542 176.230748,102.442006 175.682571,101.559857 L173.080286,96.9492857 C173.080286,96.9492857 173.080286,96.9492857 173.080286,96.8785714 L146.081571,49.2171429 C145.83726,48.7876706 145.776092,48.2779386 145.911857,47.8028571 C146.033925,47.3391052 146.340576,46.9455696 146.760429,46.7138571 L157.042286,41.0567143 C157.949466,40.5419924 159.10183,40.8505488 159.630429,41.7497143 L165.641143,52.371 C166.683896,54.2143687 169.02356,54.8633959 170.866929,53.8206429 C172.710297,52.7778898 173.359324,50.4382258 172.316571,48.5948571 L166.305857,37.9735714 C163.704826,33.417473 157.921708,31.8029928 153.336857,34.353 L143.055,40.0101429 C138.600463,42.4907205 136.89176,48.0408858 139.179857,52.5972857 L133.522714,54.2378571 C132.000272,54.7621807 130.426213,55.1225074 128.827286,55.3127143 L128.827286,55.3127143 C127.819776,55.1792398 126.840613,54.8831028 125.928,54.4358571 C125.136,54.1388571 124.146,53.7711429 122.943857,53.3468571 L112.902429,49.8394286 C109.210577,48.3301883 105.18804,47.8133534 101.234571,48.3402857 L84.1217143,49.8677143 C76.329,50.5607143 71.3931429,52.3144286 68.5645714,55.3692857 L58.8201429,52.5407143 C61.0670906,47.991116 59.3499316,42.4787868 54.9167143,40.0101429 L44.649,34.353 C40.0543283,31.8204154 34.2776881,33.4376229 31.6658571,37.9877143 L2.05071429,90.3162857 C0.793809261,92.5387078 0.478072006,95.1715491 1.17385714,97.6281429 C1.85114897,100.068159 3.48238422,102.132691 5.69957143,103.356 L15.9672857,109.013143 C20.5573272,111.556242 26.3388107,109.943976 28.9504286,105.392571 L30.0394286,103.469143 C32.8187023,104.657624 35.2515423,106.53091 37.1108571,108.914143 C33.1214563,113.621112 33.0148488,120.491375 36.8562857,125.319857 C38.9775309,127.973668 42.0649232,129.677583 45.441,130.057714 C45.0641322,133.433217 46.0519638,136.819341 48.1847143,139.462714 C50.3076387,142.107288 53.3866717,143.809394 56.7552857,144.200571 C55.9940838,151.22459 61.049777,157.544207 68.0695714,158.343429 C67.4830687,163.566628 70.124594,168.623275 74.7467705,171.125529 C79.3689471,173.627784 85.047139,173.075085 89.1,169.728429 L97.1331429,163.293429 C97.763609,162.792419 98.3459868,162.233715 98.8727143,161.624571 L103.455,165.287571 C109.024618,169.720761 117.130259,168.816621 121.586143,163.265143 C122.873451,161.637847 123.75568,159.727965 124.160143,157.692857 C125.523589,158.169448 126.958684,158.40863 128.403,158.4 C132.064149,158.420911 135.560535,156.879825 138.01512,154.16331 C140.469705,151.446794 141.649607,147.812583 141.258857,144.172286 C148.282706,143.380408 153.342399,137.055791 152.573143,130.029429 C157.322706,129.498704 161.388301,126.38258 163.135065,121.934116 C164.881828,117.485651 164.022751,112.435772 160.903286,108.815143 C162.779198,106.419245 165.238256,104.544518 168.045429,103.370143 L169.134429,105.293571 C171.746046,109.844976 177.52753,111.457242 182.117571,108.914143 L192.385286,103.257 C194.603062,102.019879 196.235519,99.9489507 196.920536,97.5035977 C197.605554,95.0582447 197.286498,92.4406382 196.034143,90.2314286 L195.921,90.2738571 Z M22.3032857,101.588143 C21.7650303,102.474524 20.6242998,102.779965 19.7151429,102.281143 L9.43328571,96.624 C8.55125996,96.1020722 8.24939933,94.9700948 8.75442857,94.0782857 L38.3695714,41.7497143 C38.7036252,41.1592212 39.3317319,40.7964355 40.0101429,40.8020765 C40.3427832,40.8030068 40.6694262,40.8907616 40.9577143,41.0567143 L51.2254286,46.7138571 L51.2254286,46.7138571 C51.637048,46.9550896 51.9406884,47.3447615 52.074,47.8028571 C52.2097652,48.2779386 52.1485973,48.7876706 51.9042857,49.2171429 L22.3032857,101.588143 Z M50.292,121.388143 C48.6485718,122.750382 46.3399623,122.971007 44.4682692,121.944695 C42.5965761,120.918383 41.5413281,118.853243 41.8062857,116.735143 C41.9583296,115.315087 42.6966161,114.023086 43.8428571,113.171143 L58.1271429,101.687143 C59.7724921,100.321924 62.0853768,100.101802 63.9587165,101.132139 C65.8320562,102.162476 66.884726,104.233653 66.6128571,106.354286 C66.4654517,107.722082 65.7781721,108.974459 64.7035714,109.833429 L64.7035714,109.833429 L50.4051429,121.260857 L50.292,121.388143 Z M54.2661429,134.710714 C52.4796481,132.453269 52.8456752,129.177958 55.0864286,127.370571 L55.0864286,127.370571 L75.7632857,110.851714 C78.0242917,109.210754 81.1755737,109.635287 82.9217216,111.816082 C84.6678695,113.996877 84.3929808,117.164722 82.2972857,119.012143 L61.6204286,135.446143 C59.3667473,137.253535 56.0747773,136.892684 54.2661429,134.64 L54.2661429,134.710714 Z M69.0878571,150.762857 C66.9956935,150.526015 65.2507911,149.055135 64.6633809,147.033207 C64.0759707,145.011279 64.7611314,142.834417 66.4007143,141.513429 L66.4007143,141.513429 L80.7132857,130.086 L80.7132857,130.086 C82.3604123,128.739443 84.6600495,128.527544 86.5255075,129.550437 C88.3909655,130.57333 89.4487473,132.626213 89.199,134.739 C89.053213,136.114549 88.3599946,137.373556 87.2755714,138.232286 L72.9205714,149.702143 C71.8395356,150.573611 70.4522984,150.971422 69.0737143,150.805286 L69.0878571,150.762857 Z M94.2055714,153.874286 C94.0634497,155.254909 93.3698795,156.519654 92.2821429,157.381714 L84.2631429,163.802571 C82.0057401,165.606688 78.7132707,165.239451 76.9088571,162.982286 C76.0389695,161.911459 75.6408809,160.53346 75.8057143,159.163714 C75.948918,157.786731 76.6362826,156.524017 77.715,155.656286 L77.715,155.656286 L85.7481429,149.249571 L85.7481429,149.249571 C88.0078775,147.453536 91.2939598,147.820061 93.1024286,150.069857 C93.9460957,151.121321 94.3423342,152.462436 94.2055714,153.803571 L94.2055714,153.874286 Z M155.019857,120.567857 C153.216493,122.815932 149.934853,123.182667 147.679714,121.388143 L147.679714,121.388143 L137.412,113.185286 C135.756093,111.865246 133.343611,112.137521 132.023572,113.793429 C130.703532,115.449336 130.975807,117.861818 132.631714,119.181857 L142.885286,127.370571 C144.34048,128.537758 145.062448,130.39262 144.779231,132.236448 C144.496015,134.080276 143.250641,135.63295 141.512231,136.309591 C139.773821,136.986232 137.806479,136.684044 136.351286,135.516857 L125.235,126.635143 C123.579093,125.311198 121.163445,125.580307 119.8395,127.236214 C118.515555,128.892122 118.784664,131.307769 120.440571,132.631714 L131.571,141.513429 C133.666695,143.360849 133.941584,146.528694 132.195436,148.709489 C130.449288,150.890284 127.298006,151.314818 125.037,149.673857 L119.493,145.247143 L119.493,145.247143 L114.825857,141.499286 L113.949,140.806286 C113.157201,140.166691 112.142818,139.869683 111.131093,139.981212 C110.119367,140.092741 109.194038,140.603575 108.560571,141.400286 C108.396486,141.601493 108.254259,141.819576 108.136286,142.050857 C107.307549,143.671572 107.733112,145.651624 109.154571,146.788714 L114.726857,151.243714 C116.804847,153.098242 117.066064,156.255473 115.321115,158.426295 C113.576165,160.597117 110.436597,161.020731 108.178714,159.39 L101.828571,154.298571 C102.281637,148.931019 99.3403842,143.85016 94.4601429,141.57 C97.8148247,136.875151 97.6473964,130.524424 94.05,126.012857 C92.819795,124.465445 91.246077,123.22584 89.4535714,122.392286 C90.752095,120.599999 91.5568262,118.497943 91.7871429,116.296714 C92.1874414,112.89969 91.2036659,109.484511 89.0575714,106.821 C85.4358055,102.31463 79.2621504,100.76111 73.9388571,103.016571 C73.5349347,101.085444 72.6876367,99.2746472 71.4638571,97.7271429 C67.0120274,92.1682974 58.9000014,91.2634458 53.3327143,95.7047143 L43.065,103.907571 C40.5966572,100.832659 37.4438033,98.3772101 33.858,96.7371429 L54.9732857,59.3858571 L66.2875714,62.6387143 C66.3346639,63.2830866 66.4387857,63.9220158 66.5987143,64.548 C69.3141429,75.735 79.6242857,80.9537143 93.4701429,78.1534286 C105.152143,75.8057143 109.960714,79.3131429 119.549571,86.2855714 L122.646857,88.5342857 C129.534429,93.4701429 136.902857,99.2828571 141.838714,103.214571 L154.284429,113.114571 C155.364417,113.978069 156.056394,115.235842 156.207637,116.610298 C156.35888,117.984754 155.956957,119.362898 155.090571,120.440571 L155.019857,120.567857 Z M154.906714,103.978286 L146.548286,97.3028571 C141.555857,93.3145714 134.088429,87.4028571 127.045286,82.368 L123.990429,80.1617143 C114.090429,72.9205714 106.877571,67.7018571 91.8861429,70.7142857 C87.3038571,71.6335714 76.329,72.7084286 73.953,62.8084286 C73.6135714,61.3941429 73.953,60.9274286 74.1085714,60.7152857 C74.6177143,60.0081429 76.6825714,58.2685714 84.7581429,57.5472857 L101.885143,56.0198571 C104.761293,55.5946917 107.699011,55.976595 110.370857,57.123 L120.412286,60.6304286 C121.529571,61.0122857 122.420571,61.3517143 123.240857,61.6487143 C128.077714,63.4872857 129.364714,63.4872857 135.700714,61.6487143 L143.097429,59.499 L164.198571,96.8078571 C160.596907,98.4156143 157.42368,100.847614 154.935,103.907571 L154.906714,103.978286 Z" id="Shape" fill="#000000"></path>
            <path d="M177.436286,69.2434286 C179.553035,69.2434286 181.269,67.5274639 181.269,65.4107143 C181.269,63.2939646 179.553035,61.578 177.436286,61.578 C175.319536,61.578 173.603571,63.2939646 173.603571,65.4107143 L173.603571,65.4107143 C173.603571,66.4272133 174.007374,67.4020792 174.726147,68.1208525 C175.444921,68.8396259 176.419787,69.2434286 177.436286,69.2434286 Z" id="Path" fill="#000000"></path>
        </g>
    </g>
</svg>