<?xml version="1.0" encoding="UTF-8"?>
<svg width="370px" height="208px" viewBox="0 0 370 208" version="1.1" xmlns="http://www.w3.org/2000/svg" xmlns:xlink="http://www.w3.org/1999/xlink">
    <!-- Generator: Sketch 57.1 (83088) - https://sketch.com -->
    <title>Group 4</title>
    <desc>Created with Sketch.</desc>
    <defs>
        <rect id="path-1" x="0" y="0" width="370" height="208"></rect>
        <polygon id="path-3" points="0.0002 0.067 2.3022 0.067 2.3022 2.3687 0.0002 2.3687"></polygon>
        <polygon id="path-5" points="0.9509 0.067 3.2529 0.067 3.2529 2.3687 0.9509 2.3687"></polygon>
        <polygon id="path-7" points="0.9016 0.067 3.2036 0.067 3.2036 2.3687 0.9016 2.3687"></polygon>
        <polygon id="path-9" points="0.8523 0.067 3.1543 0.067 3.1543 2.3687 0.8523 2.3687"></polygon>
        <polygon id="path-11" points="0.7536 0.1194 3.055 0.1194 3.055 2.4204 0.7536 2.4204"></polygon>
        <polygon id="path-13" points="0.7536 0.6458 3.055 0.6458 3.055 2.9468 0.7536 2.9468"></polygon>
        <polygon id="path-15" points="0.7536 0.5931 3.055 0.5931 3.055 2.8951 0.7536 2.8951"></polygon>
        <polygon id="path-17" points="0.7536 0.1722 3.055 0.1722 3.055 2.4732 0.7536 2.4732"></polygon>
        <polygon id="path-19" points="0.7536 0.6986 3.055 0.6986 3.055 2.9996 0.7536 2.9996"></polygon>
        <path d="M12.6131492,95.4561678 C4.30661293,86.9561602 0.0566091232,75.7518733 0.0566091232,61.8428526 C0.0566091232,49.4793292 2.47124968,38.5644537 7.39738012,29.1955301 C12.3235106,19.8261518 18.6016669,12.6783975 26.4257753,7.65564504 C34.2494289,2.63311994 42.4595706,0.12185739 50.9595782,0.12185739 C59.3627365,0.12185739 65.9309862,2.63311994 70.5672506,7.55925039 C75.2037424,12.4853808 77.521761,18.9567812 77.521761,26.6840402 C77.521761,33.1554406 76.0728857,38.5644537 73.2717572,43.0077015 C70.4706286,47.4507219 66.7037348,49.6725732 62.163865,49.6725732 C59.2663418,49.6725732 56.9480959,48.9962192 55.2093546,47.6439659 C53.4708407,46.29194 52.6014701,44.3601821 52.6014701,41.9453142 C52.6014701,40.8826996 52.7947141,39.6270683 53.0845801,38.274815 C53.3742187,36.9225617 53.6640847,35.8601745 53.7607067,35.2804425 C54.5334554,32.9624239 54.919716,30.837422 54.919716,28.8088148 C54.919716,26.7804348 54.4368334,25.3315596 53.4708407,24.1727776 C52.5048481,23.110163 51.0559728,22.5306584 49.2208369,22.5306584 C45.7435817,22.5306584 42.3629486,24.0761556 39.3688034,27.2635448 C36.2778088,30.354312 33.8629409,34.6045432 32.027805,40.0135563 C30.1926691,45.4225694 29.2266765,51.2180704 29.2266765,57.6894708 C29.2266765,75.4620073 36.9539355,84.3482756 52.4084534,84.3482756 C58.6866098,84.3482756 67.4764834,79.5187672 74.7206324,75.2689907 C81.9650088,71.0187595 97.2262828,57.8824875 98.8681747,56.3372175 C100.896555,54.3086103 104.953542,50.4450945 108.623814,54.1155936 C113.646566,59.1383461 91.6240257,87.8255308 76.5557684,98.1606743 C67.3798614,104.439058 56.8514739,108.109557 47.482323,108.109557 C32.7039317,108.206179 21.0165348,103.955948 12.6131492,95.4561678 Z" id="path-21"></path>
        <path d="M12.6131492,95.4561678 C4.30661293,86.9561602 0.0566091232,75.7518733 0.0566091232,61.8428526 C0.0566091232,49.4793292 2.47124968,38.5644537 7.39738012,29.1955301 C12.3235106,19.8261518 18.6016669,12.6783975 26.4257753,7.65564504 C34.2494289,2.63311994 42.4595706,0.12185739 50.9595782,0.12185739 C59.3627365,0.12185739 65.9309862,2.63311994 70.5672506,7.55925039 C75.2037424,12.4853808 77.521761,18.9567812 77.521761,26.6840402 C77.521761,33.1554406 76.0728857,38.5644537 73.2717572,43.0077015 C70.4706286,47.4507219 66.7037348,49.6725732 62.163865,49.6725732 C59.2663418,49.6725732 56.9480959,48.9962192 55.2093546,47.6439659 C53.4708407,46.29194 52.6014701,44.3601821 52.6014701,41.9453142 C52.6014701,40.8826996 52.7947141,39.6270683 53.0845801,38.274815 C53.3742187,36.9225617 53.6640847,35.8601745 53.7607067,35.2804425 C54.5334554,32.9624239 54.919716,30.837422 54.919716,28.8088148 C54.919716,26.7804348 54.4368334,25.3315596 53.4708407,24.1727776 C52.5048481,23.110163 51.0559728,22.5306584 49.2208369,22.5306584 C45.7435817,22.5306584 42.3629486,24.0761556 39.3688034,27.2635448 C36.2778088,30.354312 33.8629409,34.6045432 32.027805,40.0135563 C30.1926691,45.4225694 29.2266765,51.2180704 29.2266765,57.6894708 C29.2266765,75.4620073 36.9539355,84.3482756 52.4084534,84.3482756 C58.6866098,84.3482756 67.4764834,79.5187672 74.7206324,75.2689907 C81.9650088,71.0187595 97.2262828,57.8824875 98.8681747,56.3372175 C100.896555,54.3086103 104.953542,50.4450945 108.623814,54.1155936 C113.646566,59.1383461 91.6240257,87.8255308 76.5557684,98.1606743 C67.3798614,104.439058 56.8514739,108.109557 47.482323,108.109557 C32.7039317,108.206179 21.0165348,103.955948 12.6131492,95.4561678 Z" id="path-23"></path>
        <path d="M12.6131492,95.4561678 C4.30661293,86.9561602 0.0566091232,75.7518733 0.0566091232,61.8428526 C0.0566091232,49.4793292 2.47124968,38.5644537 7.39738012,29.1955301 C12.3235106,19.8261518 18.6016669,12.6783975 26.4257753,7.65564504 C34.2494289,2.63311994 42.4595706,0.12185739 50.9595782,0.12185739 C59.3627365,0.12185739 65.9309862,2.63311994 70.5672506,7.55925039 C75.2037424,12.4853808 77.521761,18.9567812 77.521761,26.6840402 C77.521761,33.1554406 76.0728857,38.5644537 73.2717572,43.0077015 C70.4706286,47.4507219 66.7037348,49.6725732 62.163865,49.6725732 C59.2663418,49.6725732 56.9480959,48.9962192 55.2093546,47.6439659 C53.4708407,46.29194 52.6014701,44.3601821 52.6014701,41.9453142 C52.6014701,40.8826996 52.7947141,39.6270683 53.0845801,38.274815 C53.3742187,36.9225617 53.6640847,35.8601745 53.7607067,35.2804425 C54.5334554,32.9624239 54.919716,30.837422 54.919716,28.8088148 C54.919716,26.7804348 54.4368334,25.3315596 53.4708407,24.1727776 C52.5048481,23.110163 51.0559728,22.5306584 49.2208369,22.5306584 C45.7435817,22.5306584 42.3629486,24.0761556 39.3688034,27.2635448 C36.2778088,30.354312 33.8629409,34.6045432 32.027805,40.0135563 C30.1926691,45.4225694 29.2266765,51.2180704 29.2266765,57.6894708 C29.2266765,75.4620073 36.9539355,84.3482756 52.4084534,84.3482756 C58.6866098,84.3482756 67.4764834,79.5187672 74.7206324,75.2689907 C81.9650088,71.0187595 97.2262828,57.8824875 98.8681747,56.3372175 C100.896555,54.3086103 104.953542,50.4450945 108.623814,54.1155936 C113.646566,59.1383461 91.6240257,87.8255308 76.5557684,98.1606743 C67.3798614,104.439058 56.8514739,108.109557 47.482323,108.109557 C32.7039317,108.206179 21.0165348,103.955948 12.6131492,95.4561678 Z" id="path-25"></path>
        <path d="M31.4489006,103.797359 C30.4432922,103.510631 29.4519772,103.188107 28.475071,102.829904 C16.9809182,98.4832781 8.86739856,90.1765145 4.23090676,77.812991 C0.0777522897,66.8019482 -0.984862336,56.1769387 1.04351757,45.9384172 C3.07189748,35.6998956 7.32190129,26.8134 13.793529,19.279385 C20.2649294,11.7455974 27.9921884,6.33635692 36.9750786,2.95572374 C45.7647249,-0.328287445 53.3953619,-0.714775435 59.9636116,1.89333646 C62.0124797,2.70678462 63.8639656,3.72706158 65.5210092,4.95707965 C69.5432316,9.74133677 71.5541591,15.8492788 71.5541591,23.0465062 C71.5541591,29.5181339 70.1055111,34.9269196 67.3041553,39.3703948 C66.4338203,40.7508093 65.4702504,41.9168142 64.4192353,42.8683824 C61.7644209,43.7645102 59.3539395,43.9506359 57.2591051,43.4269273 C54.9408592,42.8474226 53.3953619,41.4951693 52.6226133,39.3701674 C52.2363526,38.4041748 52.0431086,37.2453929 51.8498646,35.8931396 C51.7532426,34.540659 51.6566206,33.5746664 51.560226,32.9951617 C51.560226,30.6771432 51.27036,28.5519139 50.5942334,26.8134 C50.1754045,25.7364718 49.6083588,24.8819126 48.915955,24.2496682 C48.7871242,22.6912522 48.3162043,21.5106059 47.5034662,20.5352436 C46.5374735,19.472629 45.0885983,18.8931244 43.2534624,18.8931244 C39.7759798,18.8931244 36.395574,20.4386216 33.4012015,23.6262382 C30.3102069,26.716778 27.8955664,30.9670092 26.0604305,36.3757949 C24.2250672,41.7850353 23.2593019,47.5803091 23.2593019,54.0517094 C23.2593019,71.8244733 30.9865609,80.7107416 46.4408515,80.7107416 C48.2401714,80.7107416 50.2457691,80.3140765 52.3621378,79.6480726 C56.4912516,79.9666936 61.1500023,79.1596805 66.33839,77.2334864 C72.9066397,74.8188459 80.4406547,66.9949649 86.6224164,60.4269425 C88.3750206,58.5647643 90.5623964,55.8097619 92.8235571,52.7716449 C92.8519546,52.7454064 92.8777223,52.7214003 92.9008001,52.6996835 C94.92918,50.6713036 98.9859399,46.8075604 102.656439,50.4780596 C107.678964,55.5005847 85.6564238,84.1879968 70.5883938,94.5231403 C61.4124869,100.801524 50.8840993,104.472023 41.5147211,104.472023 C37.9819521,104.495067 34.6257965,104.269742 31.4489006,103.797359 Z" id="path-27"></path>
        <path d="M86.7990225,38.7559586 C82.5760724,47.425236 69.0382784,63.3630239 61.341555,70.4001514 C55.2561879,76.0021811 47.7221729,79.865697 40.8642845,80.8319169 C29.6599977,82.5704309 20.5804855,80.6386729 13.5293531,75.1330379 C6.47822075,69.7240248 2.22821693,61.8035218 0.682947012,51.4683782 C-0.572911608,42.2924713 0.103215028,33.9857077 2.71109957,26.5480874 C5.41560612,19.1106944 9.37597128,13.1219493 14.5917404,8.58253418 C19.8077368,4.04266437 25.6996325,1.24153583 31.9780163,0.3721652 C38.2564,-0.497205431 45.500549,0.0825265531 49.4609142,3.26991574 C53.421052,6.45753227 56.6084412,11.5766794 57.3811898,17.3721804 C58.010879,21.7800048 58.4731544,26.3554401 57.2072081,29.8500603 C54.6845533,32.6070104 51.5880481,33.9857077 48.0120389,33.9857077 C45.1142883,33.9857077 42.7960424,33.3093537 41.0575285,31.9571004 C39.3190146,30.6050745 38.449644,28.6733166 38.449644,26.2582214 C38.449644,25.1958341 38.6426606,23.9402028 38.932754,22.5879495 C39.2223926,21.2356963 39.5120313,20.173309 39.6086533,19.593577 C40.3811746,17.2755584 40.7678899,15.1505565 40.7678899,13.1219493 C40.7678899,11.0937967 40.2847799,9.64492146 39.3190146,8.48591218 C38.353022,7.42329755 36.9041467,6.84379291 35.0690108,6.84379291 C31.5915283,6.84379291 28.2111224,8.38929018 25.2167499,11.5769067 C22.1257554,14.6674466 19.7111148,18.9176777 17.8759789,24.3264635 C16.0406156,29.7357039 15.0748504,35.5309776 15.0748504,42.002378 C15.0748504,59.7751419 22.8021094,68.6614101 38.2564,68.6614101 C44.5347837,68.6614101 53.3246573,63.8319017 60.568579,59.5821252 C67.8131827,55.3318941 83.0742293,42.195622 84.7163486,40.6503521 C85.2739907,40.09271 85.9849397,39.3963493 86.7990225,38.7559586 L86.7990225,38.7559586 Z" id="path-29"></path>
        <path d="M86.7990225,38.7559586 C82.5760724,47.425236 69.0382784,63.3630239 61.341555,70.4001514 C55.2561879,76.0021811 47.7221729,79.865697 40.8642845,80.8319169 C29.6599977,82.5704309 20.5804855,80.6386729 13.5293531,75.1330379 C6.47822075,69.7240248 2.22821693,61.8035218 0.682947012,51.4683782 C-0.572911608,42.2924713 0.103215028,33.9857077 2.71109957,26.5480874 C5.41560612,19.1106944 9.37597128,13.1219493 14.5917404,8.58253418 C19.8077368,4.04266437 25.6996325,1.24153583 31.9780163,0.3721652 C38.2564,-0.497205431 45.500549,0.0825265531 49.4609142,3.26991574 C53.421052,6.45753227 56.6084412,11.5766794 57.3811898,17.3721804 C58.010879,21.7800048 58.4731544,26.3554401 57.2072081,29.8500603 C54.6845533,32.6070104 51.5880481,33.9857077 48.0120389,33.9857077 C45.1142883,33.9857077 42.7960424,33.3093537 41.0575285,31.9571004 C39.3190146,30.6050745 38.449644,28.6733166 38.449644,26.2582214 C38.449644,25.1958341 38.6426606,23.9402028 38.932754,22.5879495 C39.2223926,21.2356963 39.5120313,20.173309 39.6086533,19.593577 C40.3811746,17.2755584 40.7678899,15.1505565 40.7678899,13.1219493 C40.7678899,11.0937967 40.2847799,9.64492146 39.3190146,8.48591218 C38.353022,7.42329755 36.9041467,6.84379291 35.0690108,6.84379291 C31.5915283,6.84379291 28.2111224,8.38929018 25.2167499,11.5769067 C22.1257554,14.6674466 19.7111148,18.9176777 17.8759789,24.3264635 C16.0406156,29.7357039 15.0748504,35.5309776 15.0748504,42.002378 C15.0748504,59.7751419 22.8021094,68.6614101 38.2564,68.6614101 C44.5347837,68.6614101 53.3246573,63.8319017 60.568579,59.5821252 C67.8131827,55.3318941 83.0742293,42.195622 84.7163486,40.6503521 C85.2739907,40.09271 85.9849397,39.3963493 86.7990225,38.7559586 L86.7990225,38.7559586 Z" id="path-31"></path>
        <path d="M86.7990225,38.7559586 C82.5760724,47.425236 69.0382784,63.3630239 61.341555,70.4001514 C55.2561879,76.0021811 47.7221729,79.865697 40.8642845,80.8319169 C29.6599977,82.5704309 20.5804855,80.6386729 13.5293531,75.1330379 C6.47822075,69.7240248 2.22821693,61.8035218 0.682947012,51.4683782 C-0.572911608,42.2924713 0.103215028,33.9857077 2.71109957,26.5480874 C5.41560612,19.1106944 9.37597128,13.1219493 14.5917404,8.58253418 C19.8077368,4.04266437 25.6996325,1.24153583 31.9780163,0.3721652 C38.2564,-0.497205431 45.500549,0.0825265531 49.4609142,3.26991574 C53.421052,6.45753227 56.6084412,11.5766794 57.3811898,17.3721804 C58.010879,21.7800048 58.4731544,26.3554401 57.2072081,29.8500603 C54.6845533,32.6070104 51.5880481,33.9857077 48.0120389,33.9857077 C45.1142883,33.9857077 42.7960424,33.3093537 41.0575285,31.9571004 C39.3190146,30.6050745 38.449644,28.6733166 38.449644,26.2582214 C38.449644,25.1958341 38.6426606,23.9402028 38.932754,22.5879495 C39.2223926,21.2356963 39.5120313,20.173309 39.6086533,19.593577 C40.3811746,17.2755584 40.7678899,15.1505565 40.7678899,13.1219493 C40.7678899,11.0937967 40.2847799,9.64492146 39.3190146,8.48591218 C38.353022,7.42329755 36.9041467,6.84379291 35.0690108,6.84379291 C31.5915283,6.84379291 28.2111224,8.38929018 25.2167499,11.5769067 C22.1257554,14.6674466 19.7111148,18.9176777 17.8759789,24.3264635 C16.0406156,29.7357039 15.0748504,35.5309776 15.0748504,42.002378 C15.0748504,59.7751419 22.8021094,68.6614101 38.2564,68.6614101 C44.5347837,68.6614101 53.3246573,63.8319017 60.568579,59.5821252 C67.8131827,55.3318941 83.0742293,42.195622 84.7163486,40.6503521 C85.2739907,40.09271 85.9849397,39.3963493 86.7990225,38.7559586 L86.7990225,38.7559586 Z" id="path-33"></path>
    </defs>
    <g id="Page-1" stroke="none" stroke-width="1" fill="none" fill-rule="evenodd">
        <g id="Group-4">
            <g id="Group-84">
                <mask id="mask-2" fill="white">
                    <use xlink:href="#path-1"></use>
                </mask>
                <use id="Mask" fill="#F8E5CA" xlink:href="#path-1"></use>
                <g mask="url(#mask-2)">
                    <g transform="translate(325.000000, 160.000000)">
                        <path d="M2.3022,29.2038 C2.3022,28.5678 1.7872,28.0528 1.1512,28.0528 C0.5152,28.0528 0.0002,28.5678 0.0002,29.2038 C0.0002,29.8398 0.5152,30.3538 1.1512,30.3538 C1.7872,30.3538 2.3022,29.8398 2.3022,29.2038" id="Fill-1" fill="#EBD8BE"></path>
                        <path d="M15.2529,29.2038 C15.2529,28.5678 14.7379,28.0528 14.1019,28.0528 C13.4659,28.0528 12.9509,28.5678 12.9509,29.2038 C12.9509,29.8398 13.4659,30.3538 14.1019,30.3538 C14.7379,30.3538 15.2529,29.8398 15.2529,29.2038" id="Fill-3" fill="#EBD8BE"></path>
                        <path d="M28.2036,29.2038 C28.2036,28.5678 27.6886,28.0528 27.0526,28.0528 C26.4166,28.0528 25.9016,28.5678 25.9016,29.2038 C25.9016,29.8398 26.4166,30.3538 27.0526,30.3538 C27.6886,30.3538 28.2036,29.8398 28.2036,29.2038" id="Fill-5" fill="#EBD8BE"></path>
                        <path d="M41.1543,29.2038 C41.1543,28.5678 40.6393,28.0528 40.0033,28.0528 C39.3673,28.0528 38.8523,28.5678 38.8523,29.2038 C38.8523,29.8398 39.3673,30.3538 40.0033,30.3538 C40.6393,30.3538 41.1543,29.8398 41.1543,29.2038" id="Fill-7" fill="#EBD8BE"></path>
                        <path d="M2.3022,42.7302 C2.3022,42.0942 1.7872,41.5792 1.1512,41.5792 C0.5152,41.5792 0.0002,42.0942 0.0002,42.7302 C0.0002,43.3662 0.5152,43.8802 1.1512,43.8802 C1.7872,43.8802 2.3022,43.3662 2.3022,42.7302" id="Fill-14" fill="#EBD8BE"></path>
                        <path d="M15.2529,42.7302 C15.2529,42.0942 14.7379,41.5792 14.1019,41.5792 C13.4659,41.5792 12.9509,42.0942 12.9509,42.7302 C12.9509,43.3662 13.4659,43.8802 14.1019,43.8802 C14.7379,43.8802 15.2529,43.3662 15.2529,42.7302" id="Fill-16" fill="#EBD8BE"></path>
                        <path d="M28.2036,42.7302 C28.2036,42.0942 27.6886,41.5792 27.0526,41.5792 C26.4166,41.5792 25.9016,42.0942 25.9016,42.7302 C25.9016,43.3662 26.4166,43.8802 27.0526,43.8802 C27.6886,43.8802 28.2036,43.3662 28.2036,42.7302" id="Fill-18" fill="#EBD8BE"></path>
                        <path d="M41.1543,42.7302 C41.1543,42.0942 40.6393,41.5792 40.0033,41.5792 C39.3673,41.5792 38.8523,42.0942 38.8523,42.7302 C38.8523,43.3662 39.3673,43.8802 40.0033,43.8802 C40.6393,43.8802 41.1543,43.3662 41.1543,42.7302" id="Fill-20" fill="#EBD8BE"></path>
                        <g id="Group-29" stroke-width="1" fill="none" transform="translate(0.000000, 0.933400)">
                            <mask id="mask-4" fill="white">
                                <use xlink:href="#path-3"></use>
                            </mask>
                            <g id="Clip-28"></g>
                            <path d="M2.3022,1.2177 C2.3022,0.5817 1.7872,0.0667 1.1512,0.0667 C0.5152,0.0667 0.0002,0.5817 0.0002,1.2177 C0.0002,1.8537 0.5152,2.3687 1.1512,2.3687 C1.7872,2.3687 2.3022,1.8537 2.3022,1.2177" id="Fill-27" fill="#EBD8BE" mask="url(#mask-4)"></path>
                        </g>
                        <g id="Group-32" stroke-width="1" fill="none" transform="translate(12.000000, 0.933400)">
                            <mask id="mask-6" fill="white">
                                <use xlink:href="#path-5"></use>
                            </mask>
                            <g id="Clip-31"></g>
                            <path d="M3.2529,1.2177 C3.2529,0.5817 2.7379,0.0667 2.1019,0.0667 C1.4659,0.0667 0.9509,0.5817 0.9509,1.2177 C0.9509,1.8537 1.4659,2.3687 2.1019,2.3687 C2.7379,2.3687 3.2529,1.8537 3.2529,1.2177" id="Fill-30" fill="#EBD8BE" mask="url(#mask-6)"></path>
                        </g>
                        <g id="Group-35" stroke-width="1" fill="none" transform="translate(25.000000, 0.933400)">
                            <mask id="mask-8" fill="white">
                                <use xlink:href="#path-7"></use>
                            </mask>
                            <g id="Clip-34"></g>
                            <path d="M3.2036,1.2177 C3.2036,0.5817 2.6886,0.0667 2.0526,0.0667 C1.4166,0.0667 0.9016,0.5817 0.9016,1.2177 C0.9016,1.8537 1.4166,2.3687 2.0526,2.3687 C2.6886,2.3687 3.2036,1.8537 3.2036,1.2177" id="Fill-33" fill="#EBD8BE" mask="url(#mask-8)"></path>
                        </g>
                        <g id="Group-38" stroke-width="1" fill="none" transform="translate(38.000000, 0.933400)">
                            <mask id="mask-10" fill="white">
                                <use xlink:href="#path-9"></use>
                            </mask>
                            <g id="Clip-37"></g>
                            <path d="M3.1543,1.2177 C3.1543,0.5817 2.6393,0.0667 2.0033,0.0667 C1.3673,0.0667 0.8523,0.5817 0.8523,1.2177 C0.8523,1.8537 1.3673,2.3687 2.0033,2.3687 C2.6393,2.3687 3.1543,1.8537 3.1543,1.2177" id="Fill-36" fill="#EBD8BE" mask="url(#mask-10)"></path>
                        </g>
                        <path d="M2.3022,15.6775 C2.3022,15.0415 1.7872,14.5265 1.1512,14.5265 C0.5152,14.5265 0.0002,15.0415 0.0002,15.6775 C0.0002,16.3135 0.5152,16.8285 1.1512,16.8285 C1.7872,16.8285 2.3022,16.3135 2.3022,15.6775" id="Fill-45" fill="#EBD8BE"></path>
                        <path d="M15.2529,15.6775 C15.2529,15.0415 14.7379,14.5265 14.1019,14.5265 C13.4659,14.5265 12.9509,15.0415 12.9509,15.6775 C12.9509,16.3135 13.4659,16.8285 14.1019,16.8285 C14.7379,16.8285 15.2529,16.3135 15.2529,15.6775" id="Fill-47" fill="#EBD8BE"></path>
                        <path d="M28.2036,15.6775 C28.2036,15.0415 27.6886,14.5265 27.0526,14.5265 C26.4166,14.5265 25.9016,15.0415 25.9016,15.6775 C25.9016,16.3135 26.4166,16.8285 27.0526,16.8285 C27.6886,16.8285 28.2036,16.3135 28.2036,15.6775" id="Fill-49" fill="#EBD8BE"></path>
                        <path d="M41.1543,15.6775 C41.1543,15.0415 40.6393,14.5265 40.0033,14.5265 C39.3673,14.5265 38.8523,15.0415 38.8523,15.6775 C38.8523,16.3135 39.3673,16.8285 40.0033,16.8285 C40.6393,16.8285 41.1543,16.3135 41.1543,15.6775" id="Fill-51" fill="#EBD8BE"></path>
                    </g>
                </g>
                <g id="Group-84-Copy" mask="url(#mask-2)">
                    <g transform="translate(4.000000, -10.000000)">
                        <path d="M2.3022,29.2038 C2.3022,28.5678 1.7872,28.0528 1.1512,28.0528 C0.5152,28.0528 0.0002,28.5678 0.0002,29.2038 C0.0002,29.8398 0.5152,30.3538 1.1512,30.3538 C1.7872,30.3538 2.3022,29.8398 2.3022,29.2038" id="Fill-1" fill="#EBD8BE"></path>
                        <path d="M15.2529,29.2038 C15.2529,28.5678 14.7379,28.0528 14.1019,28.0528 C13.4659,28.0528 12.9509,28.5678 12.9509,29.2038 C12.9509,29.8398 13.4659,30.3538 14.1019,30.3538 C14.7379,30.3538 15.2529,29.8398 15.2529,29.2038" id="Fill-3" fill="#EBD8BE"></path>
                        <path d="M28.2036,29.2038 C28.2036,28.5678 27.6886,28.0528 27.0526,28.0528 C26.4166,28.0528 25.9016,28.5678 25.9016,29.2038 C25.9016,29.8398 26.4166,30.3538 27.0526,30.3538 C27.6886,30.3538 28.2036,29.8398 28.2036,29.2038" id="Fill-5" fill="#EBD8BE"></path>
                        <path d="M41.1543,29.2038 C41.1543,28.5678 40.6393,28.0528 40.0033,28.0528 C39.3673,28.0528 38.8523,28.5678 38.8523,29.2038 C38.8523,29.8398 39.3673,30.3538 40.0033,30.3538 C40.6393,30.3538 41.1543,29.8398 41.1543,29.2038" id="Fill-7" fill="#EBD8BE"></path>
                        <path d="M54.1049,29.2038 C54.1049,28.5678 53.5889,28.0528 52.9539,28.0528 C52.3179,28.0528 51.8029,28.5678 51.8029,29.2038 C51.8029,29.8398 52.3179,30.3538 52.9539,30.3538 C53.5889,30.3538 54.1049,29.8398 54.1049,29.2038" id="Fill-9" fill="#EBD8BE"></path>
                        <g id="Group-13" stroke-width="1" fill="none" transform="translate(64.000000, 27.933400)">
                            <mask id="mask-12" fill="white">
                                <use xlink:href="#path-11"></use>
                            </mask>
                            <g id="Clip-12"></g>
                            <path d="M3.0556,1.2704 C3.0556,0.6344 2.5396,0.1194 1.9046,0.1194 C1.2686,0.1194 0.7536,0.6344 0.7536,1.2704 C0.7536,1.9064 1.2686,2.4204 1.9046,2.4204 C2.5396,2.4204 3.0556,1.9064 3.0556,1.2704" id="Fill-11" fill="#EBD8BE" mask="url(#mask-12)"></path>
                        </g>
                        <path d="M2.3022,42.7302 C2.3022,42.0942 1.7872,41.5792 1.1512,41.5792 C0.5152,41.5792 0.0002,42.0942 0.0002,42.7302 C0.0002,43.3662 0.5152,43.8802 1.1512,43.8802 C1.7872,43.8802 2.3022,43.3662 2.3022,42.7302" id="Fill-14" fill="#EBD8BE"></path>
                        <path d="M15.2529,42.7302 C15.2529,42.0942 14.7379,41.5792 14.1019,41.5792 C13.4659,41.5792 12.9509,42.0942 12.9509,42.7302 C12.9509,43.3662 13.4659,43.8802 14.1019,43.8802 C14.7379,43.8802 15.2529,43.3662 15.2529,42.7302" id="Fill-16" fill="#EBD8BE"></path>
                        <path d="M28.2036,42.7302 C28.2036,42.0942 27.6886,41.5792 27.0526,41.5792 C26.4166,41.5792 25.9016,42.0942 25.9016,42.7302 C25.9016,43.3662 26.4166,43.8802 27.0526,43.8802 C27.6886,43.8802 28.2036,43.3662 28.2036,42.7302" id="Fill-18" fill="#EBD8BE"></path>
                        <path d="M41.1543,42.7302 C41.1543,42.0942 40.6393,41.5792 40.0033,41.5792 C39.3673,41.5792 38.8523,42.0942 38.8523,42.7302 C38.8523,43.3662 39.3673,43.8802 40.0033,43.8802 C40.6393,43.8802 41.1543,43.3662 41.1543,42.7302" id="Fill-20" fill="#EBD8BE"></path>
                        <path d="M54.1049,42.7302 C54.1049,42.0942 53.5889,41.5792 52.9539,41.5792 C52.3179,41.5792 51.8029,42.0942 51.8029,42.7302 C51.8029,43.3662 52.3179,43.8802 52.9539,43.8802 C53.5889,43.8802 54.1049,43.3662 54.1049,42.7302" id="Fill-22" fill="#EBD8BE"></path>
                        <g id="Group-26" stroke-width="1" fill="none" transform="translate(64.000000, 40.933400)">
                            <mask id="mask-14" fill="white">
                                <use xlink:href="#path-13"></use>
                            </mask>
                            <g id="Clip-25"></g>
                            <path d="M3.0556,1.7968 C3.0556,1.1608 2.5396,0.6458 1.9046,0.6458 C1.2686,0.6458 0.7536,1.1608 0.7536,1.7968 C0.7536,2.4328 1.2686,2.9468 1.9046,2.9468 C2.5396,2.9468 3.0556,2.4328 3.0556,1.7968" id="Fill-24" fill="#EBD8BE" mask="url(#mask-14)"></path>
                        </g>
                        <path d="M2.3022,15.6775 C2.3022,15.0415 1.7872,14.5265 1.1512,14.5265 C0.5152,14.5265 0.0002,15.0415 0.0002,15.6775 C0.0002,16.3135 0.5152,16.8285 1.1512,16.8285 C1.7872,16.8285 2.3022,16.3135 2.3022,15.6775" id="Fill-45" fill="#EBD8BE"></path>
                        <path d="M15.2529,15.6775 C15.2529,15.0415 14.7379,14.5265 14.1019,14.5265 C13.4659,14.5265 12.9509,15.0415 12.9509,15.6775 C12.9509,16.3135 13.4659,16.8285 14.1019,16.8285 C14.7379,16.8285 15.2529,16.3135 15.2529,15.6775" id="Fill-47" fill="#EBD8BE"></path>
                        <path d="M28.2036,15.6775 C28.2036,15.0415 27.6886,14.5265 27.0526,14.5265 C26.4166,14.5265 25.9016,15.0415 25.9016,15.6775 C25.9016,16.3135 26.4166,16.8285 27.0526,16.8285 C27.6886,16.8285 28.2036,16.3135 28.2036,15.6775" id="Fill-49" fill="#EBD8BE"></path>
                        <path d="M41.1543,15.6775 C41.1543,15.0415 40.6393,14.5265 40.0033,14.5265 C39.3673,14.5265 38.8523,15.0415 38.8523,15.6775 C38.8523,16.3135 39.3673,16.8285 40.0033,16.8285 C40.6393,16.8285 41.1543,16.3135 41.1543,15.6775" id="Fill-51" fill="#EBD8BE"></path>
                        <path d="M54.1049,15.6775 C54.1049,15.0415 53.5889,14.5265 52.9539,14.5265 C52.3179,14.5265 51.8029,15.0415 51.8029,15.6775 C51.8029,16.3135 52.3179,16.8285 52.9539,16.8285 C53.5889,16.8285 54.1049,16.3135 54.1049,15.6775" id="Fill-53" fill="#EBD8BE"></path>
                        <g id="Group-57" stroke-width="1" fill="none" transform="translate(64.000000, 13.933400)">
                            <mask id="mask-16" fill="white">
                                <use xlink:href="#path-15"></use>
                            </mask>
                            <g id="Clip-56"></g>
                            <path d="M3.0556,1.7441 C3.0556,1.1081 2.5396,0.5931 1.9046,0.5931 C1.2686,0.5931 0.7536,1.1081 0.7536,1.7441 C0.7536,2.3801 1.2686,2.8951 1.9046,2.8951 C2.5396,2.8951 3.0556,2.3801 3.0556,1.7441" id="Fill-55" fill="#EBD8BE" mask="url(#mask-16)"></path>
                        </g>
                        <path d="M2.3022,56.2556 C2.3022,55.6196 1.7872,55.1056 1.1512,55.1056 C0.5152,55.1056 0.0002,55.6196 0.0002,56.2556 C0.0002,56.8916 0.5152,57.4066 1.1512,57.4066 C1.7872,57.4066 2.3022,56.8916 2.3022,56.2556" id="Fill-58" fill="#EBD8BE"></path>
                        <path d="M15.2529,56.2556 C15.2529,55.6196 14.7379,55.1056 14.1019,55.1056 C13.4659,55.1056 12.9509,55.6196 12.9509,56.2556 C12.9509,56.8916 13.4659,57.4066 14.1019,57.4066 C14.7379,57.4066 15.2529,56.8916 15.2529,56.2556" id="Fill-60" fill="#EBD8BE"></path>
                        <path d="M28.2036,56.2556 C28.2036,55.6196 27.6886,55.1056 27.0526,55.1056 C26.4166,55.1056 25.9016,55.6196 25.9016,56.2556 C25.9016,56.8916 26.4166,57.4066 27.0526,57.4066 C27.6886,57.4066 28.2036,56.8916 28.2036,56.2556" id="Fill-62" fill="#EBD8BE"></path>
                        <path d="M41.1543,56.2556 C41.1543,55.6196 40.6393,55.1056 40.0033,55.1056 C39.3673,55.1056 38.8523,55.6196 38.8523,56.2556 C38.8523,56.8916 39.3673,57.4066 40.0033,57.4066 C40.6393,57.4066 41.1543,56.8916 41.1543,56.2556" id="Fill-64" fill="#EBD8BE"></path>
                        <path d="M54.1049,56.2556 C54.1049,55.6196 53.5889,55.1056 52.9539,55.1056 C52.3179,55.1056 51.8029,55.6196 51.8029,56.2556 C51.8029,56.8916 52.3179,57.4066 52.9539,57.4066 C53.5889,57.4066 54.1049,56.8916 54.1049,56.2556" id="Fill-66" fill="#EBD8BE"></path>
                        <g id="Group-70" stroke-width="1" fill="none" transform="translate(64.000000, 54.933400)">
                            <mask id="mask-18" fill="white">
                                <use xlink:href="#path-17"></use>
                            </mask>
                            <g id="Clip-69"></g>
                            <path d="M3.0556,1.3222 C3.0556,0.6862 2.5396,0.1722 1.9046,0.1722 C1.2686,0.1722 0.7536,0.6862 0.7536,1.3222 C0.7536,1.9582 1.2686,2.4732 1.9046,2.4732 C2.5396,2.4732 3.0556,1.9582 3.0556,1.3222" id="Fill-68" fill="#EBD8BE" mask="url(#mask-18)"></path>
                        </g>
                        <path d="M2.3022,69.782 C2.3022,69.146 1.7872,68.632 1.1512,68.632 C0.5152,68.632 0.0002,69.146 0.0002,69.782 C0.0002,70.418 0.5152,70.933 1.1512,70.933 C1.7872,70.933 2.3022,70.418 2.3022,69.782" id="Fill-71" fill="#EBD8BE"></path>
                        <path d="M15.2529,69.782 C15.2529,69.146 14.7379,68.632 14.1019,68.632 C13.4659,68.632 12.9509,69.146 12.9509,69.782 C12.9509,70.418 13.4659,70.933 14.1019,70.933 C14.7379,70.933 15.2529,70.418 15.2529,69.782" id="Fill-73" fill="#EBD8BE"></path>
                        <path d="M28.2036,69.782 C28.2036,69.146 27.6886,68.632 27.0526,68.632 C26.4166,68.632 25.9016,69.146 25.9016,69.782 C25.9016,70.418 26.4166,70.933 27.0526,70.933 C27.6886,70.933 28.2036,70.418 28.2036,69.782" id="Fill-75" fill="#EBD8BE"></path>
                        <path d="M41.1543,69.782 C41.1543,69.146 40.6393,68.632 40.0033,68.632 C39.3673,68.632 38.8523,69.146 38.8523,69.782 C38.8523,70.418 39.3673,70.933 40.0033,70.933 C40.6393,70.933 41.1543,70.418 41.1543,69.782" id="Fill-77" fill="#EBD8BE"></path>
                        <path d="M54.1049,69.782 C54.1049,69.146 53.5889,68.632 52.9539,68.632 C52.3179,68.632 51.8029,69.146 51.8029,69.782 C51.8029,70.418 52.3179,70.933 52.9539,70.933 C53.5889,70.933 54.1049,70.418 54.1049,69.782" id="Fill-79" fill="#EBD8BE"></path>
                        <g id="Group-83" stroke-width="1" fill="none" transform="translate(64.000000, 67.933400)">
                            <mask id="mask-20" fill="white">
                                <use xlink:href="#path-19"></use>
                            </mask>
                            <g id="Clip-82"></g>
                            <path d="M3.0556,1.8486 C3.0556,1.2126 2.5396,0.6986 1.9046,0.6986 C1.2686,0.6986 0.7536,1.2126 0.7536,1.8486 C0.7536,2.4846 1.2686,2.9996 1.9046,2.9996 C2.5396,2.9996 3.0556,2.4846 3.0556,1.8486" id="Fill-81" fill="#EBD8BE" mask="url(#mask-20)"></path>
                        </g>
                    </g>
                </g>
            </g>
            <g id="Logo" transform="translate(130.000000, 50.000000)">
                <g id="Group-10" opacity="0.7" transform="translate(0.000000, 0.105716)">
                    <g id="Group-3">
                        <mask id="mask-22" fill="white">
                            <use xlink:href="#path-21"></use>
                        </mask>
                        <g id="Clip-2"></g>
                        <polygon id="Fill-1" fill="#FFFFFF" mask="url(#mask-22)" points="113.646566 61.7645092 73.6152768 0.121720982 113.646566 0.121720982"></polygon>
                    </g>
                    <g id="Group-6">
                        <mask id="mask-24" fill="white">
                            <use xlink:href="#path-23"></use>
                        </mask>
                        <g id="Clip-5"></g>
                        <polygon id="Fill-4" fill="#FFFFFF" mask="url(#mask-24)" points="113.646566 74.9352469 62.4139455 108.206179 19.8936736 108.206179 0.0566091232 77.6593052 0.0566091232 24.1798254 37.1026197 0.12185739 73.6152768 0.12185739 113.646566 61.7644183"></polygon>
                    </g>
                    <g id="Group-9">
                        <mask id="mask-26" fill="white">
                            <use xlink:href="#path-25"></use>
                        </mask>
                        <g id="Clip-8"></g>
                        <polygon id="Fill-7" fill="#FFFFFF" mask="url(#mask-26)" points="0.0565409194 77.6593962 19.8936054 108.206043 0.0565409194 108.206043"></polygon>
                    </g>
                </g>
                <g id="Group-14" opacity="0.800000012" transform="translate(5.001609, 3.743250)">
                    <mask id="mask-28" fill="white">
                        <use xlink:href="#path-27"></use>
                    </mask>
                    <g id="Clip-12"></g>
                    <polygon id="Fill-11" fill="#FFFFFF" mask="url(#mask-28)" points="-0.985089682 107.079908 0.0450144835 107.079908 0.0450144835 -0.714775435 -0.985089682 -0.714775435"></polygon>
                    <polygon id="Fill-13" fill="#FFFFFF" mask="url(#mask-28)" points="0.0450144835 107.079908 116.915345 107.079908 116.915345 -0.714775435 0.0450144835 -0.714775435"></polygon>
                </g>
                <g id="Group-24" transform="translate(13.186061, 15.792581)">
                    <g id="Group-17">
                        <mask id="mask-30" fill="white">
                            <use xlink:href="#path-29"></use>
                        </mask>
                        <g id="Clip-16"></g>
                        <polygon id="Fill-15" fill="#FFFFFF" mask="url(#mask-30)" points="91.7672991 38.0781381 57.0340781 -0.497228166 91.7672991 -0.497228166"></polygon>
                    </g>
                    <g id="Group-20">
                        <mask id="mask-32" fill="white">
                            <use xlink:href="#path-31"></use>
                        </mask>
                        <g id="Clip-19"></g>
                        <polygon id="Fill-18" fill="#FFFFFF" mask="url(#mask-32)" points="91.7672991 43.739346 48.6411504 82.5704763 19.356046 82.5704763 -0.572866139 60.4369912 -0.572866139 21.4680892 23.8220284 -0.497159962 57.0340781 -0.497159962 91.7672991 38.0782063"></polygon>
                    </g>
                    <g id="Group-23">
                        <mask id="mask-34" fill="white">
                            <use xlink:href="#path-33"></use>
                        </mask>
                        <g id="Clip-22"></g>
                        <polygon id="Fill-21" fill="#FFFFFF" mask="url(#mask-34)" points="-0.572866139 60.4370594 19.356046 82.5703172 -0.572866139 82.5703172"></polygon>
                    </g>
                </g>
            </g>
        </g>
    </g>
</svg>