<svg xmlns="http://www.w3.org/2000/svg" width="14" height="14">
    <path fill-rule="evenodd" d="M12.766 2.69H1.234c-.196 0-.354-.158-.354-.353 0-.195.158-.353.354-.353h3.643v-.565-.054c.01-.546.462-.981 1.009-.971h2.228l.054.001c.547.02.974.478.955 1.024v.565h3.643c.196 0 .354.158.354.353 0 .195-.158.353-.354.353zM8.114 1.101H5.886c-.019-.002-.038-.001-.056.001-.156.02-.265.162-.245.317v.565h2.83v-.565c.002-.019.003-.038.002-.056-.011-.156-.147-.273-.303-.262zM2.525 3.967h8.95c.097-.009.193.023.265.088.061.06.094.144.089.229l-.761 7.982c-.083.909-.854 1.602-1.769 1.589H4.842c-.89.006-1.643-.655-1.751-1.536l-.92-7.999c-.016-.098.017-.197.089-.265.072-.065.168-.097.265-.088zm1.273 8.281c.056.528.513.922 1.044.9h4.457c.542.022 1.006-.38 1.062-.918l.725-7.557H2.914l.884 7.575z" opacity=".4"/>
</svg>
