<?xml version="1.0" encoding="UTF-8"?>
<svg width="8px" height="10px" viewBox="0 0 8 10" version="1.1" xmlns="http://www.w3.org/2000/svg" xmlns:xlink="http://www.w3.org/1999/xlink">
    <!-- Generator: Sketch 57.1 (83088) - https://sketch.com -->
    <title>google-docs</title>
    <desc>Created with Sketch.</desc>
    <g id="Page-1" stroke="none" stroke-width="1" fill="none" fill-rule="evenodd">
        <g id="google-docs" fill="#777777" fill-rule="nonzero">
            <path d="M7.53134766,2.42953125 L5.18765625,0.0858398437 C5.13294922,0.0311132812 5.05828125,0 4.98046875,0 L0.87890625,0 C0.394277344,0 0,0.394277344 0,0.87890625 L0,9.12109375 C0,9.60572266 0.394277344,10 0.87890625,10 L6.73828125,10 C7.22291016,10 7.6171875,9.60572266 7.6171875,9.12109375 L7.6171875,2.63671875 C7.6171875,2.55683594 7.58365234,2.48181641 7.53134766,2.42953125 Z M5.2734375,1.00025391 L6.61693359,2.34375 L5.56640625,2.34375 C5.40486328,2.34375 5.2734375,2.21232422 5.2734375,2.05078125 L5.2734375,1.00025391 Z M6.73828125,9.4140625 L0.87890625,9.4140625 C0.717363281,9.4140625 0.5859375,9.28263672 0.5859375,9.12109375 L0.5859375,0.87890625 C0.5859375,0.717363281 0.717363281,0.5859375 0.87890625,0.5859375 L4.6875,0.5859375 L4.6875,2.05078125 C4.6875,2.53541016 5.08177734,2.9296875 5.56640625,2.9296875 L7.03125,2.9296875 L7.03125,9.12109375 C7.03125,9.28263672 6.89982422,9.4140625 6.73828125,9.4140625 Z" id="Shape"></path>
            <path d="M5.56640625,4.140625 L2.05078125,4.140625 C1.88898438,4.140625 1.7578125,4.27179687 1.7578125,4.43359375 C1.7578125,4.59539062 1.88898438,4.7265625 2.05078125,4.7265625 L5.56640625,4.7265625 C5.72820313,4.7265625 5.859375,4.59539062 5.859375,4.43359375 C5.859375,4.27179687 5.72820313,4.140625 5.56640625,4.140625 Z" id="Path"></path>
            <path d="M5.56640625,5.3125 L2.05078125,5.3125 C1.88898438,5.3125 1.7578125,5.44367187 1.7578125,5.60546875 C1.7578125,5.76726562 1.88898438,5.8984375 2.05078125,5.8984375 L5.56640625,5.8984375 C5.72820313,5.8984375 5.859375,5.76726562 5.859375,5.60546875 C5.859375,5.44367187 5.72820313,5.3125 5.56640625,5.3125 Z" id="Path"></path>
            <path d="M5.56640625,6.484375 L2.05078125,6.484375 C1.88898438,6.484375 1.7578125,6.61554687 1.7578125,6.77734375 C1.7578125,6.93914062 1.88898438,7.0703125 2.05078125,7.0703125 L5.56640625,7.0703125 C5.72820313,7.0703125 5.859375,6.93914062 5.859375,6.77734375 C5.859375,6.61554687 5.72820313,6.484375 5.56640625,6.484375 Z" id="Path"></path>
            <path d="M4.39453125,7.65625 L2.05078125,7.65625 C1.88898438,7.65625 1.7578125,7.78742187 1.7578125,7.94921875 C1.7578125,8.11101563 1.88898438,8.2421875 2.05078125,8.2421875 L4.39453125,8.2421875 C4.55632813,8.2421875 4.6875,8.11101563 4.6875,7.94921875 C4.6875,7.78742187 4.55632813,7.65625 4.39453125,7.65625 Z" id="Path"></path>
        </g>
    </g>
</svg>