<svg xmlns="http://www.w3.org/2000/svg" width="15" height="14">
    <path fill-rule="evenodd" d="M.944 13.961h.094l4.537-.988c.088-.014.171-.055.235-.117l7.687-7.69c.561-.561.874-1.323.87-2.117 0-.799-.312-1.568-.87-2.14-.561-.562-1.323-.875-2.116-.87-.798-.007-1.564.316-2.116.894l-7.663 7.69c-.067.054-.117.128-.142.211l-.986 4.539c-.027.163.026.329.141.447.087.089.205.139.329.141zM11.381.98c1.129 0 2.045.916 2.045 2.046v.023c.007.538-.205 1.057-.587 1.435L9.947 1.567c.381-.378.897-.59 1.434-.587zM9.289 2.25l2.891 2.892-6.699 6.679-2.892-2.869 6.7-6.702zM2.213 9.893l2.327 2.328-2.985.658.658-2.986z" opacity=".4"/>
</svg>
