<svg width="21" height="19" viewBox="0 0 21 19" fill="none" xmlns="http://www.w3.org/2000/svg">
<g clip-path="url(#clip0_1104_140)">
<path d="M10.8444 6.22884C10.7484 6.21852 10.6524 6.21508 10.5564 6.21508C8.73903 6.21508 7.26457 7.66393 7.26457 9.51887C7.26457 11.3428 8.73903 12.8227 10.5564 12.8227C12.4046 12.8227 13.8482 11.3428 13.8482 9.51887C13.8482 9.42251 13.8448 9.32615 13.8345 9.22979C13.5156 9.38466 13.1453 9.51887 12.7509 9.51887C11.5405 9.51887 10.5564 8.53118 10.5564 7.31634C10.5564 6.92057 10.6901 6.5489 10.8444 6.22884ZM3.95216 4.58383C2.3474 6.07742 1.27412 7.836 0.766634 9.09557C0.653477 9.36745 0.653477 9.6703 0.766634 9.94217C1.27412 11.1708 2.3474 12.9294 3.95216 14.4539C5.56722 15.9613 7.78577 17.2277 10.5564 17.2277C13.327 17.2277 15.5456 15.9613 17.1599 14.4539C18.7647 12.9294 19.8373 11.1708 20.3475 9.94217C20.46 9.6703 20.46 9.36745 20.3475 9.09557C19.8373 7.836 18.7647 6.07742 17.1599 4.58383C15.5456 3.07785 13.327 1.81001 10.5564 1.81001C7.78577 1.81001 5.56722 3.07785 3.95216 4.58383ZM10.5564 4.56318C13.2824 4.56318 15.4941 6.78292 15.4941 9.51887C15.4941 12.2548 13.2824 14.4746 10.5564 14.4746C7.83035 14.4746 5.61865 12.2548 5.61865 9.51887C5.61865 6.78292 7.83035 4.56318 10.5564 4.56318Z" fill="#464646"/>
</g>
<defs>
<clipPath id="clip0_1104_140">
<path d="M20.4319 5.70874C20.4319 2.94732 18.1933 0.70874 15.4319 0.70874H5.68091C2.91949 0.70874 0.680912 2.94732 0.680912 5.70874V13.329C0.680912 16.0904 2.91949 18.329 5.68091 18.329H15.4319C18.1933 18.329 20.4319 16.0904 20.4319 13.329V5.70874Z" fill="white"/>
</clipPath>
</defs>
</svg>
