<svg xmlns="http://www.w3.org/2000/svg" xmlns:xlink="http://www.w3.org/1999/xlink" width="40" height="39.879" viewBox="0 0 40 39.879"><defs><style>.a{fill:none;}.b{fill:#fff;}.c{filter:url(#a);}</style><filter id="a" x="0" y="0" width="40" height="39.879" filterUnits="userSpaceOnUse"><feOffset input="SourceAlpha"/><feGaussianBlur stdDeviation="4" result="b"/><feFlood flood-opacity="0.161"/><feComposite operator="in" in2="b"/><feComposite in="SourceGraphic"/></filter></defs><g transform="translate(10 10)"><path class="a" d="M0,0H20V20H0Z"/><g class="c" transform="matrix(1, 0, 0, 1, -10, -10)"><path class="b" d="M10,2A7.988,7.988,0,0,0,8.75,17.879V12.3H6.718V9.988H8.75V8.228a2.82,2.82,0,0,1,3.022-3.107,12.332,12.332,0,0,1,1.79.156V7.242H12.554a1.155,1.155,0,0,0-1.3,1.248v1.5h2.218L13.114,12.3H11.25v5.583A7.988,7.988,0,0,0,10,2Z" transform="translate(10 10)"/></g></g></svg>