<?xml version="1.0" encoding="UTF-8"?>
<svg width="16px" height="16px" viewBox="0 0 16 16" version="1.1" xmlns="http://www.w3.org/2000/svg" xmlns:xlink="http://www.w3.org/1999/xlink">
    <!-- Generator: Sketch 57.1 (83088) - https://sketch.com -->
    <title>internet</title>
    <desc>Created with Sketch.</desc>
    <g id="Page-1" stroke="none" stroke-width="1" fill="none" fill-rule="evenodd">
        <g id="internet">
            <circle id="Oval" fill="#8FEDFF" fill-rule="nonzero" cx="8" cy="8" r="7.53146875"></circle>
            <g id="Group" transform="translate(0.937500, 1.125000)">
                <path d="M4.51728125,2.92859375 C4.3713125,3.2774375 4.2458125,3.644375 4.1414375,4.0245 L6.59375,4.0245 L6.59375,0.175125 C5.72334375,0.80484375 5.0134375,1.7426875 4.51728125,2.92859375 L4.51728125,2.92859375 Z" id="Path"></path>
                <path d="M3.7919375,7.644 L2.856625,7.70796875 C2.79353125,6.78546875 2.83771875,5.855 2.98165625,4.962 L0.26096875,4.962 C0.08903125,5.576875 1.42108547e-14,6.2190625 1.42108547e-14,6.875 C1.42108547e-14,7.5309375 0.08903125,8.173125 0.26096875,8.788 L1.92503125,8.788 L1.92503125,9.7255 L0.59678125,9.7255 C0.94503125,10.5147188 1.44025,11.240625 2.0685625,11.8689375 C2.9760625,12.7764375 4.087125,13.4061875 5.29865625,13.7163438 C4.57796875,13.0090938 4.003,12.1039687 3.58134375,11.0082813 L4.45628125,10.6715625 C4.9468125,11.9460938 5.664,12.9213438 6.59375,13.5806875 L6.59375,9.7255 L5.1754375,9.7255 L5.1754375,8.788 L6.59375,8.788 L6.59375,4.962 L3.93178125,4.962 C3.77946875,5.8289375 3.73009375,6.73971875 3.7919375,7.644 L3.7919375,7.644 Z" id="Path"></path>
                <path d="M9.98390625,9.7255 L7.53125,9.7255 L7.53125,13.5755313 C8.44521875,12.9151563 9.17959375,11.91725 9.678375,10.6474688 C9.79496875,10.3506563 9.89675,10.0423438 9.98390625,9.7255 L9.98390625,9.7255 Z" id="Path"></path>
                <path d="M3.6524375,2.56675 C4.0750625,1.556625 4.64028125,0.700625 5.32234375,0.0274375 C4.1015625,0.335375 2.98196875,0.967625 2.0685625,1.8810625 C1.44025,2.509375 0.94503125,3.23525 0.59678125,4.0245 L3.1730625,4.0245 C3.29946875,3.51675 3.45959375,3.027625 3.6524375,2.56675 L3.6524375,2.56675 Z" id="Path"></path>
                <path d="M13.8640313,4.962 L11.7490312,4.962 L11.7490312,4.0245 L13.5282188,4.0245 C13.1799688,3.23528125 12.68475,2.509375 12.0564375,1.8810625 C11.144125,0.96875 10.026125,0.33696875 8.8070625,0.028625 C9.6191875,0.82921875 10.2609687,1.88678125 10.6984375,3.16096875 L9.81175,3.46540625 C9.4518125,2.4169375 8.7735625,1.067625 7.53125,0.17371875 L7.53125,4.02453125 L9.32278125,4.02453125 L9.32278125,4.96203125 L7.53125,4.96203125 L7.53125,8.78803125 L10.194125,8.78803125 C10.3689375,7.79340625 10.407,6.74325 10.2988125,5.70875 L11.2312188,5.61128125 C11.3424375,6.6749375 11.3105,7.7558125 11.14425,8.78803125 L13.864,8.78803125 C14.0359687,8.173125 14.125,7.5309375 14.125,6.875 C14.125,6.2190625 14.0359687,5.576875 13.8640312,4.962 L13.8640313,4.962 Z" id="Path"></path>
                <path d="M10.5509688,10.99025 C10.1207187,12.0855625 9.52875,13.0069375 8.8036875,13.7223125 C10.0240625,13.4142813 11.1432813,12.782125 12.0564375,11.8689688 C12.68475,11.2406562 13.1799687,10.5147812 13.5282187,9.72553125 L10.9529687,9.72553125 C10.8440937,10.1622187 10.709875,10.5856562 10.5509687,10.99025 L10.5509688,10.99025 Z" id="Path"></path>
            </g>
            <g id="Group" fill="#55D0F9" fill-rule="nonzero">
                <path d="M8.1259375,0.00153125 C8.084,0.000875 8.0420625,0 8,0 C5.863125,0 3.85415625,0.83215625 2.343125,2.343125 C0.83215625,3.85415625 -4.26325641e-14,5.863125 -4.26325641e-14,8 C-4.26325641e-14,10.136875 0.83215625,12.1458438 2.343125,13.656875 C3.85415625,15.1678437 5.863125,16 8,16 C8.0420625,16 8.084,15.999125 8.1259375,15.9984688 L8.1259375,0.00153125 Z M3.0060625,3.0060625 C3.91946875,2.092625 5.03909375,1.460375 6.25984375,1.1524375 C5.57775,1.82559375 5.0125625,2.68159375 4.5899375,3.69175 C4.39709375,4.15265625 4.23696875,4.64178125 4.1105625,5.1495 L1.53428125,5.1495 C1.88253125,4.36028125 2.37775,3.634375 3.0060625,3.0060625 Z M7.53125,9.913 L6.1129375,9.913 L6.1129375,10.8505 L7.53125,10.8505 L7.53125,14.7056875 C6.6015,14.0463438 5.88428125,13.0710938 5.39378125,11.7965625 L4.51884375,12.1332813 C4.94053125,13.2289375 5.51546875,14.1340938 6.23615625,14.8413438 C5.024625,14.5312188 3.9135625,13.9014375 3.0060625,12.9939375 C2.37775,12.365625 1.88253125,11.63975 1.53428125,10.8505 L2.86253125,10.8505 L2.86253125,9.913 L1.19846875,9.913 C1.02653125,9.298125 0.9375,8.6559375 0.9375,8 C0.9375,7.3440625 1.02653125,6.701875 1.19846875,6.087 L3.9191875,6.087 C3.77525,6.98 3.7310625,7.91046875 3.79415625,8.83296875 L4.72946875,8.769 C4.66759375,7.8646875 4.71696875,6.95390625 4.86928125,6.087 L7.53125,6.087 L7.53125,9.913 Z M7.53125,5.1495 L5.0789375,5.1495 C5.1833125,4.769375 5.3088125,4.40240625 5.45478125,4.05359375 C5.9509375,2.8676875 6.66084375,1.92984375 7.53125,1.300125 L7.53125,5.1495 Z" id="Shape"></path>
                <path d="M13.656875,2.343125 C12.1458438,0.83215625 10.136875,0 8,0 L8,16 C10.136875,16 12.1458438,15.1678437 13.656875,13.656875 C15.1678437,12.1458437 16,10.136875 16,8 C16,5.863125 15.1678437,3.85415625 13.656875,2.343125 Z M8.46875,14.7005312 L8.46875,10.8505 L10.9214063,10.8505 C10.83425,11.167375 10.7324688,11.4756563 10.615875,11.7724687 C10.1170938,13.04225 9.38271875,14.0401562 8.46875,14.7005312 L8.46875,14.7005312 Z M12.9939375,12.9939375 C12.0807813,13.9070938 10.9615625,14.53925 9.7411875,14.8472813 C10.46625,14.1319375 11.0582188,13.2105625 11.4884688,12.1152188 C11.6474063,11.710625 11.7815938,11.2871875 11.8904688,10.8504688 L14.4657188,10.8504688 C14.1174688,11.6397188 13.62225,12.365625 12.9939375,12.9939375 L12.9939375,12.9939375 Z M12.0817813,9.913 C12.2480313,8.88078125 12.2799688,7.79990625 12.16875,6.73625 L11.2363438,6.83371875 C11.3445313,7.86821875 11.3064688,8.91840625 11.1316563,9.913 L8.46875,9.913 L8.46875,6.087 L10.2602813,6.087 L10.2602813,5.1495 L8.46875,5.1495 L8.46875,1.29871875 C9.7110625,2.19265625 10.3893125,3.54196875 10.7492813,4.59040625 L11.6359688,4.28596875 C11.1985,3.01178125 10.5567188,1.95421875 9.74459375,1.153625 C10.9636563,1.462 12.0816563,2.09375 12.9939688,3.00609375 C13.6222813,3.63440625 14.1175,4.36028125 14.46575,5.14953125 L12.6865625,5.14953125 L12.6865625,6.08703125 L14.8015625,6.08703125 C14.9734688,6.701875 15.0625,7.3440625 15.0625,8 C15.0625,8.6559375 14.9734688,9.298125 14.8015313,9.913 L12.0817813,9.913 Z" id="Shape"></path>
            </g>
            <g id="Group" transform="translate(2.375000, 3.937500)" fill="#55D0F9" fill-rule="nonzero">
                <path d="M2.1128125,4.37415625 C2.11278125,4.37415625 2.11278125,4.37415625 2.11275,4.37415625 C0.95815625,4.37415625 0.01878125,5.31475 0.01878125,6.47090625 C0.01878125,7.6270625 0.958125,8.56765625 2.11275,8.56765625 L2.112875,8.56765625 C3.2674375,8.56759375 4.20671875,7.62703125 4.20671875,6.4709375 C4.20671875,5.31478125 3.26740625,4.37415625 2.1128125,4.37415625 L2.1128125,4.37415625 Z" id="Path"></path>
                <ellipse id="Oval" cx="9.09840625" cy="1.68078125" rx="1.664375" ry="1.66659375"></ellipse>
            </g>
        </g>
    </g>
</svg>