<?xml version="1.0" encoding="UTF-8"?>
<svg width="18px" height="18px" viewBox="0 0 18 18" version="1.1" xmlns="http://www.w3.org/2000/svg" xmlns:xlink="http://www.w3.org/1999/xlink">
    <!-- Generator: Sketch 57.1 (83088) - https://sketch.com -->
    <title>google-icon</title>
    <desc>Created with Sketch.</desc>
    <g id="Page-1" stroke="none" stroke-width="1" fill="none" fill-rule="evenodd">
        <g id="facebook01" transform="translate(-22.000000, -1.000000)" fill-rule="nonzero">
            <g id="google-icon" transform="translate(22.000000, 1.000000)">
                <path d="M17.441684,9.0965623 C17.441684,8.36488926 17.3823131,7.83096016 17.2538238,7.27726348 L8.89881836,7.27726348 L8.89881836,10.579676 L13.8030182,10.579676 C13.7041803,11.4003713 13.1702512,12.6363221 11.9837193,13.466833 L11.9670873,13.5773951 L14.6087855,15.6238848 L14.7918061,15.6421527 C16.4726637,14.0897844 17.441684,11.805743 17.441684,9.0965623" id="Path" fill="#4285F4"></path>
                <path d="M8.89881836,17.7976367 C11.3014652,17.7976367 13.318508,17.0065928 14.7918061,15.6421527 L11.9837193,13.466833 C11.2322787,13.9908783 10.2237232,14.3567148 8.89881836,14.3567148 C6.54559043,14.3567148 4.54831523,12.8044146 3.8363416,10.6588145 L3.73198242,10.6676758 L0.985107031,12.7935084 L0.94918457,12.8933688 C2.41253066,15.8002934 5.41836133,17.7976367 8.89881836,17.7976367" id="Path" fill="#34A853"></path>
                <path d="M3.8363416,10.6588145 C3.64848145,10.1051178 3.53975977,9.51181777 3.53975977,8.89881836 C3.53975977,8.28575078 3.64848145,7.69251895 3.82645781,7.13882227 L3.82148184,7.02089844 L1.04018359,4.86091562 L0.94918457,4.9041998 C0.346068945,6.11049922 0,7.46512363 0,8.89881836 C0,10.3325131 0.346068945,11.6870693 0.94918457,12.8933687 L3.8363416,10.6588145" id="Path" fill="#FBBC05"></path>
                <path d="M8.89881836,3.44085371 C10.5697922,3.44085371 11.6969531,4.16264297 12.3396721,4.76582676 L14.8511088,2.31369277 C13.3086924,0.879998047 11.3014652,0 8.89881836,0 C5.41836133,0 2.41253066,1.9972752 0.94918457,4.9041998 L3.82645781,7.13882227 C4.54831523,4.99322207 6.54559043,3.44085371 8.89881836,3.44085371" id="Path" fill="#EB4335"></path>
            </g>
        </g>
    </g>
</svg>