<?xml version="1.0" encoding="UTF-8"?>
<svg width="220px" height="185px" viewBox="0 0 220 185" version="1.1" xmlns="http://www.w3.org/2000/svg" xmlns:xlink="http://www.w3.org/1999/xlink">
    <!-- Generator: Sketch 57.1 (83088) - https://sketch.com -->
    <title>03</title>
    <desc>Created with Sketch.</desc>
    <defs>
        <rect id="path-1" x="0" y="0" width="220" height="185" rx="6"></rect>
    </defs>
    <g id="Page-1" stroke="none" stroke-width="1" fill="none" fill-rule="evenodd">
        <g id="03">
            <mask id="mask-2" fill="white">
                <use xlink:href="#path-1"></use>
            </mask>
            <use id="Mask" fill="#DBEAFF" xlink:href="#path-1"></use>
            <g id="Group-224" mask="url(#mask-2)">
                <g transform="translate(29.000000, 36.000000)" id="Group-223">
                    <g transform="translate(0.000000, 0.297799)">
                        <path d="M22.321863,123.596019 C22.321863,123.596019 10.871818,142.727369 10.871818,154.171209 L8.04892872,293.55595 L26.1441848,297.868964 L39.9489875,161.656801 C39.9489875,161.656801 73.382036,298.2226 74.4553543,298.2226 C75.5281087,298.2226 91.9905446,295.269988 91.9905446,295.269988 L67.024472,124.209666 L22.321863,123.596019 Z" id="Fill-27" fill="#1A2E35"></path>
                        <path d="M39.3066886,161.420427 C39.2925882,161.426401 39.2277266,161.30683 39.1171799,161.073893 C39.0083253,160.840391 38.8481453,160.494087 38.6563806,160.042875 C38.2942837,159.131993 37.7793391,157.805433 37.3134637,156.111135 C36.3614083,152.738332 35.6005536,147.866381 36.0201799,142.504301 C36.1104221,141.164204 36.2931626,139.866408 36.5001557,138.617118 C36.7285813,137.363879 37.0466851,136.18791 37.3636609,135.071727 C37.9993045,132.841052 38.6620208,130.863619 39.2322388,129.208239 C39.8052768,127.553422 40.2959689,126.22517 40.6473495,125.311467 C40.8131696,124.896353 40.9507889,124.551176 41.0652837,124.264093 C41.1668062,124.026644 41.2265917,123.904253 41.2412561,123.909706 C41.2553564,123.914969 41.2226436,124.046948 41.1487578,124.293986 C41.0556955,124.588401 40.9428927,124.942602 40.8080934,125.367869 C40.4832215,126.365609 40.0506228,127.694426 39.526654,129.306377 C38.9947889,130.971346 38.3630934,132.954983 37.7522664,135.180581 C37.448263,136.291689 37.1403114,137.465401 36.9231661,138.691003 C36.7246332,139.92563 36.5464048,141.212145 36.4572907,142.537014 C36.0421765,147.842128 36.7449377,152.664446 37.612955,156.031045 C38.0370934,157.722522 38.5040969,159.056979 38.8154325,159.981962 C39.1538408,160.897356 39.3354533,161.408353 39.3066886,161.420427" id="Fill-33" fill="#375A64"></path>
                        <path d="M44.431826,138.010859 C44.4391581,138.017627 44.4476183,138.108434 44.4594626,138.278202 C44.4701789,138.480119 44.4837152,138.722645 44.4995076,139.014804 C44.5288363,139.700081 44.5683173,140.620551 44.6173865,141.767191 C44.7019886,144.15861 44.8187394,147.486292 44.9586149,151.464281 L44.842428,151.295077 C46.9625561,152.159146 49.3122377,153.116278 51.8063069,154.133195 L51.6151062,154.147859 C53.4075422,153.057056 55.3110889,151.897444 57.271037,150.704555 C57.3945561,150.629541 57.5180751,150.554527 57.638774,150.481205 L57.5344315,150.648153 C57.960826,146.047492 58.3612758,141.725454 58.7075803,137.993375 L58.898781,138.203188 C54.6376564,138.163143 51.0584246,138.129302 48.4853934,138.105049 C47.247383,138.084181 46.2530266,138.067261 45.5169886,138.054852 C45.1988848,138.045828 44.9371824,138.038496 44.720601,138.032292 C44.5372965,138.02496 44.4391581,138.018191 44.431826,138.010859 C44.4171616,137.996195 44.7662862,137.982094 45.4352066,137.966866 C46.1610924,137.953894 47.1402204,137.936973 48.3596183,137.916105 C50.9636702,137.891852 54.5863311,137.858011 58.898781,137.817966 L59.1091581,137.816274 L59.0905457,138.02778 C58.7600336,141.761551 58.3781962,146.085281 57.9709782,150.688198 L57.960826,150.798181 L57.8660716,150.85571 C57.7453727,150.929032 57.6224176,151.004046 57.4983346,151.07906 C55.5361304,152.268565 53.6308917,153.423665 51.8361997,154.511648 L51.7437014,154.567485 L51.6444349,154.526312 C49.1576979,153.493603 46.8142204,152.521243 44.6991685,151.64251 L44.5846737,151.595133 L44.5824176,151.473306 C44.5203761,147.443991 44.4690509,144.073444 44.431826,141.65044 C44.4239298,140.520721 44.4177256,139.614351 44.4126112,138.939226 C44.4120855,138.319375 44.4177256,137.996759 44.431826,138.010859" id="Fill-35" fill="#375A64"></path>
                        <path d="M18.2398692,134.331007 C18.2511495,134.347364 18.2077204,134.6728 18.1202983,135.267834 C18.0215958,135.90799 17.8913087,136.759651 17.7294367,137.817741 C17.3701599,140.033187 16.8732637,143.107063 16.2787931,146.779921 L16.2065993,146.59718 C17.8100907,147.786685 19.5861702,149.103658 21.4671564,150.498464 L21.2838519,150.464059 C23.2979453,149.903993 25.4541702,149.303883 27.6792048,148.684596 C27.7891875,148.654703 27.8986062,148.624246 28.0057689,148.594353 L27.8540491,148.744381 C29.0773952,144.574627 30.2268554,140.657551 31.2189557,137.276288 L31.3610872,137.517121 C27.4987204,136.596651 24.2533848,135.82226 21.9121633,135.263322 C20.7937239,134.987519 19.8941218,134.765298 19.2201253,134.598914 C18.5929419,134.439862 18.2511495,134.347928 18.2398692,134.331007 C18.2280249,134.313523 18.5478208,134.37218 19.1592118,134.495699 C19.8275682,134.635011 20.7204021,134.821135 21.8292533,135.052381 C24.2122118,135.570146 27.5156408,136.288135 31.4462533,137.142052 L31.6459142,137.185481 L31.5883848,137.38345 C30.6115128,140.769225 29.480101,144.691378 28.2748035,148.866208 L28.2409626,148.983523 L28.1225197,149.0168 C28.0153571,149.046692 27.9065024,149.077149 27.7959557,149.107042 C25.5697931,149.721253 23.4124401,150.316852 21.3972187,150.872405 L21.2962602,150.900042 L21.2133502,150.838 C19.3430803,149.429658 17.5765889,148.099713 15.9809938,146.898364 L15.8873675,146.827862 L15.908236,146.715623 C16.5895647,143.006668 17.1603467,139.9029 17.5709488,137.664893 C17.7706097,136.632184 17.9307896,135.800263 18.0509246,135.175336 C18.1642913,134.607374 18.2280249,134.314087 18.2398692,134.331007" id="Fill-37" fill="#375A64"></path>
                        <path d="M30.2835952,14.1167588 C30.9079585,15.9193471 28.7726021,17.4545927 26.9136125,17.8809872 C25.0546228,18.3073817 22.8019516,18.5735962 21.9508547,20.2808661 C21.2119965,21.7608384 21.9610069,23.6406965 21.2887024,25.1516896 C20.009519,28.0275962 14.8437163,27.4269215 13.8313114,30.4066066 C13.1370104,32.4517208 15.0569135,34.5605685 14.8166436,36.7066412 C14.6096505,38.5554785 12.916481,39.8137934 11.4303045,40.9333609 C9.94469204,42.0529284 8.38293772,43.5977623 8.61700346,45.4432156 C8.88716609,47.5751879 11.489526,49.0506481 11.2509481,51.1871325 C11.0163183,53.2880841 8.18102076,54.2683401 7.77380277,56.3433471 C7.28931488,58.8052675 10.3722145,60.3884543 11.3626228,62.6941429 C12.1195294,64.4549941 11.65309,66.7234578 12.9311453,68.1521048 C14.2419135,69.6157208 16.5667785,69.3292017 18.4883737,68.9214197 C24.8747024,67.5677865 31.2610311,66.2130253 37.6479239,64.859392 C36.3523841,61.8312017 37.570654,58.2863747 39.4166713,55.5593678 C41.2626886,52.8323609 43.7223529,50.5289284 45.3083599,47.6423055 C46.8938028,44.7556827 47.4149516,40.8938799 45.3382526,38.3372052" id="Fill-43" fill="#1A2E35"></path>
                        <path d="M63.9784588,29.4376308 C63.8696042,29.4511671 63.9660505,28.2063886 63.3507114,26.4122606 C63.1831993,25.98361 62.9632339,25.4872779 62.5836526,25.169174 C62.2063273,24.8098972 61.7139433,25.0371948 61.4020436,25.5538315 C60.7816284,26.5763886 60.5723792,28.0072917 60.5577149,29.4370668 C60.5723792,30.8674059 60.7816284,32.298873 61.4020436,33.3214301 C61.7139433,33.8380668 62.2063273,34.0653644 62.5842166,33.7060875 C62.9632339,33.3879837 63.1831993,32.8916516 63.3512754,32.463001 C63.9660505,30.668873 63.8696042,29.4240945 63.9784588,29.4376308 C64.0066595,29.4376308 64.0540367,29.7371221 64.0438844,30.2842156 C64.0314761,30.8290529 63.9812789,31.6276965 63.6840436,32.5791879 C63.5193516,33.0450633 63.332099,33.5808765 62.8487391,34.0241913 C62.6169294,34.2413367 62.2040713,34.4026446 61.8295661,34.2627692 C61.4629571,34.1358661 61.214791,33.8578073 61.0202062,33.5763644 C60.2847322,32.4037796 60.0828152,30.9362156 60.0591266,29.4370668 C60.0828152,27.939046 60.2847322,26.471482 61.0202062,25.2988972 C61.214791,25.0174543 61.4629571,24.7393955 61.8295661,24.6130564 C62.2040713,24.473181 62.6163654,24.6339249 62.8481751,24.8510702 C63.332099,25.2943851 63.5193516,25.8301983 63.6840436,26.2960737 C63.9812789,27.2475651 64.0314761,28.0462087 64.0438844,28.591046 C64.0540367,29.1381394 64.0066595,29.4381948 63.9784588,29.4376308" id="Fill-45" fill="#1A2E35"></path>
                        <path d="M32.7203042,47.0829166 C29.2538751,41.2256329 28.2612107,33.4241934 27.3847332,26.6746398 C26.9730031,23.4986779 26.2471173,18.9764149 28.4811761,16.9893941 C30.8742869,14.8602419 31.1049685,11.5793734 33.854536,9.93696505 C36.6041035,8.29455675 40.332799,8.1580654 42.9261346,10.0379235" id="Fill-47" fill="#1A2E35"></path>
                        <path d="M42.323937,67.8285865 L42.323937,67.8285865 C47.6386394,68.2521609 52.2393003,64.1743408 52.4598298,58.8466661 C52.671899,53.7316246 52.8585875,48.5601817 52.8585875,48.5601817 C52.8585875,48.5601817 60.6126498,47.8568564 61.1975322,40.1862682 C61.7824145,32.5156799 61.5771135,14.8028253 61.5771135,14.8028253 C52.9341654,10.4170536 42.5946637,11.0510052 34.5540824,16.46159 L34.9528401,43.4648806 L34.9099751,57.9916211 C34.9472,62.8635727 37.4666498,67.441109 42.323937,67.8285865" id="Fill-49" fill="#FFFFFF"></path>
                        <path d="M42.323937,67.8285865 L42.323937,67.8285865 C47.6386394,68.2521609 52.2393003,64.1743408 52.4598298,58.8466661 C52.671899,53.7316246 52.8585875,48.5601817 52.8585875,48.5601817 C52.8585875,48.5601817 60.6126498,47.8568564 61.1975322,40.1862682 C61.7824145,32.5156799 61.5771135,14.8028253 61.5771135,14.8028253 C52.9341654,10.4170536 42.5946637,11.0510052 34.5540824,16.46159 L34.9528401,43.4648806 L34.9099751,57.9916211 C34.9472,62.8635727 37.4666498,67.441109 42.323937,67.8285865 Z" id="Stroke-51" stroke="#353535"></path>
                        <path d="M53.5777616,30.797581 C52.2590972,29.1534806 50.1096405,28.4947125 48.338637,29.6374045 C46.5676336,30.7812246 45.8812287,33.3305671 46.8366682,35.2087332 C47.5112287,36.5347298 49.0526785,37.7388993 50.5918723,38.0660273 C52.0396958,38.3739789 53.062817,39.7755533 52.8896647,41.2448093 C52.6634952,43.1703526 49.4576405,43.8838301 48.0075609,45.4737851 C45.7515055,47.9464218 40.8130003,48.9813872 37.4881388,49.3643526 C34.2191145,49.7416779 34.6133602,49.7743907 32.7205298,47.0829166 C31.3420799,45.1240965 30.9145574,43.2419824 30.8716924,40.8483076 C30.7712979,35.1912488 30.6714675,29.53419 30.570509,23.8771311 C30.5344121,21.8376571 30.5005713,19.7728024 30.9749069,17.7897298 C31.4492426,15.8055291 32.4937962,13.8794218 34.2016301,12.7632384 C36.070772,11.5404564 38.435118,11.442882 40.5631422,10.7615533 C43.2224675,9.90989239 45.484163,8.1541173 47.9737201,6.88903426 C50.4638412,5.62451522 53.514028,4.8738128 56.0064052,6.13381972 C57.7954571,7.03793391 58.9911664,8.82980588 60.7305851,9.82529031 C63.2066059,11.2437851 66.5844848,10.9330135 67.7779381,14.5844391 C68.1902322,15.845574 68.1552633,17.229664 67.7254848,18.4851588 C66.0289311,23.4439685 59.8755401,25.4270412 55.4542356,23.2685602 C55.3645574,24.1095048 56.1868896,25.9825948 55.2940557,28.6357159 C55.0086647,29.4834287 54.9048862,30.7772765 53.5777616,30.797581" id="Fill-53" fill="#1A2E35"></path>
                        <path d="M52.1914156,35.5829 C52.2224363,35.5947443 52.2218723,35.7284156 52.084817,35.9145401 C51.9505817,36.0938965 51.6595505,36.31499 51.2280799,36.3392426 C50.3690869,36.4165125 49.2777201,35.4898377 49.2455713,34.2157304 C49.2094744,33.5958792 49.4407201,32.9873083 49.8140972,32.5936266 C50.1818343,32.1943048 50.6330453,31.9873118 51.0171388,31.9055298 C51.8073221,31.7425298 52.2619173,32.035817 52.2286405,32.0854502 C52.209464,32.1728723 51.7571249,32.0482253 51.1226093,32.2789069 C50.498246,32.4774398 49.7199069,33.1762529 49.7937927,34.1903498 C49.8180453,35.1914744 50.6166889,35.9230003 51.232028,35.951201 C51.8744398,35.99181 52.1350142,35.5343948 52.1914156,35.5829" id="Fill-55" fill="#1A2E35"></path>
                        <path d="M63.9977481,29.0697246 C64.0197446,29.2050879 61.7084159,29.696908 58.8358934,30.1672955 C55.9616789,30.637683 53.6148173,30.9095377 53.5928208,30.7736104 C53.5702602,30.637119 55.8810249,30.145863 58.7552394,29.6754754 C61.6277619,29.2050879 63.9751875,28.9337972 63.9977481,29.0697246" id="Fill-57" fill="#1A2E35"></path>
                        <path d="M33.3360945,54.5682263 C33.7196239,55.5450983 34.9903471,55.9150913 36.0033159,55.6375965 C37.0151567,55.3612298 37.8222606,54.6156035 38.5802952,53.8902817 C39.3383298,53.1643958 40.1313332,52.4086173 41.1358419,52.1040498 C43.1826481,51.4825066 45.6863055,52.8474201 47.4082398,51.5778249 C48.9756343,50.4215965 48.7708972,47.8051363 50.309527,46.611683 C51.126219,45.9777315 52.265527,45.8959495 53.0963194,45.2817384 C54.6518696,44.1322782 54.3952433,41.5654512 53.0884232,40.1401882 C51.7821671,38.7143612 49.8154509,38.1368111 47.9513851,37.6207384 L31.4652606,44.6477869 L33.3360945,54.5682263 Z" id="Fill-59" fill="#1A2E35"></path>
                        <path d="M52.9231861,24.775154 C52.9273972,24.7824862 52.8811481,24.816891 52.7858298,24.8766765 C52.6899474,24.9353339 52.5483799,25.0250121 52.3498471,25.1197664 C51.9589855,25.3188633 51.3549266,25.5664654 50.5444388,25.7717664 C49.7356429,25.9798875 48.722674,26.1293512 47.5500893,26.2472301 C46.3780685,26.3735692 45.0396637,26.4542232 43.6144007,26.7903754 C42.2088782,27.1225796 40.6414837,27.7215623 39.5433488,29.014846 C38.4305495,30.3053097 38.0154353,32.1614792 37.1547502,33.9550433 C36.7215875,34.8501332 36.1023003,35.739583 35.2359751,36.3724066 C34.3843142,37.0159464 33.3826256,37.4417768 32.3651446,37.7863893 C30.3392069,38.4648979 28.1096602,38.8732439 26.4221308,40.303583 C25.5879543,41.0007042 25.0391689,41.9550156 24.8998574,43.0006972 C24.7424976,44.0475069 24.8722208,45.1253374 24.8981654,46.2026038 C24.9258021,47.270282 24.8457121,48.4174862 24.2839543,49.3644654 C23.7605495,50.3221609 22.9122727,51.0023616 22.0594837,51.509974 C20.3352934,52.525199 18.5287571,53.0627042 17.0860097,53.9826107 C16.365764,54.4338218 15.7436567,54.9758391 15.3104941,55.6199429 C14.897636,56.274763 14.6714664,56.9995208 14.6381896,57.7192024 C14.5592277,59.1630779 14.938245,60.47159 15.1740028,61.6193581 C15.427809,62.7761505 15.5282035,63.8088599 15.4498055,64.6481125 C15.3781758,65.4890571 15.1288817,66.1156765 14.899892,66.4918737 C14.6675183,66.870327 14.4836498,67.0175346 14.4836498,67.0175346 C14.4154042,66.9955381 15.1717467,66.2944689 15.2557848,64.6345761 C15.3031619,63.8195761 15.1779509,62.8161955 14.9027121,61.6819637 C14.6443938,60.5426557 14.2292796,59.2324516 14.286245,57.6988979 C14.3093696,56.9352232 14.5423073,56.1320675 14.9873142,55.4112578 C15.4509336,54.7011644 16.1164699,54.1128979 16.8643522,53.6334862 C18.362937,52.6616903 20.1745495,52.1055727 21.8214699,51.1168564 C22.6370339,50.6244723 23.4052208,49.9905208 23.8660201,49.1349118 C24.3629163,48.2945311 24.4396221,47.2590017 24.4097294,46.2161401 C24.3837848,45.1670744 24.2427813,44.0666834 24.4097294,42.9268114 C24.554681,41.7790433 25.1903246,40.6735761 26.0978228,39.9245657 C27.9269197,38.384808 30.2359924,37.9871782 32.2089128,37.3238979 C33.2055253,36.9900017 34.1581446,36.5844758 34.9494561,35.9916972 C35.7520478,35.410199 36.3188817,34.6098633 36.7430201,33.7514343 C37.5873488,32.0402163 38.0199474,30.1321574 39.2291931,28.7458114 C40.4327986,27.3617215 42.0932554,26.7661228 43.5360028,26.446891 C45.0041308,26.1248391 46.356636,26.0695657 47.5247087,25.9697353 C48.6956014,25.8789291 49.696726,25.7587941 50.5004457,25.5828218 C52.1135253,25.2353893 52.8997606,24.7232647 52.9231861,24.775154" id="Fill-61" fill="#375A64"></path>
                        <path d="M48.4807138,27.5247215 C48.4807138,27.5788668 47.8890616,27.5235934 46.8749647,27.7554031 C45.8738401,27.9781886 44.4282727,28.6019879 43.177854,29.9646453 C42.5546187,30.6386419 42.0182415,31.5162474 41.7057779,32.5416246 C41.3825979,33.5630536 41.4006464,34.7440986 41.4045945,35.9849291 C41.3955702,37.2161713 41.4553557,38.6025173 40.8343765,39.9217457 C40.5269889,40.5714896 40.0086602,41.1445277 39.3955772,41.5415934 C38.7892623,41.9505035 38.12429,42.2358945 37.4942865,42.5573824 C36.8648471,42.8760502 36.2624803,43.2240467 35.8546983,43.723199 C35.4277398,44.2093789 35.2590997,44.8427664 35.2105945,45.4891263 C35.1203522,46.7683097 35.4001031,48.1941367 34.7695356,49.4191747 C34.1756291,50.6143201 33.153072,51.3785588 32.2049647,51.9617491 C31.237681,52.5381713 30.2991619,52.9623097 29.5033384,53.4422855 C28.7058228,53.9183131 28.0431066,54.4377699 27.6014837,55.0164481 C27.1497087,55.5894862 26.9009785,56.1805727 26.7825356,56.6774689 C26.5676464,57.6932578 26.8716498,58.2578356 26.8107363,58.2669765 C26.8011481,58.271372 26.717674,58.1450329 26.6420962,57.8726142 C26.5653903,57.6024516 26.5061689,57.1760571 26.591899,56.6391159 C26.6866533,56.1078149 26.9229751,55.4704792 27.3792623,54.848936 C27.8265253,54.2172405 28.5129301,53.6481505 29.3183419,53.1422301 C30.1237536,52.6301055 31.0617087,52.1828426 31.9883834,51.6098045 C32.8970097,51.0345104 33.8434249,50.287192 34.3555495,49.2206419 C34.9032069,48.1580398 34.6460166,46.8461436 34.7232865,45.4524654 C34.7684076,44.7592924 34.9663765,43.9854654 35.4734249,43.4062232 C35.9584768,42.8145727 36.6251412,42.4406315 37.268681,42.1123754 C38.5636567,41.4868841 39.8631446,40.9070779 40.3961377,39.7068564 C40.9550754,38.548372 40.9296948,37.2150433 40.9460512,35.9843651 C40.9550754,34.7469187 40.9466152,33.5196246 41.3104042,32.4197976 C41.6617848,31.3301228 42.2494872,30.4164204 42.9195356,29.7249394 C44.2647087,28.3278772 45.7920581,27.7367907 46.8354837,27.5653304 C47.3600166,27.4655 47.7785149,27.4592958 48.0571377,27.4739602 C48.3363246,27.4903166 48.4812761,27.507801 48.4807138,27.5247215" id="Fill-63" fill="#375A64"></path>
                        <g id="Group-68" transform="translate(32.148789, 50.761246)">
                            <polyline id="Fill-65" fill="#66CAF3" points="22.5906156 4.96585986 20.5956986 0.860403114 3.26355329 0.206711073 0.543878547 5.53720588 22.3091727 5.53720588"></polyline>
                            <polyline id="Stroke-67" stroke="#231F20" stroke-width="0.1" points="22.5906156 4.96585986 20.5956986 0.860403114 3.26355329 0.206711073 0.543878547 5.53720588 22.3091727 5.53720588"></polyline>
                        </g>
                        <path d="M114.307331,92.7955616 C114.182684,92.1728903 118.892764,67.7008938 120.19056,60.9806689 C120.359764,60.1024993 119.686896,59.2886273 118.792934,59.2886273 L84.092546,59.2886273 C83.4326498,59.2886273 82.8596118,59.7420945 82.707328,60.3833782 L75.6013176,90.3398453 L58.0875599,91.6466654 L58.703463,92.7955616 L114.307331,92.7955616 Z" id="Fill-69" fill="#FFFFFF"></path>
                        <path d="M114.329328,92.8132152 L86.6074837,93.0106201 C81.9701619,93.047281 77.3204318,93.0766097 72.6644976,93.0777377 L58.703463,93.08789 L58.5274907,93.088454 L58.4451446,92.9339142 L57.8326256,91.783326 L57.6228125,91.3896443 L58.0661273,91.3574955 L75.5843972,90.1082048 L75.3751481,90.2869972 L81.3959958,65.4416235 L82.1455702,62.3350353 L82.5212035,60.7817412 C82.5888851,60.529627 82.62329,60.2549522 82.7609093,59.999454 C82.8974007,59.7524159 83.1004457,59.5420388 83.3452277,59.4015993 C83.5888817,59.2605958 83.8793488,59.1923502 84.1540235,59.2008104 L84.9532311,59.1979903 L86.5505183,59.1934782 L89.7462208,59.184454 L102.527902,59.1015439 C106.789027,59.064319 111.049588,59.0445785 115.310148,59.0417585 L118.505287,59.0355543 C118.750069,59.0350412 119.089041,59.02371 119.381764,59.144973 C119.673923,59.2583398 119.937318,59.4489765 120.122314,59.7010907 C120.312951,59.9486927 120.43083,60.2521322 120.454518,60.5645958 C120.472003,60.7208277 120.455646,60.8776235 120.43083,61.0299073 L120.354124,61.4218969 L119.129086,67.6942948 L116.67901,80.2385266 L115.456792,86.5114886 L114.857245,89.6496616 C114.667172,90.7043675 114.453975,91.7263606 114.329328,92.8132152 L114.329328,92.8132152 Z M114.285335,92.7776824 C114.361477,91.743845 114.567906,90.6727827 114.728086,89.627101 L115.254311,86.4742637 C115.610203,84.3733121 115.984145,82.2757446 116.36429,80.1798692 C117.11894,75.9858623 117.888255,71.7946754 118.685207,67.6091287 L119.874712,61.3293986 L119.949162,60.936845 C119.964954,60.8268623 119.977363,60.7168796 119.963826,60.6074609 C119.946342,60.3886235 119.862304,60.1759903 119.72694,60.002274 C119.596089,59.8246097 119.408837,59.6931945 119.205792,59.6153606 C118.998235,59.5313225 118.790113,59.5403467 118.505287,59.5420388 L115.310148,59.5358346 C111.049588,59.5324505 106.789027,59.5138381 102.527902,59.4760491 L89.7462208,59.3931391 L86.5505183,59.3835509 L84.9532311,59.3796028 C84.4224941,59.4049834 83.8652484,59.2848484 83.4303938,59.5499349 C83.2115564,59.672326 83.031636,59.8607066 82.9137571,60.081236 C82.7958782,60.2978173 82.7614734,60.5623398 82.6949197,60.8234782 L82.3328228,62.3790284 L81.606937,65.4918208 L75.8274872,90.3935958 L75.7891343,90.5588519 L75.6182381,90.5718242 L58.1089924,91.9350457 L58.3430581,91.5092152 L58.9617813,92.6575474 L58.703463,92.5024436 L72.5443626,92.5131599 C77.1557398,92.5142879 81.7733211,92.5430526 86.4038747,92.5802775 L114.285335,92.7776824 Z" id="Fill-71" fill="#231F20"></path>
                        <polygon id="Fill-73" fill="#FFFFFF" points="112.787653 90.6243339 118.40241 60.9555138 84.2902893 61.1613789 76.7979294 90.6660709"></polygon>
                        <path d="M84.3066457,61.1826986 L76.8250021,90.6450896 L112.770732,90.6027886 L118.37703,60.9773976 L84.3066457,61.1826986 Z M76.7714208,90.6873907 L76.7776249,90.661446 L84.2733689,61.1409616 L84.2902893,61.1409616 L118.427791,60.9345325 L118.423279,60.9593491 L112.805137,90.6445256 L112.788217,90.6445256 L76.7714208,90.6873907 Z" id="Fill-75" fill="#FFFFFF"></path>
                        <path d="M112.754094,90.8298042 C112.754094,90.9510671 102.772741,91.0492055 90.4620107,91.0492055 C78.1478965,91.0492055 68.1676716,90.9510671 68.1676716,90.8298042 C68.1676716,90.7085412 78.1478965,90.6104028 90.4620107,90.6104028 C102.772741,90.6104028 112.754094,90.7085412 112.754094,90.8298042" id="Fill-77" fill="#1A2E35"></path>
                        <path d="M110.401084,83.3395311 C110.401084,83.3541955 110.247673,83.3694239 109.954949,83.3835242 C109.613721,83.3948045 109.190711,83.4083408 108.676894,83.4246972 C107.502053,83.4421817 105.912098,83.4658702 103.975275,83.4940709 C100.005745,83.5341159 94.5218388,83.5589325 88.4648941,83.5589325 C86.7463439,83.5566765 85.0746069,83.5549844 83.487472,83.5527284 L83.2116692,83.5527284 L83.2804789,83.2870779 C84.4880325,78.6159152 85.5427384,74.533583 86.3154374,71.5443097 C86.6978388,70.130891 87.0097384,68.9791747 87.2426761,68.1173616 C87.4682817,67.318154 87.602517,66.8855554 87.6278976,66.8922453 C87.6532782,66.8990917 87.5669841,67.3429706 87.3864997,68.1534585 C87.1840187,69.0226038 86.913292,70.1856003 86.5816519,71.6114273 C85.8467419,74.6091609 84.8427972,78.7050294 83.693901,83.3914204 L83.487472,83.1257699 C85.0746069,83.1240779 86.7463439,83.1223858 88.4648941,83.1201298 C94.5218388,83.1201298 100.005745,83.1449464 103.975275,83.1844273 C105.912098,83.213192 107.502053,83.2363166 108.676894,83.2543651 C109.190711,83.2707215 109.613721,83.2842578 109.954949,83.2955381 C110.247673,83.3096384 110.401084,83.3243028 110.401084,83.3395311" id="Fill-79" fill="#125BB2"></path>
                        <polygon id="Fill-81" fill="#125BB2" points="85.6912997 82.2126315 86.3297633 79.3513893 90.719483 79.3513893 90.1582893 82.2126315"></polygon>
                        <polygon id="Fill-83" fill="#125BB2" points="91.6608221 82.2126315 92.9868187 76.5809533 97.3765384 76.5809533 96.1278118 82.2126315"></polygon>
                        <polygon id="Fill-85" fill="#125BB2" points="97.6303446 82.2126315 98.2688083 79.3513893 102.659092 79.3513893 102.097334 82.2126315"></polygon>
                        <polygon id="Fill-87" fill="#125BB2" points="103.600431 82.2126315 106.114241 71.270763 110.504525 71.270763 108.067421 82.2126315"></polygon>
                        <path d="M89.1348862,85.4110976 C89.128118,85.5317965 88.3339865,85.6226028 87.3604986,85.6135785 C86.3875747,85.6045543 85.5951353,85.4985197 85.5911681,85.3778208 C85.5866751,85.2571218 86.3808066,85.1657516 87.3650107,85.1753398 C88.3486509,85.184928 89.1416543,85.2903986 89.1348862,85.4110976" id="Fill-89" fill="#125BB2"></path>
                        <path d="M94.9221194,85.4017349 C94.9153512,85.5229979 94.1212197,85.6132401 93.1477318,85.6042159 C92.174808,85.5951917 91.3823685,85.4891571 91.3778417,85.3684581 C91.3739083,85.2477592 92.1680398,85.1563889 93.1516799,85.1659772 C94.1358841,85.1755654 94.9288875,85.281036 94.9221194,85.4017349" id="Fill-91" fill="#125BB2"></path>
                        <path d="M100.708732,85.3928799 C100.702528,85.5135789 99.9078325,85.6043851 98.9349087,85.5947969 C97.9614208,85.5863367 97.1695453,85.4803021 97.1650141,85.3590391 C97.1605211,85.2383401 97.9546526,85.1475339 98.9388567,85.1565581 C99.9230609,85.1661464 100.7155,85.271617 100.708732,85.3928799" id="Fill-93" fill="#125BB2"></path>
                        <path d="M106.495965,85.3835173 C106.489197,85.5042163 105.695066,85.5950225 104.721578,85.5854343 C103.748654,85.576974 102.956779,85.4709394 102.952247,85.3496765 C102.947754,85.2295415 103.741886,85.1381713 104.72609,85.1477595 C105.70973,85.1573478 106.502734,85.2622543 106.495965,85.3835173" id="Fill-95" fill="#125BB2"></path>
                        <path d="M97.986181,65.6045107 C97.986181,65.7257737 95.786527,65.8239121 93.0736204,65.8239121 C90.3601498,65.8239121 88.1610599,65.7257737 88.1610599,65.6045107 C88.1610599,65.4832478 90.3601498,65.3851093 93.0736204,65.3851093 C95.786527,65.3851093 97.986181,65.4832478 97.986181,65.6045107" id="Fill-97" fill="#125BB2"></path>
                        <path d="M92.8202654,64.3888917 C92.8202654,64.5101547 91.8450855,64.6082931 90.642608,64.6082931 C89.4395664,64.6082931 88.4643865,64.5101547 88.4643865,64.3888917 C88.4643865,64.2681927 89.4395664,64.1700543 90.642608,64.1700543 C91.8450855,64.1700543 92.8202654,64.2681927 92.8202654,64.3888917" id="Fill-99" fill="#125BB2"></path>
                        <path d="M83.4093561,110.83797 L103.491633,96.3022048 L102.744879,95.086191 C101.647308,93.3005232 100.000387,91.9192533 98.0511554,91.1482464 L94.9112903,91.7122602 L76.2926294,94.5486858 L83.4093561,110.83797 Z" id="Fill-101" fill="#66CAF3"></path>
                        <path d="M83.4093561,110.83797 L103.491633,96.3022048 L102.744879,95.086191 C101.647308,93.3005232 100.000387,91.9192533 98.0511554,91.1482464 L94.9112903,91.7122602 L76.2926294,94.5486858 L83.4093561,110.83797 Z" id="Stroke-103" stroke="#231F20" stroke-width="0.1"></path>
                        <polygon id="Fill-105" fill="#66CAF3" points="12.0175557 107.496864 28.7016491 100.866882 24.9774657 87.0479785 11.3796561 91.670072"></polygon>
                        <polygon id="Stroke-107" stroke="#231F20" stroke-width="0.1" points="12.0175557 107.496864 28.7016491 100.866882 24.9774657 87.0479785 11.3796561 91.670072"></polygon>
                        <path d="M82.7153934,111.227365 C86.8727394,109.161946 87.9409817,104.201444 85.9105318,100.026614 L68.6229436,63.0803232 C68.2258779,62.1677488 67.6347913,61.3482367 66.8835249,60.6956727 C60.0860301,54.7932678 52.582954,55.7989045 52.582954,55.7989045 L34.5536875,55.3262609 C34.5536875,55.3262609 20.3913,55.3262609 15.0777256,66.4886588 C14.6891201,67.3053509 6.45621003,83.6335516 1.02926886,94.3926796 C-1.47720865,99.3616415 0.908005882,105.403358 6.13246609,107.321569 C10.7218467,109.006278 15.8323761,106.854001 17.8334972,102.393216 L23.730826,89.2477453 L27.4437291,108.077911 L22.0985699,123.596188 L66.8011789,124.209835 L63.3635145,103.450178 L62.2783519,88.6493266 L71.3448744,107.344129 C73.3967567,111.574233 78.5050301,113.319292 82.7153934,111.227365" id="Fill-109" fill="#66CAF3"></path>
                        <path d="M82.7153934,111.227365 C86.8727394,109.161946 87.9409817,104.201444 85.9105318,100.026614 L68.6229436,63.0803232 C68.2258779,62.1677488 67.6347913,61.3482367 66.8835249,60.6956727 C60.0860301,54.7932678 52.582954,55.7989045 52.582954,55.7989045 L34.5536875,55.3262609 C34.5536875,55.3262609 20.3913,55.3262609 15.0777256,66.4886588 C14.6891201,67.3053509 6.45621003,83.6335516 1.02926886,94.3926796 C-1.47720865,99.3616415 0.908005882,105.403358 6.13246609,107.321569 C10.7218467,109.006278 15.8323761,106.854001 17.8334972,102.393216 L23.730826,89.2477453 L27.4437291,108.077911 L22.0985699,123.596188 L66.8011789,124.209835 L63.3635145,103.450178 L62.2783519,88.6493266 L71.3448744,107.344129 C73.3967567,111.574233 78.5050301,113.319292 82.7153934,111.227365 Z" id="Stroke-111" stroke="#231F20" stroke-width="0.1"></path>
                        <g id="Group-117" transform="translate(28.200692, 93.626298)">
                            <path d="M0.75104083,14.0908706 C4.13568789,16.6244208 9.1198782,15.780092 13.2901965,15.086919 C17.4610789,14.393182 21.4926498,12.4095453 24.2111965,9.17097785 C25.4311585,7.71751419 26.4040824,5.90026159 26.2388263,4.00912318 C26.0730062,2.11798478 24.4018332,0.2934 22.517463,0.520133564 C20.35729,0.779579931 19.3155564,3.20145536 18.2755149,5.11233426 C14.9873142,11.1529225 7.57109619,14.635708 0.822670588,13.3080194 C0.822670588,13.3080194 0.149238062,13.6402235 0.75104083,14.0908706" id="Fill-113" fill="#66CAF3"></path>
                            <path d="M0.75104083,14.0908706 C4.13568789,16.6244208 9.1198782,15.780092 13.2901965,15.086919 C17.4610789,14.393182 21.4926498,12.4095453 24.2111965,9.17097785 C25.4311585,7.71751419 26.4040824,5.90026159 26.2388263,4.00912318 C26.0730062,2.11798478 24.4018332,0.2934 22.517463,0.520133564 C20.35729,0.779579931 19.3155564,3.20145536 18.2755149,5.11233426 C14.9873142,11.1529225 7.57109619,14.635708 0.822670588,13.3080194 C0.822670588,13.3080194 0.149238062,13.6402235 0.75104083,14.0908706 Z" id="Stroke-115" stroke="#231F20" stroke-width="0.1"></path>
                        </g>
                        <g id="Group-122" transform="translate(56.401384, 78.397924)">
                            <path d="M0.153468166,0.227917993 C1.20648201,8.73211869 0.73553045,8.08519481 2.50935398,16.4686965 C3.38188339,20.5910737 4.4416654,24.8950633 7.2859872,28.0055997 L5.87651661,10.251008 L0.153468166,0.227917993 Z" id="Fill-118" fill="#66CAF3"></path>
                            <path d="M0.153468166,0.227917993 C1.20648201,8.73211869 0.73553045,8.08519481 2.50935398,16.4686965 C3.38188339,20.5910737 4.4416654,24.8950633 7.2859872,28.0055997 L5.87651661,10.251008 L0.153468166,0.227917993 Z" id="Stroke-120" stroke="#231F20" stroke-width="0.1"></path>
                        </g>
                        <polygon id="Fill-123" fill="#267BF8" points="22.0987391 123.596019 20.8178637 119.863939 24.1483654 117.645109 65.1544277 114.263846 68.0461266 119.695863 66.8013481 124.209666"></polygon>
                        <path d="M30.5656021,53.2396917 C28.8600242,53.902972 27.4877785,55.371664 26.9429412,57.1184149 C26.3975398,58.8651657 26.690827,60.8533145 27.7167682,62.3688197 C28.0726609,62.8939166 28.5323322,63.4286017 28.4990554,64.0625533 C28.4195294,65.5763664 25.9722734,65.6175394 25.2007024,66.9232315 C24.6851938,67.7957609 25.1273806,68.9581934 25.8560865,69.6626467 C26.5847924,70.367664 27.545872,70.772626 28.3794844,71.3484841 C29.2130969,71.9254702 29.9711315,72.8013837 29.9277024,73.8143526 C30.7838754,73.790664 31.2886678,72.7551346 31.1583806,71.9091138 C31.0269654,71.0630931 30.4894602,70.3467955 30.1070588,69.5814287 C29.7240934,68.8154979 29.5086401,67.84201 30.0010242,67.1409408 C30.560526,66.3445533 31.7003979,66.3129685 32.6073322,65.9610239 C34.3670554,65.2780031 35.3027543,63.0027713 34.5334394,61.279709 C33.98409,60.0490308 32.7026505,58.8053803 33.3264498,57.6102349 C33.6738824,56.9441346 34.47309,56.6886363 35.1307301,56.3254114 C36.4837993,55.5775291 37.4194983,54.1223734 37.5396332,52.5814875 C37.6597682,51.0400377 36.960955,49.4579789 35.7398651,48.5087436" id="Fill-125" fill="#1A2E35"></path>
                        <path d="M23.6211817,91.0495439 C23.6736349,91.0760526 23.3329706,91.8809003 22.7119913,93.1488035 C22.0904481,94.4161426 21.1801298,96.1425889 20.0831228,97.9976304 C18.9832958,99.852672 17.9060294,101.48098 17.0938495,102.635516 C16.2805415,103.789489 15.7385242,104.475329 15.690019,104.441489 C15.6392578,104.40652 16.0904689,103.659201 16.8355311,102.464056 C17.5800294,101.268911 18.6110467,99.6208623 19.7057976,97.774845 C20.7982924,95.9276997 21.7475277,94.23171 22.4373166,93.0044159 C23.1276696,91.7765578 23.5653443,91.0207792 23.6211817,91.0495439" id="Fill-127" fill="#1A2E35"></path>
                        <path d="M19.6862827,98.1415668 C19.7968294,98.1291585 19.943473,99.5673938 19.4025837,101.234055 C18.8741028,102.905792 17.9186633,103.991518 17.8363173,103.916504 C17.7285907,103.841491 18.4843692,102.69203 18.9852135,101.100383 C19.5024142,99.5149405 19.5554315,98.1398747 19.6862827,98.1415668" id="Fill-129" fill="#1A2E35"></path>
                        <path d="M85.1801903,98.6987365 C85.0702076,98.7492353 81.5727578,91.4311557 77.3702907,82.354481 C73.1661315,73.2761142 69.8480381,65.8768166 69.9580208,65.8257928 C70.0680035,65.7752941 73.5637612,73.0916817 77.7679204,82.1706125 C81.9715156,91.2467232 85.289609,98.6471488 85.1801903,98.6987365" id="Fill-131" fill="#1A2E35"></path>
                        <path d="M63.8837045,60.9557958 C63.9096491,61.0251696 63.129618,61.3004083 62.0156907,61.9952734 C60.9062754,62.6799862 59.4798844,63.8514429 58.3862616,65.5181038 C57.2915107,67.1853287 56.7838983,68.9591522 56.5972097,70.2501799 C56.4026249,71.5485398 56.4607183,72.373128 56.3862685,72.3771246 C56.3405834,72.3844083 56.1702512,71.558692 56.2892581,70.212955 C56.4009329,68.8779343 56.8792166,67.0138685 58.0196526,65.2772699 C59.1589606,63.5406713 60.6784138,62.3607543 61.8588948,61.7273668 C63.046708,61.083263 63.8718602,60.9112388 63.8837045,60.9557958" id="Fill-133" fill="#1A2E35"></path>
                        <path d="M27.3896965,108.261954 C27.2718176,108.288401 25.2611083,99.7227232 22.8990183,89.1327993 C20.5369284,78.5389273 18.7179837,69.9320761 18.8364266,69.9055087 C18.9543055,69.8796228 20.9644509,78.443609 23.3271048,89.036917 C25.6886308,99.6268408 27.5081394,108.235384 27.3896965,108.261954" id="Fill-135" fill="#1A2E35"></path>
                        <polyline id="Fill-137" fill="#FFFFFF" points="103.491915 96.3019228 111.642479 92.7954488 100.784648 92.7954488 103.156327 95.8687602"></polyline>
                        <path d="M86.7455543,97.2085187 C86.6457239,97.2852246 85.836364,96.3828024 84.7681218,95.3500931 C83.7038277,94.3123076 82.778845,93.5294564 82.8527308,93.4279339 C82.9192844,93.3320516 83.9830145,93.9727713 85.0738173,95.0353734 C86.1680042,96.0940273 86.8391806,97.139145 86.7455543,97.2085187" id="Fill-139" fill="#1A2E35"></path>
                        <path d="M71.7181952,108.031098 C71.6916865,108.045199 71.4485965,107.641365 71.0323543,106.897994 C70.6138561,106.155752 70.0312298,105.070026 69.3239564,103.721469 C67.9088457,101.024918 66.0272955,97.262382 63.968645,93.0999599 C61.9077384,88.9369737 60.0205481,85.1817696 58.6206657,82.4807073 C57.9483612,81.1823474 57.3905516,80.105645 56.9635931,79.2810567 C56.5727315,78.5247142 56.3696865,78.0988837 56.3961952,78.0842194 C56.4227038,78.069555 56.67651,78.4666208 57.1124927,79.1987107 C57.5512955,79.9291087 58.1598664,81.0007349 58.8947765,82.3346277 C60.3657246,85.0024131 62.300292,88.7406969 64.3611986,92.9059391 C66.3905204,97.0401606 68.2263855,100.781264 69.6003232,103.581029 C70.2427349,104.894617 70.775164,105.984292 71.18351,106.819597 C71.5535031,107.586655 71.7452678,108.017562 71.7181952,108.031098" id="Fill-141" fill="#1A2E35"></path>
                        <path d="M55.6047145,96.5982557 C55.6193789,96.6010758 55.6154308,96.7014702 55.5923062,96.8921069 C55.5612855,97.0804875 55.5466211,97.3681346 55.4518668,97.7212073 C55.3046592,98.4375048 54.9662509,99.4544218 54.3385035,100.608394 C53.1112093,102.925363 50.4535761,105.643346 46.7919983,107.306622 C43.1298564,108.958055 39.5038114,109.461155 36.9369844,109.766287 C35.6453927,109.911802 34.598583,109.996404 33.8738253,110.04491 C33.1496315,110.092851 32.7474896,110.103003 32.7446481,110.073674 C32.7412855,110.043218 33.1377872,109.974972 33.8563408,109.875142 C34.6600606,109.765159 35.6797976,109.625847 36.8975035,109.458899 C39.446282,109.077062 43.0232578,108.52602 46.6098218,106.907865 C50.1867976,105.281813 52.8032578,102.675505 54.0694689,100.454982 C55.3751609,98.2293837 55.500936,96.5666709 55.6047145,96.5982557" id="Fill-143" fill="#1A2E35"></path>
                        <path d="M46.6124273,118.282501 C46.6214405,118.403764 41.0760564,118.890508 34.2283644,119.371048 C27.3778522,119.851024 21.8206239,120.142619 21.8115912,120.02192 C21.8037035,119.901221 27.3479595,119.413913 34.1973436,118.933373 C41.0450356,118.453397 46.6039561,118.161802 46.6124273,118.282501" id="Fill-145" fill="#1A2E35"></path>
                        <path d="M53.7633785,114.958485 C53.8744893,114.929721 54.4165066,116.788146 54.6618526,119.154748 C54.9145308,121.521915 54.7718353,123.45197 54.6567765,123.447466 C54.5293093,123.445766 54.476292,121.536015 54.2258699,119.200434 C53.984472,116.865416 53.6392955,114.986686 53.7633785,114.958485" id="Fill-147" fill="#1A2E35"></path>
                        <path d="M56.6374239,112.282021 C56.6921332,112.272539 56.8675415,112.913258 57.010237,113.975861 C57.1534965,115.037335 57.2392266,116.524075 57.1264239,118.158587 C57.010237,119.793663 56.7186419,121.253895 56.4287388,122.284348 C56.1393997,123.317058 55.8754412,123.926757 55.8235519,123.909836 C55.6915727,123.872047 56.4755519,121.348649 56.6893131,118.127566 C56.926199,114.909867 56.5020606,112.301303 56.6374239,112.282021" id="Fill-149" fill="#1A2E35"></path>
                        <path d="M54.7845906,56.0206747 C54.7778138,56.1419377 50.7733156,56.0150346 45.8421426,55.7375398 C40.9081495,55.460609 36.9160595,55.1379931 36.9228191,55.0167301 C36.9295958,54.8960311 40.9329661,55.0223702 45.8663952,55.3004291 C50.7981322,55.5773599 54.7913502,55.8999758 54.7845906,56.0206747" id="Fill-151" fill="#1A2E35"></path>
                        <path d="M128.512866,48.9765367 L92.5744682,49.1531609 C88.9281187,49.1716855 85.9580218,46.2303533 85.9399734,42.5840038 L85.8260182,19.569419 C85.8204024,18.3624294 86.7944543,17.3787893 88.002008,17.3725851 L132.771735,17.1514673 C133.979288,17.1458516 134.963492,18.1199035 134.969133,19.3274571 L135.082582,42.3414779 C135.100548,45.9878273 132.159216,48.9584882 128.512866,48.9765367" id="Fill-153" fill="#66CAF3"></path>
                        <path d="M128.051277,46.4571997 C128.479364,46.4419713 128.90745,46.3872619 129.316924,46.2597948 C129.723014,46.1266875 130.11726,45.9518433 130.471461,45.7115734 C131.183246,45.2361097 131.750644,44.5536529 132.087924,43.7691097 C132.246976,43.3743 132.371059,42.9620059 132.412796,42.5367394 C132.457353,42.1148571 132.440997,41.6828225 132.438741,41.2519159 L132.408848,38.6653484 L132.258256,28.3218986 L132.130225,17.9773208 L132.080028,12.8171581 C132.046187,12.0066702 131.760232,11.2108467 131.281948,10.5577187 C130.805921,9.9023346 130.134744,9.38738997 129.377274,9.103691 C129.00164,8.95084325 128.597807,8.87864948 128.195665,8.84368062 C127.803675,8.81491592 127.347952,8.83691246 126.923813,8.83409239 L124.33781,8.84875675 L119.165803,8.87244533 L108.821225,8.89669792 L88.1320696,8.89613391 C87.7146993,8.90854221 87.2973291,8.95817543 86.8968792,9.07943841 C86.4998135,9.20577751 86.1129,9.37328962 85.7643394,9.60622734 C85.0649623,10.0664626 84.5032045,10.7303069 84.1653602,11.4990578 C84.0063083,11.8848433 83.8810972,12.2898052 83.8365401,12.7077394 C83.789163,13.1211616 83.8021353,13.5531962 83.8015713,13.9852308 L83.8043913,16.5717983 C83.8060834,20.0196149 83.8066474,23.4674315 83.8427443,26.9163761 C83.8641768,30.3641927 83.9030938,33.8120093 83.9493429,37.259826 C83.9747235,38.9800682 83.9809277,40.7161028 84.0215367,42.4239367 C84.0610176,43.2496529 84.3571249,44.0578848 84.847817,44.717781 C85.3351249,45.3821893 86.0204017,45.8948779 86.7868965,46.1825249 C87.1676059,46.3370647 87.5759519,46.4092585 87.9831699,46.4447913 C88.3824917,46.472428 88.8337028,46.4498675 89.2589692,46.4526875 L91.8449727,46.4340751 C93.568599,46.4211028 95.2927893,46.4070024 97.0175436,46.4103865 C100.46536,46.4098225 103.913177,46.3979782 107.361557,46.4216668 L117.706699,46.4662239 L128.051277,46.4571997 Z M128.051841,46.5090889 L117.707263,46.6021512 L107.363249,46.7487948 C103.915433,46.8063242 100.467616,46.8283208 97.0192356,46.8621616 C95.2956093,46.8824661 93.570855,46.8858502 91.8472287,46.8897983 L89.2612253,46.8960024 C88.8241145,46.8914903 88.4129484,46.9140509 87.9510211,46.8813381 C87.5026301,46.8412931 87.0525471,46.757255 86.6329208,46.5863588 C85.7869,46.267691 85.0469138,45.6856287 84.523509,44.9541028 C83.9972841,44.2248329 83.6882045,43.3376391 83.6571837,42.4414211 C83.6402633,40.7020024 83.6588758,38.9890924 83.6588758,37.261518 C83.6701561,33.8131374 83.6746682,30.3653208 83.6628239,26.9163761 C83.6650799,23.4685595 83.6312391,20.0207429 83.5996543,16.5723623 L83.5765298,13.9863588 C83.5742737,13.5571443 83.5567893,13.1245457 83.6030384,12.6801028 C83.6470315,12.2390439 83.7750626,11.8109574 83.9403187,11.4014834 C84.2905713,10.5864834 84.8794017,9.87921003 85.6182599,9.38569792 C85.9859969,9.13527578 86.3954709,8.95366332 86.8173533,8.81547993 C87.2426197,8.68293668 87.6864986,8.62653529 88.1303775,8.61074291 L108.818405,8.4065699 L119.162983,8.32873599 L124.33499,8.30166332 L126.920993,8.29094706 C127.359232,8.29602318 127.76645,8.2723346 128.235146,8.30448339 C128.688613,8.34452837 129.143772,8.42856644 129.56791,8.60115467 C130.422955,8.92377059 131.177606,9.50470484 131.712291,10.244127 C132.249796,10.9807291 132.570156,11.8797671 132.606253,12.7917775 C132.635018,14.5379644 132.627685,16.2457983 132.627121,17.9750647 L132.601177,28.3196426 L132.553236,38.6647844 L132.548724,41.2513519 C132.547596,41.6805664 132.561132,42.1137291 132.512627,42.5485837 C132.466378,42.9828744 132.336654,43.4036287 132.171398,43.8052066 C131.821146,44.6032862 131.237391,45.2930751 130.510942,45.7707948 C130.149409,46.0127567 129.747267,46.187037 129.334409,46.3190163 C128.918166,46.4453554 128.485004,46.4966806 128.051841,46.5090889 L128.051841,46.5090889 Z" id="Fill-155" fill="#1A2E35"></path>
                        <path d="M128.051277,46.4571997 C128.479364,46.4419713 128.90745,46.3872619 129.316924,46.2597948 C129.723014,46.1266875 130.11726,45.9518433 130.471461,45.7115734 C131.183246,45.2361097 131.750644,44.5536529 132.087924,43.7691097 C132.246976,43.3743 132.371059,42.9620059 132.412796,42.5367394 C132.457353,42.1148571 132.440997,41.6828225 132.438741,41.2519159 L132.408848,38.6653484 L132.258256,28.3218986 L132.130225,17.9773208 L132.080028,12.8171581 C132.046187,12.0066702 131.760232,11.2108467 131.281948,10.5577187 C130.805921,9.9023346 130.134744,9.38738997 129.377274,9.103691 C129.00164,8.95084325 128.597807,8.87864948 128.195665,8.84368062 C127.803675,8.81491592 127.347952,8.83691246 126.923813,8.83409239 L124.33781,8.84875675 L119.165803,8.87244533 L108.821225,8.89669792 L88.1320696,8.89613391 C87.7146993,8.90854221 87.2973291,8.95817543 86.8968792,9.07943841 C86.4998135,9.20577751 86.1129,9.37328962 85.7643394,9.60622734 C85.0649623,10.0664626 84.5032045,10.7303069 84.1653602,11.4990578 C84.0063083,11.8848433 83.8810972,12.2898052 83.8365401,12.7077394 C83.789163,13.1211616 83.8021353,13.5531962 83.8015713,13.9852308 L83.8043913,16.5717983 C83.8060834,20.0196149 83.8066474,23.4674315 83.8427443,26.9163761 C83.8641768,30.3641927 83.9030938,33.8120093 83.9493429,37.259826 C83.9747235,38.9800682 83.9809277,40.7161028 84.0215367,42.4239367 C84.0610176,43.2496529 84.3571249,44.0578848 84.847817,44.717781 C85.3351249,45.3821893 86.0204017,45.8948779 86.7868965,46.1825249 C87.1676059,46.3370647 87.5759519,46.4092585 87.9831699,46.4447913 C88.3824917,46.472428 88.8337028,46.4498675 89.2589692,46.4526875 L91.8449727,46.4340751 C93.568599,46.4211028 95.2927893,46.4070024 97.0175436,46.4103865 C100.46536,46.4098225 103.913177,46.3979782 107.361557,46.4216668 L117.706699,46.4662239 L128.051277,46.4571997 Z M128.051841,46.5090889 L117.707263,46.6021512 L107.363249,46.7487948 C103.915433,46.8063242 100.467616,46.8283208 97.0192356,46.8621616 C95.2956093,46.8824661 93.570855,46.8858502 91.8472287,46.8897983 L89.2612253,46.8960024 C88.8241145,46.8914903 88.4129484,46.9140509 87.9510211,46.8813381 C87.5026301,46.8412931 87.0525471,46.757255 86.6329208,46.5863588 C85.7869,46.267691 85.0469138,45.6856287 84.523509,44.9541028 C83.9972841,44.2248329 83.6882045,43.3376391 83.6571837,42.4414211 C83.6402633,40.7020024 83.6588758,38.9890924 83.6588758,37.261518 C83.6701561,33.8131374 83.6746682,30.3653208 83.6628239,26.9163761 C83.6650799,23.4685595 83.6312391,20.0207429 83.5996543,16.5723623 L83.5765298,13.9863588 C83.5742737,13.5571443 83.5567893,13.1245457 83.6030384,12.6801028 C83.6470315,12.2390439 83.7750626,11.8109574 83.9403187,11.4014834 C84.2905713,10.5864834 84.8794017,9.87921003 85.6182599,9.38569792 C85.9859969,9.13527578 86.3954709,8.95366332 86.8173533,8.81547993 C87.2426197,8.68293668 87.6864986,8.62653529 88.1303775,8.61074291 L108.818405,8.4065699 L119.162983,8.32873599 L124.33499,8.30166332 L126.920993,8.29094706 C127.359232,8.29602318 127.76645,8.2723346 128.235146,8.30448339 C128.688613,8.34452837 129.143772,8.42856644 129.56791,8.60115467 C130.422955,8.92377059 131.177606,9.50470484 131.712291,10.244127 C132.249796,10.9807291 132.570156,11.8797671 132.606253,12.7917775 C132.635018,14.5379644 132.627685,16.2457983 132.627121,17.9750647 L132.601177,28.3196426 L132.553236,38.6647844 L132.548724,41.2513519 C132.547596,41.6805664 132.561132,42.1137291 132.512627,42.5485837 C132.466378,42.9828744 132.336654,43.4036287 132.171398,43.8052066 C131.821146,44.6032862 131.237391,45.2930751 130.510942,45.7707948 C130.149409,46.0127567 129.747267,46.187037 129.334409,46.3190163 C128.918166,46.4453554 128.485004,46.4966806 128.051841,46.5090889 Z" id="Stroke-157" stroke="#231F20" stroke-width="0.1"></path>
                        <path d="M128.279308,15.6226194 C126.42201,15.6908651 124.564713,15.7252699 122.707415,15.7771592 L117.134958,15.8775536 C113.419799,15.9390311 109.70464,15.9531315 105.990045,15.9931765 C102.274886,15.9909204 98.5597266,16.0112249 94.8445675,15.9881003 L89.2715467,15.9429792 C87.4136851,15.9091384 85.5558235,15.892782 83.6979619,15.8431488 C85.5552595,15.7749031 87.4131211,15.7399343 89.2704187,15.687481 L94.8428754,15.5876505 C98.5574706,15.527301 102.27263,15.5115087 105.987789,15.4720277 C109.702384,15.4759758 113.417543,15.4534152 117.132702,15.4782318 L122.705723,15.5233529 C124.563585,15.5571938 126.421446,15.5735502 128.279308,15.6226194" id="Fill-159" fill="#1A2E35"></path>
                        <path d="M128.279308,15.6226194 C126.42201,15.6908651 124.564713,15.7252699 122.707415,15.7771592 L117.134958,15.8775536 C113.419799,15.9390311 109.70464,15.9531315 105.990045,15.9931765 C102.274886,15.9909204 98.5597266,16.0112249 94.8445675,15.9881003 L89.2715467,15.9429792 C87.4136851,15.9091384 85.5558235,15.892782 83.6979619,15.8431488 C85.5552595,15.7749031 87.4131211,15.7399343 89.2704187,15.687481 L94.8428754,15.5876505 C98.5574706,15.527301 102.27263,15.5115087 105.987789,15.4720277 C109.702384,15.4759758 113.417543,15.4534152 117.132702,15.4782318 L122.705723,15.5233529 C124.563585,15.5571938 126.421446,15.5735502 128.279308,15.6226194 Z" id="Stroke-161" stroke="#231F20" stroke-width="0.1"></path>
                        <path d="M89.4587604,12.5216713 C89.462127,13.1268581 88.974255,13.6192422 88.3685042,13.6226385 C87.7638813,13.6254464 87.2709332,13.1375744 87.2680957,12.5329516 C87.2647291,11.9272007 87.7531651,11.4342526 88.3583519,11.4314247 C88.9629747,11.4291765 89.4559228,11.9170484 89.4587604,12.5216713" id="Fill-163" fill="#FFFFFF"></path>
                        <path d="M89.4587604,12.5216713 C89.462127,13.1268581 88.974255,13.6192422 88.3685042,13.6226385 C87.7638813,13.6254464 87.2709332,13.1375744 87.2680957,12.5329516 C87.2647291,11.9272007 87.7531651,11.4342526 88.3583519,11.4314247 C88.9629747,11.4291765 89.4559228,11.9170484 89.4587604,12.5216713 Z" id="Stroke-165" stroke="#231F20" stroke-width="0.1"></path>
                        <path d="M89.4328547,12.5216713 C89.4345467,12.2345882 89.2354498,11.9847301 89.0137924,11.8707993 C88.7870588,11.7574325 88.5755536,11.7027232 88.3595363,11.7106194 C88.1457751,11.7151315 87.9337059,11.7861972 87.7599896,11.9294567 C87.5941696,12.0772284 87.4616263,12.2802734 87.4108651,12.5318235 C87.3595398,12.7816817 87.447526,13.0715848 87.651699,13.2458651 C87.857,13.4263495 88.144083,13.4427059 88.3674325,13.405481 C88.5964221,13.365436 88.8028512,13.3056505 89.0233806,13.1810035 C89.244474,13.0636886 89.4441349,12.8093183 89.4328547,12.5216713 M89.485308,12.5216713 C89.4791038,12.8087543 89.444699,13.1257301 89.2597024,13.4150692 C89.078654,13.7004602 88.7159931,13.8786886 88.3696886,13.8397716 C88.018872,13.8070588 87.734609,13.5904775 87.5338201,13.365436 C87.327955,13.1370104 87.1773633,12.8583875 87.12491,12.5335156 C87.0702007,12.2097716 87.1700311,11.8425986 87.409737,11.5831522 C87.6392907,11.3169377 87.9957474,11.1488616 88.3567163,11.1528097 C88.7154291,11.1561938 89.0741419,11.3344221 89.2551903,11.6265813 C89.4430069,11.9153564 89.4824879,12.2340242 89.485308,12.5216713" id="Fill-167" fill="#000000"></path>
                        <path d="M89.4328547,12.5216713 C89.4345467,12.2345882 89.2354498,11.9847301 89.0137924,11.8707993 C88.7870588,11.7574325 88.5755536,11.7027232 88.3595363,11.7106194 C88.1457751,11.7151315 87.9337059,11.7861972 87.7599896,11.9294567 C87.5941696,12.0772284 87.4616263,12.2802734 87.4108651,12.5318235 C87.3595398,12.7816817 87.447526,13.0715848 87.651699,13.2458651 C87.857,13.4263495 88.144083,13.4427059 88.3674325,13.405481 C88.5964221,13.365436 88.8028512,13.3056505 89.0233806,13.1810035 C89.244474,13.0636886 89.4441349,12.8093183 89.4328547,12.5216713 Z M89.485308,12.5216713 C89.4791038,12.8087543 89.444699,13.1257301 89.2597024,13.4150692 C89.078654,13.7004602 88.7159931,13.8786886 88.3696886,13.8397716 C88.018872,13.8070588 87.734609,13.5904775 87.5338201,13.365436 C87.327955,13.1370104 87.1773633,12.8583875 87.12491,12.5335156 C87.0702007,12.2097716 87.1700311,11.8425986 87.409737,11.5831522 C87.6392907,11.3169377 87.9957474,11.1488616 88.3567163,11.1528097 C88.7154291,11.1561938 89.0741419,11.3344221 89.2551903,11.6265813 C89.4430069,11.9153564 89.4824879,12.2340242 89.485308,12.5216713 Z" id="Stroke-169" stroke="#231F20" stroke-width="0.1"></path>
                        <path d="M93.3380476,12.502382 C93.3414142,13.1075689 92.8535422,13.600517 92.2477913,13.6033545 C91.6431685,13.6067211 91.1502204,13.1182851 91.1468242,12.5136623 C91.1440163,11.9084754 91.6324522,11.4155273 92.2376391,11.4121355 C92.8422619,11.4098872 93.33521,11.8977592 93.3380476,12.502382" id="Fill-171" fill="#FFFFFF"></path>
                        <path d="M93.3380476,12.502382 C93.3414142,13.1075689 92.8535422,13.600517 92.2477913,13.6033545 C91.6431685,13.6067211 91.1502204,13.1182851 91.1468242,12.5136623 C91.1440163,11.9084754 91.6324522,11.4155273 92.2376391,11.4121355 C92.8422619,11.4098872 93.33521,11.8977592 93.3380476,12.502382 Z" id="Stroke-173" stroke="#231F20" stroke-width="0.1"></path>
                        <path d="M93.3121419,12.502946 C93.3138339,12.215863 93.114737,11.9654408 92.8930796,11.85151 C92.666346,11.7387073 92.4542768,11.6834339 92.2388235,11.6913301 C92.0250623,11.6964062 91.8129931,11.766908 91.6392768,11.9107315 C91.4734567,12.0579391 91.3409135,12.2615481 91.2901522,12.5130983 C91.238827,12.7623924 91.3268131,13.0522955 91.5309862,13.2265758 C91.7362872,13.4076242 92.0233702,13.4234166 92.2467197,13.3861917 C92.4757093,13.3461467 92.6815744,13.2863612 92.9026678,13.1617142 C93.1237612,13.0443993 93.3228581,12.7900291 93.3121419,12.502946 M93.3640311,12.502382 C93.358391,12.7894651 93.3239862,13.1064408 93.1389896,13.3957799 C92.9573772,13.6811709 92.5952803,13.8599633 92.2489758,13.8204824 C91.8981592,13.7877696 91.6138962,13.5711882 91.4125433,13.3461467 C91.2072422,13.1182851 91.0566505,12.8390983 91.0041972,12.5142263 C90.9494879,12.1904824 91.0487543,11.8233093 91.2890242,11.563863 C91.5185779,11.2976484 91.8750346,11.1295723 92.2360035,11.1340844 C92.5947163,11.1369045 92.9534291,11.3151329 93.1344775,11.607292 C93.3222941,11.8960671 93.3617751,12.2147349 93.3640311,12.502382" id="Fill-175" fill="#000000"></path>
                        <path d="M93.3121419,12.502946 C93.3138339,12.215863 93.114737,11.9654408 92.8930796,11.85151 C92.666346,11.7387073 92.4542768,11.6834339 92.2388235,11.6913301 C92.0250623,11.6964062 91.8129931,11.766908 91.6392768,11.9107315 C91.4734567,12.0579391 91.3409135,12.2615481 91.2901522,12.5130983 C91.238827,12.7623924 91.3268131,13.0522955 91.5309862,13.2265758 C91.7362872,13.4076242 92.0233702,13.4234166 92.2467197,13.3861917 C92.4757093,13.3461467 92.6815744,13.2863612 92.9026678,13.1617142 C93.1237612,13.0443993 93.3228581,12.7900291 93.3121419,12.502946 Z M93.3640311,12.502382 C93.358391,12.7894651 93.3239862,13.1064408 93.1389896,13.3957799 C92.9573772,13.6811709 92.5952803,13.8599633 92.2489758,13.8204824 C91.8981592,13.7877696 91.6138962,13.5711882 91.4125433,13.3461467 C91.2072422,13.1182851 91.0566505,12.8390983 91.0041972,12.5142263 C90.9494879,12.1904824 91.0487543,11.8233093 91.2890242,11.563863 C91.5185779,11.2976484 91.8750346,11.1295723 92.2360035,11.1340844 C92.5947163,11.1369045 92.9534291,11.3151329 93.1344775,11.607292 C93.3222941,11.8960671 93.3617751,12.2147349 93.3640311,12.502382 Z" id="Stroke-177" stroke="#231F20" stroke-width="0.1"></path>
                        <path d="M97.2475606,12.4830927 C97.2503685,13.0882796 96.7624965,13.5812277 96.1573097,13.5840652 C95.5521228,13.5874318 95.0591747,13.0989958 95.0563372,12.494373 C95.0529706,11.8891862 95.5419706,11.3962381 96.1465934,11.3928462 C96.7512163,11.3905979 97.2441644,11.8784699 97.2475606,12.4830927" id="Fill-179" fill="#FFFFFF"></path>
                        <path d="M97.2475606,12.4830927 C97.2503685,13.0882796 96.7624965,13.5812277 96.1573097,13.5840652 C95.5521228,13.5874318 95.0591747,13.0989958 95.0563372,12.494373 C95.0529706,11.8891862 95.5419706,11.3962381 96.1465934,11.3928462 C96.7512163,11.3905979 97.2441644,11.8784699 97.2475606,12.4830927 Z" id="Stroke-181" stroke="#231F20" stroke-width="0.1"></path>
                        <path d="M97.2210962,12.4836567 C97.2233522,12.1965737 97.0236913,11.9467156 96.8020339,11.8322208 C96.5753003,11.719418 96.3637952,11.6641446 96.1477779,11.6720408 C95.9340166,11.6765529 95.7219474,11.7476187 95.5482311,11.8908782 C95.3824111,12.0386498 95.2498678,12.2422588 95.1991066,12.493809 C95.1477813,12.7431031 95.2363315,13.0330062 95.4405045,13.2072865 C95.6458055,13.3883349 95.9328886,13.4041273 96.1562381,13.3669024 C96.3852277,13.3268574 96.5910927,13.267072 96.8121862,13.1429889 C97.0327156,13.02511 97.2323765,12.7713038 97.2210962,12.4836567 M97.2735495,12.4830927 C97.2673453,12.7701758 97.2329405,13.0871516 97.0479439,13.3764907 C96.8668955,13.6618817 96.5042346,13.840674 96.1579301,13.8011931 C95.8071135,13.7690443 95.5228505,13.551899 95.3220616,13.3268574 C95.1161965,13.0989958 94.9656048,12.819809 94.9137156,12.494937 C94.8584422,12.1711931 94.9582727,11.8040201 95.1985426,11.5445737 C95.4275322,11.2783592 95.7845529,11.110283 96.1449578,11.1147952 C96.5036706,11.1176152 96.8629474,11.2958436 97.0434318,11.5885668 C97.2312484,11.8773419 97.2707294,12.1954457 97.2735495,12.4830927" id="Fill-183" fill="#000000"></path>
                        <path d="M97.2210962,12.4836567 C97.2233522,12.1965737 97.0236913,11.9467156 96.8020339,11.8322208 C96.5753003,11.719418 96.3637952,11.6641446 96.1477779,11.6720408 C95.9340166,11.6765529 95.7219474,11.7476187 95.5482311,11.8908782 C95.3824111,12.0386498 95.2498678,12.2422588 95.1991066,12.493809 C95.1477813,12.7431031 95.2363315,13.0330062 95.4405045,13.2072865 C95.6458055,13.3883349 95.9328886,13.4041273 96.1562381,13.3669024 C96.3852277,13.3268574 96.5910927,13.267072 96.8121862,13.1429889 C97.0327156,13.02511 97.2323765,12.7713038 97.2210962,12.4836567 Z M97.2735495,12.4830927 C97.2673453,12.7701758 97.2329405,13.0871516 97.0479439,13.3764907 C96.8668955,13.6618817 96.5042346,13.840674 96.1579301,13.8011931 C95.8071135,13.7690443 95.5228505,13.551899 95.3220616,13.3268574 C95.1161965,13.0989958 94.9656048,12.819809 94.9137156,12.494937 C94.8584422,12.1711931 94.9582727,11.8040201 95.1985426,11.5445737 C95.4275322,11.2783592 95.7845529,11.110283 96.1449578,11.1147952 C96.5036706,11.1176152 96.8629474,11.2958436 97.0434318,11.5885668 C97.2312484,11.8773419 97.2707294,12.1954457 97.2735495,12.4830927 Z" id="Stroke-185" stroke="#231F20" stroke-width="0.1"></path>
                        <path d="M120.505956,41.2698516 C120.505956,41.2698516 120.465911,41.2732356 120.387513,41.2760557 C120.306296,41.2783118 120.190109,41.2811318 120.040081,41.2845159 C119.731565,41.2907201 119.282046,41.2991803 118.703932,41.3098965 C117.540372,41.327945 115.86243,41.3533256 113.78968,41.3849104 C109.636846,41.4396197 103.905901,41.5146336 97.5759737,41.5975436 C95.1208215,41.6268723 92.7559114,41.655073 90.5833301,41.6810176 L90.538209,41.6810176 L90.537645,41.6364606 C90.4880118,37.0042149 90.4451467,33.0200211 90.414126,30.1903637 C90.4028457,28.779201 90.3396761,23.2524294 90.333472,22.4791664 C90.3317799,22.096201 90.3306519,21.8000938 90.3295239,21.5959208 C90.3300879,21.4977824 90.3306519,21.4233325 90.3306519,21.3686232 C90.3312159,21.3172979 90.333472,21.2913533 90.333472,21.2913533 C90.333472,21.2913533 90.3368561,21.3172979 90.3385481,21.3686232 C90.3402401,21.4227685 90.3424962,21.4977824 90.3447522,21.5959208 C90.3492644,21.7995298 90.3554685,22.095637 90.3633647,22.4786024 C90.375773,23.2518654 90.4479668,28.779201 90.4705273,30.1892356 C90.5094443,33.0188931 90.5641536,37.0036509 90.6273232,41.6353325 L90.5822021,41.5913394 C92.7547834,41.5637028 95.1196934,41.534374 97.5748457,41.5033533 C103.904773,41.4311595 109.636846,41.3657339 113.789116,41.3183567 C115.861866,41.2997443 117.539808,41.2839519 118.703932,41.2732356 C119.281482,41.2698516 119.731001,41.2675955 120.040081,41.2659035 L120.387513,41.2659035 C120.465911,41.2670315 120.505956,41.2698516 120.505956,41.2698516" id="Fill-187" fill="#1A2E35"></path>
                        <path d="M90.4237706,41.7986145 L90.4215145,41.5966976 L90.3013796,41.4793827 L90.4203865,41.4776907 L90.2985595,30.1917737 C90.2923554,29.3841059 90.2686668,27.230137 90.2483623,25.3891958 C90.2331339,24.0124381 90.2201616,22.8110886 90.2173415,22.4800125 L90.2145215,21.3948498 C90.2156495,21.3102478 90.2184696,21.281483 90.2184696,21.281483 L90.319992,20.1624796 L90.4485872,21.278663 C90.4485872,21.278663 90.4525353,21.3074277 90.4542273,21.3643931 L90.4790439,22.4760644 C90.4841201,22.8015003 90.5004765,23.9661889 90.5179609,25.31249 C90.5433415,27.1686595 90.5732343,29.3700055 90.5862066,30.1878256 L90.7413104,41.4737426 L97.57321,41.3874484 L113.78748,41.2024519 L120.38757,41.1505626 C120.471044,41.1511266 120.513909,41.1539467 120.513909,41.1539467 L120.516729,41.3851924 C120.516729,41.3851924 120.474428,41.3885765 120.391518,41.3913965 L118.706245,41.4258014 L113.791428,41.5013792 L90.7452585,41.7946664 L90.7469505,41.9142374 L90.6262516,41.7963585 L90.4237706,41.7986145 Z" id="Fill-189" fill="#1A2E35"></path>
                        <polygon id="Fill-191" fill="#FFFFFF" points="96.0264585 40.6540612 93.0039083 40.6907221 92.9666834 37.668172 95.9892336 37.6315111"></polygon>
                        <polygon id="Fill-193" fill="#FFFFFF" points="100.457577 40.5995211 97.4350266 40.636182 97.3712931 35.4528948 100.394407 35.4162339"></polygon>
                        <polygon id="Fill-195" fill="#FFFFFF" points="104.906349 40.544981 101.884363 40.5816419 101.790736 32.9437664 104.813287 32.9065415"></polygon>
                        <polygon id="Fill-197" fill="#FFFFFF" points="109.219645 40.4921329 106.197094 40.5293578 106.069627 30.1588353 109.092178 30.1216104"></polygon>
                        <polygon id="Fill-199" fill="#FFFFFF" points="113.633166 40.4381567 110.610616 40.4748176 110.440283 26.6062813 113.462834 26.5684924"></polygon>
                        <polygon id="Fill-201" fill="#FFFFFF" points="118.011436 40.2409211 114.988886 40.277582 114.788097 23.8839557 117.811211 23.8472948"></polygon>
                        <path d="M92.9287139,34.5689653 C92.9276536,34.5677315 92.940626,34.5575792 92.9665706,34.5389668 C92.9964633,34.5180983 93.0348163,34.4904616 93.0833215,34.4566208 C93.1916121,34.3821709 93.3438958,34.2767003 93.5401727,34.1424651 C93.9451346,33.8683543 94.5277609,33.4741087 95.2587228,32.9794685 C96.734183,31.9890602 98.8058059,30.5987661 101.209069,28.9856865 L101.277879,28.9400014 L101.279007,29.0223474 C101.284083,29.4509979 101.290287,29.9089772 101.296491,30.3754166 L101.224297,30.3381917 C101.981204,29.8164789 102.765183,29.2767176 103.568339,28.7239841 C106.797882,26.5085377 109.720602,24.5034685 111.841294,23.0488768 C112.899384,22.3286311 113.757249,21.7454408 114.354539,21.3382228 C114.648955,21.13969 114.879636,20.9851502 115.04038,20.8774235 C115.116522,20.8272263 115.175744,20.7877453 115.219737,20.7589806 C115.26091,20.733036 115.282342,20.7200637 115.283482,20.7211239 C115.284034,20.7228837 115.264858,20.7386761 115.225377,20.7668768 C115.182512,20.7978976 115.124982,20.8396346 115.051661,20.8926519 C114.892045,21.0043266 114.665311,21.1639426 114.374844,21.3686796 C113.782065,21.7809737 112.92984,22.3731882 111.879083,23.1041502 C109.762903,24.564382 106.845259,26.5773474 103.62192,28.801254 C102.8182,29.3539875 102.034221,29.8931848 101.276751,30.4143336 L101.205121,30.4634028 L101.203993,30.3765446 C101.198917,29.9101052 101.193276,29.452126 101.188764,29.0234754 L101.258702,29.0601363 C98.8481069,30.6619356 96.7702799,32.0426415 95.2903076,33.0262817 C94.5531415,33.5113336 93.9654391,33.8988111 93.5570931,34.1672817 C93.3574322,34.2975689 93.2017644,34.3979633 93.0923457,34.4690291 C93.0415844,34.5011779 93.0021035,34.5259945 92.9710827,34.5451709 C92.943446,34.5620913 92.9293457,34.5699875 92.9287139,34.5689653" id="Fill-203" fill="#1A2E35"></path>
                        <path d="M92.8775692,34.6751761 C92.8617768,34.6672799 92.8459844,34.6543076 92.8324481,34.6334391 C92.7687145,34.5403768 92.8629048,34.4715671 92.8984377,34.4456225 L93.4748599,34.0474287 L101.071562,28.9380273 L101.070434,28.8308647 L101.16124,28.8782419 L101.390794,28.7237021 L101.394178,29.0006329 L101.485548,29.0491381 L101.39587,29.1089235 L101.408279,30.0705671 L111.775981,22.9538405 L115.15668,20.6622522 C115.220413,20.6210792 115.315732,20.5607298 115.379465,20.6577401 C115.442071,20.7519304 115.356341,20.814536 115.294299,20.8602211 L114.442074,21.4631519 L109.20577,25.0891969 L101.413355,30.4603007 L101.415047,30.5674633 L101.325933,30.5212142 L101.091867,30.6819581 L101.089047,30.3982592 L100.999369,30.35201 L101.087355,30.2916606 L101.076074,29.3209927 L93.032673,34.6430273 C93.0056003,34.6605118 92.9362266,34.7028128 92.8775692,34.6751761" id="Fill-205" fill="#1A2E35"></path>
                        <path d="M115.298755,22.0008263 C115.286911,22.0008263 115.273374,21.8598228 115.262658,21.6285772 C115.251378,21.3973315 115.241226,21.0752796 115.236149,20.7154388 L115.284091,20.7616879 C115.246866,20.7622519 115.207949,20.7628159 115.168468,20.7633799 C114.78099,20.767892 114.430738,20.766764 114.176931,20.7616879 C113.923125,20.7560478 113.765764,20.7458955 113.765764,20.7329232 C113.765201,20.7205149 113.922561,20.7064145 114.175803,20.6951343 C114.42961,20.68329 114.779862,20.6737017 115.16734,20.6691896 C115.206821,20.6686256 115.245738,20.6680616 115.282963,20.6674976 L115.329776,20.6669336 L115.33034,20.7143107 C115.333724,21.0741516 115.332032,21.3962035 115.326392,21.6274491 C115.320752,21.8592588 115.311163,22.0008263 115.298755,22.0008263" id="Fill-207" fill="#1A2E35"></path>
                        <path d="M115.257977,22.071328 C115.208908,22.0476394 115.200447,21.9540131 115.185219,21.6325253 C115.175067,21.4215841 115.166607,21.1429612 115.160966,20.8400858 C114.788717,20.8445979 114.439029,20.8440339 114.17507,20.8383938 C113.726679,20.8288055 113.690018,20.8214734 113.688326,20.7340512 C113.688326,20.6471931 113.723859,20.6381689 114.17225,20.6178644 C114.435081,20.6054561 114.784769,20.5964318 115.157018,20.5919197 L115.15589,20.5293142 L115.219624,20.5907917 L115.406312,20.5890997 L115.40744,20.7131827 C115.40744,20.7340512 115.408004,20.7543557 115.408004,20.7746602 L115.471174,20.8367017 L115.408569,20.8372657 C115.410261,21.1401412 115.408569,21.417636 115.403492,21.6297052 C115.393904,22.0262069 115.387136,22.0775322 115.299714,22.0780962 C115.283357,22.0780962 115.269821,22.0764042 115.257977,22.071328" id="Fill-209" fill="#1A2E35"></path>
                        <path d="M133.474439,49.3582612 L133.474439,49.3582612 C132.897453,49.8399291 132.03846,49.7637872 131.556228,49.186237 L124.906505,40.8862093 L126.99674,39.1400225 L133.646464,47.4400502 C134.128131,48.0170363 134.050862,48.8760294 133.474439,49.3582612" id="Fill-211" fill="#125BB2"></path>
                        <path d="M126.917215,37.5382232 C126.270291,39.0176315 124.908761,40.1027941 123.405664,40.6927526 C121.496478,41.4400709 119.552322,40.9646073 118.243246,39.7457734 C117.293446,38.8613997 116.677543,37.5850363 116.648215,36.0988599 C116.574893,32.1953201 120.946564,29.1885623 124.499851,30.9888945 C126.788619,32.1485069 127.947104,35.1885415 126.917215,37.5382232 M126.246038,29.259628 C121.239851,26.7226938 115.08082,30.9595657 115.184599,36.4598287 C115.224644,38.5528841 116.093225,40.3509602 117.429938,41.5957388 C119.276519,43.3142889 122.017062,43.9837734 124.70628,42.9296315 C126.823588,42.0988391 128.739543,40.5709256 129.65381,38.4868945 C131.103325,35.1766972 129.471069,30.8935761 126.246038,29.259628" id="Fill-213" fill="#125BB2"></path>
                        <path d="M132.771058,49.1258311 C132.940826,48.9797516 133.073369,48.793063 133.155715,48.5860699 C133.232421,48.3773848 133.25893,48.1500872 133.227345,47.9312498 C133.194632,47.7129765 133.108338,47.5031633 132.972975,47.3317031 C132.834791,47.1619349 132.679688,46.9904747 132.533608,46.8195785 C131.936317,46.1399419 131.344667,45.4552291 130.776705,44.7513398 C130.201975,44.0525266 129.640217,43.3435612 129.083535,42.6300837 C128.524034,41.9199903 127.967352,41.2065128 127.41913,40.4873952 L127.57085,40.5054436 L125.386425,42.1320595 L125.396577,42.0480215 C125.957771,42.7688311 126.519528,43.4879488 127.112871,44.1816858 C127.702265,44.8793709 128.304632,45.5657758 128.879362,46.2753052 C129.456912,46.9820145 130.005134,47.7124125 130.545459,48.4501426 C130.682515,48.630627 130.814494,48.8240837 130.956061,48.9944159 C131.099885,49.160236 131.290521,49.2882671 131.502027,49.3604609 C131.712404,49.4349107 131.943649,49.4484471 132.165871,49.4106581 C132.3864,49.3677931 132.595649,49.2685266 132.771058,49.1258311 M132.790234,49.1495197 C132.437162,49.4484471 131.931241,49.5533536 131.483978,49.4168623 C131.261193,49.3491806 131.049688,49.2313017 130.883867,49.0615336 C130.721996,48.8912014 130.58212,48.7163571 130.429836,48.5448969 C129.828034,47.857364 129.234691,47.163063 128.670677,46.4445093 C128.103843,45.7287758 127.564646,44.9904817 127.012476,44.2629038 C126.464255,43.5319419 125.884449,42.8269246 125.304079,42.1219073 L125.26629,42.0762221 L125.313667,42.0384332 L127.437179,40.3322913 L127.518397,40.2663017 L127.589463,40.3497758 C128.172089,41.0423848 128.746255,41.7406339 129.317601,42.4411391 C129.891767,43.1405163 130.460857,43.8427135 131.017539,44.555627 C131.580425,45.2634644 132.119622,45.9899142 132.653179,46.7220042 C132.787414,46.9058727 132.922213,47.081845 133.057013,47.2724817 C133.191248,47.4659384 133.263442,47.694928 133.289951,47.9233536 C133.33902,48.385845 133.145563,48.8579246 132.790234,49.1495197" id="Fill-215" fill="#1A2E35"></path>
                        <path d="M116.726951,41.3866024 C115.281383,40.0611699 114.435927,38.1209623 114.393626,36.1440938 C114.377833,35.6488896 114.42239,35.1525574 114.507556,34.6641215 C114.600055,34.1756855 114.743314,33.6985298 114.923235,33.2349104 C115.108795,32.7735471 115.345117,32.3336163 115.61246,31.914554 C115.88657,31.4994398 116.197906,31.1097062 116.535186,30.7453533 C117.893896,29.2958377 119.78447,28.3330661 121.773183,28.1734502 C122.268951,28.1288931 122.769231,28.1480696 123.262743,28.207291 C123.757383,28.2653844 124.239615,28.3951076 124.708875,28.5535955 C125.644574,28.8869277 126.502439,29.429509 127.207456,30.1192979 C128.617491,31.5079 129.439823,33.4340073 129.532885,35.3945194 C129.571802,36.3747754 129.418954,37.3708239 129.041629,38.2867824 C128.655844,39.1965367 128.080549,40.025637 127.377224,40.7221941 C127.02246,41.0679346 126.639494,41.3832183 126.23566,41.6691734 C125.833518,41.9562564 125.408252,42.2123187 124.962681,42.4260799 C124.518238,42.6437893 124.062515,42.8316059 123.589307,42.9827616 C123.113844,43.122073 122.627664,43.2303637 122.133588,43.2658965 C121.148255,43.3527547 120.147695,43.2264156 119.222712,42.8975955 C118.762477,42.7272633 118.313522,42.5264744 117.896716,42.2687201 C117.479909,42.0120938 117.087356,41.7182426 116.726951,41.3866024 M116.747819,41.3646059 C117.108788,41.6911699 117.49965,41.9844571 117.917584,42.2337512 C118.338338,42.4790972 118.785601,42.67481 119.248093,42.8225817 C120.173639,43.1136128 121.158408,43.1999069 122.113283,43.0775159 C122.592695,43.0256266 123.05857,42.8959035 123.517113,42.7582841 C123.971709,42.6037443 124.416716,42.4119796 124.845366,42.1931422 C125.702667,41.7543394 126.508079,41.2089381 127.202944,40.5428377 C127.901193,39.8818135 128.485511,39.0967062 128.887653,38.2196647 C129.285283,37.3414952 129.462383,36.3657512 129.428543,35.3984675 C129.402598,34.4294917 129.165712,33.4689761 128.767518,32.5862945 C128.371017,31.7030488 127.800799,30.894817 127.093525,30.2388689 C126.386252,29.5806647 125.539103,29.0899727 124.631605,28.7797651 C123.720722,28.4763256 122.751183,28.369727 121.797435,28.4560211 C119.886556,28.6325574 118.081712,29.5778446 116.761356,30.9591145 C115.440435,32.3437685 114.611899,34.2106543 114.592722,36.1424017 C114.576366,37.1057374 114.747826,38.0769692 115.111615,38.9771353 C115.47484,39.8767374 116.042238,40.6934294 116.747819,41.3646059" id="Fill-217" fill="#1A2E35"></path>
                        <path d="M118.232304,39.756264 C117.204671,38.817181 116.593844,37.4426792 116.550979,36.0320806 C116.536314,35.679008 116.564515,35.3248073 116.623736,34.9745547 C116.688598,34.6254301 116.789556,34.2836377 116.91646,33.9514336 C117.178162,33.2887173 117.58256,32.6891706 118.066484,32.1691498 C119.036588,31.1308003 120.390221,30.4449595 121.813792,30.3338488 C122.523321,30.2751913 123.244695,30.3716377 123.911923,30.6119076 C124.58028,30.8516135 125.191107,31.2441671 125.690823,31.7388073 C126.691383,32.7348557 127.26837,34.1048453 127.339435,35.4996516 C127.3682,36.1973367 127.263293,36.9068661 126.998207,37.5628142 C126.726916,38.2136862 126.320262,38.8081567 125.819982,39.307873 C125.311806,39.797437 124.734255,40.2210114 124.097484,40.5250149 C123.780508,40.6795547 123.455072,40.8120979 123.1161,40.9192606 C122.777127,41.017963 122.428003,41.0912848 122.075494,41.1144093 C120.661511,41.2356723 119.246401,40.7038073 118.232304,39.756264 M118.253172,39.7342675 C118.509235,39.9660772 118.786729,40.1736343 119.083401,40.3496066 C119.382328,40.5210668 119.700432,40.6603782 120.028688,40.7619007 C120.685764,40.9626896 121.382321,41.017963 122.05519,40.9260287 C122.393598,40.8876758 122.72129,40.7917934 123.04447,40.694219 C123.364266,40.5848003 123.678421,40.448309 123.980169,40.2915131 C124.584792,39.9796135 125.154446,39.5983401 125.645702,39.1285166 C126.140342,38.6643332 126.556584,38.1138557 126.844231,37.4956965 C127.129058,36.8775374 127.258781,36.1883125 127.235657,35.5035997 C127.198432,34.131918 126.578581,32.7827969 125.576328,31.8583782 C125.074356,31.3958869 124.474245,31.0546585 123.834653,30.8380772 C123.191678,30.626572 122.508657,30.5549422 121.838044,30.6169837 C120.492871,30.7438869 119.224404,31.4122433 118.292089,32.3834751 C117.362594,33.358655 116.775456,34.6682952 116.748947,36.0315166 C116.731463,36.7117173 116.84765,37.3986862 117.099764,38.0382779 C117.352442,38.6778696 117.754584,39.2571118 118.253172,39.7342675" id="Fill-219" fill="#1A2E35"></path>
                        <path d="M158.986139,57.2775796 C160.490364,57.2770156 161.922959,56.3007076 162.476257,54.9166176 C162.61162,54.5720052 162.706374,54.2116003 162.744163,53.8438633 C162.7718,53.4778183 162.76052,53.0999291 162.759392,52.7237318 L162.746419,50.4676765 L162.693402,41.441199 L162.580035,23.389936 L162.457644,5.33867301 C162.4458,4.5721782 162.497689,3.8508045 162.230911,3.1988045 C161.995153,2.54172837 161.558042,1.95515398 160.995156,1.54342388 C160.436783,1.12436159 159.753198,0.875631488 159.057205,0.838970588 C158.340343,0.818102076 157.563132,0.836150519 156.818634,0.832766436 L147.79272,0.851942907 L111.68963,0.930904844 L75.5859765,0.960797578 C74.1488692,0.944441176 72.756883,1.86378374 72.2047135,3.1988045 C72.0699142,3.53100865 71.9745958,3.87900519 71.9334228,4.23715398 C71.9018381,4.5885346 71.9091702,4.96924394 71.9080422,5.34544118 L71.9040941,7.60149654 L71.89789,16.627974 L71.9040941,34.679801 L72.0157689,52.731064 C72.0270491,53.4902266 71.9745958,54.2313408 72.2498346,54.9030813 C72.4923606,55.5776419 72.9413156,56.1794446 73.5199938,56.601891 C74.0913398,57.0316696 74.7957931,57.2849118 75.5087066,57.3170606 C76.2362844,57.335109 77.0061633,57.3148045 77.7534817,57.3159325 L86.7788311,57.2685554 C110.846994,57.1252958 134.917412,57.3435692 158.986139,57.2775796 M158.986703,57.333981 C134.917412,57.3932024 110.84925,57.7366869 86.7805232,57.7180744 L77.7546097,57.7175104 C76.9971391,57.7118702 76.2622291,57.7304827 75.486146,57.7051021 C74.6993467,57.661109 73.9243917,57.3734619 73.3005924,56.8940502 C72.6705889,56.4230986 72.184973,55.7603824 71.9272187,55.0187042 C71.7958035,54.6492751 71.7145855,54.2601055 71.7027412,53.8681159 C71.6835647,53.4766903 71.6982291,53.1112093 71.694281,52.732192 L71.7174055,34.6803651 L71.6350595,16.6291021 L71.5842983,7.60318858 L71.5696339,5.3465692 C71.5685059,4.97093599 71.5549696,4.59868685 71.5871183,4.19992907 C71.6282913,3.80850346 71.7303779,3.42610208 71.8753294,3.06005709 C72.468108,1.59136505 73.9915093,0.560911765 75.5842844,0.565423875 L111.687938,0.408064014 L147.790464,0.299209343 L156.816378,0.271572664 C157.576669,0.274956747 158.303682,0.254652249 159.090482,0.277212803 C159.894201,0.317821799 160.690025,0.607724913 161.327361,1.09898097 C161.973156,1.58008478 162.470053,2.25859343 162.735139,3.01775606 C162.869938,3.39677336 162.953412,3.79440311 162.966949,4.19654498 C162.986125,4.59699481 162.970897,4.9551436 162.974281,5.33641696 L162.941568,23.3882439 L162.916188,41.4406349 L162.907727,50.4665484 L162.905471,52.7231678 C162.903779,53.098801 162.913931,53.4738702 162.878399,53.8585277 C162.833842,54.238109 162.731191,54.6097941 162.586803,54.9628668 C161.995153,56.3830536 160.512361,57.3554135 158.986703,57.333981" id="Fill-221" fill="#231F20"></path>
                    </g>
                </g>
            </g>
        </g>
    </g>
</svg>