<?xml version="1.0" encoding="UTF-8"?>
<svg width="220px" height="185px" viewBox="0 0 220 185" version="1.1" xmlns="http://www.w3.org/2000/svg" xmlns:xlink="http://www.w3.org/1999/xlink">
    <!-- Generator: Sketch 57.1 (83088) - https://sketch.com -->
    <title>02</title>
    <desc>Created with Sketch.</desc>
    <defs>
        <rect id="path-1" x="0" y="0" width="220" height="185" rx="6"></rect>
        <polygon id="path-3" points="0.0226007028 0.0908042758 23.0183409 0.0908042758 23.0183409 11.677686 0.0226007028 11.677686"></polygon>
        <polygon id="path-5" points="0.0405625205 0.19527686 46.4200164 0.19527686 46.4200164 31.7805702 0.0405625205 31.7805702"></polygon>
        <polygon id="path-7" points="0 161.346045 156.531595 161.346045 156.531595 0.648760331 0 0.648760331"></polygon>
    </defs>
    <g id="Page-1" stroke="none" stroke-width="1" fill="none" fill-rule="evenodd">
        <g id="02">
            <mask id="mask-2" fill="white">
                <use xlink:href="#path-1"></use>
            </mask>
            <use id="Mask" fill="#DBEAFF" xlink:href="#path-1"></use>
            <g id="Group-136" mask="url(#mask-2)">
                <g transform="translate(23.000000, 35.000000)">
                    <path d="M68.4763285,16.987919 C66.8920558,22.3012661 65.3077831,27.615262 63.7235103,32.9279603 C63.5061756,33.6545719 63.2881921,34.396105 63.3011674,35.1545058 C63.3420393,37.3992165 65.4673781,39.1631959 67.6757583,39.5777537 C69.8815434,39.9942579 72.1392293,39.3915595 74.3021963,38.7940512 C74.8899731,41.0828777 77.5693533,42.0462868 79.889969,42.4835512 C90.1994194,44.4265884 92.3052955,26.8964355 89.8289773,20.192795 C81.7473698,20.5496132 84.5519607,20.4263488 76.4710021,20.7831669 C75.0411343,20.8460967 73.5697459,20.9031876 72.2209731,20.4218074 C70.8741467,19.941076 69.6655062,18.7836876 69.5707872,17.3551174" id="Fill-1" stroke="none" fill="#263238" fill-rule="evenodd"></path>
                    <path d="M99.9874612,10.8487649 C102.304833,15.8857401 105.40461,24.7192607 107.722631,29.756236 C108.039874,30.4445707 108.360362,31.1478269 108.453783,31.9003888 C108.730804,34.1288806 106.874052,36.1737731 104.747416,36.8964921 C102.622077,37.6198599 100.30211,37.340893 98.0762132,37.0554384 C97.8167091,39.4033021 95.3008165,40.7345583 93.0645397,41.4949054 C83.132019,44.8717029 78.5757752,27.8144963 80.0821967,20.828645 C88.1333124,20.0423475 85.3391017,20.3154756 93.3895686,19.5291781 C94.8135975,19.3903434 96.2791471,19.2391822 97.546176,18.5729054 C98.8119074,17.9066285 99.8453826,16.5902938 99.7370397,15.1623723" id="Fill-3" stroke="none" fill="#263238" fill-rule="evenodd"></path>
                    <path d="M96.6213682,42.3465979 C96.6213682,42.3465979 96.1438806,50.9485112 88.322426,50.7039285 C86.6330541,50.6455401 85.1992938,50.2608252 83.9867607,49.665912 C79.5810293,47.5451145 78.1005583,42.882474 78.1005583,42.882474 C81.8302814,41.9274988 81.8302814,35.0616682 81.8302814,35.0616682 L92.1105376,35.3646393 C92.1105376,35.3646393 92.0988599,36.134069 92.2156368,37.1480814 C92.3791244,38.5117756 92.7638393,40.3062467 93.7311409,41.2975525 C95.4205128,43.0226062 96.6213682,42.3465979 96.6213682,42.3465979" id="Fill-5" stroke="none" fill="#FFFFFF" fill-rule="evenodd"></path>
                    <path d="M96.6213682,42.3465979 C95.8765913,42.6884946 94.992331,42.3868211 94.3565459,41.9255525 C94.0321657,41.6848624 93.7207607,41.4318459 93.4567153,41.1165483 C93.1965624,40.8018996 92.9902566,40.4476764 92.8215789,40.0804781 C92.4842236,39.3428376 92.2824591,38.5558913 92.1384343,37.7657012 C92.0008971,36.9716186 91.930831,36.1742921 91.9178558,35.3620442 L92.1053475,35.5573211 L86.9626244,35.4716847 L81.8218475,35.3523128 L82.1202773,35.0616682 C82.1105459,35.8576971 82.0365872,36.6284244 81.9172153,37.4049905 C81.7997897,38.1789616 81.614893,38.9470938 81.3553888,39.6957632 C81.0965335,40.4431351 80.7520417,41.1820731 80.2271946,41.8172095 C79.7153227,42.4555897 79.0029839,42.9726517 78.179707,43.1919326 L78.4054756,42.7864574 C79.137926,44.8021558 80.4107938,46.7088624 82.0800541,48.0952632 C83.750612,49.4998293 85.8707607,50.3133748 88.0596781,50.4496145 C88.6059343,50.4801062 89.1489467,50.4359905 89.6958517,50.4282054 L90.4983682,50.2835318 C90.6320128,50.2575814 90.7682525,50.2407136 90.8993021,50.2076269 L91.2827194,50.072036 C92.3278723,49.7612798 93.2575459,49.1306847 94.0101079,48.3411434 C95.5353434,46.7503831 96.3307236,44.5465442 96.6213682,42.3465979 M96.6213682,42.3465979 C96.4663145,44.5647095 95.7410004,46.8230442 94.2326326,48.5480979 C93.4826657,49.4025153 92.5056326,50.0876062 91.4144178,50.4470194 L91.0108888,50.6007756 C90.8727029,50.6390525 90.7306244,50.6611103 90.5904921,50.6922508 L89.746455,50.8654698 C89.1768434,50.8901227 88.6026905,50.9498087 88.0324302,50.9309946 C86.8958021,50.8777963 85.7513888,50.6812219 84.676393,50.2679616 C83.6026946,49.8592426 82.6003599,49.2701682 81.7102607,48.5455029 C80.818864,47.8208376 80.0422979,46.9631764 79.3922401,46.0237715 C78.740236,45.0785277 78.190736,44.0872219 77.7962897,42.979788 L77.6860004,42.6696806 L78.0214095,42.573664 C78.6922277,42.3803335 79.2754632,41.9625318 79.7321905,41.4117343 C80.1960541,40.8641806 80.5230293,40.1888211 80.7708558,39.4881599 C81.27105,38.0874864 81.4935748,36.5544657 81.5402855,35.0616682 L81.5493682,34.7619409 L81.839364,34.7716723 L86.9781946,34.9546227 L92.1163764,35.1719574 L92.3058145,35.1797426 L92.3038682,35.3672343 C92.2954343,36.1450979 92.3447401,36.9391806 92.4589219,37.7150979 C92.5679136,38.4923128 92.7333475,39.2662839 93.0278847,39.9903004 C93.1758021,40.3510112 93.3587525,40.6980979 93.5936037,41.0069079 C93.8271574,41.312474 94.1268847,41.5797632 94.4305045,41.8230483 C95.0325541,42.2908045 95.8571285,42.6456764 96.6213682,42.3465979" id="Fill-7" stroke="none" fill="#353535" fill-rule="evenodd"></path>
                    <path d="M84.3133467,38.0688669 C84.3133467,38.0688669 81.3530533,42.0554992 82.1218343,44.4332058 C82.9029417,46.8109124 84.7674789,49.0251314 86.6093095,49.2703628 L83.9870202,49.6661066 C79.5812888,47.5446603 78.1008178,42.8826686 78.1008178,42.8826686 C81.8305409,41.9270446 81.8305409,35.0618628 81.8305409,35.0618628 L92.1107971,35.3648339 C92.1107971,35.3648339 92.0991194,36.1342636 92.2158963,37.148276 C91.0273674,37.835962 87.961326,39.2346893 84.3133467,38.0688669" id="Fill-9" stroke="none" fill="#CBECF4" fill-rule="evenodd"></path>
                    <path d="M65.0931731,120.462662 L63.1695988,127.03655 L62.167264,130.42762 C62.167264,130.42762 39.8349872,117.198748 39.3224665,107.745662 C38.8092971,98.30555 44.4042062,78.5254963 44.4042062,78.5254963 C44.4042062,78.5254963 45.6978343,79.1898269 47.6914748,79.982612 C49.0902021,80.5535211 50.8269335,81.1717897 52.714826,81.6843103 C57.4118508,82.9779384 58.7872227,83.3392979 58.7872227,83.3392979 C58.7872227,83.3392979 53.0645079,102.081335 54.4398798,109.296199 C55.8152517,116.511062 65.0931731,120.462662 65.0931731,120.462662" id="Fill-11" stroke="none" fill="#FFFFFF" fill-rule="evenodd"></path>
                    <path d="M65.0640438,120.47661 C63.4700397,119.80125 61.9039322,118.885201 60.4597917,117.86535 C59.0091636,116.83966 57.6753124,115.628424 56.5626884,114.223209 C55.4565521,112.820589 54.5898083,111.183767 54.2290975,109.402271 C53.8936884,107.616234 53.9676471,105.819817 54.068205,104.043511 C54.3491182,100.49025 55.0056636,96.9934322 55.7744446,93.5329446 C56.5620397,90.0737545 57.4346223,86.6398661 58.4700438,83.2423083 L58.7029488,83.6601099 L55.0393992,82.6454488 C53.819081,82.3003083 52.5961678,81.986957 51.3732545,81.610676 C50.1555314,81.2330975 48.9527298,80.8055645 47.7758785,80.3170479 C46.5990273,79.8363165 45.4345025,79.3257421 44.2920355,78.7438041 L44.6410686,78.5919942 C43.2222298,83.6153455 41.9402793,88.6893 40.9269157,93.8145066 C40.4351554,96.379705 39.9901058,98.956581 39.7104901,101.553569 L39.5385686,103.502445 C39.4847215,104.152502 39.4762876,104.805155 39.4425521,105.455213 C39.4438496,106.754031 39.388705,108.075556 39.7740686,109.298469 C40.1399694,110.528519 40.7679694,111.672932 41.4829033,112.745982 C42.2049736,113.818383 43.018519,114.833044 43.898238,115.786721 C45.6421058,117.710296 47.5637339,119.475573 49.5690521,121.137697 C53.5582793,124.489841 57.8556678,127.482573 62.2665893,130.261213 L61.9817835,130.3728 L63.509614,125.43249 L65.0640438,120.47661 Z M65.1224322,120.448713 L63.7606843,125.461684 C63.3078496,127.16468 62.8225769,128.814478 62.3535231,130.483089 L62.2860521,130.723131 L62.0687174,130.594676 C59.8071388,129.262771 57.6097876,127.84004 55.4636884,126.333618 C53.3169405,124.831738 51.214957,123.26044 49.1947174,121.584693 C47.1887504,119.895321 45.2502545,118.109932 43.5115769,116.131213 C42.6409405,115.143151 41.8358289,114.093457 41.1234901,112.980833 C40.4163413,111.86756 39.797424,110.677734 39.4457959,109.390593 C39.0714612,108.091775 39.1700727,106.74949 39.1869405,105.447428 C39.2265149,104.793478 39.2414364,104.136932 39.3017711,103.484928 L39.4925066,101.528916 C39.8142917,98.9293331 40.2236595,96.3446719 40.7011471,93.7716884 C41.6632587,88.6263702 42.8212959,83.521924 44.1681223,78.4589983 L44.2440273,78.1741926 L44.5165066,78.3071884 C45.641457,78.8560397 46.8066306,79.3445562 47.9834818,79.799986 C49.1557917,80.257362 50.3456182,80.6719198 51.5490686,81.0339281 C52.7505727,81.3939901 53.9845149,81.700205 55.2041843,82.0349653 L58.8716264,83.018486 L59.1998992,83.1067174 L59.1045314,83.4362876 C58.1223083,86.821519 57.2114488,90.2398372 56.4245025,93.6782669 C56.0449777,95.4020231 55.6738868,97.1277256 55.3767545,98.864457 C55.0484818,100.596647 54.8077917,102.341164 54.6248413,104.088924 C54.4937917,105.835387 54.3925851,107.603907 54.682581,109.312093 C54.9946347,111.016387 55.7971512,112.612337 56.8520355,114.000684 C57.9075686,115.398114 59.2148207,116.593779 60.6064116,117.667478 C62.0142215,118.73923 63.4953413,119.657874 65.1224322,120.448713 L65.1224322,120.448713 Z" id="Fill-13" stroke="none" fill="#353535" fill-rule="evenodd"></path>
                    <path d="M135.749726,107.745986 C135.376688,114.681234 123.266279,123.632829 116.832523,127.922432 C114.500879,129.483998 112.904279,130.427945 112.904279,130.427945 L109.990697,120.462986 C109.990697,120.462986 111.820201,119.68123 113.97668,118.178052 C114.046746,118.131341 114.116164,118.085279 114.186879,118.03792 C114.186879,118.026891 114.186879,118.026891 114.197907,118.026891 C116.843552,116.150027 119.897267,113.200763 120.631664,109.296523 C122.007036,102.08166 115.643345,83.2578785 115.643345,83.2578785 C115.643345,83.2578785 116.972655,82.896519 119.990697,82.0687008 C120.690052,81.8825066 121.482837,81.672957 122.369044,81.4283744 C126.937614,80.1691306 130.679664,78.5258207 130.679664,78.5258207 C130.679664,78.5258207 136.273924,98.3052256 135.749726,107.745986" id="Fill-15" stroke="none" fill="#FFFFFF" fill-rule="evenodd"></path>
                    <path d="M135.716833,107.744688 C135.825176,105.26837 135.565672,102.792701 135.243887,100.341036 C134.898098,97.8887215 134.446561,95.4526264 133.925606,93.0308041 C133.409193,90.6096306 132.840879,88.199486 132.247912,85.7958289 C131.645862,83.3947669 131.020457,80.9963 130.361966,78.6153496 L130.811557,78.8274942 C128.371569,79.8681058 125.886168,80.7517174 123.349515,81.5042793 C122.078594,81.8792628 120.807024,82.1965066 119.536751,82.5416471 L115.72723,83.5666884 L115.94716,83.1553744 C116.920949,86.1630273 117.818185,89.1862504 118.588263,92.2477504 C119.360288,95.3079529 120.047974,98.3928083 120.51573,101.518536 C120.755123,103.08075 120.905635,104.657887 120.958185,106.240862 C120.937424,107.033647 120.971809,107.82773 120.836218,108.617271 C120.774586,109.412002 120.559846,110.18792 120.291259,110.935292 C119.739813,112.433279 118.843875,113.777511 117.800019,114.964742 C116.750325,116.151325 115.552065,117.201019 114.266222,118.122259 L114.23573,118.143668 L114.198102,118.143668 L114.198751,118.143668 C114.201346,118.139126 114.213672,118.154697 114.269466,118.111879 C114.314879,118.057383 114.299309,118.040515 114.30385,118.038569 L114.30385,118.03792 L114.305148,118.098255 L114.251949,118.136531 C113.589565,118.595205 112.909664,119.048688 112.208354,119.457407 C111.507044,119.86937 110.798598,120.262519 110.051226,120.604416 L110.138809,120.419519 L113.162032,130.352688 L112.768234,130.196337 L116.226776,127.973036 C117.377676,127.228259 118.499383,126.435474 119.626929,125.655015 C121.874883,124.081771 124.060557,122.421593 126.180705,120.680969 C128.289176,118.929317 130.31785,117.068023 132.098697,114.979664 C132.986201,113.935808 133.802342,112.823184 134.458887,111.619734 C134.793648,111.021577 135.068073,110.392928 135.301627,109.749358 C135.51442,109.098002 135.666879,108.427833 135.716833,107.744688 M135.782358,107.748581 C135.738243,108.438862 135.590974,109.117465 135.383371,109.776606 C135.154358,110.427961 134.883825,111.064395 134.552957,111.670986 C133.908738,112.893899 133.082218,114.005874 132.230395,115.087358 C130.498854,117.237998 128.512999,119.167412 126.446048,120.992374 C124.379098,122.820581 122.187586,124.499573 119.953904,126.114337 C117.733197,127.75116 115.367168,129.175188 113.041362,130.658903 L112.74423,130.848341 L112.646267,130.503201 L109.842325,120.505804 L109.805995,120.374106 L109.929908,120.320259 C110.660412,120.003664 111.380536,119.632573 112.078602,119.235531 C112.779912,118.835895 113.450081,118.396036 114.121548,117.940606 L114.069648,118.03792 L114.069648,118.02754 C114.074189,118.021701 114.058619,118.001589 114.105978,117.94385 C114.164367,117.899085 114.181234,117.914007 114.187073,117.909465 L114.198102,117.909465 L114.130631,117.930874 C115.411284,117.029098 116.612139,116.004705 117.652102,114.834341 C118.675846,113.654246 119.547131,112.324936 120.076519,110.856792 C120.331482,110.122395 120.542329,109.366589 120.588391,108.586131 C120.707763,107.815403 120.658457,107.028457 120.665594,106.247998 C120.584499,104.684486 120.404792,103.124866 120.141395,101.576924 C119.622387,98.4797421 118.884747,95.4201884 118.062767,92.3859364 C117.230408,89.3562256 116.340309,86.3349488 115.33992,83.3603826 L115.232226,83.0392463 L115.55985,82.9484198 L123.157482,80.8483826 C125.664292,80.1126884 128.1458,79.239457 130.546214,78.2234983 L130.895895,78.0762298 L130.997102,78.435643 C131.665325,80.8321636 132.255048,83.2410107 132.805846,85.6628331 C133.367672,88.080114 133.858784,90.5149116 134.296048,92.9587917 C134.737854,95.4007256 135.12711,97.8536884 135.400887,100.320924 C135.681152,102.783618 135.921842,105.265126 135.782358,107.748581" id="Fill-17" stroke="none" fill="#353535" fill-rule="evenodd"></path>
                    <path d="M78.6994289,42.3846153 C78.6994289,42.3846153 81.7771479,49.9770574 87.6776231,50.0659376 C93.825276,50.1587103 95.2090818,46.1519665 96.0018669,42.36645 C125.114338,42.0466112 134.039983,80.5083674 134.039983,80.5083674 C134.039983,80.5083674 130.855867,81.9979211 127.769065,82.9178632 C124.47466,83.8994376 117.486214,85.8191194 117.486214,85.8191194 L118.099941,138.798834 L56.3139537,138.798834 L57.5738463,85.9034583 C57.5738463,85.9034583 51.2010736,84.4048219 47.9183463,83.3285285 C43.1123298,81.7533384 41.3152636,80.2131814 41.3152636,80.2131814 C41.3152636,80.2131814 49.0465405,42.3106566 78.6994289,42.3846153" id="Fill-19" stroke="none" fill="#66CAF3" fill-rule="evenodd"></path>
                    <path d="M78.6994289,42.3846153 C78.6994289,42.3846153 81.7771479,49.9770574 87.6776231,50.0659376 C93.825276,50.1587103 95.2090818,46.1519665 96.0018669,42.36645 C125.114338,42.0466112 134.039983,80.5083674 134.039983,80.5083674 C134.039983,80.5083674 130.855867,81.9979211 127.769065,82.9178632 C124.47466,83.8994376 117.486214,85.8191194 117.486214,85.8191194 L118.099941,138.798834 L56.3139537,138.798834 L57.5738463,85.9034583 C57.5738463,85.9034583 51.2010736,84.4048219 47.9183463,83.3285285 C43.1123298,81.7533384 41.3152636,80.2131814 41.3152636,80.2131814 C41.3152636,80.2131814 49.0465405,42.3106566 78.6994289,42.3846153 Z" id="Stroke-21" stroke="#231F20" stroke-width="0.1" fill="none"></path>
                    <path d="M59.2632182,80.4270777 C59.5000157,78.1038669 59.9236562,75.8124455 60.4913215,73.5554083 C60.792995,72.4311066 61.1563008,71.3217264 61.4501893,70.1961273 C61.7466727,69.0724744 61.9899579,67.9345488 62.2319455,66.7959744 C62.7016479,64.5149331 63.2758008,62.2546521 63.9751645,60.0307017 C64.7063174,57.8177802 65.5269992,55.6210777 66.6402719,53.5645074 C66.6493545,53.5476397 66.6688174,53.5430983 66.6843876,53.5508835 C66.6986603,53.5586686 66.7051479,53.5755364 66.6999579,53.5898091 C65.9681562,55.8027306 65.3012306,58.0156521 64.6356025,60.2357099 L62.5751397,66.8855033 C62.2261066,67.9942347 61.9140529,69.1146438 61.6545488,70.2467306 C61.4073711,71.3820612 61.2283132,72.532962 61.0181149,73.6760777 C60.5549,75.9519289 59.9904785,78.2031273 59.3267967,80.4400529 C59.3222554,80.4575694 59.3034413,80.4673008 59.2865736,80.4621107 C59.2716521,80.4575694 59.2619207,80.4419992 59.2632182,80.4270777" id="Fill-23" stroke="none" fill="#1A2E35" fill-rule="evenodd"></path>
                    <path d="M113.982065,79.7377698 L113.084829,77.5164145 L112.220032,75.2879227 L110.489788,70.8387244 C109.919528,69.353712 109.324614,67.8803773 108.71997,66.4115839 C108.42673,65.6719971 108.100404,64.9479806 107.773429,64.223964 L107.279073,63.1372905 C107.096123,62.7850136 106.919011,62.4275467 106.746441,62.0655384 C107.707904,63.3487864 108.461763,64.773464 109.174751,66.2052781 C109.891631,67.6383897 110.507953,69.1156169 111.094433,70.6032244 C111.668586,72.0947244 112.214193,73.5966045 112.688437,75.1231376 C113.169817,76.6457781 113.625247,78.17815 113.982065,79.7377698" id="Fill-25" stroke="none" fill="#1A2E35" fill-rule="evenodd"></path>
                    <path d="M96.6213682,65.2661326 C96.2956905,68.5073393 95.5022566,71.6953475 94.4376409,74.7821492 C93.3697814,77.8715459 91.9230459,80.8337855 90.1454426,83.5897194 C89.245612,84.9618475 88.2179756,86.248988 87.1202731,87.4680087 C86.0245169,88.6883269 84.8165252,89.813926 83.5027855,90.7974467 C82.2059136,91.8030252 80.7896698,92.6457649 79.3267153,93.373674 L78.2114963,93.8842483 L77.0657855,94.3189178 C76.3132236,94.6355128 75.5094095,94.8048393 74.7347897,95.0442318 C77.8047236,93.9776698 80.705331,92.4543806 83.1952731,90.4049467 C85.7059756,88.3873021 87.846236,85.9304467 89.6043764,83.2329012 C91.3969012,80.5528723 92.8157401,77.6308558 93.9705335,74.6108764 C94.5544178,73.1031574 95.0623971,71.5636492 95.5022566,70.0040293 C95.9537938,68.4463558 96.3320211,66.8666244 96.6213682,65.2661326" id="Fill-27" stroke="none" fill="#1A2E35" fill-rule="evenodd"></path>
                    <path d="M85.1894975,71.675755 C84.8138653,73.6064657 84.0885512,75.4560814 83.1400636,77.17335 C82.6398694,78.0186847 82.0851793,78.8302839 81.528543,79.6334492 C81.0043446,80.4573748 80.445762,81.257945 79.9033983,82.0766806 C78.7992083,83.7031227 77.4147537,85.1407756 75.8694066,86.3760153 C74.2935678,87.5827095 72.4647124,88.4390731 70.5774686,88.9522426 C70.5599521,88.9574326 70.5417868,88.9470525 70.5372455,88.929536 C70.5327041,88.9146145 70.5424355,88.8983955 70.5554107,88.8912591 C72.295386,87.9907798 73.9568612,87.0461847 75.4451174,85.8297591 C76.9405099,84.6353913 78.3392372,83.3132178 79.6231339,81.8573996 C80.2465926,81.1184616 80.8616174,80.3600607 81.3514314,79.5199161 C81.607043,79.1073045 81.8380017,78.681069 82.0404149,78.2379657 C82.251262,77.8000525 82.473138,77.3699244 82.6612785,76.9235773 C83.5001256,75.1816558 84.3389727,73.4462219 85.1272165,71.6582384 C85.1337041,71.6407219 85.1518694,71.6329368 85.169386,71.6394244 C85.1836587,71.6446145 85.1914438,71.6614822 85.1894975,71.675755" id="Fill-29" stroke="none" fill="#1A2E35" fill-rule="evenodd"></path>
                    <path d="M78.8229529,42.0697719 C74.3153661,42.0983174 69.7435521,43.1058421 65.7141017,45.1734413 C61.6684322,47.2248215 58.139176,50.2039289 55.2379198,53.676743 C52.3217421,57.1476107 49.9738785,61.0706645 48.0619818,65.1760198 C46.1663041,69.287214 44.6391223,73.5988752 43.6471678,77.9994165 L43.5518,77.7217471 C44.5852752,78.4983132 45.8451678,79.099714 47.081705,79.6239124 C48.3331636,80.1481107 49.6209529,80.5840777 50.928205,80.9661975 C53.5498455,81.7194083 56.2071678,82.3934702 58.8664364,83.0286066 L59.1213992,83.0895901 L59.1149116,83.3490942 L57.8939446,133.545627 L57.5974612,133.242007 L116.231122,133.406144 L116.098775,133.539788 L115.985242,120.970706 L115.806833,108.400974 L115.435742,83.2641066 L115.433147,83.100619 L115.592742,83.0558545 L123.533569,80.7994661 C124.86223,80.4283752 126.179862,80.0605281 127.459217,79.5713628 C128.741168,79.0951727 130.012089,78.5677306 131.252519,77.9961727 L131.115631,78.2783835 C129.969271,73.8635694 128.313635,69.5577471 126.313507,65.4504455 C124.308837,61.3437926 121.918155,57.4064661 118.970188,53.9128917 C116.035197,50.4245074 112.520862,47.3746851 108.453783,45.2954083 C104.402275,43.1953711 99.8291636,42.1567058 95.2625397,42.2008215 L95.4325149,42.061338 C95.2242628,43.0351273 94.9803289,44.0108628 94.6098868,44.9483215 C94.2413909,45.8831851 93.7327628,46.7856107 93.0171802,47.5154661 C92.3087339,48.2511603 91.3985231,48.7799 90.4305727,49.0724909 C89.4619736,49.375462 88.4479612,49.4656397 87.4482215,49.4526645 C85.4026802,49.4487719 83.5037587,48.4049165 82.1063289,46.9990529 C80.6965727,45.5918917 79.5904364,43.864243 78.8229529,42.0697719 M78.8592835,42.0159248 C79.6955355,43.8454289 80.790643,45.5094992 82.2133744,46.8894124 C83.6159942,48.2576479 85.4792339,49.237276 87.4501678,49.2106769 C88.4323909,49.2093793 89.4185066,49.1049289 90.3442876,48.8000116 C91.2687711,48.5022306 92.1205934,47.9929537 92.7894653,47.2948876 C94.1479694,45.8825364 94.6890355,43.9005736 95.0880231,41.9893256 L95.1172174,41.8511397 L95.2586471,41.8491934 C99.8758744,41.7778298 104.524891,42.8028711 108.649709,44.9113421 C112.790098,46.9984041 116.370606,50.0709331 119.359445,53.5833215 C122.356717,57.1021975 124.810329,61.055743 126.832515,65.1974289 C128.827453,69.3579289 130.463626,73.6812678 131.600255,78.1654992 L131.650858,78.3614248 L131.463366,78.4464124 C130.199581,79.0205653 128.922821,79.5415198 127.622056,80.0164124 C126.323887,80.5029826 124.984845,80.8695322 123.662023,81.2360818 L115.705626,83.4671686 L115.862626,83.2589165 L116.074122,108.398379 L116.186358,120.968111 L116.363469,133.536545 L116.365416,133.670189 L116.231122,133.670838 L57.5974612,133.834326 L57.2938413,133.835623 L57.3016264,133.531355 L58.4713413,83.333524 L58.7191678,83.6553091 C56.0488702,83.0130364 53.3863579,82.3603835 50.7472008,81.5773298 C49.425676,81.1835322 48.1177752,80.7287512 46.8442587,80.1850901 C45.5707421,79.627805 44.3303124,79.0419744 43.175519,78.1609579 L43.0399281,78.057805 L43.0801512,77.8832884 C44.1233579,73.4133298 45.6888165,69.1094537 47.6305562,64.9742554 C49.5878661,60.8513835 51.983738,56.9153545 54.9518165,53.4347554 C57.9088661,49.959995 61.4841843,46.9523421 65.5999198,44.9457264 C69.711114,42.9209455 74.2712504,41.9588339 78.8592835,42.0159248" id="Fill-31" stroke="none" fill="#1A2E35" fill-rule="evenodd"></path>
                    <path d="M126.67532,136.434622 L52.8340682,136.434622 L51.158969,91.0745971 C51.1155021,89.8983946 52.0763161,88.9220103 53.275874,88.9220103 L126.232217,88.9220103 C127.433072,88.9220103 128.393238,89.8983946 128.349771,91.0745971 L126.67532,136.434622 Z" id="Fill-33" stroke="none" fill="#125BB2" fill-rule="evenodd"></path>
                    <path d="M123.364372,134.337504 L124.622318,92.0856901 L124.704062,89.4562645 C124.72093,88.9949959 124.750124,88.623905 124.60545,88.2748719 C124.472455,87.9258388 124.226574,87.6202727 123.911926,87.4204545 C123.591438,87.2154463 123.242405,87.1239711 122.833037,87.137595 L121.511512,87.1388926 L118.869112,87.1408388 L108.29886,87.1499215 L87.1603017,87.1311074 L66.021095,87.0616901 L55.4514917,87.0117355 L52.8097397,86.9994091 L51.4882149,86.9929215 C51.0658719,86.9747562 50.6707769,87.075314 50.3295289,87.2984876 C49.9889298,87.5164711 49.7242355,87.8473388 49.5815083,88.2249174 C49.425157,88.6037934 49.4588926,89.0125124 49.4744628,89.4640496 L49.5620455,92.1045041 C49.8033843,99.1474463 50.001905,106.191037 50.2795744,113.232033 L51.133343,134.353723 L50.9335248,134.16169 L68.9976074,134.096814 C75.0090207,134.05724 81.0379504,134.110438 87.0688264,134.133793 L105.177025,134.21424 L123.364372,134.337504 Z M123.409136,134.384215 L105.371004,134.508777 L87.2524256,134.589223 C81.2079256,134.611281 75.1608306,134.665128 69.0968678,134.624905 L50.9335248,134.560678 L50.740843,134.560029 L50.7343554,134.367996 L50.0589959,113.239818 C49.8267397,106.197525 49.5153347,99.1571777 49.2473967,92.1161818 L49.1429463,89.476376 C49.1240582,89.0540331 49.0793678,88.5570826 49.2610207,88.1048967 C49.4271033,87.6579008 49.7372107,87.2654008 50.1374959,87.0052479 C50.5306446,86.7386074 51.0321364,86.615343 51.4882149,86.6322107 L52.8097397,86.6257231 L55.4514917,86.6133967 L66.021095,86.5634421 L87.1603017,86.4940248 L108.29886,86.4758595 L118.869112,86.4842934 L121.511512,86.4862397 L122.833037,86.4875372 C123.302091,86.4674256 123.848347,86.599124 124.262905,86.883281 C124.688492,87.1615992 125.018062,87.5787521 125.193227,88.0549421 C125.284702,88.2923884 125.326872,88.5460537 125.337901,88.7977727 C125.345686,89.0637645 125.324277,89.2525537 125.319087,89.4835124 L125.210095,92.1356446 L123.409136,134.384215 Z" id="Fill-35" stroke="none" fill="#1A2E35" fill-rule="evenodd"></path>
                    <path d="M121.520725,150.659795 C121.520725,150.659795 122.92075,149.311671 125.834332,149.530303 C127.72482,149.672382 132.938258,151.424683 135.487237,151.643316 C138.037514,151.861948 140.743493,151.574547 141.981977,153.89646 C144.082663,157.837031 142.672258,161.052936 138.446882,161.125597 C136.148324,161.165171 134.426514,159.473853 130.783076,159.462175 C127.253171,159.451795 121.92101,157.726093 120.589105,155.066824" id="Fill-37" stroke="none" fill="#FE5356" fill-rule="evenodd"></path>
                    <path d="M116.764663,148.437272 C116.764663,148.437272 119.496593,149.530433 121.354642,149.821726 C123.212043,150.11302 127.451692,150.076689 129.222159,151.460495 C131.140543,152.960429 130.023378,156.378098 128.639572,157.070326 C126.404593,158.187491 124.778799,157.325288 121.063349,155.722202 C117.34725,154.119764 112.794898,154.119764 112.794898,154.119764" id="Fill-39" stroke="none" fill="#FFBE9D" fill-rule="evenodd"></path>
                    <path d="M32.7888012,116.320457 C26.3998095,115.868271 21.1033302,121.388572 22.097231,127.715283 C22.1121525,127.809353 22.127074,127.903424 22.1445905,127.998791 C23.8112558,137.524539 35.4792103,143.477564 49.5300616,146.811543 C63.5796153,150.145523 116.921987,156.575386 116.921987,156.575386 C116.921987,156.575386 119.541681,153.955692 119.303586,147.049638 C119.303586,147.049638 106.886314,142.985155 90.9650864,134.66675 C71.0961525,124.285287 53.6237393,117.795738 32.7888012,116.320457" id="Fill-41" stroke="none" fill="#FFFFFF" fill-rule="evenodd"></path>
                    <path d="M32.7907475,116.287564 C36.6327062,116.567829 40.4629872,117.003796 44.2679665,117.612982 C48.0709996,118.239036 51.8454872,119.034416 55.5810492,119.993283 C63.0489293,121.929833 70.3228302,124.58456 77.3768012,127.701854 C80.9086525,129.253688 84.3736814,130.950197 87.8218426,132.673953 C91.2570285,134.433391 94.6630202,136.205155 98.1306442,137.870523 C105.058107,141.201259 112.14257,144.247837 119.389223,146.787085 L119.57931,146.85261 L119.579958,147.040102 L119.585797,148.306482 C119.564388,148.728825 119.553359,149.151168 119.522219,149.573511 C119.444367,150.414953 119.351595,151.257693 119.16021,152.085511 C118.978557,152.913329 118.742409,153.733362 118.411541,154.51966 C118.067049,155.30466 117.684929,156.058519 117.081582,156.735176 L117.010219,156.814325 L116.895388,156.799403 C106.864256,155.516155 96.8376649,154.212147 86.8214541,152.820556 C76.8039459,151.448428 66.7780037,150.134688 56.7935822,148.490081 L53.0554252,147.82575 C51.8117517,147.588953 50.5726194,147.311932 49.334136,147.045292 C46.8694955,146.451027 44.423669,145.778263 42.0128756,144.984829 C39.6105161,144.165445 37.2483798,143.222796 34.9595533,142.11666 C32.6856483,140.983275 30.4818095,139.677321 28.5011442,138.071639 C26.5243715,136.473742 24.7506607,134.567036 23.5387764,132.313242 L23.0872393,131.468556 L22.7453426,130.573916 C22.6376483,130.274188 22.503355,129.982246 22.4177186,129.675383 L22.1971401,128.743763 C22.1303178,128.432358 22.03495,128.126143 21.9927806,127.810845 C21.9545037,127.493602 21.9337434,127.173114 21.9032517,126.85587 C21.8578384,126.538626 21.8896277,126.218139 21.8948178,125.898949 L21.910388,125.420812 C21.9246607,125.262515 21.9551525,125.104866 21.9765616,124.947217 C22.2918591,122.404077 23.7055079,120.067891 25.6848756,118.487511 C27.6564583,116.864312 30.2677186,116.13316 32.7907475,116.287564 M32.7862062,116.35244 C30.27745,116.214255 27.6947351,116.955788 25.7529955,118.573147 C23.8028219,120.145742 22.4209624,122.468304 22.1647021,124.971221 C22.145888,125.125626 22.1186401,125.280031 22.1063136,125.436383 L22.099826,125.904788 C22.1004748,126.218139 22.0732269,126.530841 22.1238302,126.841598 C22.1582145,127.151705 22.1835161,127.46311 22.2269831,127.772569 C22.273045,128.083325 22.3723054,128.381755 22.4430202,128.686023 L22.6739789,129.596234 C22.7628591,129.895312 22.8997475,130.178821 23.0100368,130.471412 L23.3590698,131.342048 L23.8157971,132.161432 C25.0413054,134.345808 26.8091773,136.183746 28.7801112,137.721308 C30.7607764,139.255626 32.932826,140.540172 35.1918095,141.638523 C37.4624707,142.719358 39.8142269,143.623081 42.1964748,144.43468 C44.5858591,145.230709 47.014169,145.909961 49.461293,146.511362 C51.9162021,147.073188 54.3938178,147.553271 56.8772723,148.013242 C66.8240657,149.792143 76.8318426,151.260936 86.8493508,152.616845 C96.8733467,153.931234 106.907074,155.184639 116.949235,156.35111 L116.762392,156.415986 C117.267776,155.83794 117.658979,155.081486 117.970384,154.33606 C118.279843,153.578957 118.500421,152.785523 118.66845,151.98106 C118.845562,151.177895 118.927305,150.355267 118.995425,149.534585 C119.021376,149.123271 119.027863,148.71066 119.044731,148.298697 L119.026566,147.059564 L119.217301,147.312581 C111.90188,144.822639 104.807037,141.785143 97.8374045,138.482304 C94.352264,136.832507 90.9371897,135.025709 87.517574,133.273407 C84.0810905,131.547056 80.6290368,129.849899 77.1114583,128.296767 C70.1022517,125.141845 62.8984169,122.404077 55.4934665,120.318312 C51.7851525,119.29911 48.0327227,118.43561 44.2439624,117.75506 C40.4480657,117.119924 36.6242723,116.658655 32.7862062,116.35244" id="Fill-43" stroke="none" fill="#353535" fill-rule="evenodd"></path>
                    <g id="Group-49" stroke="none" stroke-width="1" fill="none" fill-rule="evenodd" transform="translate(31.140496, 149.668360)">
                        <mask id="mask-4" fill="white">
                            <use xlink:href="#path-3"></use>
                        </mask>
                        <g id="Clip-48"></g>
                        <path d="M22.0640145,1.27208926 C22.0640145,1.27208926 20.6289566,-0.108472727 17.6440103,0.115349587 C15.706812,0.260671901 10.3662169,2.05579174 7.75365909,2.28026281 C5.14110124,2.50343636 2.5168657,2.20954793 1.03963843,4.13766364 C-1.74289463,7.76942397 1.61184504,11.6023 5.94102273,11.6769074 C8.29537397,11.7177793 8.8409814,10.3034818 12.5732996,10.2918041 C16.1907872,10.2807752 21.6533492,8.51225455 23.0183409,5.78810992" id="Fill-47" fill="#FE5356" mask="url(#mask-4)"></path>
                    </g>
                    <path d="M58.0771545,148.664079 C58.0771545,148.664079 55.2784025,149.783839 53.3749397,150.082917 C51.4708281,150.380698 47.1273777,150.343719 45.3134438,151.76126 C43.3477,153.298174 44.492762,156.800182 45.9103033,157.509277 C48.2004273,158.65369 49.8664438,157.770079 53.6733694,156.128066 C57.4796463,154.486054 62.1455306,154.486054 62.1455306,154.486054" id="Fill-50" stroke="none" fill="#FFBE9D" fill-rule="evenodd"></path>
                    <path d="M141.956675,116.320457 C148.345018,115.868271 153.642146,121.388572 152.647597,127.715283 C152.633324,127.809353 152.617754,127.903424 152.600886,127.998791 C150.934221,137.524539 139.265617,143.477564 125.215415,146.811543 C111.165861,150.145523 57.8228405,156.575386 57.8228405,156.575386 C57.8228405,156.575386 55.203795,153.955692 55.4418901,147.049638 C55.4418901,147.049638 67.8591628,142.985155 83.7797413,134.66675 C103.648675,124.285287 121.121088,117.795738 141.956675,116.320457" id="Fill-52" stroke="none" fill="#FFFFFF" fill-rule="evenodd"></path>
                    <path d="M141.958621,116.352181 C138.120555,116.659045 134.296762,117.120313 130.500865,117.754801 C126.712105,118.43535 122.960324,119.29885 119.25201,120.318053 C111.84706,122.403817 104.643225,125.142235 97.6333694,128.296507 C94.1164397,129.850288 90.664386,131.547445 87.2279025,133.273148 C83.8082868,135.02545 80.3938612,136.832247 76.9080719,138.482045 C69.9377909,141.784883 62.8429479,144.823028 55.5281752,147.31297 L55.7189107,147.059305 L55.7007455,148.298437 C55.7176132,148.7104 55.7241008,149.12366 55.7500512,149.534326 C55.8181711,150.355007 55.9005636,151.178284 56.0770264,151.980801 C56.2450554,152.785264 56.4656339,153.579346 56.7750926,154.33645 C57.0864975,155.081226 57.4770512,155.837681 57.9837331,156.415726 L57.7962413,156.35085 C67.8384025,155.184379 77.8721298,153.931623 87.8961256,152.616586 C97.9136339,151.261326 107.921411,149.791883 117.868204,148.013631 C120.351659,147.55366 122.829274,147.073578 125.283535,146.511102 C127.731307,145.91035 130.159617,145.231098 132.548353,144.434421 C134.93125,143.622821 137.282357,142.719747 139.553667,141.638912 C141.81265,140.539912 143.9847,139.256016 145.965365,137.721049 C147.93565,136.183487 149.704171,134.345549 150.929031,132.161173 L151.385758,131.341788 L151.734791,130.471801 C151.845729,130.178561 151.982617,129.895053 152.071498,129.595974 L152.301807,128.686412 C152.372522,128.381495 152.472431,128.083065 152.518493,127.772958 C152.56196,127.46285 152.586613,127.151445 152.622295,126.841338 C152.671601,126.530582 152.645002,126.217879 152.64565,125.905177 L152.638514,125.436123 C152.626188,125.280421 152.599588,125.125367 152.580774,124.970962 C152.325163,122.468693 150.942655,120.146131 148.992481,118.573536 C147.050741,116.956177 144.467378,116.213995 141.958621,116.352181 M141.95408,116.287305 C144.477758,116.1329 147.088369,116.864053 149.060601,118.487251 C151.03932,120.06828 152.453617,122.403817 152.768266,124.946958 C152.790324,125.104607 152.820167,125.262255 152.835737,125.421202 L152.85001,125.899338 C152.8552,126.217879 152.887638,126.538367 152.842225,126.855611 C152.811733,127.173503 152.790973,127.493991 152.752696,127.810586 C152.710526,128.125883 152.615159,128.432098 152.548336,128.744152 L152.327758,129.675123 C152.24277,129.982636 152.108477,130.273929 152.000783,130.574305 L151.658237,131.468945 L151.2067,132.313631 C149.994816,134.566776 148.221105,136.474131 146.244332,138.072028 C144.263018,139.677061 142.059828,140.983664 139.785274,142.1164 C137.497097,143.222536 135.13496,144.165185 132.732601,144.985218 C130.321807,145.778003 127.875332,146.451417 125.41134,147.045681 C124.172208,147.312321 122.933076,147.588693 121.690051,147.82614 L117.951894,148.489821 C107.966824,150.134429 97.9415306,151.448817 87.9233736,152.820297 C77.9078116,154.211888 67.8812207,155.515896 57.8500884,156.799793 L57.7346091,156.814065 L57.6632455,156.734917 C57.0598983,156.05826 56.6777785,155.3044 56.3345843,154.5194 C56.0030678,153.733102 55.766919,152.913069 55.5846174,152.085251 C55.3938818,151.258082 55.3011091,150.414693 55.2232579,149.573251 C55.1921174,149.151557 55.1804397,148.728565 55.1590306,148.306871 L55.1655182,147.040491 L55.1661669,146.852999 L55.3562537,146.786826 C62.6029066,144.247578 69.6880182,141.201648 76.6141835,137.870264 C80.0824562,136.205545 83.4884479,134.433131 86.9236339,132.673693 C90.371795,130.949937 93.8361752,129.254078 97.3686752,127.701594 C104.423295,124.584301 111.696547,121.930222 119.164427,119.993024 C122.899989,119.034805 126.674477,118.238776 130.47751,117.612722 C134.282489,117.003536 138.112121,116.567569 141.95408,116.287305" id="Fill-54" stroke="none" fill="#353535" fill-rule="evenodd"></path>
                    <path d="M86.4306409,37.1109074 C86.4306409,37.1109074 73.3003806,38.7950893 74.863893,12.8128868 L88.4911037,5.88542397 L99.7633145,12.8128868 C99.7633145,12.8128868 102.809893,38.6744198 86.4306409,37.1109074" id="Fill-58" stroke="none" fill="#FFFFFF" fill-rule="evenodd"></path>
                    <path d="M86.4312897,37.1109074 C87.7599508,37.2237917 89.1100211,37.1848661 90.4107855,36.8812463 C91.7083062,36.5808702 92.9500335,36.0229364 94.006864,35.2113372 C96.1549095,33.598519 97.4855169,31.1455562 98.30555,28.6368 C99.1359632,26.1079322 99.5167855,23.4525562 99.6828682,20.8017215 C99.8359756,18.1495893 99.7762897,15.4721554 99.4901864,12.8453248 L99.6192897,13.0470893 L88.3217773,6.16179587 L88.6370748,6.17412231 L74.9793723,13.0393041 L75.1175583,12.8278083 C74.9514756,15.3281306 74.8872483,17.8368868 75.0195955,20.3391554 C75.1584302,22.8375314 75.4717814,25.3391512 76.1607649,27.7505934 C76.8542897,30.144519 77.9299343,32.4975727 79.6945624,34.2978826 C81.4209136,36.0975438 83.9037194,37.258176 86.4312897,37.1109074 M86.4312897,37.1109074 C83.9043682,37.2808826 81.4014508,36.1390645 79.6485004,34.3432959 C77.8618145,32.542986 76.7569756,30.1918785 75.992736,27.7998992 C75.2460128,25.3878083 74.8742731,22.8745107 74.6789963,20.361862 C74.490207,17.8446719 74.4979921,15.3177504 74.6102277,12.7973165 L74.6167153,12.6545893 L74.7484136,12.5858207 L88.3444839,5.59737438 L88.5053764,5.51433306 L88.6610789,5.60970083 L99.9066905,12.5786843 L100.024765,12.6513455 L100.036443,12.7810975 C100.277781,15.4689116 100.269348,18.1521843 100.057852,20.8283207 C99.8307855,23.4986182 99.3876822,26.1682669 98.4930417,28.7010273 C97.601645,31.211081 96.215893,33.6530149 94.0483847,35.2671306 C92.9772814,36.075486 91.7225789,36.624986 90.4185707,36.9156306 C89.1113186,37.2082215 87.7586533,37.2348207 86.4312897,37.1109074" id="Fill-60" stroke="none" fill="#353535" fill-rule="evenodd"></path>
                    <path d="M91.3065289,109.135955 C91.3065289,111.710885 89.2188182,113.798595 86.6438884,113.798595 C84.0696074,113.798595 81.9818967,111.710885 81.9818967,109.135955 C81.9818967,106.561025 84.0696074,104.473314 86.6438884,104.473314 C89.2188182,104.473314 91.3065289,106.561025 91.3065289,109.135955" id="Fill-62" stroke="none" fill="#FFFFFF" fill-rule="evenodd"></path>
                    <path d="M80.8173601,22.9231029 C80.8147769,23.4297847 81.2416612,23.8488839 81.7710496,23.8605616 C82.2991405,23.872888 82.7292686,23.4732517 82.7318703,22.9659211 C82.7338099,22.459888 82.3069256,22.0401401 81.7788347,22.0278136 C81.250095,22.016136 80.8193182,22.4170698 80.8173601,22.9231029" id="Fill-64" stroke="none" fill="#1A2E35" fill-rule="evenodd"></path>
                    <path d="M80.0881653,21.4836335 C80.2101322,21.6049517 80.919876,21.0450715 81.9507562,21.0152285 C82.9803388,20.9717616 83.7530124,21.4784434 83.8607066,21.3486913 C83.913905,21.2909517 83.7860992,21.0690756 83.4500413,20.8400632 C83.117876,20.6110508 82.5579959,20.3956624 81.9150744,20.418369 C81.2734504,20.4423731 80.7408182,20.6953897 80.4378471,20.9471087 C80.1283884,21.2001252 80.0278306,21.4291376 80.0881653,21.4836335" id="Fill-66" stroke="none" fill="#1A2E35" fill-rule="evenodd"></path>
                    <path d="M91.1499713,23.0725773 C91.147388,23.5786103 91.5749211,23.9983583 92.1036607,24.010036 C92.6311029,24.0217136 93.0618798,23.6220773 93.0638378,23.1153955 C93.0664211,22.6087136 92.6395368,22.1896145 92.1107971,22.177288 C91.5827062,22.1656103 91.1519293,22.5658955 91.1499713,23.0725773" id="Fill-68" stroke="none" fill="#1A2E35" fill-rule="evenodd"></path>
                    <path d="M90.2275756,21.3607583 C90.3501913,21.4820764 91.0599351,20.9221963 92.0901665,20.8930021 C93.1197492,20.8488864 93.8924227,21.3555682 94.0007657,21.2258161 C94.0533153,21.1680764 93.926807,20.9468492 93.5888029,20.717188 C93.2572864,20.4881756 92.6974062,20.273436 92.0544847,20.2954938 C91.4128607,20.3201467 90.8802285,20.5725145 90.5766087,20.8242335 C90.2677988,21.07725 90.1672409,21.3069112 90.2275756,21.3607583" id="Fill-70" stroke="none" fill="#1A2E35" fill-rule="evenodd"></path>
                    <path d="M87.4962946,29.7642157 C87.4988897,29.7155587 86.9623649,29.6396537 86.0936748,29.5559636 C85.873745,29.5397446 85.6648442,29.503414 85.6226748,29.3541992 C85.5662326,29.1978479 85.6505715,28.9584554 85.7491831,28.6996 C85.9392698,28.1624264 86.1371417,27.5993025 86.3460426,27.0095793 C87.1725632,24.6033273 87.7642326,22.6278521 87.6669186,22.595414 C87.5696045,22.5623273 86.8202864,24.4865504 85.9944145,26.8928025 C85.795245,27.4857694 85.6051583,28.0508397 85.4248029,28.5919058 C85.3495467,28.8442736 85.2152533,29.1310256 85.337869,29.4560545 C85.4014475,29.6182446 85.5662326,29.7324264 85.7083112,29.766162 C85.8503897,29.8044388 85.9736541,29.8031413 86.0819971,29.8057364 C86.9545798,29.8264967 87.4949971,29.8128727 87.4962946,29.7642157" id="Fill-72" stroke="none" fill="#1A2E35" fill-rule="evenodd"></path>
                    <path d="M91.2520331,31.3975347 C91.0943843,31.3384975 90.7602727,32.4076545 89.6100207,32.8818983 C88.4597686,33.3600347 87.3575248,32.8864397 87.3030289,33.0330595 C87.2666983,33.0953405 87.4924669,33.3198116 87.968657,33.4820017 C88.4357645,33.6448405 89.1721074,33.7071215 89.8766612,33.4164769 C90.5792686,33.123886 91.0119917,32.5776298 91.184562,32.1500967 C91.3642686,31.716076 91.3266405,31.4137537 91.2520331,31.3975347" id="Fill-74" stroke="none" fill="#1A2E35" fill-rule="evenodd"></path>
                    <path d="M89.8354,17.3287777 C89.9456893,17.6064471 90.9713793,17.4410132 92.1852099,17.5493562 C93.4009868,17.6330463 94.3877512,17.9567777 94.5402099,17.7005174 C94.607681,17.5779017 94.4299207,17.3190463 94.0270405,17.0608397 C93.6280529,16.8019843 92.9961603,16.5632405 92.2676025,16.5048521 C91.5390446,16.4490587 90.8773091,16.5846496 90.4432884,16.7773314 C90.0047264,16.9700132 89.7880405,17.1970793 89.8354,17.3287777" id="Fill-76" stroke="none" fill="#1A2E35" fill-rule="evenodd"></path>
                    <path d="M80.3745281,18.4881773 C80.5626686,18.7171897 81.265276,18.4511979 82.1190446,18.4135698 C82.9715157,18.34545 83.7013711,18.5219128 83.8596686,18.2714913 C83.929086,18.1501731 83.8084165,17.9192145 83.4853339,17.7077186 C83.1674413,17.4968715 82.6406479,17.3327351 82.0541686,17.3677682 C81.468338,17.4053963 80.9661975,17.6337599 80.6768504,17.8822351 C80.3823132,18.1320079 80.290838,18.3765905 80.3745281,18.4881773" id="Fill-78" stroke="none" fill="#1A2E35" fill-rule="evenodd"></path>
                    <g id="Group-82" stroke="none" stroke-width="1" fill="none" fill-rule="evenodd" transform="translate(57.090909, 0.453483)">
                        <mask id="mask-6" fill="white">
                            <use xlink:href="#path-5"></use>
                        </mask>
                        <g id="Clip-81"></g>
                        <path d="M0.907745455,31.5078888 C1.45465041,31.5383806 2.26949339,31.4495004 3.14272479,31.0025045 C4.02309256,30.5717277 4.89372893,29.756236 5.58011736,28.6390707 C6.27818347,27.5322855 6.82054711,26.1621037 7.40248512,24.732236 C8.55468347,21.865364 9.42402231,19.2041492 10.0124479,17.2656533 C10.1052207,16.9581409 10.1889107,16.6778764 10.269357,16.4099384 C10.3212579,16.0790707 10.3744562,15.7851822 10.4315471,15.569145 C13.7960182,2.70617397 25.1006669,0.308355785 27.3369438,0.308355785 C29.7360595,0.308355785 33.9315926,-1.01057397 40.0474562,5.34468223 C41.0731463,6.41059545 41.8140306,7.48948388 42.3674231,8.54696322 C43.9439107,10.5256822 44.776919,12.710707 45.0928653,14.3559632 C45.4659025,16.2341244 46.4889975,17.1138434 46.4163364,17.1093021 C45.9991835,16.6915004 45.1006504,16.2516409 44.6218653,14.4669012 C44.3863653,13.5722607 44.0042455,12.518674 43.4391752,11.4307029 C44.3312207,15.4127938 42.811824,18.5346285 42.811824,18.5346285 L40.6177165,17.9306326 L32.763824,15.2577401 C33.4768116,12.8248888 32.4264686,9.8049095 31.8322041,8.39645083 L31.7731669,8.34260372 C29.9748033,17.5744632 19.8028901,18.5346285 19.8028901,18.5346285 L17.9513281,22.1410872 C7.50953058,19.9100004 9.73348099,22.4213517 9.80030331,19.5830252 C9.32735702,21.1835169 8.71038595,23.0208062 7.93706364,24.9463269 C7.35188182,26.3820335 6.78940661,27.7703806 6.02711322,28.9264715 C5.2816876,30.0858062 4.29297686,30.9557938 3.31789008,31.3703517 C2.34929091,31.8050211 1.45594793,31.8342153 0.882443802,31.7304136 C0.302452066,31.6188269 0.0280264463,31.4332814 0.0405625205,31.4066822 C0.0572206612,31.3599715 0.357596694,31.4702607 0.907745455,31.5078888" id="Fill-80" fill="#263238" mask="url(#mask-6)"></path>
                    </g>
                    <path d="M154.490336,43.0397335 L144.037509,43.0397335 C142.909315,43.0397335 141.99586,42.1262789 141.99586,40.9987335 L141.99586,30.5452583 C141.99586,29.4177128 142.909315,28.5036095 144.037509,28.5036095 L154.490336,28.5036095 C155.617881,28.5036095 156.531336,29.4177128 156.531336,30.5452583 L156.531336,40.9987335 C156.531336,42.1262789 155.617881,43.0397335 154.490336,43.0397335" id="Fill-83" stroke="none" fill="#FFFFFF" fill-rule="evenodd"></path>
                    <g id="Group-99" stroke="none" stroke-width="1" fill="none" fill-rule="evenodd" transform="translate(144.024793, 29.647698)">
                        <path d="M5.29758223,12.1768421 L5.29693347,12.1768421 C3.43174752,12.2066851 1.78065248,11.7214124 0.383871488,10.7352967 L0.383222727,10.6600405 C0.383222727,10.4537347 0.383222727,10.1410322 0.385817769,10.0943215 C0.610937603,7.66406529 3.09504091,7.11456529 5.13928471,7.08147851 L5.22492107,7.08212727 L5.29239215,7.07953223 C7.33663595,7.04709421 9.83695826,7.51549917 10.1399293,9.93083388 C10.1451194,9.98792479 10.1561483,10.3492843 10.1632847,10.5659702 L10.1639335,10.5769992 C8.79375165,11.5949041 7.11605744,12.1476479 5.29758223,12.1768421" id="Fill-85" fill="#FAFAFA"></path>
                        <path d="M5.11703223,0.874853306 C6.50537934,0.852795455 7.45516446,1.8544814 7.4791686,3.36803926 C7.50511901,4.99318388 6.48461901,6.33157645 5.20461488,6.35233678 C3.92461074,6.37309711 2.86194132,5.06779132 2.83599091,3.44264669 C2.81133802,1.92908884 3.72803636,0.896911157 5.11703223,0.874853306" id="Fill-87" fill="#FAFAFA"></path>
                        <path d="M5.29758223,12.1616612 C5.73095413,12.1519298 6.16302851,12.1097603 6.58796653,12.0299628 C7.01225579,11.945624 7.42875992,11.8307934 7.83228884,11.682876 C8.63869793,11.3837975 9.39255744,10.9659959 10.0724583,10.4547727 L10.010826,10.5819298 L9.99136322,10.156343 L9.98163182,9.94354959 L9.94075992,9.74243388 L9.90248306,9.54066942 L9.83695826,9.34604132 C9.81425165,9.28246281 9.79803264,9.21434298 9.76948719,9.15271074 L9.67736322,8.97040909 C9.55734256,8.72517769 9.38347479,8.51303306 9.19598306,8.3145124 C9.0921814,8.22628099 8.99162355,8.13156198 8.87938802,8.0511157 C8.76261116,7.97845455 8.65491694,7.89022314 8.52775992,7.83118595 C8.03794587,7.56584298 7.48714835,7.40819421 6.9285657,7.3069876 C6.36673926,7.20967355 5.79388388,7.16555785 5.21778471,7.16426033 C4.64103678,7.15517769 4.06428884,7.18372314 3.49856983,7.2907686 C2.93414835,7.39262397 2.3755657,7.56584298 1.88575165,7.86038017 C1.75794587,7.9252562 1.65025165,8.01997521 1.53412355,8.10171901 C1.4238343,8.18995041 1.32522273,8.29245455 1.22336736,8.3897686 C1.04041694,8.60321074 0.873685537,8.83027686 0.766640083,9.08913223 L0.684247521,9.28051653 C0.658945868,9.3447438 0.645970661,9.41480992 0.626507851,9.48098347 L0.572660744,9.68274793 L0.54476405,9.88905372 L0.515569835,10.094062 C0.512974793,10.1647769 0.516218595,10.2367893 0.516218595,10.3081529 L0.517516116,10.735686 L0.460425207,10.6266942 C0.810755785,10.8706281 1.17665661,11.0905579 1.55812769,11.2832397 C1.94024752,11.4739752 2.3346938,11.6458967 2.74406157,11.777595 C3.15278058,11.9105909 3.57512355,12.0105 4.00200785,12.0779711 C4.43018967,12.1421983 4.86421033,12.1675 5.29758223,12.1616612 M5.29823099,12.1921529 C4.86356157,12.1992893 4.42824339,12.1824215 3.99422273,12.1409008 C3.56020207,12.1032727 3.12683017,12.0332066 2.70124339,11.9281074 C2.27630537,11.8223595 1.85461116,11.6867686 1.45302851,11.5031694 C1.05079711,11.3221653 0.665433471,11.1015868 0.306669008,10.8453264 L0.248929339,10.8044545 L0.249578099,10.7363347 L0.254119421,10.2951777 C0.256065702,10.2218678 0.255416942,10.1485579 0.259309504,10.0745992 L0.297586364,9.85142562 L0.337809504,9.62954959 L0.40852438,9.41480992 C0.433826033,9.34344628 0.451342562,9.27013636 0.483131818,9.20201653 L0.582392149,8.99960331 C0.714090496,8.72907025 0.906772314,8.49486777 1.1130781,8.28142562 C1.22661116,8.18476033 1.33625165,8.08355372 1.45627231,7.99856612 C1.58148306,7.92136364 1.6969624,7.82664463 1.82995826,7.76436364 C2.8712186,7.20707851 4.05715248,7.04553719 5.21454091,7.00012397 C5.79583017,6.97028099 6.38425579,6.97936364 6.9661938,7.06370248 C7.54878058,7.14479752 8.12942107,7.29790496 8.66464835,7.57492562 C8.80218554,7.63526033 8.92415248,7.72868182 9.05325579,7.80653306 C9.17716901,7.89216942 9.29199959,7.99467355 9.40942521,8.0919876 C9.62416488,8.30802479 9.82528058,8.54547107 9.96022273,8.82184298 L10.0640244,9.02685124 C10.0958136,9.0962686 10.1146277,9.17087603 10.1405781,9.24223967 L10.2132393,9.45957438 L10.2560574,9.68469421 L10.2962806,9.90916529 L10.3040657,10.1303926 L10.3163921,10.5728471 L10.3189872,10.6532934 L10.2547599,10.7000041 C9.54112355,11.2242025 8.7275781,11.6050248 7.88224339,11.8379298 C7.46054917,11.9566529 7.03106983,12.042938 6.59899545,12.0967851 C6.16692107,12.1545248 5.73290041,12.186314 5.29823099,12.1921529" id="Fill-89" fill="#1A2E35"></path>
                        <path d="M5.11703223,0.890099174 C4.7855157,0.898533058 4.45270165,0.968599174 4.16205702,1.12365289 C3.87206116,1.27676033 3.62423471,1.4979876 3.44387934,1.7613843 C3.08381736,2.29077273 2.96055289,2.94277686 3.00401983,3.57921074 C3.03905289,4.21434711 3.23432975,4.85013223 3.61255702,5.36200413 C3.98494545,5.86933471 4.55650331,6.25340083 5.20331736,6.2702686 C5.52250744,6.27545868 5.8468876,6.19436364 6.12909835,6.02957851 C6.41195785,5.86803719 6.65264793,5.63383471 6.83949091,5.36459917 C7.21447438,4.82158678 7.36239174,4.15141736 7.35071405,3.50979339 C7.34876777,2.86752066 7.20149917,2.22135537 6.82067686,1.70364463 C6.63059008,1.44673554 6.37497851,1.23394215 6.07979256,1.09121488 C5.78395785,0.945243802 5.44854876,0.886206612 5.11703223,0.890099174 M5.11638347,0.859607438 C5.45244132,0.852471074 5.78979669,0.90242562 6.10963554,1.01855372 C6.43012314,1.1333843 6.72660661,1.3280124 6.96535041,1.58232645 C7.45386694,2.09419835 7.64006116,2.83378512 7.60048678,3.51563223 C7.58037521,3.85947521 7.51549917,4.2013719 7.40001983,4.52380579 C7.28194545,4.84559091 7.12040413,5.14856198 6.91863967,5.42104132 C6.71817273,5.69416942 6.47099504,5.93615702 6.18099917,6.11780992 C5.89100331,6.29686777 5.55624298,6.41818595 5.20656116,6.43440496 C4.85817686,6.45257025 4.50006116,6.37471901 4.1886562,6.20863636 C3.87595372,6.04514876 3.60412314,5.80964876 3.38808595,5.53327686 C2.95341653,4.98247934 2.71467273,4.29090083 2.68418099,3.59607851 C2.67055702,3.2496405 2.69585868,2.89606612 2.79317273,2.55806198 C2.88659421,2.22005785 3.05592066,1.90021901 3.28882562,1.6387686 C3.52043306,1.37731818 3.81042893,1.17295868 4.12767273,1.04774793 C4.44426777,0.92188843 4.78097438,0.862202479 5.11638347,0.859607438" id="Fill-91" fill="#1A2E35"></path>
                        <path d="M6.98980868,7.23705124 C6.95607314,7.41805537 6.85097397,7.58024545 6.72316818,7.7119438 C6.59341612,7.84299339 6.43771364,7.95198512 6.26449463,8.00907603 C6.0899781,8.06811322 5.9050814,8.07524959 5.73315992,8.10184876 C5.55994091,8.12844793 5.38866818,8.16153471 5.21220537,8.19202645 C5.0350938,8.2238157 4.85149463,8.22770826 4.67178802,8.20175785 C4.49078388,8.1797 4.31107727,8.13363802 4.14239959,8.0570843 C3.8134781,7.89943554 3.51050702,7.61527851 3.4274657,7.25521653 L3.45406488,7.24159256 C3.70254008,7.49006777 3.97566818,7.64512149 4.27280041,7.76384463 C4.41812273,7.82547686 4.56928388,7.87997273 4.72563512,7.92343967 C4.88328388,7.96171653 5.04352769,8.00064215 5.21090785,8.02724132 C5.37763926,8.0538405 5.54956074,8.05124545 5.71304835,8.00712975 C5.87718471,7.96366281 6.02250702,7.86634876 6.16069298,7.78265868 C6.44485,7.62306364 6.70630041,7.4667124 6.9632095,7.22277851 L6.98980868,7.23705124 Z" id="Fill-93" fill="#1A2E35"></path>
                        <path d="M7.43965909,3.28493306 C7.43382025,3.28493306 7.42992769,3.2875281 7.4247376,3.28817686 C7.39424587,2.96120165 7.33585744,2.65758182 7.2515186,2.35720579 C7.21518802,2.23848264 7.19377893,2.14570992 7.1074938,2.0659124 C6.68515083,1.70844545 6.23361364,1.64292066 5.74639463,1.46840413 C5.69189876,1.4379124 5.65427066,1.46580909 5.61469628,1.47424298 C4.85434917,2.04385455 4.18872107,2.18593306 3.68333678,2.3487719 C3.43032025,2.42662314 3.21428306,2.51485455 3.05144421,2.68742479 C2.89833678,2.85026364 2.81205165,3.0864124 2.80621281,3.39976364 C2.79064256,3.39911488 2.77572107,3.39651983 2.75755579,3.40170992 C2.74847314,3.40430496 2.73744421,3.40300744 2.72706405,3.40495372 C2.28979959,2.1885281 2.92947727,0.255871074 4.5611095,0.229920661 C4.74989876,0.200077686 4.92571281,0.189697521 5.10152686,0.187102479 C5.78661777,0.210457851 5.89041942,0.56078843 6.00330372,0.806668595 C7.12695661,0.497209917 7.90676653,1.45997025 7.52010537,3.29271818 C7.49285744,3.2907719 7.46690702,3.28558182 7.43965909,3.28493306" id="Fill-95" fill="#FFFFFF"></path>
                        <path d="M7.43965909,3.26968719 L7.52140289,3.27682355 L7.50453512,3.28915 C7.55708471,2.99461281 7.59665909,2.6955343 7.57914256,2.39840207 C7.55967975,2.10256736 7.50583264,1.8073814 7.38127066,1.54982355 C7.2580062,1.2955095 7.07051446,1.07428223 6.8246343,0.980211983 C6.58459298,0.877707851 6.30822107,0.880951653 6.04482438,0.956856612 L5.9170186,0.99253843 L5.86187397,0.871220248 C5.79959298,0.732385537 5.75028719,0.623393802 5.67178719,0.546191322 C5.59782851,0.467042562 5.49727066,0.414492975 5.37725,0.38400124 C5.31756405,0.369079752 5.2546343,0.358699587 5.19105579,0.352860744 L5.09633678,0.34637314 L4.99383264,0.353509504 L4.58446488,0.380108678 L4.56305579,0.382054959 C4.23543182,0.38400124 3.91234917,0.472881405 3.63986983,0.654534298 C3.36349793,0.830997107 3.1416219,1.09374504 2.97943182,1.39022851 C2.81464669,1.68671198 2.71084504,2.02082355 2.6706219,2.36401777 C2.62910124,2.70656322 2.65699793,3.06208388 2.77053099,3.38905909 L2.71927893,3.35986488 L2.75690702,3.35662107 L2.80751033,3.35402603 L2.76079959,3.39814174 C2.76144835,3.0945219 2.85486983,2.75327397 3.11632025,2.54891446 C3.36998554,2.34001364 3.68009298,2.2654062 3.95970868,2.16095579 C4.24451446,2.06364174 4.51894008,1.95270372 4.78233678,1.82360041 C5.04703099,1.69384835 5.29615496,1.54074091 5.53554752,1.37011694 L5.58355579,1.33703017 L5.58809711,1.34676157 C5.58809711,1.34870785 5.61404752,1.33703017 5.66075826,1.32859628 C5.70811777,1.31951364 5.77169628,1.33378636 5.8073781,1.35649298 L5.78921281,1.34805909 C5.99811364,1.43110041 6.21934091,1.49857149 6.4386219,1.59069545 C6.65790289,1.68022438 6.87394008,1.79570372 7.0568905,1.94945992 C7.1010062,1.98968306 7.1516095,2.02471612 7.19053512,2.08180702 C7.22816322,2.13695165 7.24892355,2.19858388 7.26384504,2.25632355 C7.2923905,2.36920785 7.31639463,2.48338967 7.34039876,2.59757149 C7.3838657,2.82528636 7.42019628,3.05559628 7.43965909,3.28655496 L7.42344008,3.27293099 L7.43965909,3.26968719 Z M7.43901033,3.29953017 L7.42603512,3.30342273 L7.41111364,3.30666653 L7.40916736,3.28915 C7.38581198,3.0601376 7.34883264,2.83112521 7.28849793,2.60924917 C7.25995248,2.49831116 7.22621694,2.3880219 7.18469628,2.28097645 C7.16523347,2.22842686 7.14252686,2.1804186 7.11008884,2.14343926 C7.07959711,2.10581116 7.03094008,2.07791446 6.98552686,2.04482769 C6.79933264,1.91961694 6.59043182,1.83722438 6.37309711,1.77429463 C6.1557624,1.71395992 5.9299938,1.66141033 5.70292769,1.58874917 L5.6847624,1.58031529 C5.68086983,1.58096405 5.69708884,1.58420785 5.69968388,1.58355909 C5.7009814,1.58226157 5.6847624,1.59069545 5.64064669,1.60172438 L5.69254752,1.57901777 C5.44666736,1.76910455 5.17808058,1.93259215 4.89327479,2.05910041 C4.61041529,2.18820372 4.31068802,2.27384008 4.01679959,2.34909628 C3.72485744,2.43019132 3.42253512,2.47884835 3.18963017,2.64298471 C2.95088636,2.80517479 2.85422107,3.10749711 2.85162603,3.40008802 L2.85162603,3.4429062 L2.80426653,3.44485248 L2.7770186,3.44550124 C2.76923347,3.44485248 2.74977066,3.44809628 2.73614669,3.4493938 L2.69592355,3.4526376 L2.68424587,3.41955083 C2.56227893,3.07830289 2.52335331,2.71499711 2.53762603,2.3536376 C2.55644008,1.9922781 2.63688636,1.6309186 2.78869628,1.29421198 C2.94115496,0.959451653 3.17665496,0.652588017 3.48611364,0.430711983 C3.79686983,0.209484711 4.17898967,0.0914103306 4.55851446,0.078435124 L4.53645661,0.080381405 L4.98669628,0.0375632231 L5.09893182,0.0271830579 L5.21895248,0.0343194215 C5.29875,0.0414557851 5.37725,0.0537822314 5.45704752,0.0732450413 C5.61469628,0.112819421 5.78272521,0.193265702 5.90534091,0.32561281 C6.02860537,0.456013636 6.09218388,0.61950124 6.14473347,0.742116942 L5.96243182,0.657129339 C6.2751343,0.570844215 6.6364938,0.576683058 6.94270868,0.733034298 C7.2547624,0.884844215 7.44874174,1.18651777 7.54800207,1.48235248 C7.64791116,1.78337727 7.67126653,2.09413347 7.65829132,2.39775331 C7.64596488,2.70267066 7.59276653,3.00045165 7.53502686,3.2956376 L7.53308058,3.30991033 L7.51880785,3.30861281 L7.43901033,3.29953017 Z" id="Fill-97" fill="#1A2E35"></path>
                    </g>
                    <path d="M154.490336,60.7241616 L144.037509,60.7241616 C142.909315,60.7241616 141.99586,59.8100583 141.99586,58.6825128 L141.99586,48.2290376 C141.99586,47.1021409 142.909315,46.1880376 144.037509,46.1880376 L154.490336,46.1880376 C155.617881,46.1880376 156.531336,47.1021409 156.531336,48.2290376 L156.531336,58.6825128 C156.531336,59.8100583 155.617881,60.7241616 154.490336,60.7241616" id="Fill-100" stroke="none" fill="#FFFFFF" fill-rule="evenodd"></path>
                    <g id="Group-116" stroke="none" stroke-width="1" fill="none" fill-rule="evenodd" transform="translate(144.024793, 47.164227)">
                        <path d="M5.29758223,12.3447413 L5.29693347,12.3447413 C3.43174752,12.3745843 1.78065248,11.8886628 0.383871488,10.9031959 L0.383222727,10.8279397 C0.383222727,10.6216339 0.383222727,10.3089314 0.385817769,10.2622207 C0.610937603,7.8313157 3.09504091,7.2818157 5.13928471,7.24937769 L5.22492107,7.24937769 L5.29239215,7.2474314 C7.33663595,7.21434463 9.83695826,7.68339835 10.1399293,10.0980843 C10.1451194,10.155824 10.1561483,10.5171835 10.1632847,10.7332207 L10.1639335,10.7448983 C8.79375165,11.7621545 7.11605744,12.3155471 5.29758223,12.3447413" id="Fill-102" fill="#FAFAFA"></path>
                        <path d="M5.11703223,1.0421686 C6.50537934,1.02011074 7.45516446,2.02244545 7.4791686,3.53600331 C7.50511901,5.16114793 6.48461901,6.4995405 5.20461488,6.51965207 C3.92461074,6.5404124 2.86194132,5.23510661 2.83599091,3.60996198 C2.81133802,2.09640413 3.72803636,1.06487521 5.11703223,1.0421686" id="Fill-104" fill="#FAFAFA"></path>
                        <path d="M5.29758223,12.3295603 C5.73095413,12.3198289 6.16302851,12.2776595 6.58796653,12.197862 C7.01225579,12.1135231 7.42875992,11.9980438 7.83228884,11.8507752 C8.63869793,11.5510479 9.39255744,11.1332463 10.0724583,10.6220231 L10.010826,10.7498289 L9.99136322,10.3235934 L9.98163182,10.1114488 L9.94075992,9.91033306 L9.90248306,9.70791983 L9.83695826,9.51329174 C9.81425165,9.44971322 9.79803264,9.38224215 9.76948719,9.31996116 L9.67736322,9.1376595 C9.55734256,8.89307686 9.38347479,8.68093223 9.19598306,8.48176281 C9.0921814,8.3935314 8.99162355,8.2988124 8.87938802,8.21901488 C8.76261116,8.14635372 8.65491694,8.05747355 8.52775992,7.99908512 C8.03794587,7.73374215 7.48714835,7.57544463 6.9285657,7.47423802 C6.36673926,7.37692397 5.79388388,7.33280826 5.21778471,7.3321595 C4.64103678,7.32307686 4.06428884,7.35097355 3.49856983,7.45801901 C2.93414835,7.56052314 2.3755657,7.73309339 1.88575165,8.02763058 C1.75794587,8.09315537 1.65025165,8.18787438 1.53412355,8.26896942 C1.4238343,8.35784959 1.32522273,8.46035372 1.22336736,8.55701901 C1.04041694,8.77110992 0.873685537,8.99817603 0.766640083,9.25638264 L0.684247521,9.4484157 C0.658945868,9.51264298 0.645970661,9.58270909 0.626507851,9.64888264 L0.572660744,9.84999835 L0.54476405,10.0563041 L0.515569835,10.2619612 C0.512974793,10.332676 0.516218595,10.4040397 0.516218595,10.4754033 L0.517516116,10.9035851 L0.460425207,10.7939446 C0.810755785,11.0378785 1.17665661,11.258457 1.55812769,11.4511388 C1.94024752,11.6418744 2.3346938,11.8131471 2.74406157,11.9448455 C3.15278058,12.0784901 3.57512355,12.1777504 4.00200785,12.2458702 C4.43018967,12.3094488 4.86421033,12.3353992 5.29758223,12.3295603 M5.29823099,12.3594033 C4.86356157,12.3671884 4.42824339,12.3503207 3.99422273,12.3088 C3.56020207,12.2705231 3.12683017,12.200457 2.70124339,12.0960066 C2.27630537,11.9896099 1.85461116,11.8546678 1.45302851,11.6704198 C1.05079711,11.4900645 0.665433471,11.269486 0.306669008,11.0132256 L0.248929339,10.971705 L0.249578099,10.9035851 L0.254119421,10.4630769 C0.256065702,10.3897669 0.255416942,10.3158083 0.259309504,10.2424983 L0.297586364,10.018676 L0.337809504,9.7968 L0.40852438,9.58206033 C0.433826033,9.51134545 0.451342562,9.43803554 0.483131818,9.3699157 L0.582392149,9.16750248 C0.714090496,8.89632066 0.906772314,8.66211818 1.1130781,8.44867603 C1.22661116,8.3526595 1.33625165,8.25145289 1.45627231,8.16646529 C1.58148306,8.08926281 1.6969624,7.9945438 1.82995826,7.93226281 C2.8712186,7.37432893 4.05715248,7.2127876 5.21454091,7.16737438 C5.79583017,7.13818017 6.38425579,7.14726281 6.9661938,7.23160165 C7.54878058,7.31269669 8.12942107,7.46580413 8.66464835,7.74282479 C8.80218554,7.80251074 8.92415248,7.89658099 9.05325579,7.97443223 C9.17716901,8.0600686 9.29199959,8.16192397 9.40942521,8.25923802 C9.62416488,8.47527521 9.82528058,8.71272149 9.96022273,8.98909339 L10.0640244,9.19475041 C10.0958136,9.26351901 10.1146277,9.33812645 10.1405781,9.41013884 L10.2132393,9.62747355 L10.2560574,9.85259339 L10.2962806,10.0770645 L10.3040657,10.2982917 L10.3163921,10.7400975 L10.3189872,10.8211926 L10.2547599,10.8679033 C9.54112355,11.3921017 8.7275781,11.7722752 7.88224339,12.0051802 C7.46054917,12.1245521 7.03106983,12.2108372 6.59899545,12.2640355 C6.16692107,12.322424 5.73290041,12.3542132 5.29823099,12.3594033" id="Fill-106" fill="#1A2E35"></path>
                        <path d="M5.11703223,1.05734959 C4.7855157,1.06578347 4.45270165,1.13649835 4.16205702,1.29090331 C3.87206116,1.4446595 3.62423471,1.66523802 3.44387934,1.92863471 C3.08381736,2.45802314 2.96055289,3.11067603 3.00401983,3.74646116 C3.03905289,4.38224628 3.23432975,5.01738264 3.61255702,5.52925455 C3.98494545,6.03723388 4.55650331,6.4213 5.20331736,6.43751901 C5.52250744,6.44335785 5.8468876,6.36226281 6.12909835,6.19747769 C6.41195785,6.03593636 6.65264793,5.80108512 6.83949091,5.53184959 C7.21447438,4.98948595 7.36239174,4.31931653 7.35071405,3.67769256 C7.34876777,3.03477107 7.20149917,2.38925455 6.82067686,1.8715438 C6.63059008,1.61463471 6.37497851,1.40184132 6.07979256,1.25846529 C5.78395785,1.11249421 5.44854876,1.05345702 5.11703223,1.05734959 M5.11638347,1.02750661 C5.45244132,1.02037025 5.78979669,1.07032479 6.10963554,1.18580413 C6.43012314,1.30063471 6.72660661,1.49591157 6.96535041,1.75022562 C7.45386694,2.26144876 7.64006116,3.0016843 7.60048678,3.6835314 C7.58037521,4.02737438 7.51549917,4.36862231 7.40001983,4.6910562 C7.28194545,5.01284132 7.12040413,5.3158124 6.91863967,5.5889405 C6.71817273,5.8620686 6.47099504,6.10340744 6.18099917,6.28506033 C5.89100331,6.46411818 5.55624298,6.58543636 5.20656116,6.60230413 C4.85817686,6.61982066 4.50006116,6.54261818 4.1886562,6.37588678 C3.87595372,6.21239917 3.60412314,5.97689917 3.38808595,5.70117603 C2.95341653,5.15037851 2.71467273,4.45815124 2.68418099,3.76397769 C2.67055702,3.41689091 2.69585868,3.06396529 2.79317273,2.7253124 C2.88659421,2.38795702 3.05592066,2.06746942 3.28882562,1.80601901 C3.52043306,1.5445686 3.81042893,1.34085785 4.12767273,1.21564711 C4.44426777,1.0897876 4.78097438,1.03010165 5.11638347,1.02750661" id="Fill-108" fill="#1A2E35"></path>
                        <path d="M6.98980868,7.40430165 C6.95607314,7.58530579 6.85097397,7.74749587 6.72316818,7.87984298 C6.59341612,8.01089256 6.43771364,8.11923554 6.26449463,8.17697521 C6.0899781,8.23536364 5.9050814,8.24314876 5.73315992,8.26974793 C5.55994091,8.29569835 5.38866818,8.32878512 5.21220537,8.35927686 C5.0350938,8.39106612 4.85149463,8.39560744 4.67178802,8.36900826 C4.49078388,8.34695041 4.31107727,8.30153719 4.14239959,8.22433471 C3.8134781,8.06668595 3.51050702,7.78317769 3.4274657,7.4231157 L3.45406488,7.40949174 C3.70254008,7.65796694 3.97566818,7.8123719 4.27280041,7.93109504 C4.41812273,7.99272727 4.56928388,8.04722314 4.72563512,8.09133884 C4.88328388,8.12896694 5.04352769,8.16789256 5.21090785,8.1951405 C5.37763926,8.22173967 5.54956074,8.21914463 5.71304835,8.17438017 C5.87718471,8.13156198 6.02250702,8.03424793 6.16069298,7.94990909 C6.44485,7.79096281 6.70630041,7.63396281 6.9632095,7.39067769 L6.98980868,7.40430165 Z" id="Fill-110" fill="#1A2E35"></path>
                        <path d="M7.43965909,3.45218347 C7.43382025,3.45218347 7.42992769,3.45542727 7.4247376,3.45542727 C7.39424587,3.12845207 7.33585744,2.82483223 7.2515186,2.52510496 C7.21518802,2.40573306 7.19377893,2.31296033 7.1074938,2.23316281 C6.68515083,1.87634463 6.23361364,1.81017107 5.74639463,1.63565455 C5.69189876,1.60581157 5.65427066,1.63370826 5.61469628,1.64214215 C4.85434917,2.21110496 4.18872107,2.35383223 3.68333678,2.51667107 C3.43032025,2.59387355 3.21428306,2.68210496 3.05144421,2.85532397 C2.89833678,3.01751405 2.81205165,3.25366281 2.80621281,3.56701405 C2.79064256,3.56636529 2.77572107,3.56441901 2.75755579,3.56960909 C2.74847314,3.57220413 2.73744421,3.57025785 2.72706405,3.57220413 C2.28979959,2.35642727 2.92947727,0.423770248 4.5611095,0.397819835 C4.74989876,0.367328099 4.92571281,0.356947934 5.10152686,0.354352893 C5.78661777,0.378357025 5.89041942,0.728687603 6.00330372,0.974567769 C7.12695661,0.664460331 7.90676653,1.62786942 7.52010537,3.46061736 C7.49285744,3.45802231 7.46690702,3.45283223 7.43965909,3.45218347" id="Fill-112" fill="#FFFFFF"></path>
                        <path d="M7.43965909,3.43758636 L7.52140289,3.44407397 L7.50453512,3.45640041 C7.55708471,3.16251198 7.59665909,2.86343347 7.57914256,2.56565248 C7.55967975,2.26981777 7.50583264,1.97528058 7.38127066,1.71772273 C7.2580062,1.46340868 7.07051446,1.24153264 6.8246343,1.14811116 C6.58459298,1.04560702 6.30822107,1.04820207 6.04482438,1.12410702 L5.9170186,1.1604376 L5.86187397,1.03911942 C5.79959298,0.89963595 5.75028719,0.791292975 5.67178719,0.714090496 C5.59782851,0.634941736 5.49727066,0.581743388 5.37725,0.551251653 C5.31756405,0.536330165 5.2546343,0.52659876 5.19105579,0.520111157 L5.09633678,0.513623554 L4.99383264,0.521408678 L4.58446488,0.547359091 L4.56305579,0.549305372 C4.23543182,0.551900413 3.91234917,0.640780579 3.63986983,0.822433471 C3.36349793,0.998896281 3.1416219,1.26164421 2.97943182,1.55812769 C2.81464669,1.85461116 2.71084504,2.18872273 2.6706219,2.53191694 C2.62910124,2.8744624 2.65699793,3.22998306 2.77053099,3.55695826 L2.71927893,3.52711529 L2.75690702,3.52452025 L2.80751033,3.52192521 L2.76079959,3.56604091 C2.76144835,3.26242107 2.85486983,2.92117314 3.11632025,2.71681364 C3.36998554,2.50726405 3.68009298,2.43330537 3.95970868,2.32885496 C4.24451446,2.23154091 4.51894008,2.12060289 4.78233678,1.99149959 C5.04703099,1.86174752 5.29615496,1.70799132 5.53554752,1.53801612 L5.58355579,1.50492934 L5.58809711,1.51466074 C5.58809711,1.51595826 5.61404752,1.50492934 5.66075826,1.49649545 C5.70811777,1.48676405 5.77169628,1.50168554 5.8073781,1.52439215 L5.78921281,1.5153095 C5.99811364,1.59835083 6.21934091,1.6658219 6.4386219,1.75794587 C6.65790289,1.84812355 6.87394008,1.96360289 7.0568905,2.11735909 C7.1010062,2.15693347 7.1516095,2.19196653 7.19053512,2.2497062 C7.22816322,2.30485083 7.24892355,2.36648306 7.26384504,2.42357397 C7.2923905,2.53710702 7.31639463,2.65128884 7.34039876,2.7648219 C7.3838657,2.99318554 7.42019628,3.22284669 7.43965909,3.45380537 L7.42344008,3.4401814 L7.43965909,3.43758636 Z M7.43901033,3.46742934 L7.42603512,3.47067314 L7.41111364,3.4745657 L7.40916736,3.45640041 C7.38581198,3.22738802 7.34883264,2.99902438 7.28849793,2.77649959 C7.25995248,2.66556157 7.22621694,2.55527231 7.18469628,2.44887562 C7.16523347,2.39632603 7.14252686,2.34766901 7.11008884,2.31068967 C7.07959711,2.27371033 7.03094008,2.24581364 6.98552686,2.2120781 C6.79933264,2.08686736 6.59043182,2.00447479 6.37309711,1.9421938 C6.1557624,1.88121033 5.9299938,1.8293095 5.70292769,1.75599959 L5.6847624,1.74821446 C5.68086983,1.74821446 5.69708884,1.75210702 5.69968388,1.7508095 C5.7009814,1.74951198 5.6847624,1.75794587 5.64064669,1.76962355 L5.69254752,1.74626818 C5.44666736,1.93635496 5.17808058,2.09984256 4.89327479,2.22699959 C4.61041529,2.35610289 4.31068802,2.44173926 4.01679959,2.51699545 C3.72485744,2.59744174 3.42253512,2.64609876 3.18963017,2.81023512 C2.95088636,2.97307397 2.85422107,3.27539628 2.85162603,3.56733843 L2.85162603,3.61080537 L2.80426653,3.61210289 L2.7770186,3.61340041 C2.76923347,3.61275165 2.74977066,3.61599545 2.73614669,3.61664421 L2.69592355,3.62053678 L2.68424587,3.58745 C2.56227893,3.24620207 2.52335331,2.88224752 2.53762603,2.52088802 C2.55644008,2.15952851 2.63688636,1.79881777 2.78869628,1.46211116 C2.94115496,1.12735083 3.17665496,0.81983843 3.48611364,0.597962397 C3.79686983,0.376735124 4.17898967,0.259309504 4.55851446,0.245685537 L4.53645661,0.247631818 L4.98669628,0.205462397 L5.09893182,0.195082231 L5.21895248,0.202218595 C5.29875,0.209354959 5.37725,0.221681405 5.45704752,0.241144215 C5.61469628,0.280069835 5.78272521,0.361164876 5.90534091,0.492863223 C6.02860537,0.62391281 6.09218388,0.787400413 6.14473347,0.910016116 L5.96243182,0.824379752 C6.2751343,0.738743388 6.6364938,0.744582231 6.94270868,0.900933471 C7.2547624,1.05209463 7.44874174,1.35441694 7.54800207,1.64960289 C7.64791116,1.95062769 7.67126653,2.26203264 7.65829132,2.56565248 C7.64596488,2.86992107 7.59276653,3.16770207 7.53502686,3.46353678 L7.53308058,3.4778095 L7.51880785,3.47651198 L7.43901033,3.46742934 Z" id="Fill-114" fill="#1A2E35"></path>
                    </g>
                    <path d="M145.158697,19.1578926 L131.2363,19.1578926 C130.139895,19.1578926 129.250445,18.2690909 129.250445,17.1720372 L129.250445,8.68106198 C129.250445,7.58400826 130.139895,6.69520661 131.2363,6.69520661 L145.158697,6.69520661 C146.255102,6.69520661 147.144552,7.58400826 147.144552,8.68106198 L147.144552,17.1720372 C147.144552,18.2690909 146.255102,19.1578926 145.158697,19.1578926" id="Fill-117" stroke="none" fill="#125BB2" fill-rule="evenodd"></path>
                    <path d="M154.492866,18.6826756 L149.23661,13.4264194 C148.960886,13.1506963 148.960886,12.7024029 149.23661,12.426031 L154.492866,7.17042355 C154.938564,6.72472521 155.69956,7.04067149 155.69956,7.66996901 L155.69956,18.1824814 C155.69956,18.8124277 154.938564,19.128374 154.492866,18.6826756" id="Fill-119" stroke="none" fill="#125BB2" fill-rule="evenodd"></path>
                    <polygon id="Fill-121" stroke="none" fill="#FFFFFF" fill-rule="evenodd" points="133.014682 14.458143 134.375132 14.458143 134.375132 15.0777091 132.205678 15.0777091 132.205678 11.0262008 133.014682 11.0262008"></polygon>
                    <mask id="mask-8" fill="white">
                        <use xlink:href="#path-7"></use>
                    </mask>
                    <g id="Clip-124" stroke="none" fill="none"></g>
                    <polygon id="Fill-123" stroke="none" fill="#FFFFFF" fill-rule="evenodd" mask="url(#mask-8)" points="135.316483 15.0778388 136.125488 15.0778388 136.125488 11.0263306 135.316483 11.0263306"></polygon>
                    <polygon id="Fill-125" stroke="none" fill="#FFFFFF" fill-rule="evenodd" mask="url(#mask-8)" points="137.886742 11.0262008 138.971469 14.2336719 140.062036 11.0262008 140.928131 11.0262008 139.49437 15.0777091 138.455056 15.0777091 137.020647 11.0262008"></polygon>
                    <polygon id="Fill-126" stroke="none" fill="#FFFFFF" fill-rule="evenodd" mask="url(#mask-8)" points="142.633332 11.6692521 142.633332 12.7189463 144.067741 12.7189463 144.067741 13.3385124 142.633332 13.3385124 142.633332 14.4290785 144.240312 14.4290785 144.240312 15.0778388 141.824328 15.0778388 141.824328 11.0263306 144.240312 11.0263306 144.240312 11.6692521"></polygon>
                    <path d="M55.2699037,67.3720087 C56.5239574,67.3668186 57.7507632,66.7900707 58.5623624,65.8441781 C58.9691351,65.3744756 59.2798913,64.818488 59.4544079,64.2222773 C59.6406021,63.6234715 59.6444946,63.0000128 59.6321682,62.368769 L59.5770236,54.8171988 L59.4401351,39.714707 C59.3648789,29.6465955 59.2416145,19.5778351 59.2338293,9.50972355 L59.2279905,7.62118223 C59.215664,6.98669463 59.259131,6.35415331 59.1488417,5.79946322 C58.9444822,4.64985992 58.2029492,3.61962851 57.2012632,3.03055413 C56.701069,2.73407066 56.1385938,2.5452814 55.5598996,2.48235165 C55.0032632,2.43109959 54.327255,2.47067397 53.7122302,2.4635376 L49.9357963,2.48494669 L34.8333045,2.53749628 L4.62637479,2.59328967 C3.42811446,2.58874835 2.2467219,3.12981446 1.45653182,4.03418636 C1.06078802,4.48247975 0.756519421,5.0164095 0.582651653,5.59121116 C0.398403719,6.17185165 0.387374793,6.76092603 0.396457438,7.40190124 L0.386726033,14.9528227 L0.379589669,30.056612 C0.342610331,40.1253723 0.460684711,50.1934839 0.508044215,60.2622442 L0.519721901,62.1501368 C0.533994628,62.7820293 0.490527686,63.4152194 0.608602066,63.9978062 C0.825936777,65.1850376 1.59601529,66.245112 2.63143678,66.8465128 C3.14785,67.1501326 3.7284905,67.3415169 4.32275496,67.4037979 C4.90404421,67.4531037 5.56448223,67.4109343 6.18469711,67.4148269 L9.95983347,67.3778475 L17.5114037,67.3025913 L25.0623252,67.2935087 C35.1317343,67.3071326 45.2011434,67.422612 55.2699037,67.3720087 M55.2705525,67.4368847 C45.2011434,67.4861905 35.1336806,67.7002814 25.0649202,67.8138145 L17.5146475,67.8786905 L9.96242851,67.8786905 L6.18664339,67.8780417 C5.54891198,67.866364 4.94815992,67.9065872 4.27409793,67.8456037 C3.61820124,67.7703475 2.97917231,67.5517153 2.41410207,67.2124136 C1.28136653,66.5390004 0.452250826,65.3686368 0.228428512,64.0698186 C0.108407851,63.4113269 0.161606198,62.7755417 0.149928512,62.1514343 L0.152523554,60.2635417 C0.151226033,50.1947814 0.219345868,40.1260211 0.133060744,30.056612 L0.0513169421,14.9541202 L0.00460619835,7.40255 C-0.00966652893,6.78882273 -0.00447644628,6.10113678 0.192746694,5.47378554 C0.378292149,4.84124421 0.706564876,4.25346736 1.1379905,3.75521942 C1.99630041,2.75483099 3.2983624,2.14369876 4.62442851,2.13850868 L34.829412,1.89652107 L49.9325525,1.80050455 L53.7083376,1.78363678 C54.3506103,1.79401694 54.9357921,1.74990124 55.6338583,1.80893843 C56.3072715,1.88419463 56.9631682,2.10477314 57.5444574,2.45185992 C58.7102798,3.13824835 59.5685897,4.33715744 59.8053872,5.67490124 C59.8689657,6.00317397 59.8890773,6.35609959 59.8916723,6.67464091 L59.8929698,7.61858719 L59.8968624,9.50712851 C59.9377343,19.5752401 59.8650731,29.6440004 59.838474,39.7134095 L59.776193,54.8159012 L59.7580277,62.3681202 C59.7684079,62.9915789 59.7573789,63.6455293 59.5614533,64.2540665 C59.3772054,64.8651988 59.0541227,65.4309178 58.6350236,65.9071079 C57.797474,66.8666244 56.541474,67.4427236 55.2705525,67.4368847" id="Fill-127" stroke="none" fill="#231F20" fill-rule="evenodd" mask="url(#mask-8)"></path>
                    <path d="M29.9479446,5.71382686 L29.9479446,60.62555" id="Fill-128" stroke="none" fill="#FFFFFF" fill-rule="evenodd" mask="url(#mask-8)"></path>
                    <path d="M29.9802529,5.7131781 C30.1988851,10.2895335 30.2650587,14.8652401 30.2164017,19.4409467 C30.1755298,21.7291244 30.0691331,24.0179508 30.0600504,26.304831 C30.0269636,28.5936574 30.0730256,30.8818351 30.1255752,33.169364 C30.2430008,37.7457194 30.3033355,42.321426 30.2825752,46.8971326 C30.2728438,51.473488 30.1813686,56.0491946 29.9802529,60.62555 L29.9153769,60.62555 C29.7149099,56.0491946 29.622786,51.473488 29.6137033,46.8971326 C29.5916455,42.321426 29.6519802,37.7457194 29.7700545,33.169364 C29.8226041,30.8818351 29.8686661,28.5936574 29.8355793,26.304831 C29.8264967,24.0179508 29.7201,21.7291244 29.6785793,19.4409467 C29.6305711,14.8652401 29.6967446,10.2895335 29.9153769,5.7131781 L29.9802529,5.7131781 Z" id="Fill-129" stroke="none" fill="#231F20" fill-rule="evenodd" mask="url(#mask-8)"></path>
                    <path d="M16.1079405,16.5837413 L46.3563909,16.5837413" id="Fill-130" stroke="none" fill="#FFFFFF" fill-rule="evenodd" mask="url(#mask-8)"></path>
                    <path d="M16.1079405,16.5837413 C18.6290231,16.4500967 21.149457,16.3871669 23.6698909,16.3352661 C26.1909736,16.2820678 28.7114074,16.2872579 31.2318413,16.2593612 C33.7522752,16.2846628 36.2733579,16.2820678 38.7944405,16.3339686 L42.5754157,16.424795 C43.8353083,16.4786421 45.0958496,16.5104314 46.3563909,16.5837413 C45.0958496,16.6570512 43.8353083,16.6888405 42.5754157,16.7426876 L38.7944405,16.833514 C36.2733579,16.8854149 33.7522752,16.8828198 31.2318413,16.9081215 C28.7114074,16.8802248 26.1909736,16.8854149 23.6698909,16.8322165 C21.149457,16.7803157 18.6290231,16.717386 16.1079405,16.5837413" id="Fill-131" stroke="none" fill="#231F20" fill-rule="evenodd" mask="url(#mask-8)"></path>
                    <path d="M16.1079405,31.766874 L46.3563909,31.766874" id="Fill-132" stroke="none" fill="#FFFFFF" fill-rule="evenodd" mask="url(#mask-8)"></path>
                    <path d="M16.1079405,31.7662252 C18.6290231,31.6332293 21.149457,31.5696508 23.6698909,31.51775 C26.1909736,31.4645517 28.7114074,31.4697417 31.2318413,31.4431426 C33.7522752,31.4684442 36.2733579,31.4658492 38.7944405,31.5171012 L42.5754157,31.6079277 C43.8353083,31.661126 45.0958496,31.6929153 46.3563909,31.7662252 C45.0958496,31.8401839 43.8353083,31.8713244 42.5754157,31.9258202 L38.7944405,32.0159979 C36.2733579,32.0678988 33.7522752,32.0653037 31.2318413,32.0906054 C28.7114074,32.0640062 26.1909736,32.0685475 23.6698909,32.0147004 C21.149457,31.9634483 18.6290231,31.9005186 16.1079405,31.7662252" id="Fill-133" stroke="none" fill="#231F20" fill-rule="evenodd" mask="url(#mask-8)"></path>
                    <path d="M16.1079405,46.9494227 L46.3563909,46.9494227" id="Fill-134" stroke="none" fill="#FFFFFF" fill-rule="evenodd" mask="url(#mask-8)"></path>
                    <path d="M16.1079405,46.9500066 C18.6290231,46.8157132 21.149457,46.7527835 23.6698909,46.7015314 C26.1909736,46.6476843 28.7114074,46.6522256 31.2318413,46.6256264 C33.7522752,46.6509281 36.2733579,46.6483331 38.7944405,46.7002339 L42.5754157,46.7904116 C43.8353083,46.8449074 45.0958496,46.8760479 46.3563909,46.9500066 C45.0958496,47.0233165 43.8353083,47.0551058 42.5754157,47.1083041 L38.7944405,47.1991306 C36.2733579,47.2503826 33.7522752,47.2477876 31.2318413,47.2730893 C28.7114074,47.2464901 26.1909736,47.2516802 23.6698909,47.1984818 C21.149457,47.146581 18.6290231,47.0830025 16.1079405,46.9500066" id="Fill-135" stroke="none" fill="#231F20" fill-rule="evenodd" mask="url(#mask-8)"></path>
                </g>
            </g>
        </g>
    </g>
</svg>