<svg xmlns="http://www.w3.org/2000/svg" xmlns:xlink="http://www.w3.org/1999/xlink" width="92" height="92" viewBox="0 0 92 92">
    <defs>
        <path id="prefix__a" d="M0.793 0.067L70.588 0.067 70.588 52.914 0.793 52.914z"/>
        <path id="prefix__c" d="M0 0.608L85.863 0.608 85.863 86.471 0 86.471z"/>
    </defs>
    <g fill="none" fill-rule="evenodd">
        <g transform="translate(1 3) translate(17.647 10.62)">
            <mask id="prefix__b" fill="#fff">
                <use xlink:href="#prefix__a"/>
            </mask>
            <path fill="#5DD665" d="M34.23 49.848L69.41 8.272c1.497-1.768 1.577-4.34.19-6.198-1.72-2.308-5.032-2.684-7.225-.82L28.673 29.886c-.618.618-1.619.618-2.236 0L10.062 19.575c-2.388-1.505-5.497-1.158-7.495.836-2.264 2.263-2.375 5.898-.25 8.294l18.82 21.286c3.496 3.953 9.685 3.886 13.093-.143" mask="url(#prefix__b)"/>
        </g>
        <g transform="translate(1 3) translate(0 .032)">
            <mask id="prefix__d" fill="#fff">
                <use xlink:href="#prefix__c"/>
            </mask>
            <path fill="#5DD665" d="M42.932 86.471C19.258 86.471 0 67.211 0 43.54 0 19.868 19.258.608 42.932.608c10.083 0 19.883 3.564 27.593 10.04.508.426.573 1.183.148 1.691-.427.509-1.184.574-1.693.147-7.277-6.111-16.528-9.478-26.048-9.478C20.583 3.008 2.4 21.19 2.4 43.539c0 22.349 18.183 40.532 40.532 40.532 22.348 0 40.531-18.183 40.531-40.532 0-3.19-.372-6.367-1.104-9.44-.156-.643.243-1.29.887-1.444.644-.156 1.294.245 1.447.89.777 3.255 1.17 6.617 1.17 9.994 0 23.672-19.26 42.932-42.931 42.932" mask="url(#prefix__d)"/>
        </g>
        <path fill="#5DD665" d="M42.932 79.23C23.269 79.23 7.27 63.236 7.27 43.572s16-35.66 35.662-35.66c.661 0 1.2.539 1.2 1.2 0 .664-.539 1.2-1.2 1.2-18.34 0-33.26 14.92-33.26 33.26 0 18.34 14.92 33.26 33.26 33.26 5.364 0 10.485-1.24 15.22-3.678 4.518-2.331 8.508-5.727 11.538-9.826.393-.531 1.145-.644 1.678-.249.533.392.646 1.144.252 1.678-3.248 4.391-7.526 8.033-12.368 10.53-5.007 2.582-10.65 3.945-16.32 3.945" transform="translate(1 3)"/>
        <path fill="#5DD665" d="M70.654 65.242c-.249 0-.498-.076-.713-.234-.533-.394-.646-1.146-.252-1.679.079-.107.157-.215.234-.323.389-.536 1.139-.658 1.677-.27.538.389.658 1.139.27 1.675-.081.117-.166.23-.25.344-.236.318-.6.487-.966.487M41.598 10.314h-.016c-.13-.002-.263-.002-.397-.002-.662 0-1.2-.538-1.2-1.202 0-.661.538-1.198 1.2-1.198.143 0 .286 0 .427.002.663.009 1.195.552 1.186 1.214-.009.658-.544 1.186-1.2 1.186" transform="translate(1 3)"/>
    </g>
</svg>
