<svg xmlns="http://www.w3.org/2000/svg" width="26" height="26">
    <path fill="#2AD95A" fill-rule="evenodd" d="M13 .185C20.077.185 25.814 5.923 25.814 13c0 7.077-5.737 12.814-12.814 12.814S.186 20.077.186 13 5.923.185 13 .185z"/>
    <path fill="#FFF" fill-rule="evenodd" d="M12.746 17.217c-.495.496-1.298.496-1.793 0l-2.778-2.782c-.495-.496-.495-1.3 0-1.796s1.298-.496 1.793 0l1.656 1.657c.125.125.327.125.453 0l4.481-4.489c.495-.496 1.298-.496 1.793 0 .238.238.372.561.372.898 0 .337-.134.66-.372.898l-5.605 5.614z"/>
</svg>
