<svg xmlns="http://www.w3.org/2000/svg" width="89.017" height="22.266" viewBox="0 0 89.017 22.266"><defs><style>.a{fill:#fff;stroke:rgba(0,0,0,0);stroke-miterlimit:10;}</style></defs><path class="a" d="M56.507,11.012a1.5,1.5,0,0,1-.951-.781,1.477,1.477,0,0,1-.051-1.04,1.441,1.441,0,0,1,.583-.8,1.059,1.059,0,0,1,.991-.072,7.306,7.306,0,0,0,1.627.483,8.222,8.222,0,0,0,1.258.113,2.853,2.853,0,0,0,1.872-.524,2.019,2.019,0,0,0,.624-1.636V5.808A3,3,0,0,1,61.17,6.98a4.03,4.03,0,0,1-1.841.432,4.337,4.337,0,0,1-2.353-.628,4.261,4.261,0,0,1-1.565-1.758,5.9,5.9,0,0,1-.562-2.655,5.9,5.9,0,0,1,.562-2.654A4.261,4.261,0,0,1,56.977-2.04a4.337,4.337,0,0,1,2.353-.628,4.11,4.11,0,0,1,1.852.421A2.737,2.737,0,0,1,62.418-1.1a1.592,1.592,0,0,1,1.8-1.522A1.6,1.6,0,0,1,66-.8V6.323a5.055,5.055,0,0,1-1.473,3.97,6.117,6.117,0,0,1-4.215,1.316A10.351,10.351,0,0,1,56.507,11.012ZM59.043.645a2.567,2.567,0,0,0-.531,1.727A2.568,2.568,0,0,0,59.043,4.1a1.77,1.77,0,0,0,1.412.618A1.793,1.793,0,0,0,61.887,4.1a2.568,2.568,0,0,0,.531-1.728A2.567,2.567,0,0,0,61.887.645,1.793,1.793,0,0,0,60.455.027,1.77,1.77,0,0,0,59.043.645ZM81.187,11.239a1.336,1.336,0,0,1-.48-.854,2.067,2.067,0,0,1,.183-1.141L81.934,6.98,78.763-.3a1.709,1.709,0,0,1,0-1.625,1.69,1.69,0,0,1,1.6-.7,1.731,1.731,0,0,1,1.044.3,2.538,2.538,0,0,1,.736,1.163L83.857,3.3l1.8-4.485A2.478,2.478,0,0,1,86.4-2.329a1.926,1.926,0,0,1,1.135-.3,1.335,1.335,0,0,1,1.279.7A1.779,1.779,0,0,1,88.788-.3L84.144,10.189a2.532,2.532,0,0,1-.808,1.091,1.994,1.994,0,0,1-1.115.288A1.571,1.571,0,0,1,81.187,11.239ZM9.353,9.436c.008-.012-.007-.018-.035-.022.047-.021.284,0,.258.027A.917.917,0,0,0,9.353,9.436Zm.368-.027A.124.124,0,0,1,9.67,9.4a.122.122,0,0,0-.058-.01,1.747,1.747,0,0,1-.365-.02c0-.015.043-.018.091-.017a.537.537,0,0,1,.127.015c.006-.02-.042-.024-.1-.027a.725.725,0,0,1-.152-.015c.05-.005.1,0,.157-.005s.111,0,.166.005l.112,0c.074,0,.148.006.22.005.126,0,.31-.021.485-.035.087-.009.173-.014.251-.018a.768.768,0,0,1,.19.012c.069-.012.1-.019.118-.024a.909.909,0,0,1,.1-.014.331.331,0,0,1-.061.028l-.1.028a2.177,2.177,0,0,1-.241.049,3.163,3.163,0,0,1-.671.035.729.729,0,0,1-.083,0c-.053,0-.106,0-.1.013H9.72Zm.845-.106a.76.76,0,0,0-.091.012.277.277,0,0,0-.121.042c.055-.007.127-.013.187-.02s.1-.018.106-.035h-.033Zm-2.143,0-.081-.011c-.056-.009-.115-.017-.177-.025s-.124-.015-.184-.021l-.17-.023a.861.861,0,0,1-.143-.028c-.064-.01-.078,0-.145-.017-.087-.021-.186-.059-.283-.078-.032-.007-.064-.012-.1-.017l-.049-.008c-.016,0-.033-.005-.049-.009-.066-.012-.133-.024-.2-.043-.041-.011-.087-.025-.133-.04a.594.594,0,0,1-.071-.024l-.073-.028c-.1-.036-.192-.074-.28-.105l-.372-.154-.1-.045-.1-.047-.2-.1-.2-.107c-.067-.037-.135-.072-.2-.11l-.192-.118c-.033-.019-.064-.04-.1-.059s-.063-.038-.092-.059L4.47,7.846,4.406,7.8l-.061-.047-.123-.1L4.1,7.566c-.04-.031-.077-.065-.115-.1-.077-.066-.154-.132-.229-.2-.01-.011-.145-.141-.185-.181-.027-.025-.052-.051-.079-.077C3.48,7,3.466,6.987,3.453,6.973l-.039-.042C3.394,6.91,3.4,6.9,3.371,6.87s-.228-.213-.313-.319c-.05-.058-.089-.124-.133-.18-.118-.156-.24-.311-.372-.514-.05-.073-.091-.148-.135-.222s-.087-.149-.138-.222-.063-.1-.1-.157a6.539,6.539,0,0,1-.3-.586c-.093-.208-.18-.424-.256-.643a12.08,12.08,0,0,1-.359-1.286.26.26,0,0,0-.021-.11,1.025,1.025,0,0,1-.037-.137.211.211,0,0,0,0-.113c-.008-.044-.022-.093-.028-.138-.016-.1-.026-.184-.038-.277S1.114,1.779,1.1,1.67c-.009-.064-.018-.075-.025-.142a.573.573,0,0,1,0-.107C1.041,1.108,1.017.787,1,.387A.052.052,0,0,1,.986.351c0-.061,0-.17,0-.294s0-.262,0-.381c0-.337,0-.687.03-1.1,0-.048.007-.1.011-.145s.009-.1.014-.151c.008-.1.02-.2.031-.308.019-.182.029-.353.058-.536.014-.092.042-.173.061-.285,0-.013.006-.086.019-.143A.866.866,0,0,1,1.246-3.1c.008-.044,0-.064,0-.11a.973.973,0,0,1,.037-.148c.015-.049.031-.1.041-.133.033-.138.087-.357.155-.6s.155-.5.24-.712c.065-.169.156-.345.234-.512s.164-.349.256-.516c.044-.084.094-.166.143-.246.024-.04.052-.078.078-.116s.053-.076.082-.111a1.794,1.794,0,0,1,.133-.221c.025-.036.051-.073.08-.111l.088-.112L2.863-6.8c.015-.019.032-.038.048-.057l.1-.117c.068-.078.135-.159.2-.243a1.235,1.235,0,0,0,.193-.17c.031-.034.064-.067.1-.1s.065-.068.1-.1a1.263,1.263,0,0,1,.123-.1c.041-.031.088-.061.145-.109l.156-.139c.031-.029.066-.055.1-.082l.093-.072.107-.081.055-.04.056-.038.235-.156c.039-.027.081-.051.121-.076l.126-.074.128-.075c.043-.024.088-.047.132-.07a7.193,7.193,0,0,1,1.145-.49l.15-.05.076-.024.076-.021.306-.084c.1-.024.206-.045.308-.068s.206-.041.308-.058L7.7-9.525c.025,0,.05-.009.075-.012l.076-.01.3-.037c.1-.011.2-.016.295-.025.048,0,.1-.009.144-.012l.143-.007c.093,0,.191,0,.287,0a1.182,1.182,0,0,0,.267-.022c.074,0,.15,0,.229.007s.157.011.236.015c.16.014.32.029.471.05.035,0,.087,0,.133.008s.084.014.093.033a5.561,5.561,0,0,1,1.142.289l.07.025.069.029.138.057c.045.019.09.042.136.063s.09.042.135.065a5.232,5.232,0,0,1,.525.307c.037.025.075.049.113.072l.109.076c.036.026.073.05.108.077s.071.056.106.085c.077.062.153.136.229.21l.029.028.025.027c.018.018.035.036.052.055.033.035.067.07.1.105.116.129.228.271.33.4.026.034.054.068.082.1l.082.105a2.306,2.306,0,0,1,.155.222l.029.049c.008.017.017.034.026.051.017.035.033.07.05.106s.032.073.047.109.031.071.047.105l.094.208c.016.039.033.082.05.127.009.022.017.045.026.07s.015.049.022.074a3.693,3.693,0,0,1,.131.648c0,.028.005.054.008.081s.005.052.006.079c0,.052.006.105.008.157s0,.1,0,.154v.077c0,.029,0,.058,0,.087-.005.059-.01.118-.02.179,0,.03-.009.059-.015.09s-.012.066-.019.1a2.2,2.2,0,0,1-.124.373,1.911,1.911,0,0,1-.446.623l-.049.043-.051.043c-.029.025-.061.049-.093.073a2.125,2.125,0,0,1-.211.138,1.79,1.79,0,0,1-.289.132,1.592,1.592,0,0,1-.345.079c-.03,0-.061.006-.092.007s-.062,0-.094,0H12.84l-.027,0-.055,0-.112-.009c-.038,0-.075-.008-.115-.014l-.06-.008-.062-.011c-.039-.008-.083-.017-.126-.028a1.965,1.965,0,0,1-.275-.088,1.574,1.574,0,0,1-.3-.164,1.339,1.339,0,0,1-.3-.283l-.294-.379.193-.446a1.064,1.064,0,0,0,.057-.2,1.764,1.764,0,0,0,.027-.27c0-.05,0-.1,0-.15,0-.025,0-.05,0-.074V-5.24c0-.012,0-.024,0-.036l-.007-.073-.009-.069c0-.024-.008-.046-.012-.069s-.007-.046-.013-.068c-.015-.056-.035-.065-.011-.091-.022-.058-.045-.107-.07-.16-.012-.026-.023-.055-.038-.083L11.2-5.937c-.009-.015-.017-.032-.026-.049a.231.231,0,0,1-.011-.042l-.016-.024a.25.25,0,0,1-.016-.024L11.109-6.1c-.026-.038-.059-.073-.062-.079L11.033-6.2a.112.112,0,0,1-.017-.02l-.032-.039-.036-.04a.487.487,0,0,0-.037-.04c-.013-.013-.026-.025-.038-.039l-.042-.037c-.027-.026-.059-.048-.09-.074a1.587,1.587,0,0,0-.224-.133c-.02-.011-.043-.02-.065-.03l-.032-.014-.035-.012-.07-.025-.074-.022a.047.047,0,0,0-.023,0,.076.076,0,0,1-.028,0,2.614,2.614,0,0,0-.6-.115L9.5-6.854c-.032,0-.065,0-.1,0l-.1,0c-.033,0-.063,0-.094,0l-.091,0c-.015,0-.03,0-.045,0l-.045,0-.167.012a3.349,3.349,0,0,0-.905.217c-.049.021-.1.04-.148.066s-.1.051-.144.077-.094.057-.141.083l-.036.02-.034.021-.068.041a.36.36,0,0,0-.062.031.153.153,0,0,0-.03.019.27.27,0,0,0-.028.022c-.036.029-.069.062-.1.093a.358.358,0,0,0-.117.083c-.032.032-.062.066-.1.1s-.091.067-.135.1c-.022.017-.044.036-.066.054s-.043.041-.064.063a4.153,4.153,0,0,0-.3.356c-.039.052-.055.082-.086.121s-.042.033-.065.062-.057.091-.1.147-.088.094-.112.136a.308.308,0,0,1-.048.109.384.384,0,0,1-.058.066c-.046.072-.1.158-.153.252l-.08.15-.042.078-.021.04c-.006.013-.013.027-.019.041-.052.111-.109.222-.155.336l-.071.167c-.022.055-.042.11-.062.161s-.032.082-.047.122-.028.084-.043.126-.027.083-.041.126l-.021.063-.017.064c-.025.087-.049.174-.074.262S5.018-2.585,5-2.5a9.724,9.724,0,0,0-.166,1.1c-.005.067-.006.123-.011.188a1.1,1.1,0,0,1-.012.114c0,.027-.007.056-.01.089s-.005.07-.008.109.009.031.006.063a.253.253,0,0,0-.016.062c0,.045,0,.089,0,.132s0,.085,0,.128c0,.086.009.175.01.277,0,0,0,.006,0,.014s0,.02-.005.033a.78.78,0,0,0-.006.079c0,.037.01.091.018.152s.015.128.02.191c.005.082.006.168.006.257,0,.044,0,.088,0,.133L4.831.76c0,.04.007.081.011.122s.012.081.014.123c.006.073,0,.142.008.215,0,.042.01.083.016.124s.014.084.022.126.014.086.022.129.017.086.024.13.015.087.022.134.014.094.023.132c.017.079.045.165.058.233.005.033.008.066.012.1s.008.07.014.107c.016.071.04.155.061.23s.032.135.047.2.037.132.056.2c.011.035.021.075.031.113a.909.909,0,0,0,.04.111c.02.048.057.091.083.156s.054.125.079.188c.013.033.025.064.038.1s.029.06.043.089.038.069.057.1c.011.017.02.033.029.049L5.658,4l.014.024c.038.063.055.117.09.179s.08.094.109.136c.017.024.034.056.051.086s.033.065.049.088c.072.108.131.236.216.345.018.025.037.049.057.073s.04.047.062.07c.043.045.088.091.13.142l.032.036.033.035.064.069c.044.047.086.1.134.139s.093.091.144.137.1.088.159.133c.026.023.054.041.081.061l.079.059.039.029.02.014.019.012.075.046c.038.023.075.044.112.062l.11.047L7.6,6.05c.019.008.037.02.056.028a.761.761,0,0,1,.117.069,1.227,1.227,0,0,0,.191.108,1.734,1.734,0,0,0,.213.083l.055.02c.018.006.038.009.056.015L8.4,6.4c.019.005.038.011.058.015l.059.012.117.025.03.007.03.005.061.009c.04.008.081.014.12.021.08.008.159.014.233.023.042,0,.094.017.133.018h.068l.035,0,.039,0a1,1,0,0,1,.141,0,.36.36,0,0,0,.1-.013.664.664,0,0,1,.132-.021h.121l.118.005.059,0,.031,0a.281.281,0,0,1,.029,0l.123,0,.07-.006.073-.01c.049-.007.1-.016.151-.025l.144-.032.067-.014.062-.015.128-.032c.042-.013.083-.028.125-.043l.063-.02.059-.025.121-.051c.156-.074.308-.149.448-.225.012-.01.025-.022.04-.033l.045-.036c.031-.026.065-.052.1-.077A.132.132,0,0,0,12,5.79a.133.133,0,0,1,.059-.069L12.1,5.7c.016-.01.031-.021.046-.032L12.24,5.6l.022-.016.022-.017c.014-.011.029-.021.042-.03a.315.315,0,0,1,.075-.041c.023-.026.045-.056.069-.082s.046-.053.071-.08.047-.053.071-.08.049-.052.073-.08l.069-.082c.022-.028.047-.055.067-.085l.061-.088c.011-.016.021-.029.03-.045l.026-.047c.014-.026.03-.055.048-.085L13,4.712l.011-.025c.007-.016.014-.033.02-.05s-.008-.023-.005-.032a.289.289,0,0,1,.019-.045l.016-.03c.005-.011.01-.024.018-.039a.921.921,0,0,1,.078-.128c.026-.039.053-.078.084-.132s.053-.113.078-.162c.01-.021.019-.045.029-.068l.031-.075a1.609,1.609,0,0,0,.059-.166c.009-.029.019-.059.027-.089s.014-.062.022-.094.013-.062.019-.094.01-.064.013-.1.016-.046.025-.067.02-.039.029-.058c.019-.037.04-.071.058-.106a.708.708,0,0,1,.105-.185s.011.009.021,0c.032-.024.031,0,.073.007a.226.226,0,0,0,.026,0c.036,0,.071,0,.1.073.019.015.042,0,.063-.009s.056-.033.072.023a.412.412,0,0,1,.042.1c.012-.071.039.008.037.036,0,.066-.011.168.015.19-.009.048-.019.094-.031.14a1.337,1.337,0,0,1-.041.131c-.033.085-.064.169-.1.255A.7.7,0,0,0,14,4c-.005.016-.009.032-.013.047a.271.271,0,0,1-.016.041c-.021.05-.041.065-.058.107-.01.024-.019.049-.03.071l-.03.07c-.021.046-.038.092-.059.133a4.668,4.668,0,0,1-.542.871l-.021.027-.022.028-.044.052c-.015.019-.031.036-.045.055s-.03.036-.046.052c-.065.069-.126.141-.2.208-.034.034-.067.07-.1.1l-.106.1c-.018.017-.035.034-.053.049l-.056.046-.11.1c-.036.026-.068.06-.115.094a.323.323,0,0,1-.05.029.384.384,0,0,0-.053.029c-.042.028-.084.055-.126.084l-.13.079-.064.04-.067.037-.135.072-.137.066c-.024.011-.046.024-.071.033l-.071.029c-.047.019-.094.04-.142.057l-.145.049a4.327,4.327,0,0,1-.661.155l-.087.013-.087.01-.175.019-.177.012c-.029,0-.058.005-.088.006l-.088,0-.142,0c-.046,0-.091,0-.135,0s-.087,0-.13,0H9.332l-.031,0-.06,0a4.573,4.573,0,0,1-.485-.045C8.7,7.015,8.688,7.013,8.637,7s-.042-.02-.089-.017-.1-.02-.148-.031-.1-.019-.147-.034c-.1-.028-.194-.051-.285-.085-.045-.014-.091-.03-.134-.045s-.085-.034-.126-.049l-.118-.046-.106-.047L7.4,6.608,7.315,6.57c-.048-.023-.1-.036-.142-.061-.026-.014-.05-.027-.074-.043l-.068-.049c-.045-.031-.09-.065-.141-.1s-.141-.089-.21-.134c-.02-.013-.038-.027-.057-.042L6.568,6.1l-.112-.086A.6.6,0,0,1,6.4,5.97l-.054-.046L6.237,5.83l-.025-.022-.024-.022-.05-.047-.1-.1C6.02,5.628,6,5.613,5.986,5.6s-.032-.034-.048-.051l-.1-.1-.049-.052-.048-.053c-.031-.037-.063-.073-.094-.111L5.6,5.171a.606.606,0,0,1-.046-.057c-.031-.038-.061-.076-.091-.115a7.059,7.059,0,0,1-.644-.992c-.045-.09-.094-.171-.138-.26-.029-.062-.021-.089-.038-.126a.577.577,0,0,1-.056-.084c-.042-.085-.073-.173-.108-.26-.018-.043-.035-.087-.052-.129s-.032-.087-.048-.129a.146.146,0,0,0,.007.1.233.233,0,0,0,.023.036.123.123,0,0,1,.017.021c.013.037,0,.047,0,.068a.284.284,0,0,0,.042.09q.018.053.036.108c.006.019.014.037.021.055s.014.038.021.057c.03.077.059.159.088.246.059.059.063.144.113.2q.006.03.015.06a.411.411,0,0,0,.022.061c.016.04.036.081.056.122s.042.081.062.121c.006.01.01.02.016.03a.28.28,0,0,1,.016.028c.012.019.022.037.032.055l.1.178c.015.029.033.057.049.084l.049.082.058.094.03.049.033.049c.044.065.087.131.131.193.022.033.049.064.074.1s.053.062.077.093a1.122,1.122,0,0,1,.07.092.842.842,0,0,1,.058.089c.037.038.073.076.106.116.018.02.033.04.05.059l.052.059c.07.077.134.16.212.233.039.038.08.073.122.108l.031.028c.01.008.021.016.032.026s.044.034.065.052c.046.04.086.077.125.114s.08.068.123.1c.02.016.046.031.071.047s.025.016.035.024a.183.183,0,0,1,.031.019l.171.12a1.016,1.016,0,0,0,.1.063l.112.064c.025.013.047.027.072.038l.074.032.152.067.151.063.075.032.037.014a.266.266,0,0,0,.037.012c.048.016.069.008.129.027a1.592,1.592,0,0,0,.151.053c.045.011.087.018.13.026s.084.014.126.018a2.385,2.385,0,0,0,.57.08c.064,0,.137,0,.222.007l.136,0,.075,0a.713.713,0,0,0,.08,0,.384.384,0,0,1,.1-.009.553.553,0,0,0,.083,0l.111-.008c.038,0,.119-.014.161-.014a.645.645,0,0,1,.077,0,.4.4,0,0,0,.084,0c.038,0,.076-.008.112-.014l.055-.007.055-.01c.072-.015.144-.028.22-.041a6.358,6.358,0,0,0,.884-.233c.021-.007.043-.013.066-.022l.067-.022c.043-.016.088-.032.13-.05s.105-.065.163-.092a.23.23,0,0,1,.049-.014.5.5,0,0,0,.067-.029c.065-.036.137-.072.211-.12l.112-.07.113-.078a5.012,5.012,0,0,0,.419-.332c.078-.073.188-.173.308-.3a.484.484,0,0,0,.072-.059c.019-.02.025-.043.055-.075s.046-.046.07-.069.044-.049.067-.073.046-.05.07-.074.043-.051.065-.078.035-.051.051-.077l.025-.039c.007-.013.015-.026.023-.038.031-.045.077-.08.1-.117a3.836,3.836,0,0,0,.364-.679c.012-.031.023-.061.035-.091l.017-.046c.005-.014.01-.03.014-.046.02-.062.038-.124.056-.185s.03-.125.046-.188c.009-.031.015-.062.022-.094s.015-.063.023-.094c.019-.071.022-.126.037-.183s.038-.092.052-.143a.263.263,0,0,0,0-.166c.009-.052.017-.1.026-.134a.726.726,0,0,1,.03-.105,1.91,1.91,0,0,0,.061-.309c.02.014.036,0,.052-.016s.034-.023.054,0c.014-.061.023-.058.034-.049s.023.023.044-.01c.01.131.045.2.056.333a.411.411,0,0,1-.011.142.48.48,0,0,0-.009.157c-.022.1-.062.079-.074.225-.008.055-.016.111-.025.168,0,.029-.008.057-.013.086l-.018.086c-.012.058-.023.116-.038.175s-.033.117-.049.176a4.509,4.509,0,0,1-.283.708,5.153,5.153,0,0,1-.943,1.281c-.013.015-.028.03-.042.044s-.029.03-.043.044l-.037.036.021-.009a.239.239,0,0,0,.068-.047c.033-.031.061-.064.088-.093s.047-.058.068-.081c.047-.056.085-.089.118-.079-.022.025-.043.049-.061.073l-.047.061-.073.1c-.012.016-.024.034-.036.051l-.042.05a1.12,1.12,0,0,1-.109.109c-.039.029-.022.037-.034.057.061-.052.121-.105.18-.161a5.006,5.006,0,0,0,1.564-3.626.446.446,0,0,1,.349-.119c.005-.011.018-.018.037-.024a.324.324,0,0,1,.1-.006.589.589,0,0,1,.128.028.858.858,0,0,1,.112.051.562.562,0,0,1,.1.065.554.554,0,0,1,.091.09.646.646,0,0,1,.109.221,1.05,1.05,0,0,1,.029.2c0,.064,0,.125.006.187s.006.135.006.206c0,.035,0,.071,0,.106s0,.072-.009.108a4.016,4.016,0,0,1-.2.807c-.044.13-.093.269-.143.387s-.125.228-.179.335-.1.228-.16.343c-.031.057-.076.107-.113.172s-.046.1-.082.152c-.058.09-.138.188-.2.279-.034.05-.063.1-.091.144s-.059.1-.094.145-.079.085-.114.129l-.1.126c-.031.04-.06.079-.092.119s-.083.1-.13.156c-.024.027-.05.053-.076.081l-.04.041-.041.041c-.056.056-.116.11-.178.165l-.1.082c-.032.028-.066.054-.1.081-.134.106-.278.21-.422.307s-.287.186-.421.272a.415.415,0,0,1-.123.055.392.392,0,0,0-.1.035,3.509,3.509,0,0,1-.447.219,5.218,5.218,0,0,1-.516.177c-.164.05-.33.088-.5.122-.082.016-.164.034-.247.046-.041.006-.082.014-.123.019l-.122.017a7.866,7.866,0,0,1-1.108.064c-.092,0-.176-.006-.262-.01s-.168-.011-.255-.015c-.042-.005-.083-.006-.123-.007s-.079,0-.118-.006-.115-.042-.17-.028c-.014,0-.028,0-.041,0L8.43,8.817l-.079-.011-.156-.023-.15-.022L7.9,8.734c-.083-.014-.165-.025-.246-.036s-.157-.027-.234-.044c-.047-.011-.094-.022-.14-.035-.023-.007-.047-.011-.07-.019l-.069-.023c-.093-.03-.186-.061-.286-.09-.122-.038-.254-.082-.4-.126-.108-.038-.252-.078-.363-.125-.019-.008-.039-.018-.058-.028S6,8.184,5.978,8.174l-.112-.068c-.076-.046-.15-.093-.225-.137l-.171-.1-.092-.052-.092-.058c-.062-.039-.126-.078-.191-.117l-.048-.03L5,7.579l-.092-.063-.182-.124L4.56,7.265l-.146-.113c-.043-.038-.083-.073-.116-.105l-.142-.123-.035-.029-.033-.03L4.019,6.8c-.044-.038-.088-.074-.13-.109l-.065-.049L3.763,6.6a2.337,2.337,0,0,0-.213-.232c-.031-.035-.055-.064-.082-.091s-.054-.053-.085-.088S3.3,6.1,3.257,6.039s-.1-.12-.144-.187-.1-.138-.147-.212l-.074-.107c-.022-.036-.045-.072-.068-.108s-.073-.126-.144-.24A7.376,7.376,0,0,1,2.1,3.951c-.024-.064-.047-.125-.066-.188s-.043-.129-.063-.2-.043-.14-.064-.22-.046-.165-.071-.261-.057-.246-.064-.27c-.01-.044-.021-.09-.031-.135s-.021-.092-.03-.138a1.764,1.764,0,0,1-.035-.274c-.025-.1-.049-.2-.065-.309-.008-.051-.017-.1-.024-.155s-.012-.1-.019-.155c-.013-.1-.02-.207-.031-.309s-.021-.2-.032-.3C1.5.965,1.479.9,1.473.827c-.006-.1,0-.214,0-.311-.01-.261-.027-.56-.021-.828a.346.346,0,0,0-.009-.069c0-.019.024-.118.027-.172.006-.092,0-.176,0-.276,0-.053.008-.1.013-.155s.013-.1.017-.153a1.235,1.235,0,0,1,0-.138.647.647,0,0,0,.019-.1c.008-.132.007-.251.017-.38.022-.223.065-.439.107-.686.037-.219.066-.477.113-.686.021-.1.053-.2.076-.293a1.013,1.013,0,0,0,.05-.253c.1-.258.157-.518.242-.771a5.881,5.881,0,0,1,.343-.809c.13-.255.27-.489.389-.686a5.585,5.585,0,0,1,.613-.848c.115-.13.236-.261.361-.377l.186-.176.023-.022.025-.02.048-.042.1-.082c.033-.028.067-.056.1-.082l.025-.02.025-.018.052-.036c.067-.048.134-.094.2-.144.035-.027.073-.052.108-.079l.108-.08.106-.08c.037-.027.076-.05.114-.075-.009.006.02,0,.036-.009s.083-.051.151-.093c.016-.011.034-.022.052-.032s.039-.022.058-.033l.124-.069L5.6-8.432l.122-.059.187-.089c.032-.018.137-.054.243-.093L6.3-8.73l.109-.035.254-.086.258-.072.129-.034.131-.03c.087-.019.176-.039.266-.056L7.812-9.1l.363-.043c.06-.008.121-.011.182-.016l.187-.015.094-.006.1,0,.2-.007c.12-.006.24,0,.359,0,.059,0,.119.005.179.006l.179.013.091.006.091.009.181.02.184.025.091.012.093.016c.066.012.129.017.193.027s.127.02.2.034.16.041.255.065l.142.045c.049.016.1.03.146.048.1.037.19.07.275.107l.118.049.1.044.084.036.042.019.042.019.165.078.163.087.041.023.04.025.081.052a4.108,4.108,0,0,1,.574.475,5.608,5.608,0,0,1,.514.571,4.164,4.164,0,0,1,.428.668,3.351,3.351,0,0,1,.28.771c.009.033.014.067.021.1l.019.1c.01.068.018.138.026.208s.01.14.012.211v.157a.544.544,0,0,1,0,.056,1.674,1.674,0,0,1-.023.21c-.006.033-.012.071-.021.107-.005.018-.008.038-.013.058s-.011.04-.016.06-.02.064-.03.093-.022.057-.032.08a.77.77,0,0,1-.03.088c-.012.023-.035.045-.031.036-.016.033-.031.056-.046.081s-.031.046-.049.075a1.4,1.4,0,0,1-.2.25c-.022.02-.043.042-.068.063-.01.011-.022.02-.033.03l-.034.029c-.023.019-.048.037-.072.055s-.05.035-.077.051a1.27,1.27,0,0,1-.268.13,1.2,1.2,0,0,1-.414.064l-.045,0-.041,0c-.027,0-.055-.005-.083-.007-.056-.005-.114-.012-.175-.022a1.723,1.723,0,0,1-.4-.11,1.18,1.18,0,0,1-.223-.123,1.013,1.013,0,0,1-.215-.2l-.16-.208.106-.242a1.365,1.365,0,0,0,.084-.277,2.582,2.582,0,0,0,.038-.331c0-.054.007-.109.01-.164,0-.028,0-.055,0-.082s0-.053,0-.078-.006-.052-.009-.076a.667.667,0,0,0-.011-.069c0-.024-.008-.046-.012-.069a.68.68,0,0,1-.012-.07c-.005-.043-.01-.072-.011-.1l0-.045c0-.016-.005-.032-.009-.051a1.506,1.506,0,0,0-.04-.153c-.02-.051-.038-.1-.062-.154a1.936,1.936,0,0,0-.169-.3c-.034-.047-.037-.063-.058-.1-.05-.06-.075-.059-.14-.139-.01-.016-.023-.052-.025-.054a1.325,1.325,0,0,0-.154-.119,2.668,2.668,0,0,0-.326-.224,1.912,1.912,0,0,0-.438-.181c-.028-.007-.065-.016-.1-.022s-.076-.013-.106-.02a3.959,3.959,0,0,0-.456-.092L9.5-7.336c-.042,0-.085,0-.128-.007l-.064,0c-.021,0-.042,0-.063,0l-.121,0-.058,0a.558.558,0,0,0-.058,0l-.115,0a1.565,1.565,0,0,0-.237.008l-.073.006c-.024,0-.048.008-.072.012L8.363-7.3c-.012,0-.025,0-.037.008l-.035.01-.072.018-.071.019a.473.473,0,0,0-.067.019c-.053.017-.066.009-.121.028l-.044.021-.071.029a.98.98,0,0,1-.21.062A1.1,1.1,0,0,1,7.495-7l-.071.035c-.023.013-.047.025-.071.037-.048.024-.1.047-.148.07s-.1.056-.15.087a3.749,3.749,0,0,0-.451.35c-.02.016-.033.009-.055.033S6.46-6.3,6.4-6.241c-.013.014-.028.028-.041.043l-.039.043c-.025.027-.046.051-.064.068s-.033.031-.057.051-.025.02-.035.03a.228.228,0,0,0-.027.027c-.021.02-.051.052-.086.09L6-5.827c-.021.021-.041.043-.061.067l-.12.143-.056.065-.046.058c-.068.087-.142.176-.211.281L5.4-5.054c-.033.056-.067.115-.1.175-.016.028-.039.064-.06.1s-.041.071-.054.1c-.026.055-.032.1-.058.151-.017.032-.031.064-.045.1l-.045.1-.045.1c-.007.015-.015.031-.022.048l-.021.048-.081.2L4.842-3.9l-.019.049c-.013.033-.025.066-.037.1s-.026.066-.038.1-.026.065-.036.1c-.023.067-.044.134-.066.2-.011.034-.023.067-.033.1s-.018.067-.028.1c-.019.067-.037.132-.055.2-.026.1-.046.2-.069.3-.006.026-.012.052-.017.077s-.008.051-.013.077c-.008.051-.017.1-.025.15a.886.886,0,0,0-.01.1c-.006.027-.018.03-.023.062A12.337,12.337,0,0,0,4.229-.518,10.072,10.072,0,0,0,4.3,1.047c0,.049.012.109.021.179.006.034.011.071.017.111s.016.081.023.124c.014.08.026.158.039.238s.031.157.049.237c.022.111.052.218.08.329s.064.224.1.347c.01.03.021.059.032.089s.025.057.037.087c.027.072.053.143.079.215s.057.14.085.21l.042.105.046.1c.031.068.061.137.092.206s.063.126.094.19c.015.032.03.064.046.1s.034.061.051.093c.035.061.068.122.1.179s.075.111.113.161c-.029-.063-.061-.125-.1-.187s-.062-.127-.1-.19l-.047-.092c-.014-.032-.029-.063-.043-.094C5.15,3.72,5.123,3.661,5.1,3.6c-.031-.081-.068-.178-.11-.285-.02-.052-.038-.11-.058-.168s-.041-.118-.06-.18a6.205,6.205,0,0,1-.185-.757c-.013-.072-.024-.144-.033-.216s-.014-.145-.024-.219c0-.033-.009-.069-.013-.105S4.608,1.6,4.6,1.562c-.008-.075-.015-.151-.024-.22-.005-.039-.008-.078-.013-.117s-.008-.077-.013-.115S4.545,1.031,4.54.993c0-.019,0-.039-.007-.058S4.53.9,4.528.876C4.514.718,4.5.551,4.493.362a.58.58,0,0,1-.011-.1A.244.244,0,0,0,4.491.2c0-.015,0-.031,0-.046s0-.03,0-.045,0-.058-.005-.087c0-.057-.006-.114-.007-.174a.624.624,0,0,1,.008-.094.647.647,0,0,0,.01-.1,10.805,10.805,0,0,1,.089-1.315c.006-.051.019-.053.023-.092.021-.151.054-.44.09-.6.01-.049.023-.053.03-.09.01-.067.033-.168.054-.275.01-.051.02-.105.033-.153s.024-.092.034-.127c.02-.065.037-.129.057-.192s.043-.124.064-.185C4.98-3.4,4.99-3.435,5-3.465s.023-.061.034-.09c.023-.061.045-.121.068-.18s.038-.093.055-.134l.05-.119c.03-.078.065-.148.1-.233.023-.052.041-.107.06-.144s.06-.1.093-.148.062-.1.09-.138.058-.1.085-.147l.04-.074c.014-.023.029-.047.045-.07l.122-.186.132-.179.032-.043c.012-.015.023-.03.035-.044l.071-.087.07-.086c.024-.03.05-.056.074-.084l.074-.082c.025-.028.049-.057.075-.082l.155-.157c.053-.05.108-.1.162-.147l.04-.037L6.808-6.2l.085-.069a3.652,3.652,0,0,1,1.548-.75l.16-.03.163-.022c.027,0,.054-.008.082-.01l.082-.005.083-.006.043,0a.3.3,0,0,1,.042,0h.168c.027,0,.056,0,.085,0l.087,0c.058,0,.114.009.172.013s.113.012.168.02a3.183,3.183,0,0,1,.6.141,2.034,2.034,0,0,1,.266.113c.021.011.043.02.062.032l.06.034c.021.011.039.025.059.037s.038.024.056.038l.054.039.052.043.026.021.024.023.049.045a2.169,2.169,0,0,1,.179.207,2.057,2.057,0,0,1,.142.228c.011.02.018.041.029.06s.019.041.028.062l.025.063.023.065c.009.025.016.056.025.085s.015.06.021.089a3.014,3.014,0,0,1,.048.373c0,.036,0,.072.005.108s0,.075,0,.113c0,.076-.006.152-.013.226a1.359,1.359,0,0,1-.093.389l-.14.323.214.274a1.153,1.153,0,0,0,.314.278,1.534,1.534,0,0,0,.318.143,2.158,2.158,0,0,0,.289.067c.091.015.179.023.266.029l.063,0h.084c.032,0,.064,0,.1,0l.1-.012a1.508,1.508,0,0,0,.343-.105,1.777,1.777,0,0,0,.271-.156l.059-.043.054-.043.056-.046c.018-.016.036-.034.055-.05l.07-.069a1.734,1.734,0,0,0,.443-.834c.005-.02.009-.04.012-.058l.011-.057c.006-.036.012-.073.015-.109s.008-.072.01-.107l0-.053V-5.1a3.217,3.217,0,0,0-.014-.392l-.017-.142c-.006-.047-.016-.093-.023-.141l-.013-.07-.016-.07c-.011-.046-.021-.093-.033-.138-.027-.091-.053-.183-.087-.273s-.069-.177-.106-.265c-.019-.043-.041-.085-.061-.127l-.032-.064c-.01-.022-.023-.042-.034-.063-.023-.04-.046-.082-.069-.123l-.075-.121-.037-.06-.041-.058-.082-.117-.087-.113c-.014-.018-.028-.037-.044-.056l-.045-.054a.749.749,0,0,1-.056-.077c-.01-.012-.018-.025-.028-.038a.275.275,0,0,0-.033-.037c-.014-.015-.036-.038-.064-.065s-.058-.058-.093-.089l-.1-.1a.284.284,0,0,0-.025-.024L13.163-8l-.048-.043a4.722,4.722,0,0,0-.7-.566l-.159-.1c-.054-.031-.109-.059-.163-.089s-.111-.056-.168-.083-.111-.054-.168-.077l-.172-.071-.173-.063c-.057-.021-.115-.039-.174-.057l-.088-.027c-.028-.009-.058-.018-.087-.025l-.176-.046c-.03-.008-.059-.015-.089-.021l-.088-.02c-.117-.027-.237-.047-.354-.068-.059-.01-.117-.017-.176-.026S10.059-9.395,10-9.4c-.117-.012-.236-.026-.352-.032-.019,0-.1,0-.181-.01s-.208-.009-.333-.011c-.032,0-.064,0-.1,0l-.1,0-.212.006-.109,0-.11.008-.226.016c-.076.005-.15.015-.227.023l-.222.024a.428.428,0,0,1-.049,0c-.015,0-.029,0-.043,0a.627.627,0,0,0-.092.005c-.059.009-.149.037-.217.048l-.054.008-.054.01-.107.021c-.073.014-.145.027-.221.043s-.146.052-.213.068-.187.047-.307.088l-.183.057C6.264-9.01,6.232-9,6.2-8.99l-.091.033c-.083.03-.168.056-.253.082s-.164.059-.244.092a1.305,1.305,0,0,0-.131.072l-.312.157-.047.024L5.079-8.5l-.086.049c-.056.032-.1.06-.138.081-.013.006-.07.055-.122.088a.748.748,0,0,0-.1.054c-.054.037-.106.078-.16.121s-.106.091-.164.134-.12.084-.181.127-.122.089-.181.136c-.025.019-.05.041-.076.063s-.053.044-.078.068c-.05.047-.1.1-.151.142l-.108.1c-.036.035-.07.07-.106.106L3.3-7.106c-.021.022-.042.042-.062.061S3.2-7,3.186-6.984l-.078.09c-.027.031-.053.064-.08.1-.056.067-.11.139-.166.213-.027.037-.054.075-.08.113s-.053.075-.079.112c-.05.076-.1.149-.143.223a.247.247,0,0,0-.049.057c-.041.081-.146.294-.236.467-.015.03-.1.18-.129.227a5.427,5.427,0,0,0-.331.719c-.093.245-.168.489-.231.716-.023.087-.056.173-.079.28-.014.062-.02.151-.035.216-.042.173-.113.409-.156.665-.006.038-.02.11-.033.185a1.342,1.342,0,0,0-.023.2c0,.007.015.036.014.038-.01.083-.023.171-.037.261s-.025.18-.034.268c-.011.127-.012.248-.025.46-.016.246-.027.535-.027.828s.005.592.016.858c.011.231.012.445.037.7a4.128,4.128,0,0,0,.093.953c.018.138.023.289.045.426.036.236.1.5.165.735.017.062.034.125.055.189l.058.19c.016.053.025.119.042.175.023.076.046.1.066.168s.045.151.067.228.047.15.073.223a6.051,6.051,0,0,0,.284.592c.033.066.034.09.072.168.025.05.068.108.1.155s.058.113.086.165.057.105.088.158l.075.124c.013.021.026.04.038.061s.029.04.044.062c.065.094.144.2.219.295.058.075.114.151.174.226l.088.11.091.109.045.053.047.053.1.1c.031.036.063.07.1.105.016.017.032.035.049.052l.052.048c.086.082.153.151.236.232a8.1,8.1,0,0,0,1.073.828c.051.03.1.063.156.1s.106.067.163.1l.17.093.085.047c.029.016.057.032.086.046l.345.167.328.139a.047.047,0,0,0,.033.006s0,0,.005,0c.43.165.874.287,1.28.42a.275.275,0,0,0,.116.01.289.289,0,0,1,.138.016c.06.022.19.036.171.064a.111.111,0,0,0,.08,0,.16.16,0,0,1,.067,0,.8.8,0,0,0,.1.036c.041.008.106.015.16.025s.094.018.087.038ZM6.171,8.017,6.134,8ZM5.86,7.871Zm-.051-.024.034.016h0l-.066-.033Zm-.323-.165a.427.427,0,0,0,.071.029c-.077-.044-.152-.088-.229-.135C5.385,7.614,5.439,7.654,5.486,7.681Zm-.34-.222.027.017c-.033-.021-.065-.043-.1-.065Zm-.9-.695c-.005,0-.021,0,0,.022.045.032.094.071.146.113l.077.065c.028.022.053.046.082.067l.128.1q-.226-.176-.436-.371C4.254,6.762,4.253,6.764,4.25,6.765Zm8.124.005c-.03.021-.062.042-.1.063a.328.328,0,0,0,.053-.026c.027-.019.082-.055.136-.1l0,0ZM4.016,6.542a1.207,1.207,0,0,0,.172.156c-.069-.065-.136-.131-.2-.2A.406.406,0,0,1,4.016,6.542ZM12.993,6.3l-.039.039c.017-.015.037-.035.039-.037A.033.033,0,0,0,13,6.292ZM8.7-8.882c-.051,0-.1.007-.149.01l-.143.014-.143.015c-.047.006-.094.013-.144.018s-.1.01-.152.014a1.084,1.084,0,0,0-.154.015c-.15.028-.309.05-.469.089l-.121.028-.062.013c-.02,0-.041.009-.061.015l-.25.068c-.084.021-.167.051-.252.079-.042.014-.085.027-.127.042-.022.007-.043.013-.064.021l-.063.025-.256.1c-.084.037-.167.077-.254.116s-.167.082-.25.125c-.042.022-.084.043-.126.066l-.03.016-.031.018-.06.036-.122.073-.06.037c-.021.012-.041.024-.06.037l-.235.16c-.04.026-.077.055-.114.084l-.112.086-.111.086-.107.093-.106.091-.052.046c-.017.016-.034.032-.05.049-.067.063-.133.128-.2.192a6.1,6.1,0,0,0-.937,1.217.693.693,0,0,1-.062.082c-.1.163-.164.322-.245.487A9.112,9.112,0,0,0,2.3-3.947c-.017.055-.041.094-.061.158-.022.081-.061.22-.1.372-.019.076-.036.156-.055.234s-.032.152-.046.22c-.02.09-.035.169-.055.266A11.867,11.867,0,0,0,1.8-1.357c-.037.45-.052.9-.05,1.357,0,.077,0,.155,0,.235s0,.158,0,.239c0,.357.023.737.066,1.126.011.1.021.2.035.293.008.05.014.1.021.147s.016.1.023.148.017.1.026.147l.027.148.03.147L2,2.706l.018.073c.043.2.1.391.151.582s.119.38.187.562.142.361.222.531c.01.021.019.043.029.064l.03.063c.021.042.04.083.061.124l.063.121.031.06c.011.019.021.039.033.058A7.748,7.748,0,0,0,3.76,6.272l.053.045c-.037-.04-.074-.081-.11-.123A9.26,9.26,0,0,1,1.769-.461q.15-4.272,2.268-6.354A6.894,6.894,0,0,1,4.85-7.5,5.458,5.458,0,0,1,6.222-8.28a1.538,1.538,0,0,1,.2-.1c.078-.029.161-.054.237-.081L6.8-8.506l.139-.038.141-.038c.025-.007.048-.015.072-.02l.073-.015.3-.065.3-.05.069-.013.067-.013c.045-.007.09-.016.132-.02l.116-.013c.021,0,.043-.006.064-.007s.044,0,.066-.005l.282-.018.035,0h.036l.071,0,.137,0c.044,0,.087,0,.128-.006.023,0,.046,0,.068,0h.048l.3-.005c.052,0,.1,0,.157,0s.107,0,.162.005l.165.011c.027,0,.055,0,.083.007l.085.009c.057.007.114.013.17.022s.115.019.171.03c-.027-.044-.2-.056-.268-.062l-.105-.014c-.035-.005-.071-.01-.108-.012l-.221-.022-.227-.014c-.038,0-.075,0-.113-.005s-.076,0-.113,0a1.1,1.1,0,0,1-.137.008l-.077,0H8.952Zm4.979,12.1.021,0c0-.017.005-.036.008-.055l-.021,0C13.682,3.178,13.679,3.2,13.677,3.215ZM11.912-6.176a.1.1,0,0,0,.008.024.191.191,0,0,0,.009.029c.015.04.039.084.044.107a2.78,2.78,0,0,1,.121.883,3.088,3.088,0,0,1-.038.461,1.789,1.789,0,0,1-.125.438l-.032.068.047.06a.71.71,0,0,0,.185.166.991.991,0,0,0,.214.1,1.822,1.822,0,0,0,.437.077l.055,0h.056a.623.623,0,0,0,.122-.009.849.849,0,0,0,.232-.069,1.132,1.132,0,0,0,.2-.115,1.708,1.708,0,0,0,.174-.144,1.173,1.173,0,0,0,.227-.291,1.191,1.191,0,0,1-.234.284,1.487,1.487,0,0,1-.177.139,1.028,1.028,0,0,1-.2.111.823.823,0,0,1-.228.063.692.692,0,0,1-.12.007H12.86l-.027,0-.055,0a1.764,1.764,0,0,1-.429-.082.929.929,0,0,1-.2-.1.669.669,0,0,1-.172-.155l-.034-.045.022-.051a1.818,1.818,0,0,0,.137-.508,3.273,3.273,0,0,0,.025-.522,2.533,2.533,0,0,0-.2-.954C11.911-6.2,11.909-6.192,11.912-6.176ZM10.671-8.713c.064,0,.067,0,.05-.008a.285.285,0,0,0-.062-.012h0C10.64-8.733,10.639-8.728,10.671-8.713ZM9.143-9.132h.07a.148.148,0,0,0,0-.021h-.07A.148.148,0,0,1,9.143-9.132ZM8.249,9.225c.013-.022.1-.01.144.01a.046.046,0,0,1-.028.005C8.335,9.239,8.286,9.229,8.249,9.225Zm5.466-1.083c.026,0,.066-.061.118-.1a2.314,2.314,0,0,0,.277-.21c-.015-.01-.054.018-.1.056s-.105.086-.151.122-.023,0-.007-.008a6.312,6.312,0,0,0,.568-.5c.022-.021.042-.042.063-.063s.04-.042.06-.064.04-.041.058-.061l.055-.062.052-.06c.015-.019.031-.036.046-.054.029-.035.057-.07.082-.1.038-.047.073-.1.106-.145s.069-.1.107-.149c.067-.088.158-.185.229-.288.031-.048.062-.093.093-.142s.065-.1.106-.166c.1-.151.213-.346.3-.513A2.267,2.267,0,0,1,15.95,5.3a1.1,1.1,0,0,1,.079-.207c.039-.108.063-.079.1-.159a1.561,1.561,0,0,1,.1-.328,2.164,2.164,0,0,0,.11-.371c.026-.065.054-.07.079-.149a2.4,2.4,0,0,0,.067-.5c0-.012,0-.023,0-.035V3.522c0-.019,0-.038,0-.056,0-.035,0-.069.005-.1A.614.614,0,0,1,16.5,3.29a.088.088,0,0,1,.017-.043c.005.086.007.169.007.249,0,.037,0,.087,0,.132s-.006.089-.011.132a3.05,3.05,0,0,1-.083.454c.012.025.024-.005.035-.052s.022-.108.032-.149a.759.759,0,0,1-.046.265,2.631,2.631,0,0,1-.1.249,4.156,4.156,0,0,1-.228.636c-.022.051-.044.1-.068.152l-.071.153c-.024.051-.048.1-.072.146s-.045.093-.066.139c-.028.069-.038.062-.047.057s-.017-.009-.034.028c-.045.069-.008.057-.036.109-.077.112-.173.281-.279.443a2.619,2.619,0,0,1-.316.414c0,.032-.068.114-.193.269-.041.052-.09.112-.142.176s-.12.145-.185.216a3.016,3.016,0,0,1-.367.344c0-.015.035-.047.076-.085s.091-.08.118-.111a.807.807,0,0,0-.155.121c-.057.05-.116.108-.178.154-.083.068-.171.157-.237.2a1.123,1.123,0,0,1-.144.084.984.984,0,0,0-.151.1C13.543,8.26,13.624,8.2,13.714,8.142Zm.794-.63.015.015.054-.058-.015-.014C14.545,7.475,14.526,7.495,14.508,7.513ZM16.052,5.2a.537.537,0,0,0-.036.081c-.008.024-.008.043,0,.05s.017-.019.031-.043.027-.056.041-.088a.452.452,0,0,0,.045-.142C16.12,5.077,16.083,5.139,16.052,5.2ZM70.428,7.258a4.735,4.735,0,0,1-2.056-1.841A5.378,5.378,0,0,1,67.656,2.6a5.39,5.39,0,0,1,.686-2.736A4.86,4.86,0,0,1,70.223-2a5.5,5.5,0,0,1,2.731-.669,5.2,5.2,0,0,1,2.629.638A4.285,4.285,0,0,1,77.3-.21a6.005,6.005,0,0,1,.6,2.767q0,.8-.94.8H71.133a2.079,2.079,0,0,0,.818,1.42,3.089,3.089,0,0,0,1.759.432,6.137,6.137,0,0,0,1.023-.1,5.089,5.089,0,0,0,1.126-.33,1.319,1.319,0,0,1,1.1-.01,1.194,1.194,0,0,1,.6.72,1.447,1.447,0,0,1-.04.987,1.414,1.414,0,0,1-.768.772,6.021,6.021,0,0,1-1.524.5,8.7,8.7,0,0,1-1.626.154A7.239,7.239,0,0,1,70.428,7.258ZM71.778.191a2.411,2.411,0,0,0-.665,1.441h3.8A2.25,2.25,0,0,0,74.4.181,1.681,1.681,0,0,0,73.117-.3,1.87,1.87,0,0,0,71.778.191ZM46.268,7.258a4.735,4.735,0,0,1-2.056-1.841A5.378,5.378,0,0,1,43.5,2.6a5.39,5.39,0,0,1,.686-2.736A4.86,4.86,0,0,1,46.063-2a5.5,5.5,0,0,1,2.731-.669,5.2,5.2,0,0,1,2.629.638A4.285,4.285,0,0,1,53.141-.21a6.005,6.005,0,0,1,.6,2.767q0,.8-.94.8H46.974a2.079,2.079,0,0,0,.818,1.42,3.089,3.089,0,0,0,1.759.432,6.137,6.137,0,0,0,1.023-.1,5.089,5.089,0,0,0,1.126-.33,1.319,1.319,0,0,1,1.1-.01,1.2,1.2,0,0,1,.6.72,1.453,1.453,0,0,1-.041.987,1.415,1.415,0,0,1-.767.772,6.042,6.042,0,0,1-1.525.5,8.7,8.7,0,0,1-1.626.154A7.239,7.239,0,0,1,46.268,7.258ZM47.618.191a2.411,2.411,0,0,0-.665,1.441h3.8A2.25,2.25,0,0,0,50.237.181,1.681,1.681,0,0,0,48.958-.3,1.87,1.87,0,0,0,47.618.191ZM37.871,6.847a4.765,4.765,0,0,1-.921-3.2V-5.157a1.614,1.614,0,0,1,1.8-1.852,1.856,1.856,0,0,1,1.36.473,1.849,1.849,0,0,1,.48,1.378V3.525a1.7,1.7,0,0,0,.3,1.111.964.964,0,0,0,.768.35,1.537,1.537,0,0,0,.3-.031c.1-.021.216-.038.338-.051a.576.576,0,0,1,.532.267,2.4,2.4,0,0,1,.163,1.091A1.708,1.708,0,0,1,42.7,7.34a1.367,1.367,0,0,1-.879.463,3.643,3.643,0,0,1-.471.072c-.2.02-.395.031-.572.031A3.653,3.653,0,0,1,37.871,6.847Zm-7.12,0a4.771,4.771,0,0,1-.92-3.2V-5.157a1.614,1.614,0,0,1,1.8-1.852,1.856,1.856,0,0,1,1.36.473,1.853,1.853,0,0,1,.48,1.378V3.525a1.7,1.7,0,0,0,.3,1.111.962.962,0,0,0,.767.35,1.539,1.539,0,0,0,.3-.031c.1-.021.216-.038.338-.051a.576.576,0,0,1,.532.267,2.4,2.4,0,0,1,.163,1.091,1.708,1.708,0,0,1-.287,1.08A1.367,1.367,0,0,1,34.7,7.8a3.643,3.643,0,0,1-.471.072c-.2.02-.395.031-.572.031A3.655,3.655,0,0,1,30.751,6.847Zm-11.067.422a4.657,4.657,0,0,1-1.944-1.832,5.5,5.5,0,0,1-.695-2.818A5.49,5.49,0,0,1,17.741-.21,4.669,4.669,0,0,1,19.684-2.03a6.348,6.348,0,0,1,2.925-.638,6.351,6.351,0,0,1,2.925.638A4.594,4.594,0,0,1,27.468-.21a5.547,5.547,0,0,1,.686,2.829,5.557,5.557,0,0,1-.686,2.818,4.583,4.583,0,0,1-1.933,1.832,6.351,6.351,0,0,1-2.925.638A6.348,6.348,0,0,1,19.684,7.269ZM21.239.633a2.989,2.989,0,0,0-.532,1.986,2.994,2.994,0,0,0,.532,1.975,1.725,1.725,0,0,0,1.37.617,1.706,1.706,0,0,0,1.35-.617,3,3,0,0,0,.531-1.975A3,3,0,0,0,23.96.633,1.719,1.719,0,0,0,22.61.027,1.739,1.739,0,0,0,21.239.633ZM13.588,5.666c.006.016-.036.065-.062.1C13.512,5.746,13.554,5.69,13.588,5.666Z" transform="translate(-0.485 10.157)"/></svg>