<?xml version="1.0" encoding="utf-8"?>
<!-- Generator: Adobe Illustrator 22.0.0, SVG Export Plug-In . SVG Version: 6.00 Build 0)  -->
<svg version="1.1" id="Layer_1" xmlns="http://www.w3.org/2000/svg" xmlns:xlink="http://www.w3.org/1999/xlink" x="0px" y="0px"
	 viewBox="0 0 102.2 105.6" style="enable-background:new 0 0 102.2 105.6;" xml:space="preserve">
<style type="text/css">
	.st0{opacity:0.65;fill:#DCE8F7;}
	.st1{opacity:0.51;fill:#66CAF3;}
	.st2{opacity:0.51;fill:#267BF8;}
	.st3{fill:#66CAF3;}
	.st4{fill:#1A2E35;}
	.st5{fill:#267BF8;}
</style>
<g>
	<path class="st0" d="M9.6,34.2c-11,19.3-16.3,40.4,5.1,44.7C45.2,85,36,105.6,69.5,105.6S108,64.3,96.8,43S50.2-37,9.6,34.2z"/>
	<path class="st1" d="M30.9,88.6l-0.1-0.1c-0.2-0.4,0.2-0.8,0.5-0.5l0.1,0.1c1.2,0.7,2.6,0.7,3.8,0l0.1-0.1c0.4-0.2,0.8,0.2,0.5,0.5
		l-0.1,0.1c-0.7,1.2-0.7,2.6,0,3.8l0.1,0.1c0.2,0.4-0.2,0.8-0.5,0.5l-0.1-0.1c-1.2-0.7-2.6-0.7-3.8,0L31.3,93
		c-0.4,0.2-0.8-0.2-0.5-0.5l0.1-0.1C31.6,91.2,31.6,89.7,30.9,88.6z"/>
	<path class="st2" d="M79.6,8.4l0.1-0.3c0.2-0.8,1.3-0.9,1.5-0.1l0.1,0.3c0.7,2.7,2.9,4.7,5.6,5.2l0.3,0.1c0.8,0.2,0.9,1.3,0.1,1.5
		l-0.3,0.1c-2.7,0.7-4.7,2.9-5.2,5.6l-0.1,0.3c-0.2,0.8-1.3,0.9-1.5,0.1l-0.1-0.3c-0.7-2.7-2.9-4.7-5.6-5.2l-0.3-0.1
		c-0.8-0.2-0.9-1.3-0.1-1.5l0.3-0.1C77,13.3,79.1,11.2,79.6,8.4z"/>
	<g>
		<path class="st3" d="M61.2,35.2l9.5,23.9c1.8,4.5-4.6,11.2-14.2,15.1S37.6,77.5,35.8,73l-9.4-23.7L61.2,35.2z"/>
		<g>
			<path class="st4" d="M60.3,37.4c3.1,7.2,6.2,14.6,9.2,22.1l0.6,1.4c0.1,0.2,0.2,0.5,0.2,0.8l0.1,0.4l0,0.4c0.1,0.6,0,1.1-0.1,1.6
				c-0.2,0.5-0.3,1-0.5,1.5c-0.9,1.9-2.2,3.5-3.8,4.8c-3,2.7-6.7,4.6-10.4,6.1C52,77.9,48.1,79,44,79.1c-2,0.1-4.1-0.1-6-0.8
				c-1-0.3-1.9-0.9-2.6-1.7c-0.4-0.4-0.6-0.9-0.9-1.3L34,73.9c-3.1-7.4-6.1-14.8-9-22.2c-0.1-0.3,0-0.6,0.3-0.7
				c5.9-2.4,11.8-4.7,17.6-7L60.3,37.4z M60.3,37.5l-17.4,7.4c-5.7,2.4-11.5,4.8-17.2,7.1l0.3-0.7c2.9,7.4,5.9,14.9,8.7,22.3
				l0.5,1.4c0.2,0.4,0.4,0.8,0.7,1.2c0.6,0.7,1.4,1.3,2.3,1.6c1.8,0.7,3.8,0.9,5.8,0.9c4-0.1,7.9-1.1,11.6-2.6
				c3.7-1.5,7.1-3.6,10-6.3c1.4-1.4,2.7-2.9,3.5-4.6c0.2-0.4,0.3-0.9,0.4-1.3c0-0.5,0.1-0.9,0.1-1.4l0-0.3l-0.1-0.3
				c-0.1-0.2-0.1-0.4-0.2-0.7l-0.5-1.4C65.9,52.5,63.1,45.2,60.3,37.5z"/>
		</g>
		<polygon class="st5" points="53.9,60.6 14.3,56.7 40.3,26.6 79.9,30.5 		"/>
		<g>
			<path class="st4" d="M49.6,61.4l-9.8-0.8l-9.9-0.8l-9.9-0.9c-3.3-0.3-6.6-0.7-9.9-1c-0.2,0-0.4-0.2-0.4-0.4c0-0.1,0-0.2,0.1-0.2
				c4.4-5,8.9-9.9,13.2-14.9c2.2-2.5,4.4-5,6.5-7.5c2.2-2.5,4.3-5.1,6.4-7.6c0.1-0.1,0.1-0.1,0.2-0.1l0,0l19.8,1.7l9.9,0.9l9.9,1
				c0.3,0,0.5,0.3,0.5,0.6c0,0.1-0.1,0.2-0.1,0.3c-2.2,2.5-4.4,5-6.6,7.5l-6.6,7.5l-6.6,7.4L49.6,61.4z M49.6,61.3l6.4-7.7l6.4-7.6
				l6.4-7.6c2.1-2.5,4.3-5,6.4-7.5l0.3,0.9l-9.9-1l-9.9-1L36,27.7l0.2-0.1c-2.2,2.5-4.4,4.9-6.6,7.4c-2.2,2.5-4.4,5-6.5,7.5
				c-4.3,5-8.6,10.1-12.9,15.2L10,57.1c3.3,0.3,6.6,0.6,9.8,0.9l9.9,1l9.9,1.1L49.6,61.3z"/>
		</g>
		<g>
			<path class="st4" d="M42.8,44.4c-4.3,0.9-8.8,1.5-13.2,1.8c-2.2,0.1-4.4,0.1-6.7,0.1l-3.3,0.1c-1.1,0-2.2,0-3.3,0
				c-1.1,0-2.2,0-3.3-0.1c-0.6-0.1-1.1-0.1-1.7-0.2l-1.7-0.3c-1.1-0.3-2.2-0.6-3.2-1.3C5.4,44,4.5,43,4,42c-1.1-2.2-0.9-4.6-0.5-6.8
				C4,32.9,4.9,30.8,6,28.9c0,0,0,0,0.1,0c0,0,0,0,0,0.1c-0.8,2.1-1.5,4.2-1.8,6.3c-0.2,1.1-0.2,2.2-0.1,3.2c0.1,1.1,0.3,2.1,0.8,3
				c0.4,0.9,1.2,1.7,2,2.2c0.8,0.6,1.9,0.9,2.9,1.2c2.1,0.5,4.3,0.8,6.5,1c2.2,0.2,4.4,0.2,6.6,0.1c2.2-0.1,4.4-0.4,6.6-0.6
				C34,45,38.4,44.6,42.8,44.4C42.8,44.3,42.9,44.4,42.8,44.4C42.9,44.4,42.9,44.4,42.8,44.4z"/>
		</g>
		<g>
			<path class="st4" d="M3.7,38.1c0.3-1.6,0.9-3,1.7-4.4c0.4-0.7,0.8-1.4,1.3-2c0.5-0.6,1-1.3,1.7-1.7l-1,2.1
				c-0.3,0.7-0.7,1.4-1,2.1C5.5,35.5,4.7,36.8,3.7,38.1z"/>
		</g>
		<g>
			<path class="st4" d="M3.5,37.8c-0.8-1.4-1.3-2.9-1.7-4.4c-0.2-0.8-0.3-1.5-0.4-2.3c-0.1-0.8-0.1-1.6,0.1-2.4l0.7,2.3
				c0.2,0.7,0.4,1.5,0.6,2.3C3.1,34.7,3.4,36.2,3.5,37.8z"/>
		</g>
		<g>
			<path class="st4" d="M3.4,37.5c-0.5-1.5-0.7-3.1-0.7-4.7c0-0.8,0-1.6,0.1-2.4c0.1-0.8,0.2-1.6,0.6-2.3l0.2,2.4
				c0.1,0.8,0.1,1.6,0.1,2.3C3.7,34.4,3.7,35.9,3.4,37.5z"/>
		</g>
	</g>
</g>
</svg>
