<?xml version="1.0" encoding="UTF-8"?>
<svg width="18px" height="18px" viewBox="0 0 18 18" version="1.1" xmlns="http://www.w3.org/2000/svg" xmlns:xlink="http://www.w3.org/1999/xlink">
    <!-- Generator: Sketch 57.1 (83088) - https://sketch.com -->
    <title>info copy</title>
    <desc>Created with Sketch.</desc>
    <g id="Page-1" stroke="none" stroke-width="1" fill="none" fill-rule="evenodd">
        <g id="info-copy" transform="translate(1.000000, 1.000000)" fill-rule="nonzero">
            <g id="Shape">
                <g id="Group">
                    <g id="path-1-link" fill="#000000">
                        <path d="M8,0 C3.58862307,0 0,3.58862307 0,8 C0,12.411377 3.58862307,16 8,16 C12.411377,16 16,12.411377 16,8 C16,3.58862307 12.411377,0 8,0 Z" id="path-1"></path>
                    </g>
                    <g id="path-1-link" fill="#FCFCFC" stroke="#6A6969" stroke-width="0.8">
                        <path d="M8,0 C3.58862307,0 0,3.58862307 0,8 C0,12.411377 3.58862307,16 8,16 C12.411377,16 16,12.411377 16,8 C16,3.58862307 12.411377,0 8,0 Z" id="path-1"></path>
                    </g>
                </g>
            </g>
            <g id="Group-2" transform="translate(6.400000, 4.000000)" fill="#6A6969">
                <path d="M1.756,-5.68434189e-14 C2.1071335,-5.68434189e-14 2.392,0.284866496 2.392,0.636 C2.392,0.987133502 2.1071335,1.272 1.756,1.272 C1.4048665,1.272 1.12,0.987133502 1.12,0.636 C1.12,0.284866496 1.4048665,-5.68434189e-14 1.756,-5.68434189e-14 Z" id="Path"></path>
                <path d="M3.05552164,7.77770995 L0.555521641,7.77770995 C0.248311354,7.77770995 0,7.52888997 0,7.22218831 C0,6.91548664 0.248311354,6.66666667 0.555521641,6.66666667 L1.25,6.66666667 L1.25,3.33333333 L0.833333333,3.33333333 C0.526123047,3.33333333 0.277709948,3.08441162 0.277709948,2.77770995 C0.277709948,2.47111003 0.526123047,2.22218831 0.833333333,2.22218831 L1.80552164,2.22218831 C2.11273193,2.22218831 2.36104328,2.47111003 2.36104328,2.77770995 L2.36104328,6.66666667 L3.05552164,6.66666667 C3.36273193,6.66666667 3.61104328,6.91548664 3.61104328,7.22218831 C3.61104328,7.52888997 3.36273193,7.77770995 3.05552164,7.77770995 Z" id="Path"></path>
            </g>
        </g>
    </g>
</svg>