<svg xmlns="http://www.w3.org/2000/svg" xmlns:xlink="http://www.w3.org/1999/xlink" width="40" height="40" viewBox="0 0 40 40"><defs><style>.a{fill:none;}.b{fill:#fff;}.c{filter:url(#a);}</style><filter id="a" x="0" y="0" width="40" height="40" filterUnits="userSpaceOnUse"><feOffset input="SourceAlpha"/><feGaussianBlur stdDeviation="4" result="b"/><feFlood flood-opacity="0.161"/><feComposite operator="in" in2="b"/><feComposite in="SourceGraphic"/></filter></defs><g transform="translate(10 10)"><path class="a" d="M0,0H20V20H0Z"/><g class="c" transform="matrix(1, 0, 0, 1, -10, -10)"><path class="b" d="M10,2c2.174,0,2.445.008,3.3.048a5.893,5.893,0,0,1,1.942.372,3.9,3.9,0,0,1,1.418.922A3.926,3.926,0,0,1,17.58,4.76,5.91,5.91,0,0,1,17.952,6.7C17.99,7.555,18,7.826,18,10s-.008,2.445-.048,3.3a5.914,5.914,0,0,1-.372,1.942,4.084,4.084,0,0,1-2.34,2.34,5.91,5.91,0,0,1-1.942.372c-.853.038-1.124.048-3.3.048s-2.445-.008-3.3-.048A5.914,5.914,0,0,1,4.76,17.58a4.084,4.084,0,0,1-2.34-2.34A5.889,5.889,0,0,1,2.048,13.3C2.01,12.445,2,12.174,2,10s.008-2.445.048-3.3A5.889,5.889,0,0,1,2.42,4.76a3.9,3.9,0,0,1,.922-1.418A3.918,3.918,0,0,1,4.76,2.42,5.889,5.889,0,0,1,6.7,2.048C7.555,2.01,7.826,2,10,2Zm0,4a4,4,0,1,0,4,4A4,4,0,0,0,10,6Zm5.2-.2a1,1,0,1,0-1,1A1,1,0,0,0,15.2,5.8ZM10,7.6A2.4,2.4,0,1,1,7.6,10,2.4,2.4,0,0,1,10,7.6Z" transform="translate(10 10)"/></g></g></svg>