<?xml version="1.0" encoding="utf-8"?>
<!-- Generator: Adobe Illustrator 22.0.0, SVG Export Plug-In . SVG Version: 6.00 Build 0)  -->
<svg version="1.1" id="Layer_1" xmlns="http://www.w3.org/2000/svg" xmlns:xlink="http://www.w3.org/1999/xlink" x="0px" y="0px"
	 viewBox="0 0 182.8 191.3" style="enable-background:new 0 0 182.8 191.3;" xml:space="preserve">
<style type="text/css">
	.st0{opacity:0.37;fill:#FFFFFF;}
	.st1{opacity:0.61;fill:#FFFFFF;}
	.st2{opacity:0.73;fill:#FFFFFF;}
	.st3{opacity:0.78;fill:#FFFFFF;}
	.st4{fill:#F9E49F;}
	.st5{fill:#1A2E35;}
	.st6{fill:#F9D05D;}
</style>
<g>
	<path class="st0" d="M177,43.8c0.2,0.3,0.4,0.6,0.6,1c9.4,15.7,5.9,34.7-8.2,46.7c-5.2,4.5-11.5,7.2-17.7,11.2
		c-0.5,0.3-1.1,0.7-1.6,1.1c-8.4,5.8-16.4,14.7-21,34.6c-7.1,31-17.7,54.1-42.2,53c-0.3,0-0.6,0-0.9-0.1c-3.4-0.2-7.1-0.9-11.1-2.2
		c-11.6-3.5-20.7-13.7-27.2-27c-0.2-0.4-0.4-0.9-0.6-1.3c-4.3-9.4-7.4-20.2-9-31.2c-0.2-1.2-0.4-2.4-0.7-3.6
		c-0.1-0.3-0.1-0.7-0.2-1.1c-1.6-6.7-4.5-13-7.9-19c-0.2-0.3-0.3-0.6-0.5-0.8c-6.4-11.1-14.2-21.1-18.5-30.4c-0.4-0.8-0.7-1.5-1-2.3
		c-0.1-0.3-0.3-0.7-0.4-1c-1-2.7-1.7-5.3-2-7.9c-0.1-0.3-0.1-0.6-0.1-0.9c-0.8-7,0.5-13.9,3.7-20.2c0.2-0.3,0.3-0.6,0.5-0.9
		c5.2-9.6,15-18,28.5-23.6c0.4-0.2,0.7-0.3,1.1-0.4c9-3.6,19.6-6,31.6-6.9c0.4,0,0.7-0.1,1.1-0.1c10.9-0.7,23-0.1,36,2.1
		c0.3,0,0.6,0.1,0.9,0.2c4.5,0.8,9.1,1.7,13.9,2.9c0.3,0.1,0.6,0.2,0.9,0.2c3.6,0.9,7.4,1.9,11.1,3.1c0.3,0.1,0.6,0.2,0.9,0.3
		c4.2,1.3,8.4,2.7,12.7,4.3C162.8,28.2,171.7,35.5,177,43.8z"/>
	<path class="st1" d="M19,126.6l0.4,0.3c1,0.6,0.5,2.3-0.7,2.1l-0.5-0.1c-4-0.4-7.9,1.5-10,4.9l-0.3,0.4c-0.6,1-2.3,0.5-2.1-0.7
		l0.1-0.5c0.4-4-1.5-7.9-4.9-10l-0.4-0.3c-1-0.6-0.5-2.3,0.7-2.1l0.5,0.1c4,0.4,7.9-1.5,10-4.9l0.3-0.4c0.6-1,2.3-0.5,2.1,0.7
		l-0.1,0.5C13.7,120.6,15.6,124.5,19,126.6z"/>
	<path class="st2" d="M147,6.8l0.2,0.2c0.6,0.4,0.3,1.3-0.4,1.2l-0.3,0c-2.3-0.3-4.6,0.8-5.8,2.8l-0.2,0.2c-0.4,0.6-1.3,0.3-1.2-0.4
		l0-0.3c0.3-2.3-0.8-4.6-2.8-5.8l-0.2-0.2c-0.6-0.4-0.3-1.3,0.4-1.2l0.3,0c2.3,0.3,4.6-0.8,5.8-2.8l0.2-0.2c0.4-0.6,1.3-0.3,1.2,0.4
		l0,0.3C144,3.3,145.1,5.6,147,6.8z"/>
	<path class="st3" d="M30.9,33.2l0.2,0.2c0.6,0.4,0.3,1.3-0.4,1.2l-0.3,0c-2.3-0.3-4.6,0.8-5.8,2.8l-0.2,0.2
		c-0.4,0.6-1.3,0.3-1.2-0.4l0-0.3c0.3-2.3-0.8-4.6-2.8-5.8L20.3,31c-0.6-0.4-0.3-1.3,0.4-1.2l0.3,0c2.3,0.3,4.6-0.8,5.8-2.8l0.2-0.2
		c0.4-0.6,1.3-0.3,1.2,0.4l0,0.3C27.9,29.8,29,32,30.9,33.2z"/>
	<path class="st4" d="M129,62l21.3,48.7c0.6,1.5,0,3.2-1.5,3.8l-72.3,31.7c-1.5,0.6-3.1,0-3.8-1.5L51.4,96c-0.6-1.5,0-3.1,1.5-3.8
		l4.4-1.9l-1.6-3.7c-0.6-1.5,0-3.1,1.5-3.8l22-9.7c1.5-0.6,3.1,0,3.8,1.5l1.6,3.7l40.7-17.8C126.6,59.9,128.3,60.5,129,62z"/>
	<path class="st5" d="M130.9,58.4c6.8,15.5,13.9,31,20.8,46.5l0.6,1.5c0.2,0.5,0.5,1,0.5,1.6c0.1,1.2-0.5,2.5-1.6,3.1
		c-0.3,0.2-0.5,0.3-0.8,0.4l-0.7,0.3l-1.5,0.6l-2.9,1.3l-11.7,5.1l-23.4,10c-7.8,3.4-15.6,6.8-23.3,10.2l-5.8,2.6l-2.9,1.3
		c-1.1,0.4-2.4,0.2-3.2-0.6c-0.4-0.4-0.7-0.9-0.9-1.4l-0.6-1.5l-1.3-2.9l-2.6-5.8l-10.4-23.2l-5.1-11.6l-1.3-2.9
		c-0.6-1-0.5-2.5,0.2-3.5c0.3-0.5,0.9-0.9,1.4-1.2l1.5-0.6l2.9-1.3L58.7,87l-1-2.4l-0.5-1.2c-0.2-0.4-0.3-0.9-0.4-1.4
		c0-1,0.4-2,1.2-2.7c0.4-0.3,0.9-0.5,1.2-0.7l1.2-0.5l9.4-4.1l9.4-4.1l1.2-0.5c0.4-0.2,0.9-0.4,1.4-0.4c1-0.1,2,0.2,2.7,0.9
		c0.4,0.3,0.6,0.8,0.8,1.2l0.5,1.2l1,2.4l-0.6-0.2l22.5-9.6l11.2-4.8l5.6-2.4l1.4-0.6c0.5-0.2,1-0.3,1.5-0.3
		C129.6,56.7,130.5,57.4,130.9,58.4z M130.8,58.4c-0.4-0.9-1.3-1.6-2.3-1.7c-1-0.1-1.9,0.5-2.9,0.9l-5.6,2.5l-11.2,5l-22.3,10
		c-0.2,0.1-0.5,0-0.6-0.2l0,0l0,0l-1-2.3l-0.5-1.2c-0.2-0.4-0.3-0.7-0.6-0.9c-0.5-0.5-1.3-0.7-2-0.6c-0.4,0-0.7,0.2-1.1,0.4
		l-1.2,0.5l-9.4,4.1l-9.4,4.1l-1.2,0.5c-0.4,0.2-0.7,0.3-1,0.5c-0.5,0.4-0.9,1.2-0.8,1.9c0,0.4,0.1,0.7,0.3,1l0.5,1.2l1,2.4
		c0.1,0.3,0,0.6-0.3,0.7l0,0l-2.9,1.3L55,89.1c-0.4,0.2-0.8,0.5-1,0.8c-0.5,0.7-0.6,1.7-0.2,2.5l1.3,2.9l5.1,11.7l10.1,23.4l2.5,5.8
		l1.3,2.9l0.6,1.5c0.2,0.5,0.4,0.9,0.8,1.3c0.7,0.7,1.8,0.9,2.7,0.5l2.9-1.3l5.8-2.5c7.8-3.4,15.5-6.8,23.3-10.2l23.2-10.4l11.6-5.1
		l2.9-1.3l1.5-0.6l0.7-0.3c0.3-0.1,0.5-0.2,0.7-0.3c0.8-0.5,1.2-1.4,1.2-2.3c0-0.4-0.2-0.9-0.4-1.4l-0.6-1.5
		C144.2,89.6,137.7,74,130.8,58.4z"/>
	<path class="st4" d="M158.4,113.9c0.5,1.4-0.2,2.9-1.6,3.5l-72.8,31.9c-1.4,0.6-2.9,0.1-3.7-1.2l-23-41c-0.4-0.7-0.5-1.5-0.2-2.3
		c0.3-0.8,0.8-1.4,1.6-1.7l80.9-35.5c0.7-0.3,1.6-0.3,2.3,0c0.7,0.3,1.3,0.9,1.6,1.7L158.4,113.9z"/>
	<path class="st5" d="M154.5,112c0.5,1.4-0.3,3.1-1.7,3.7l-4,1.8l-8,3.6l-15.9,7.2c-10.6,4.8-21.3,9.5-32,14.1l-8,3.5l-4,1.7
		c-0.3,0.1-0.7,0.3-1.1,0.4c-0.4,0.1-0.8,0.1-1.2,0.1c-0.8-0.1-1.6-0.5-2.1-1.1c-0.3-0.3-0.4-0.7-0.6-1l-0.5-1l-1.1-1.9l-2.1-3.8
		l-4.2-7.6c-2.8-5.1-5.7-10.2-8.6-15.2l-4.3-7.6l-1.1-1.9l-0.5-1c-0.2-0.3-0.4-0.6-0.5-1c-0.3-0.8-0.2-1.6,0.1-2.3
		c0.3-0.7,1-1.3,1.7-1.6c21.3-9.5,42.6-19,64-28.3l16-7c0.3-0.1,0.6-0.3,1.1-0.4c0.4-0.1,0.8-0.2,1.3-0.1c0.8,0.1,1.6,0.5,2.2,1.1
		c0.3,0.3,0.5,0.7,0.6,1.1l0.3,1l0.7,2.1l2.7,8.3C147.3,89.8,150.9,100.9,154.5,112z M154.4,112c-3.7-11.1-7.5-22.1-11.3-33.1
		l-2.9-8.3l-0.7-2.1l-0.4-1c-0.1-0.3-0.3-0.6-0.5-0.8c-0.4-0.5-1-0.8-1.6-0.8c-0.6-0.1-1.2,0.2-1.9,0.5l-16,7.1
		c-21.3,9.4-42.7,18.7-64.2,27.9c-1.3,0.5-2,2-1.6,3.2c0.1,0.3,0.3,0.6,0.5,0.9l0.5,1l1.1,1.9l4.2,7.6c2.8,5.1,5.6,10.2,8.5,15.3
		c2.9,5.1,5.7,10.2,8.6,15.1c0.4,0.5,1,0.8,1.7,0.9c0.7,0.1,1.3-0.2,1.9-0.5l4-1.8l8-3.6c10.7-4.7,21.3-9.4,32.1-14l16.1-6.9l8-3.5
		l4-1.7C154.1,115,154.9,113.4,154.4,112z"/>
	<path class="st6" d="M101.5,43.8l-0.7,26.4c-0.1,5-8.9,8.8-19.5,8.5S62,74.2,62.2,69.2L62.8,43L101.5,43.8z"/>
	<path class="st5" d="M99.7,45.5c0,8-0.1,16.4-0.2,24.7l0,1.6c0,0.2,0,0.5-0.1,0.8l-0.1,0.4l-0.1,0.4c-0.2,0.5-0.5,1-0.8,1.5
		c-0.4,0.4-0.7,0.9-1.1,1.2c-1.6,1.5-3.5,2.4-5.5,3c-4,1.3-8.2,1.6-12.3,1.5c-2.1-0.1-4.1-0.3-6.1-0.6c-2-0.3-4-0.9-6-1.6
		c-1.9-0.8-3.8-1.7-5.3-3.2c-0.8-0.7-1.4-1.6-1.8-2.6c-0.2-0.5-0.2-1.1-0.3-1.6l0-1.5c0.1-8.2,0.3-16.4,0.5-24.6
		c0-0.3,0.2-0.5,0.5-0.5c6.5,0.1,13,0.3,19.5,0.5L99.7,45.5z M99.6,45.5l-19.4-0.1c-6.4,0-12.8-0.1-19.2-0.3l0.5-0.5
		c-0.2,8.2-0.5,16.4-0.8,24.6l-0.1,1.5c0,0.5,0,1,0.2,1.4c0.3,0.9,0.8,1.8,1.6,2.5c1.4,1.4,3.2,2.4,5.1,3.2c3.8,1.5,7.9,2.2,12,2.3
		c4.1,0,8.2-0.5,12-1.9c1.9-0.7,3.7-1.6,5.2-3c0.4-0.3,0.7-0.7,1-1.1c0.2-0.4,0.5-0.8,0.6-1.3l0.1-0.3l0-0.3c0-0.2,0.1-0.4,0.1-0.7
		l0.1-1.5C98.8,62,99.2,53.9,99.6,45.5z"/>
	<polygon class="st4" points="84.2,64.8 48.4,45 85.2,27.2 121,46.9 	"/>
	<path class="st5" d="M79.9,63.8l-9-4.7l-9-4.8l-9-4.9c-3-1.6-6-3.3-9-5c-0.2-0.1-0.3-0.4-0.2-0.6c0-0.1,0.1-0.1,0.2-0.2
		c6.2-2.9,12.4-5.7,18.5-8.7c3.1-1.5,6.1-3,9.2-4.5l9.2-4.5c0.1,0,0.2,0,0.2,0l0,0l18,9.7l9,4.9l9,4.9c0.2,0.1,0.3,0.4,0.2,0.7
		c-0.1,0.1-0.1,0.2-0.2,0.2c-3.1,1.5-6.2,3-9.3,4.4l-9.3,4.4l-9.3,4.3L79.9,63.8z M79.9,63.7l9.2-4.7l9.1-4.6l9.1-4.6
		c3-1.5,6.1-3,9.1-4.5l0,0.9l-9-4.9l-8.9-5l-17.8-10l0.3,0l-9.2,4.4c-3.1,1.5-6.2,2.9-9.2,4.5c-6.1,3-12.2,6.1-18.3,9.1l0-0.7
		c3,1.6,6,3.2,8.9,4.9l8.9,5l8.9,5L79.9,63.7z"/>
	<path class="st5" d="M81.3,44.4c-4.4-1-8.9-2.1-13.2-3.3c-2.2-0.6-4.4-1.3-6.6-1.7c-2.2-0.5-4.5-0.8-6.7-1
		c-2.3-0.2-4.5-0.3-6.7-0.1c-1.1,0.2-2.2,0.3-3.1,0.7c-1,0.4-1.8,1.1-2.4,1.9c-0.6,0.8-1,1.8-1.3,2.9c-0.3,1.1-0.4,2.2-0.4,3.3
		c0,2.2,0.2,4.5,0.7,6.7c0,0,0,0.1,0,0.1c0,0-0.1,0-0.1,0c-0.8-2.1-1.3-4.4-1.4-6.7c-0.1-2.3,0.2-4.8,1.6-6.8c0.7-1,1.7-1.8,2.9-2.3
		c1.1-0.5,2.3-0.6,3.5-0.7l1.7,0c0.6,0,1.2,0.1,1.7,0.1c1.2,0.1,2.3,0.3,3.4,0.4c1.1,0.2,2.2,0.4,3.4,0.6l3.4,0.6
		c2.2,0.4,4.5,0.8,6.7,1.3C72.7,41.3,77,42.6,81.3,44.4C81.3,44.3,81.3,44.4,81.3,44.4C81.3,44.4,81.3,44.4,81.3,44.4z"/>
	<path class="st5" d="M40.5,44.1c0.8,1.4,1.4,3,1.9,4.5c0.2,0.8,0.5,1.5,0.7,2.3l0.7,2.3c-0.6-0.6-1-1.3-1.4-2.1
		c-0.4-0.7-0.7-1.5-0.9-2.3C40.9,47.4,40.5,45.8,40.5,44.1z"/>
	<path class="st5" d="M40.3,44.4c-0.4,1.6-1,3.1-1.6,4.6c-0.3,0.7-0.7,1.5-1,2.2l-1.1,2.2c-0.1-0.8,0.1-1.7,0.3-2.5
		c0.2-0.8,0.5-1.6,0.8-2.3C38.4,47.1,39.2,45.7,40.3,44.4z"/>
	<path class="st5" d="M40.1,44.6c0,1.7-0.2,3.3-0.5,4.8c-0.2,0.8-0.3,1.6-0.5,2.4l-0.6,2.4c-0.2-0.8-0.2-1.7-0.2-2.5
		c0-0.8,0.2-1.6,0.3-2.4C39,47.7,39.4,46.1,40.1,44.6z"/>
</g>
</svg>
