<svg xmlns="http://www.w3.org/2000/svg" width="14" height="14">
    <path fill="#0073B1" fill-rule="evenodd" d="M10.606 13.523V7.815c-.93-2.255-3.135.816-3.135.816v4.892H4.554V4.554h2.917v1.715c.356-.478 1.434-1.715 3.135-1.715.199 0 .369.022.524.053.04.006.079.014.118.023.033.009.062.019.093.029 1.253.327 2.182 1.456 2.182 2.811v6.053h-2.917zM.477 4.554h2.917v8.969H.477V4.554zm1.427-1.223c-.788 0-1.427-.639-1.427-1.427S1.116.477 1.904.477s1.427.639 1.427 1.427-.639 1.427-1.427 1.427z"/>
</svg>
