<svg xmlns="http://www.w3.org/2000/svg" xmlns:xlink="http://www.w3.org/1999/xlink" width="38" height="38" viewBox="0 0 38 38"><defs><style>.a{fill:none;}.b{fill:#fff;}.c{filter:url(#a);}</style><filter id="a" x="0" y="0" width="38" height="38" filterUnits="userSpaceOnUse"><feOffset input="SourceAlpha"/><feGaussianBlur stdDeviation="4" result="b"/><feFlood flood-opacity="0.161"/><feComposite operator="in" in2="b"/><feComposite in="SourceGraphic"/></filter></defs><g transform="translate(9 9)"><path class="a" d="M0,0H20V20H0Z"/><g class="c" transform="matrix(1, 0, 0, 1, -9, -9)"><path class="b" d="M14.927,14.93H12.854V11.682c0-.775-.016-1.772-1.081-1.772s-1.245.843-1.245,1.715V14.93H8.455V8.25h1.991v.91h.027a2.187,2.187,0,0,1,1.966-1.079c2.1,0,2.489,1.383,2.489,3.182V14.93ZM6.113,7.336a1.2,1.2,0,1,1,1.2-1.2,1.2,1.2,0,0,1-1.2,1.2ZM7.153,14.93H5.074V8.25h2.08v6.68ZM15.966,3H4.034A1.02,1.02,0,0,0,3,4.009V15.991A1.02,1.02,0,0,0,4.033,17h11.93A1.024,1.024,0,0,0,17,15.991V4.009A1.024,1.024,0,0,0,15.962,3h0Z" transform="translate(9 9)"/></g></g></svg>