<?xml version="1.0" encoding="UTF-8"?>
<svg width="15px" height="13px" viewBox="0 0 15 13" version="1.1" xmlns="http://www.w3.org/2000/svg" xmlns:xlink="http://www.w3.org/1999/xlink">
    <!-- Generator: Sketch 57.1 (83088) - https://sketch.com -->
    <title>newspaper</title>
    <desc>Created with Sketch.</desc>
    <g id="Page-1" stroke="none" stroke-width="1" fill="none" fill-rule="evenodd">
        <g id="newspaper" fill="#A6A4EC" fill-rule="nonzero">
            <polygon id="Path" points="3.33297414 3.93265086 6.12217134 3.93265086 6.12217134 5.45622307 3.33297414 5.45622307"></polygon>
            <path d="M14.8530442,0.523572207 C14.8530442,0.23450969 14.6185345,0 14.329472,0 L0.523572207,0 C0.234375,0 -2.84217094e-14,0.23450969 -2.84217094e-14,0.523572207 L-2.84217094e-14,10.9546067 C-2.84217094e-14,12.0763739 0.912580828,12.9889548 2.03434807,12.9889548 L14.329472,12.9889548 C14.6185345,12.9889548 14.8530442,12.7545797 14.8530442,12.4653826 L14.8530442,0.523572207 Z M2.28582972,3.40907866 C2.28582972,3.11988145 2.52020476,2.88550648 2.80940193,2.88550648 L6.64574352,2.88550648 C6.93494072,2.88550648 7.16945041,3.11988145 7.16945041,3.40907866 L7.16945041,5.97979524 C7.16945041,6.26899245 6.93494072,6.50350214 6.64574352,6.50350214 L2.80940193,6.50350214 C2.52020476,6.50350214 2.28582972,6.26899245 2.28582972,5.97979524 L2.28582972,3.40907866 Z M11.9737338,10.5773168 L2.80940193,10.5773168 C2.52020476,10.5773168 2.28582972,10.3429418 2.28582972,10.0537446 C2.28582972,9.76454741 2.52020476,9.53017241 2.80940193,9.53017241 L11.9737338,9.53017241 C12.262931,9.53017241 12.4974407,9.76454741 12.4974407,10.0537446 C12.4974407,10.3429418 12.262931,10.5773168 11.9737338,10.5773168 L11.9737338,10.5773168 Z M11.9737338,8.43359376 L2.80940193,8.43359376 C2.52020476,8.43359376 2.28582972,8.19921876 2.28582972,7.91002155 C2.28582972,7.62082434 2.52020476,7.38631466 2.80940193,7.38631466 L11.9737338,7.38631466 C12.262931,7.38631466 12.4974407,7.62082434 12.4974407,7.91002155 C12.4974407,8.19921876 12.262931,8.43359376 11.9737338,8.43359376 Z M11.9737338,6.28987069 L8.66527479,6.28987069 C8.37607759,6.28987069 8.14170259,6.05549569 8.14170259,5.76629848 C8.14170259,5.47710131 8.37607759,5.24272628 8.66527479,5.24272628 L11.9737338,5.24272628 C12.262931,5.24272628 12.4974407,5.47710131 12.4974407,5.76629848 C12.4974407,6.05549569 12.262931,6.28987069 11.9737338,6.28987069 Z M11.9737338,4.14614762 L8.66527479,4.14614762 C8.37607759,4.14614762 8.14170259,3.91177262 8.14170259,3.62257545 C8.14170259,3.33337824 8.37607759,3.09900324 8.66527479,3.09900324 L11.9737338,3.09900324 C12.262931,3.09900324 12.4974407,3.33337824 12.4974407,3.62257545 C12.4974407,3.91177262 12.262931,4.14614762 11.9737338,4.14614762 Z" id="Shape"></path>
        </g>
    </g>
</svg>