<?xml version="1.0" encoding="utf-8"?>
<!-- Generator: Adobe Illustrator 22.0.0, SVG Export Plug-In . SVG Version: 6.00 Build 0)  -->
<svg version="1.1" id="Layer_1" xmlns="http://www.w3.org/2000/svg" xmlns:xlink="http://www.w3.org/1999/xlink" x="0px" y="0px"
	 viewBox="0 0 123.7 108.7" style="enable-background:new 0 0 123.7 108.7;" xml:space="preserve">
<style type="text/css">
	.st0{opacity:0.65;}
	.st1{fill:#DCE8F7;}
	.st2{fill:#DCF7FF;}
	.st3{fill:#1A2E35;}
	.st4{fill:#267BF8;}
	.st5{opacity:0.51;fill:#66CAF3;}
	.st6{opacity:0.51;fill:#267BF8;}
</style>
<g>
	<g class="st0">
		<path class="st1" d="M96.7,6.7c1,0.5,1.9,1,2.9,1.6c0.2,0.1,0.4,0.2,0.6,0.4c3.1,2,5.7,4.6,7.9,7.5c0.1,0.2,0.3,0.3,0.4,0.5
			c14.3,19.8,9.4,56.4-15.7,77.4c-0.2,0.2-0.5,0.4-0.7,0.6c-2.1,1.7-4.4,3.4-6.9,4.9c-11.7,7.3-24.8,9.8-37.1,8.9c0,0,0,0,0,0
			c-0.6,0-1.2-0.1-1.9-0.2C25.2,106.3,6,94.3,1.4,78.3c-4-13.8,1-30.7,11.5-39.5c16.6-13.9,22.1-3.4,31-20C53.4,1,70.2-6.5,96.7,6.7
			z"/>
	</g>
	<g>
		<path class="st2" d="M44.9,30.5c0,0,6.6,5.3,3.2,9.3c-3.4,4-8.3,2.8-11.9-4s-0.7-10.6,3.6-11.2c4.3-0.6,14,4.9,15.6,8.7
			C58,39.6,75.7,50.6,78,51c1.2,0.2-1.2,7.4-4,11.4s-6.5,5.5-7.2,6.1c-0.7,0.6-13.6-7.2-16-9.3"/>
		<path class="st2" d="M35.6,53.2c0,0,1.6,3.7,7.1,6.5c5.5,2.8,10.5-3,10.5-3l1.2-9.1l-2.3-8.8l-7.8-1.5l-7.2,6l-2.9,4.6L35.6,53.2"
			/>
		<path class="st2" d="M44.5,41.9c0,0-0.5,9.2-9.7,3.1s-4-11.5,0.6-11.3"/>
		<path class="st2" d="M38.1,46.7c0,0,2.6,9.9-7.3,4.9c-5.3-2.7-5.2-9.1,0.1-10"/>
		<g>
			<path class="st3" d="M44.5,28.9c1.1,0.8,2,1.8,2.8,2.9c0.8,1.1,1.5,2.3,1.6,3.8c0.1,0.4,0,0.7-0.1,1.1c-0.1,0.4-0.2,0.7-0.4,1
				c-0.2,0.3-0.4,0.6-0.6,0.9c-0.2,0.3-0.5,0.5-0.7,0.8c-1,1-2.4,1.7-3.9,1.6c-1.5,0-2.8-0.6-3.9-1.5c-1.1-0.9-2-1.9-2.8-3.1
				c-0.8-1.1-1.4-2.3-1.9-3.6c-0.5-1.3-0.9-2.7-0.8-4.1c0-1.4,0.5-2.9,1.5-3.9c1-1.1,2.3-1.7,3.7-1.9c1.4-0.3,2.8,0,4.1,0.4
				c1.3,0.4,2.6,0.9,3.8,1.5c2.4,1.2,4.7,2.7,6.7,4.6l0.7,0.8c0.2,0.3,0.4,0.5,0.6,0.8l1,1.8c0.4,0.5,0.8,1.1,1.2,1.6
				c0.5,0.5,0.9,1,1.4,1.5c3.8,3.7,8.3,6.8,12.7,9.7c1.1,0.7,2.3,1.4,3.4,2.1c0.6,0.3,1.2,0.6,1.8,0.9l0.9,0.4l0.4,0.1
				c0.1,0,0.1,0,0.3,0.1c0.2,0.1,0.3,0.3,0.4,0.4c0.2,0.6,0.1,0.9,0.1,1.3c0,0.4-0.1,0.7-0.2,1.1c-0.2,0.7-0.4,1.3-0.6,2
				c-0.4,1.3-1,2.6-1.6,3.8c-0.6,1.2-1.3,2.4-2.1,3.5c-0.8,1.1-1.8,2.1-2.8,3c-1,0.9-2.2,1.7-3.4,2.4L67,67
				c-0.1,0.1-0.3,0.2-0.4,0.2c-0.1,0.1-0.3,0.1-0.4,0.1l-0.2,0l-0.3-0.1c-0.7-0.2-1.3-0.5-1.9-0.9c-2.4-1.3-4.7-2.7-7-4.1
				c-2.3-1.5-4.5-2.9-6.6-4.6l0.1-0.1c2.2,1.6,4.5,2.9,6.8,4.3c2.3,1.3,4.7,2.7,7,3.8c0.6,0.3,1.2,0.6,1.8,0.8l0.2,0c0,0,0,0,0,0
				c0.1,0-0.1,0-0.1,0.1c0.1-0.1,0.3-0.2,0.5-0.3l0.9-0.5c1.1-0.7,2.2-1.5,3.2-2.3c1-0.9,1.9-1.8,2.6-2.9c0.7-1.1,1.4-2.2,2-3.4
				c0.6-1.2,1.1-2.4,1.5-3.7c0.2-0.6,0.4-1.3,0.5-1.9c0.1-0.3,0.1-0.6,0.2-0.9c0-0.3,0-0.6,0-0.7c0,0,0,0,0.1,0.1c0.1,0-0.1,0-0.1,0
				c-0.2-0.1-0.4-0.1-0.5-0.2l-0.9-0.4c-0.6-0.3-1.2-0.6-1.8-1c-1.2-0.7-2.3-1.4-3.4-2.1c-2.3-1.5-4.5-3-6.6-4.7
				c-2.1-1.6-4.2-3.4-6-5.4c-0.5-0.5-0.9-1-1.3-1.5c-0.4-0.5-0.8-1.1-1.2-1.7l-0.9-1.8l-0.6-0.8l-0.7-0.7c-1.9-1.9-4.2-3.3-6.6-4.5
				c-1.2-0.6-2.4-1.1-3.7-1.4c-1.3-0.3-2.6-0.6-3.9-0.3c-1.3,0.3-2.5,0.9-3.3,1.8c-0.8,0.9-1.2,2.2-1.2,3.5c0,1.3,0.3,2.5,0.8,3.7
				c0.5,1.2,1.1,2.4,1.8,3.5c0.7,1.1,1.6,2.1,2.6,2.9c1,0.8,2.2,1.3,3.4,1.4c1.2,0,2.4-0.5,3.4-1.4c0.2-0.2,0.5-0.5,0.7-0.7
				c0.2-0.2,0.4-0.5,0.6-0.8c0.3-0.6,0.5-1.2,0.4-1.8c0-1.3-0.6-2.5-1.3-3.6C46.3,30.8,45.4,29.8,44.5,28.9L44.5,28.9z"/>
		</g>
		<g>
			<path class="st3" d="M52.9,55.2c-0.5,0.8-1.1,1.5-1.8,2.1c-0.7,0.6-1.5,1.1-2.4,1.4c-0.4,0.2-0.9,0.2-1.4,0.3
				c-0.5,0-0.9,0.1-1.4,0.1c-0.9,0-1.8-0.1-2.8-0.3c-0.9-0.3-1.8-0.6-2.6-1.1c-0.8-0.4-1.6-1-2.3-1.6c-1.4-1.2-2.6-2.7-3.2-4.5
				l0.1,0c1.1,1.4,2.4,2.6,3.7,3.7c1.3,1.1,2.8,2.1,4.4,2.9c0.8,0.3,1.7,0.6,2.6,0.5c0.9-0.1,1.7-0.4,2.5-0.8
				C49.9,57.2,51.4,56.2,52.9,55.2L52.9,55.2z"/>
		</g>
		<g>
			<path class="st3" d="M44.1,40.3c0.1,1.3-0.2,2.6-0.9,3.8c-0.3,0.6-0.9,1.1-1.5,1.4c-0.3,0.1-0.7,0.3-1,0.4c-0.3,0-0.7,0.1-1,0.1
				c-1.4-0.1-2.5-0.8-3.6-1.3c-0.5-0.3-1.1-0.7-1.6-1l-1.6-1c-0.5-0.4-1-0.8-1.5-1.2c-0.4-0.5-1-0.9-1.3-1.5c-0.8-1-1.4-2.4-1.2-3.9
				c0.2-1.4,1.2-2.6,2.4-3.3c1.2-0.7,2.5-0.9,3.8-0.7l0,0.1c-1.2,0.1-2.4,0.5-3.4,1.3c-0.9,0.7-1.6,1.7-1.7,2.8
				c-0.2,1.1,0.2,2.2,0.9,3.2c0.1,0.3,0.3,0.5,0.5,0.7l0.6,0.7c0.4,0.4,0.8,0.9,1.3,1.3c0.5,0.4,0.9,0.8,1.5,1.2
				c0.5,0.3,1.1,0.7,1.6,1c0.6,0.2,1.1,0.5,1.7,0.6c0.3,0.1,0.6,0.1,0.9,0.2l0.9,0c0.3,0,0.6-0.1,0.8-0.1c0.3-0.1,0.5-0.2,0.8-0.3
				c0.5-0.3,0.9-0.6,1.3-1.1C43.2,42.7,43.7,41.5,44.1,40.3L44.1,40.3z"/>
		</g>
		<g>
			<path class="st3" d="M37.7,45.1c0.4,1,0.7,2.2,0.6,3.4c0,0.6-0.2,1.2-0.4,1.8c-0.3,0.6-0.8,1.1-1.4,1.3C35.2,52,34,51.6,33,51.3
				c-1.1-0.4-2.1-0.8-3.1-1.2c-1-0.5-2-1.2-2.7-2.1c-0.7-0.9-1.2-2.1-1.2-3.3c0-1.2,0.4-2.5,1.4-3.3c0.9-0.8,2.1-1.2,3.2-1.2l0,0.1
				c-1.1,0.3-2,0.9-2.7,1.7c-0.7,0.8-0.9,1.8-0.9,2.8c0.1,2,1.4,3.9,3.2,5c0.9,0.6,1.9,1.1,3,1.4c1,0.3,2.2,0.3,3-0.2
				c0.8-0.4,1.2-1.4,1.4-2.4C37.6,47.4,37.6,46.3,37.7,45.1L37.7,45.1z"/>
		</g>
		<path class="st2" d="M53.1,30.2c4.1-6.6,13.7-11.3,15.3-5.7c1.2,4.3-2.7,4.2-5.8,10.2c-2.2,4.2-0.4,8.1-3.1,10"/>
		<g>
			<path class="st3" d="M52.6,28.6c0.8-1.6,1.9-3,3.2-4.3c1.3-1.2,2.8-2.3,4.4-3.1c1.7-0.7,3.5-1.2,5.3-0.8c0.9,0.2,1.7,0.8,2.2,1.6
				c0.4,0.8,0.7,1.7,0.7,2.7c0,1-0.5,1.9-1.1,2.6c-0.6,0.7-1.2,1.3-1.8,2c-1.2,1.3-2.2,2.7-2.9,4.2c-0.8,1.5-1.1,3.2-1.3,4.9
				c-0.1,0.9-0.2,1.8-0.5,2.7c-0.3,0.9-0.8,1.7-1.6,2.2L59,43.1c0.7-0.6,1-1.4,1.2-2.2c0.2-0.8,0.2-1.7,0.2-2.6
				c0.1-1.8,0.3-3.6,1.2-5.3c0.8-1.6,1.9-3.1,3.2-4.4c1.2-1.3,2.9-2.3,3-3.9c0-0.2,0-0.4,0-0.6c0-0.2,0-0.4-0.1-0.6
				c-0.1-0.4-0.2-0.8-0.4-1.2c-0.4-0.8-1.1-1.3-1.9-1.5c-0.8-0.2-1.7,0-2.5,0.2c-0.8,0.2-1.6,0.6-2.4,1
				C57.5,23.6,54.8,25.9,52.6,28.6L52.6,28.6z"/>
		</g>
		<path class="st4" d="M76.1,46.4c0,0-4.9,16.7-17.4,22.2l52.7,32c0,0,10.4-19.8,12.2-26.7C125.4,67.1,76.1,46.4,76.1,46.4z"/>
		<g>
			<path class="st3" d="M75.7,44.9c-0.6,2.3-1.5,4.6-2.5,6.8c-1,2.2-2.3,4.3-3.7,6.3c-1.4,2-3,3.8-4.9,5.5c-1.8,1.6-3.9,3-6.2,4
				l0-0.7l13.1,8.1c4.4,2.7,8.7,5.4,13.1,8.1L98,90.8l13.3,7.9l-0.5,0.1c3.2-6.3,6.4-12.7,9.2-19.2c0.7-1.6,1.4-3.3,2-4.9
				c0.3-0.8,0.6-1.7,0.8-2.5c0.2-0.6-0.2-1.3-0.7-2c-1-1.3-2.5-2.4-3.9-3.4c-1.4-1-2.9-2-4.4-2.9c-6-3.7-12.3-6.9-18.7-10.1
				c-3.2-1.6-6.4-3.1-9.6-4.6C82.1,47.8,78.8,46.3,75.7,44.9z M75.6,44.8c6.7,2.6,13.1,5.5,19.6,8.5c6.4,3,12.8,6.1,19,9.8
				c1.5,0.9,3,1.9,4.5,2.9c1.4,1.1,2.9,2.2,4.1,3.6c0.3,0.4,0.6,0.8,0.8,1.2c0.2,0.5,0.3,1.1,0.2,1.6c-0.2,0.9-0.5,1.7-0.8,2.6
				c-0.6,1.7-1.3,3.3-2,5c-2.9,6.5-6.1,12.9-9.4,19.1l0,0c-0.1,0.2-0.3,0.3-0.5,0.2l0,0l-13.1-8.1l-13.1-8.1
				c-4.4-2.6-8.8-5.3-13.2-7.9l-13.3-7.9c-0.2-0.1-0.3-0.4-0.1-0.6c0-0.1,0.1-0.1,0.2-0.2l0,0c2.2-1,4.1-2.3,5.9-3.9
				c1.8-1.6,3.4-3.3,4.8-5.3c1.4-1.9,2.7-4,3.8-6.1C73.8,49.3,74.8,47.1,75.6,44.8z"/>
		</g>
	</g>
	<path class="st5" d="M13.1,56l0.2-0.1c0.6-0.2,1,0.5,0.6,0.9L13.8,57c-1.4,1.4-1.8,3.6-1.1,5.4l0.1,0.2c0.2,0.6-0.5,1-0.9,0.6
		l-0.2-0.2c-1.4-1.4-3.6-1.8-5.4-1.1L6,62.2c-0.6,0.2-1-0.5-0.6-0.9L5.6,61c1.4-1.4,1.8-3.6,1.1-5.4l-0.1-0.2
		c-0.2-0.6,0.5-1,0.9-0.6l0.2,0.2C9.1,56.3,11.2,56.7,13.1,56z"/>
	<path class="st6" d="M80.9,17.2L81,17c0.2-0.4,0.8-0.3,0.8,0.1l0,0.2c0.1,1.5,1.1,2.7,2.4,3.3l0.2,0.1c0.4,0.2,0.3,0.8-0.1,0.8
		l-0.2,0c-1.5,0.1-2.7,1.1-3.3,2.4l-0.1,0.2C80.6,24.5,80,24.4,80,24l0-0.2c-0.1-1.5-1.1-2.7-2.4-3.3l-0.2-0.1
		c-0.4-0.2-0.3-0.8,0.1-0.8l0.2,0C79.1,19.5,80.4,18.6,80.9,17.2z"/>
</g>
</svg>
