<?xml version="1.0" encoding="utf-8"?>
<!-- Generator: Adobe Illustrator 22.0.0, SVG Export Plug-In . SVG Version: 6.00 Build 0)  -->
<svg version="1.1" id="Layer_1" xmlns="http://www.w3.org/2000/svg" xmlns:xlink="http://www.w3.org/1999/xlink" x="0px" y="0px"
	 viewBox="0 0 117.9 108.6" style="enable-background:new 0 0 117.9 108.6;" xml:space="preserve">
<style type="text/css">
	.st0{opacity:0.65;}
	.st1{fill:#DCE8F7;}
	.st2{opacity:0.4;fill:#DCE8F7;}
	.st3{opacity:0.44;fill:#66CAF3;}
	.st4{opacity:0.44;fill:#267BF8;}
	.st5{fill:#267BF8;}
	.st6{fill:#66CAF3;}
	.st7{fill:#1C3A85;}
	.st8{fill:#E9E9E9;}
	.st9{fill:#1A2E35;}
</style>
<g>
	<g class="st0">
		<path class="st1" d="M62.5,107.8c0,0,23.5,6.5,44.6-16.9s9-52.1-17.1-63.7C63.9,15.7,54.9-7.4,27,2.4S-5.7,96.9,62.5,107.8z"/>
		<path class="st2" d="M62.5,107.8c0,0,23.5,6.5,44.6-16.9s9-52.1-17.1-63.7C63.9,15.7,54.9-7.4,27,2.4S-5.7,96.9,62.5,107.8z"/>
	</g>
	<path class="st3" d="M4.2,84.6l0-0.3c0-0.7,1-1,1.3-0.3l0.1,0.3c1.1,2.2,3.3,3.6,5.8,3.6l0.3,0c0.7,0,1,1,0.3,1.3l-0.3,0.1
		c-2.2,1.1-3.6,3.3-3.6,5.8l0,0.3c0,0.7-1,1-1.3,0.3l-0.1-0.3c-1.1-2.2-3.3-3.6-5.8-3.6l-0.3,0c-0.7,0-1-1-0.3-1.3l0.3-0.1
		C2.9,89.4,4.3,87.1,4.2,84.6z"/>
	<path class="st4" d="M7,21.5l0.2-0.1c0.4-0.2,0.8,0.2,0.6,0.6l-0.1,0.2c-0.8,1.2-0.8,2.8-0.1,4l0.1,0.2c0.2,0.4-0.2,0.8-0.6,0.6
		l-0.2-0.1c-1.2-0.8-2.8-0.8-4-0.1l-0.2,0.1c-0.4,0.2-0.8-0.2-0.6-0.6l0.1-0.2c0.8-1.2,0.8-2.8,0.1-4l-0.1-0.2
		c-0.2-0.4,0.2-0.8,0.6-0.6L3,21.5C4.2,22.3,5.8,22.3,7,21.5z"/>
	<g>
		<path class="st5" d="M54.2,51.8l6.7,3.9c0.8,0.5,1.6,1,2.4,1.6l6.4,4.5c0.5,0.3,0.7,0.9,0.6,1.5C69.8,66.5,68,76.9,68.8,82
			c0.1,0.7-0.3,1.4-1,1.6l-6.7,2.6c-0.5,0.2-1,0.1-1.4-0.1L48,78.5l-11.7-7.6c-0.4-0.3-0.7-0.7-0.7-1.2l-0.4-7.2
			c0-0.7,0.4-1.4,1.1-1.5c5-1.4,13.7-7.3,16.3-9.1C53,51.6,53.7,51.5,54.2,51.8z"/>
		<g>
			<path class="st6" d="M68.5,28.8C68.5,28.8,68.5,28.8,68.5,28.8C68.5,28.8,68.5,28.8,68.5,28.8L68.5,28.8z"/>
			<path class="st6" d="M43.3,32.3C43.3,32.3,43.3,32.3,43.3,32.3C43.3,32.3,43.3,32.3,43.3,32.3C43.3,32.3,43.3,32.3,43.3,32.3z"/>
			<path class="st6" d="M80.9,34.7c-3.5,0.6-9.6,1.6-10.5,1.2c-1.4-0.6-2.4-4.7-1.9-7c0,0,0,0,0,0l0,0c-0.1-0.7-6.7-0.3-12.8,0.5
				c-6.1,0.9-12.6,2.3-12.4,3c0,0,0,0,0,0c1.1,2.1,1.3,6.4,0.1,7.3c-0.8,0.6-6.9,1.4-10.4,1.7c-0.8,0.1-1.5-0.2-2-0.6
				c-0.1,0-0.1-0.1-0.2-0.1c0,0,0,0-0.1-0.1c0,0-0.1-0.1-0.1-0.1c0,0,0,0,0,0c0-0.1-0.1-0.1-0.1-0.2c0,0,0,0,0,0
				c-0.4-0.5-0.6-1.1-0.5-1.7c0-0.7,0.1-1.5,0.2-2.3c0-0.2,0-0.3,0.1-0.5c0-0.1,0-0.1,0-0.2c0-0.1,0.1-0.3,0.1-0.4
				c0.3-1.6,0.9-3.2,1.9-4.5c0.1-0.2,0.2-0.3,0.4-0.4c0.1-0.1,0.2-0.3,0.4-0.4c8-7.6,21.5-9.2,21.5-9.2s13.5-2.1,23.2,3
				c0.3,0.1,0.5,0.3,0.7,0.5c1.4,1,2.5,2.5,3.3,4c0.1,0.1,0.1,0.3,0.2,0.4c0.1,0.1,0.1,0.3,0.2,0.5c0.2,0.4,0.3,0.8,0.5,1.1
				c0.1,0.1,0.1,0.3,0.2,0.4c0.1,0.3,0.2,0.5,0.3,0.7c0.2,0.6,0.2,1.3,0,1.8C82.8,33.8,82,34.5,80.9,34.7z"/>
		</g>
		<polygon class="st7" points="35.2,67.8 35.1,65.7 35.1,65.7 		"/>
		<ellipse transform="matrix(0.5418 -0.8405 0.8405 0.5418 -26.6639 76.3257)" class="st8" cx="56.7" cy="62.6" rx="7.5" ry="8.3"/>
		<path class="st6" d="M53.6,60.6c-1,1.5-0.4,3.7,1.3,4.7c1.7,1.1,3.9,0.7,4.9-0.8c1-1.5,0.4-3.7-1.3-4.7S54.6,59.1,53.6,60.6z"/>
		<g>
			<g>
				<g>
					<path class="st5" d="M52.7,56.6c-0.4,0.6-0.2,1.3,0.5,1.7c0.6,0.4,1.4,0.3,1.8-0.3c0.4-0.6,0.2-1.3-0.5-1.7
						C53.9,55.9,53.1,56,52.7,56.6z"/>
					<path class="st5" d="M53.1,56.8c-0.3,0.4-0.1,0.9,0.3,1.2c0.4,0.3,1,0.2,1.2-0.2c0.3-0.4,0.1-0.9-0.3-1.2S53.3,56.4,53.1,56.8z
						"/>
				</g>
			</g>
			<g>
				<g>
					<path class="st5" d="M56.2,56.1c-0.4,0.6-0.2,1.3,0.5,1.7c0.6,0.4,1.4,0.3,1.8-0.3c0.4-0.6,0.2-1.3-0.5-1.7
						C57.4,55.4,56.6,55.5,56.2,56.1z"/>
					
						<ellipse transform="matrix(0.5418 -0.8405 0.8405 0.5418 -21.4923 74.2363)" class="st5" cx="57.3" cy="56.8" rx="0.8" ry="0.9"/>
				</g>
			</g>
			<g>
				<g>
					<path class="st5" d="M59.5,57.8c-0.4,0.6-0.2,1.3,0.5,1.7c0.6,0.4,1.4,0.3,1.8-0.3s0.2-1.3-0.5-1.7
						C60.7,57.1,59.9,57.2,59.5,57.8z"/>
					<path class="st5" d="M59.9,58c-0.3,0.4-0.1,0.9,0.3,1.2c0.4,0.3,1,0.2,1.2-0.2c0.3-0.4,0.1-0.9-0.3-1.2S60.1,57.6,59.9,58z"/>
				</g>
			</g>
			<g>
				<g>
					<path class="st5" d="M61.6,60.9c-0.4,0.6-0.2,1.3,0.5,1.7c0.6,0.4,1.4,0.3,1.8-0.3c0.4-0.6,0.2-1.3-0.5-1.7
						C62.7,60.2,61.9,60.3,61.6,60.9z"/>
					<path class="st5" d="M61.9,61.1c-0.3,0.4-0.1,0.9,0.3,1.2c0.4,0.3,1,0.2,1.2-0.2c0.3-0.4,0.1-0.9-0.3-1.2
						C62.7,60.6,62.2,60.7,61.9,61.1z"/>
				</g>
			</g>
			<g>
				<g>
					<path class="st5" d="M61.4,64.3c-0.4,0.6-0.2,1.3,0.5,1.7c0.6,0.4,1.4,0.3,1.8-0.3c0.4-0.6,0.2-1.3-0.5-1.7
						C62.5,63.6,61.7,63.7,61.4,64.3z"/>
					<path class="st5" d="M61.7,64.5c-0.3,0.4-0.1,0.9,0.3,1.2c0.4,0.3,1,0.2,1.2-0.2c0.3-0.4,0.1-0.9-0.3-1.2
						C62.5,64,62,64.1,61.7,64.5z"/>
				</g>
			</g>
			<g>
				<g>
					<path class="st5" d="M59.4,66.9c-0.4,0.6-0.2,1.3,0.5,1.7c0.6,0.4,1.4,0.3,1.8-0.3c0.4-0.6,0.2-1.3-0.5-1.7
						C60.6,66.2,59.8,66.3,59.4,66.9z"/>
					<path class="st5" d="M59.7,67.1c-0.3,0.4-0.1,0.9,0.3,1.2c0.4,0.3,1,0.2,1.2-0.2c0.3-0.4,0.1-0.9-0.3-1.2
						C60.5,66.6,60,66.7,59.7,67.1z"/>
				</g>
			</g>
			<g>
				<g>
					<path class="st5" d="M56.1,67.7c-0.4,0.6-0.2,1.3,0.5,1.7c0.6,0.4,1.4,0.3,1.8-0.3c0.4-0.6,0.2-1.3-0.5-1.7
						C57.2,67,56.4,67.2,56.1,67.7z"/>
					<path class="st5" d="M56.4,67.9c-0.3,0.4-0.1,0.9,0.3,1.2c0.4,0.3,1,0.2,1.2-0.2c0.3-0.4,0.1-0.9-0.3-1.2S56.7,67.6,56.4,67.9z
						"/>
				</g>
			</g>
			<g>
				<g>
					<path class="st5" d="M52.7,67c-0.4,0.6-0.2,1.3,0.5,1.7c0.6,0.4,1.4,0.3,1.8-0.3c0.4-0.6,0.2-1.3-0.5-1.7
						C53.9,66.3,53.1,66.4,52.7,67z"/>
					<path class="st5" d="M53.1,67.2c-0.3,0.4-0.1,0.9,0.3,1.2c0.4,0.3,1,0.2,1.2-0.2c0.3-0.4,0.1-0.9-0.3-1.2
						C53.9,66.8,53.3,66.8,53.1,67.2z"/>
				</g>
			</g>
			<g>
				<g>
					<path class="st5" d="M50.3,64.5c-0.4,0.6-0.2,1.3,0.5,1.7c0.6,0.4,1.4,0.3,1.8-0.3c0.4-0.6,0.2-1.3-0.5-1.7
						C51.5,63.8,50.7,63.9,50.3,64.5z"/>
					<path class="st5" d="M50.7,64.7c-0.3,0.4-0.1,0.9,0.3,1.2c0.4,0.3,1,0.2,1.2-0.2c0.3-0.4,0.1-0.9-0.3-1.2
						C51.5,64.2,50.9,64.3,50.7,64.7z"/>
				</g>
			</g>
			<g>
				<g>
					<path class="st5" d="M49.3,61.1c-0.4,0.6-0.2,1.3,0.5,1.7c0.6,0.4,1.4,0.3,1.8-0.3c0.4-0.6,0.2-1.3-0.5-1.7
						C50.5,60.4,49.7,60.5,49.3,61.1z"/>
					<path class="st5" d="M49.7,61.3c-0.3,0.4-0.1,0.9,0.3,1.2c0.4,0.3,1,0.2,1.2-0.2c0.3-0.4,0.1-0.9-0.3-1.2
						C50.5,60.8,49.9,60.9,49.7,61.3z"/>
				</g>
			</g>
		</g>
		<path class="st5" d="M51.5,59.8l-2.6,0c0.2-0.6,0.4-1.2,0.8-1.7c0.1-0.1,0.1-0.2,0.2-0.3l2,1.2L51.5,59.8z"/>
		<g>
			<path class="st9" d="M71.1,56.8c-0.4,1.1-0.8,2.3-1.3,3.5l-0.1,0.3l-0.3-0.2c-2.7-1.6-5.4-3.2-8-5.1c-1.3-0.9-2.6-1.9-3.9-2.7
				c-1.3-0.9-2.7-1.7-4-2.5l-0.2-0.1l0.2-0.2l2.3-2.9l0.2-0.2l0.3,0.1l3,1.5l0.4,0.2l-0.2,0.4L58.5,51l-0.2-0.6
				c1.4,0.9,2.9,1.8,4.2,2.7c1.4,0.9,2.8,1.9,4.2,2.8L66.2,56c0.5-0.6,1.1-1.1,1.6-1.7l0.2-0.2l0.2,0.2C69.2,55.1,70.2,56,71.1,56.8
				z M71,56.8c-1.1-0.7-2.2-1.3-3.2-2l0.4,0c-0.5,0.6-1,1.2-1.5,1.8l-0.2,0.2l-0.3-0.2c-1.4-0.9-2.9-1.7-4.3-2.6
				c-1.4-0.9-2.8-1.8-4.2-2.8L57.4,51l0.2-0.4l1-2.2l0.2,0.6l-2.9-1.6l0.5-0.1L53.7,50l0-0.3c1.3,0.9,2.6,1.8,4,2.6
				c1.3,0.8,2.7,1.6,4.1,2.4c2.7,1.6,5.4,3.4,7.9,5.2l-0.4,0.1C69.8,59,70.4,57.9,71,56.8z"/>
		</g>
		<g>
			<path class="st9" d="M53.9,49.9c3.9,2.3,8,4.3,11.7,7c0.9,0.6,1.9,1.3,2.8,1.9c0.5,0.3,0.9,0.6,1.4,1c0.3,0.2,0.5,0.6,0.6,0.9
				c0.1,0.3,0.1,0.8,0,1c-0.4,2.2-0.8,4.5-1,6.7c-0.3,2.2-0.6,4.5-0.8,6.7c-0.1,1.1-0.1,2.3-0.1,3.4c0,0.6,0.1,1.1,0.1,1.7
				c0,0.6-0.3,1.3-0.9,1.6l-6.3,2.5c-0.3,0.1-0.5,0.2-0.8,0.3c-0.3,0.1-0.6,0.1-0.9,0c-0.3-0.1-0.5-0.3-0.8-0.4l-0.7-0.4l-2.9-1.8
				c-3.9-2.4-7.7-4.8-11.5-7.2L38,71l-1.4-0.9l-0.7-0.5c-0.2-0.1-0.6-0.4-0.8-0.7c-0.2-0.3-0.4-0.7-0.4-1.1l0-0.9l-0.1-1.7l-0.2-3.4
				l0-0.8l0-0.4c0-0.2,0-0.4,0-0.6c0.1-0.7,0.8-1.4,1.5-1.5C38,58,40,57,42,56c2-1,4-2.1,5.9-3.3c1-0.6,1.9-1.2,2.9-1.8l1.4-0.9
				C52.7,49.6,53.4,49.6,53.9,49.9z M53.8,50c-0.5-0.3-1.1-0.3-1.5,0.1l-1.4,1l-2.8,1.9c-1.9,1.3-3.8,2.5-5.8,3.7
				c-2,1.2-4,2.2-6.2,2.9c-0.4,0.1-0.7,0.4-0.8,0.8c0,0.1,0,0.2,0,0.3l0,0.4l0,0.8l0.2,3.4l0.1,1.7l0,0.8c0,0.2,0.1,0.4,0.2,0.5
				c0.2,0.3,0.8,0.6,1.2,0.9l1.4,0.9l5.7,3.7c3.8,2.5,7.6,5,11.3,7.5l2.8,1.9l0.7,0.5c0.2,0.2,0.5,0.3,0.7,0.4
				c0.2,0.1,0.5,0.1,0.7,0c0.2-0.1,0.5-0.2,0.8-0.3c2.1-0.8,4.3-1.6,6.3-2.5c0.4-0.2,0.7-0.7,0.7-1.2c-0.1-0.5-0.1-1.1-0.2-1.7
				c-0.1-1.1-0.1-2.3-0.1-3.4c0.1-2.3,0.2-4.5,0.5-6.8c0.3-2.3,0.6-4.5,1-6.7c0.1-0.5,0-0.9-0.3-1.2c-0.4-0.3-0.9-0.7-1.3-1
				c-0.9-0.7-1.8-1.4-2.7-2c-1.8-1.4-3.6-2.7-5.6-3.9C57.7,52.3,55.8,51.1,53.8,50z"/>
		</g>
		<g>
			<g>
				<path class="st9" d="M69.5,27.2c0,0.1,0,0.1-0.1,0.2c-0.1,0.1-0.2,0-0.3,0c0-0.1,0.1-0.2,0.2-0.2l0.2-0.1l0.1-0.1l0.2-0.2l0,0
					l1.1-1.2L70,27c-0.1,0.1-0.1,0.2-0.2,0.2C69.7,27.2,69.6,27.2,69.5,27.2z M69.5,27.1c0-0.1-0.1-0.1-0.2-0.1
					c-0.1,0-0.2,0.1-0.2,0.2l0.2,0.3l0,0l0.2-0.3l0.2-0.2c0.1,0,0.2-0.1,0.2-0.2c-0.1,0-0.2,0-0.3,0C69.5,26.9,69.4,27,69.5,27.1z"
					/>
			</g>
			<g>
				<path class="st9" d="M44.3,30.6c0-0.1-0.1-0.1-0.2-0.1c-0.1,0-0.2,0.1-0.2,0.2l0.1-0.3l0.2,0.1c0,0,0,0,0,0l-0.1,0L44,30.4
					l0.8,0.3c0.1,0.1,0,0.3,0,0.2c0,0,0-0.1-0.1-0.2C44.6,30.6,44.5,30.5,44.3,30.6z M44.4,30.7c-0.2,0.1-0.3,0-0.4-0.1
					c-0.1-0.1-0.1-0.2-0.1-0.2c0-0.1-0.1,0,0,0.2l0.8,0.3l-0.1-0.1l-0.1,0c0,0-0.1,0,0,0l0.2,0.2l0.1-0.3c0,0.1-0.1,0.2-0.2,0.2
					C44.5,30.8,44.4,30.7,44.4,30.7z"/>
			</g>
			<g>
				<path class="st9" d="M82,33.1c-3,0.5-6,1-9,1.3c-0.4,0-0.8,0.1-1.2,0c-0.4,0-0.8-0.3-1.1-0.6c-0.5-0.6-0.8-1.4-1-2.1
					c-0.4-1.5-0.7-3-0.5-4.6l0,0.1c0,0.1,0.1,0.1,0.1,0.2l-0.1-0.2l0,0l0,0c0,0.1,0.1,0.1,0,0.1c0,0-0.1,0-0.1,0
					c-0.1,0-0.2,0-0.4-0.1c-0.2,0-0.5,0-0.8,0c-0.5,0-1.1,0-1.6,0c-1.1,0-2.1,0.1-3.2,0.2c-2.1,0.2-4.3,0.4-6.4,0.7
					c-2.1,0.3-4.2,0.6-6.3,1c-1.1,0.2-2.1,0.4-3.1,0.6c-0.5,0.1-1,0.3-1.5,0.4c-0.3,0.1-0.5,0.2-0.7,0.3c-0.1,0-0.2,0.1-0.3,0.2
					c-0.1,0.1-0.1,0.1-0.1,0l0-0.1c0.8,1.7,0.9,3.4,0.8,5.2c0,0.4-0.1,0.9-0.2,1.3c-0.1,0.4-0.3,0.9-0.8,1.1
					c-0.9,0.4-1.7,0.5-2.6,0.6c-1.7,0.3-3.4,0.5-5.1,0.7l-2.6,0.3c-0.9,0.1-1.9-0.2-2.5-0.8l0,0l-0.2-0.1l0,0c0,0,0,0,0,0l-0.1-0.1
					l-0.1-0.2l0.3-0.3c0,0-0.1,0-0.2,0s-0.1,0.1-0.1,0.1l0,0.2c-0.2-0.3-0.4-0.7-0.5-1.1c-0.1-0.4-0.1-0.8,0-1.2
					c0.1-0.8,0.1-1.5,0.2-2.3l0,0l0-0.2l0,0c0.2-1.4,0.7-2.8,1.4-4.2c0.4-0.7,0.8-1.2,1.3-1.8c0.5-0.5,1.1-1,1.6-1.5
					c2.2-1.9,4.8-3.3,7.4-4.5c5.3-2.3,10.9-3.8,16.7-4c2.9-0.1,5.8-0.1,8.6,0.3c2.9,0.4,5.7,1,8.4,2.2c0.7,0.2,1.3,0.6,2,0.9
					c0.6,0.3,1.3,0.7,1.8,1.2c1.1,1,1.9,2.2,2.6,3.4c0.3,0.6,0.6,1.3,0.9,2c0.1,0.3,0.3,0.7,0.4,1c0.1,0.3,0.3,0.7,0.3,1
					C84.5,31.4,83.4,32.9,82,33.1z M81.9,33c1.4-0.2,2.4-1.7,2.2-3.1c0-0.3-0.2-0.7-0.3-1c-0.1-0.3-0.3-0.7-0.4-1
					c-0.3-0.7-0.6-1.3-0.9-1.9c-0.7-1.2-1.6-2.4-2.7-3.2c-0.5-0.4-1.1-0.8-1.8-1c-0.6-0.3-1.3-0.6-1.9-0.8c-5.3-1.9-11.1-2.3-16.7-2
					c-2.8,0.1-5.6,0.6-8.4,1.2c-2.7,0.7-5.4,1.5-8,2.6c-2.6,1.1-5.1,2.5-7.3,4.2c-0.5,0.5-1.1,0.9-1.6,1.4c-0.5,0.5-0.9,1-1.2,1.6
					c-0.7,1.2-1.1,2.5-1.4,3.9l0,0l0,0l0,0.2l0,0c-0.1,0.7-0.2,1.5-0.3,2.3c-0.1,0.4-0.1,0.7,0,1.1c0.1,0.3,0.2,0.7,0.4,1l0.1,0.1
					l-0.1,0.1c0,0-0.1,0.1-0.1,0.1c-0.1,0-0.1,0-0.2,0l0.3-0.3l0.1,0.2l-0.1-0.1c0,0,0.1,0.1,0.1,0.1l0,0l0.1,0.1l0,0
					c1.2,1.3,3.1,0.6,4.8,0.5c1.7-0.2,3.4-0.4,5.1-0.7c0.8-0.2,1.7-0.3,2.4-0.6c0.3-0.2,0.5-0.6,0.6-1c0.1-0.4,0.2-0.8,0.2-1.2
					c0.1-1.7-0.2-3.4-0.9-4.9l0-0.1c0,0,0-0.2,0-0.3c0-0.1,0.1-0.1,0.1-0.2c0.1-0.1,0.1-0.1,0.2-0.2c0.1-0.1,0.3-0.1,0.4-0.2
					c0.3-0.1,0.5-0.2,0.8-0.3c0.5-0.2,1-0.3,1.6-0.5c1-0.3,2.1-0.5,3.2-0.8c2.1-0.5,4.2-0.8,6.4-1.1c2.1-0.3,4.3-0.6,6.4-0.7
					c1.1-0.1,2.2-0.1,3.2-0.2c0.5,0,1.1,0,1.6,0c0.3,0,0.6,0,0.8,0.1c0.1,0,0.3,0,0.4,0.1c0.1,0,0.2,0,0.3,0.1
					c0.1,0,0.2,0.1,0.3,0.4l0,0l0,0l-0.1-0.2c0.1,0,0.1,0.1,0.1,0.2l0,0.1l0,0.1c-0.3,1.4-0.1,2.9,0.2,4.4c0.2,0.7,0.4,1.4,0.9,2
					c0.2,0.3,0.5,0.5,0.8,0.5c0.4,0,0.7,0,1.1,0c1.5-0.1,3-0.3,4.5-0.5C78.9,33.5,80.4,33.2,81.9,33z"/>
			</g>
		</g>
		<g>
			<path class="st9" d="M39.1,39.1c-0.2,1.7-0.5,3.4-1.1,5c-0.3,0.8-0.6,1.6-1.3,2.3c-0.3,0.4-0.7,0.6-1.1,0.7
				c-0.4,0.2-0.8,0.3-1.2,0.4c-1.7,0.5-3.4,0.7-5.1,0.8c-0.9,0-1.7,0-2.6-0.2c-0.9-0.2-1.8-0.4-2.5-1c-0.8-0.6-1.2-1.7-1.1-2.6
				c0-0.5,0.2-0.9,0.4-1.3c0.1-0.2,0.2-0.4,0.3-0.6c0.1-0.2,0.3-0.4,0.5-0.6c0.7-0.7,1.8-0.9,2.7-0.7c0.9,0.2,1.7,0.7,2.4,1.2
				c1.4,1.1,2.4,2.7,2.8,4.5c0.2,1-0.1,1.9-0.4,2.7c-0.4,0.8-0.9,1.6-1.5,2.2c-1.2,1.3-2.9,2.2-4.6,2.5c-1.8,0.3-3.6-0.1-5.1-0.8
				c-1.6-0.8-2.9-2-4-3.2c-0.3-0.3-0.6-0.6-0.8-1c-0.3-0.3-0.5-0.7-0.7-1.1c-0.4-0.8-0.7-1.6-0.6-2.5c0.1-0.9,1-1.7,1.9-1.7
				c0.9,0,1.7,0.5,2.3,1.2c1.2,1.4,1.5,3.2,1.5,4.9c-0.1,1.7-0.7,3.5-2,4.7c-1.3,1.2-3.1,1.7-4.9,1.7c-0.9,0-1.7,0-2.6-0.2
				c-0.9-0.2-1.7-0.5-2.4-1.2c-0.7-0.7-1-1.8-0.6-2.7c0.3-0.9,1.1-1.6,2-2c0.5-0.1,1-0.2,1.5-0.1c0.5,0.1,0.9,0.2,1.3,0.4
				c0.8,0.4,1.5,0.9,2.2,1.5c1.3,1.2,2.4,2.5,3.4,4c0.9,1.5,1.8,3,2.3,4.7c0.2,0.8,0.4,1.7,0.4,2.7c0,0.5-0.2,1-0.4,1.4
				c-0.3,0.4-0.7,0.8-1.2,1c-1,0.4-2,0.2-2.8,0c-0.4-0.1-1-0.2-1.4-0.8c-0.2-0.3-0.2-0.6-0.2-0.9c0-0.3,0.1-0.6,0.2-0.8
				c0.4-0.9,1.1-1.6,1.7-2.2c0.7-0.6,1.4-1.1,2.2-1.5c1.6-0.8,3.3-1.4,5.2-1.2c0.5,0,0.9,0.1,1.4,0.3c0.5,0.2,0.8,0.3,1.2,0.5
				c0.8,0.4,1.5,0.8,2.3,1.3c0.7,0.5,1.4,1.1,2,1.7c0.6,0.7,1.1,1.5,1.3,2.4c0.2,0.9,0.2,1.8,0,2.7c-0.2,0.9-0.5,1.7-0.9,2.5
				c-0.4,0.8-0.9,1.6-1.8,2.1c-0.8,0.5-2,0.5-2.7-0.1c-0.8-0.5-1.3-1.4-1.4-2.3c-0.1-0.9,0-1.8,0.5-2.6c0.5-0.8,1.2-1.4,1.9-1.8
				c0.8-0.4,1.6-0.7,2.4-0.9c1.7-0.4,3.4-0.6,5.1-0.7l0,0.1c-1.7,0.1-3.4,0.4-5,0.9c-1.6,0.5-3.2,1.2-4,2.6
				c-0.7,1.4-0.4,3.4,0.9,4.2c0.6,0.4,1.4,0.4,2.1,0c0.7-0.4,1.1-1.1,1.4-1.8c0.4-0.7,0.6-1.5,0.8-2.3c0.1-0.8,0.1-1.6-0.1-2.3
				c-0.4-1.5-1.7-2.7-3-3.6c-0.7-0.4-1.4-0.8-2.2-1.2c-0.8-0.4-1.5-0.6-2.3-0.7c-1.6-0.1-3.2,0.4-4.6,1.1c-0.7,0.4-1.4,0.9-2,1.4
				c-0.6,0.5-1.2,1.1-1.4,1.8c-0.1,0.3-0.1,0.6-0.1,0.7c0.1,0.2,0.3,0.3,0.8,0.3c0.8,0.2,1.6,0.3,2.2,0c0.3-0.1,0.5-0.3,0.7-0.6
				c0.1-0.3,0.3-0.6,0.3-1c0.1-0.7-0.1-1.6-0.3-2.3c-0.5-1.6-1.2-3.1-2.1-4.5c-0.9-1.4-2-2.7-3.2-3.8c-0.6-0.5-1.3-1-2-1.4
				c-0.7-0.3-1.5-0.6-2.2-0.4c-0.7,0.2-1.3,0.8-1.6,1.5c-0.3,0.7-0.1,1.5,0.4,2c0.5,0.5,1.3,0.9,2.1,1.1c0.8,0.2,1.6,0.3,2.5,0.3
				c1.6,0,3.3-0.4,4.6-1.5c1.3-1.1,1.9-2.8,2-4.4c0-1.6-0.3-3.4-1.4-4.7c-0.5-0.6-1.3-1.1-2.1-1.1c-0.8,0-1.5,0.6-1.6,1.4
				c-0.1,0.8,0.2,1.6,0.6,2.3c0.2,0.4,0.4,0.7,0.7,1c0.2,0.3,0.5,0.7,0.8,1c1.2,1.2,2.5,2.3,4,3c1.5,0.7,3.2,1,4.8,0.6
				c1.6-0.3,3.1-1.1,4.2-2.3c0.6-0.6,1-1.3,1.3-2c0.3-0.7,0.5-1.5,0.3-2.3c-0.3-1.5-1.2-3-2.4-4c-0.6-0.5-1.3-0.9-2.1-1.1
				c-0.7-0.2-1.5-0.1-2,0.4c-1,1-1.5,3-0.2,3.9c0.6,0.5,1.4,0.7,2.2,0.9c0.8,0.2,1.6,0.2,2.5,0.2c1.7,0,3.4-0.2,5-0.6
				c0.8-0.2,1.6-0.5,2.2-1c0.6-0.6,1-1.3,1.3-2.1C38.3,42.4,38.7,40.8,39.1,39.1L39.1,39.1z"/>
		</g>
	</g>
</g>
</svg>
