<?xml version="1.0" encoding="utf-8"?>
<!-- Generator: Adobe Illustrator 22.0.0, SVG Export Plug-In . SVG Version: 6.00 Build 0)  -->
<svg version="1.1" id="Layer_1" xmlns="http://www.w3.org/2000/svg" xmlns:xlink="http://www.w3.org/1999/xlink" x="0px" y="0px"
	 viewBox="0 0 102.7 102.6" style="enable-background:new 0 0 102.7 102.6;" xml:space="preserve">
<style type="text/css">
	.st0{opacity:0.65;fill:#DCE8F7;}
	.st1{opacity:0.5;fill:#66CAF3;}
	.st2{opacity:0.5;fill:#267BF8;}
	.st3{fill:#66CAF3;}
	.st4{fill:#1A2E35;}
	.st5{fill:#267BF8;}
	.st6{fill:#FFFFFF;}
</style>
<g>
	<path class="st0" d="M62.9,5.9C42.2-2.3,20.6-4.6,19.4,17.2C17.6,48.2-4,42,0.7,75.2s46.2,32.3,65.8,18.3S139.1,36.1,62.9,5.9z"/>
	<path class="st1" d="M17.3,42.6l0.2-0.2c0.6-0.4,1.3,0.3,0.9,0.9l-0.2,0.2c-1.3,1.9-1.3,4.4-0.1,6.4l0.2,0.2
		c0.4,0.6-0.3,1.3-0.9,0.9l-0.2-0.2c-1.9-1.3-4.4-1.3-6.4-0.1l-0.2,0.2c-0.6,0.4-1.3-0.3-0.9-0.9l0.2-0.2c1.3-1.9,1.3-4.4,0.1-6.4
		l-0.2-0.2c-0.4-0.6,0.3-1.3,0.9-0.9l0.2,0.2C12.9,43.8,15.4,43.8,17.3,42.6z"/>
	<path class="st2" d="M80.2,11.2l0-0.2c0.1-0.4,0.7-0.4,0.8,0l0,0.2c0.4,1.3,1.4,2.3,2.8,2.6l0.2,0c0.4,0.1,0.4,0.7,0,0.8l-0.2,0
		c-1.3,0.4-2.3,1.4-2.6,2.8l0,0.2c-0.1,0.4-0.7,0.4-0.8,0l0-0.2c-0.4-1.3-1.4-2.3-2.8-2.6l-0.2,0c-0.4-0.1-0.4-0.7,0-0.8l0.2,0
		C79,13.7,80,12.6,80.2,11.2z"/>
	<g>
		<path class="st3" d="M68.3,24.4L68.3,24.4c-0.6-0.9-1.8-1.1-2.7-0.4L54,32.4l2.6,2.9l11.3-8.2C68.8,26.4,69,25.2,68.3,24.4z"/>
		<g>
			<path class="st4" d="M67.3,23.9c-0.4-0.6-1.2-0.9-1.9-0.7c-0.3,0.1-0.6,0.3-0.9,0.5l-0.8,0.7c-1.1,1-2.2,1.9-3.4,2.7
				c-1.2,0.8-2.4,1.6-3.7,2.4c-1.2,0.8-2.4,1.7-3.5,2.5l0-0.3l2.7,2.8l-0.5-0.1c2.2-1.7,4.5-3.5,6.8-5.1c1.2-0.8,2.4-1.6,3.6-2.3
				l0.9-0.6c0.3-0.2,0.5-0.4,0.7-0.7C67.8,25.3,67.7,24.5,67.3,23.9z M67.4,23.9c0.4,0.6,0.5,1.4,0.2,2.1c-0.1,0.3-0.4,0.7-0.7,0.9
				l-0.8,0.7c-1.1,0.9-2.2,1.8-3.3,2.7c-2.3,1.7-4.6,3.3-7,4.9l0,0c-0.2,0.1-0.4,0.1-0.5-0.1l-2.4-3l0,0c-0.1-0.1-0.1-0.2,0-0.3l0,0
				c1.2-0.8,2.4-1.6,3.5-2.6c1.1-0.9,2.2-1.9,3.4-2.7c1.2-0.9,2.4-1.7,3.6-2.4l0.9-0.6c0.3-0.2,0.7-0.4,1.1-0.4
				C66.2,22.9,67,23.3,67.4,23.9z"/>
		</g>
		<path class="st3" d="M56.3,31.2c0.7-1.2,1.9-11.6,0.9-14.4c-2.3,1.4-5.2,3-8.7,4.2c-3.2,1.1-7,2.1-9.4,2.4
			c4.4,3.5,4.5,9.9,4.6,12.4C47.5,34.4,52.4,32.7,56.3,31.2z"/>
		<path class="st3" d="M71,29.3L57.4,31l0.5,3.8l13.6-1.7c1.1-0.1,1.8-1.1,1.7-2.2C73,29.9,72.1,29.1,71,29.3z"/>
		<g>
			<path class="st4" d="M54.3,30.3c0.3-1.1,0.4-2.4,0.5-3.5c0.1-1.2,0.2-2.4,0.2-3.6c0.1-1.2,0.1-2.4,0.1-3.6c0-1.2-0.1-2.4-0.4-3.4
				l0.6,0.2c-2.8,1.7-5.8,2.9-8.9,4c-1.5,0.6-3.1,1-4.6,1.5c-1.6,0.5-3.1,0.9-4.7,1.2l0.2-0.7c1.9,1.5,3.2,3.6,3.9,5.8
				c0.7,2.2,1,4.6,1,6.9l-0.7-0.5c2.1-0.7,4.2-1.4,6.3-2.2C50,31.6,52.1,30.9,54.3,30.3z M54.4,30.4c-2,0.9-4.1,1.8-6.2,2.6
				c-2.1,0.8-4.2,1.7-6.3,2.5c-0.3,0.1-0.6,0-0.7-0.3c0-0.1,0-0.1,0-0.2l0,0c-0.1-2.3-0.3-4.5-0.9-6.6c-0.6-2.1-1.7-4.1-3.4-5.5l0,0
				c-0.2-0.1-0.2-0.4,0-0.5c0.1-0.1,0.2-0.1,0.2-0.1c1.6-0.2,3.2-0.5,4.7-0.9c1.6-0.4,3.1-0.8,4.6-1.3c3-1.1,5.8-2.7,8.5-4.5l0,0
				c0.2-0.1,0.5-0.1,0.6,0.1c0,0,0,0.1,0,0.1c0.4,1.3,0.4,2.5,0.4,3.7c0,1.2-0.1,2.4-0.2,3.7c-0.1,1.2-0.3,2.4-0.5,3.6
				c-0.1,0.6-0.2,1.2-0.4,1.8C54.8,29.2,54.7,29.8,54.4,30.4z"/>
		</g>
		<g>
			<path class="st5" d="M77.3,49.2c-6.1-10.2-17-10-20.7-17c-0.6-1.2-0.3-0.9-0.3-0.9l-4.5,1.7c-0.7-0.8-4.6-4.1-5.9-7.7
				c-4.2,2.6-9.6,4.6-13.9,4.1c2.9,5.1,5.9,6.7,8.1,8c0,0,0-0.5,0.3,0.9c1.8,7.7-6.7,14.6-4.7,26.4c2.6,15.5,17,17.4,28.5,13.1
				C75.7,73.4,85.4,62.6,77.3,49.2z"/>
			<path class="st5" d="M56.2,31.2L56.2,31.2C56.3,31.2,56.2,31.1,56.2,31.2z"/>
		</g>
		<g>
			<path class="st4" d="M70,28.9c-2.3,0.3-4.5,0.9-6.7,1.3c-2.3,0.4-4.6,0.4-6.8,0.6l0.1-0.2c0.1,0.6,0.1,1.3,0.2,1.9
				c0.1,0.6,0.2,1.3,0.3,1.9l-0.2-0.2c1.6-0.3,3.2-0.6,4.9-0.9c1.6-0.2,3.3-0.5,4.9-0.7l2.5-0.3l1.2-0.1c0.4,0,0.7-0.1,1-0.3
				c0.6-0.4,0.9-1.2,0.6-1.9C71.7,29.3,70.8,28.8,70,28.9z M70,28.8c0.8-0.1,1.7,0.3,2.2,1.1c0.4,0.8,0.3,1.9-0.4,2.6
				c-0.3,0.3-0.9,0.6-1.3,0.6l-1.2,0.2l-2.5,0.4c-1.6,0.2-3.3,0.4-4.9,0.5c-1.6,0.2-3.3,0.3-4.9,0.4l0,0c-0.1,0-0.2-0.1-0.2-0.2l0,0
				c0-0.6-0.1-1.3-0.2-1.9c-0.1-0.6-0.1-1.3-0.2-1.9c0-0.1,0-0.2,0.1-0.2l0,0c2.3-0.4,4.5-0.9,6.8-1.1C65.4,29,67.8,29.1,70,28.8z"
				/>
		</g>
		<g>
			<g>
				<path class="st4" d="M75.3,48.3c-1.2-2-2.8-3.8-4.6-5.3c-1.8-1.5-3.8-2.7-5.9-3.8c-2.1-1.1-4.2-2.1-6.3-3.4
					c-0.5-0.3-1-0.7-1.5-1.1c-0.4-0.4-0.9-0.8-1.3-1.3l-0.6-0.7c-0.2-0.2-0.3-0.5-0.5-0.8c-0.2-0.3-0.3-0.5-0.5-0.8L54,30.8
					c0-0.1-0.1-0.1-0.1-0.2c0-0.1,0-0.1,0-0.2c0,0,0-0.1,0-0.1c0,0,0,0,0-0.1c0-0.1,0.1-0.1,0.2-0.2c0.2-0.1,0.2-0.1,0.3-0.1
					c0.1,0,0.1,0,0.1,0c0.1,0.1,0.1,0.1,0.1,0.1c0.2,0.2,0.2,0.4,0,0.6c0,0-0.1,0.1-0.1,0.1l0,0L50,32.4c-0.2,0.1-0.3,0-0.5-0.1l0,0
					l-1.7-1.7c-0.6-0.6-1.1-1.2-1.7-1.9c-1.1-1.3-2-2.7-2.6-4.3l0.6,0.2c-2.1,1.3-4.4,2.3-6.8,3.1c-2.4,0.7-4.9,1.2-7.4,0.9l0.2-0.3
					c0.9,1.7,2,3.2,3.4,4.6c1.3,1.4,2.9,2.4,4.6,3.4l-0.2,0.1c0,0,0,0,0-0.1c0,0,0,0,0.1-0.1c0-0.1,0.2,0,0.2,0
					c0.1,0.1,0.1,0.1,0.1,0.1l0.1,0.2l0.1,0.4c0.1,0.3,0.1,0.5,0.2,0.8c0.1,0.5,0.2,1.1,0.2,1.6l0,0.8c0,0.3-0.1,0.5-0.1,0.8
					c0,0.5-0.1,1.1-0.3,1.6c-0.5,2.1-1.3,4.1-2,6c-1.5,3.9-2.9,8-2.6,12.2c0.2,4.1,1.5,8.3,4,11.5c1.3,1.6,2.8,3,4.7,3.9
					c1.8,0.9,3.8,1.6,5.8,1.8c2,0.3,4.1,0.4,6.2,0.1c1-0.1,2.1-0.3,3.1-0.5c1-0.3,2-0.5,3-0.8c2-0.6,3.9-1.5,5.8-2.4
					c1.8-1,3.6-2.2,5.2-3.5c1.5-1.4,3-2.9,4.1-4.7c1.1-1.8,2-3.7,2.3-5.8c0.3-2.1,0.3-4.2-0.2-6.2c-0.2-1-0.6-2-1-3
					C76.3,50.2,75.8,49.2,75.3,48.3z M75.4,48.2c2.2,3.6,3.5,7.9,2.9,12.2c-0.3,2.1-1.1,4.2-2.1,6c-1.1,1.9-2.5,3.5-4.1,5
					c-3.2,2.9-7,5-11.1,6.3c-1,0.4-2.1,0.6-3.1,0.9c-1.1,0.2-2.1,0.4-3.2,0.5c-2.1,0.3-4.3,0.2-6.5-0.1c-2.2-0.3-4.2-1-6.2-2
					c-2-1-3.6-2.5-5-4.2c-2.6-3.5-3.9-7.8-4-12.1c-0.2-4.3,1.3-8.5,2.9-12.4c0.8-2,1.6-3.9,2.1-5.9c0.1-0.5,0.2-1,0.3-1.5
					c0-0.3,0.1-0.5,0.1-0.8l0-0.8c0-0.5-0.1-1-0.2-1.5c0-0.3-0.1-0.5-0.1-0.8l-0.1-0.4L38,36.4c0,0,0-0.1,0,0c0,0,0.1,0.1,0.2,0
					c0.1-0.1,0,0,0-0.1l0,0l0,0c0,0.1-0.1,0.1-0.2,0.1c0,0,0,0-0.1,0c-0.8-0.5-1.7-1-2.5-1.5c-0.8-0.6-1.5-1.2-2.2-1.9
					c-1.4-1.4-2.5-3-3.5-4.6c-0.1-0.1,0-0.2,0.1-0.3c0,0,0.1,0,0.1,0l0,0c2.4,0.2,4.8-0.3,7.1-1.1c2.3-0.8,4.5-1.9,6.5-3.2
					c0.2-0.1,0.4-0.1,0.6,0.1c0,0,0,0,0,0.1l0,0c0.6,1.5,1.5,2.8,2.5,4c0.5,0.6,1.1,1.2,1.6,1.8c0.6,0.6,1.1,1.1,1.7,1.8l-0.5-0.1
					l4.5-1.6L54,30.6c0,0,0,0,0.1,0c0,0,0,0,0.1,0c0.1,0,0.2,0,0.3-0.1c0.1,0,0.1-0.1,0.1-0.2c0,0,0,0,0-0.1c0,0,0-0.1,0-0.1
					c0-0.1,0,0,0,0c0,0,0,0.1,0.1,0.2l0.2,0.4c0.1,0.3,0.3,0.5,0.4,0.7c0.2,0.2,0.3,0.5,0.4,0.7l0.5,0.7c0.3,0.5,0.8,0.8,1.2,1.2
					c0.4,0.4,0.9,0.7,1.4,1.1c1.9,1.3,4,2.4,6.1,3.6c2.1,1.2,4.1,2.5,5.9,4C72.6,44.4,74.2,46.2,75.4,48.2z"/>
			</g>
			<g>
				<path class="st4" d="M54.3,30.3c0.2-0.3,0-0.5,0-0.4c0,0,0,0.1,0,0.1l0,0c0,0,0,0-0.1,0.1c-0.1,0.1,0,0.3,0,0.3c0,0,0,0,0,0l0,0
					c0,0,0,0-0.1,0.1c0,0.1-0.1,0.2,0,0.2c0,0,0.2,0.1,0.4,0c0.1,0,0.2-0.1,0.2-0.2c0,0,0-0.1,0-0.1c0-0.1-0.1-0.1-0.1-0.1
					c0,0-0.1-0.1-0.2-0.1C54.4,30.2,54.3,30.2,54.3,30.3z M54.2,30.4c0,0.1-0.1,0.1-0.2,0.1c-0.1,0-0.1-0.1-0.2-0.1
					c-0.1,0-0.1-0.1-0.1-0.2c0-0.1,0-0.1,0.1-0.1c0-0.1,0.1-0.2,0.2-0.2c0.2-0.1,0.4,0,0.4,0c0.1,0.1,0.1,0.2,0,0.2
					c0,0.1-0.1,0.1,0,0.1l0,0c0,0,0,0,0.1,0c0,0,0.1,0.2,0,0.3c-0.1,0.1-0.1,0.1-0.1,0.1v0c0,0.1,0,0.1,0,0.2
					C54.3,30.8,54.1,30.7,54.2,30.4z"/>
			</g>
		</g>
		<path class="st3" d="M57.6,34l-19,7c-1,0.4-2.1-0.1-2.5-1.1l0,0c-0.4-1,0.1-2.1,1.1-2.5l19-7c1-0.4,2.1,0.1,2.5,1.1l0,0
			C59.1,32.6,58.5,33.7,57.6,34z"/>
		<g>
			<path class="st4" d="M56.6,33.6c-2.1,0.7-4.1,1.7-6.1,2.5c-2,0.9-4.1,1.7-6.1,2.4c-2.1,0.7-4.2,1.3-6.3,2
				c-0.3,0.1-0.5,0.2-0.8,0.3c-0.3,0.1-0.6,0-0.9,0c-0.6-0.1-1.1-0.5-1.4-1c-0.3-0.5-0.3-1.2-0.1-1.8c0.2-0.6,0.7-1.1,1.2-1.3
				c4-1.7,8.1-3.3,12.3-4.8c2.1-0.7,4.1-1.5,6.2-2.1c0.3-0.1,0.5-0.2,0.8-0.2c0.3,0,0.6,0,0.9,0.1c0.6,0.2,1.1,0.6,1.3,1.1
				C58.3,31.9,57.7,33.3,56.6,33.6z M56.6,33.6c0.5-0.2,0.9-0.6,1.1-1.1c0.2-0.5,0.1-1.1-0.2-1.5c-0.3-0.4-0.7-0.7-1.2-0.8
				c-0.5-0.1-0.9,0.1-1.4,0.3c-2,0.9-4.1,1.7-6.1,2.5c-4.1,1.5-8.3,3-12.4,4.3c-0.9,0.3-1.5,1.5-1,2.4c0.2,0.4,0.7,0.8,1.1,0.9
				c0.5,0.1,1,0,1.5-0.2c2-0.8,4.1-1.7,6.1-2.5c2-0.8,4.1-1.6,6.2-2.2C52.4,34.9,54.5,34.3,56.6,33.6z"/>
		</g>
		<path class="st5" d="M58.2,35.9L58.2,35.9c-1,0.4-2.1-0.1-2.5-1.1l-1.3-3.6c-0.4-1,0.1-2.1,1.1-2.5l0,0c1-0.4,2.1,0.1,2.5,1.1
			l1.3,3.6C59.7,34.4,59.2,35.5,58.2,35.9z"/>
		<g>
			<path class="st4" d="M57.3,35.5c-0.8,0.3-1.8,0.2-2.5-0.5c-0.2-0.2-0.3-0.4-0.4-0.6c-0.1-0.2-0.2-0.4-0.3-0.6
				c-0.2-0.4-0.3-0.8-0.4-1.2l-0.3-1.2c-0.1-0.4-0.2-0.8-0.3-1.3c0-0.9,0.5-1.8,1.3-2.2c0.8-0.4,2.1-0.2,2.7,0.6
				c0.2,0.2,0.3,0.4,0.4,0.7l0.2,0.6c0.2,0.4,0.3,0.8,0.4,1.2c0.1,0.4,0.3,0.8,0.4,1.2c0.1,0.2,0.1,0.4,0.2,0.6
				c0.1,0.2,0.1,0.5,0.1,0.7C58.8,34.4,58,35.2,57.3,35.5z M57.2,35.4c0.8-0.3,1.2-1.2,0.9-1.9c0-0.2-0.1-0.3-0.2-0.5
				c-0.1-0.2-0.2-0.4-0.3-0.6c-0.2-0.4-0.3-0.8-0.5-1.1c-0.1-0.4-0.3-0.8-0.4-1.2l-0.2-0.6c-0.1-0.2-0.1-0.3-0.2-0.4
				c-0.3-0.5-1-0.8-1.7-0.7c-0.7,0.1-1.3,0.9-1.2,1.7c0,0.4,0.3,0.7,0.5,1.1l0.6,1.1c0.2,0.4,0.3,0.8,0.5,1.2
				c0.1,0.2,0.1,0.4,0.2,0.6c0.1,0.2,0.1,0.3,0.2,0.5C55.6,35.2,56.5,35.7,57.2,35.4z"/>
		</g>
		<g>
			<path class="st6" d="M58.2,48.2l-2.6,1c-0.6,0.2-0.7,1-0.2,1.4c0.4,0.3,0.8,0.7,1.1,1.2c0.2,0.3,0.6,0.4,1,0.3l2-0.7
				c0.4-0.2,0.9,0.1,1.1,0.5l0,0c0.2,0.4-0.1,0.9-0.5,1.1L58,53.6c-0.4,0.1-0.6,0.5-0.5,0.9c0.4,2.6-0.8,4.9-3.5,6.4
				c-0.6,0.3-0.5,1.1,0,1.4c2.5,1.3,5.2,2.8,7.9,4.4c0.6,0.4,0.5,1.2-0.1,1.5l-1,0.4c-0.2,0.1-0.5,0.1-0.7-0.1
				c-3.3-1.9-6.4-3.6-10.1-5.5c-0.2-0.1-0.3-0.3-0.4-0.5l-0.3-0.8c-0.2-0.4,0.1-0.9,0.5-1.1l0.9-0.3c2.8-1,4.1-2.6,4.2-4.3
				c0-0.6-0.6-1-1.1-0.8l-5.3,1.9c-0.4,0.2-0.9-0.1-1.1-0.5l0,0c-0.2-0.4,0.1-0.9,0.5-1.1l5-1.8c0.6-0.2,0.7-1.1,0.2-1.5
				c-1.1-0.7-2.7-0.6-4.7,0.1l-1.4,0.5c-0.4,0.2-0.9-0.1-1.1-0.5L45.7,52c-0.2-0.4,0.1-0.9,0.5-1.1l11.5-4.2
				c0.4-0.2,0.9,0.1,1.1,0.5l0,0C58.8,47.6,58.6,48.1,58.2,48.2z"/>
		</g>
	</g>
</g>
</svg>
