<?xml version="1.0" encoding="utf-8"?>
<!-- Generator: Adobe Illustrator 22.0.0, SVG Export Plug-In . SVG Version: 6.00 Build 0)  -->
<svg version="1.1" id="Layer_1" xmlns="http://www.w3.org/2000/svg" xmlns:xlink="http://www.w3.org/1999/xlink" x="0px" y="0px"
	 viewBox="0 0 106.3 105.2" style="enable-background:new 0 0 106.3 105.2;" xml:space="preserve">
<style type="text/css">
	.st0{fill:#FFFFFF;}
	.st1{fill:#585858;}
	.st2{opacity:0.65;clip-path:url(#SVGID_2_);fill:#DCE8F7;}
	.st3{clip-path:url(#SVGID_2_);}
	.st4{fill:#66CAF3;}
	.st5{fill:#267BF8;}
	.st6{fill:#1A2E35;}
	.st7{opacity:0.65;clip-path:url(#SVGID_4_);fill:#DCE8F7;}
	.st8{clip-path:url(#SVGID_4_);}
	.st9{opacity:0.5;fill:#66CAF3;}
	.st10{opacity:0.5;fill:#267BF8;}
	.st11{opacity:0.65;fill:#DCE8F7;}
</style>
<image style="overflow:visible;" width="1023" height="138" xlink:href="C7197A23B7C705.jpg"  transform="matrix(1 0 0 1 -1154.0349 368.2878)">
</image>
<rect x="-964" y="413.6" class="st0" width="355.4" height="40.9"/>
<rect x="-958.4" y="424.2" style="fill:none;" width="334.7" height="37.4"/>
<text transform="matrix(1 0 0 1 -958.3997 438.9495)" class="st1" style="font-family:'Poppins-Regular'; font-size:20px;">Projects and Accomplishments</text>
<image style="overflow:visible;" width="1023" height="138" xlink:href="C7197A23B7C707.jpg"  transform="matrix(1 0 0 1 -1154.0349 -18.5292)">
</image>
<rect x="-964" y="26.8" class="st0" width="355.4" height="40.9"/>
<rect x="-958.4" y="37.3" style="fill:none;" width="334.7" height="37.4"/>
<text transform="matrix(1 0 0 1 -958.3997 52.1326)" class="st1" style="font-family:'Poppins-Regular'; font-size:20px;">Projects and Accomplishments</text>
<path class="st0" d="M-269.6,97.1h-110.6c-2.4,0-4.4-2-4.4-4.4V-0.3c0-2.4,2-4.4,4.4-4.4h110.6c2.4,0,4.4,2,4.4,4.4v93.1
	C-265.2,95.2-267.1,97.1-269.6,97.1z"/>
<g>
	<defs>
		<path id="SVGID_1_" d="M-269.6,97.1h-110.6c-2.4,0-4.4-2-4.4-4.4V-0.3c0-2.4,2-4.4,4.4-4.4h110.6c2.4,0,4.4,2,4.4,4.4v93.1
			C-265.2,95.2-267.1,97.1-269.6,97.1z"/>
	</defs>
	<clipPath id="SVGID_2_">
		<use xlink:href="#SVGID_1_"  style="overflow:visible;"/>
	</clipPath>
	<path class="st2" d="M-262.5,71.2c10.7-19.5,15.6-40.7-5.9-44.6c-30.6-5.5-21.8-26.2-55.3-25.6s-37.7,42-26.1,63.1
		C-338.3,85.2-301.7,143.2-262.5,71.2z"/>
	<g class="st3">
		<g>
			<path class="st4" d="M-309.6,59.9l-2.1-0.9c-0.6-0.3-1.1-0.8-1.3-1.5c-0.2-0.7,0-1.4,0.4-1.9l14.3-18.7c0.6-0.8,1.7-1.1,2.7-0.7
				l9.2,4c2.3,1,3.9,2.9,4.5,5.3c0.6,2.4,0.1,4.9-1.4,6.8l-0.7,0.9C-290,61.1-300.5,63.9-309.6,59.9z M-295.8,41l-11.5,15
				c7.1,2.9,15.1,0.7,19.8-5.4l0.7-0.9c0.7-0.9,0.9-2,0.6-3c-0.3-1.1-1-1.9-2-2.3L-295.8,41z"/>
			<path class="st4" d="M-341,28.2l0.2-1.1c0.4-2.4,1.9-4.5,4.1-5.7s4.7-1.3,7-0.3l9.2,4c0.9,0.4,1.5,1.4,1.3,2.4l-4.1,23.1
				c-0.1,0.7-0.5,1.3-1.1,1.6c-0.6,0.3-1.3,0.3-1.9,0.1l-2.1-0.9C-337.6,47.6-342.8,38-341,28.2z M-331.6,25.3
				c-1-0.4-2.1-0.4-3.1,0.1c-1,0.5-1.6,1.4-1.8,2.5l-0.2,1.1c-1.3,7.5,2.5,15,9.4,18.2l3.3-18.6L-331.6,25.3z"/>
		</g>
		<path class="st5" d="M-338.3,63.4l26.5,11.6c0.9,0.4,1.4,1.5,1,2.5l-2.4,5.4c-0.4,0.9-1.5,1.4-2.5,1l-26.5-11.6
			c-0.9-0.4-1.4-1.5-1-2.5l2.4-5.4C-340.3,63.5-339.2,63-338.3,63.4z"/>
		<g>
			<path class="st6" d="M-339.5,61.8c3.1,1.4,6.3,2.6,9.4,3.8c3.2,1.2,6.3,2.6,9.4,4l4.6,2.2l2.3,1.1c0.4,0.2,0.8,0.3,1.2,0.6
				c0.4,0.3,0.7,0.7,0.8,1.1c0.1,0.4,0.1,0.9-0.1,1.4l-0.5,1.2l-1,2.3l-0.5,1.2c-0.2,0.4-0.3,0.8-0.5,1.2c-0.5,0.8-1.7,1.1-2.6,0.7
				c-6.3-2.6-12.5-5.2-18.7-8c-1.5-0.7-3.1-1.4-4.6-2.1l-2.3-1.1c-0.4-0.2-0.7-0.3-1.2-0.6c-0.4-0.3-0.7-0.7-0.8-1.2
				c-0.1-0.5-0.1-1,0.1-1.4l0.6-1.2l1.1-2.3c0.4-0.8,0.7-1.5,1.1-2.3C-341.4,61.7-340.3,61.4-339.5,61.8z M-339.6,61.9
				c-0.8-0.3-1.7-0.1-2.2,0.6c-0.4,0.7-0.7,1.5-1,2.3l-0.9,2.4l-0.5,1.2c-0.1,0.3-0.1,0.7,0,1c0.1,0.3,0.4,0.6,0.6,0.8
				c0.3,0.1,0.7,0.3,1.1,0.5l2.4,1c1.6,0.6,3.1,1.3,4.7,2c6.2,2.7,12.4,5.5,18.5,8.4c0.7,0.3,1.5,0.1,2-0.5c0.4-0.6,0.7-1.5,1.1-2.3
				l1-2.3c0.3-0.8,0.8-1.5,0.5-2.3c-0.1-0.4-0.4-0.7-0.7-0.9c-0.3-0.2-0.8-0.3-1.1-0.5l-2.4-1l-4.7-1.9c-3.1-1.3-6.2-2.7-9.3-4.2
				C-333.4,64.8-336.5,63.3-339.6,61.9z"/>
		</g>
		<g>
			<g>
				<g>
					<path class="st6" d="M-310.9,58.4c-0.8-0.4-1.7-0.7-2.5-1.1c-0.8-0.5-1.2-1.5-1-2.5c0.1-0.5,0.4-0.9,0.6-1.2l0.8-1.1l1.6-2.2
						c2.1-3,4.3-5.8,6.5-8.7l3.4-4.2l1.7-2.1c0.6-0.8,1.7-1.1,2.7-0.8c3.3,1.5,6.6,2.9,10,4.3c1.7,0.8,3.1,2.3,3.8,4
						c0.8,1.7,0.9,3.8,0.4,5.6c-0.3,0.9-0.7,1.8-1.2,2.6c-0.3,0.4-0.5,0.7-0.8,1.1l-0.9,1.1c-1.2,1.4-2.6,2.7-4.1,3.7
						c-1.5,1-3.2,1.9-4.9,2.5c-1.8,0.6-3.6,1-5.4,1.1c-1.8,0.1-3.7,0-5.5-0.4C-307.5,59.6-309.3,59.1-310.9,58.4z M-310.9,58.3
						c1.7,0.7,3.4,1.2,5.2,1.4c1.8,0.2,3.6,0.2,5.4,0c3.5-0.5,6.9-1.8,9.8-3.8c1.5-1,2.7-2.2,3.9-3.5l0.9-1c0.3-0.4,0.6-0.7,0.8-1.1
						c0.5-0.7,0.9-1.5,1.1-2.3c0.5-1.6,0.4-3.4-0.2-5c-0.6-1.6-1.8-3-3.4-3.8c-3.2-1.5-6.6-3.1-9.9-4.5c-0.8-0.3-1.7,0-2.2,0.7
						l-1.6,2.2l-3.2,4.4c-2.2,2.9-4.4,5.8-6.7,8.6l-1.7,2.1l-0.9,1.1c-0.3,0.4-0.6,0.7-0.7,1.1c-0.3,0.8,0.1,1.8,0.8,2.3
						C-312.6,57.6-311.7,57.9-310.9,58.3z"/>
					<path class="st6" d="M-297.1,39.5c-1.8,2.7-3.7,5.3-5.5,7.8c-0.9,1.3-1.8,2.5-2.8,3.7l-3,3.6l-0.1-0.4c2.8,1.3,6.1,1.6,9.2,0.9
						c3-0.7,5.9-2.1,8.1-4.2c0.6-0.5,1.1-1.1,1.6-1.7c0.2-0.3,0.5-0.6,0.7-0.9c0.2-0.3,0.5-0.6,0.7-0.9c0.7-1.2,0.5-2.8-0.5-3.7
						c-0.2-0.2-0.5-0.4-0.9-0.6l-1-0.5c-0.7-0.3-1.4-0.7-2.1-1L-297.1,39.5z M-297.2,39.4l4.4,1.7c0.7,0.3,1.5,0.6,2.3,0.9l1.1,0.5
						c0.4,0.2,0.8,0.4,1.1,0.7c1.4,1.2,1.8,3.3,0.8,4.9c-0.2,0.4-0.5,0.7-0.7,1c-0.2,0.3-0.5,0.6-0.8,0.9c-0.5,0.6-1.1,1.2-1.7,1.7
						c-2.4,2.2-5.5,3.6-8.7,4c-3.2,0.5-6.4,0-9.4-1c-0.1,0-0.2-0.2-0.1-0.3c0,0,0,0,0-0.1l0,0l2.8-3.9c0.9-1.3,1.9-2.6,2.9-3.8
						C-301.1,44.1-299.1,41.6-297.2,39.4z"/>
				</g>
			</g>
			<g>
				<g>
					<path class="st6" d="M-342.4,26.7c0.2-0.9,0.3-1.8,0.6-2.7c0.3-0.9,0.8-1.7,1.4-2.4c1.2-1.4,2.8-2.5,4.7-2.9
						c0.9-0.2,1.9-0.2,2.8-0.1c0.9,0.1,1.9,0.5,2.7,0.8c1.7,0.7,3.3,1.5,5,2.2l2.5,1.2c0.4,0.2,0.8,0.4,1.3,0.6
						c0.4,0.3,0.8,0.7,1,1.1c0.2,0.5,0.3,1,0.2,1.5l-0.3,1.3l-0.5,2.7c-0.7,3.6-1.2,7.1-1.8,10.7l-0.8,5.4l-0.4,2.7
						c-0.1,0.4-0.1,1-0.5,1.5c-0.3,0.5-0.7,0.8-1.2,1c-0.5,0.2-1.1,0.3-1.6,0.1c-0.6-0.1-0.9-0.4-1.4-0.5c-0.8-0.3-1.7-0.7-2.5-1.1
						c-1.6-0.8-3.2-1.9-4.6-3.1c-1.4-1.3-2.6-2.6-3.6-4.2c-1-1.6-1.8-3.2-2.3-5c-0.5-1.8-0.8-3.6-0.9-5.4
						C-342.8,30.3-342.7,28.4-342.4,26.7z M-342.3,26.7c-0.3,1.8-0.3,3.6-0.2,5.4c0.2,1.8,0.7,3.5,1.3,5.2c1.3,3.3,3.4,6.3,6,8.7
						c1.3,1.2,2.8,2.1,4.4,3l1.2,0.6l1.2,0.6c0.4,0.2,0.9,0.4,1.2,0.5c0.3,0.1,0.7,0.1,1.1-0.1c0.3-0.1,0.6-0.4,0.8-0.7
						c0.2-0.3,0.3-0.6,0.4-1.1l0.5-2.7l1.1-5.3c0.7-3.6,1.4-7.1,2-10.7l0.4-2.7l0.2-1.3c0.1-0.4,0-0.8-0.2-1.2
						c-0.2-0.3-0.5-0.6-0.8-0.8l-1.2-0.5l-2.5-1c-1.7-0.7-3.3-1.4-5-2.2c-1.6-0.8-3.3-1.2-5-0.9c-1.7,0.2-3.4,1.1-4.6,2.4
						c-0.6,0.6-1.1,1.4-1.4,2.3C-342,24.9-342.1,25.8-342.3,26.7z"/>
					<path class="st6" d="M-332.9,23.8c-1.1-0.5-2.5-0.3-3.4,0.5c-0.5,0.4-0.8,0.9-1,1.4c-0.2,0.5-0.2,1.1-0.3,1.8
						c-0.3,2.4-0.2,4.8,0.3,7.2c0.5,2.3,1.5,4.6,3.1,6.5c1.5,1.9,3.6,3.3,5.8,4.3l-0.4,0.2c0.4-3.1,0.9-6.2,1.4-9.3
						c0.5-3.1,1.1-6.2,1.8-9.3l0.2,0.4l-3.7-1.9C-330.4,24.9-331.6,24.3-332.9,23.8z M-332.9,23.7c1.3,0.5,2.5,1.1,3.9,1.6l3.9,1.5
						c0.2,0.1,0.3,0.2,0.2,0.4l0,0c-0.4,3.1-0.9,6.2-1.5,9.3c-0.6,3.1-1.2,6.2-1.8,9.3l0,0c0,0.2-0.2,0.3-0.4,0.2c0,0-0.1,0-0.1,0
						c-1.1-0.6-2.2-1.3-3.1-2.1c-0.5-0.4-0.9-0.8-1.4-1.2c-0.4-0.5-0.9-0.9-1.2-1.4c-0.8-0.9-1.5-2-2.1-3.1
						c-0.6-1.1-1.1-2.2-1.5-3.5c-0.7-2.4-0.8-5-0.2-7.5c0.2-0.6,0.2-1.2,0.5-1.8c0.3-0.6,0.7-1.1,1.3-1.4
						C-335.4,23.3-334,23.2-332.9,23.7z"/>
				</g>
			</g>
		</g>
		<path class="st5" d="M-323.8,19.6l-7.4,16.8c-2.4,5.5-2,11.6,0.6,16.5c2.3,4.4,2.4,9.6-0.3,13.8l0,0l11.6,5.1
			c1.3-4.8,5.2-8.3,10-9.6c5.4-1.4,10.2-5.2,12.6-10.7l7.4-16.8L-323.8,19.6L-323.8,19.6z"/>
		<g>
			<path class="st6" d="M-325.1,18c-1.6,3.9-3.1,7.7-4.8,11.5l-2.4,5.7c-0.8,1.9-1.2,3.9-1.4,5.9c0,1,0,2,0.1,3c0.1,1,0.3,2,0.6,3
				c0.3,1,0.6,1.9,1,2.9c0.4,0.9,1,1.9,1.3,2.9c0.7,2,1,4.2,0.8,6.3c-0.2,2.1-0.9,4.2-2.1,6l-0.1-0.3l5.8,2.6
				c1.9,0.9,3.9,1.7,5.8,2.6l-0.2,0.1c1-4.1,4.2-7.5,8.1-9.1c1-0.4,2-0.7,3-1c1-0.3,1.9-0.7,2.8-1.2c1.8-1,3.4-2.2,4.8-3.7
				c1.4-1.5,2.5-3.2,3.4-5l2.5-5.7c1.6-3.8,3.3-7.6,5-11.4l0.3,0.7c-2.9-1.3-5.8-2.5-8.6-3.8l-8.6-3.9l-8.6-3.9l-4.3-2l-2.1-1
				l-1.1-0.5l-0.5-0.2l-0.3-0.1L-325.1,18L-325.1,18L-325.1,18L-325.1,18L-325.1,18C-325.1,18-325.2,18.1-325.1,18z M-325.2,18
				C-325,17.9-325.1,18-325.2,18L-325.2,18l0.1,0l0,0l0.1,0l0.1,0.1l0.3,0.1l0.5,0.2l1.1,0.4l2.2,0.9l4.4,1.8l8.7,3.7l8.7,3.7
				c2.9,1.2,5.8,2.5,8.6,3.8c0.3,0.1,0.4,0.4,0.3,0.7l0,0c-1.7,3.8-3.3,7.6-5,11.4l-2.6,5.7c-0.9,1.9-2.1,3.7-3.6,5.2
				c-1.5,1.5-3.2,2.8-5.1,3.7c-1,0.5-1.9,0.9-2.9,1.2c-1,0.3-2,0.5-3,0.9c-1.9,0.7-3.6,1.9-5.1,3.4c-1.4,1.5-2.4,3.3-3,5.3
				c0,0.1-0.1,0.1-0.2,0.1l0,0c-1.9-0.9-3.9-1.7-5.8-2.5l-5.8-2.5c-0.1,0-0.2-0.2-0.1-0.3l0,0l0,0c1.1-1.7,1.7-3.7,1.8-5.8
				c0.1-2-0.2-4.1-0.9-6c-0.4-0.9-0.9-1.8-1.3-2.8c-0.4-1-0.8-2-1.1-3c-0.6-2.1-0.8-4.2-0.6-6.3c0.2-2.1,0.7-4.2,1.5-6.2
				c0.8-1.9,1.7-3.8,2.6-5.7C-328.7,25.5-326.9,21.8-325.2,18z"/>
		</g>
		<path class="st4" d="M-287.2,30.8l-35.1-15.4c-1.1-0.5-2.4,0-2.9,1.1l0,0c-0.5,1.1,0,2.4,1.1,2.9l35.1,15.4c1.1,0.5,2.4,0,2.9-1.1
			l0,0C-285.5,32.6-286.1,31.3-287.2,30.8z"/>
		<g>
			<path class="st6" d="M-288.5,29.3c-3.5-1.5-7-2.9-10.5-4.3c-3.5-1.4-7-2.9-10.4-4.5c-3.4-1.6-6.8-3.2-10.3-4.8
				c-0.9-0.4-1.7-0.8-2.6-1.2c-0.9-0.3-1.7-0.9-2.6-0.7c-0.9,0.2-1.6,0.9-1.6,1.8c-0.1,0.9,0.4,1.7,1.2,2c7,2.9,14,5.8,20.9,8.9
				c3.5,1.5,6.9,3.1,10.3,4.7l2.6,1.2l1.3,0.6c0.4,0.2,0.8,0.3,1.3,0.2c0.9-0.1,1.6-0.9,1.7-1.8C-287.1,30.6-287.7,29.6-288.5,29.3z
				 M-288.5,29.2c0.9,0.4,1.5,1.4,1.4,2.4c-0.1,1-0.9,1.9-1.9,2.1c-0.5,0.1-1,0.1-1.5-0.1l-1.3-0.5l-2.6-1c-3.5-1.4-7-2.9-10.5-4.4
				c-6.9-3-13.8-6.1-20.7-9.3c-1-0.4-1.6-1.5-1.4-2.6c0.1-1,1-1.9,2-2.1c0.5-0.1,1,0,1.5,0.2l1.3,0.6c0.9,0.4,1.7,0.7,2.6,1.1
				c3.5,1.5,7,2.9,10.5,4.3c3.5,1.5,6.9,3,10.3,4.7C-295.3,26-291.9,27.7-288.5,29.2z"/>
		</g>
		<polygon class="st4" points="-315.4,40.7 -318.7,35.1 -325,36.4 -318.6,21.9 -309,26.1 		"/>
		<g>
			<path class="st6" d="M-316.7,39.1c-0.5-0.8-1.1-1.7-1.8-2.6c-0.6-0.9-1.2-1.9-1.8-2.8l0.4,0.2c-2.1,0.5-4.2,1-6.3,1.4l0,0
				c-0.2,0-0.5-0.1-0.5-0.3c0-0.1,0-0.2,0-0.3c1.1-2.4,2.4-4.8,3.4-7.2c1.1-2.4,2.1-4.9,3-7.3c0.1-0.2,0.2-0.2,0.4-0.2l0,0
				c1.6,0.6,3.2,1.3,4.9,2l4.8,2c0.3,0.1,0.4,0.4,0.3,0.7l0,0l0,0c-1.1,2.5-2.3,5-3.4,7.4L-316.7,39.1z M-316.7,39l3-7.6
				c1-2.4,1.9-4.8,2.9-7.2l0.3,0.7l-4.8-2.2c-1.6-0.7-3.2-1.5-4.7-2.2l0.4-0.2c-1.2,2.4-2.3,4.8-3.3,7.2c-1,2.4-1.9,4.9-2.9,7.4
				l-0.5-0.6c2.1-0.5,4.2-0.9,6.3-1.3l0,0c0.2,0,0.3,0,0.4,0.2c0.5,0.9,1,1.8,1.4,2.7C-317.8,37-317.3,38-316.7,39z"/>
		</g>
	</g>
</g>
<path class="st0" d="M-269,485h-110.6c-2.4,0-4.4-2-4.4-4.4v-93.1c0-2.4,2-4.4,4.4-4.4H-269c2.4,0,4.4,2,4.4,4.4v93.1
	C-264.6,483-266.6,485-269,485z"/>
<g>
	<defs>
		<path id="SVGID_3_" d="M-269,485h-110.6c-2.4,0-4.4-2-4.4-4.4v-93.1c0-2.4,2-4.4,4.4-4.4H-269c2.4,0,4.4,2,4.4,4.4v93.1
			C-264.6,483-266.6,485-269,485z"/>
	</defs>
	<clipPath id="SVGID_4_">
		<use xlink:href="#SVGID_3_"  style="overflow:visible;"/>
	</clipPath>
	<path class="st7" d="M-261.9,459c10.7-19.5,15.6-40.7-5.9-44.6c-30.6-5.5-21.8-26.2-55.3-25.6s-37.7,42-26.1,63.1
		S-301.1,531-261.9,459z"/>
	<g class="st8">
		<g>
			<path class="st4" d="M-309,447.7l-2.1-0.9c-0.6-0.3-1.1-0.8-1.3-1.5c-0.2-0.7,0-1.4,0.4-1.9l14.3-18.7c0.6-0.8,1.7-1.1,2.7-0.7
				l9.2,4c2.3,1,3.9,2.9,4.5,5.3c0.6,2.4,0.1,4.9-1.4,6.8l-0.7,0.9C-289.4,449-299.9,451.7-309,447.7z M-295.3,428.8l-11.5,15
				c7.1,2.9,15.1,0.7,19.8-5.4l0.7-0.9c0.7-0.9,0.9-2,0.6-3c-0.3-1.1-1-1.9-2-2.3L-295.3,428.8z"/>
			<path class="st4" d="M-340.5,416.1l0.2-1.1c0.4-2.4,1.9-4.5,4.1-5.7c2.2-1.2,4.7-1.3,7-0.3l9.2,4c0.9,0.4,1.5,1.4,1.3,2.4
				l-4.1,23.1c-0.1,0.7-0.5,1.3-1.1,1.6c-0.6,0.3-1.3,0.3-1.9,0.1l-2.1-0.9C-337,435.4-342.2,425.8-340.5,416.1z M-331,413.1
				c-1-0.4-2.1-0.4-3.1,0.1c-1,0.5-1.6,1.4-1.8,2.5l-0.2,1.1c-1.3,7.5,2.5,15,9.4,18.2l3.3-18.6L-331,413.1z"/>
		</g>
		<path class="st5" d="M-337.7,451.3l26.5,11.6c0.9,0.4,1.4,1.5,1,2.5l-2.4,5.4c-0.4,0.9-1.5,1.4-2.5,1l-26.5-11.6
			c-0.9-0.4-1.4-1.5-1-2.5l2.4-5.4C-339.7,451.3-338.6,450.8-337.7,451.3z"/>
		<g>
			<path class="st6" d="M-339,449.6c3.1,1.4,6.3,2.6,9.4,3.8c3.2,1.2,6.3,2.6,9.4,4l4.6,2.2l2.3,1.1c0.4,0.2,0.8,0.3,1.2,0.6
				c0.4,0.3,0.7,0.7,0.8,1.1c0.1,0.4,0.1,0.9-0.1,1.4l-0.5,1.2l-1,2.3l-0.5,1.2c-0.2,0.4-0.3,0.8-0.5,1.2c-0.5,0.8-1.7,1.1-2.6,0.7
				c-6.3-2.6-12.5-5.2-18.7-8c-1.5-0.7-3.1-1.4-4.6-2.1l-2.3-1.1c-0.4-0.2-0.7-0.3-1.2-0.6c-0.4-0.3-0.7-0.7-0.8-1.2
				c-0.1-0.5-0.1-1,0.1-1.4l0.6-1.2l1.1-2.3c0.4-0.8,0.7-1.5,1.1-2.3C-340.8,449.5-339.8,449.3-339,449.6z M-339,449.7
				c-0.8-0.3-1.7-0.1-2.2,0.6c-0.4,0.7-0.7,1.5-1,2.3l-0.9,2.4l-0.5,1.2c-0.1,0.3-0.1,0.7,0,1c0.1,0.3,0.4,0.6,0.6,0.8
				c0.3,0.1,0.7,0.3,1.1,0.5l2.4,1c1.6,0.6,3.1,1.3,4.7,2c6.2,2.7,12.4,5.5,18.5,8.4c0.7,0.3,1.5,0.1,2-0.5c0.4-0.6,0.7-1.5,1.1-2.3
				l1-2.3c0.3-0.8,0.8-1.5,0.5-2.3c-0.1-0.4-0.4-0.7-0.7-0.9c-0.3-0.2-0.8-0.3-1.1-0.5l-2.4-1l-4.7-1.9c-3.1-1.3-6.2-2.7-9.3-4.2
				C-332.9,452.6-335.9,451.1-339,449.7z"/>
		</g>
		<g>
			<g>
				<g>
					<path class="st6" d="M-310.3,446.2c-0.8-0.4-1.7-0.7-2.5-1.1c-0.8-0.5-1.2-1.5-1-2.5c0.1-0.5,0.4-0.9,0.6-1.2l0.8-1.1l1.6-2.2
						c2.1-3,4.3-5.8,6.5-8.7l3.4-4.2l1.7-2.1c0.6-0.8,1.7-1.1,2.7-0.8c3.3,1.5,6.6,2.9,10,4.3c1.7,0.8,3.1,2.3,3.8,4
						c0.8,1.7,0.9,3.8,0.4,5.6c-0.3,0.9-0.7,1.8-1.2,2.6c-0.3,0.4-0.5,0.7-0.8,1.1l-0.9,1.1c-1.2,1.4-2.6,2.7-4.1,3.7
						c-1.5,1-3.2,1.9-4.9,2.5c-1.8,0.6-3.6,1-5.4,1.1c-1.8,0.1-3.7,0-5.5-0.4C-306.9,447.4-308.7,446.9-310.3,446.2z M-310.3,446.1
						c1.7,0.7,3.4,1.2,5.2,1.4c1.8,0.2,3.6,0.2,5.4,0c3.5-0.5,6.9-1.8,9.8-3.8c1.5-1,2.7-2.2,3.9-3.5l0.9-1c0.3-0.4,0.6-0.7,0.8-1.1
						c0.5-0.7,0.9-1.5,1.1-2.3c0.5-1.6,0.4-3.4-0.2-5c-0.6-1.6-1.8-3-3.4-3.8c-3.2-1.5-6.6-3.1-9.9-4.5c-0.8-0.3-1.7,0-2.2,0.7
						l-1.6,2.2l-3.2,4.4c-2.2,2.9-4.4,5.8-6.7,8.6l-1.7,2.1l-0.9,1.1c-0.3,0.4-0.6,0.7-0.7,1.1c-0.3,0.8,0.1,1.8,0.8,2.3
						C-312,445.4-311.1,445.7-310.3,446.1z"/>
					<path class="st6" d="M-296.6,427.3c-1.8,2.7-3.7,5.3-5.5,7.8c-0.9,1.3-1.8,2.5-2.8,3.7l-3,3.6l-0.1-0.4
						c2.8,1.3,6.1,1.6,9.2,0.9c3-0.7,5.9-2.1,8.1-4.2c0.6-0.5,1.1-1.1,1.6-1.7c0.2-0.3,0.5-0.6,0.7-0.9c0.2-0.3,0.5-0.6,0.7-0.9
						c0.7-1.2,0.5-2.8-0.5-3.7c-0.2-0.2-0.5-0.4-0.9-0.6l-1-0.5c-0.7-0.3-1.4-0.7-2.1-1L-296.6,427.3z M-296.6,427.2l4.4,1.7
						c0.7,0.3,1.5,0.6,2.3,0.9l1.1,0.5c0.4,0.2,0.8,0.4,1.1,0.7c1.4,1.2,1.8,3.3,0.8,4.9c-0.2,0.4-0.5,0.7-0.7,1
						c-0.2,0.3-0.5,0.6-0.8,0.9c-0.5,0.6-1.1,1.2-1.7,1.7c-2.4,2.2-5.5,3.6-8.7,4c-3.2,0.5-6.4,0-9.4-1c-0.1,0-0.2-0.2-0.1-0.3
						c0,0,0,0,0-0.1l0,0l2.8-3.9c0.9-1.3,1.9-2.6,2.9-3.8C-300.6,431.9-298.6,429.4-296.6,427.2z"/>
				</g>
			</g>
			<g>
				<g>
					<path class="st6" d="M-341.8,414.5c0.2-0.9,0.3-1.8,0.6-2.7c0.3-0.9,0.8-1.7,1.4-2.4c1.2-1.4,2.8-2.5,4.7-2.9
						c0.9-0.2,1.9-0.2,2.8-0.1c0.9,0.1,1.9,0.5,2.7,0.8c1.7,0.7,3.3,1.5,5,2.2l2.5,1.2c0.4,0.2,0.8,0.4,1.3,0.6
						c0.4,0.3,0.8,0.7,1,1.1c0.2,0.5,0.3,1,0.2,1.5l-0.3,1.3l-0.5,2.7c-0.7,3.6-1.2,7.1-1.8,10.7l-0.8,5.4l-0.4,2.7
						c-0.1,0.4-0.1,1-0.5,1.5c-0.3,0.5-0.7,0.8-1.2,1c-0.5,0.2-1.1,0.3-1.6,0.1c-0.6-0.1-0.9-0.4-1.4-0.5c-0.8-0.3-1.7-0.7-2.5-1.1
						c-1.6-0.8-3.2-1.9-4.6-3.1c-1.4-1.3-2.6-2.6-3.6-4.2c-1-1.6-1.8-3.2-2.3-5c-0.5-1.8-0.8-3.6-0.9-5.4
						C-342.2,418.1-342.1,416.3-341.8,414.5z M-341.7,414.5c-0.3,1.8-0.3,3.6-0.2,5.4c0.2,1.8,0.7,3.5,1.3,5.2
						c1.3,3.3,3.4,6.3,6,8.7c1.3,1.2,2.8,2.1,4.4,3l1.2,0.6l1.2,0.6c0.4,0.2,0.9,0.4,1.2,0.5c0.3,0.1,0.7,0.1,1.1-0.1
						c0.3-0.1,0.6-0.4,0.8-0.7c0.2-0.3,0.3-0.6,0.4-1.1l0.5-2.7l1.1-5.3c0.7-3.6,1.4-7.1,2-10.7l0.4-2.7l0.2-1.3
						c0.1-0.4,0-0.8-0.2-1.2c-0.2-0.3-0.5-0.6-0.8-0.8l-1.2-0.5l-2.5-1c-1.7-0.7-3.3-1.4-5-2.2c-1.6-0.8-3.3-1.2-5-0.9
						c-1.7,0.2-3.4,1.1-4.6,2.4c-0.6,0.6-1.1,1.4-1.4,2.3C-341.4,412.7-341.6,413.6-341.7,414.5z"/>
					<path class="st6" d="M-332.3,411.6c-1.1-0.5-2.5-0.3-3.4,0.5c-0.5,0.4-0.8,0.9-1,1.4c-0.2,0.5-0.2,1.1-0.3,1.8
						c-0.3,2.4-0.2,4.8,0.3,7.2c0.5,2.3,1.5,4.6,3.1,6.5c1.5,1.9,3.6,3.3,5.8,4.3l-0.4,0.2c0.4-3.1,0.9-6.2,1.4-9.3
						c0.5-3.1,1.1-6.2,1.8-9.3l0.2,0.4l-3.7-1.9C-329.8,412.7-331.1,412.2-332.3,411.6z M-332.3,411.5c1.3,0.5,2.5,1.1,3.9,1.6
						l3.9,1.5c0.2,0.1,0.3,0.2,0.2,0.4l0,0c-0.4,3.1-0.9,6.2-1.5,9.3c-0.6,3.1-1.2,6.2-1.8,9.3l0,0c0,0.2-0.2,0.3-0.4,0.2
						c0,0-0.1,0-0.1,0c-1.1-0.6-2.2-1.3-3.1-2.1c-0.5-0.4-0.9-0.8-1.4-1.2c-0.4-0.5-0.9-0.9-1.2-1.4c-0.8-0.9-1.5-2-2.1-3.1
						c-0.6-1.1-1.1-2.2-1.5-3.5c-0.7-2.4-0.8-5-0.2-7.5c0.2-0.6,0.2-1.2,0.5-1.8c0.3-0.6,0.7-1.1,1.3-1.4
						C-334.8,411.1-333.4,411-332.3,411.5z"/>
				</g>
			</g>
		</g>
		<path class="st5" d="M-323.2,407.4l-7.4,16.8c-2.4,5.5-2,11.6,0.6,16.5c2.3,4.4,2.4,9.6-0.3,13.8l0,0l11.6,5.1
			c1.3-4.8,5.2-8.3,10-9.6c5.4-1.4,10.2-5.2,12.6-10.7l7.4-16.8L-323.2,407.4L-323.2,407.4z"/>
		<g>
			<path class="st6" d="M-324.5,405.8c-1.6,3.9-3.1,7.7-4.8,11.5l-2.4,5.7c-0.8,1.9-1.2,3.9-1.4,5.9c0,1,0,2,0.1,3
				c0.1,1,0.3,2,0.6,3c0.3,1,0.6,1.9,1,2.9c0.4,0.9,1,1.9,1.3,2.9c0.7,2,1,4.2,0.8,6.3c-0.2,2.1-0.9,4.2-2.1,6l-0.1-0.3l5.8,2.6
				c1.9,0.9,3.9,1.7,5.8,2.6l-0.2,0.1c1-4.1,4.2-7.5,8.1-9.1c1-0.4,2-0.7,3-1c1-0.3,1.9-0.7,2.8-1.2c1.8-1,3.4-2.2,4.8-3.7
				c1.4-1.5,2.5-3.2,3.4-5l2.5-5.7c1.6-3.8,3.3-7.6,5-11.4l0.3,0.7c-2.9-1.3-5.8-2.5-8.6-3.8l-8.6-3.9l-8.6-3.9l-4.3-2l-2.1-1
				l-1.1-0.5l-0.5-0.2l-0.3-0.1L-324.5,405.8L-324.5,405.8L-324.5,405.8L-324.5,405.8L-324.5,405.8
				C-324.5,405.9-324.6,405.9-324.5,405.8z M-324.6,405.8C-324.4,405.8-324.5,405.8-324.6,405.8L-324.6,405.8l0.1,0l0,0l0.1,0
				l0.1,0.1l0.3,0.1l0.5,0.2l1.1,0.4l2.2,0.9l4.4,1.8l8.7,3.7l8.7,3.7c2.9,1.2,5.8,2.5,8.6,3.8c0.3,0.1,0.4,0.4,0.3,0.7l0,0
				c-1.7,3.8-3.3,7.6-5,11.4l-2.6,5.7c-0.9,1.9-2.1,3.7-3.6,5.2c-1.5,1.5-3.2,2.8-5.1,3.7c-1,0.5-1.9,0.9-2.9,1.2
				c-1,0.3-2,0.5-3,0.9c-1.9,0.7-3.6,1.9-5.1,3.4c-1.4,1.5-2.4,3.3-3,5.3c0,0.1-0.1,0.1-0.2,0.1l0,0c-1.9-0.9-3.9-1.7-5.8-2.5
				l-5.8-2.5c-0.1,0-0.2-0.2-0.1-0.3l0,0l0,0c1.1-1.7,1.7-3.7,1.8-5.8c0.1-2-0.2-4.1-0.9-6c-0.4-0.9-0.9-1.8-1.3-2.8
				c-0.4-1-0.8-2-1.1-3c-0.6-2.1-0.8-4.2-0.6-6.3c0.2-2.1,0.7-4.2,1.5-6.2c0.8-1.9,1.7-3.8,2.6-5.7
				C-328.1,413.3-326.3,409.6-324.6,405.8z"/>
		</g>
		<path class="st4" d="M-286.6,418.6l-35.1-15.4c-1.1-0.5-2.4,0-2.9,1.1l0,0c-0.5,1.1,0,2.4,1.1,2.9l35.1,15.4
			c1.1,0.5,2.4,0,2.9-1.1l0,0C-285,420.4-285.5,419.1-286.6,418.6z"/>
		<g>
			<path class="st6" d="M-287.9,417.1c-3.5-1.5-7-2.9-10.5-4.3c-3.5-1.4-7-2.9-10.4-4.5c-3.4-1.6-6.8-3.2-10.3-4.8
				c-0.9-0.4-1.7-0.8-2.6-1.2c-0.9-0.3-1.7-0.9-2.6-0.7c-0.9,0.2-1.6,0.9-1.6,1.8c-0.1,0.9,0.4,1.7,1.2,2c7,2.9,14,5.8,20.9,8.9
				c3.5,1.5,6.9,3.1,10.3,4.7l2.6,1.2l1.3,0.6c0.4,0.2,0.8,0.3,1.3,0.2c0.9-0.1,1.6-0.9,1.7-1.8
				C-286.6,418.4-287.1,417.4-287.9,417.1z M-287.9,417c0.9,0.4,1.5,1.4,1.4,2.4c-0.1,1-0.9,1.9-1.9,2.1c-0.5,0.1-1,0.1-1.5-0.1
				l-1.3-0.5l-2.6-1c-3.5-1.4-7-2.9-10.5-4.4c-6.9-3-13.8-6.1-20.7-9.3c-1-0.4-1.6-1.5-1.4-2.6c0.1-1,1-1.9,2-2.1
				c0.5-0.1,1,0,1.5,0.2l1.3,0.6c0.9,0.4,1.7,0.7,2.6,1.1c3.5,1.5,7,2.9,10.5,4.3c3.5,1.5,6.9,3,10.3,4.7
				C-294.8,413.8-291.4,415.5-287.9,417z"/>
		</g>
		<polygon class="st4" points="-314.8,428.5 -318.1,422.9 -324.4,424.3 -318,409.7 -308.4,413.9 		"/>
		<g>
			<path class="st6" d="M-316.1,426.9c-0.5-0.8-1.1-1.7-1.8-2.6c-0.6-0.9-1.2-1.9-1.8-2.8l0.4,0.2c-2.1,0.5-4.2,1-6.3,1.4l0,0
				c-0.2,0-0.5-0.1-0.5-0.3c0-0.1,0-0.2,0-0.3c1.1-2.4,2.4-4.8,3.4-7.2c1.1-2.4,2.1-4.9,3-7.3c0.1-0.2,0.2-0.2,0.4-0.2l0,0
				c1.6,0.6,3.2,1.3,4.9,2l4.8,2c0.3,0.1,0.4,0.4,0.3,0.7l0,0l0,0c-1.1,2.5-2.3,5-3.4,7.4L-316.1,426.9z M-316.1,426.8l3-7.6
				c1-2.4,1.9-4.8,2.9-7.2l0.3,0.7l-4.8-2.2c-1.6-0.7-3.2-1.5-4.7-2.2l0.4-0.2c-1.2,2.4-2.3,4.8-3.3,7.2c-1,2.4-1.9,4.9-2.9,7.4
				l-0.5-0.6c2.1-0.5,4.2-0.9,6.3-1.3l0,0c0.2,0,0.3,0,0.4,0.2c0.5,0.9,1,1.8,1.4,2.7C-317.2,424.8-316.7,425.8-316.1,426.8z"/>
		</g>
	</g>
</g>
<g>
	<path class="st9" d="M7.8,56.4l0.2-0.2c0.6-0.4,1.3,0.3,0.9,0.9l-0.2,0.2c-1.3,1.9-1.3,4.4-0.1,6.4l0.2,0.2
		c0.4,0.6-0.3,1.3-0.9,0.9l-0.2-0.2c-1.9-1.3-4.4-1.3-6.4-0.1L1,64.9c-0.6,0.4-1.3-0.3-0.9-0.9l0.2-0.2c1.3-1.9,1.3-4.4,0.1-6.4
		L0.2,57c-0.4-0.6,0.3-1.3,0.9-0.9l0.2,0.2C3.3,57.6,5.8,57.6,7.8,56.4z"/>
	<path class="st10" d="M77,11.7l0-0.2c0.1-0.4,0.7-0.4,0.8,0l0,0.2c0.4,1.3,1.4,2.3,2.8,2.6l0.2,0c0.4,0.1,0.4,0.7,0,0.8l-0.2,0
		c-1.3,0.4-2.3,1.4-2.6,2.8l0,0.2c-0.1,0.4-0.7,0.4-0.8,0l0-0.2c-0.4-1.3-1.4-2.3-2.8-2.6l-0.2,0c-0.4-0.1-0.4-0.7,0-0.8l0.2,0
		C75.8,14.1,76.8,13,77,11.7z"/>
	<path class="st11" d="M97.2,70.2c10.7-19.5,15.6-40.7-5.9-44.6C60.7,20.1,69.4-0.6,35.9,0S-1.8,42,9.8,63.1S57.9,142.2,97.2,70.2z"
		/>
	<g>
		<g>
			<path class="st4" d="M51,59.9L48.9,59c-0.6-0.3-1.1-0.8-1.3-1.5c-0.2-0.7,0-1.4,0.4-1.9l14.3-18.7c0.6-0.8,1.7-1.1,2.7-0.7l9.2,4
				c2.3,1,3.9,2.9,4.5,5.3c0.6,2.4,0.1,4.9-1.4,6.8l-0.7,0.9C70.6,61.1,60.1,63.9,51,59.9z M64.8,41L53.3,56
				c7.1,2.9,15.1,0.7,19.8-5.4l0.7-0.9c0.7-0.9,0.9-2,0.6-3c-0.3-1.1-1-1.9-2-2.3L64.8,41z"/>
			<path class="st4" d="M19.6,28.2l0.2-1.1c0.4-2.4,1.9-4.5,4.1-5.7s4.7-1.3,7-0.3l9.2,4c0.9,0.4,1.5,1.4,1.3,2.4l-4.1,23.1
				c-0.1,0.7-0.5,1.3-1.1,1.6c-0.6,0.3-1.3,0.3-1.9,0.1l-2.1-0.9C23,47.6,17.9,38,19.6,28.2z M29.1,25.3c-1-0.4-2.1-0.4-3.1,0.1
				c-1,0.5-1.6,1.4-1.8,2.5L24,29c-1.3,7.5,2.5,15,9.4,18.2l3.3-18.6L29.1,25.3z"/>
		</g>
		<path class="st5" d="M22.4,63.4l26.5,11.6c0.9,0.4,1.4,1.5,1,2.5l-2.4,5.4c-0.4,0.9-1.5,1.4-2.5,1L18.5,72.3
			c-0.9-0.4-1.4-1.5-1-2.5l2.4-5.4C20.3,63.5,21.4,63,22.4,63.4z"/>
		<g>
			<path class="st6" d="M21.1,61.8c3.1,1.4,6.3,2.6,9.4,3.8c3.2,1.2,6.3,2.6,9.4,4l4.6,2.2l2.3,1.1c0.4,0.2,0.8,0.3,1.2,0.6
				c0.4,0.3,0.7,0.7,0.8,1.1c0.1,0.4,0.1,0.9-0.1,1.4l-0.5,1.2l-1,2.3l-0.5,1.2c-0.2,0.4-0.3,0.8-0.5,1.2c-0.5,0.8-1.7,1.1-2.6,0.7
				c-6.3-2.6-12.5-5.2-18.7-8c-1.5-0.7-3.1-1.4-4.6-2.1l-2.3-1.1c-0.4-0.2-0.7-0.3-1.2-0.6c-0.4-0.3-0.7-0.7-0.8-1.2
				c-0.1-0.5-0.1-1,0.1-1.4l0.6-1.2l1.1-2.3c0.4-0.8,0.7-1.5,1.1-2.3C19.2,61.7,20.3,61.4,21.1,61.8z M21,61.9
				c-0.8-0.3-1.7-0.1-2.2,0.6c-0.4,0.7-0.7,1.5-1,2.3l-0.9,2.4l-0.5,1.2c-0.1,0.3-0.1,0.7,0,1c0.1,0.3,0.4,0.6,0.6,0.8
				c0.3,0.1,0.7,0.3,1.1,0.5l2.4,1c1.6,0.6,3.1,1.3,4.7,2c6.2,2.7,12.4,5.5,18.5,8.4c0.7,0.3,1.5,0.1,2-0.5c0.4-0.6,0.7-1.5,1.1-2.3
				l1-2.3c0.3-0.8,0.8-1.5,0.5-2.3c-0.1-0.4-0.4-0.7-0.7-0.9c-0.3-0.2-0.8-0.3-1.1-0.5l-2.4-1l-4.7-1.9c-3.1-1.3-6.2-2.7-9.3-4.2
				C27.2,64.8,24.1,63.3,21,61.9z"/>
		</g>
		<g>
			<g>
				<g>
					<path class="st6" d="M49.7,58.4c-0.8-0.4-1.7-0.7-2.5-1.1c-0.8-0.5-1.2-1.5-1-2.5c0.1-0.5,0.4-0.9,0.6-1.2l0.8-1.1l1.6-2.2
						c2.1-3,4.3-5.8,6.5-8.7l3.4-4.2l1.7-2.1c0.6-0.8,1.7-1.1,2.7-0.8c3.3,1.5,6.6,2.9,10,4.3c1.7,0.8,3.1,2.3,3.8,4
						c0.8,1.7,0.9,3.8,0.4,5.6c-0.3,0.9-0.7,1.8-1.2,2.6c-0.3,0.4-0.5,0.7-0.8,1.1l-0.9,1.1c-1.2,1.4-2.6,2.7-4.1,3.7
						c-1.5,1-3.2,1.9-4.9,2.5c-1.8,0.6-3.6,1-5.4,1.1c-1.8,0.1-3.7,0-5.5-0.4C53.1,59.6,51.4,59.1,49.7,58.4z M49.7,58.3
						c1.7,0.7,3.4,1.2,5.2,1.4c1.8,0.2,3.6,0.2,5.4,0c3.5-0.5,6.9-1.8,9.8-3.8c1.5-1,2.7-2.2,3.9-3.5l0.9-1c0.3-0.4,0.6-0.7,0.8-1.1
						c0.5-0.7,0.9-1.5,1.1-2.3c0.5-1.6,0.4-3.4-0.2-5c-0.6-1.6-1.8-3-3.4-3.8c-3.2-1.5-6.6-3.1-9.9-4.5c-0.8-0.3-1.7,0-2.2,0.7
						l-1.6,2.2L56.4,42c-2.2,2.9-4.4,5.8-6.7,8.6L48,52.7l-0.9,1.1c-0.3,0.4-0.6,0.7-0.7,1.1c-0.3,0.8,0.1,1.8,0.8,2.3
						C48.1,57.6,48.9,57.9,49.7,58.3z"/>
					<path class="st6" d="M63.5,39.5c-1.8,2.7-3.7,5.3-5.5,7.8c-0.9,1.3-1.8,2.5-2.8,3.7l-3,3.6l-0.1-0.4c2.8,1.3,6.1,1.6,9.2,0.9
						c3-0.7,5.9-2.1,8.1-4.2c0.6-0.5,1.1-1.1,1.6-1.7c0.2-0.3,0.5-0.6,0.7-0.9c0.2-0.3,0.5-0.6,0.7-0.9c0.7-1.2,0.5-2.8-0.5-3.7
						c-0.2-0.2-0.5-0.4-0.9-0.6l-1-0.5c-0.7-0.3-1.4-0.7-2.1-1L63.5,39.5z M63.5,39.4l4.4,1.7c0.7,0.3,1.5,0.6,2.3,0.9l1.1,0.5
						c0.4,0.2,0.8,0.4,1.1,0.7c1.4,1.2,1.8,3.3,0.8,4.9c-0.2,0.4-0.5,0.7-0.7,1c-0.2,0.3-0.5,0.6-0.8,0.9c-0.5,0.6-1.1,1.2-1.7,1.7
						c-2.4,2.2-5.5,3.6-8.7,4c-3.2,0.5-6.4,0-9.4-1c-0.1,0-0.2-0.2-0.1-0.3c0,0,0,0,0-0.1l0,0l2.8-3.9c0.9-1.3,1.9-2.6,2.9-3.8
						C59.5,44.1,61.5,41.6,63.5,39.4z"/>
				</g>
			</g>
			<g>
				<g>
					<path class="st6" d="M18.2,26.7c0.2-0.9,0.3-1.8,0.6-2.7c0.3-0.9,0.8-1.7,1.4-2.4c1.2-1.4,2.8-2.5,4.7-2.9
						c0.9-0.2,1.9-0.2,2.8-0.1c0.9,0.1,1.9,0.5,2.7,0.8c1.7,0.7,3.3,1.5,5,2.2l2.5,1.2c0.4,0.2,0.8,0.4,1.3,0.6
						c0.4,0.3,0.8,0.7,1,1.1c0.2,0.5,0.3,1,0.2,1.5L40,27.4l-0.5,2.7c-0.7,3.6-1.2,7.1-1.8,10.7l-0.8,5.4l-0.4,2.7
						c-0.1,0.4-0.1,1-0.5,1.5c-0.3,0.5-0.7,0.8-1.2,1c-0.5,0.2-1.1,0.3-1.6,0.1c-0.6-0.1-0.9-0.4-1.4-0.5c-0.8-0.3-1.7-0.7-2.5-1.1
						c-1.6-0.8-3.2-1.9-4.6-3.1c-1.4-1.3-2.6-2.6-3.6-4.2c-1-1.6-1.8-3.2-2.3-5c-0.5-1.8-0.8-3.6-0.9-5.4
						C17.8,30.3,17.9,28.4,18.2,26.7z M18.3,26.7c-0.3,1.8-0.3,3.6-0.2,5.4c0.2,1.8,0.7,3.5,1.3,5.2c1.3,3.3,3.4,6.3,6,8.7
						c1.3,1.2,2.8,2.1,4.4,3l1.2,0.6l1.2,0.6c0.4,0.2,0.9,0.4,1.2,0.5c0.3,0.1,0.7,0.1,1.1-0.1c0.3-0.1,0.6-0.4,0.8-0.7
						c0.2-0.3,0.3-0.6,0.4-1.1l0.5-2.7l1.1-5.3c0.7-3.6,1.4-7.1,2-10.7l0.4-2.7l0.2-1.3c0.1-0.4,0-0.8-0.2-1.2
						c-0.2-0.3-0.5-0.6-0.8-0.8l-1.2-0.5l-2.5-1c-1.7-0.7-3.3-1.4-5-2.2c-1.6-0.8-3.3-1.2-5-0.9c-1.7,0.2-3.4,1.1-4.6,2.4
						c-0.6,0.6-1.1,1.4-1.4,2.3C18.6,24.9,18.5,25.8,18.3,26.7z"/>
					<path class="st6" d="M27.7,23.8c-1.1-0.5-2.5-0.3-3.4,0.5c-0.5,0.4-0.8,0.9-1,1.4c-0.2,0.5-0.2,1.1-0.3,1.8
						c-0.3,2.4-0.2,4.8,0.3,7.2c0.5,2.3,1.5,4.6,3.1,6.5c1.5,1.9,3.6,3.3,5.8,4.3l-0.4,0.2c0.4-3.1,0.9-6.2,1.4-9.3
						c0.5-3.1,1.1-6.2,1.8-9.3l0.2,0.4l-3.7-1.9C30.2,24.9,29,24.3,27.7,23.8z M27.8,23.7c1.3,0.5,2.5,1.1,3.9,1.6l3.9,1.5
						c0.2,0.1,0.3,0.2,0.2,0.4l0,0c-0.4,3.1-0.9,6.2-1.5,9.3c-0.6,3.1-1.2,6.2-1.8,9.3l0,0c0,0.2-0.2,0.3-0.4,0.2c0,0-0.1,0-0.1,0
						c-1.1-0.6-2.2-1.3-3.1-2.1c-0.5-0.4-0.9-0.8-1.4-1.2c-0.4-0.5-0.9-0.9-1.2-1.4c-0.8-0.9-1.5-2-2.1-3.1
						c-0.6-1.1-1.1-2.2-1.5-3.5c-0.7-2.4-0.8-5-0.2-7.5c0.2-0.6,0.2-1.2,0.5-1.8c0.3-0.6,0.7-1.1,1.3-1.4
						C25.2,23.3,26.6,23.2,27.8,23.7z"/>
				</g>
			</g>
		</g>
		<path class="st5" d="M36.8,19.6l-7.4,16.8c-2.4,5.5-2,11.6,0.6,16.5c2.3,4.4,2.4,9.6-0.3,13.8l0,0l11.6,5.1
			c1.3-4.8,5.2-8.3,10-9.6c5.4-1.4,10.2-5.2,12.6-10.7l7.4-16.8L36.8,19.6L36.8,19.6z"/>
		<g>
			<path class="st6" d="M35.5,18c-1.6,3.9-3.1,7.7-4.8,11.5l-2.4,5.7c-0.8,1.9-1.2,3.9-1.4,5.9c0,1,0,2,0.1,3c0.1,1,0.3,2,0.6,3
				c0.3,1,0.6,1.9,1,2.9c0.4,0.9,1,1.9,1.3,2.9c0.7,2,1,4.2,0.8,6.3c-0.2,2.1-0.9,4.2-2.1,6l-0.1-0.3l5.8,2.6
				c1.9,0.9,3.9,1.7,5.8,2.6l-0.2,0.1c1-4.1,4.2-7.5,8.1-9.1c1-0.4,2-0.7,3-1c1-0.3,1.9-0.7,2.8-1.2c1.8-1,3.4-2.2,4.8-3.7
				c1.4-1.5,2.5-3.2,3.4-5l2.5-5.7c1.6-3.8,3.3-7.6,5-11.4l0.3,0.7c-2.9-1.3-5.8-2.5-8.6-3.8l-8.6-3.9L44,22l-4.3-2l-2.1-1l-1.1-0.5
				L36,18.3l-0.3-0.1L35.5,18L35.5,18L35.5,18L35.5,18L35.5,18C35.5,18,35.4,18.1,35.5,18z M35.5,18C35.6,17.9,35.5,18,35.5,18
				L35.5,18l0.1,0l0,0l0.1,0l0.1,0.1l0.3,0.1l0.5,0.2l1.1,0.4l2.2,0.9l4.4,1.8l8.7,3.7l8.7,3.7c2.9,1.2,5.8,2.5,8.6,3.8
				c0.3,0.1,0.4,0.4,0.3,0.7l0,0c-1.7,3.8-3.3,7.6-5,11.4l-2.6,5.7c-0.9,1.9-2.1,3.7-3.6,5.2c-1.5,1.5-3.2,2.8-5.1,3.7
				c-1,0.5-1.9,0.9-2.9,1.2c-1,0.3-2,0.5-3,0.9c-1.9,0.7-3.6,1.9-5.1,3.4c-1.4,1.5-2.4,3.3-3,5.3c0,0.1-0.1,0.1-0.2,0.1l0,0
				c-1.9-0.9-3.9-1.7-5.8-2.5l-5.8-2.5c-0.1,0-0.2-0.2-0.1-0.3l0,0l0,0c1.1-1.7,1.7-3.7,1.8-5.8c0.1-2-0.2-4.1-0.9-6
				c-0.4-0.9-0.9-1.8-1.3-2.8c-0.4-1-0.8-2-1.1-3c-0.6-2.1-0.8-4.2-0.6-6.3c0.2-2.1,0.7-4.2,1.5-6.2c0.8-1.9,1.7-3.8,2.6-5.7
				C31.9,25.5,33.7,21.8,35.5,18z"/>
		</g>
		<path class="st4" d="M73.4,30.8L38.3,15.4c-1.1-0.5-2.4,0-2.9,1.1l0,0c-0.5,1.1,0,2.4,1.1,2.9l35.1,15.4c1.1,0.5,2.4,0,2.9-1.1
			l0,0C75.1,32.6,74.6,31.3,73.4,30.8z"/>
		<g>
			<path class="st6" d="M72.1,29.3c-3.5-1.5-7-2.9-10.5-4.3c-3.5-1.4-7-2.9-10.4-4.5c-3.4-1.6-6.8-3.2-10.3-4.8
				c-0.9-0.4-1.7-0.8-2.6-1.2c-0.9-0.3-1.7-0.9-2.6-0.7c-0.9,0.2-1.6,0.9-1.6,1.8c-0.1,0.9,0.4,1.7,1.2,2c7,2.9,14,5.8,20.9,8.9
				c3.5,1.5,6.9,3.1,10.3,4.7l2.6,1.2l1.3,0.6c0.4,0.2,0.8,0.3,1.3,0.2c0.9-0.1,1.6-0.9,1.7-1.8C73.5,30.6,73,29.6,72.1,29.3z
				 M72.1,29.2c0.9,0.4,1.5,1.4,1.4,2.4c-0.1,1-0.9,1.9-1.9,2.1c-0.5,0.1-1,0.1-1.5-0.1l-1.3-0.5l-2.6-1c-3.5-1.4-7-2.9-10.5-4.4
				c-6.9-3-13.8-6.1-20.7-9.3c-1-0.4-1.6-1.5-1.4-2.6c0.1-1,1-1.9,2-2.1c0.5-0.1,1,0,1.5,0.2l1.3,0.6c0.9,0.4,1.7,0.7,2.6,1.1
				c3.5,1.5,7,2.9,10.5,4.3c3.5,1.5,6.9,3,10.3,4.7C65.3,26,68.7,27.7,72.1,29.2z"/>
		</g>
		<polygon class="st4" points="45.2,40.7 41.9,35.1 35.6,36.4 42,21.9 51.6,26.1 		"/>
		<g>
			<path class="st6" d="M43.9,39.1c-0.5-0.8-1.1-1.7-1.8-2.6c-0.6-0.9-1.2-1.9-1.8-2.8l0.4,0.2c-2.1,0.5-4.2,1-6.3,1.4l0,0
				c-0.2,0-0.5-0.1-0.5-0.3c0-0.1,0-0.2,0-0.3c1.1-2.4,2.4-4.8,3.4-7.2c1.1-2.4,2.1-4.9,3-7.3c0.1-0.2,0.2-0.2,0.4-0.2l0,0
				c1.6,0.6,3.2,1.3,4.9,2l4.8,2c0.3,0.1,0.4,0.4,0.3,0.7l0,0l0,0c-1.1,2.5-2.3,5-3.4,7.4L43.9,39.1z M43.9,39l3-7.6
				c1-2.4,1.9-4.8,2.9-7.2l0.3,0.7l-4.8-2.2c-1.6-0.7-3.2-1.5-4.7-2.2l0.4-0.2c-1.2,2.4-2.3,4.8-3.3,7.2c-1,2.4-1.9,4.9-2.9,7.4
				l-0.5-0.6c2.1-0.5,4.2-0.9,6.3-1.3l0,0c0.2,0,0.3,0,0.4,0.2c0.5,0.9,1,1.8,1.4,2.7C42.9,37,43.4,38,43.9,39z"/>
		</g>
	</g>
</g>
</svg>
