<?xml version="1.0" encoding="utf-8"?>
<!-- Generator: Adobe Illustrator 22.0.0, SVG Export Plug-In . SVG Version: 6.00 Build 0)  -->
<svg version="1.1" id="Layer_1" xmlns="http://www.w3.org/2000/svg" xmlns:xlink="http://www.w3.org/1999/xlink" x="0px" y="0px"
	 viewBox="0 0 177.3 168.2" style="enable-background:new 0 0 177.3 168.2;" xml:space="preserve">
<style type="text/css">
	.st0{opacity:0.37;}
	.st1{fill:#FFFFFF;}
	.st2{fill:#FAA7A2;}
	.st3{fill:#1A2E35;}
	.st4{fill:#FF6F6C;}
	.st5{opacity:0.61;fill:#FFFFFF;}
	.st6{opacity:0.73;fill:#FFFFFF;}
	.st7{opacity:0.78;fill:#FFFFFF;}
</style>
<g>
	<g class="st0">
		<g>
			<path class="st1" d="M42.3,163.1c-0.3-0.2-0.6-0.3-0.9-0.5c-14.5-8.5-20.1-25.4-14.1-41.4c2.3-5.9,6.1-10.9,9.3-16.8
				c0.3-0.5,0.5-1,0.8-1.6c4.2-8.4,6.7-19.1,1.6-37.2c-8-28.1-9.7-51.5,10.6-61.5c0.2-0.1,0.5-0.2,0.8-0.4c2.9-1.3,6.2-2.4,9.9-3.2
				c10.9-2.3,22.8,1.9,33.9,9.8c0.4,0.3,0.7,0.5,1.1,0.8c7.6,5.6,14.9,13,21.1,21.2c0.7,0.9,1.4,1.7,2.1,2.6
				c0.2,0.3,0.4,0.5,0.7,0.8c4.3,4.7,9.4,8.5,14.7,11.9c0.2,0.2,0.5,0.3,0.7,0.5c10.1,6.2,20.8,10.7,28.4,16.3
				c0.6,0.5,1.2,0.9,1.8,1.4c0.3,0.2,0.5,0.4,0.7,0.6c2,1.7,3.7,3.6,5.1,5.5c0.2,0.2,0.4,0.5,0.5,0.7c3.8,5.3,5.8,11.4,6,18
				c0,0.3,0,0.7,0,1c0,10.1-4.1,21.2-12.6,31.7c-0.2,0.3-0.4,0.6-0.7,0.8c-5.7,6.9-13.2,13.5-22.5,19.5c-0.3,0.2-0.6,0.4-0.9,0.6
				c-8.5,5.4-18.5,10.2-30,14.2c-0.3,0.1-0.6,0.2-0.8,0.3c-4,1.4-8.1,2.6-12.5,3.8c-0.3,0.1-0.5,0.1-0.8,0.2
				c-3.4,0.9-6.8,1.7-10.4,2.4c-0.3,0.1-0.6,0.1-0.8,0.2c-3.9,0.8-8,1.5-12.2,2.2C60.6,169.4,50.2,167.5,42.3,163.1z"/>
		</g>
	</g>
	<path class="st2" d="M42.2,125.3l12.7,32.2c1.8,4.5,6.7,6.7,11.2,4.9l37.1-14.6c0.7-0.3,1.2-0.5,1.7-0.7c3.4-1.4,4.2-1.3,7.8,0.1
		c0.3,0.1,0.7,0.2,1,0.4l7.8,2.9l-10.5-26.7l-8.7-22.2c-1.8-4.5-6.9-6.6-11.4-4.8l-43.9,17.2C42.6,115.9,40.5,120.9,42.2,125.3
		L42.2,125.3z"/>
	<path class="st3" d="M38.5,123.4l5,12.5l5.1,12.4l2.5,6.2c0.4,1.1,0.8,2,1.5,2.9c0.6,0.9,1.4,1.6,2.4,2.1c1.8,1.1,4.1,1.4,6.1,0.9
		c1-0.2,2.1-0.7,3.1-1.1l3.1-1.2c8.3-3.3,16.7-6.4,25.1-9.6l6.3-2.4l3.1-1.2c1-0.4,2.2-0.8,3.3-0.7c1.2,0.1,2.2,0.5,3.3,0.9
		c0.5,0.2,1.1,0.4,1.6,0.6l1.6,0.6l6.3,2.3l-0.3,0.3l-11.8-29.5l-5.9-14.8l-1.5-3.7l-0.4-0.9c-0.1-0.3-0.2-0.6-0.4-0.8
		c-0.3-0.5-0.6-1.1-1.1-1.5c-1.6-1.9-4.2-2.9-6.7-2.7c-1.3,0-2.4,0.5-3.7,1l-3.7,1.4l-7.4,2.9L60.4,106l-14.8,5.6
		c-1.2,0.5-2.5,0.9-3.6,1.5c-1.1,0.7-2,1.6-2.7,2.8C37.8,118.1,37.6,121,38.5,123.4z M38.4,123.5c-1-2.5-0.8-5.4,0.6-7.7
		c0.7-1.1,1.6-2.1,2.8-2.9c1.1-0.7,2.4-1.1,3.6-1.6l14.7-6l14.7-5.9l7.4-2.9l3.7-1.5c1.2-0.5,2.6-1,4-1.1c2.8-0.2,5.7,0.9,7.5,3
		c0.5,0.5,0.9,1.1,1.2,1.7c0.2,0.3,0.3,0.6,0.4,1l0.4,0.9l1.4,3.7l5.7,14.8l11.4,29.6c0,0.1,0,0.2-0.1,0.3c0,0-0.1,0-0.1,0l-6.3-2.4
		l-1.6-0.6c-0.5-0.2-1.1-0.4-1.6-0.6c-1-0.4-2.1-0.8-3.2-0.9c-1.1-0.1-2.2,0.3-3.2,0.7l-3.1,1.3l-6.2,2.5c-8.3,3.3-16.6,6.8-24.9,10
		l-3.1,1.2c-1,0.4-2,0.9-3.2,1.2c-2.3,0.6-4.8,0.1-6.8-1.1c-1-0.6-1.9-1.4-2.6-2.4c-0.7-0.9-1.2-2.1-1.5-3.1l-2.4-6.3L43.3,136
		L38.4,123.5z"/>
	<path class="st2" d="M136.9,29.3c-2.1-5.2-7.8-7.8-13.1-5.7L72.5,43.8c-5.2,2.1-8,8-5.9,13.2l10.2,26L89,114.3l4.3-8.7
		c0.2-0.4,0.4-0.8,0.6-1.1c2-4,2.6-4.8,6.6-6.3c0.6-0.2,1.2-0.5,2-0.8l43.5-17.1c5.2-2.1,7.7-7.9,5.7-13.2L136.9,29.3L136.9,29.3z"
		/>
	<path class="st4" d="M82.7,117.9c1.4,3.5-0.3,6.6-1.6,8.9c-0.5,0.9-1.4,2.5-1.2,2.9c0.6,1.6-0.1,3.3-1.7,4c0,0,0,0,0,0
		c-1.6,0.6-3.3-0.1-4-1.7c-1.2-3.1,0.3-5.8,1.5-8.1c1-1.8,1.6-3,1.3-3.7c-0.6-1.6-2.4-2.3-3.9-1.7c-1.6,0.6-2.3,2.4-1.7,3.9
		c0.6,1.6-0.2,3.4-1.7,4c-1.6,0.6-3.4-0.2-4-1.7c-1.9-4.7,0.5-10.1,5.2-11.9C75.5,110.8,80.8,113.2,82.7,117.9z"/>
	<path class="st4" d="M79.2,136.3c-1.6,0.6-2.3,2.4-1.7,4l0,0c0.6,1.6,2.3,2.4,3.9,1.8c1.6-0.6,2.4-2.4,1.7-4S80.8,135.6,79.2,136.3
		z"/>
	<path class="st3" d="M132.5,26.4c-1.2-2.8-3.7-5.1-6.6-5.9c-1.5-0.4-3-0.5-4.5-0.1c-1.5,0.3-2.9,1-4.3,1.5l-17.2,6.9l-17.3,6.8
		l-8.7,3.4l-4.3,1.7c-1.5,0.5-2.8,1.1-4,2.1c-2.3,1.9-3.8,4.8-3.8,7.8c0,0.8,0.1,1.5,0.3,2.2c0.2,0.7,0.5,1.4,0.7,2.2l1.7,4.3
		l6.7,17.3l13.8,34.5l-0.6,0l3.5-7.1l0.9-1.8c0.3-0.6,0.6-1.2,0.9-1.8c0.6-1.2,1.2-2.4,2.1-3.4c1-1,2.3-1.6,3.5-2.1l3.7-1.4l7.3-2.9
		l29.3-11.5l3.7-1.4c1.2-0.5,2.5-0.9,3.6-1.5c2.2-1.2,3.9-3.3,4.6-5.7c0.4-1.2,0.5-2.5,0.3-3.7c-0.1-1.3-0.5-2.4-1-3.7l-2.8-7.3
		L138,41.2L132.5,26.4z M132.6,26.4l5.9,14.6l5.9,14.6l2.9,7.3c0.5,1.2,1,2.5,1.1,3.9c0.2,1.4,0.1,2.7-0.3,4.1
		c-0.7,2.6-2.5,5-4.9,6.3c-1.2,0.7-2.5,1.1-3.7,1.6l-3.7,1.4l-29.3,11.5l-7.3,2.9l-3.7,1.4c-1.2,0.5-2.4,1-3.2,1.9
		c-0.8,0.9-1.4,2-2,3.2c-0.3,0.6-0.6,1.2-0.9,1.7l-0.9,1.8l-3.5,7c-0.1,0.2-0.3,0.2-0.5,0.2c-0.1,0-0.1-0.1-0.2-0.2L70.9,76.8
		L64,59.5l-1.7-4.3c-0.3-0.7-0.6-1.4-0.8-2.2c-0.2-0.8-0.3-1.6-0.3-2.4c-0.1-3.2,1.4-6.4,3.9-8.4c1.2-1.1,2.8-1.7,4.2-2.2l4.3-1.7
		l8.6-3.4l17.3-6.7l17.3-6.7c1.4-0.5,2.9-1.2,4.4-1.5c1.6-0.3,3.2-0.2,4.7,0.3C129,21.1,131.5,23.5,132.6,26.4z"/>
	<path class="st3" d="M111.6,41.2c-0.1-0.7,0.1-1.3,0.3-1.9c0.3-0.6,0.6-1.1,1.2-1.5c0.1,0.7,0,1.3-0.3,1.9
		C112.5,40.3,112.2,40.8,111.6,41.2z"/>
	<path class="st3" d="M92.1,48.8c-0.7,0.1-1.3-0.1-1.9-0.3c-0.6-0.3-1.1-0.6-1.5-1.2c0.7-0.1,1.3,0,1.9,0.3
		C91.2,47.9,91.7,48.2,92.1,48.8z"/>
	<path class="st3" d="M99.4,68c0.1,0.7-0.1,1.3-0.3,1.9c-0.3,0.6-0.6,1.1-1.2,1.5c-0.1-0.7,0-1.3,0.3-1.9
		C98.5,68.9,98.8,68.4,99.4,68z"/>
	<path class="st3" d="M121.7,61.9c-0.7,0.3-1.3,0.3-1.9,0.2c-0.6-0.1-1.2-0.3-1.7-0.8c0.7-0.3,1.3-0.3,1.9-0.2
		C120.5,61.3,121.1,61.5,121.7,61.9z"/>
	<path class="st3" d="M122.3,49c-0.4,0.6-1,0.9-1.6,1.1c-0.6,0.2-1.2,0.3-1.9,0.1c0.4-0.6,1-0.9,1.6-1.1C121,49,121.6,48.9,122.3,49
		z"/>
	<path class="st3" d="M91.8,60.9c-0.4,0.6-1,0.9-1.6,1.1c-0.6,0.2-1.2,0.3-1.9,0.1c0.4-0.6,1-0.9,1.6-1.1
		C90.4,60.9,91.1,60.8,91.8,60.9z"/>
	<path class="st4" d="M108.1,72.3l7.2-2.8c0.4-0.1,0.8,0,0.9,0.4l1.1,2.8c0.4,0.9-0.1,2-1,2.4l-5.1,2c-0.9,0.4-2-0.1-2.4-1l-1.1-2.8
		C107.6,72.9,107.7,72.5,108.1,72.3z"/>
	<path class="st3" d="M108.1,72.3c1.1-0.4,2.1-1,3.1-1.5c1-0.5,2-1,3.1-1.3l0.8-0.2c0.1,0,0.4-0.1,0.5-0.1c0.2,0,0.4,0.1,0.5,0.2
		c0.1,0.1,0.3,0.3,0.3,0.5l0.1,0.4l0.3,0.8c0.2,0.5,0.4,1.1,0.6,1.6c0.2,0.6,0.2,1.3-0.1,1.8c-0.2,0.3-0.4,0.5-0.7,0.7
		c-0.3,0.2-0.5,0.3-0.8,0.4c-0.5,0.2-1,0.5-1.6,0.7c-1.1,0.4-2,0.9-3.2,1.3c-0.7,0.2-1.5,0-2-0.4c-0.3-0.2-0.5-0.5-0.6-0.8
		c-0.1-0.3-0.2-0.6-0.2-0.9l-0.4-1.6c-0.1-0.3-0.2-0.5-0.2-0.8C107.6,72.7,107.8,72.4,108.1,72.3z M108.1,72.4
		c-0.2,0.1-0.4,0.4-0.4,0.6c0,0.2,0.2,0.5,0.3,0.8l0.8,1.5c0.1,0.2,0.3,0.5,0.4,0.7c0.1,0.2,0.3,0.3,0.5,0.4
		c0.4,0.2,0.8,0.3,1.2,0.2c1-0.4,2.1-0.8,3.1-1.1c0.5-0.2,1.1-0.4,1.6-0.5c0.6-0.2,1-0.3,1.3-0.7c0.3-0.4,0.4-0.9,0.3-1.4
		c-0.2-0.5-0.4-1.1-0.6-1.6l-0.3-0.8L116,70c-0.1-0.1-0.1-0.2-0.2-0.2c-0.1,0-0.2-0.1-0.2,0c-0.1,0-0.1,0-0.3,0.1l-0.8,0.4
		c-1,0.5-2.1,0.9-3.2,1.1C110.3,71.7,109.2,72,108.1,72.4z"/>
	<path class="st4" d="M102,44.1c-6.5,2-9.9,9.2-7.5,15.4c1.5,3.8,3.8,5.5,5.7,6.5c1,0.5,1.8,0.9,2.4,1.3c0.6,0.4,1,0.8,1.2,1.4
		l0.2,0.6c0.4,1,1.6,1.6,2.6,1.2l8-3.1c1-0.4,1.6-1.6,1.2-2.6l-0.2-0.6c-0.3-0.6-0.2-1.2-0.1-1.9c0.2-0.7,0.5-1.6,0.9-2.6
		c0.5-1.6,1-3.6,0.5-6.1C115.8,46.6,108.8,42.1,102,44.1z"/>
	<path class="st3" d="M104.9,48.5c0.9-0.2,1.8-0.2,2.7-0.1c0.9,0.1,1.8,0.4,2.6,0.9c0.8,0.5,1.5,1.2,2,1.9c0.5,0.8,0.7,1.7,0.8,2.6
		c-0.5-0.8-0.8-1.5-1.4-2.1c-0.5-0.6-1.1-1.1-1.8-1.5C108.3,49.3,106.7,48.8,104.9,48.5z"/>
	<path class="st3" d="M102,44.2c-3.2,0.9-5.8,3.5-7,6.5c-1.2,3-1.1,6.4,0.1,9.4c0.6,1.5,1.5,2.9,2.7,4c0.6,0.6,1.2,1.1,1.9,1.5
		c0.7,0.4,1.5,0.8,2.2,1.2c0.7,0.4,1.5,0.9,1.9,1.7c0.2,0.4,0.3,0.8,0.5,1.1c0.2,0.3,0.5,0.6,0.8,0.7c0.4,0.1,0.7,0.2,1.1,0.1
		c0.3-0.1,0.8-0.3,1.1-0.4l2.3-1l4.6-1.9c0.7-0.2,1.1-0.8,1.2-1.5c0-0.3-0.1-0.6-0.2-1c-0.2-0.3-0.3-0.9-0.3-1.4
		c0-1,0.3-1.8,0.6-2.6c0.3-0.8,0.6-1.6,0.7-2.3c0.4-1.5,0.5-3.2,0.2-4.7c-0.6-3.1-2.4-6-5.1-7.9C108.8,43.9,105.2,43.2,102,44.2z
		 M102,44.1c3.2-1,6.8-0.7,9.8,1.1c3,1.7,5.2,4.8,5.8,8.2c0.3,1.7,0.3,3.5-0.2,5.2c-0.2,0.8-0.5,1.6-0.8,2.4
		c-0.3,0.8-0.6,1.5-0.6,2.2c0,0.4,0.1,0.6,0.3,1c0.1,0.3,0.3,0.9,0.3,1.4c-0.1,1-0.9,1.9-1.8,2.2l-4.7,1.7l-2.3,0.9
		c-0.4,0.1-0.8,0.3-1.2,0.4c-0.4,0.1-0.9,0-1.3-0.2c-0.4-0.2-0.8-0.5-1-0.9c-0.2-0.4-0.3-0.8-0.5-1.2c-0.3-0.7-1.1-1.1-1.8-1.5
		c-1.5-0.7-3.1-1.4-4.3-2.6c-1.3-1.1-2.3-2.5-3.1-4.1c-0.7-1.6-1.2-3.3-1.1-5c0-1.7,0.4-3.4,1.2-5C96,47.3,98.8,45.1,102,44.1z"/>
	<path class="st3" d="M82.7,117.9c0.7,1.6,0.7,3.4,0.2,5.1c-0.4,1.7-1.3,3.3-2,4.8c-0.2,0.4-0.4,0.8-0.5,1.2
		c-0.1,0.2-0.1,0.4-0.1,0.5c0,0,0,0.1,0,0.1c0,0,0,0,0,0l0,0.1c0,0.1,0.1,0.2,0.1,0.3c0.3,0.9,0.1,2-0.5,2.8c-1.1,1.7-3.7,2-5.2,0.7
		c-0.4-0.3-0.7-0.7-0.8-1.2c-0.2-0.4-0.3-0.9-0.4-1.3c-0.2-0.9-0.1-1.8,0.1-2.7c0.4-1.8,1.3-3.3,2.1-4.8c0.4-0.8,0.8-1.5,1.1-2.3
		c0.3-0.8-0.2-1.6-0.8-2.1c-0.6-0.5-1.5-0.7-2.3-0.6c-0.8,0.1-1.5,0.6-1.9,1.3c-0.4,0.7-0.5,1.5-0.3,2.2c0.1,0.2,0.1,0.4,0.2,0.6
		c0.1,0.2,0.1,0.5,0.1,0.7c0,0.5,0,1-0.2,1.4c-0.3,0.9-1.1,1.7-2,2c-0.9,0.4-2,0.3-2.9-0.2c-0.9-0.4-1.6-1.3-1.8-2.2
		c-0.3-0.9-0.5-1.8-0.5-2.7c-0.1-1.8,0.4-3.7,1.2-5.2c0.9-1.6,2.2-2.9,3.9-3.7c1.6-0.8,3.5-1.2,5.2-1
		C78.4,112.1,81.5,114.6,82.7,117.9z M82.6,117.9c-0.7-1.6-1.7-3-3.2-3.9c-1.4-1-3.1-1.5-4.7-1.5c-3.3-0.1-6.6,1.7-8.2,4.6
		c-0.8,1.4-1.2,3.1-1.1,4.7c0,0.8,0.2,1.6,0.4,2.4c0.2,0.8,0.6,1.4,1.3,1.7c1.3,0.7,3.2,0.1,3.7-1.3c0.1-0.3,0.2-0.7,0.2-1.1
		c0-0.2,0-0.4-0.1-0.6c0-0.2-0.1-0.4-0.2-0.6c-0.3-0.9-0.1-1.9,0.5-2.7c0.5-0.8,1.4-1.3,2.3-1.4c0.9-0.1,1.9,0.2,2.6,0.8
		c0.3,0.3,0.6,0.7,0.8,1.1c0.2,0.4,0.2,1,0.1,1.4c-0.3,0.9-0.7,1.6-1.1,2.4c-0.8,1.5-1.6,3.1-1.9,4.7c-0.1,0.8-0.1,1.7,0.1,2.4
		c0.2,0.8,0.5,1.6,1.1,2c0.6,0.5,1.3,0.7,2.1,0.6c0.7-0.1,1.4-0.5,1.8-1.1c0.4-0.6,0.6-1.4,0.4-2.1c0-0.1-0.1-0.2-0.1-0.3l0-0.1
		c0-0.1,0-0.1,0-0.2c0-0.1,0-0.2,0-0.3c0.1-0.3,0.1-0.5,0.2-0.7c0.2-0.4,0.4-0.8,0.6-1.2c0.9-1.5,1.8-2.9,2.3-4.6
		C83.2,121.3,83.3,119.5,82.6,117.9z"/>
	<path class="st3" d="M79.3,136.3c-0.8,0.3-1.3,1-1.4,1.7c-0.1,0.7-0.1,1.4,0.1,2.1c0.2,0.7,0.6,1.4,1.3,1.7
		c0.7,0.4,1.5,0.3,2.2-0.1c0.6-0.4,1.1-0.9,1.3-1.6c0.2-0.6,0.2-1.3,0-2c-0.2-0.6-0.7-1.2-1.3-1.6C80.9,136.2,80,136,79.3,136.3z
		 M79.2,136.2c0.7-0.3,1.6-0.4,2.5-0.2c0.9,0.2,1.6,0.9,2,1.8c0.8,1.8-0.3,4-2.1,4.4c-0.8,0.3-1.7,0.2-2.5-0.1
		c-0.8-0.3-1.5-0.9-1.9-1.7c-0.4-0.8-0.4-1.9,0.1-2.6C77.7,137,78.5,136.5,79.2,136.2z"/>
	<path class="st5" d="M40.4,40.1l0.4,0.3c1,0.6,0.5,2.3-0.7,2.1l-0.5-0.1c-4-0.4-7.9,1.5-10,4.9l-0.3,0.4c-0.6,1-2.3,0.5-2.1-0.7
		l0.1-0.5c0.4-4-1.5-7.9-4.9-10l-0.4-0.3c-1-0.6-0.5-2.3,0.7-2.1l0.5,0.1c4,0.4,7.9-1.5,10-4.9l0.3-0.4c0.6-1,2.3-0.5,2.1,0.7
		l-0.1,0.5C35.1,34.1,37,38,40.4,40.1z"/>
	<path class="st6" d="M157.2,21.3l0.2,0.2c0.6,0.4,0.3,1.3-0.4,1.2l-0.3,0c-2.3-0.3-4.6,0.8-5.8,2.8l-0.2,0.2
		c-0.4,0.6-1.3,0.3-1.2-0.4l0-0.3c0.3-2.3-0.8-4.6-2.8-5.8l-0.2-0.2c-0.6-0.4-0.3-1.3,0.4-1.2l0.3,0c2.3,0.3,4.6-0.8,5.8-2.8
		l0.2-0.2c0.4-0.6,1.3-0.3,1.2,0.4l0,0.3C154.1,17.8,155.2,20.1,157.2,21.3z"/>
	<path class="st7" d="M11,121.2l0.2,0.2c0.6,0.4,0.3,1.3-0.4,1.2l-0.3,0c-2.3-0.3-4.6,0.8-5.8,2.8l-0.2,0.2
		c-0.4,0.6-1.3,0.3-1.2-0.4l0-0.3c0.3-2.3-0.8-4.6-2.8-5.8L0.3,119c-0.6-0.4-0.3-1.3,0.4-1.2l0.3,0c2.3,0.3,4.6-0.8,5.8-2.8l0.2-0.2
		c0.4-0.6,1.3-0.3,1.2,0.4l0,0.3C7.9,117.7,9,120,11,121.2z"/>
</g>
</svg>
