<svg id="Layer_1" data-name="Layer 1" xmlns="http://www.w3.org/2000/svg" xmlns:xlink="http://www.w3.org/1999/xlink" viewBox="0 0 234 145.95"><defs><style>.cls-1{fill:url(#linear-gradient);}.cls-2{fill:#fff;}.cls-3{fill:#a0c8ff;}.cls-4{fill:#ff9eb1;}</style><linearGradient id="linear-gradient" x1="171.15" y1="223.29" x2="80.41" y2="66.13" gradientUnits="userSpaceOnUse"><stop offset="0" stop-color="#1c6df1"/><stop offset="1" stop-color="#02aef4"/></linearGradient></defs><title>ShakeHand</title><path class="cls-1" d="M1.21,111.85c-.13,2.32-.21,4.65-.21,7a117,117,0,0,0,234,0c0-2.35-.08-4.68-.21-7Z" transform="translate(-1 -89.9)"/><path class="cls-2" d="M87.4,159.69l-9.63,7.7-.52.41a6.4,6.4,0,0,0,8,10h0l10.15-8.12h0a6.4,6.4,0,0,0-8-10Z" transform="translate(-1 -89.9)"/><path class="cls-2" d="M95.4,169.68,85.25,177.8h0a6.41,6.41,0,0,0,8,10l10.15-8.1,4.47-3.57a6.41,6.41,0,0,0-8-10l-4.45,3.56Z" transform="translate(-1 -89.9)"/><path class="cls-2" d="M103.41,179.69l-10.15,8.1a6.41,6.41,0,1,0,8,10l5.69-4.55,4.46-3.57a6.4,6.4,0,1,0-8-10Z" transform="translate(-1 -89.9)"/><path class="cls-2" d="M107,193.25l-5.69,4.55a6.4,6.4,0,1,0,8,10l5.68-4.54a6.41,6.41,0,0,0,1-9,6.42,6.42,0,0,0-9-1Z" transform="translate(-1 -89.9)"/><path class="cls-2" d="M85.57,128.68,68,159.72c4.29,1.22,8,4,9.75,7.67l9.63-7.7a6.4,6.4,0,0,1,8,10l4.45-3.56a6.41,6.41,0,0,1,8,10l-4.47,3.57a6.4,6.4,0,1,1,8,10L107,193.25a6.4,6.4,0,0,1,10.13,6.83l5.72,4.57a6.4,6.4,0,1,0,8-10l3.94,3.15a6.41,6.41,0,0,0,8-10,6.4,6.4,0,1,0,8-10,6.4,6.4,0,0,0,8-10l-.51-.41L150,160.77c-4.27-3.41-9.09-7.19-13.67-10.47-8.29-5.94-12.37-9.88-22.75-7.8-7.85,1.59-14.2-.81-15.85-7.6a4.91,4.91,0,0,1,0-2.7Z" transform="translate(-1 -89.9)"/><path class="cls-2" d="M119.47,126.79l-11.76,1c-5.65.5-9.15,1.81-10,4.36a4.91,4.91,0,0,0,0,2.7c1.65,6.79,8,9.19,15.85,7.6,10.38-2.08,14.46,1.86,22.74,7.8,4.58,3.28,9.41,7.06,13.68,10.47l8.29,6.62c1.71-3.7,5.45-6.45,9.74-7.67l-17.53-31-7.29,2.11c-5,1.45-4.34,1-9.14-.67l-7.09-2.48A14,14,0,0,0,119.47,126.79Z" transform="translate(-1 -89.9)"/><path class="cls-3" d="M148.93,126l1.52,2.68,17.53,31,1.89,3.34a4.07,4.07,0,0,0,5.51,1.53l7.26-4a3.79,3.79,0,0,0,1.07-.87,4.07,4.07,0,0,0,.47-4.64l-.47-.81L163.23,118a4.05,4.05,0,0,0-5.5-1.52l-7.27,4a4,4,0,0,0-1.53,5.5Z" transform="translate(-1 -89.9)"/><path class="cls-4" d="M72.76,118l-20.93,37a4,4,0,0,0,1.53,5.51l7.26,4a4.07,4.07,0,0,0,5.51-1.53L68,159.72l17.55-31,1.5-2.64a4,4,0,0,0-1.53-5.5l-7.27-4A4.07,4.07,0,0,0,72.76,118Z" transform="translate(-1 -89.9)"/><path d="M118,109.13a2.71,2.71,0,0,0,2.71-2.71V92.61a2.71,2.71,0,1,0-5.42,0v13.81A2.71,2.71,0,0,0,118,109.13Z" transform="translate(-1 -89.9)"/><path d="M97.62,113.59a2.7,2.7,0,0,0,2.29,1.26,2.6,2.6,0,0,0,1.44-.42,2.7,2.7,0,0,0,.85-3.73L95,99.23a2.71,2.71,0,0,0-4.59,2.9Z" transform="translate(-1 -89.9)"/><path d="M134.65,114.44a2.73,2.73,0,0,0,3.74-.85l7.22-11.47A2.71,2.71,0,0,0,141,99.24L133.8,110.7A2.72,2.72,0,0,0,134.65,114.44Z" transform="translate(-1 -89.9)"/><path d="M186.53,153.73l-4.71-8.32a2.71,2.71,0,1,0-4.72,2.67l4.71,8.32a1.33,1.33,0,0,1-.49,1.8l-7.26,4a1.39,1.39,0,0,1-1.84-.49l-1.84-3.26s0,0,0-.05L151.29,124.7a1.3,1.3,0,0,1-.12-1,1.24,1.24,0,0,1,.6-.77l7.27-4a1.35,1.35,0,0,1,1.83.49l4.25,7.51a2.71,2.71,0,0,0,4.72-2.67l-4.25-7.51a6.77,6.77,0,0,0-9.17-2.56l-7.27,4a6.73,6.73,0,0,0-2.74,8.9l-4,1.16a16,16,0,0,1-3.32.76h0a6.64,6.64,0,0,1-2.05-.62c-.56-.21-1.26-.47-2.11-.77l-7.1-2.48a16.16,16.16,0,0,0-8.25-1.06l-12.1,1.08c-5.51.49-9,1.73-11,3.89l-6.89-2a6.73,6.73,0,0,0-2.76-8.86l-7.26-4a6.8,6.8,0,0,0-9.18,2.57l-20.94,37a6.76,6.76,0,0,0-.62,5.17,6.66,6.66,0,0,0,3.2,4.05l7.26,4a6.79,6.79,0,0,0,9.18-2.56l.77-1.36a12.65,12.65,0,0,1,5,3.85,9.14,9.14,0,0,0-.18,11.6,9.07,9.07,0,0,0,6.07,3.35,9,9,0,0,0,1.94,6.65,9.12,9.12,0,0,0,6.06,3.35,9.08,9.08,0,0,0,8,10A9.12,9.12,0,0,0,111,209.91l5.68-4.55a9.16,9.16,0,0,0,1.23-1.18l3.24,2.59a9.14,9.14,0,0,0,12.82-1.43,9.26,9.26,0,0,0,1.82-3.94,8.93,8.93,0,0,0,3,.5,9.09,9.09,0,0,0,9.09-10.06,9.07,9.07,0,0,0,8-10,9.11,9.11,0,0,0,5.89-15,12.58,12.58,0,0,1,5.05-3.85l.77,1.36a6.79,6.79,0,0,0,9.18,2.56l7.26-4a6.74,6.74,0,0,0,2.58-9.21Zm-122.76,8a1.37,1.37,0,0,1-1.83.49l-7.27-4a1.33,1.33,0,0,1-.48-1.8l20.94-37a1.32,1.32,0,0,1,1.16-.67,1.35,1.35,0,0,1,.67.18l7.26,4h0a1.32,1.32,0,0,1,.6.77,1.3,1.3,0,0,1-.12,1Zm19.79,14a3.68,3.68,0,0,1-6-3.29A3.62,3.62,0,0,1,79,169.92L89.1,161.8a3.68,3.68,0,0,1,6,3.3,3.65,3.65,0,0,1-1.35,2.46l0,0-10.11,8.08Zm2.81,9.42a3.71,3.71,0,0,1,.58-5.19h0l14.62-11.68a3.7,3.7,0,0,1,4.62,5.77L91.57,185.67a3.7,3.7,0,0,1-5.2-.57Zm10.48,11.35a3.69,3.69,0,0,1-1.9-6.54h0l10.12-8.08,0,0a3.69,3.69,0,0,1,6,3.29,3.64,3.64,0,0,1-1.36,2.47l-10.15,8.11a3.64,3.64,0,0,1-2.72.78Zm17.76,2.2a3.64,3.64,0,0,1-1.36,2.48l-5.67,4.54a3.7,3.7,0,0,1-5.2-.58,3.6,3.6,0,0,1-.78-2.7,3.67,3.67,0,0,1,1.35-2.48h0l5.68-4.53h0a3.71,3.71,0,0,1,5.2.58A3.63,3.63,0,0,1,114.61,198.65Zm43-23.55a3.7,3.7,0,0,1-5.19.58h0l-7.26-5.8a2.71,2.71,0,0,0-3.38,4.24l7.25,5.79a3.69,3.69,0,1,1-4.62,5.76l-7.86-6.28a2.71,2.71,0,0,0-3.39,4.24l7.87,6.28a3.7,3.7,0,0,1-4.62,5.77l-3.92-3.13,0,0-3.3-2.65-.62-.49a2.7,2.7,0,0,0-3.81.42,2.59,2.59,0,0,0-.3.46,2.71,2.71,0,0,0,.72,3.35l3.94,3.15a3.7,3.7,0,0,1-4.63,5.76L120,199a9.09,9.09,0,0,0-5.21-9,9.13,9.13,0,0,0-.29-11,9,9,0,0,0-3.25-2.56,8.93,8.93,0,0,0,1.65-4.31,9,9,0,0,0-1.93-6.7,9.14,9.14,0,0,0-10.69-2.69A9,9,0,0,0,98.53,159a9.13,9.13,0,0,0-12.82-1.43l-7.26,5.8a17.89,17.89,0,0,0-6.51-5.07l14.93-26.41,8,2.3a7.73,7.73,0,0,0,.22,1.35c1.92,7.91,9.21,11.6,19,9.62,8.26-1.66,11.66.82,18.44,5.75l2.19,1.59c4.87,3.49,10.08,7.6,13.57,10.38l8.8,7a3.68,3.68,0,0,1,.57,5.18Zm-.08-11.73-5.91-4.72c-3.53-2.82-8.81-7-13.79-10.56l-2.16-1.56c-7-5.12-12.1-8.81-22.7-6.68-3.24.65-11,1.41-12.68-5.59-.24-1,0-1.33.11-1.48.36-.5,1.82-1.73,7.53-2.24l12.11-1.08a11.1,11.1,0,0,1,6,.78l7.1,2.48c.79.27,1.42.51,2,.72,3.42,1.3,4.33,1.3,8.81,0l5.23-1.52,14.92,26.38A17.79,17.79,0,0,0,157.55,163.37Z" transform="translate(-1 -89.9)"/><path d="M173.46,138.86a2.71,2.71,0,1,0-2.71-2.71h0A2.71,2.71,0,0,0,173.46,138.86Z" transform="translate(-1 -89.9)"/></svg>