<?xml version="1.0" encoding="utf-8"?>
<!-- Generator: Adobe Illustrator 22.0.0, SVG Export Plug-In . SVG Version: 6.00 Build 0)  -->
<svg version="1.1" id="Layer_1" xmlns="http://www.w3.org/2000/svg" xmlns:xlink="http://www.w3.org/1999/xlink" x="0px" y="0px"
	 viewBox="0 0 264.9 255.3" style="enable-background:new 0 0 264.9 255.3;" xml:space="preserve">
<style type="text/css">
	.st0{opacity:0.18;}
	.st1{fill:#267BF8;}
	.st2{opacity:0.8;fill:#267BF8;}
	.st3{fill:#A1E2EC;}
	.st4{fill:#1A2E35;}
	.st5{fill:#FFFFFF;}
	.st6{clip-path:url(#SVGID_2_);fill:#A1E2EC;}
	.st7{clip-path:url(#SVGID_2_);fill:#1A2E35;}
	.st8{clip-path:url(#SVGID_2_);}
	.st9{fill:#4F5BFF;}
	.st10{fill:#EBEBEB;}
	.st11{fill:#282828;}
	.st12{fill:#CBECF4;}
	.st13{fill:#FE5356;}
	.st14{fill:#375A64;}
</style>
<g>
	<g class="st0">
		<path class="st1" d="M236.5,220.2c0,0-28.6,34.7-76.3,35.1c-47.6,0.4-89.6-30.2-124.2-54.1C1.4,177.3-9.3,138.3,9,106.8
			c18.2-31.5,49.8-19.9,88.5-41.5c38.7-21.6,45.8-33.2,90-30.2c44.3,3,79.9,51.1,77.1,104.1C261.9,192.2,236.5,220.2,236.5,220.2z"
			/>
		<path class="st2" d="M236.5,220.2c0,0-28.6,34.7-76.3,35.1c-47.6,0.4-89.6-30.2-124.2-54.1C1.4,177.3-9.3,138.3,9,106.8
			c18.2-31.5,49.8-19.9,88.5-41.5c38.7-21.6,45.8-33.2,90-30.2c44.3,3,79.9,51.1,77.1,104.1C261.9,192.2,236.5,220.2,236.5,220.2z"
			/>
	</g>
	<g>
		<path class="st3" d="M144.6,204.8l-125.4-0.6c-6,0-10.8-4.9-10.8-10.9L8.8,48.8c0-2,1.6-3.6,3.6-3.6l139.9,0.7
			c2,0,3.6,1.6,3.6,3.6L155.5,194C155.4,200,150.5,204.8,144.6,204.8z"/>
		<path class="st4" d="M137,193.3l-77.8-0.1l-38.9-0.1l-9.7,0c-1.6,0-3.4-0.2-4.9-0.9c-1.5-0.7-2.9-1.8-3.8-3.2
			c-1-1.4-1.6-3-1.7-4.7c-0.1-1.7,0-3.3,0-4.9l0-9.7l0.4-77.8c0-13,0.2-25.9,0.2-38.9l0-19.5l0-4.9c0.1-1.7,0.5-3.3,1.4-4.7
			c1.7-2.9,5-4.7,8.3-4.7l77.8,0.2l38.9,0.2l9.7,0c1.6,0,3.4,0.2,4.9,1c1.5,0.7,2.9,1.9,3.9,3.3c1,1.4,1.6,3.1,1.7,4.8
			c0.1,0.9,0,1.7,0,2.5l0,2.4l0,9.7l-0.5,77.8l-0.2,38.9l-0.1,19.5l0,4.9c-0.1,1.6-0.5,3.3-1.4,4.7
			C143.5,191.6,140.3,193.4,137,193.3z M137,193.2c3.2,0,6.4-1.7,8-4.5c0.9-1.4,1.3-3,1.3-4.6l0-4.9l0-19.5l0-38.9l0-77.8l0-9.7
			l0-2.4c0-0.8,0-1.6,0-2.4c-0.2-1.5-0.7-3-1.6-4.3c-0.9-1.3-2.1-2.3-3.5-2.9c-1.4-0.7-2.9-0.9-4.5-0.9l-9.7,0l-38.9-0.2l-77.8-0.5
			c-3.2,0-6.3,1.7-7.9,4.4c-0.8,1.3-1.3,2.9-1.3,4.5l0,4.9L1,52.8c-0.1,13,0,25.9,0,38.9l0,77.8l0,9.7l0,2.4c0,0.8,0,1.6,0,2.4
			c0.2,1.5,0.7,3,1.6,4.3c1.8,2.6,4.9,4.1,8,3.9l9.7,0.1l38.9,0.3L137,193.2z"/>
		<path class="st4" d="M122,38.7c-10.1,0.2-20.2,0.2-30.3,0.2l-30.3,0l-30.3-0.3L16,38.4L0.8,38L16,37.9l15.1-0.1l30.3,0l30.3,0.3
			C101.8,38.3,111.9,38.4,122,38.7z"/>
		<g>
			<circle class="st5" cx="11.9" cy="28.6" r="3.5"/>
			<path d="M15.4,28.7c0,0.9-0.2,1.9-0.9,2.7c-0.6,0.8-1.7,1.3-2.7,1.2c-1-0.1-1.9-0.6-2.6-1.3c-0.6-0.7-1.1-1.6-1.2-2.6
				c-0.1-1,0.3-2,1-2.8c0.7-0.8,1.7-1.2,2.8-1.2c1,0,2.1,0.5,2.7,1.3C15.2,26.8,15.4,27.7,15.4,28.7z M15.3,28.7
				c0-0.9-0.5-1.7-1.2-2.2c-0.7-0.5-1.4-0.7-2.2-0.7c-0.8,0-1.5,0.3-2.1,0.8c-0.6,0.5-1,1.3-1.1,2.1c-0.1,0.8,0.2,1.8,0.8,2.3
				c0.6,0.6,1.5,0.8,2.3,0.7c0.8-0.1,1.5-0.3,2.2-0.8C14.8,30.4,15.3,29.6,15.3,28.7z"/>
		</g>
		<g>
			<circle class="st5" cx="24.2" cy="28.7" r="3.5"/>
			<path d="M27.7,28.7c0,0.9-0.2,1.9-0.9,2.7c-0.6,0.8-1.7,1.3-2.7,1.2c-1-0.1-1.9-0.6-2.6-1.3c-0.6-0.7-1.1-1.6-1.2-2.6
				c-0.1-1,0.3-2,1-2.8c0.7-0.8,1.7-1.2,2.8-1.2c1,0,2.1,0.5,2.7,1.3C27.5,26.9,27.7,27.8,27.7,28.7z M27.6,28.7
				c0-0.9-0.5-1.7-1.2-2.2c-0.7-0.5-1.4-0.7-2.2-0.7c-0.8,0-1.5,0.3-2.1,0.8c-0.6,0.5-1,1.3-1.1,2.1c-0.1,0.8,0.2,1.8,0.8,2.3
				c0.6,0.6,1.5,0.8,2.3,0.7c0.8-0.1,1.5-0.3,2.2-0.8C27.1,30.5,27.6,29.6,27.6,28.7z"/>
		</g>
		<g>
			<circle class="st5" cx="36.5" cy="28.8" r="3.5"/>
			<path d="M40.1,28.8c0,0.9-0.2,1.9-0.9,2.7c-0.6,0.8-1.7,1.3-2.7,1.2c-1-0.1-1.9-0.6-2.6-1.3c-0.6-0.7-1.1-1.6-1.2-2.6
				c-0.1-1,0.3-2,1-2.8c0.7-0.8,1.7-1.2,2.8-1.2c1,0,2.1,0.5,2.7,1.3C39.8,26.9,40.1,27.9,40.1,28.8z M40,28.8
				c0-0.9-0.5-1.7-1.2-2.2c-0.7-0.5-1.4-0.7-2.2-0.7c-0.8,0-1.5,0.3-2.1,0.8c-0.6,0.5-1,1.3-1.1,2.1c-0.1,0.8,0.2,1.8,0.8,2.3
				c0.6,0.6,1.5,0.8,2.3,0.7c0.8-0.1,1.5-0.3,2.2-0.8C39.4,30.6,40,29.7,40,28.8z"/>
		</g>
		<path class="st5" d="M119.5,177.6H77.1c-3.9,0-7.1-3.2-7.1-7.1v-8.8c0-3.9,3.2-7.1,7.1-7.1h42.4c3.9,0,7.1,3.2,7.1,7.1v8.8
			C126.6,174.5,123.4,177.6,119.5,177.6z"/>
		<path class="st4" d="M116.4,173.8l-9.2,0.1l-9.2,0.2c-6.1,0.1-12.2,0.1-18.3,0.1l-4.6-0.1c-0.8,0-1.5,0-2.3-0.1
			c-0.8-0.1-1.5-0.4-2.2-0.8c-1.4-0.8-2.5-2-3.2-3.4c-0.3-0.7-0.5-1.5-0.6-2.3c-0.1-0.8,0-1.5,0-2.3l0-4.6l0-2.3
			c0-0.8,0-1.6,0.3-2.3c0.8-3.1,3.8-5.4,7-5.4c12.2-0.2,24.4-0.3,36.7-0.2l4.6,0l1.1,0c0.4,0,0.8,0,1.2,0.1c0.8,0.1,1.6,0.4,2.3,0.8
			c1.4,0.8,2.6,2,3.3,3.5c0.3,0.7,0.6,1.5,0.6,2.3c0.1,0.8,0,1.6,0,2.3l-0.1,4.6l0,2.3c0,0.8-0.1,1.6-0.3,2.3
			C122.5,171.6,119.5,173.9,116.4,173.8z M116.4,173.7c3.1,0,6-2.2,6.7-5.1c0.2-0.7,0.2-1.5,0.2-2.2l0-2.3l-0.1-4.6
			c0-0.8,0-1.5-0.1-2.2c-0.1-0.7-0.3-1.4-0.6-2.1c-0.6-1.3-1.7-2.4-2.9-3c-0.6-0.3-1.3-0.5-2-0.6c-0.3-0.1-0.7-0.1-1.1-0.1l-1.1,0
			l-4.6,0c-12.2,0-24.4-0.1-36.7-0.2c-2.9-0.1-5.9,2-6.6,4.9c-0.2,0.7-0.3,1.5-0.3,2.2l0,2.3l0,4.6c0,0.8,0,1.5,0.1,2.3
			c0.1,0.7,0.3,1.5,0.6,2.1c0.6,1.3,1.7,2.4,3,3.1c0.7,0.3,1.4,0.5,2.1,0.7c0.7,0.1,1.5,0.1,2.2,0.1l4.6-0.1c6.1,0,12.2,0,18.3,0.1
			l9.2,0.2L116.4,173.7z"/>
		<path class="st5" d="M119.5,96.2H34.3c-3.9,0-7.1-3.2-7.1-7.1v-8.8c0-3.9,3.2-7.1,7.1-7.1h85.2c3.9,0,7.1,3.2,7.1,7.1v8.8
			C126.6,93.1,123.4,96.2,119.5,96.2z"/>
		<path class="st4" d="M114.8,91.6c-19.1,0-38.2,0.4-57.3,0.4l-14.3,0l-7.2,0l-3.6,0c-1.2,0-2.5,0-3.6-0.4c-2.4-0.8-4.2-2.9-4.7-5.3
			C23.9,85,24,83.7,24,82.6l0-3.6c0-1.2,0-2.4,0-3.6c0-1.2,0.4-2.4,1.1-3.5c0.6-1.1,1.5-1.9,2.6-2.5c1.1-0.6,2.3-0.9,3.5-1
			c19.1-0.2,38.2-0.3,57.3-0.2c4.8,0,9.5,0,14.3,0.1l7.2,0.1l3.6,0.1c1.2,0,2.5,0,3.6,0.4c2.4,0.8,4.2,2.9,4.7,5.3
			c0.3,1.2,0.1,2.4,0.2,3.6l0,3.6c0,1.2,0,2.4,0,3.6c-0.1,1.2-0.4,2.4-1.1,3.4c-0.6,1-1.6,1.9-2.6,2.5
			C117.2,91.3,116,91.6,114.8,91.6z M114.8,91.5c1.2,0,2.4-0.3,3.4-0.9c1-0.6,1.9-1.4,2.5-2.4c0.6-1,1-2.2,1-3.3c0-1.2,0-2.4,0-3.6
			l0-3.6c0-1.2,0.1-2.4-0.2-3.5c-0.5-2.3-2.3-4.2-4.5-4.9c-1.1-0.4-2.2-0.3-3.5-0.3l-3.6,0.1l-7.2,0.1c-4.8,0.1-9.5,0.1-14.3,0.1
			c-19.1,0.1-38.2-0.1-57.3-0.2c-2.3,0-4.6,1.2-5.8,3.2c-0.6,1-1,2.1-1,3.3c0,1.2,0,2.4,0,3.6l0,3.6c0,1.2-0.1,2.4,0.2,3.5
			c0.5,2.3,2.3,4.2,4.5,4.8c1.1,0.4,2.2,0.3,3.4,0.3l3.6,0l7.2,0l14.3,0C76.6,91.1,95.7,91.5,114.8,91.5z"/>
		<path class="st5" d="M119.5,133.6H34.3c-3.9,0-7.1-3.2-7.1-7.1v-8.8c0-3.9,3.2-7.1,7.1-7.1h85.2c3.9,0,7.1,3.2,7.1,7.1v8.8
			C126.6,130.5,123.4,133.6,119.5,133.6z"/>
		<path class="st4" d="M114.8,129c-19.1,0-38.2,0.4-57.3,0.4l-14.3,0l-7.2,0l-3.6,0c-1.2,0-2.5,0-3.6-0.4c-2.4-0.8-4.2-2.9-4.7-5.3
			c-0.3-1.2-0.1-2.4-0.2-3.6l0-3.6c0-1.2,0-2.4,0-3.6c0-1.2,0.4-2.4,1.1-3.5c0.6-1.1,1.5-1.9,2.6-2.5c1.1-0.6,2.3-0.9,3.5-1
			c19.1-0.2,38.2-0.3,57.3-0.2c4.8,0,9.5,0,14.3,0.1l7.2,0.1l3.6,0.1c1.2,0,2.5,0,3.6,0.4c2.4,0.8,4.2,2.9,4.7,5.3
			c0.3,1.2,0.1,2.4,0.2,3.6l0,3.6c0,1.2,0,2.4,0,3.6c-0.1,1.2-0.4,2.4-1.1,3.4c-0.6,1-1.6,1.9-2.6,2.5
			C117.2,128.7,116,129,114.8,129z M114.8,128.9c1.2,0,2.4-0.3,3.4-0.9c1-0.6,1.9-1.4,2.5-2.4c0.6-1,1-2.2,1-3.3c0-1.2,0-2.4,0-3.6
			l0-3.6c0-1.2,0.1-2.4-0.2-3.5c-0.5-2.3-2.3-4.2-4.5-4.9c-1.1-0.4-2.2-0.3-3.5-0.3l-3.6,0.1l-7.2,0.1c-4.8,0.1-9.5,0.1-14.3,0.1
			c-19.1,0.1-38.2-0.1-57.3-0.2c-2.3,0-4.6,1.2-5.8,3.2c-0.6,1-1,2.1-1,3.3c0,1.2,0,2.4,0,3.6l0,3.6c0,1.2-0.1,2.4,0.2,3.5
			c0.5,2.3,2.3,4.2,4.5,4.8c1.1,0.4,2.2,0.3,3.4,0.3l3.6,0l7.2,0l14.3,0C76.6,128.5,95.7,128.9,114.8,128.9z"/>
		<path class="st4" d="M88.2,160.7c2,1.4,3.9,2.9,5.8,4.4l-0.6,0c1.5-1.5,3.1-3,4.7-4.5c1.6-1.4,3.3-2.8,5-4.1
			c-1.4,1.7-2.9,3.3-4.4,4.8c-1.5,1.5-3.1,3-4.7,4.5l0,0c-0.2,0.2-0.4,0.2-0.6,0C91.6,164.2,89.9,162.5,88.2,160.7z"/>
	</g>
	<g>
		<defs>
			<path id="SVGID_1_" d="M236.5,220.2c0,0-28.6,34.7-76.3,35.1c-47.6,0.4-89.6-30.2-124.2-54.1C1.4,177.3-9.3,138.3,9,106.8
				c18.2-31.5,49.8-19.9,88.5-41.5C136.2,43.7,160.8-2.9,205,0.1c44.3,3,62.4,86,59.6,139C261.9,192.2,236.5,220.2,236.5,220.2z"/>
		</defs>
		<clipPath id="SVGID_2_">
			<use xlink:href="#SVGID_1_"  style="overflow:visible;"/>
		</clipPath>
		<path class="st6" d="M249.9,156.2H200V88c0-9.2,7.5-16.7,16.7-16.7h16.5c9.2,0,16.7,7.5,16.7,16.7V156.2z"/>
		<path class="st7" d="M240.9,153.7l-24.9,0.2c-8.3,0.1-16.7,0.1-25,0.1c-0.2,0-0.3-0.1-0.3-0.3v0l-0.1-51.4l0-12.8
			c0-2.1-0.1-4.3,0.2-6.5c0.3-2.2,1-4.3,2.1-6.2c2.2-3.8,5.9-6.7,10.2-7.9c1.1-0.3,2.1-0.5,3.2-0.6c1.1-0.1,2.2-0.1,3.2-0.1l6.4,0
			l6.4,0c1.1,0,2.1,0,3.2,0.1c1.1,0.1,2.2,0.3,3.2,0.6c4.2,1.2,7.9,4.1,10.1,7.9c1.1,1.9,1.8,4,2.1,6.2c0.3,2.2,0.1,4.3,0.2,6.5
			l0,12.9L240.9,153.7z M240.9,153.7l-0.3-51.4l0-12.8c0-2.1,0.1-4.3-0.2-6.3c-0.3-2.1-1-4.1-2.1-5.9c-2.1-3.6-5.6-6.4-9.7-7.5
			c-1-0.3-2-0.5-3.1-0.6c-1-0.1-2.1-0.1-3.2-0.1l-6.4,0l-6.4,0c-1.1,0-2.1,0-3.2,0.1c-1,0.1-2.1,0.3-3.1,0.6c-4,1.1-7.5,3.9-9.6,7.5
			c-1,1.8-1.7,3.8-2,5.8c-0.3,2-0.2,4.2-0.2,6.3l0,12.8l-0.1,51.4l-0.3-0.3c8.3,0,16.5,0,24.9,0.1L240.9,153.7z"/>
		<path class="st7" d="M245.9,153.3l-24.8,0.3l-25.1,0.1c-0.2,0-0.4-0.2-0.4-0.4v0c0-17.1,0.3-34.2,0.3-51.4L195.8,89
			c0-2.1-0.1-4.3,0.2-6.4c0.3-2.1,1-4.2,2.1-6.1c2.2-3.8,5.8-6.7,10-7.9c1-0.3,2.1-0.5,3.2-0.6c1.1-0.1,2.2-0.1,3.2-0.1l6.4,0l6.4,0
			c1.1,0,2.1,0,3.2,0.1c1.1,0.1,2.2,0.3,3.2,0.6c4.3,1.2,8,4.1,10.2,7.9c1.1,1.9,1.8,4,2.1,6.2c0.3,2.2,0.2,4.4,0.2,6.5l0,12.9
			L245.9,153.3z M245.8,153.2l-0.5-51.4l0-12.8c0-2.1,0.1-4.3-0.2-6.3c-0.3-2.1-1-4-2-5.8c-2.1-3.6-5.6-6.3-9.6-7.5
			c-1-0.3-2-0.5-3.1-0.6c-1-0.1-2.1-0.1-3.2-0.1l-6.4,0l-6.4,0c-1.1,0-2.1,0-3.2,0c-1,0.1-2.1,0.3-3.1,0.5c-4,1.1-7.6,3.8-9.7,7.5
			c-1.1,1.8-1.8,3.8-2.1,5.9c-0.3,2.1-0.2,4.2-0.2,6.4l-0.1,12.8c0,17.1,0.3,34.2,0.3,51.4l-0.4-0.4l24.8,0.1L245.8,153.2z"/>
		<g class="st8">
			<path class="st4" d="M214.8,42.4c-0.2,0.8,0.1,1.8,0.6,2.4c0.6,0.5,1.4,0.6,2.1,0.2c1.3-0.8,1.4-2.8,1.1-4.4
				c-0.3-1.6-0.8-3.4-0.2-4.9c0.4-1.2,1.4-1.9,2.1-2.8c1.3-1.6,2-3.9,1.6-6.1c-0.4-2.2-1.8-4.1-3.6-4.6c-1.9-0.6-4.1,0.2-5.6-1.4
				c-1-1.1-1.1-3-1.9-4.3c-1.2-2.1-3.8-2.4-5.9-2c-2.1,0.4-4.3,1.2-6.4,0.7c-1.8-0.5-3.2-1.9-4.9-2.7c-3.6-1.8-8.2-0.7-10.8,2.7
				c-2.6,3.4-3.2,8.8-1.3,12.8c0.7,1.4,1.7,2.8,3,3.3"/>
			<g>
				<g>
					<g>
						<g>
							<path class="st9" d="M163.5,367.4l-1.6,20.8c0,0-20.6,6.6-20.7,10.5l40.3,0.5l1.2-31.9L163.5,367.4z"/>
						</g>
					</g>
				</g>
				<g>
					<g>
						<g>
							<g>
								<path class="st10" d="M174.3,386.1c0.8,0.2,1.4,1.1,1.2,1.8c-0.2,0.8-1,1.4-1.8,1.2c-0.8-0.2-1.5-1.2-1.3-2
									c0.2-0.8,1.3-1.4,2-1"/>
							</g>
						</g>
					</g>
				</g>
				<g>
					<g>
						<g>
							<path class="st10" d="M181.4,399.2l-0.1-3.2l-38.1,0.2c0,0-2.2,1.3-2.1,2.6L181.4,399.2z"/>
						</g>
					</g>
				</g>
				<g>
					<g>
						<g>
							<g>
								<path class="st4" d="M161.2,388c0,0.2,1,0.3,2,0.9c1,0.6,1.5,1.4,1.7,1.3c0.2,0-0.1-1.2-1.4-1.9
									C162.3,387.6,161.1,387.8,161.2,388z"/>
							</g>
						</g>
					</g>
				</g>
				<g>
					<g>
						<g>
							<g>
								<path class="st4" d="M157,389.9c0,0.2,0.8,0.5,1.5,1.3c0.7,0.8,0.9,1.7,1.1,1.7c0.2,0,0.3-1.1-0.6-2.1
									C158.2,389.8,157,389.7,157,389.9z"/>
							</g>
						</g>
					</g>
				</g>
				<g>
					<g>
						<g>
							<g>
								<path class="st4" d="M154.8,395c0.2,0,0.4-1-0.1-2c-0.5-1.1-1.5-1.5-1.5-1.3c-0.1,0.2,0.5,0.7,0.9,1.6
									C154.5,394.2,154.6,395,154.8,395z"/>
							</g>
						</g>
					</g>
				</g>
				<g>
					<g>
						<g>
							<g>
								<path class="st4" d="M161.4,383.3c0.1,0.2,1-0.1,2.1-0.1c1.1,0,2,0.4,2.1,0.2c0.1-0.1-0.8-0.8-2.1-0.9
									C162.2,382.5,161.3,383.1,161.4,383.3z"/>
							</g>
						</g>
					</g>
				</g>
			</g>
			<g>
				<g>
					<g>
						<g>
							<path class="st4" d="M161.2,379.1c0,0.1,0.8,0.2,2-0.1c0.6-0.1,1.3-0.3,2.1-0.7c0.4-0.2,0.8-0.4,1.1-0.7
								c0.2-0.1,0.4-0.3,0.6-0.5c0.2-0.2,0.3-0.7,0.1-1c-0.2-0.3-0.6-0.4-0.9-0.4c-0.3,0-0.5,0.1-0.8,0.1c-0.4,0.1-0.9,0.3-1.2,0.5
								c-0.8,0.4-1.4,0.8-1.8,1.3c-0.9,0.9-1.2,1.6-1.1,1.7c0.1,0.1,0.5-0.6,1.5-1.3c0.5-0.4,1.1-0.8,1.8-1.1
								c0.4-0.2,0.7-0.3,1.1-0.4c0.4-0.1,0.8-0.1,0.9,0c0,0.1,0,0.1,0,0.2c-0.1,0.1-0.3,0.2-0.4,0.4c-0.3,0.2-0.7,0.5-1,0.6
								c-0.7,0.4-1.4,0.6-1.9,0.8C162,378.9,161.2,379,161.2,379.1z"/>
						</g>
					</g>
				</g>
			</g>
			<g>
				<g>
					<g>
						<g>
							<path class="st4" d="M161.5,379.3c0.1,0,0.4-0.7,0.5-2c0-0.6-0.1-1.4-0.3-2.2c-0.1-0.4-0.3-0.8-0.6-1.2
								c-0.2-0.4-0.6-0.9-1.3-1c-0.4,0-0.7,0.3-0.8,0.6c-0.1,0.3-0.1,0.5-0.2,0.7c-0.1,0.5,0,0.9,0,1.4c0.2,0.9,0.5,1.6,0.9,2.1
								c0.8,1,1.6,1.2,1.7,1.2c0.1-0.1-0.6-0.5-1.3-1.4c-0.3-0.5-0.6-1.1-0.7-1.9c-0.1-0.4-0.1-0.8,0-1.2c0.1-0.4,0.2-0.8,0.4-0.7
								c0.2,0,0.6,0.3,0.7,0.6c0.2,0.4,0.4,0.7,0.5,1.1c0.3,0.7,0.4,1.4,0.5,2C161.5,378.6,161.4,379.3,161.5,379.3z"/>
						</g>
					</g>
				</g>
			</g>
			<g>
				<g>
					<g>
						<g>
							<path class="st9" d="M254,367.4l1.6,20.8c0,0,20.6,6.6,20.7,10.5l-40.3,0.5l-1.2-31.9L254,367.4z"/>
						</g>
					</g>
				</g>
				<g>
					<g>
						<g>
							<g>
								<path class="st10" d="M243.3,386.1c-0.8,0.2-1.4,1.1-1.2,1.8c0.2,0.8,1,1.4,1.8,1.2c0.8-0.2,1.5-1.2,1.3-2
									c-0.2-0.8-1.3-1.4-2-1"/>
							</g>
						</g>
					</g>
				</g>
				<g>
					<g>
						<g>
							<path class="st10" d="M236.1,399.2l0.1-3.2l38.1,0.2c0,0,2.2,1.3,2.1,2.6L236.1,399.2z"/>
						</g>
					</g>
				</g>
				<g>
					<g>
						<g>
							<g>
								<path class="st4" d="M256.3,388c0,0.2-1,0.3-2,0.9c-1,0.6-1.5,1.4-1.7,1.3c-0.2,0,0.1-1.2,1.4-1.9
									C255.2,387.6,256.4,387.8,256.3,388z"/>
							</g>
						</g>
					</g>
				</g>
				<g>
					<g>
						<g>
							<g>
								<path class="st4" d="M260.5,389.9c0,0.2-0.8,0.5-1.5,1.3c-0.7,0.8-0.9,1.7-1.1,1.7c-0.2,0-0.3-1.1,0.6-2.1
									C259.4,389.8,260.5,389.7,260.5,389.9z"/>
							</g>
						</g>
					</g>
				</g>
				<g>
					<g>
						<g>
							<g>
								<path class="st4" d="M262.8,395c-0.2,0-0.4-1,0.1-2c0.5-1.1,1.5-1.5,1.5-1.3c0.1,0.2-0.5,0.7-0.9,1.6
									C263,394.2,263,395,262.8,395z"/>
							</g>
						</g>
					</g>
				</g>
				<g>
					<g>
						<g>
							<g>
								<path class="st4" d="M256.1,383.3c-0.1,0.2-1-0.1-2.1-0.1c-1.1,0-2,0.4-2.1,0.2c-0.1-0.1,0.8-0.8,2.1-0.9
									C255.3,382.5,256.2,383.1,256.1,383.3z"/>
							</g>
						</g>
					</g>
				</g>
			</g>
			<g>
				<g>
					<g>
						<g>
							<path class="st4" d="M256.3,379.1c0,0.1-0.8,0.2-2-0.1c-0.6-0.1-1.3-0.3-2.1-0.7c-0.4-0.2-0.8-0.4-1.1-0.7
								c-0.2-0.1-0.4-0.3-0.6-0.5c-0.2-0.2-0.3-0.7-0.1-1c0.2-0.3,0.6-0.4,0.9-0.4c0.3,0,0.5,0.1,0.8,0.1c0.4,0.1,0.9,0.3,1.2,0.5
								c0.8,0.4,1.4,0.8,1.8,1.3c0.9,0.9,1.2,1.6,1.1,1.7c-0.1,0.1-0.5-0.6-1.5-1.3c-0.5-0.4-1.1-0.8-1.8-1.1
								c-0.4-0.2-0.7-0.3-1.1-0.4c-0.4-0.1-0.8-0.1-0.9,0c0,0.1,0,0.1,0,0.2c0.1,0.1,0.3,0.2,0.4,0.4c0.3,0.2,0.7,0.5,1,0.6
								c0.7,0.4,1.4,0.6,1.9,0.8C255.6,378.9,256.3,379,256.3,379.1z"/>
						</g>
					</g>
				</g>
			</g>
			<g>
				<g>
					<g>
						<g>
							<path class="st4" d="M256.1,379.3c-0.1,0-0.4-0.7-0.5-2c0-0.6,0.1-1.4,0.3-2.2c0.1-0.4,0.3-0.8,0.6-1.2
								c0.2-0.4,0.6-0.9,1.3-1c0.4,0,0.7,0.3,0.8,0.6c0.1,0.3,0.1,0.5,0.2,0.7c0.1,0.5,0,0.9,0,1.4c-0.2,0.9-0.5,1.6-0.9,2.1
								c-0.8,1-1.6,1.2-1.7,1.2c-0.1-0.1,0.6-0.5,1.3-1.4c0.3-0.5,0.6-1.1,0.7-1.9c0.1-0.4,0.1-0.8,0-1.2c-0.1-0.4-0.2-0.8-0.4-0.7
								c-0.2,0-0.6,0.3-0.7,0.6c-0.2,0.4-0.4,0.7-0.5,1.1c-0.3,0.7-0.4,1.4-0.5,2C256,378.6,256.2,379.3,256.1,379.3z"/>
						</g>
					</g>
				</g>
			</g>
			<g>
				<path class="st5" d="M163.2,175.9c-0.3,0-3.3,204.1-3.3,204.1l24.7-0.9l8.5-100.4l2.1-73.7l16.8,68.1l20.9,106.9l24.6-6.2
					l-31.3-199.5l-29.5-5.7L163.2,175.9z"/>
				<path class="st11" d="M163.2,176l-0.8,51l-0.7,51l-0.7,51c-0.2,17-0.5,34-0.8,51l-0.4-0.4l24.7-0.8l-0.3,0.3l7.5-86.9l0.9-10.9
					l0.2-2.7l0.1-2.7l0.2-5.4l0.6-21.8l1.2-43.6l0-1.7l0.4,1.6l10.8,43.5l5.4,21.7l0.7,2.7l0.6,2.7l1.1,5.5l2.2,11l17.3,87.9
					l-0.6-0.4l24.6-6.2l-0.4,0.5l-15.7-99.7l-15.4-99.8l0.2,0.2l-29.5-5.8l0.1,0L163.2,176z M163.2,175.9l33.4-7.1l0,0l0,0l29.5,5.6
					l0.1,0l0,0.1l15.9,99.7l15.7,99.7l0.1,0.4l-0.4,0.1l-24.6,6.2l-0.5,0.1l-0.1-0.5l-17.1-87.9l-2.1-11l-1.1-5.5l-0.5-2.7l-0.7-2.7
					l-5.3-21.8l-10.6-43.5l0.4,0l-1.3,43.6l-0.6,21.8l-0.1,5.4l-0.1,2.7l-0.2,2.7l-0.9,10.9l-7.2,86.9l0,0.3l-0.3,0l-24.7,0.9
					l-0.4,0l0-0.4c0.2-17,0.5-34,0.8-51l0.9-51l0.9-51l0.5-25.5l0.3-12.8l0.1-6.4l0.1-3.2l0-1.6l0-0.8l0-0.4
					C163.2,176.2,163.1,176.1,163.2,175.9z"/>
			</g>
			<g>
				<g>
					<g>
						<g>
							<g>
								<g>
									<g>
										<g>
											<g>
												<g>
													<g>
														<path class="st5" d="M192.5,97.8c0.2-2.8,0.6-28.1,0.6-28.2c0,0-9.4-1.2-9.8-10.5c-0.2-4.5,0.2-13.8,0.6-22.3
															c0.4-9.1,7.8-16.3,16.9-16.6l0.9,0c9.7,0.3,15,8.7,14.4,18.4l-1.3,54.2L192.5,97.8z"/>
														<path class="st11" d="M192.5,97.9l0.1-14c0-4.7,0.1-9.5,0.2-14.2l0.4,0.4c-1.6-0.2-3-0.8-4.4-1.5
															c-1.4-0.7-2.6-1.8-3.6-3c-0.9-1.3-1.7-2.7-1.9-4.3c-0.1-0.4-0.1-0.8-0.2-1.2c0-0.4-0.1-0.8-0.1-1.2c0-0.8,0-1.5,0-2.3
															c0-6.1,0.4-12.1,0.7-18.2c0.1-1.5,0.2-3,0.5-4.5c0.3-1.5,0.8-2.9,1.6-4.3c0.3-0.7,0.8-1.3,1.2-2
															c0.5-0.6,0.9-1.2,1.4-1.8c1-1.1,2.2-2.1,3.5-3c1.3-0.9,2.7-1.5,4.1-2c1.5-0.4,3-0.8,4.5-0.8c0.4,0,0.8,0,1.1-0.1
															c0.4,0,0.8,0,1.2,0.1c0.8,0,1.5,0.2,2.3,0.3c1.5,0.4,3,0.9,4.3,1.8c2.6,1.7,4.6,4.2,5.8,7.1c1.2,2.9,1.6,6,1.5,9.1
															l-0.4,18.2l-0.5,18.2l-0.6,18.2l0,0.3l-0.3,0.1l-11.3,2.4L192.5,97.9z M192.5,97.8l11.2-2.7l11-2.6l-0.3,0.3l0.3-18.2
															l0.4-18.2l0.5-18.2c0.1-3-0.2-6-1.3-8.7c-1.1-2.8-2.9-5.2-5.4-6.9c-1.2-0.9-2.6-1.4-4-1.8c-0.7-0.1-1.5-0.3-2.2-0.4
															c-0.4,0-0.7-0.1-1.1-0.1c-0.4,0-0.8,0-1.1,0c-1.5,0.1-3,0.3-4.4,0.8c-1.4,0.5-2.8,1.1-4.1,1.9c-2.5,1.6-4.6,3.9-6,6.6
															c-0.7,1.3-1.2,2.8-1.5,4.2l-0.2,1.1c-0.1,0.4-0.1,0.7-0.1,1.1c-0.1,0.7-0.1,1.5-0.1,2.3c-0.2,6-0.4,12.1-0.4,18.1
															c0,0.8,0,1.5,0.1,2.3c0,0.4,0.1,0.7,0.1,1.1c0,0.4,0.1,0.7,0.2,1.1c0.3,1.4,0.9,2.8,1.8,3.9c1.7,2.3,4.6,3.8,7.4,4.3
															l0.4,0.1l0,0.3c-0.1,4.7-0.3,9.3-0.5,14L192.5,97.8z"/>
													</g>
												</g>
											</g>
										</g>
									</g>
								</g>
							</g>
						</g>
					</g>
				</g>
			</g>
			<g>
				<g>
					<g>
						<g>
							<g>
								<g>
									<g>
										<g>
											<g>
												<g>
													<path class="st12" d="M193.9,69.6c0,0,5.9,0.2,12.1-4c0,0-2.8,5.8-12.2,5.3L193.9,69.6z"/>
												</g>
											</g>
										</g>
									</g>
								</g>
							</g>
						</g>
					</g>
				</g>
			</g>
			<g>
				<g>
					<g>
						<g>
							<g>
								<g>
									<g>
										<g>
											<g>
												<g>
													<g>
														<g>
															<g>
																<g>
																	<g>
																		<g>
																			<path class="st4" d="M185.5,43.1c0,0.7,0.6,1.3,1.3,1.3c0.7,0,1.3-0.5,1.3-1.2c0-0.7-0.6-1.3-1.3-1.3
																				C186.1,41.9,185.5,42.4,185.5,43.1z"/>
																		</g>
																	</g>
																</g>
															</g>
														</g>
													</g>
												</g>
											</g>
										</g>
									</g>
									<g>
										<g>
											<g>
												<g>
													<g>
														<g>
															<g>
																<g>
																	<g>
																		<g>
																			<g>
																				<path class="st4" d="M186.1,41.3c0.2,0.2,1.2-0.6,2.6-0.7c1.4-0.1,2.5,0.6,2.7,0.5c0.1-0.1-0.1-0.4-0.6-0.7
																					c-0.5-0.3-1.2-0.6-2.1-0.6c-0.9,0-1.6,0.4-2.1,0.7C186.1,40.9,186,41.3,186.1,41.3z"/>
																			</g>
																		</g>
																	</g>
																</g>
															</g>
														</g>
													</g>
												</g>
											</g>
										</g>
									</g>
								</g>
								<g>
									<g>
										<g>
											<g>
												<g>
													<g>
														<g>
															<g>
																<g>
																	<g>
																		<g>
																			<path class="st4" d="M199.9,43.3c0,0.7,0.6,1.3,1.3,1.3c0.7,0,1.3-0.5,1.3-1.2c0-0.7-0.6-1.3-1.3-1.3
																				C200.5,42.1,199.9,42.6,199.9,43.3z"/>
																		</g>
																	</g>
																</g>
															</g>
														</g>
													</g>
												</g>
											</g>
										</g>
									</g>
									<g>
										<g>
											<g>
												<g>
													<g>
														<g>
															<g>
																<g>
																	<g>
																		<g>
																			<g>
																				<path class="st4" d="M200.2,41.2c0.2,0.2,1.2-0.6,2.6-0.7c1.4-0.1,2.5,0.6,2.7,0.5c0.1-0.1-0.1-0.4-0.6-0.7
																					c-0.5-0.3-1.2-0.6-2.1-0.6c-0.9,0-1.6,0.4-2.1,0.7C200.3,40.8,200.1,41.1,200.2,41.2z"/>
																			</g>
																		</g>
																	</g>
																</g>
															</g>
														</g>
													</g>
												</g>
											</g>
										</g>
									</g>
								</g>
								<g>
									<g>
										<g>
											<g>
												<g>
													<g>
														<g>
															<g>
																<g>
																	<g>
																		<g>
																			<path class="st4" d="M195.3,52c0-0.1-0.9-0.2-2.3-0.3c-0.4,0-0.7-0.1-0.8-0.3c-0.1-0.3,0-0.7,0.2-1.1
																				c0.3-0.9,0.6-1.8,1-2.8c1.4-4,2.4-7.3,2.2-7.4c-0.2-0.1-1.4,3.2-2.8,7.2c-0.3,1-0.6,1.9-1,2.8
																				c-0.1,0.4-0.3,0.9-0.1,1.4c0.1,0.3,0.4,0.5,0.6,0.5c0.2,0.1,0.4,0.1,0.6,0.1C194.4,52.1,195.3,52.1,195.3,52z"/>
																		</g>
																	</g>
																</g>
															</g>
														</g>
													</g>
												</g>
											</g>
										</g>
									</g>
								</g>
								<g>
									<g>
										<g>
											<g>
												<g>
													<g>
														<g>
															<g>
																<g>
																	<g>
																		<g>
																			<path class="st4" d="M199.6,52.8c-0.2,0-0.2,1.6-1.5,2.7c-1.3,1.2-3,1-3,1.2c0,0.1,0.4,0.3,1.1,0.3
																				c0.7,0,1.7-0.3,2.5-1c0.8-0.7,1.1-1.6,1.1-2.3C199.9,53.2,199.7,52.8,199.6,52.8z"/>
																		</g>
																	</g>
																</g>
															</g>
														</g>
													</g>
												</g>
											</g>
										</g>
									</g>
								</g>
							</g>
						</g>
					</g>
					<g>
						<g>
							<g>
								<g>
									<g>
										<g>
											<g>
												<g>
													<g>
														<g>
															<path class="st4" d="M199.6,35.5c0.2,0.4,1.6,0.2,3.3,0.3c1.7,0.1,3.1,0.6,3.3,0.2c0.1-0.2-0.2-0.5-0.7-0.9
																c-0.6-0.4-1.4-0.7-2.5-0.8c-1-0.1-1.9,0.1-2.5,0.4C199.9,35,199.6,35.4,199.6,35.5z"/>
														</g>
													</g>
												</g>
											</g>
										</g>
									</g>
								</g>
							</g>
						</g>
					</g>
					<g>
						<g>
							<g>
								<g>
									<g>
										<g>
											<g>
												<g>
													<g>
														<g>
															<path class="st4" d="M186.5,37.2c0.3,0.3,1.2-0.1,2.4-0.1c1.2-0.1,2.2,0.2,2.4-0.2c0.1-0.2-0.1-0.5-0.5-0.8
																c-0.4-0.3-1.2-0.5-2-0.5c-0.8,0.1-1.5,0.4-1.9,0.7C186.5,36.7,186.3,37,186.5,37.2z"/>
														</g>
													</g>
												</g>
											</g>
										</g>
									</g>
								</g>
							</g>
						</g>
					</g>
				</g>
			</g>
			<g>
				<g>
					<g>
						<g>
							<g>
								<g>
									<g>
										<g>
											<g>
												<g>
													<g>
														<path class="st5" d="M215.6,45.6c0.2-0.1,6.4-2.1,6.4,4.3c0,6.4-6.4,5.1-6.4,4.9C215.5,54.6,215.6,45.6,215.6,45.6z"
															/>
														<path class="st11" d="M215.6,45.6c1.1-0.4,2.3-0.7,3.5-0.5c0.6,0.1,1.2,0.4,1.7,0.8c0.2,0.2,0.5,0.4,0.6,0.7
															c0.2,0.3,0.3,0.5,0.5,0.8c0.2,0.6,0.4,1.2,0.4,1.8c0.1,0.6,0.1,1.2,0,1.9c-0.1,1.2-0.7,2.5-1.8,3.3
															c-1.1,0.8-2.4,1-3.7,1c-0.3,0-0.6-0.1-0.9-0.1c-0.2,0-0.3-0.1-0.5-0.2l-0.1,0l0,0c-0.1,0-0.1-0.1-0.2-0.2
															c0-0.1-0.1-0.2-0.1-0.2l0,0l0,0l0-0.1l0-0.2c0-0.6,0-1.2,0.1-1.8l0.2-3.6C215.4,47.9,215.5,46.7,215.6,45.6z
															 M215.6,45.6l0.2,3.6l0.1,3.5c0,0.6,0,1.1,0,1.7l0,0.2l0,0.1l0,0v0c0,0,0-0.1,0-0.2c0-0.1-0.1-0.1-0.1-0.1
															c0,0,0,0,0,0l0,0c0,0,0.2,0.1,0.3,0.1c0.3,0,0.5,0.1,0.8,0.1c1.1,0,2.2-0.2,3-0.8c1.7-1.2,1.8-3.9,1.3-6
															c-0.3-1-1.1-1.9-2.2-2.1C217.9,45.3,216.7,45.4,215.6,45.6z"/>
													</g>
												</g>
											</g>
										</g>
									</g>
								</g>
							</g>
						</g>
					</g>
				</g>
			</g>
			<g>
				<g>
					<g>
						<g>
							<g>
								<g>
									<g>
										<path class="st5" d="M130.5,100.1l-38.8-3.7l-6.1-1.5c0,0-14-2.5-15.4-2.9c-1.5-0.5-2.1,0.1-2.3,0.7
											c-0.2,0.9,0.7,1.9,2,2.3c0.4,0.2,7.6,2.3,7.6,2.3s-0.7,0.1-2.4,0.8c-1.7,0.6-3.2,2.9-3.9,5.5c-0.7,2.6-0.7,3.4,0.3,3.7
											c0.4,0.1,0.8,0,1.1-0.2c0.5-0.3,0.9-0.9,1.1-1.5c1.2-4.1,3.7-4.5,3.7-4.5l0.8,0.2c0,0-2.5,1.9-2.4,4.1
											c0,0.4,0.1,0.7,0.2,0.9c-0.3,1.1-0.1,2.3,0.7,3.2c0.8,0.9,2.1,1.3,3.2,1.1c0.6-0.1,1.1-0.5,1.2-1c0-0.3-0.1-0.6-0.2-0.9
											c-0.1-0.1-0.1-0.3-0.2-0.4l2.3,0.2c0,0,6.9-1.4,9.2-1l35.8,7.6c5.1,1.3,9.4,1.7,10.6-3.4v0
											C140,106.1,136.1,100.6,130.5,100.1z"/>
										<path class="st11" d="M130.5,100.1l-9.7-0.9l-9.7-0.8c-6.5-0.5-13-1-19.4-1.6l0,0l0,0l-4.4-1.1c-0.7-0.2-1.5-0.4-2.2-0.5
											l-2.2-0.4c-2.9-0.6-5.9-1.1-8.8-1.7c-1.5-0.3-3-0.6-4.4-1c-0.7-0.2-1.4,0-1.5,0.6c-0.1,0.6,0.4,1.2,0.9,1.6
											c0.6,0.4,1.3,0.6,2,0.8l2.1,0.7l4.3,1.3l0.5,0.2l-0.6,0.1c-0.9,0.2-1.8,0.5-2.6,0.9c-0.8,0.4-1.4,1.1-2,1.9
											c-1.1,1.5-1.6,3.4-1.9,5.2c-0.1,0.4-0.1,0.9,0.1,1.2c0.1,0.2,0.3,0.3,0.5,0.3c0.2,0.1,0.4,0.1,0.6,0
											c0.4-0.1,0.8-0.4,1-0.8c0.3-0.4,0.4-0.8,0.5-1.2c0.3-0.9,0.7-1.8,1.3-2.6c0.6-0.8,1.4-1.4,2.4-1.7l0,0l0.1,0l0.8,0.2
											l0.6,0.1l-0.5,0.4c-0.7,0.6-1.4,1.3-1.8,2.1c-0.4,0.8-0.6,1.8-0.2,2.5l0.1,0.1l0,0.1c-0.2,0.7-0.1,1.5,0.2,2.2
											c0.3,0.7,0.9,1.2,1.6,1.4c0.7,0.3,1.5,0.3,2.1,0c0.3-0.2,0.5-0.4,0.4-0.6c0-0.2-0.2-0.6-0.4-1.1l-0.2-0.6l0.6,0.1l2.3,0.2
											l-0.1,0c2.4-0.5,4.8-0.9,7.3-1.1c0.6,0,1.2-0.1,1.9,0c0.6,0.1,1.2,0.2,1.8,0.4l3.6,0.7l14.4,3c4.8,1,9.6,2,14.4,3.1
											c2.4,0.5,4.7,1.3,7.1,1.3c1.2,0,2.4-0.2,3.3-1c0.9-0.7,1.4-1.8,1.7-3l0,0l0,0c0.3-1.3,0.4-2.6,0.1-3.9
											c-0.2-1.3-0.8-2.5-1.5-3.6C135.6,101.9,133.1,100.4,130.5,100.1z M130.5,100c2.7,0.2,5.2,1.7,6.8,3.9
											c1.6,2.2,2.2,5.1,1.6,7.7l0,0l0,0c-0.3,1.2-0.8,2.4-1.8,3.3c-1,0.9-2.3,1.2-3.6,1.2c-1.3,0-2.5-0.1-3.7-0.4
											c-0.6-0.1-1.2-0.3-1.8-0.4l-1.8-0.4c-4.8-0.9-9.6-1.9-14.4-3l-14.4-3l-3.6-0.8c-0.6-0.1-1.2-0.3-1.8-0.4
											c-0.5-0.1-1.1,0-1.7,0c-2.4,0.2-4.8,0.6-7.2,1l-0.1,0l-0.1,0l-2.3-0.2l0.5-0.5c0,0.3,0.3,0.7,0.4,1.3
											c0,0.3-0.1,0.6-0.3,0.8c-0.2,0.2-0.4,0.4-0.6,0.5c-0.9,0.4-1.9,0.3-2.8,0c-0.9-0.3-1.6-1-2-1.9c-0.4-0.8-0.5-1.8-0.2-2.7
											l0,0.2c-0.2-0.5-0.3-1.1-0.2-1.6c0.1-0.5,0.3-1.1,0.5-1.5c0.5-0.9,1.2-1.7,2-2.3l0.1,0.5l-0.8-0.2l0.1,0
											c-0.8,0.2-1.6,0.8-2.1,1.5c-0.6,0.7-1,1.5-1.3,2.4c-0.2,0.9-0.8,1.9-1.9,2.2c-0.3,0.1-0.6,0.1-0.8,0
											c-0.2-0.1-0.5-0.2-0.7-0.5c-0.3-0.5-0.2-1-0.2-1.5c0.4-1.9,0.9-3.7,2-5.3c0.6-0.8,1.2-1.5,2.1-2c0.9-0.4,1.8-0.7,2.7-0.9
											l0,0.3l-4.3-1.3l-2.2-0.6c-0.7-0.2-1.5-0.4-2.1-0.8c-0.3-0.2-0.6-0.5-0.9-0.8c-0.2-0.3-0.4-0.8-0.3-1.2
											c0.1-0.4,0.4-0.8,0.8-1c0.4-0.2,0.9-0.1,1.2-0.1c1.5,0.4,2.9,0.6,4.4,0.9l8.8,1.5l2.2,0.4c0.8,0.1,1.5,0.3,2.2,0.5l4.4,1
											l-0.1,0c6.5,0.6,12.9,1.3,19.4,2l9.7,1.1L130.5,100z"/>
									</g>
								</g>
							</g>
						</g>
					</g>
				</g>
				<g>
					<g>
						<g>
							<g>
								<g>
									<g>
										<g>
											<path class="st5" d="M90.8,97.4c0,0.8-0.8,1.4-1.6,1.6c-0.8,0.2-1.6,0.1-2.4,0.3c-2.4,0.4-4.2,2.7-6.6,3
												c-0.3,0-0.8,0-0.9-0.3c-0.1-0.3,0.1-0.6,0.4-0.8c1.9-1.9,3.9-3.7,5.8-5.6"/>
											<path class="st11" d="M90.8,97.4c0.1,0.5-0.2,1-0.6,1.4c-0.4,0.4-0.9,0.6-1.4,0.7c-1,0.2-1.9,0.1-2.7,0.4
												c-0.8,0.2-1.7,0.5-2.5,1c-0.8,0.5-1.5,1-2.4,1.4c-0.5,0.2-0.9,0.4-1.5,0.4c-0.2,0-0.3,0-0.5-0.1
												c-0.2-0.1-0.4-0.2-0.5-0.5c-0.1-0.2-0.1-0.5,0-0.7c0.1-0.2,0.2-0.3,0.2-0.4c0.7-0.8,1.3-1.4,2-2c1.4-1.2,2.8-2.4,4.3-3.5
												l0.1,0.1c-1.1,1.5-2.4,2.9-3.7,4.2c-0.6,0.6-1.4,1.3-2,1.8c-0.1,0.1-0.1,0.2-0.1,0.2c0,0,0,0.1,0.2,0.1
												c0.3,0,0.8,0,1.2-0.1c0.9-0.2,1.7-0.7,2.4-1.2c0.8-0.5,1.5-1.1,2.4-1.5c1-0.4,2-0.3,2.8-0.3c0.4,0,0.8-0.1,1.2-0.3
												c0.4-0.2,0.7-0.5,0.8-1L90.8,97.4z"/>
										</g>
									</g>
								</g>
							</g>
						</g>
					</g>
					<g>
						<g>
							<g>
								<g>
									<g>
										<g>
											<g>
												<path class="st5" d="M85.5,95.6c0,0-0.3,0.2-0.7,0.5c-0.4,0.4-1,0.9-1.8,1.6c-0.8,0.7-1.6,1.5-2.6,2.4
													c-0.2,0.2-0.5,0.5-0.7,0.7c-0.2,0.2-0.6,0.5-0.7,1c0,0.3,0.2,0.5,0.4,0.6c0.2,0.1,0.4,0.1,0.7,0.1
													c0.4-0.1,0.8-0.1,1.2-0.3c1.5-0.6,2.6-1.5,3.8-2.1c0.6-0.3,1.1-0.5,1.7-0.6c0.6-0.1,1.1-0.1,1.6-0.2
													c1-0.1,1.8-0.5,2.2-1c0.3-0.5,0.2-0.9,0.2-0.9c0,0,0,0.3-0.4,0.7c-0.3,0.4-1.1,0.8-2.1,0.8c-0.5,0-1,0-1.7,0.1
													c-0.6,0.1-1.2,0.3-1.8,0.6c-1.2,0.6-2.4,1.5-3.7,2.1c-0.3,0.1-0.7,0.2-1,0.3c-0.3,0-0.6-0.1-0.6-0.3
													c0-0.2,0.3-0.5,0.5-0.7c0.2-0.2,0.5-0.5,0.7-0.7c0.9-0.9,1.8-1.7,2.5-2.5c0.7-0.7,1.3-1.3,1.7-1.7
													C85.3,95.8,85.5,95.6,85.5,95.6z"/>
												<path class="st11" d="M85.4,95.6c-0.4,0.4-1,0.8-1.4,1.3c-0.5,0.4-0.9,0.9-1.4,1.4c-0.9,0.9-1.8,1.9-2.7,2.8l0,0
													c-0.3,0.3-0.4,0.4-0.5,0.6c0,0,0,0.1,0,0.1c0,0.1,0,0,0,0c0,0,0.1,0.1,0.1,0.1c0.1,0.1,0.4,0.1,0.6,0.1
													c0.3,0,0.6-0.1,0.9-0.2c1.1-0.3,2.2-1,3.3-1.6c0.6-0.3,1.1-0.6,1.7-0.8c0.6-0.2,1.3-0.2,1.9-0.3c0.3,0,0.6-0.1,0.9-0.1
													c0.3-0.1,0.6-0.2,0.8-0.3c0.2-0.2,0.5-0.3,0.6-0.6c0.1-0.1,0.1-0.2,0.2-0.4c0-0.1,0-0.1,0-0.2c0,0,0-0.1,0-0.1l0,0
													c0,0,0,0,0,0l0,0l0,0l0,0c0,0.1,0.4,0.1,0.4,0l-0.3,0.1c0.1,0,0.3-0.1,0.3-0.1c0,0,0-0.1,0-0.1c0,0,0,0,0,0l0,0l0,0.1
													c0,0.1,0,0.2-0.1,0.2c-0.1,0.2-0.1,0.3-0.2,0.4c-0.2,0.3-0.4,0.5-0.7,0.6c-0.5,0.3-1.2,0.4-1.7,0.5
													c-0.6,0-1.1,0.1-1.5,0.1c-0.5,0.1-0.9,0.3-1.4,0.5c-0.9,0.4-1.7,1.1-2.7,1.6c-0.5,0.3-1,0.5-1.6,0.7l-0.9,0.2
													c-0.1,0-0.4,0-0.6,0c-0.1,0-0.2-0.1-0.4-0.1c-0.1-0.1-0.3-0.3-0.3-0.6l0,0.1c0-0.3,0.1-0.4,0.2-0.5
													c0.1-0.1,0.2-0.2,0.2-0.3l0.4-0.4l0.8-0.7l1.7-1.4c0.6-0.5,1.1-0.9,1.6-1.4l0.8-0.7C85,96.1,85.2,95.8,85.4,95.6z
													 M85.5,95.5c0,0.2,0,0.1-0.1,0.2l-0.1,0.1L85.2,96l-0.4,0.4l-0.7,0.8l-1.4,1.6l-1.4,1.6l-0.7,0.8l-0.4,0.4
													c-0.1,0.1-0.2,0.3-0.1,0.1l0,0.1c0-0.2-0.1-0.3-0.1-0.3c0,0,0,0,0,0c0.1,0,0.1,0,0.2,0l0.7-0.2c0.5-0.1,0.9-0.4,1.4-0.6
													c0.9-0.5,1.8-1.1,2.8-1.6c0.5-0.2,1.1-0.4,1.6-0.5c0.6-0.1,1.1-0.1,1.6-0.1c0.5,0,1-0.1,1.4-0.3
													c0.2-0.1,0.4-0.2,0.5-0.4c0.1-0.1,0.1-0.2,0.2-0.3c0,0,0-0.1,0.1-0.1l0-0.1l0-0.1l0-0.1c0,0,0-0.1,0.1-0.1
													c0,0,0.2-0.1,0.3-0.1l-0.3,0.1c0-0.1,0.4-0.1,0.4,0c0,0,0,0,0,0l0,0.1l0,0l0,0.1l0,0.1c0,0.1,0,0.1,0,0.2
													c0,0.1,0,0.2-0.1,0.3c-0.1,0.2-0.2,0.3-0.3,0.5c-0.2,0.3-0.5,0.5-0.8,0.7c-0.6,0.3-1.3,0.4-1.9,0.4
													c-0.6,0.1-1.3,0-1.8,0.3c-0.6,0.2-1.1,0.5-1.6,0.8c-1,0.7-2,1.5-3.3,2c-0.3,0.1-0.7,0.2-1,0.3c-0.4,0.1-0.8,0.1-1.2-0.2
													c-0.2-0.2-0.4-0.4-0.4-0.6c0-0.1,0-0.3,0-0.4c0-0.1,0-0.2,0.1-0.3c0.2-0.4,0.6-0.7,0.7-0.9l0,0l0,0c1-0.9,2-1.7,3-2.5
													c0.5-0.4,1-0.8,1.5-1.2c0.2-0.2,0.5-0.4,0.7-0.6l0.4-0.3l0.2-0.2l0.1-0.1C85.4,95.6,85.3,95.5,85.5,95.5z"/>
											</g>
										</g>
									</g>
								</g>
							</g>
						</g>
					</g>
				</g>
				<g>
					<g>
						<g>
							<g>
								<g>
									<g>
										<g>
											<path class="st5" d="M78.3,101.1c0,0.1-0.6-0.2-1.5,0c-0.4,0.1-0.9,0.5-1.3,1c-0.4,0.5-0.6,1.1-0.9,1.8
												c-0.2,0.7-0.5,1.4-0.8,2c-0.3,0.6-0.8,1-1.2,1.3c-0.5,0.3-0.9,0.2-1.2,0.1c-0.3-0.1-0.4-0.2-0.3-0.3c0,0,0.1,0.1,0.4,0.1
												c0.2,0.1,0.6,0.1,1-0.1c0.4-0.2,0.8-0.7,1.1-1.2c0.3-0.5,0.5-1.2,0.8-1.9c0.2-0.7,0.5-1.4,0.9-1.9c0.4-0.5,1-0.9,1.4-1
												c0.5-0.1,0.9-0.1,1.2,0C78.1,101,78.3,101.1,78.3,101.1z"/>
											<path class="st11" d="M78.3,101.2c-1,0.1-1.7,0.3-2.3,0.9c-0.5,0.6-0.8,1.4-1.1,2.2c-0.4,0.8-0.8,1.7-1.5,2.4
												c-0.3,0.3-0.7,0.7-1.2,0.8c-0.2,0.1-0.5,0.1-0.8,0.1c-0.1,0-0.3-0.1-0.4-0.1c-0.1,0-0.1-0.1-0.2-0.1l-0.1-0.1l0,0l0,0
												l0,0l0,0l0,0c0-0.1,0-0.2,0.1-0.2l0,0c0,0,0.1-0.1,0.1-0.1c0,0,0.1,0,0.1,0c0.1,0,0.1,0,0.1,0l0.1,0l0.1,0l0.1,0l0.1,0
												c0.1,0,0.2,0,0.2,0c0.2,0,0.3-0.1,0.5-0.1c0.3-0.2,0.5-0.5,0.8-0.8c0.4-0.7,0.6-1.5,0.9-2.4c0.3-0.9,0.8-1.8,1.7-2.4
												C76.3,100.6,77.5,100.4,78.3,101.2z M78.2,101.1c-0.8-0.2-1.7,0.1-2.2,0.6c-0.5,0.5-0.9,1.3-1.1,2.1
												c-0.3,0.8-0.6,1.8-1.2,2.6c-0.3,0.4-0.7,0.8-1.2,1c-0.3,0.1-0.6,0.2-0.9,0.1c-0.1,0-0.3-0.1-0.4-0.1l-0.2-0.1l-0.1,0
												c0,0,0,0,0,0s0,0,0,0c0,0,0,0.1,0.3-0.1l0,0c0-0.1,0.1-0.2,0.1-0.2l0,0l0,0l0,0l0,0l0,0l0,0c0,0,0.1,0.1,0.1,0.1
												c0.1,0.1,0.1,0.1,0.2,0.1c0.2,0.1,0.4,0.1,0.6,0c0.4-0.1,0.7-0.4,1-0.7c0.5-0.7,0.7-1.6,0.9-2.4c0.2-0.9,0.6-1.8,1.4-2.5
												C76.2,100.8,77.5,100.7,78.2,101.1z"/>
										</g>
									</g>
								</g>
							</g>
						</g>
					</g>
				</g>
				<g>
					<g>
						<g>
							<g>
								<g>
									<g>
										<g>
											<path class="st5" d="M69.3,94.8c0,0,0.6,0.1,1.4,0.4c1,0.3,2.1,0.7,3.4,1.1c1.3,0.4,2.4,0.8,3.4,1.1
												c0.9,0.3,1.4,0.4,1.4,0.5c0,0-0.6-0.1-1.5-0.3c-0.9-0.2-2.1-0.5-3.5-1c-1.3-0.4-2.5-0.8-3.4-1.2
												C69.8,95.1,69.3,94.9,69.3,94.8z"/>
											<path class="st11" d="M69.3,94.8c1.7,0.4,3.4,0.5,5,1.1c0.8,0.3,1.6,0.7,2.3,1c0.4,0.1,0.8,0.3,1.2,0.4
												c0.2,0.1,0.4,0.1,0.6,0.1l0.3,0.1l0.2,0l0.1,0c0,0,0,0,0.1,0l0,0c0,0,0,0,0.1,0.1c0,0.1,0,0.2,0,0.3
												c-0.1,0.1-0.2,0.1-0.2,0.1c-0.2,0-0.2,0-0.3,0l-0.2,0l-0.3,0c-0.2,0-0.4,0-0.6-0.1c-0.4-0.1-0.8-0.2-1.3-0.3
												c-0.8-0.2-1.7-0.4-2.5-0.6c-0.8-0.3-1.6-0.6-2.4-1l-1.1-0.6l-0.6-0.3l-0.3-0.1L69.4,95C69.4,94.9,69.3,95,69.3,94.8z
												 M69.4,94.9c0.1,0,0.4,0.2,0.5,0.2c0.2,0.1,0.4,0.1,0.6,0.2c0.4,0.1,0.8,0.2,1.3,0.2c0.8,0.1,1.6,0.4,2.4,0.6
												c0.8,0.2,1.6,0.5,2.4,0.7l2.3,0.8c0,0-0.1,0-0.2,0.1c0,0.1-0.1,0.2,0,0.3c0.1,0.1,0.1,0.1,0.1,0.1l0,0c0,0,0,0,0,0
												l-0.1,0L78.6,98l-0.3-0.1c-0.2-0.1-0.4-0.2-0.6-0.2c-0.4-0.1-0.8-0.3-1.2-0.4c-0.8-0.2-1.7-0.3-2.5-0.5
												c-0.8-0.2-1.6-0.5-2.4-0.9C70.9,95.5,70.1,95.1,69.4,94.9z"/>
										</g>
									</g>
								</g>
							</g>
						</g>
					</g>
				</g>
				<g>
					<g>
						<g>
							<g>
								<g>
									<g>
										<g>
											<path class="st5" d="M79.4,103.3c0,0-0.1,0.1-0.3,0.4c-0.2,0.2-0.5,0.6-0.4,1.1c0,0.2,0.2,0.4,0.5,0.6
												c0.3,0.1,0.6,0.2,0.9,0.2c0.3,0.1,0.8,0.2,1.1,0.5c0.3,0.3,0.4,0.8,0.2,1.3c-0.1,0.4-0.5,0.8-0.8,1
												c-0.4,0.2-0.8,0.3-1.2,0.2c-0.7-0.1-1.3-0.4-1.8-0.6c-0.5-0.2-0.9-0.5-1.1-0.7c-0.2-0.2-0.3-0.4-0.3-0.4
												c0,0,0.1,0.1,0.3,0.3c0.2,0.2,0.6,0.4,1.1,0.6c0.5,0.2,1.1,0.4,1.8,0.5c0.6,0.1,1.5-0.3,1.7-1c0.1-0.3,0-0.7-0.2-1
												c-0.2-0.3-0.6-0.4-0.9-0.4c-0.3-0.1-0.7-0.1-1-0.3c-0.3-0.1-0.6-0.4-0.6-0.7c-0.1-0.6,0.3-1,0.5-1.2
												C79.2,103.3,79.4,103.2,79.4,103.3z"/>
											<path class="st11" d="M79.4,103.2c0,0.2,0,0.1,0,0.2l0,0.1l-0.1,0.2c-0.1,0.1-0.1,0.2-0.2,0.3c-0.1,0.2-0.1,0.4-0.1,0.6
												c0,0.3,0.4,0.4,0.9,0.5c0.4,0,1.1,0.1,1.6,0.6c0.5,0.5,0.5,1.3,0.3,1.9c-0.6,1.2-2.1,1.3-3,0.9c-0.5-0.2-1-0.3-1.4-0.6
												c-0.2-0.1-0.5-0.2-0.7-0.4c-0.1-0.1-0.2-0.2-0.3-0.3c-0.1-0.1-0.1-0.1-0.1-0.2l-0.1-0.1l0-0.1l0,0l0,0c0,0,0,0,0-0.1
												l0-0.1c0-0.1,0.1-0.2,0.2-0.2l0,0c0.1,0,0.2,0,0.2,0c0,0,0.1,0,0.1,0c0,0,0,0,0.1,0l0,0l0,0l0.1,0.1l0.1,0.1
												c0.1,0.1,0.2,0.1,0.3,0.2c0.2,0.1,0.4,0.2,0.6,0.3c0.4,0.2,0.9,0.3,1.3,0.4c0.2,0,0.5,0.1,0.6,0.1c0.2,0,0.3,0,0.5-0.1
												c0.3-0.1,0.5-0.4,0.6-0.6c0-0.1,0-0.3,0-0.4c0-0.1-0.1-0.2-0.3-0.2c-0.3-0.2-0.8-0.2-1.4-0.5c-0.3-0.1-0.5-0.4-0.7-0.6
												c-0.1-0.1-0.1-0.3-0.1-0.5c0-0.1,0-0.3,0.1-0.4c0.1-0.3,0.3-0.5,0.5-0.7c0.1-0.1,0.2-0.2,0.3-0.2c0.1,0,0.1-0.1,0.2-0.1
												C79.3,103.3,79.2,103.2,79.4,103.2z M79.3,103.3c-0.1,0.2-0.3,0.3-0.4,0.5c-0.1,0.2-0.2,0.4-0.2,0.6c0,0.1,0,0.2,0,0.3
												c0,0.1,0.1,0.1,0.1,0.2c0.1,0.1,0.2,0.2,0.4,0.3c0.4,0.1,0.8,0.1,1.4,0.3c0.3,0.1,0.6,0.4,0.8,0.7c0.2,0.3,0.2,0.7,0.2,1
												c-0.1,0.7-0.7,1.2-1.3,1.4c-0.3,0.1-0.6,0.1-0.9,0.1c-0.3,0-0.5-0.1-0.8-0.2c-0.5-0.2-1-0.3-1.4-0.6
												c-0.2-0.1-0.4-0.3-0.7-0.4c-0.1-0.1-0.2-0.2-0.3-0.3l-0.1-0.2l-0.1-0.1l0,0c0,0,0,0,0,0c0,0,0,0,0,0c0,0,0,0,0.1,0
												c0,0,0.1,0,0.2,0l0,0c0.1,0,0.2-0.1,0.2-0.2l0,0c0,0,0,0,0,0l0,0c0,0,0,0,0,0l0,0l0,0.1c0,0,0,0.1,0.1,0.1
												c0.1,0.1,0.1,0.2,0.2,0.3c0.2,0.2,0.4,0.3,0.6,0.4c0.4,0.3,0.9,0.5,1.4,0.6c0.9,0.4,2-0.2,2.2-0.9c0.1-0.3,0-0.8-0.2-1
												c-0.2-0.2-0.6-0.3-1.1-0.4c-0.3-0.1-0.6-0.1-0.8-0.3c-0.3-0.2-0.5-0.6-0.5-0.9C78.5,103.9,79,103.5,79.3,103.3z"/>
										</g>
									</g>
								</g>
							</g>
						</g>
					</g>
				</g>
				<g>
					<g>
						<g>
							<g>
								<g>
									<g>
										<g>
											<path class="st5" d="M80.4,108c0,0,0.2,0,0.4,0.2c0.2,0.2,0.5,0.5,0.5,1.1c0,0.5-0.4,1.1-1,1.4c-0.6,0.3-1.4,0.3-2.1,0.1
												c-0.7-0.2-1.3-0.7-1.7-1.2c-0.4-0.5-0.6-1.1-0.6-1.6c-0.1-0.5,0-0.9,0.1-1.1c0.1-0.3,0.1-0.4,0.2-0.4
												c0.1,0-0.2,0.6,0,1.5c0.1,0.5,0.3,1,0.6,1.5c0.4,0.5,0.9,0.9,1.6,1.1c0.7,0.2,1.4,0.2,1.9-0.1c0.5-0.3,0.8-0.7,0.9-1.2
												c0-0.4-0.2-0.8-0.3-1C80.5,108.1,80.4,108.1,80.4,108z"/>
											<path class="st11" d="M80.3,108c0.2-0.1,0.2,0,0.2,0c0.1,0,0.1,0,0.2,0.1c0.1,0.1,0.2,0.1,0.3,0.2
												c0.2,0.2,0.3,0.4,0.4,0.7c0.2,0.5,0,1.2-0.4,1.6c-0.8,0.9-2,1-3,0.6c-1-0.4-1.7-1.1-2.1-2c-0.2-0.4-0.3-0.9-0.4-1.4
												c0-0.2,0-0.5,0-0.7c0-0.1,0-0.3,0.1-0.4l0-0.2l0-0.1l0-0.1l0,0l0,0c0,0,0,0,0.1-0.1c0,0,0.2-0.1,0.3,0l0,0
												c0.1,0,0.2,0.1,0.2,0.2c0,0.1,0,0.1,0,0.1c0,0,0,0.1,0,0.1l0,0.1l0,0.1l0,0.1l0,0.3c0,0.2,0,0.4,0,0.6
												c0.1,0.4,0.2,0.7,0.3,1c0.3,0.6,0.9,1.1,1.6,1.3c0.6,0.2,1.4,0.3,1.9-0.1C80.9,109.5,81,108.7,80.3,108z M80.4,108.1
												c0.1,0,0.4,0.2,0.5,0.3c0.2,0.2,0.3,0.4,0.3,0.6c0.1,0.5-0.1,1-0.5,1.4c-0.8,0.8-1.9,0.8-2.8,0.5c-0.9-0.3-1.7-1-2.1-1.9
												c-0.2-0.4-0.3-0.9-0.3-1.4c0-0.2,0-0.5,0-0.7c0-0.1,0-0.2,0.1-0.3l0-0.2l0-0.1c0,0,0,0,0,0c0,0,0,0,0,0.1l0,0.1
												c0,0.1,0.2,0.2,0.2,0.2l0,0c0.1,0.1,0.3,0,0.3,0c0,0,0.1,0,0.1,0l0,0c0,0,0,0,0,0s0,0,0,0l0,0.1l-0.1,0.1
												c0,0.1-0.1,0.2-0.1,0.3c-0.1,0.2-0.1,0.4-0.1,0.6c0,0.4,0.1,0.9,0.3,1.3c0.4,0.8,1.3,1.3,2,1.4c0.8,0.1,1.6,0.1,2.2-0.4
												c0.3-0.3,0.4-0.6,0.4-1c0-0.2,0-0.4-0.1-0.6C80.8,108.3,80.5,108.2,80.4,108.1z"/>
										</g>
									</g>
								</g>
							</g>
						</g>
					</g>
				</g>
				<g>
					<g>
						<g>
							<g>
								<g>
									<g>
										<g>
											<path class="st5" d="M86.7,104.6c0,0,0-0.3,0.2-0.7c0.2-0.4,0.7-0.9,1.4-1.2l0,0.3c-0.3-0.1-0.6-0.3-0.9-0.5
												c-1.7-1-2.6-2.4-2.5-2.4c0.1-0.1,1,1.2,2.7,2.1c0.3,0.2,0.6,0.3,0.9,0.5l0.3,0.1l-0.3,0.1c-0.6,0.2-1.1,0.7-1.3,1
												C86.8,104.4,86.7,104.6,86.7,104.6z"/>
											<path class="st11" d="M86.7,104.7c-0.1-0.1,0-0.1,0-0.2l0-0.2c0-0.1,0.1-0.2,0.1-0.3c0.1-0.2,0.2-0.4,0.3-0.6
												c0.2-0.4,0.6-0.8,1-1l0.6-0.3l0,0.7l0,0.3l0,0.7l-0.7-0.3c-0.4-0.2-0.7-0.4-1-0.6c-0.3-0.2-0.6-0.5-0.9-0.8l-0.8-0.8
												l-0.4-0.4c-0.1-0.1-0.1-0.1-0.2-0.2l-0.1-0.1l-0.1-0.1l0-0.1c0,0,0,0,0-0.1c0-0.1,0.1-0.3,0.2-0.3l-0.1,0
												c0,0,0.2-0.1,0.3-0.1c0.1,0,0,0,0.1,0l0.1,0l0.1,0.1l0.1,0.1l0.2,0.2l0.5,0.3c0.3,0.2,0.6,0.5,0.9,0.7
												c0.6,0.4,1.3,0.7,2,1.1l1,0.6l-1,0.3c-0.2,0.1-0.4,0.1-0.6,0.1c-0.2,0.1-0.4,0.1-0.6,0.2c-0.2,0.1-0.4,0.2-0.5,0.4
												c-0.1,0.1-0.1,0.2-0.2,0.3l-0.1,0.1C86.8,104.6,86.8,104.6,86.7,104.7z M86.7,104.6c0-0.1,0.2-0.4,0.3-0.6
												c0.1-0.2,0.2-0.4,0.4-0.6c0.1-0.2,0.3-0.4,0.5-0.6c0.2-0.2,0.4-0.3,0.6-0.4l0,0.9c-0.4-0.1-0.8-0.3-1.1-0.5
												c-0.4-0.2-0.7-0.4-1-0.7c-0.3-0.3-0.6-0.5-0.9-0.8c-0.1-0.2-0.3-0.3-0.4-0.5l-0.2-0.2l-0.1-0.1l0,0l0,0c0,0,0,0,0,0
												c0.1,0,0.2,0,0.2-0.1l-0.1,0c0.1,0,0.2-0.2,0.2-0.2c0-0.1,0,0,0,0l0,0l0,0l0.1,0.1c0,0.1,0.1,0.2,0.1,0.2
												c0.1,0.2,0.2,0.3,0.3,0.4c0.2,0.3,0.5,0.5,0.8,0.7c0.3,0.2,0.7,0.3,1,0.5c0.3,0.1,0.7,0.3,1,0.4l-0.6,0.4l0-0.3l0.6,0.4
												c-0.3,0.1-0.7,0.2-1.1,0.5c-0.2,0.1-0.3,0.3-0.4,0.4C86.8,104.2,86.8,104.5,86.7,104.6z"/>
										</g>
									</g>
								</g>
							</g>
						</g>
					</g>
				</g>
				<g>
					<g>
						<g>
							<g>
								<g>
									<g>
										<g>
											<path class="st5" d="M74.5,101c0.1-0.1,0.5,0.4,0.6,1.1c0.1,0.7-0.2,1.2-0.3,1.2c-0.1,0,0.1-0.5,0-1.2
												C74.7,101.5,74.4,101,74.5,101z"/>
											<path class="st11" d="M74.5,100.9c0.2,0,0.1,0,0.2,0.1c0.1,0,0.1,0.1,0.2,0.1c0.1,0.1,0.2,0.1,0.4,0.2
												c0.2,0.2,0.3,0.5,0.3,0.7c-0.1,0.3-0.2,0.5-0.3,0.7c0,0.1,0,0.2-0.1,0.3c0,0.1,0,0.1,0,0.2c0,0,0,0.1,0,0.1
												c0,0,0,0.1-0.1,0.1c0,0-0.1,0-0.1,0.1c0,0-0.2,0-0.3,0l0.1,0c-0.1,0-0.2-0.1-0.2-0.2c0,0,0-0.1,0-0.1l0-0.1l0-0.1
												c0-0.1,0-0.1,0-0.2l0-0.3c0-0.2-0.1-0.3,0-0.5c0-0.2,0-0.3,0.1-0.5c0-0.1,0.1-0.2,0.1-0.3
												C74.5,101.2,74.4,101.1,74.5,100.9z M74.5,101c0,0.1,0.2,0.3,0.4,0.4c0.2,0.2,0.3,0.4,0.3,0.6c0.1,0.2,0,0.5,0,0.7
												c0,0.1-0.1,0.2-0.1,0.3c0,0,0,0.1-0.1,0.1c0,0,0,0,0,0c0,0,0,0,0,0c0,0,0,0,0-0.1c0,0-0.1-0.1-0.2-0.1l0.1,0
												c-0.1-0.1-0.3,0-0.3,0c0,0-0.1,0-0.1,0c0,0,0,0,0,0c0,0,0,0,0,0c0,0,0.1,0,0.1-0.1c0.1-0.1,0.1-0.2,0.1-0.3
												c0-0.2-0.1-0.4-0.2-0.6c-0.1-0.2-0.1-0.3-0.1-0.5c0-0.1,0-0.2,0-0.3C74.6,101.1,74.5,101,74.5,101z"/>
										</g>
									</g>
								</g>
							</g>
						</g>
					</g>
				</g>
			</g>
			<path class="st13" d="M135.9,117.5l31.3-5.3c0,0-1.4,23.2-1.4,32.7c0,13-3.7,35.9-3.7,35.9l66.5,0.9l1.8-54l3.3-42.7l-11.2-7.9
				l-4.6-4.4l-7.2,6.6c-6.1,5.6-15.9,3.7-19.5-3.8l-1-2.2l-6.8,1.7l-20,5.8l-33.8,15.8L103,96.3l-3.5,18.3L135.9,117.5z"/>
			<g>
				<path class="st4" d="M168.7,111.1c-0.1,0-0.2-4.8-0.2-10.7c0-5.9,0.2-10.7,0.3-10.7c0.1,0,0.2,4.8,0.2,10.7
					C169,106.3,168.9,111.1,168.7,111.1z"/>
			</g>
			<path class="st4" d="M233.4,87.9l-13.3-8c0,0,0,0-0.1,0l-4.7-6.3l0.4,0l-2.4,2.7c-0.8,0.9-1.6,1.8-2.5,2.7
				c-1.8,1.7-4.2,2.7-6.7,3c-2.5,0.3-5-0.2-7.2-1.3c-2.2-1.1-4-3-5.2-5.2l-0.1-0.1l0,0c0.2,0.1-0.4-0.2,0.4,0.2l0,0l-0.1,0l-0.2,0.1
				l-0.4,0.1l-0.9,0.3l-1.7,0.5l-3.5,1l-7,2l-13.9,4.1l0.1,0l-32,14.8c0,0-0.1,0-0.1,0l-27.2-1l0.2-0.2l-3.2,16.7l-0.1-0.2l33.2,2
				l-0.1,0l33.4-6.2c0.2,0,0.4,0.1,0.4,0.3c0,0,0,0.1,0,0.1l-1.6,33.9c-0.3,5.7-0.6,11.3-1.1,17c-0.5,5.6-1,11.3-1.7,16.9l-0.5-0.6
				l30.9,0.4l30.9,0.6l-0.4,0.3l1-24.5l1-24.5c0,0,0,0,0.1,0c0,0,0,0,0,0.1l-0.7,24.5l-0.7,24.5c0,0.2-0.2,0.3-0.4,0.3l-30.9-0.3
				l-30.9-0.4c-0.3,0-0.5-0.2-0.5-0.5c0,0,0,0,0-0.1c1.3-11.2,2.4-22.5,2.9-33.8l1.8-33.9l0.4,0.4l-33.5,5.9c0,0,0,0-0.1,0
				l-33.2-2.2c-0.1,0-0.1-0.1-0.1-0.2l0,0l3-16.7c0-0.1,0.1-0.2,0.2-0.2l27.2,0.8l-0.1,0l31.9-15c0,0,0,0,0.1,0l13.9-4l7-2l3.5-1
				l1.7-0.5l0.9-0.3l0.4-0.1l0.2-0.1l0.1,0l0,0c0.8,0.4,0.2,0.1,0.4,0.2l0,0l0.1,0.1c1.1,2.1,2.8,3.8,4.9,4.9
				c2.1,1.1,4.5,1.6,6.8,1.3c2.3-0.3,4.6-1.3,6.4-2.8c0.9-0.8,1.7-1.7,2.5-2.6l2.4-2.7c0.1-0.1,0.2-0.1,0.3,0c0,0,0,0,0,0l4.6,6.3
				l-0.1,0L233.4,87.9C233.5,87.9,233.5,87.9,233.4,87.9C233.5,88,233.4,88,233.4,87.9z"/>
			<g>
				<g>
					<path class="st5" d="M222.1,198.6c-3.5-2.3-5.1-4.5-6.5-6.7c0-0.1,0-0.2,0-0.2c0-0.1-0.1-0.1-0.2-0.2c-0.8-1.2-1.4-2.4-1.9-3.4
						c2-1.3,4.7-3.3,1.8-3.7c-3.6-0.5-6.1-2.2-6.5-3.2c-0.4-0.9,0.8-1.8,1.8-1.2c0.8,0.5,2.3,0.9,3.4,1.2c1,0.2,1.9,0.3,2.9,0.2
						c0.6-0.1,2.7-1.5,5-2.6c0.3-0.2,0.7-0.2,1-0.1l0.9-0.1c0.9-0.1,1.8-0.6,2.2-1.4l3.3-6.3l9.9,5.9l-7.9,10.9
						C231.3,187.6,225.9,194.8,222.1,198.6z"/>
					<path class="st11" d="M222.1,198.6c-1.4-0.8-2.7-1.8-3.8-2.9c-1.1-1.1-2.1-2.4-3-3.7l-0.1-0.1l0.1-0.2c0,0,0,0,0,0
						c0,0,0,0.1,0,0.1c0,0,0,0,0,0l-0.1,0l-0.1-0.1l-2-3.4l-0.2-0.3l0.3-0.2c1-0.7,2.1-1.4,2.7-2.2c0.2-0.2,0.2-0.4,0.2-0.4
						c0,0-0.2-0.2-0.5-0.2l-0.4-0.1l-0.5-0.1c-0.3-0.1-0.6-0.1-0.9-0.2c-1.2-0.3-2.4-0.8-3.5-1.4c-0.5-0.3-1.1-0.7-1.5-1.3
						c-0.2-0.3-0.4-0.6-0.4-1.1c0-0.4,0.3-0.8,0.6-1c0.3-0.2,0.7-0.3,1.1-0.2c0.2,0,0.4,0.1,0.5,0.2l0.4,0.2
						c0.5,0.3,1.1,0.5,1.7,0.7c1.2,0.4,2.3,0.7,3.6,0.6c0.3,0,0.6,0,0.9-0.1c0.3-0.1,0.5-0.2,0.8-0.4l1.6-0.9
						c0.5-0.3,1.1-0.6,1.6-0.9c0.3-0.1,0.5-0.3,0.8-0.4c0.3-0.1,0.7-0.2,1-0.1l0,0c0.4-0.1,0.9-0.1,1.3-0.2c0.4-0.1,0.8-0.3,1.1-0.6
						c0.3-0.3,0.5-0.6,0.7-1l0.6-1.2l2.4-4.8l0.2-0.4l0.4,0.2l10,5.8l0.5,0.3l-0.3,0.5c-2.7,3.7-5.4,7.5-8.2,11.2
						c-1.4,1.8-2.9,3.6-4.4,5.4C225.4,195.3,223.9,197,222.1,198.6z M222.1,198.5c1.5-1.7,3-3.5,4.4-5.3c1.4-1.8,2.8-3.7,4.2-5.5
						c1.3-1.9,2.6-3.8,4-5.7l4-5.6l0.2,0.8l-9.9-6l0.6-0.2l-2.6,4.7l-0.6,1.2c-0.2,0.4-0.5,0.8-0.8,1.2c-0.4,0.3-0.8,0.6-1.3,0.7
						c-0.5,0.1-0.9,0.1-1.4,0.1l0,0l0,0c-0.3-0.1-0.6,0-0.8,0.1c-0.3,0.1-0.5,0.3-0.8,0.4c-0.5,0.3-1.1,0.6-1.6,0.9L218,181
						c-0.3,0.1-0.5,0.3-0.8,0.4c-0.3,0.1-0.6,0.1-1,0.1c-1.3,0.1-2.5-0.2-3.7-0.6c-0.6-0.2-1.2-0.3-1.8-0.6
						c-0.3-0.2-0.5-0.3-0.8-0.3c-0.2,0-0.5,0-0.7,0.2c-0.9,0.7,0.4,1.6,1.4,2.2c1,0.6,2.2,1,3.3,1.3c0.3,0.1,0.6,0.1,0.9,0.2
						l0.4,0.1l0.5,0.1c0.3,0.1,0.7,0.2,1,0.7c0.1,0.1,0.1,0.3,0.1,0.4c0,0.1,0,0.2-0.1,0.4c-0.1,0.2-0.2,0.4-0.3,0.5
						c-0.4,0.6-0.9,1-1.4,1.4c-0.5,0.4-1,0.7-1.5,1.1l0.1-0.5l1.9,3.3l-0.2-0.2c0.1,0,0.3,0.1,0.4,0.2c0.1,0.1,0.1,0.3,0.1,0.3
						c0,0.1,0,0.2-0.1,0.2l0-0.3c0.8,1.3,1.7,2.6,2.8,3.8C219.6,196.6,220.9,197.6,222.1,198.5z"/>
				</g>
			</g>
			<g>
				<path class="st14" d="M224.2,199.7c0,0.1-0.9-0.3-2.3-1.1c-1.4-0.8-3.1-2.1-4.7-3.9c-1.6-1.8-2.7-3.7-3.4-5.1
					c-0.6-1.4-0.9-2.4-0.8-2.4c0.2-0.1,1.4,3.7,4.6,7.2C220.7,197.9,224.3,199.6,224.2,199.7z"/>
			</g>
			<g>
				<path class="st14" d="M192.8,206.1c0,0-0.1,0-0.3-0.1c-0.2-0.1-0.4-0.2-0.7-0.4c-0.6-0.5-1.2-1.4-1.6-2.6
					c-0.4-1.2-0.7-2.7-1.1-4.3c-0.4-1.6-0.7-3.5-1.1-5.4c-0.7-3.8-1.3-7.3-1.7-9.8c-0.2-1.3-0.3-2.3-0.4-3c-0.1-0.7-0.1-1.1-0.1-1.1
					c0,0,0.1,0.4,0.3,1.1c0.2,0.8,0.3,1.8,0.6,3c0.5,2.5,1.1,5.9,1.8,9.8c0.4,1.9,0.7,3.7,1.1,5.4c0.4,1.6,0.6,3.1,1,4.3
					c0.4,1.2,0.9,2.1,1.4,2.5C192.5,205.9,192.8,206.1,192.8,206.1z"/>
			</g>
			<g>
				<path class="st14" d="M192,183.3c0,0,0.2-0.1,0.4,0c0.3,0.1,0.7,0.3,0.9,0.8c0.3,0.5,0.4,1.2-0.1,1.9c-0.4,0.6-1.3,1-2.1,0.8
					c-0.9-0.2-1.4-1-1.5-1.7c-0.1-0.7,0.2-1.4,0.6-1.7c0.8-0.7,1.6-0.5,1.6-0.5c0,0.1-0.7,0.1-1.3,0.7c-0.3,0.3-0.5,0.8-0.4,1.4
					c0.1,0.5,0.5,1.1,1.1,1.3c0.6,0.2,1.3-0.1,1.6-0.6c0.4-0.4,0.3-1,0.2-1.4C192.6,183.5,191.9,183.4,192,183.3z"/>
			</g>
			<g>
				<path class="st14" d="M170.4,179.3c0,0,0.3,0.9,0.3,2.3c0,1.5-0.4,3.5-1.5,5.5c-1.1,2-2.5,3.4-3.8,4.3c-1.2,0.8-2.1,1.1-2.1,1.1
					c0-0.1,0.8-0.5,1.9-1.4c1.1-0.9,2.5-2.3,3.5-4.2c1-1.9,1.5-3.8,1.6-5.3C170.4,180.2,170.3,179.3,170.4,179.3z"/>
			</g>
			<g>
				<g>
					<path class="st4" d="M131,108.1c-0.1,0,0.2-2.3,0.5-5c0.3-2.8,0.6-5,0.7-5c0.1,0,0.1,2.3-0.2,5.1
						C131.7,105.9,131.2,108.1,131,108.1z"/>
				</g>
			</g>
			<path class="st13" d="M233.8,85c0,0,8.4,7.2,8.9,11.3c0.4,3.1,8.7,32.7,12.4,45.9c1.2,4.1,0.9,8.5-0.7,12.5l-10.7,26.5
				l-17.3-10.3l8.7-24.9l-7.2-21.1L233.8,85z"/>
			<path class="st4" d="M233.5,87.9c1.5,1.3,2.9,2.8,4.3,4.3c1.3,1.5,2.6,3.2,3.2,5.2c0.8,3.9,2,7.8,3,11.7l6.4,23.3l1.6,5.8
				c0.5,1.9,1.2,3.9,1.4,5.9c0.2,2,0.1,4.1-0.4,6.1c-0.4,2-1.3,3.8-2.1,5.7c-3.1,7.4-6,14.9-9,22.4c0,0.1-0.2,0.2-0.3,0.1
				c0,0,0,0,0,0l-16.5-9.6c-0.2-0.1-0.2-0.3-0.2-0.5l0,0l8.1-23.5l0,0.4l-1.4-3.9c-0.5-1.3-0.9-2.6-1.3-3.9l-1.3-3.9
				c-0.5-1.3-0.8-2.6-1.2-3.9c0,0,0-0.1,0-0.1c0,0,0.1,0,0.1,0c0.6,1.3,1.1,2.5,1.6,3.8l1.6,3.8c0.5,1.3,1.1,2.5,1.5,3.8l1.5,3.8
				c0,0.1,0,0.2,0,0.4l-8.3,23.5l-0.2-0.5l16.3,9.8l-0.4,0.1c3.1-7.4,6.1-14.9,9.1-22.4c0.7-1.9,1.6-3.7,2-5.7
				c0.4-1.9,0.5-4,0.2-5.9c-0.2-2-0.9-3.9-1.5-5.8l-1.7-5.8c-2.2-7.7-4.3-15.5-6.4-23.3c-0.5-1.9-1-3.9-1.5-5.9
				c-0.5-2-1-3.9-1.3-5.9c-0.2-0.9-0.7-1.8-1.2-2.7c-0.5-0.8-1.1-1.7-1.7-2.4C236.2,90.8,234.9,89.3,233.5,87.9
				C233.4,87.9,233.4,87.9,233.5,87.9C233.4,87.9,233.5,87.9,233.5,87.9z"/>
			<g>
				<path class="st4" d="M241.6,178.1c0,0-0.1,0-0.3-0.1c-0.2-0.1-0.5-0.3-0.9-0.5c-0.8-0.5-1.9-1.1-3.3-1.9c-2.9-1.7-7-4.1-12-7
					l-0.1-0.1l0.1-0.2c2.3-6.6,5.1-14.7,8.1-23.5l0,0.2c-1-2.6-2-5.3-3-8c-2.4-6.5-4.7-12.6-6.8-18.3l0,0c-2.1-4.4-3.9-8.6-4.4-12.6
					c-0.2-2-0.2-3.9,0.2-5.7c0.4-1.7,1-3.3,1.6-4.6c1.4-2.6,3-4.3,4.2-5.3c0.6-0.5,1.1-0.9,1.4-1.1c0.3-0.2,0.5-0.4,0.5-0.3
					c0,0-0.2,0.1-0.5,0.4c-0.3,0.3-0.8,0.6-1.4,1.2c-1.1,1.1-2.7,2.8-4.1,5.4c-0.7,1.3-1.2,2.8-1.6,4.5c-0.3,1.7-0.4,3.6-0.1,5.5
					c0.5,4,2.3,8.1,4.4,12.5l0,0l0,0c2.1,5.6,4.4,11.8,6.8,18.2c1,2.7,2,5.4,3,8l0,0.1l0,0.1c-3.1,8.8-5.9,16.9-8.2,23.5l-0.1-0.2
					c5,3,9,5.4,11.9,7.1c1.4,0.8,2.5,1.5,3.3,2c0.3,0.2,0.6,0.4,0.8,0.5C241.5,178.1,241.6,178.1,241.6,178.1z"/>
			</g>
			<path class="st4" d="M183.3,117.5c0.3,2.1,0.8,4.1,1.4,6.1c0.3,1,0.6,2,1,3c0.3,1,0.7,2,1.1,2.9c1.6,3.9,3.5,7.6,5.7,11.1
				c0.5,0.9,1.1,1.7,1.7,2.6l0.9,1.3l0.9,1.3l1.9,2.5c0.7,0.8,1.4,1.6,2,2.4l1,1.2c0.3,0.4,0.7,0.8,1.1,1.1l2.2,2.3
				c1.4,1.5,3,2.9,4.5,4.4c-0.8-0.7-1.6-1.3-2.4-2c-0.8-0.7-1.7-1.3-2.4-2l-2.3-2.2c-0.4-0.4-0.8-0.7-1.1-1.1l-1.1-1.2
				c-0.7-0.8-1.4-1.6-2.1-2.4l-1.9-2.5l-1-1.3l-0.9-1.3c-0.6-0.9-1.2-1.7-1.8-2.6c-2.2-3.6-4.1-7.4-5.6-11.4
				C184.7,125.8,183.6,121.7,183.3,117.5z"/>
			<path class="st4" d="M177.1,141.9c0.6,1.1,1.3,2.1,2.1,3.1c0.8,1,1.5,2,2.4,2.8c1.7,1.8,3.5,3.5,5.4,5c0.5,0.4,1,0.7,1.5,1.1
				c0.5,0.4,1,0.7,1.5,1.1l1.5,1c0.5,0.3,1.1,0.6,1.6,1c2.1,1.3,4.4,2.4,6.6,3.5c-1.2-0.4-2.4-0.8-3.6-1.2c-1.1-0.5-2.3-1-3.4-1.6
				c-2.3-1.1-4.3-2.6-6.4-4.1c-2-1.6-3.8-3.4-5.4-5.3C179.5,146.3,178,144.2,177.1,141.9z"/>
			<path class="st4" d="M184.7,27.3c0,0,5,3.5,12.6,1.2c5-1.5,10.6-1.7,11.6-0.6c1,1.1,0.5,5.9,4.8,8.1c0,0-1.9,9,1.8,9.3
				c3.7,0.3,3.8-14.1,3.8-14.1l-5.2-7.1l-8.8-5.7h-10.9l-9.2,3.9L184.7,27.3z"/>
		</g>
		<path class="st6" d="M230.8,149.9c0,0-20.6-19.5-24.2-40.6s20.3-32,20.3-32l7.5,4.2c0,0-20.3,8-20.3,22.3s16.8,39.9,16.8,39.9
			L230.8,149.9z"/>
		<path class="st7" d="M230.8,147.9c-1.5-1.3-2.7-2.6-4-3.9c-1.3-1.3-2.5-2.7-3.7-4.1c-2.4-2.8-4.6-5.8-6.7-8.8
			c-4.1-6.1-7.6-12.8-9.4-20.1c-0.5-1.8-0.8-3.6-1-5.5c-0.1-1.9-0.1-3.7,0.2-5.6c0.6-3.7,1.9-7.2,4-10.3c2-3.1,4.5-5.9,7.4-8.3
			c2.8-2.4,5.9-4.5,9.2-6.2c0.1,0,0.2,0,0.3,0l0,0l7.5,4.1c0.2,0.1,0.2,0.3,0.1,0.5c0,0.1-0.1,0.1-0.2,0.2l0,0
			c-2.8,1.2-5.6,2.8-8.2,4.5c-2.6,1.7-5,3.7-7,6.1c-2,2.3-3.6,5-4.3,8c-0.8,3-0.3,6.1,0.3,9.1c0.7,3,1.7,6,2.8,8.9
			c1.1,2.9,2.4,5.8,3.8,8.6c2.7,5.7,5.8,11.1,9.1,16.5l0,0c0,0,0,0,0,0.1L230.8,147.9z M230.8,147.8l-0.1-6.1l0,0.1
			c-3.5-5.2-6.6-10.7-9.5-16.3c-2.8-5.6-5.5-11.4-6.9-17.7c-0.7-3.1-1.1-6.4-0.3-9.6c0.7-3.2,2.5-6,4.6-8.4c2.1-2.4,4.6-4.4,7.3-6.2
			c2.7-1.8,5.5-3.2,8.4-4.5l0,0.7l-7.5-4.3l0.3,0c-6.5,3.2-12.6,7.9-16.6,14.1c-2,3.1-3.3,6.6-3.7,10.2c-0.2,1.8-0.2,3.6,0,5.5
			c0.2,1.8,0.6,3.6,1.1,5.4c0.9,3.5,2.3,7,3.8,10.3c1.6,3.3,3.4,6.5,5.4,9.6C221,136.8,225.7,142.6,230.8,147.8z"/>
	</g>
</g>
</svg>
