<?xml version="1.0" encoding="utf-8"?>
<!-- Generator: Adobe Illustrator 22.0.0, SVG Export Plug-In . SVG Version: 6.00 Build 0)  -->
<svg version="1.1" id="Layer_1" xmlns="http://www.w3.org/2000/svg" xmlns:xlink="http://www.w3.org/1999/xlink" x="0px" y="0px"
	 viewBox="0 0 256.4 246.4" style="enable-background:new 0 0 256.4 246.4;" xml:space="preserve">
<style type="text/css">
	.st0{opacity:0.18;}
	.st1{opacity:0.8;fill:#267BF8;}
	.st2{fill:#A1E2EC;}
	.st3{fill:#1A2E35;}
	.st4{fill:#FFFFFF;}
	.st5{clip-path:url(#SVGID_2_);}
	.st6{fill:#263238;}
	.st7{fill:#282828;}
	.st8{fill:#CBECF4;}
	.st9{fill:#FE5356;}
	.st10{fill:#FFBE9D;}
	.st11{fill:#EA424A;}
</style>
<g>
	<g class="st0">
		<path class="st1" d="M8,187c0,0,16.6,39.6,60,53.1c43.4,13.5,90.9,2.9,129.2-9.4c38.2-12.3,65.9-58.5,58-92.4
			c-7.9-33.8-66.1-24-95.5-54.4c-29.4-30.4-29.6-50.3-70.9-59.8c-41.3-9.5-71.9,31.9-84,81.1C-7.5,154.3,8,187,8,187z"/>
	</g>
	<g>
		<path class="st2" d="M242.6,186.3l-93-0.6c-6.8,0-12.3-5.6-12.2-12.4l0.4-134.2c0-2.3,1.9-4.1,4.1-4l109.5,0.7
			c2.3,0,4.1,1.9,4,4.1L255,174.1C255,180.9,249.4,186.3,242.6,186.3z"/>
		<path class="st3" d="M238.1,176.8l-33.6-0.2l-33.6-0.1l-16.8,0l-8.4,0c-1.4,0-2.8,0.1-4.3-0.1c-1.4-0.2-2.8-0.7-4.1-1.5
			c-2.5-1.5-4.4-4-5.1-6.8c-0.4-1.4-0.3-2.9-0.3-4.3l0-4.2l0.1-16.8l0.4-67.2c0.1-11.2,0.1-22.4,0.1-33.6l0-16.8
			c0-2.9,1.2-5.7,3.2-7.7c2-2,4.9-3.2,7.8-3.2c22.4,0,44.8,0.1,67.2,0.3l16.8,0.1l8.4,0.1c1.4,0,2.8-0.1,4.3,0.2
			c1.4,0.2,2.9,0.7,4.1,1.5c2.5,1.5,4.4,4,5.1,6.9c0.4,1.4,0.3,2.9,0.3,4.3l0,4.2l-0.1,16.8l-0.5,67.2l-0.2,33.6l-0.1,16.8
			c0,2.8-1.2,5.6-3.2,7.6C243.7,175.7,240.9,176.8,238.1,176.8z M238.1,176.7c2.8,0,5.6-1.1,7.5-3.1c2-2,3.1-4.7,3.1-7.5l0-16.8
			l0-33.6l0-67.2l0-16.8l0-4.2c0-1.4,0-2.8-0.3-4.1c-0.6-2.6-2.3-4.9-4.6-6.3c-1.1-0.7-2.4-1.2-3.7-1.4c-1.3-0.2-2.7-0.1-4.1-0.1
			l-8.4-0.1l-16.8-0.1c-22.4-0.1-44.8-0.4-67.2-0.6c-2.7,0-5.5,1.1-7.4,3c-2,1.9-3.1,4.6-3.1,7.4L133,41.9
			c-0.1,11.2-0.1,22.4-0.1,33.6l0,67.2l0,16.8l0,4.2c0,1.4,0,2.8,0.3,4.1c0.6,2.6,2.3,4.9,4.6,6.3c1.1,0.7,2.4,1.2,3.8,1.4
			c1.3,0.2,2.7,0.1,4.1,0.2l8.4,0.1l16.8,0.2l33.6,0.4L238.1,176.7z"/>
		<path class="st3" d="M239.5,32c-8.9,0.1-17.8,0.2-26.7,0.2l-26.7-0.1l-26.7-0.3l-13.3-0.2l-13.3-0.3l13.3-0.2l13.3,0l26.7,0.1
			l26.7,0.3C221.7,31.6,230.6,31.8,239.5,32z"/>
		<g>
			<circle class="st4" cx="144" cy="23.5" r="2.6"/>
			<path d="M146.7,23.5c0,0.7-0.1,1.4-0.6,2.1c-0.4,0.6-1.3,1-2.1,0.9c-0.8-0.1-1.5-0.5-2-1.1c-0.5-0.5-0.8-1.2-0.9-2
				c-0.3-1.6,1.2-3.2,2.9-3.1c0.8,0,1.6,0.4,2.1,1.1C146.6,22.1,146.7,22.8,146.7,23.5z M146.6,23.5c0-0.7-0.4-1.3-0.9-1.6
				c-0.5-0.3-1.1-0.5-1.6-0.5c-0.5,0-1.1,0.2-1.5,0.6c-0.4,0.4-0.7,0.9-0.8,1.5c-0.1,0.6,0.1,1.3,0.6,1.7c0.5,0.4,1.2,0.6,1.7,0.5
				c0.6-0.1,1.1-0.2,1.6-0.6C146.2,24.8,146.6,24.2,146.6,23.5z"/>
		</g>
		<g>
			<circle class="st4" cx="153.3" cy="23.6" r="2.6"/>
			<path d="M156,23.6c0,0.7-0.1,1.4-0.6,2.1c-0.4,0.6-1.3,1-2.1,0.9c-0.8-0.1-1.5-0.5-2-1.1c-0.5-0.5-0.8-1.2-0.9-2
				c-0.3-1.6,1.2-3.2,2.9-3.1c0.8,0,1.6,0.4,2.1,1.1C155.9,22.1,156,22.9,156,23.6z M155.9,23.6c0-0.7-0.4-1.3-0.9-1.6
				c-0.5-0.3-1.1-0.5-1.6-0.5c-0.5,0-1.1,0.2-1.5,0.6c-0.4,0.4-0.7,0.9-0.8,1.5c-0.1,0.6,0.1,1.3,0.6,1.7c0.5,0.4,1.2,0.6,1.7,0.5
				c0.6-0.1,1.1-0.2,1.6-0.6C155.5,24.9,155.9,24.3,155.9,23.6z"/>
		</g>
		<g>
			<circle class="st4" cx="162.7" cy="23.6" r="2.6"/>
			<path d="M165.4,23.6c0,0.7-0.1,1.4-0.6,2.1c-0.4,0.6-1.3,1-2.1,0.9c-0.8-0.1-1.5-0.5-2-1.1c-0.5-0.5-0.8-1.2-0.9-2
				c-0.3-1.6,1.2-3.2,2.9-3.1c0.8,0,1.6,0.4,2.1,1.1C165.2,22.2,165.4,23,165.4,23.6z M165.3,23.6c0-0.7-0.4-1.3-0.9-1.6
				c-0.5-0.3-1.1-0.5-1.6-0.5c-0.5,0-1.1,0.2-1.5,0.6c-0.4,0.4-0.7,0.9-0.8,1.5c-0.1,0.6,0.1,1.3,0.6,1.7c0.5,0.4,1.2,0.6,1.7,0.5
				c0.6-0.1,1.1-0.2,1.6-0.6C164.8,24.9,165.3,24.3,165.3,23.6z"/>
		</g>
		<g>
			<path class="st3" d="M183.1,54.5c3.9-0.2,7.8-0.2,11.7-0.3c3.9-0.1,7.8,0,11.7,0c3.9,0.1,7.8,0.1,11.7,0.2l5.8,0.2
				c1.9,0.1,3.9,0.2,5.8,0.3c-1.9,0.1-3.9,0.1-5.8,0.2l-5.8,0.1c-3.9,0.1-7.8,0-11.7,0c-3.9-0.1-7.8-0.1-11.7-0.2
				C190.9,54.8,187,54.7,183.1,54.5z"/>
			<path class="st3" d="M183.1,61.7c3.9-0.4,7.8-0.4,11.7-0.4c3.9,0,7.8,0.2,11.7,0.6c-3.9,0.4-7.8,0.4-11.7,0.4
				C190.9,62.2,187,62.1,183.1,61.7z"/>
		</g>
		<g>
			<circle class="st4" cx="162.3" cy="58.1" r="8.2"/>
			<path class="st3" d="M170.5,58.1c0,2.1-0.7,4.3-2.2,6c-1.5,1.7-3.8,2.7-6,2.6c-2.3-0.1-4.4-1.1-5.9-2.7c-1.5-1.6-2.5-3.7-2.6-5.9
				c-0.1-2.2,0.7-4.5,2.3-6.1c1.6-1.6,3.8-2.6,6.1-2.6c2.3,0,4.5,1,6,2.7C169.8,53.8,170.5,56,170.5,58.1z M170.4,58.1
				c0-2.1-1-4.2-2.6-5.5c-1.6-1.3-3.5-2.1-5.5-2.1c-2,0-4,0.8-5.4,2.2c-1.5,1.4-2.4,3.4-2.5,5.4c-0.1,2.1,0.7,4.2,2.2,5.7
				c1.5,1.5,3.6,2.2,5.7,2.1c2-0.1,4-0.8,5.6-2.2C169.4,62.3,170.4,60.3,170.4,58.1z"/>
		</g>
		<g>
			<path class="st3" d="M183.1,84.9c3.9-0.2,7.8-0.2,11.7-0.3c3.9-0.1,7.8,0,11.7,0c3.9,0.1,7.8,0.1,11.7,0.2l5.8,0.2
				c1.9,0.1,3.9,0.2,5.8,0.3c-1.9,0.1-3.9,0.1-5.8,0.2l-5.8,0.1c-3.9,0.1-7.8,0-11.7,0c-3.9-0.1-7.8-0.1-11.7-0.2
				C190.9,85.3,187,85.1,183.1,84.9z"/>
			<path class="st3" d="M183.1,92.1c3.9-0.4,7.8-0.4,11.7-0.4c3.9,0,7.8,0.2,11.7,0.6c-3.9,0.4-7.8,0.4-11.7,0.4
				C190.9,92.6,187,92.5,183.1,92.1z"/>
		</g>
		<g>
			<circle class="st4" cx="162.3" cy="88.6" r="8.2"/>
			<path class="st3" d="M170.5,88.6c0,2.1-0.7,4.3-2.2,6c-1.5,1.7-3.8,2.7-6,2.6c-2.3-0.1-4.4-1.1-5.9-2.7c-1.5-1.6-2.5-3.7-2.6-5.9
				c-0.1-2.2,0.7-4.5,2.3-6.1c1.6-1.6,3.8-2.6,6.1-2.6c2.3,0,4.5,1,6,2.7C169.8,84.2,170.5,86.4,170.5,88.6z M170.4,88.6
				c0-2.1-1-4.2-2.6-5.5c-1.6-1.3-3.5-2.1-5.5-2.1c-2,0-4,0.8-5.4,2.2c-1.5,1.4-2.4,3.4-2.5,5.4c-0.1,2.1,0.7,4.2,2.2,5.7
				c1.5,1.5,3.6,2.2,5.7,2.1c2-0.1,4-0.8,5.6-2.2C169.4,92.8,170.4,90.7,170.4,88.6z"/>
		</g>
		<g>
			<path class="st3" d="M183.1,118.5c3.9-0.2,7.8-0.3,11.7-0.3c3.9-0.1,7.8,0,11.7,0c3.9,0.1,7.8,0.1,11.7,0.2l5.8,0.2
				c1.9,0.1,3.9,0.2,5.8,0.3c-1.9,0.1-3.9,0.1-5.8,0.2l-5.8,0.1c-3.9,0.1-7.8,0-11.7,0c-3.9-0.1-7.8-0.1-11.7-0.2
				C190.9,118.8,187,118.7,183.1,118.5z"/>
			<path class="st3" d="M183.1,125.7c3.9-0.4,7.8-0.4,11.7-0.4c3.9,0,7.8,0.2,11.7,0.6c-3.9,0.4-7.8,0.4-11.7,0.4
				C190.9,126.2,187,126.1,183.1,125.7z"/>
		</g>
		<g>
			<circle class="st4" cx="162.3" cy="122.1" r="8.2"/>
			<path class="st3" d="M170.5,122.1c0,2.1-0.7,4.3-2.2,6c-1.5,1.7-3.8,2.7-6,2.6c-2.3-0.1-4.4-1.1-5.9-2.7
				c-1.5-1.6-2.5-3.7-2.6-5.9c-0.1-2.2,0.7-4.5,2.3-6.1c1.6-1.6,3.8-2.6,6.1-2.6c2.3,0,4.5,1,6,2.7
				C169.8,117.8,170.5,120,170.5,122.1z M170.4,122.1c0-2.1-1-4.2-2.6-5.5c-1.6-1.3-3.5-2.1-5.5-2.1c-2,0-4,0.8-5.4,2.2
				c-1.5,1.4-2.4,3.4-2.5,5.4c-0.1,2.1,0.7,4.2,2.2,5.7c1.5,1.5,3.6,2.2,5.7,2.1c2-0.1,4-0.8,5.6-2.2
				C169.4,126.3,170.4,124.3,170.4,122.1z"/>
		</g>
		<path class="st4" d="M228.4,168.8h-48.2c-4.4,0-8-3.6-8-8v-9.9c0-4.4,3.6-8,8-8h48.2c4.4,0,8,3.6,8,8v9.9
			C236.4,165.2,232.9,168.8,228.4,168.8z"/>
		<path class="st3" d="M224.9,164.4l-10.4,0.1l-10.4,0.2c-6.9,0.1-13.9,0.1-20.8,0.1l-5.2-0.1c-0.9,0-1.7,0-2.6-0.2
			c-0.9-0.2-1.8-0.4-2.5-0.9c-1.6-0.9-2.9-2.2-3.6-3.9c-0.4-0.8-0.6-1.7-0.7-2.6c-0.1-0.9,0-1.8,0-2.6l0-5.2l0-2.6
			c0-0.9,0-1.8,0.3-2.6c0.5-1.7,1.5-3.3,2.9-4.4c1.4-1.1,3.2-1.7,5-1.7c13.9-0.2,27.8-0.3,41.7-0.2l5.2,0l1.3,0c0.5,0,0.9,0,1.4,0.1
			c0.9,0.2,1.8,0.4,2.6,0.9c1.6,0.9,2.9,2.3,3.7,4c0.4,0.8,0.6,1.7,0.7,2.6c0.1,0.9,0,1.8,0,2.6l-0.1,5.2l0,2.6
			c0,0.9-0.1,1.8-0.4,2.6c-0.5,1.7-1.5,3.2-3,4.3C228.4,163.9,226.6,164.4,224.9,164.4z M224.9,164.3c3.5,0,6.8-2.5,7.6-5.9
			c0.2-0.8,0.3-1.7,0.3-2.5l0-2.6l-0.1-5.2c0-0.9,0-1.8-0.1-2.6c-0.1-0.8-0.4-1.6-0.7-2.4c-0.7-1.5-1.9-2.7-3.4-3.5
			c-0.7-0.4-1.5-0.6-2.3-0.7c-0.4-0.1-0.8-0.1-1.2-0.1l-1.3,0l-5.2,0c-13.9,0.1-27.8-0.1-41.7-0.2c-3.4-0.1-6.7,2.3-7.6,5.6
			c-0.3,0.8-0.3,1.7-0.3,2.5l0,2.6l0,5.2c0,0.9,0,1.7,0.1,2.6c0.1,0.8,0.3,1.7,0.7,2.4c0.7,1.5,2,2.8,3.5,3.6
			c0.7,0.4,1.6,0.6,2.4,0.8c0.8,0.1,1.7,0.1,2.5,0.1l5.2-0.1c6.9,0,13.9,0,20.8,0.1l10.4,0.2L224.9,164.3z"/>
		<path class="st3" d="M192.9,149.6c2.2,1.6,4.4,3.3,6.5,5l-0.6,0c1.7-1.7,3.5-3.4,5.3-5.1c1.8-1.6,3.7-3.2,5.6-4.8
			c-1.6,1.9-3.3,3.7-5,5.4c-1.7,1.7-3.5,3.4-5.3,5.1l0,0c-0.2,0.2-0.4,0.2-0.6,0C196.7,153.5,194.8,151.6,192.9,149.6z"/>
	</g>
	<g>
		<defs>
			<path id="SVGID_1_" d="M8,187c0,0,16.6,39.6,60,53.1c43.4,13.5,90.9,2.9,129.2-9.4c38.2-12.3,65.9-58.5,58-92.4
				c-7.9-33.8-66.1-24-95.5-54.4c-29.4-30.4-27-73.5-68.2-83C50.1-8.6,16.8,56,4.6,105.2C-7.5,154.3,8,187,8,187z"/>
		</defs>
		<clipPath id="SVGID_2_">
			<use xlink:href="#SVGID_1_"  style="overflow:visible;"/>
		</clipPath>
		<g class="st5">
			<g>
				<g>
					<path class="st6" d="M60.6,39.7C58.4,47.1,56.2,54.5,54,62c-0.3,1-0.6,2.1-0.6,3.1c0.1,3.1,3,5.6,6.1,6.2
						c3.1,0.6,6.3-0.3,9.3-1.1c0.8,3.2,4.6,4.6,7.8,5.2C91.1,78.1,94,53.5,90.6,44.1c-11.3,0.5-7.4,0.3-18.7,0.8
						c-2,0.1-4.1,0.2-6-0.5c-1.9-0.7-3.6-2.3-3.7-4.3"/>
				</g>
			</g>
			<g>
				<g>
					<path class="st6" d="M104.8,31.1c3.2,7.1,7.6,19.4,10.8,26.5c0.4,1,0.9,2,1,3c0.4,3.1-2.2,6-5.2,7c-3,1-6.2,0.6-9.3,0.2
						c-0.4,3.3-3.9,5.2-7,6.2c-13.9,4.7-20.3-19.2-18.2-29c11.3-1.1,7.4-0.7,18.6-1.8c2-0.2,4-0.4,5.8-1.3c1.8-0.9,3.2-2.8,3.1-4.8"
						/>
				</g>
			</g>
			<g>
				<path class="st4" d="M100.1,75.2c0,0-0.7,12.1-11.6,11.7c-2.4-0.1-4.4-0.6-6.1-1.5c-6.2-3-8.2-9.5-8.2-9.5
					c5.2-1.3,5.2-11,5.2-11l14.4,0.4c0,0,0,1.1,0.1,2.5c0.2,1.9,0.8,4.4,2.1,5.8C98.4,76.1,100.1,75.2,100.1,75.2z"/>
				<path class="st7" d="M100.1,75.2c-0.2,3.1-1.2,6.3-3.3,8.7c-1.1,1.2-2.4,2.2-4,2.7l-0.6,0.2c-0.2,0.1-0.4,0.1-0.6,0.1l-1.2,0.2
					c-0.8,0-1.6,0.1-2.4,0.1c-1.6-0.1-3.2-0.3-4.7-0.9c-1.5-0.6-2.9-1.4-4.2-2.4c-1.3-1-2.3-2.2-3.3-3.5c-0.9-1.3-1.7-2.7-2.2-4.3
					l-0.2-0.5l0.5-0.1c0.9-0.3,1.7-0.8,2.4-1.6c0.6-0.8,1.1-1.7,1.5-2.7c0.7-2,1-4.1,1.1-6.2l0-0.5l0.4,0c2.4,0.1,4.8,0.1,7.2,0.3
					l7.2,0.3l0.3,0l0,0.3c0,1.1,0.1,2.2,0.2,3.3c0.1,1.1,0.4,2.2,0.8,3.2c0.2,0.5,0.5,1,0.8,1.4c0.3,0.4,0.7,0.8,1.2,1.1
					C97.9,75.1,99,75.6,100.1,75.2z M100.1,75.2c-1,0.5-2.3,0.1-3.2-0.6c-0.5-0.3-0.9-0.7-1.3-1.1C95.3,73,95,72.5,94.7,72
					c-0.5-1-0.8-2.1-1-3.2c-0.2-1.1-0.3-2.2-0.3-3.4l0.3,0.3l-7.2-0.1c-2.4,0-4.8-0.1-7.2-0.2l0.5-0.4c0,1.1-0.1,2.2-0.3,3.3
					c-0.2,1.1-0.4,2.2-0.8,3.2c-0.4,1-0.8,2.1-1.6,3c-0.7,0.9-1.7,1.6-2.9,1.9l0.3-0.6c1,2.8,2.8,5.5,5.1,7.4c2.3,2,5.3,3.1,8.4,3.3
					c0.8,0,1.5,0,2.3,0l1.1-0.2c0.2,0,0.4-0.1,0.6-0.1l0.5-0.2c1.5-0.4,2.8-1.3,3.8-2.4C98.5,81.4,99.7,78.3,100.1,75.2z"/>
			</g>
			<path class="st8" d="M82.8,69.2c0,0-4.1,5.6-3.1,8.9c1.1,3.3,3.7,6.4,6.3,6.8l-3.7,0.6c-6.2-3-8.2-9.5-8.2-9.5
				c5.2-1.3,5.2-11,5.2-11l14.4,0.4c0,0,0,1.1,0.1,2.5C92.2,68.9,87.9,70.8,82.8,69.2z"/>
			<g>
				<path class="st4" d="M55.9,184.7l-2.7,9.2l-1.4,4.8c0,0-31.3-18.5-32-31.8c-0.7-13.2,7.1-40.9,7.1-40.9s1.8,0.9,4.6,2
					c2,0.8,4.4,1.7,7,2.4c6.6,1.8,8.5,2.3,8.5,2.3S39,158.9,41,169C42.9,179.1,55.9,184.7,55.9,184.7z"/>
				<path class="st7" d="M55.9,184.6l-1.9,7c-0.6,2.4-1.3,4.7-2,7l-0.1,0.4l-0.3-0.2c-6.3-3.7-12.4-8-18.1-12.6
					c-2.8-2.4-5.5-4.9-8-7.6c-1.2-1.4-2.3-2.9-3.3-4.4c-1-1.6-1.9-3.2-2.3-5c-0.5-1.8-0.4-3.7-0.4-5.5c0.1-0.9,0.1-1.8,0.2-2.8
					l0.3-2.7c0.5-3.6,1-7.3,1.7-10.9c1.3-7.2,3-14.4,4.8-21.5l0.1-0.4l0.4,0.2c1.6,0.8,3.2,1.4,4.9,2.1c1.6,0.6,3.3,1.2,5,1.7
					c1.7,0.5,3.4,0.9,5.1,1.4l5.1,1.4l0.5,0.1l-0.1,0.5c-1.4,4.7-2.7,9.5-3.8,14.3c-0.5,2.4-1.1,4.8-1.5,7.3
					c-0.5,2.4-0.8,4.9-1.1,7.3c-0.2,2.4-0.3,4.9,0.1,7.3c0.4,2.4,1.6,4.6,3,6.6c1.5,2,3.3,3.6,5.3,5.1
					C51.6,182.2,53.7,183.5,55.9,184.6z M55.8,184.7c-2.2-0.9-4.4-2.2-6.5-3.6c-2-1.4-3.9-3.1-5.5-5.1c-1.6-2-2.8-4.3-3.3-6.8
					c-0.5-2.5-0.4-5-0.2-7.5c0.4-5,1.3-9.9,2.4-14.7c1.1-4.8,2.3-9.7,3.8-14.4l0.4,0.6l-5.1-1.4c-1.7-0.5-3.4-0.9-5.1-1.5
					c-1.7-0.5-3.4-1.1-5-1.8c-1.6-0.7-3.3-1.4-4.9-2.2l0.5-0.2c-2,7-3.8,14.1-5.2,21.3c-0.7,3.6-1.3,7.2-1.7,10.8l-0.2,2.7
					c-0.1,0.9-0.1,1.8-0.1,2.7c0,1.8-0.1,3.7,0.5,5.4c0.5,1.7,1.4,3.3,2.4,4.8c1,1.5,2.2,2.9,3.4,4.3c2.4,2.7,5.1,5.2,7.9,7.5
					c5.6,4.7,11.6,8.9,17.8,12.8l-0.4,0.2l2.1-6.9L55.8,184.7z"/>
			</g>
			<g>
				<path class="st4" d="M154.9,166.8c-0.5,9.7-17.5,22.3-26.5,28.3c-3.3,2.2-5.5,3.5-5.5,3.5l-4.1-14c0,0,2.6-1.1,5.6-3.2
					c0.1-0.1,0.2-0.1,0.3-0.2c0,0,0,0,0,0c3.7-2.6,8-6.8,9-12.2c1.9-10.1-7-36.5-7-36.5s1.9-0.5,6.1-1.7c1-0.3,2.1-0.6,3.3-0.9
					c6.4-1.8,11.6-4.1,11.6-4.1S155.6,153.6,154.9,166.8z"/>
				<path class="st7" d="M155,166.8c-0.1,1.9-0.8,3.8-1.7,5.5c-0.9,1.7-2.1,3.3-3.3,4.8c-2.4,3-5.2,5.7-8.1,8.3
					c-2.9,2.6-6,4.9-9.1,7.2c-3.1,2.3-6.4,4.3-9.7,6.4l-0.5,0.3l-0.1-0.5l-3.9-14l-0.1-0.2l0.2-0.1c1-0.4,2-1,3-1.5
					c1-0.6,1.9-1.2,2.9-1.8l-0.1,0.2l0,0c0,0,0,0,0.1-0.1c0.1-0.1,0.1,0,0.1-0.1l0,0l-0.1,0c1.8-1.3,3.5-2.7,4.9-4.3
					c1.4-1.7,2.7-3.5,3.4-5.6c0.4-1,0.7-2.1,0.7-3.2c0.2-1.1,0.1-2.2,0.1-3.3c-0.1-2.2-0.4-4.4-0.7-6.5c-0.7-4.3-1.8-8.6-2.9-12.9
					c-1.2-4.2-2.4-8.5-3.8-12.6l-0.2-0.5l0.5-0.1l10.6-2.9c3.5-1,7-2.3,10.3-3.7l0.5-0.2l0.2,0.6c0.9,3.4,1.8,6.7,2.5,10.1
					c0.8,3.4,1.5,6.8,2.1,10.2c0.6,3.4,1.2,6.9,1.5,10.3C154.8,159.9,155.2,163.4,155,166.8z M154.9,166.8c0.1-3.5-0.2-6.9-0.7-10.4
					c-0.5-3.4-1.1-6.8-1.9-10.2c-1.5-6.8-3.2-13.5-5-20.2l0.7,0.3c-3.4,1.5-6.9,2.7-10.5,3.8c-1.8,0.5-3.6,1-5.3,1.5l-5.3,1.4
					l0.3-0.6c1.4,4.2,2.6,8.5,3.7,12.7c1.1,4.3,2,8.6,2.7,13c0.3,2.2,0.5,4.4,0.6,6.6c0,1.1,0,2.2-0.2,3.3c-0.1,1.1-0.4,2.2-0.8,3.3
					c-0.8,2.1-2,4-3.5,5.6c-1.5,1.7-3.1,3.1-5,4.4l0,0l-0.1,0c0,0,0,0,0,0c0,0,0,0,0.1,0c0.1-0.1,0-0.1,0.1-0.1c0,0,0,0,0,0l0,0.1
					l-0.1,0.1c-0.9,0.6-1.9,1.3-2.9,1.9c-1,0.6-2,1.1-3,1.6l0.1-0.3l4.3,13.9l-0.6-0.2l4.8-3.1c1.6-1,3.2-2.2,4.8-3.2
					c3.2-2.2,6.2-4.5,9.2-7c3-2.4,5.8-5.1,8.3-8c1.2-1.5,2.4-3,3.3-4.7C154,170.6,154.7,168.8,154.9,166.8z"/>
			</g>
			<path class="st9" d="M75,75.2c0,0,4.3,10.6,12.6,10.8c8.6,0.1,10.6-5.5,11.7-10.8c40.8-0.4,53.3,53.4,53.3,53.4s-4.5,2.1-8.8,3.4
				c-4.6,1.4-14.4,4.1-14.4,4.1l0.9,74.2H43.6l1.8-74.1c0,0-8.9-2.1-13.5-3.6c-6.7-2.2-9.3-4.4-9.3-4.4S33.4,75.1,75,75.2z"/>
			<path class="st3" d="M47.7,128.6c0.3-3.3,0.9-6.5,1.7-9.6c0.4-1.6,1-3.1,1.4-4.7c0.4-1.6,0.8-3.2,1.1-4.8
				c0.6-3.2,1.4-6.4,2.4-9.5c1-3.1,2.2-6.2,3.8-9c0,0,0,0,0.1,0c0,0,0,0,0,0.1c-1,3.1-1.9,6.2-2.9,9.3c-1,3.1-1.9,6.2-2.9,9.3
				c-0.5,1.6-0.9,3.1-1.3,4.7c-0.3,1.6-0.6,3.2-0.9,4.8C49.6,122.3,48.8,125.4,47.7,128.6C47.8,128.6,47.8,128.6,47.7,128.6
				C47.7,128.6,47.7,128.6,47.7,128.6z"/>
			<path class="st3" d="M124.4,127.6c-0.4-1-0.8-2.1-1.3-3.1l-1.2-3.1l-2.4-6.2c-0.8-2.1-1.6-4.1-2.5-6.2c-0.4-1-0.9-2.1-1.3-3.1
				l-0.7-1.5c-0.3-0.5-0.5-1-0.7-1.5c1.4,1.8,2.4,3.8,3.4,5.8c1,2,1.9,4.1,2.7,6.2c0.8,2.1,1.6,4.2,2.2,6.3
				C123.3,123.2,123.9,125.4,124.4,127.6z"/>
			<path class="st3" d="M100.1,107.3c-0.4,4.5-1.5,9-3,13.3c-1.5,4.3-3.5,8.5-6,12.4c-1.3,1.9-2.7,3.7-4.2,5.4
				c-1.5,1.7-3.2,3.3-5.1,4.7c-1.8,1.4-3.8,2.6-5.9,3.6l-1.6,0.7l-1.6,0.6c-1.1,0.4-2.2,0.7-3.3,1c4.3-1.5,8.4-3.7,11.8-6.5
				c3.5-2.8,6.5-6.3,9-10c2.5-3.7,4.5-7.8,6.1-12.1c0.8-2.1,1.5-4.3,2.2-6.5C99.1,111.8,99.7,109.5,100.1,107.3z"/>
			<path class="st3" d="M84.1,116.3c-0.2,1.4-0.6,2.7-1.1,4c-0.5,1.3-1,2.6-1.7,3.7c-0.7,1.2-1.5,2.3-2.3,3.4l-2.3,3.4
				c-1.5,2.3-3.5,4.3-5.6,6c-2.2,1.7-4.8,2.9-7.4,3.6c0,0-0.1,0-0.1,0c0,0,0,0,0-0.1c2.4-1.3,4.7-2.6,6.8-4.3
				c2.1-1.7,4.1-3.5,5.9-5.5c0.9-1,1.8-2.1,2.4-3.3c0.4-0.6,0.7-1.2,1-1.8c0.3-0.6,0.6-1.2,0.9-1.8
				C81.7,121.2,82.8,118.8,84.1,116.3C84,116.2,84,116.2,84.1,116.3C84.1,116.2,84.1,116.3,84.1,116.3z"/>
			<path class="st3" d="M75.2,74.7c1.2,2.6,2.7,4.9,4.7,6.8c2,1.9,4.6,3.3,7.3,3.2c2.7,0,5.6-0.7,7.5-2.7c1.9-2,2.7-4.7,3.2-7.4
				l0-0.2l0.2,0c6.5-0.1,13,1.3,18.8,4.3c5.8,2.9,10.8,7.2,15,12.2c4.2,4.9,7.6,10.5,10.5,16.3c2.8,5.8,5.1,11.9,6.7,18.2l0.1,0.3
				l-0.3,0.1c-1.8,0.8-3.6,1.5-5.4,2.2c-1.8,0.7-3.7,1.2-5.6,1.7l-11.2,3.1l0.2-0.3l0.3,35.2l0.2,17.6l0.3,17.6l0,0.2l-0.2,0
				l-82.2,0.3l-0.5,0l0-0.5l1.6-70.3l0.4,0.5c-3.7-0.9-7.5-1.8-11.2-2.9c-1.9-0.6-3.7-1.2-5.5-2c-1.8-0.8-3.5-1.6-5.2-2.8l-0.2-0.2
				L25,125c1.5-6.3,3.7-12.3,6.4-18.1c2.7-5.8,6.1-11.3,10.3-16.2c4.1-4.9,9.2-9.1,14.9-11.9C62.4,76,68.8,74.6,75.2,74.7z
				 M75.1,74.8c-6.3,0-12.7,1.5-18.4,4.4c-5.7,2.9-10.6,7.1-14.7,11.9c-4.1,4.9-7.4,10.4-10,16.1c-2.7,5.8-4.8,11.8-6.2,18l-0.1-0.4
				c1.4,1.1,3.2,1.9,4.9,2.7c1.8,0.7,3.6,1.3,5.4,1.9c3.7,1.1,7.4,2,11.1,2.9l0.4,0.1l0,0.4L45.8,203l-0.5-0.5l82.2,0.3l-0.2,0.2
				l-0.2-17.6l-0.3-17.6l-0.5-35.2l0-0.3l0.2-0.1l11.1-3.2c1.9-0.5,3.7-1,5.5-1.7c1.8-0.7,3.6-1.4,5.3-2.2l-0.2,0.4
				c-1.6-6.2-3.9-12.2-6.7-18c-2.8-5.8-6.2-11.3-10.3-16.2c-4.1-4.9-9-9.2-14.7-12.1C111,76.4,104.6,75,98.2,75l0.3-0.2
				c-0.6,2.7-1.4,5.6-3.4,7.7c-1,1-2.3,1.8-3.6,2.2c-1.4,0.4-2.8,0.5-4.2,0.5c-2.9,0-5.5-1.5-7.5-3.4C77.8,79.7,76.2,77.3,75.1,74.8
				z"/>
			<path class="st2" d="M142.2,207H38.7l-2.3-63.6c-0.1-1.6,1.3-3,3-3h102.2c1.7,0,3,1.4,3,3L142.2,207z"/>
			<path class="st3" d="M137.6,204.2l-25.3,0.2L87,204.5l-25.5,0l-25.5-0.1l-0.3,0l0-0.3c-0.5-19.7-1.3-39.5-2.1-59.2l-0.1-3.7
				c0-0.6-0.1-1.3,0.2-1.9c0.2-0.6,0.7-1.2,1.2-1.6c0.6-0.4,1.3-0.6,1.9-0.5l1.9,0l3.7,0l14.8-0.1l29.6-0.1l29.6,0l14.8,0l3.7,0
				l1.9,0c0.7,0,1.4,0.2,2,0.6c0.6,0.4,1.1,1,1.3,1.7c0.1,0.3,0.2,0.7,0.2,1.1c0,0.4,0,0.6,0,1l-0.2,3.7L137.6,204.2z M137.5,204.1
				l1.7-59.2l0.1-3.7c0-0.7,0.1-1.2-0.1-1.6c-0.2-0.5-0.5-0.9-1-1.2c-0.4-0.3-0.9-0.4-1.5-0.4l-1.9,0l-3.7,0l-14.8,0l-29.6,0
				l-29.6-0.1l-14.8-0.1l-3.7,0l-1.9,0c-0.6,0-1.1,0.1-1.6,0.4c-0.5,0.3-0.8,0.8-1,1.3c-0.2,0.5-0.2,1.1-0.1,1.7l0.1,3.7
				c0.6,19.7,1.3,39.5,2.2,59.2l-0.3-0.3l25.3-0.1l25.3,0l25.4,0.1L137.5,204.1z"/>
			<path class="st9" d="M135,227c0,0,2-1.9,6-1.6c2.6,0.2,10,2.7,13.5,3c3.6,0.3,7.4-0.1,9.1,3.2c2.9,5.5,1,10-5,10.1
				c-3.2,0.1-5.6-2.3-10.7-2.3c-4.9,0-12.4-2.4-14.3-6.2"/>
			<path class="st10" d="M128.3,223.9c0,0,3.8,1.5,6.4,1.9c2.6,0.4,8.5,0.4,11,2.3c2.7,2.1,1.1,6.9-0.8,7.9
				c-3.1,1.6-5.4,0.4-10.6-1.9c-5.2-2.2-11.6-2.2-11.6-2.2"/>
			<g>
				<path class="st4" d="M10.6,178.8c-9-0.6-16.4,7.1-15,16c0,0.1,0,0.3,0.1,0.4c2.3,13.3,18.7,21.7,38.4,26.4
					c19.7,4.7,94.4,13.7,94.4,13.7s3.7-3.7,3.3-13.3c0,0-17.4-5.7-39.7-17.4C64.3,190,39.8,180.9,10.6,178.8z"/>
				<path class="st7" d="M10.6,178.9c-3.5-0.2-7.1,0.8-9.9,3.1c-2.7,2.2-4.7,5.5-5,9c-0.2,1.7-0.1,3.5,0.4,5.2l0.3,1.3
					c0.1,0.4,0.3,0.8,0.5,1.2l0.5,1.2l0.6,1.1c1.7,3.1,4.2,5.6,7,7.8c2.8,2.1,5.8,3.9,9,5.5c3.2,1.5,6.5,2.8,9.8,3.9
					c3.3,1.1,6.7,2.1,10.2,2.9c3.4,0.8,6.9,1.5,10.4,2.1c13.9,2.5,28,4.6,42,6.5c14,1.8,28.1,3.6,42.2,5.2l-0.3,0.1
					c0.7-0.8,1.2-1.9,1.7-2.9c0.4-1.1,0.7-2.2,1-3.3c0.2-1.1,0.4-2.3,0.5-3.4c0-0.6,0-1.2,0.1-1.7l0-1.7l0.3,0.4
					c-10.3-3.5-20.2-7.7-30-12.4c-4.9-2.3-9.7-4.8-14.5-7.3c-4.8-2.4-9.7-4.8-14.6-7c-9.8-4.4-19.9-8.3-30.3-11.2
					c-5.2-1.4-10.5-2.6-15.8-3.6C21.4,180,16,179.3,10.6,178.9z M10.6,178.8c5.4,0.4,10.8,1,16.1,1.9c5.3,0.9,10.6,2,15.9,3.3
					c10.5,2.7,20.7,6.4,30.6,10.8c5,2.2,9.8,4.6,14.6,7c4.8,2.5,9.6,4.9,14.4,7.3c9.7,4.7,19.6,8.9,29.8,12.5l0.3,0.1l0,0.3l0,1.8
					c0,0.6,0,1.2-0.1,1.8c-0.1,1.2-0.2,2.4-0.5,3.5c-0.3,1.2-0.6,2.3-1.1,3.4c-0.5,1.1-1,2.2-1.9,3.1l-0.1,0.1l-0.2,0
					c-14.1-1.8-28.1-3.6-42.1-5.6c-14-1.9-28.1-3.8-42.1-6L39,223c-1.7-0.3-3.5-0.7-5.2-1.1c-3.5-0.8-6.9-1.8-10.3-2.9
					c-6.7-2.3-13.4-5.2-18.9-9.7c-2.8-2.2-5.3-4.9-7-8.1l-0.6-1.2l-0.5-1.3c-0.2-0.4-0.3-0.8-0.5-1.3l-0.3-1.3
					c-0.5-1.7-0.5-3.6-0.3-5.3c0.4-3.6,2.4-6.8,5.2-9.1C3.4,179.6,7.1,178.6,10.6,178.8z"/>
			</g>
			<path class="st11" d="M147.4,228.9c0,0-1.9-1.3-2.7-0.2c-0.8,1.1-1.7,6.1-1.4,7c0.5,1.5,3.4,1.3,3.4,1.3l3-6.2L147.4,228.9z"/>
			<path class="st9" d="M39.2,227.4c0,0-2-1.9-6.2-1.6c-2.7,0.2-10.2,2.7-13.9,3c-3.7,0.3-7.3-0.1-9.4,2.6
				c-3.9,5.1,0.8,10.5,6.9,10.6c3.3,0.1,4.1-1.9,9.3-1.9c5.1,0,12.7-2.5,14.6-6.3"/>
			<path class="st10" d="M46.1,224.2c0,0-3.9,1.6-6.6,2c-2.7,0.4-8.8,0.4-11.3,2.4c-2.8,2.2-1.2,7.1,0.8,8.1
				c3.2,1.6,5.5,0.4,10.9-1.9c5.3-2.3,11.9-2.3,11.9-2.3"/>
			<g>
				<path class="st4" d="M163.6,178.8c9-0.6,16.4,7.1,15,16c0,0.1,0,0.3-0.1,0.4c-2.3,13.3-18.7,21.7-38.4,26.4
					c-19.7,4.7-94.4,13.7-94.4,13.7s-3.7-3.7-3.3-13.3c0,0,17.4-5.7,39.7-17.4C109.9,190,134.4,180.9,163.6,178.8z"/>
				<path class="st7" d="M163.6,178.8c3.5-0.2,7.2,0.8,10,3.1c2.8,2.2,4.8,5.5,5.2,9.1c0.2,1.8,0.2,3.6-0.3,5.3l-0.3,1.3
					c-0.1,0.4-0.3,0.8-0.5,1.3l-0.5,1.3l-0.6,1.2c-1.7,3.2-4.2,5.8-7,8.1c-5.6,4.5-12.2,7.4-18.9,9.7c-3.4,1.1-6.8,2.1-10.3,2.9
					c-1.7,0.4-3.5,0.8-5.2,1.1L130,224c-14,2.3-28,4.1-42.1,6c-14,2-28.1,3.8-42.1,5.6l-0.2,0l-0.1-0.1c-0.9-1-1.4-2-1.9-3.1
					c-0.5-1.1-0.8-2.3-1.1-3.4c-0.3-1.2-0.4-2.3-0.5-3.5c0-0.6-0.1-1.2-0.1-1.8l0-1.8l0-0.3l0.3-0.1c10.1-3.6,20.1-7.8,29.8-12.5
					c4.9-2.3,9.6-4.8,14.4-7.3c4.8-2.4,9.7-4.8,14.6-7c9.9-4.4,20.1-8.1,30.6-10.8c5.2-1.3,10.5-2.4,15.9-3.3
					C152.8,179.8,158.2,179.2,163.6,178.8z M163.6,178.9c-5.4,0.4-10.7,1.1-16.1,2c-5.3,1-10.6,2.2-15.8,3.6
					c-10.4,2.9-20.5,6.8-30.3,11.2c-4.9,2.2-9.8,4.6-14.6,7c-4.8,2.5-9.6,5-14.5,7.3c-9.8,4.6-19.7,8.9-30,12.4l0.3-0.4l0,1.7
					c0,0.6,0,1.2,0.1,1.7c0.1,1.1,0.2,2.3,0.5,3.4c0.2,1.1,0.5,2.2,1,3.3c0.4,1,1,2.1,1.7,2.9l-0.3-0.1c14.1-1.6,28.1-3.4,42.2-5.2
					c14-1.9,28.1-4,42-6.5c3.5-0.6,7-1.3,10.4-2.1c3.4-0.8,6.8-1.8,10.2-2.9c3.3-1.1,6.6-2.4,9.8-3.9c3.2-1.5,6.2-3.3,9-5.5
					c2.8-2.1,5.2-4.7,7-7.8l0.6-1.1l0.5-1.2c0.2-0.4,0.3-0.8,0.5-1.2l0.3-1.3c0.5-1.7,0.6-3.5,0.4-5.2c-0.4-3.5-2.3-6.8-5-9
					C170.7,179.7,167.1,178.7,163.6,178.9z"/>
			</g>
			<path class="st11" d="M26.5,229.3c0,0,1.9-1.3,2.7-0.2c0.8,1.2,1.7,6.3,1.4,7.1c-0.5,1.5-3.5,1.3-3.5,1.3l-3.1-6.3L26.5,229.3z"
				/>
			<g>
				<path class="st4" d="M85.8,67.9c0,0-18.4,2.4-16.2-34l19.1-9.7l15.8,9.7C104.5,33.8,108.7,70,85.8,67.9z"/>
				<path class="st7" d="M85.8,67.9c-3.5,0.2-7-1.4-9.5-3.9c-2.5-2.5-4.1-5.8-5.1-9.2c-1.1-3.4-1.6-6.9-1.9-10.4
					c-0.3-3.5-0.3-7.1-0.1-10.6l0-0.2l0.2-0.1l19-9.8l0.2-0.1l0.2,0.1l15.8,9.8l0.2,0.1l0,0.2c0.3,3.8,0.3,7.5,0,11.3
					c-0.3,3.7-0.9,7.5-2.2,11c-1.3,3.5-3.2,6.9-6.2,9.2c-1.5,1.1-3.3,1.9-5.1,2.3C89.6,68,87.7,68,85.8,67.9z M85.8,67.9
					c1.9,0.2,3.8,0.1,5.6-0.3c1.8-0.4,3.6-1.2,5-2.3c3-2.3,4.9-5.7,6-9.2c1.2-3.5,1.7-7.3,1.9-11c0.2-3.7,0.1-7.5-0.3-11.1l0.2,0.3
					l-15.8-9.6l0.5,0l-19.1,9.6l0.2-0.3c-0.2,3.5-0.3,7-0.1,10.5c0.2,3.5,0.6,7,1.6,10.4c1,3.4,2.5,6.7,4.9,9.2
					C78.8,66.4,82.3,68.1,85.8,67.9z"/>
			</g>
			<path class="st4" d="M92.6,168.8c0,3.6-2.9,6.5-6.5,6.5c-3.6,0-6.5-2.9-6.5-6.5c0-3.6,2.9-6.5,6.5-6.5
				C89.7,162.2,92.6,165.2,92.6,168.8z"/>
			<g>
				<g>
					<g>
						<g>
							<g>
								<g>
									<g>
										<g>
											<g>
												<g>
													<path class="st3" d="M77.9,48c0,0.7,0.6,1.3,1.3,1.3c0.7,0,1.3-0.5,1.3-1.3c0-0.7-0.6-1.3-1.3-1.3
														C78.5,46.7,77.9,47.3,77.9,48z"/>
												</g>
											</g>
										</g>
									</g>
								</g>
							</g>
						</g>
					</g>
				</g>
			</g>
			<g>
				<g>
					<g>
						<g>
							<g>
								<g>
									<g>
										<g>
											<g>
												<g>
													<g>
														<path class="st3" d="M76.9,46c0.2,0.2,1.2-0.6,2.6-0.7c1.4-0.1,2.5,0.6,2.7,0.5c0.1-0.1-0.1-0.4-0.6-0.7
															c-0.5-0.3-1.2-0.6-2.1-0.6c-0.9,0-1.6,0.4-2.1,0.7C77,45.6,76.8,45.9,76.9,46z"/>
													</g>
												</g>
											</g>
										</g>
									</g>
								</g>
							</g>
						</g>
					</g>
				</g>
			</g>
			<g>
				<g>
					<g>
						<g>
							<g>
								<g>
									<g>
										<g>
											<g>
												<g>
													<path class="st3" d="M92.4,48.2c0,0.7,0.6,1.3,1.3,1.3c0.7,0,1.3-0.5,1.3-1.3c0-0.7-0.6-1.3-1.3-1.3
														C93,46.9,92.4,47.5,92.4,48.2z"/>
												</g>
											</g>
										</g>
									</g>
								</g>
							</g>
						</g>
					</g>
				</g>
			</g>
			<g>
				<g>
					<g>
						<g>
							<g>
								<g>
									<g>
										<g>
											<g>
												<g>
													<g>
														<path class="st3" d="M91.1,45.8c0.2,0.2,1.2-0.6,2.6-0.7c1.4-0.1,2.5,0.6,2.7,0.5c0.1-0.1-0.1-0.4-0.6-0.7
															c-0.5-0.3-1.2-0.6-2.1-0.6c-0.9,0-1.6,0.4-2.1,0.7C91.2,45.4,91,45.7,91.1,45.8z"/>
													</g>
												</g>
											</g>
										</g>
									</g>
								</g>
							</g>
						</g>
					</g>
				</g>
			</g>
			<g>
				<g>
					<g>
						<g>
							<g>
								<g>
									<g>
										<g>
											<g>
												<g>
													<path class="st3" d="M87.3,57.6c0-0.1-0.7-0.2-2-0.3c-0.3,0-0.6-0.1-0.7-0.3c-0.1-0.2,0-0.6,0.2-0.9
														c0.3-0.8,0.5-1.5,0.8-2.4c1.2-3.4,2-6.1,1.9-6.2c-0.1,0-1.2,2.7-2.3,6c-0.3,0.8-0.5,1.6-0.8,2.4
														c-0.1,0.4-0.3,0.8-0.1,1.2c0.1,0.2,0.3,0.4,0.5,0.4c0.2,0.1,0.4,0.1,0.5,0.1C86.5,57.6,87.3,57.6,87.3,57.6z"/>
												</g>
											</g>
										</g>
									</g>
								</g>
							</g>
						</g>
					</g>
				</g>
			</g>
			<g>
				<g>
					<g>
						<g>
							<g>
								<g>
									<g>
										<g>
											<g>
												<g>
													<path class="st3" d="M92.6,59.8c-0.2-0.1-0.7,1.4-2.3,2.1c-1.6,0.7-3.2,0-3.2,0.2c-0.1,0.1,0.3,0.4,0.9,0.6
														c0.7,0.2,1.7,0.3,2.7-0.1c1-0.4,1.6-1.2,1.8-1.8C92.7,60.3,92.7,59.9,92.6,59.8z"/>
												</g>
											</g>
										</g>
									</g>
								</g>
							</g>
						</g>
					</g>
				</g>
			</g>
			<g>
				<g>
					<g>
						<g>
							<g>
								<g>
									<path class="st3" d="M90.6,40.1c0.2,0.4,1.6,0.2,3.3,0.3c1.7,0.1,3.1,0.6,3.3,0.2c0.1-0.2-0.2-0.5-0.7-0.9
										C95.9,39.4,95,39.1,94,39c-1-0.1-1.9,0.1-2.6,0.4C90.8,39.6,90.5,40,90.6,40.1z"/>
								</g>
							</g>
						</g>
					</g>
				</g>
			</g>
			<g>
				<g>
					<g>
						<g>
							<g>
								<g>
									<path class="st3" d="M77.3,41.8c0.3,0.3,1.2-0.1,2.4-0.1c1.2-0.1,2.2,0.2,2.4-0.2c0.1-0.2-0.1-0.5-0.5-0.8
										c-0.4-0.3-1.2-0.5-2-0.5c-0.8,0.1-1.5,0.4-1.9,0.7C77.3,41.3,77.2,41.6,77.3,41.8z"/>
								</g>
							</g>
						</g>
					</g>
				</g>
			</g>
			<g>
				<g>
					<path class="st6" d="M46,60.6c0.8,0,1.9-0.1,3.1-0.7c1.2-0.6,2.5-1.7,3.4-3.3c1-1.6,1.7-3.5,2.6-5.5c1.6-4,2.8-7.7,3.7-10.5
						c0.1-0.4,0.2-0.8,0.4-1.2c0.1-0.5,0.1-0.9,0.2-1.2C64,20.3,79.9,16.9,83,16.9c3.4,0,9.2-1.8,17.8,7.1c1.4,1.5,2.5,3,3.3,4.5
						c2.2,2.8,3.4,5.8,3.8,8.1c0.5,2.6,2,3.9,1.9,3.9c-0.6-0.6-1.8-1.2-2.5-3.7c-0.3-1.3-0.9-2.7-1.7-4.3c1.3,5.6-0.9,10-0.9,10
						l-3.1-0.8l-11-3.7c1-3.4-0.5-7.6-1.3-9.6l-0.1-0.1c-2.5,12.9-16.8,14.3-16.8,14.3l-2.6,5.1c-14.6-3.1-11.5,0.4-11.4-3.6
						c-0.7,2.2-1.5,4.8-2.6,7.5c-0.8,2-1.6,4-2.7,5.6c-1,1.6-2.4,2.8-3.8,3.4c-1.4,0.6-2.6,0.7-3.4,0.5c-0.8-0.2-1.2-0.4-1.2-0.5
						C44.8,60.4,45.2,60.6,46,60.6z"/>
				</g>
			</g>
		</g>
	</g>
</g>
</svg>
