<?xml version="1.0" encoding="UTF-8"?>
<svg width="16px" height="16px" viewBox="0 0 16 16" version="1.1" xmlns="http://www.w3.org/2000/svg" xmlns:xlink="http://www.w3.org/1999/xlink">
    <!-- Generator: Sketch 57.1 (83088) - https://sketch.com -->
    <title>play-button (1)</title>
    <desc>Created with Sketch.</desc>
    <g id="Page-1" stroke="none" stroke-width="1" fill="none" fill-rule="evenodd">
        <g id="play-button-(1)" transform="translate(0.603622, 0.000000)" fill-rule="nonzero">
            <g id="Group">
                <path d="M13.166165,5.36363783 L7.00481288,1.80639034 L4.59032596,0.412394366 C2.56086922,-0.75934004 0.0240160966,0.70531992 0.0240160966,3.04875654 L0.0240160966,12.9512435 C0.0240160966,15.2946801 2.56086922,16.7593078 4.59032596,15.5876056 L7.00481288,14.1935775 L13.1661328,10.63633 C15.1956217,9.46462777 15.1956217,6.53534004 13.166165,5.36363783 Z" id="Path" fill="#F7958F"></path>
                <path d="M4.85298994,10.5163783 L4.85298994,5.48362173 C4.85298994,3.97691751 5.65682093,2.58465996 6.96164185,1.83134004 L7.00481288,1.80642254 L4.59032596,0.412426559 C2.56086922,-0.75934004 0.0240160966,0.70531992 0.0240160966,3.04875654 L0.0240160966,12.9512435 C0.0240160966,15.2946801 2.56086922,16.7593078 4.59032596,15.5876056 L7.00481288,14.1935775 L6.96164185,14.16866 C5.65682093,13.41534 4.85298994,12.0230825 4.85298994,10.5163783 Z" id="Path" fill="#FFFFFF" opacity="0.118629092"></path>
            </g>
        </g>
    </g>
</svg>