<?xml version="1.0" encoding="UTF-8"?>
<svg width="14px" height="14px" viewBox="0 0 14 14" version="1.1" xmlns="http://www.w3.org/2000/svg" xmlns:xlink="http://www.w3.org/1999/xlink">
    <!-- Generator: Sketch 57.1 (83088) - https://sketch.com -->
    <title>Group</title>
    <desc>Created with Sketch.</desc>
    <g id="Page-1" stroke="none" stroke-width="1" fill="none" fill-rule="evenodd">
        <g id="Group" fill="#B6B6B6" fill-rule="nonzero">
            <path d="M7,0 C8.9019,0 9.1392,0.007 9.8854,0.042 C10.6309,0.077 11.1384,0.1939 11.585,0.3675 C12.047,0.5453 12.4362,0.7861 12.8254,1.1746 C13.1813456,1.52452717 13.4567675,1.94781227 13.6325,2.415 C13.8054,2.8609 13.923,3.3691 13.958,4.1146 C13.9909,4.8608 14,5.0981 14,7 C14,8.9019 13.993,9.1392 13.958,9.8854 C13.923,10.6309 13.8054,11.1384 13.6325,11.585 C13.4572736,12.0524436 13.1817845,12.4758319 12.8254,12.8254 C12.475373,13.1812235 12.0521165,13.4566268 11.585,13.6325 C11.1391,13.8054 10.6309,13.923 9.8854,13.958 C9.1392,13.9909 8.9019,14 7,14 C5.0981,14 4.8608,13.993 4.1146,13.958 C3.3691,13.923 2.8616,13.8054 2.415,13.6325 C1.94762832,13.4571314 1.52426905,13.1816611 1.1746,12.8254 C0.818584505,12.47553 0.543151864,12.0522285 0.3675,11.585 C0.1939,11.1391 0.077,10.6309 0.042,9.8854 C0.0091,9.1392 0,8.9019 0,7 C0,5.0981 0.007,4.8608 0.042,4.1146 C0.077,3.3684 0.1939,2.8616 0.3675,2.415 C0.542665272,1.94752558 0.818162547,1.52412474 1.1746,1.1746 C1.52436968,0.81846186 1.94770001,0.543010468 2.415,0.3675 C2.8616,0.1939 3.3684,0.077 4.1146,0.042 C4.8608,0.0091 5.0981,0 7,0 Z M7,3.5 C5.06700338,3.5 3.5,5.06700338 3.5,7 C3.5,8.93299662 5.06700338,10.5 7,10.5 C8.93299662,10.5 10.5,8.93299662 10.5,7 C10.5,5.06700338 8.93299662,3.5 7,3.5 L7,3.5 Z M11.55,3.325 C11.55,2.84175084 11.1582492,2.45 10.675,2.45 C10.1917508,2.45 9.8,2.84175084 9.8,3.325 C9.8,3.80824916 10.1917508,4.2 10.675,4.2 C11.1582492,4.2 11.55,3.80824916 11.55,3.325 Z M7,4.9 C8.15979797,4.9 9.1,5.84020203 9.1,7 C9.1,8.15979797 8.15979797,9.1 7,9.1 C5.84020203,9.1 4.9,8.15979797 4.9,7 C4.9,5.84020203 5.84020203,4.9 7,4.9 Z" id="Shape"></path>
        </g>
    </g>
</svg>