<?xml version="1.0" encoding="UTF-8"?>
<svg width="14px" height="12px" viewBox="0 0 14 12" version="1.1" xmlns="http://www.w3.org/2000/svg" xmlns:xlink="http://www.w3.org/1999/xlink">
    <!-- Generator: Sketch 57.1 (83088) - https://sketch.com -->
    <title>Path Copy</title>
    <desc>Created with Sketch.</desc>
    <g id="Page-1" stroke="none" stroke-width="1" fill="none" fill-rule="evenodd">
        <g id="InstaMailer" transform="translate(-35.000000, -11.000000)" fill="#B2B2B2" fill-rule="nonzero">
            <path d="M48.9993132,12.3513674 C48.4749704,12.5832999 47.9189286,12.7356211 47.3495879,12.8032904 C47.9496915,12.4443847 48.3988362,11.8795365 48.6133242,11.2140047 C48.0501374,11.5491696 47.4326923,11.7840597 46.7891484,11.9111201 C45.9003087,10.9601033 44.4830203,10.7257417 43.3353477,11.3400026 C42.1876751,11.9542635 41.5965857,13.2635554 41.8949176,14.5306256 C39.5851803,14.4148586 37.4332032,13.3238911 35.9745879,11.529252 C35.7192927,11.9677481 35.585134,12.4662209 35.5858516,12.9736201 C35.5858516,13.9694992 36.0927198,14.8493069 36.8633242,15.3644168 C36.4072863,15.3500598 35.961286,15.2269035 35.5625,15.0052135 L35.5625,15.0409278 C35.5627838,16.4083974 36.5264522,17.5863421 37.8667582,17.8575487 C37.4434169,17.9722718 36.9995238,17.989182 36.5686813,17.9069992 C36.9444553,19.0774546 38.0229749,19.8793741 39.2520604,19.9021915 C38.0487236,20.8472598 36.5190522,21.2752021 35,21.091752 C36.3129792,21.9361426 37.8414126,22.3844195 39.4024725,22.3829643 C44.6861264,22.3829643 47.5755495,18.0059003 47.5755495,14.2098838 C47.5755495,14.0862575 47.5721154,13.9612575 47.5666209,13.8390047 C48.1290276,13.4325265 48.6144222,12.9289906 49,12.3520542 L48.9993132,12.3513674 Z" id="Path-Copy"></path>
        </g>
    </g>
</svg>