<?xml version="1.0" encoding="utf-8"?>
<!-- Generator: Adobe Illustrator 22.0.0, SVG Export Plug-In . SVG Version: 6.00 Build 0)  -->
<svg version="1.1" id="Layer_1" xmlns="http://www.w3.org/2000/svg" xmlns:xlink="http://www.w3.org/1999/xlink" x="0px" y="0px"
	 viewBox="0 0 168.5 166.8" style="enable-background:new 0 0 168.5 166.8;" xml:space="preserve">
<style type="text/css">
	.st0{opacity:0.2;}
	.st1{fill:#FFFFFF;}
	.st2{opacity:0.5;fill:#FFFFFF;}
	.st3{opacity:0.56;fill:#FFFFFF;}
	.st4{fill:#4E9FF9;}
	.st5{fill:#0D7FD3;}
	.st6{fill:#1A2E35;}
</style>
<g>
	<g class="st0">
		<g>
			<path class="st1" d="M55.3,165.7c-0.3-0.1-0.7-0.2-1-0.3c-16.3-4.5-26-19.3-24.3-36.3c0.7-6.3,3.1-12.1,4.6-18.7
				c0.1-0.6,0.3-1.1,0.4-1.7c1.9-9.2,1.6-20.2-8.1-36.4c-15-25.1-22.7-47.3-5.6-62.1c0.2-0.2,0.4-0.4,0.6-0.5c2.4-2,5.3-3.9,8.8-5.6
				C40.6-1,53.2-0.1,66,4.7c0.4,0.2,0.8,0.3,1.2,0.5c8.8,3.5,17.7,8.7,25.9,15c0.9,0.7,1.8,1.3,2.7,1.9c0.3,0.2,0.5,0.4,0.8,0.6
				c5.3,3.4,11.3,5.8,17.3,7.6c0.3,0.1,0.6,0.2,0.8,0.3c11.3,3.4,22.9,5,31.6,8.4c0.7,0.3,1.4,0.6,2.1,0.9c0.3,0.1,0.6,0.3,0.9,0.4
				c2.3,1.1,4.5,2.5,6.4,4c0.2,0.2,0.5,0.4,0.7,0.5c5,4.2,8.5,9.5,10.4,15.8c0.1,0.3,0.2,0.6,0.3,0.9c2.7,9.8,1.5,21.5-4,33.9
				c-0.1,0.3-0.3,0.6-0.4,1c-3.7,8.1-9.2,16.5-16.7,24.7c-0.2,0.3-0.5,0.5-0.7,0.8c-6.8,7.4-15.2,14.7-25.3,21.5
				c-0.2,0.2-0.5,0.3-0.7,0.5c-3.5,2.4-7.2,4.7-11.1,6.9c-0.2,0.1-0.5,0.3-0.7,0.4c-3,1.7-6.1,3.4-9.4,5c-0.2,0.1-0.5,0.3-0.8,0.4
				c-3.6,1.8-7.3,3.6-11.2,5.2C74.6,167,64,167.8,55.3,165.7z"/>
		</g>
	</g>
	<path class="st2" d="M47.1,21.8l0.1,0.2c0.3,0.5-0.3,1.1-0.8,0.8l-0.2-0.1c-1.7-1.1-3.8-1.1-5.5,0l-0.2,0.1
		c-0.5,0.3-1.1-0.3-0.8-0.8l0.1-0.2c1.1-1.7,1.1-3.8,0-5.5l-0.1-0.2c-0.3-0.5,0.3-1.1,0.8-0.8l0.2,0.1c1.7,1.1,3.8,1.1,5.5,0
		l0.2-0.1c0.5-0.3,1.1,0.3,0.8,0.8l-0.1,0.2C46.1,18,46,20.2,47.1,21.8z"/>
	<path class="st3" d="M148.2,6.6l0.1,0.2c0.3,0.5-0.3,1.1-0.8,0.8l-0.2-0.1c-1.7-1.1-3.8-1.1-5.5,0l-0.2,0.1
		c-0.5,0.3-1.1-0.3-0.8-0.8l0.1-0.2c1.1-1.7,1.1-3.8,0-5.5l-0.1-0.2c-0.3-0.5,0.3-1.1,0.8-0.8l0.2,0.1c1.7,1.1,3.8,1.1,5.5,0
		l0.2-0.1c0.5-0.3,1.1,0.3,0.8,0.8l-0.1,0.2C147.1,2.8,147.1,4.9,148.2,6.6z"/>
	<path class="st3" d="M14.5,119.8l0.3,0.3c0.7,0.7,0.1,1.9-0.9,1.6l-0.4-0.1c-3.1-0.9-6.5,0.1-8.7,2.5l-0.3,0.3
		c-0.7,0.7-1.9,0.1-1.6-0.9l0.1-0.4c0.9-3.1-0.1-6.5-2.5-8.7l-0.3-0.3c-0.7-0.7-0.1-1.9,0.9-1.6l0.4,0.1c3.1,0.9,6.5-0.1,8.7-2.5
		l0.3-0.3c0.7-0.7,1.9-0.1,1.6,0.9l-0.1,0.4C11.1,114.3,12.1,117.7,14.5,119.8z"/>
	<path class="st4" d="M145.1,114.8l-96.9,7.9c-4.1,0.3-7.7-2.7-8.1-6.9L35.6,61c-0.3-4.1,2.7-7.7,6.9-8.1l96.9-7.9
		c4.1-0.3,7.7,2.7,8.1,6.9l4.4,54.8C152.2,110.8,149.2,114.4,145.1,114.8z"/>
	<path class="st5" d="M105.2,81.7c0.1,0.7-0.5,1.3-1.2,1.4l-54.4,4.2c-0.7,0.1-1.3-0.5-1.4-1.2l-1.5-18.3c-0.1-0.7,0.5-1.3,1.2-1.4
		l54.4-4.2c0.7-0.1,1.3,0.5,1.4,1.2L105.2,81.7z"/>
	<g>
		<path class="st6" d="M103.4,79.9c0,0.4-0.1,0.8-0.4,1.1c-0.3,0.3-0.8,0.4-1.2,0.4l-2.4,0.2L94.7,82c-3.2,0.3-6.4,0.6-9.6,0.8
			c-6.4,0.6-12.8,1.2-19.2,1.7c-3.2,0.3-6.4,0.6-9.6,0.8l-4.8,0.4l-2.4,0.2l-1.2,0.1c-0.5,0.1-1.1-0.1-1.4-0.5
			c-0.2-0.2-0.3-0.4-0.4-0.7c0-0.1-0.1-0.3-0.1-0.4l0-0.3L46,82.9l-0.1-2.4c-0.1-1.6-0.2-3.2-0.3-4.8c-0.2-3.2-0.6-6.4-0.9-9.6
			c0-0.5,0.1-1,0.5-1.3c0.3-0.4,0.9-0.4,1.3-0.4l2.4-0.2l4.8-0.4l9.6-0.8c6.4-0.5,12.8-1.1,19.2-1.5c3.2-0.2,6.4-0.5,9.6-0.7
			l4.8-0.3l2.4-0.1l1.2-0.1c0.5-0.1,1,0.1,1.4,0.5c0.2,0.2,0.3,0.4,0.4,0.6c0,0.1,0.1,0.2,0.1,0.4l0,0.3l0.1,1.2l0.2,2.4l0.3,4.8
			L103.4,79.9z M103.3,79.9l-0.9-9.6l-0.5-4.8l-0.2-2.4l-0.1-1.2l0-0.3c0-0.1,0-0.2-0.1-0.2c-0.1-0.1-0.1-0.3-0.2-0.4
			c-0.2-0.2-0.5-0.3-0.8-0.3l-1.2,0.1l-2.4,0.2L92,61.6c-3.2,0.3-6.4,0.5-9.6,0.8c-6.4,0.5-12.8,1-19.2,1.5l-9.6,0.7l-4.8,0.3
			L46.5,65c-0.4,0-0.7,0-0.9,0.3c-0.2,0.2-0.4,0.5-0.4,0.8c0.2,3.2,0.4,6.4,0.7,9.6c0.2,1.6,0.3,3.2,0.5,4.8l0.3,2.4l0.1,1.2l0,0.3
			c0,0.1,0,0.1,0.1,0.2c0.1,0.1,0.1,0.3,0.2,0.4c0.2,0.2,0.5,0.3,0.8,0.2L49,85l2.4-0.2l4.8-0.4c3.2-0.3,6.4-0.5,9.6-0.7
			c6.4-0.5,12.8-0.9,19.2-1.3c3.2-0.2,6.4-0.4,9.6-0.6l4.8-0.4l2.4-0.2c0.4,0,0.8-0.1,1.1-0.3C103.2,80.7,103.4,80.3,103.3,79.9z"/>
	</g>
	<g>
		<path class="st6" d="M88.2,103.9c0,0.3-0.1,0.6-0.3,0.8c-0.2,0.2-0.5,0.2-0.8,0.3l-1.7,0.1l-3.3,0.3c-2.2,0.2-4.4,0.4-6.6,0.6
			c-4.4,0.4-8.8,0.9-13.2,1.2c-2.2,0.2-4.4,0.4-6.6,0.5l-3.3,0.2l-1.7,0.1l-0.8,0.1c-0.4,0.1-0.8-0.1-1.1-0.4
			c-0.1-0.1-0.2-0.3-0.3-0.5c0-0.1,0-0.2-0.1-0.3l0-0.2l0-0.8l-0.1-1.7c0-1.1-0.1-2.2-0.2-3.3c-0.2-2.2-0.4-4.4-0.7-6.6
			c0-0.4,0.1-0.7,0.4-1c0.3-0.3,0.7-0.3,0.9-0.3l1.7-0.2l3.3-0.3l6.6-0.6c4.4-0.4,8.8-0.8,13.2-1.1c2.2-0.2,4.4-0.4,6.6-0.5l3.3-0.2
			l1.7-0.1l0.8,0c0.3,0,0.8,0.1,1,0.4c0.1,0.1,0.2,0.3,0.3,0.5c0,0.1,0,0.2,0,0.3l0,0.2l0,0.8l0.1,1.7l0.2,3.3L88.2,103.9z
			 M88.1,103.9l-0.6-6.6L87.1,94L87,92.3l-0.1-0.8l0-0.2c0,0,0-0.1,0-0.1c0-0.1-0.1-0.2-0.1-0.2c-0.1-0.1-0.3-0.2-0.5-0.1l-0.8,0.1
			l-1.7,0.2l-3.3,0.3c-2.2,0.2-4.4,0.4-6.6,0.6c-4.4,0.4-8.8,0.7-13.2,1l-6.6,0.4l-3.3,0.2l-1.7,0.1c-0.3,0-0.4,0-0.6,0.1
			c-0.1,0.1-0.2,0.3-0.2,0.5c0.1,2.2,0.2,4.4,0.4,6.6c0.1,1.1,0.2,2.2,0.4,3.3l0.2,1.6l0.1,0.8l0,0.2c0,0,0,0.1,0,0.1
			c0,0.1,0.1,0.1,0.1,0.2c0.1,0.1,0.3,0.1,0.4,0.1l0.8-0.1l1.7-0.1l3.3-0.3c2.2-0.2,4.4-0.3,6.6-0.5c4.4-0.3,8.8-0.5,13.2-0.8
			c2.2-0.1,4.4-0.2,6.6-0.4l3.3-0.2l1.7-0.1c0.3,0,0.5,0,0.7-0.2C88.1,104.4,88.2,104.2,88.1,103.9z"/>
	</g>
	<g>
		<path class="st6" d="M70.2,148.6c0-1.5,0.3-2.9,0.6-4.4c0.3-1.4,0.6-2.8,1.2-4.2c0.5-1.4,1.2-2.7,1.7-4c0.5-1.4,0.8-2.8,1-4.2
			c0.2-1.4,0.5-2.9,0.8-4.3c0.3-1.4,0.7-2.8,1.1-4.2c0.9-2.8,1.9-5.5,3.4-8.1l0.2,0.1c-0.2,3-0.8,5.8-1.5,8.6
			c-0.4,1.4-0.9,2.8-1.3,4.1c-0.5,1.4-1,2.7-1.6,4.1c-0.6,1.3-1.1,2.7-1.4,4.1c-0.3,1.4-0.4,2.9-0.7,4.3c-0.3,1.4-0.8,2.8-1.3,4.2
			c-0.5,1.4-1.1,2.7-1.9,4L70.2,148.6z"/>
	</g>
	<g>
		<path class="st6" d="M119,144.7c-1-1.1-1.7-2.4-2.5-3.6c-0.7-1.3-1.4-2.5-1.9-3.9c-0.5-1.4-0.8-2.8-1.4-4.1
			c-0.6-1.3-1.3-2.6-2.1-3.8c-0.8-1.2-1.6-2.5-2.2-3.8c-0.7-1.3-1.4-2.5-2-3.9c-1.2-2.7-2.2-5.4-2.9-8.3l0.2-0.1
			c1.8,2.3,3.3,4.9,4.6,7.4c0.7,1.3,1.2,2.6,1.8,4c0.6,1.3,1.1,2.7,1.5,4.1c0.5,1.4,1,2.7,1.7,4c0.7,1.3,1.6,2.4,2.3,3.7
			c0.7,1.3,1.3,2.6,1.8,3.9c0.5,1.4,1,2.7,1.3,4.2L119,144.7z"/>
	</g>
	<g>
		<path class="st6" d="M94.6,146.6c-0.6-2.6-1.1-5.3-1.4-8c-0.4-2.7-0.6-5.3-0.9-8c-0.2-2.7-0.4-5.4-0.4-8c-0.1-2.7-0.1-5.4,0.1-8.1
			c0.6,2.6,1.1,5.3,1.4,8c0.4,2.7,0.6,5.3,0.9,8c0.2,2.7,0.4,5.4,0.4,8C94.8,141.2,94.8,143.9,94.6,146.6z"/>
	</g>
	<g>
		<path class="st6" d="M140.5,110.4c-29.2,2.4-58.3,5.3-87.6,7.4l-5.5,0.4l-2.7,0.2c-0.9,0.1-1.9,0.2-2.8,0
			c-1.9-0.2-3.7-1.3-4.9-2.7c-0.6-0.7-1.1-1.6-1.4-2.5c-0.3-0.9-0.4-1.9-0.5-2.8l-1.7-21.9c-0.5-7.3-1.2-14.6-1.8-21.9
			c-0.3-3.7-0.7-7.3-0.9-11c0-1.9,0.8-3.8,2.1-5.1c1.3-1.4,3.1-2.3,5-2.4c29.2-2.5,58.4-5,87.6-7.3l5.5-0.4l2.7-0.2
			c0.9-0.1,1.9-0.2,2.8,0c1.9,0.2,3.8,1.3,5,2.8c0.6,0.7,1.1,1.6,1.4,2.5c0.3,0.9,0.4,1.9,0.5,2.8l1.6,21.9l1.6,21.9
			c0.2,3.7,0.6,7.3,0.8,11c0,1.9-0.8,3.7-2.1,5C144.1,109.4,142.3,110.2,140.5,110.4z M140.5,110.3c1.8-0.2,3.6-1,4.8-2.3
			c1.2-1.3,2-3.1,2-4.9c-0.2-3.6-0.6-7.3-0.9-10.9l-1.9-21.9l-1.9-21.9c-0.1-0.9-0.2-1.8-0.5-2.6c-0.3-0.8-0.7-1.6-1.3-2.2
			c-1.1-1.3-2.7-2.2-4.4-2.4c-0.8-0.1-1.7,0-2.6,0l-2.7,0.2l-5.5,0.4c-29.2,2.4-58.4,4.6-87.6,6.9c-1.8,0.1-3.5,0.9-4.7,2.2
			c-1.2,1.3-1.9,3-2,4.8c0.2,3.6,0.5,7.3,0.8,10.9c0.6,7.3,1.1,14.6,1.8,21.9l1.9,21.9c0.1,0.9,0.2,1.8,0.5,2.6
			c0.3,0.8,0.7,1.6,1.3,2.3c1.1,1.3,2.8,2.2,4.5,2.5c0.9,0.1,1.7,0,2.7-0.1l2.7-0.2l5.5-0.5C82,114.4,111.3,112.7,140.5,110.3z"/>
	</g>
	<path class="st4" d="M128.8,91.7c0.1,1.2-0.8,2.3-2,2.4l-49.7,4.2c-1.2,0.1-2.3-0.8-2.4-2L68.5,22c-0.1-1.2,0.8-2.3,2-2.4l49.7-4.2
		c1.2-0.1,2.3,0.8,2.4,2L128.8,91.7z"/>
	<g>
		<path class="st6" d="M125.3,89c0.1,0.7-0.2,1.4-0.7,1.9c-0.3,0.2-0.6,0.4-0.9,0.5c-0.3,0.1-0.7,0.1-1,0.1l-4.1,0.4l-8.2,0.7
			L94,94.2l-16.4,1.5L73.5,96c-0.8,0.1-1.7-0.3-2.2-0.9c-0.3-0.3-0.5-0.7-0.6-1.1c-0.1-0.4-0.1-0.8-0.1-1.1l-0.7-8.2
			c-0.9-10.9-1.6-21.8-2.5-32.7c-0.9-10.9-1.9-21.8-2.8-32.7c-0.1-0.8,0.2-1.6,0.8-2.1c0.3-0.3,0.6-0.5,1-0.6
			c0.4-0.1,0.7-0.1,1.1-0.1l4.1-0.4l8.2-0.7L96.1,14l16.4-1.4l4.1-0.4c0.8-0.1,1.7,0.3,2.3,0.9c0.3,0.3,0.5,0.7,0.6,1.1
			c0.1,0.4,0.1,0.8,0.1,1.1l0.7,8.2c0.9,10.9,1.8,21.8,2.6,32.7C123.6,67.2,124.4,78.1,125.3,89z M125.2,89c-0.9-10.9-2-21.8-3-32.7
			c-1.1-10.9-2-21.8-2.9-32.7l-0.7-8.2c0-0.3,0-0.7-0.1-0.9c-0.1-0.3-0.2-0.5-0.4-0.7c-0.3-0.4-0.9-0.6-1.4-0.6l-4.1,0.3l-16.4,1.3
			l-16.4,1.3l-8.2,0.6l-4.1,0.3c-0.3,0-0.7,0-1,0.1c-0.3,0.1-0.6,0.2-0.8,0.4c-0.5,0.4-0.7,1-0.7,1.6C66,30.2,66.8,41.1,67.8,52
			c0.9,10.9,2,21.8,3,32.7l0.7,8.2c0,0.3,0,0.7,0.1,0.9c0.1,0.3,0.2,0.5,0.4,0.7c0.4,0.4,0.9,0.6,1.5,0.6l4.1-0.3l16.4-1.3l16.4-1.2
			l8.2-0.6l4.1-0.3c0.3,0,0.7,0,1-0.1c0.3-0.1,0.6-0.2,0.9-0.5C125,90.4,125.2,89.7,125.2,89z"/>
	</g>
	<path class="st4" d="M105.3,18.4c0.1,1.2-0.8,2.3-2,2.4l-21.9,1.8c-1.2,0.1-2.3-0.8-2.4-2l-0.6-6.8c-0.1-1.2,0.8-2.3,2-2.4
		l21.9-1.8c1.2-0.1,2.3,0.8,2.4,2L105.3,18.4z"/>
	<g>
		<path class="st6" d="M105.3,18.3c0.1,0.8-0.3,1.5-0.9,2c-0.3,0.2-0.7,0.4-1,0.5l-1.1,0.1l-4.4,0.6c-3,0.4-5.9,0.6-8.9,0.8
			l-4.5,0.2l-2.2,0.1c-0.4,0-0.7,0.1-1.1,0.1c-0.4,0-0.8-0.1-1.1-0.4c-0.7-0.4-1.1-1.2-1.1-2l-0.2-2.2c-0.1-1.5-0.3-3-0.5-4.5
			c-0.1-0.8,0.3-1.7,0.9-2.3c0.3-0.3,0.7-0.5,1.2-0.5c0.4-0.1,0.8-0.1,1.1-0.1l4.5-0.4c3-0.3,5.9-0.6,8.9-0.8c1.5-0.1,3-0.2,4.5-0.3
			l2.2-0.1c0.4,0,0.7-0.1,1.2,0c0.4,0,0.9,0.2,1.2,0.4c0.7,0.5,1.1,1.3,1.1,2.1l0.1,2.2C105.1,15.4,105.2,16.9,105.3,18.3z
			 M105.2,18.4c-0.1-1.5-0.3-3-0.5-4.5c-0.3-1.4,0-3.2-1.3-3.8c-0.3-0.2-0.6-0.2-0.9-0.2c-0.3,0-0.7,0.1-1.1,0.1l-2.2,0.2
			c-1.5,0.2-3,0.3-4.5,0.4c-3,0.3-5.9,0.5-8.9,0.7l-4.5,0.3l-1.1,0.1c-0.3,0-0.6,0.1-0.9,0.3c-0.5,0.4-0.8,1-0.8,1.7
			c0.1,1.5,0.2,3,0.3,4.5l0.2,2.2c0,0.7,0.4,1.4,1,1.7c0.3,0.2,0.6,0.3,1,0.3c0.3,0,0.7-0.1,1.1-0.1l2.2-0.3l4.4-0.5
			c3-0.3,5.9-0.5,8.9-0.6l4.5-0.2c0.7,0,1.5,0,2.1-0.4C105,19.8,105.3,19.1,105.2,18.4z"/>
	</g>
	<g>
		<path class="st5" d="M85.4,42.2c0.1,0.8-0.5,1.5-1.3,1.6l-6.9,0.6c-0.8,0.1-1.5-0.5-1.6-1.3L75,36.1c-0.1-0.8,0.5-1.5,1.3-1.6
			l6.9-0.6c0.8-0.1,1.5,0.5,1.6,1.3L85.4,42.2z"/>
		<path class="st5" d="M86.9,60.6c0.1,0.8-0.5,1.5-1.3,1.6l-6.9,0.6c-0.8,0.1-1.5-0.5-1.6-1.3l-0.6-6.9c-0.1-0.8,0.5-1.5,1.3-1.6
			l6.9-0.6c0.8-0.1,1.5,0.5,1.6,1.3L86.9,60.6z"/>
		<path class="st5" d="M88.4,79c0.1,0.8-0.5,1.5-1.3,1.6l-6.9,0.6c-0.8,0.1-1.5-0.5-1.6-1.3L78,72.9c-0.1-0.8,0.5-1.5,1.3-1.6
			l6.9-0.6c0.8-0.1,1.5,0.5,1.6,1.3L88.4,79z"/>
	</g>
	<g>
		<g>
			<path class="st6" d="M84.5,41.3c0.1,0.8-0.6,1.6-1.4,1.7l-2.3,0.4c-1.5,0.3-3.1,0.4-4.6,0.5c-1,0.1-1.9-0.8-1.9-1.7
				c0-0.8,0-1.5-0.1-2.3c-0.1-1.5-0.3-3.1-0.5-4.6c-0.2-0.9,0.6-1.9,1.6-2c0.8-0.1,1.5-0.2,2.3-0.3c1.5-0.2,3.1-0.3,4.6-0.4
				c1.1-0.1,2.1,0.8,2.1,1.8c0,0.8,0,1.5,0,2.3C84.4,38.3,84.4,39.8,84.5,41.3z M84.4,41.3c-0.1-1.5-0.4-3.1-0.7-4.6
				c-0.1-0.8-0.3-1.5-0.3-2.3c-0.1-0.5-0.5-0.9-1-0.9c-1.5,0.1-3.1,0.2-4.6,0.3C77,34,76.2,34,75.4,34.1c-0.6,0-1.1,0.5-1.1,1.2
				c0,1.5,0.1,3.1,0.3,4.6c0.1,0.8,0.2,1.5,0.3,2.3c0.1,0.6,0.7,1.1,1.3,1c1.5-0.2,3.1-0.3,4.6-0.3l2.3,0
				C83.8,42.8,84.5,42.1,84.4,41.3z"/>
		</g>
		<g>
			<path class="st6" d="M86,59.7c0.1,0.8-0.6,1.6-1.4,1.7l-2.3,0.4c-1.5,0.3-3.1,0.4-4.6,0.5c-1,0.1-1.9-0.8-1.9-1.7
				c0-0.8,0-1.5-0.1-2.3c-0.1-1.5-0.3-3.1-0.5-4.6c-0.2-0.9,0.6-1.9,1.6-2c0.8-0.1,1.5-0.2,2.3-0.3c1.5-0.2,3.1-0.3,4.6-0.4
				c1.1-0.1,2.1,0.8,2.1,1.8c0,0.8,0,1.5,0,2.3C85.9,56.6,85.9,58.2,86,59.7z M85.9,59.7c-0.1-1.5-0.4-3.1-0.7-4.6
				c-0.1-0.8-0.3-1.5-0.3-2.3c-0.1-0.5-0.5-0.9-1-0.9c-1.5,0.1-3.1,0.2-4.6,0.3c-0.8,0.1-1.5,0.1-2.3,0.1c-0.6,0-1.1,0.5-1.1,1.2
				c0,1.5,0.1,3.1,0.3,4.6c0.1,0.8,0.2,1.5,0.3,2.3c0.1,0.6,0.7,1.1,1.3,1c1.5-0.2,3.1-0.3,4.6-0.3l2.3,0
				C85.4,61.2,86,60.5,85.9,59.7z"/>
		</g>
		<g>
			<path class="st6" d="M87.6,78.1c0.1,0.8-0.6,1.6-1.4,1.7l-2.3,0.4c-1.5,0.3-3.1,0.4-4.6,0.5c-1,0.1-1.9-0.8-1.9-1.7
				c0-0.8,0-1.5-0.1-2.3c-0.1-1.5-0.3-3.1-0.5-4.6c-0.2-0.9,0.6-1.9,1.6-2c0.8-0.1,1.5-0.2,2.3-0.3c1.5-0.2,3.1-0.3,4.6-0.4
				c1.1-0.1,2.1,0.8,2.1,1.8c0,0.8,0,1.5,0,2.3C87.5,75,87.5,76.5,87.6,78.1z M87.5,78.1c-0.1-1.5-0.4-3.1-0.7-4.6
				c-0.1-0.8-0.3-1.5-0.3-2.3c-0.1-0.5-0.5-0.9-1-0.9c-1.5,0.1-3.1,0.2-4.6,0.3c-0.8,0.1-1.5,0.1-2.3,0.1c-0.6,0-1.1,0.5-1.1,1.2
				c0,1.5,0.1,3.1,0.3,4.6c0.1,0.8,0.2,1.5,0.3,2.3c0.1,0.6,0.7,1.1,1.3,1c1.5-0.2,3.1-0.3,4.6-0.3l2.3,0
				C86.9,79.6,87.6,78.8,87.5,78.1z"/>
		</g>
	</g>
	<g>
		<path class="st4" d="M95.2,13.2l-7.3,0.6c-1.8,0.1-3.3-1.2-3.5-3l-0.2-2.7c-0.1-1.8,1.2-3.3,3-3.5l7.3-0.6c1.8-0.1,3.3,1.2,3.5,3
			l0.2,2.7C98.3,11.5,96.9,13.1,95.2,13.2z M87.7,10.5l7.1-0.6l-0.2-2.5L87.5,8L87.7,10.5z"/>
	</g>
	<g>
		<g>
			<g>
				<path class="st6" d="M95.2,13.3c-1.7,0.1-3.4,0.4-5,0.7c-0.9,0.1-1.6,0.3-2.5,0.3c-1,0-1.9-0.4-2.6-1.1c-0.7-0.7-1-1.7-1-2.5
					C84,9.9,84,9,84,8.2c-0.1-0.9,0.2-1.8,0.8-2.5C85.3,5,86.1,4.5,87,4.4c1.7-0.2,3.3-0.4,5-0.6c0.9-0.1,1.6-0.2,2.6-0.3
					c1,0,2,0.4,2.7,1.1c0.7,0.7,1.1,1.7,1.1,2.6c0,0.8,0.1,1.7,0.1,2.5C98.5,11.7,96.9,13.2,95.2,13.3z M95.2,13.2
					c0.8-0.1,1.6-0.5,2.1-1.2c0.5-0.7,0.7-1.5,0.5-2.2c-0.1-0.8-0.3-1.7-0.4-2.5c-0.1-0.8-0.3-1.4-0.9-1.9c-0.5-0.5-1.2-0.8-1.9-0.8
					c-0.8,0-1.7,0.1-2.5,0.1c-1.7,0.1-3.4,0.2-5.1,0.2c-0.8,0-1.6,0.4-2.1,1c-0.5,0.6-0.8,1.4-0.7,2.2c0.1,0.8,0.2,1.7,0.3,2.5
					c0.1,0.8,0.4,1.5,1,2c0.5,0.5,1.3,0.8,2,0.8c0.8,0,1.7-0.1,2.5-0.1C91.8,13.3,93.5,13.3,95.2,13.2z"/>
				<path class="st6" d="M87.7,10.5c1.4-0.3,2.5-0.5,3.7-0.7c0.6-0.1,1.1-0.1,1.7-0.1c0.6,0,1.1,0.1,1.7,0l-0.2,0.2
					c0-0.8-0.2-1.7-0.3-2.5l0.3,0.2C94,7.8,93.4,7.9,92.8,8l-1.8,0.2c-1.2,0.1-2.4,0.2-3.6,0.2L87.9,8C87.8,8.7,87.8,9.5,87.7,10.5z
					 M87.6,10.5C87.4,9.8,87.2,9,87.1,8L87,7.7l0.4-0.1c1.2-0.2,2.4-0.4,3.5-0.4l1.8-0.1c0.6,0,1.2,0,1.8,0l0.3,0l0,0.2
					c0,0.8,0,1.7,0.1,2.5l0,0.2l-0.2,0c-0.6,0.1-1.2,0.2-1.8,0.3c-0.6,0.1-1.3,0.2-1.9,0.2C89.9,10.7,88.7,10.7,87.6,10.5z"/>
			</g>
		</g>
	</g>
	<g>
		<g>
			<path class="st6" d="M90,34.7c2.9-0.6,5.8-1,8.7-1.3c2.9-0.2,5.8-0.4,8.7-0.3c-2.9,0.6-5.8,1-8.7,1.3
				C95.8,34.6,92.9,34.8,90,34.7z"/>
		</g>
		<g>
			<path class="st6" d="M90,39.2c1.4-0.5,2.9-0.7,4.3-0.9c1.5-0.1,2.9-0.2,4.4,0.1c-1.4,0.5-2.9,0.7-4.3,0.9
				C92.9,39.5,91.4,39.5,90,39.2z"/>
		</g>
	</g>
	<g>
		<g>
			<path class="st6" d="M91.9,52.6c2.9-0.6,5.8-1,8.7-1.3c2.9-0.2,5.8-0.4,8.7-0.3c-2.9,0.6-5.8,1-8.7,1.3
				C97.7,52.6,94.8,52.8,91.9,52.6z"/>
		</g>
		<g>
			<path class="st6" d="M91.9,57.2c1.4-0.5,2.9-0.7,4.3-0.9c1.5-0.1,2.9-0.2,4.4,0.1c-1.4,0.5-2.9,0.7-4.3,0.9
				C94.8,57.4,93.3,57.5,91.9,57.2z"/>
		</g>
	</g>
	<g>
		<g>
			<path class="st6" d="M94.3,71.4c2.9-0.6,5.8-1,8.7-1.3c2.9-0.2,5.8-0.4,8.7-0.3c-2.9,0.6-5.8,1-8.7,1.3
				C100.2,71.3,97.2,71.5,94.3,71.4z"/>
		</g>
		<g>
			<path class="st6" d="M94.3,75.9c1.4-0.5,2.9-0.7,4.3-0.9c1.5-0.1,2.9-0.2,4.4,0.1c-1.4,0.5-2.9,0.7-4.3,0.9
				C97.3,76.1,95.8,76.2,94.3,75.9z"/>
		</g>
	</g>
</g>
</svg>
