<?xml version="1.0" encoding="utf-8"?>
<!-- Generator: Adobe Illustrator 16.0.0, SVG Export Plug-In . SVG Version: 6.00 Build 0)  -->
<!DOCTYPE svg PUBLIC "-//W3C//DTD SVG 1.1//EN" "http://www.w3.org/Graphics/SVG/1.1/DTD/svg11.dtd">
<svg version="1.1" xmlns="http://www.w3.org/2000/svg" xmlns:xlink="http://www.w3.org/1999/xlink" x="0px" y="0px"
	 width="100px" height="50.571px" viewBox="256.347 370.368 100 50.571" enable-background="new 256.347 370.368 100 50.571"
	 xml:space="preserve">
<g>
	<polygon points="256.347,370.939 285.228,370.939 285.228,383.382 285.228,420.825 270.387,420.825 270.387,383.382 
		256.347,383.382 	"/>
	<polygon points="356.347,420.825 327.351,420.825 327.351,408.383 327.351,370.939 342.307,370.939 342.307,408.383 
		356.347,408.383 	"/>
	<path d="M300.639,406.328c-2.169-0.457-3.995-1.143-5.708-2.285c-1.712-1.14-3.082-2.509-4.338-4.107
		c-1.141-1.6-2.054-3.425-2.74-5.367c-0.685-1.94-1.026-3.995-1.026-5.935c0-3.196,0.457-5.823,1.483-7.877
		c1.027-2.055,2.17-3.653,3.311-4.795c1.141-1.142,2.397-2.169,3.653-2.854c1.371-0.8,2.74-1.371,3.996-1.712
		c1.256-0.343,2.512-0.685,3.768-0.799c1.141-0.114,2.169-0.229,3.082-0.229c2.854,0,5.479,0.457,7.875,1.484
		c2.399,1.027,4.34,2.397,6.051,4.224c1.714,1.712,2.969,3.768,3.882,6.165c0.912,2.397,1.369,4.794,1.369,7.42
		c0,2.739-0.569,5.479-1.484,7.989c-1.027,2.512-2.282,5.023-3.881,7.535c-1.597,2.397-3.31,4.909-5.136,7.191
		c-1.826,2.398-3.654,4.796-5.48,7.193c-0.229,0.342-0.686,0.684-1.142,0.912c-0.457,0.228-1.027,0.457-1.37,0.457h-13.47
		c-0.457,0-0.799-0.114-0.913-0.457c-0.115-0.229-0.115-0.57,0.229-0.912l8.675-11.873c0.229-0.342,0.343-0.686,0.229-1.027
		C301.323,406.67,301.095,406.442,300.639,406.328"/>
	<path fill="#FFD231" d="M306.347,383.61c2.854,0,5.023,2.283,5.023,5.023c0,2.739-2.284,5.022-5.023,5.022
		c-2.74,0-5.023-2.283-5.023-5.022C301.323,385.893,303.607,383.61,306.347,383.61"/>
</g>
</svg>
