<svg xmlns="http://www.w3.org/2000/svg" width="15" height="13">
    <path fill="#00A1F5" fill-rule="evenodd" d="M14.7 2.041c-.566.244-1.133.396-1.699.457.64-.384 1.072-.926 1.298-1.627-.585.348-1.21.585-1.874.713-.585-.621-1.303-.932-2.156-.932-.817 0-1.512.288-2.088.864-.576.575-.864 1.271-.864 2.087 0 .22.025.445.073.677-1.206-.061-2.337-.364-3.394-.91-1.057-.545-1.954-1.271-2.691-2.179-.268.457-.402.953-.402 1.489 0 .506.118.975.356 1.408.238.432.557.782.96 1.05-.476-.018-.92-.143-1.335-.374V4.8c0 .713.224 1.339.672 1.878.448.539 1.013.879 1.695 1.019-.256.067-.515.1-.777.1-.17 0-.356-.015-.557-.045.189.591.536 1.076 1.042 1.457.505.381 1.078.577 1.717.59-1.072.84-2.293 1.26-3.664 1.26-.262 0-.499-.011-.712-.036 1.37.883 2.881 1.325 4.532 1.325 1.048 0 2.031-.166 2.951-.498.92-.332 1.706-.777 2.358-1.334.652-.557 1.214-1.199 1.686-1.924.472-.725.823-1.481 1.055-2.27.231-.789.347-1.579.347-2.371 0-.171-.003-.299-.009-.384.579-.42 1.072-.929 1.48-1.526z"/>
</svg>
