<svg xmlns="http://www.w3.org/2000/svg" xmlns:xlink="http://www.w3.org/1999/xlink" width="40.384" height="36.574" viewBox="0 0 40.384 36.574"><defs><style>.a{fill:none;}.b{fill:#fff;}.c{filter:url(#a);}</style><filter id="a" x="0" y="0" width="40.384" height="36.574" filterUnits="userSpaceOnUse"><feOffset input="SourceAlpha"/><feGaussianBlur stdDeviation="4" result="b"/><feFlood flood-opacity="0.161"/><feComposite operator="in" in2="b"/><feComposite in="SourceGraphic"/></filter></defs><g transform="translate(10.221 8.312)"><path class="a" d="M0,0H20V20H0Z"/><g class="c" transform="matrix(1, 0, 0, 1, -10.22, -8.31)"><path class="b" d="M18.162,5.181a7.054,7.054,0,0,1-1.931.5A3.223,3.223,0,0,0,17.71,3.925a6.965,6.965,0,0,1-2.135.77,3.507,3.507,0,0,0-4.042-.631A3.112,3.112,0,0,0,9.848,7.588,9.745,9.745,0,0,1,2.92,4.273a3.027,3.027,0,0,0-.455,1.6,3.13,3.13,0,0,0,1.5,2.641,3.5,3.5,0,0,1-1.522-.4v.039a3.226,3.226,0,0,0,2.7,3.111,3.579,3.579,0,0,1-1.518.055,3.346,3.346,0,0,0,3.14,2.2,7.038,7.038,0,0,1-4.976,1.314,9.925,9.925,0,0,0,5.152,1.426A9.226,9.226,0,0,0,16.5,7.234c0-.137,0-.275-.01-.41a6.63,6.63,0,0,0,1.677-1.642Z" transform="translate(10.22 8.31)"/></g></g></svg>