<?xml version="1.0" encoding="UTF-8"?>
<svg width="24px" height="29px" viewBox="0 0 24 29" version="1.1" xmlns="http://www.w3.org/2000/svg" xmlns:xlink="http://www.w3.org/1999/xlink">
    <!-- Generator: Sketch 57.1 (83088) - https://sketch.com -->
    <title>new</title>
    <desc>Created with Sketch.</desc>
    <g id="Page-1" stroke="none" stroke-width="1" fill="none" fill-rule="evenodd">
        <g id="new" transform="translate(1.000000, 1.000000)" fill-rule="nonzero">
            <path d="M21.7642244,8.2845561 L13.7154439,0.23577561 C13.5645024,0.0847804878 13.3597951,0 13.1463415,0 L0.804878049,0 C0.360370732,0 0,0.360370732 0,0.804878049 L0,26.6682927 C0,27.1128 0.360370732,27.4731707 0.804878049,27.4731707 L21.195122,27.4731707 C21.6396293,27.4731707 22,27.1128 22,26.6682927 L22,8.85365854 C22,8.64015122 21.9151659,8.4354439 21.7642244,8.2845561 Z" id="Shape" stroke="#4B92EF" fill="#BFDAFF"></path>
            <path d="M13.6829268,12.9317073 L11.804878,12.9317073 L11.804878,11.0536585 C11.804878,10.6091512 11.4445073,10.2487805 11,10.2487805 C10.5554927,10.2487805 10.195122,10.6091512 10.195122,11.0536585 L10.195122,12.9317073 L8.31707317,12.9317073 C7.87256585,12.9317073 7.51219512,13.292078 7.51219512,13.7365854 C7.51219512,14.1810927 7.87256585,14.5414634 8.31707317,14.5414634 L10.195122,14.5414634 L10.195122,16.4195122 C10.195122,16.8640195 10.5554927,17.2243902 11,17.2243902 C11.4445073,17.2243902 11.804878,16.8640195 11.804878,16.4195122 L11.804878,14.5414634 L13.6829268,14.5414634 C14.1274341,14.5414634 14.4878049,14.1810927 14.4878049,13.7365854 C14.4878049,13.292078 14.1274341,12.9317073 13.6829268,12.9317073 Z" id="Path" fill="#4B92EF"></path>
        </g>
    </g>
</svg>