<svg xmlns="http://www.w3.org/2000/svg" xmlns:xlink="http://www.w3.org/1999/xlink" width="40" height="36" viewBox="0 0 40 36"><defs><style>.a{fill:none;}.b{fill:#fff;}.c{filter:url(#a);}</style><filter id="a" x="0" y="0" width="40" height="36" filterUnits="userSpaceOnUse"><feOffset input="SourceAlpha"/><feGaussianBlur stdDeviation="4" result="b"/><feFlood flood-opacity="0.161"/><feComposite operator="in" in2="b"/><feComposite in="SourceGraphic"/></filter></defs><g transform="translate(10 8)"><path class="a" d="M0,0H20V20H0Z"/><g class="c" transform="matrix(1, 0, 0, 1, -10, -8)"><path class="b" d="M17.634,5.873A21.869,21.869,0,0,1,18,10a21.869,21.869,0,0,1-.366,4.126,2.176,2.176,0,0,1-1.55,1.516A43.561,43.561,0,0,1,10,16a43.579,43.579,0,0,1-6.084-.357,2.175,2.175,0,0,1-1.55-1.516A21.869,21.869,0,0,1,2,10a21.869,21.869,0,0,1,.366-4.127,2.176,2.176,0,0,1,1.55-1.516A43.579,43.579,0,0,1,10,4a43.561,43.561,0,0,1,6.084.357A2.175,2.175,0,0,1,17.634,5.873ZM8.4,12.625,13.2,10,8.4,7.375Z" transform="translate(10 8)"/></g></g></svg>