<svg xmlns="http://www.w3.org/2000/svg" xmlns:xlink="http://www.w3.org/1999/xlink" width="220.037" height="230" viewBox="0 0 220.037 230"><defs><style>.a{fill:#62bddd;}.b{fill:#542929;}.c{fill:#3f89fc;}.d{clip-path:url(#a);}.e{fill:#1b161c;}.f{fill:#9b241b;}.g{fill:#e59276;}.h{fill:#b25649;}.i{fill:#fff;}.j{fill:#a2d3e0;}.k{fill:#ffd255;}.l{fill:#3d303e;}.m{fill:#e54d4a;}.n{fill:#dc765d;}.o{fill:#cc5f4a;}.p{fill:#542f28;}.q{fill:#2e282f;}.r{clip-path:url(#b);}.s{fill:#ebf9ff;}.t{fill:#fc7272;}.u{fill:#4c4151;}.v{fill:#45ada3;}.w{fill:#349387;}</style><clipPath id="a"><circle class="a" cx="77.795" cy="77.795" r="77.795" transform="translate(0 110.018) rotate(-45)"/></clipPath><clipPath id="b"><path class="b" d="M1610.871,376.415a31.952,31.952,0,0,0,16.357,0s-2.233,6.54-8,6.54C1613.663,382.955,1610.871,376.415,1610.871,376.415Z" transform="translate(-1610.871 -376.415)"/></clipPath></defs><g transform="translate(0)"><g transform="translate(0 9.963)"><circle class="c" cx="77.795" cy="77.795" r="77.795" transform="translate(0 110.018) rotate(-45)"/><g class="d" transform="translate(0 0)"><path class="e" d="M1534,861.116c.4,1.1,2.657,20.414,2.657,20.414s57.882,4.088,57.33,3.285-2.287-23.7-2.287-23.7Z" transform="translate(-1452.496 -693.717)"/><path class="f" d="M1616.528,445.444c-5.5-4.414-13.837-6.31-19.748-4.579-3.927,1.15-7.785-.995-15.451.717-3.413.762-3.6,11.586-3.6,11.586h34.6Z" transform="translate(-1485.022 -380.668)"/><g transform="translate(84.08 52.633)"><path class="g" d="M1580.253,428.654c-1.4-.958-1.785-8.552-1.3-15.465h-19.206c.486,6.913.106,14.507-1.3,15.465-2.546,1.736-6.752,2.965-14.4,6.333,8.528,6.973,18.015,9.714,25.3,9.479,7.283.235,16.77-2.507,25.3-9.479C1587,431.618,1582.8,430.39,1580.253,428.654Z" transform="translate(-1544.053 -413.189)"/><path class="h" d="M1624.39,415.476h0c.032-.764.074-1.529.127-2.286h-19.206a73.646,73.646,0,0,1,.06,9.968S1620.176,422.609,1624.39,415.476Z" transform="translate(-1589.616 -413.189)"/></g><path class="i" d="M1552.682,484.279c9.765,12.466,26.724,9.933,33.34,0l10.477,4.213-1.848,93.994-50.6-1.313v-93.31Z" transform="translate(-1459.973 -413.432)"/><path class="j" d="M1577.034,514.864c3.4,26.99,3.512,51.057,5.526,56.2s17.821,2.035,19.538,3.277-19.327,3.055-19.149,5.976,8.65,4.655,11.966,5.444,13.266-11.005,13.755-16.178,2.3,28.346,2.3,28.346l-38.165-8.742Z" transform="translate(-1481.36 -436.18)"/><path class="j" d="M1656.785,637.162c-6.38,8.69-17.435,13.242-16.563,14.9s16.993,1.573,18.554,0S1656.785,637.162,1656.785,637.162Z" transform="translate(-1531.466 -527.143)"/><path class="k" d="M1562.588,485.847c19.006,21.6,38.388,6.311,41.525.164l-4.306-1.732c-8.5,11.464-25.661,10.2-33.339,0Z" transform="translate(-1473.759 -413.432)"/><path class="l" d="M1494.417,488.666l-5.656,2.81s1.035,29.949,0,39.466-6.828,34.139-7.655,37.863,2.9,6.414,2.9,6.414l-1.655,5.586s20.576,4.966,23.426,4.345,4.76-67.065,3.6-81.312S1501.107,478.253,1494.417,488.666Z" transform="translate(-1413.064 -413.683)"/><path class="l" d="M1712.553,488.864l4.87,2.847s-.938,27.774-.111,42.671,13.449,32.484,7.448,43.863-15.42,17.793-18.676,7.241-7.871-69.874-7.945-81.174,5.822-19.587,7.945-19.793S1712.553,488.864,1712.553,488.864Z" transform="translate(-1574.579 -413.605)"/><path class="e" d="M1698.121,502.8c6.794-18.128,15.5-14.655,17.4-13.7l-2.986-1.746s-7.768-6.345-9.216-4.552S1697.925,497.173,1698.121,502.8Z" transform="translate(-1574.561 -412.097)"/><path class="e" d="M1495.765,585.884s-2.871,4.936-6.617,13.1c-.068,2.934-.19,5.477-.386,7.284-1.035,9.517-6.828,34.138-7.655,37.863s2.9,6.414,2.9,6.414l-1.656,5.586s12.222,5.586,23.426,4.345c1.646-.182,2.933-21.922,3.555-43.111C1506.589,611.5,1501.256,599.773,1495.765,585.884Z" transform="translate(-1413.065 -489.004)"/><path class="e" d="M1715.295,566.906s-9.939,27.975-9.877,28.77c1.658,20.614,4.117,44.728,6.081,51.094,3.256,10.552,12.675,4.138,18.676-7.242s-6.621-28.966-7.449-43.863c-.264-4.754-.348-10.82-.34-16.876C1718.355,571.632,1715.295,566.906,1715.295,566.906Z" transform="translate(-1579.993 -474.888)"/><path class="e" d="M1575.708,569.554a.784.784,0,0,1-.779-.7c-.328-3,.306-9.37.919-15.53.484-4.859.94-9.449.744-10.936a.785.785,0,0,1,1.556-.206c.22,1.667-.224,6.13-.738,11.3-.577,5.8-1.231,12.367-.921,15.2a.785.785,0,0,1-.695.865A.805.805,0,0,1,1575.708,569.554Z" transform="translate(-1482.871 -455.992)"/><path class="e" d="M1699.8,558.943a.785.785,0,0,1-.763-.607c-.842-3.61-2.3-20.832-1.885-22.2a.785.785,0,1,1,1.5.459c-.241,1.323,1,17.472,1.912,21.386a.784.784,0,0,1-.585.942A.8.8,0,0,1,1699.8,558.943Z" transform="translate(-1573.79 -451.588)"/><path class="m" d="M1697.525,483.353c-.552-4.138.122-15.567.336-20.749s4.244-7.941,7.609-5.182,3.089,4.966,5.3,5.793,3.851,4.06,1.173,4.69c0,0-3.489-2.779-6.469-2.217S1697.8,481.146,1697.525,483.353Z" transform="translate(-1573.965 -392.645)"/><path class="m" d="M1545.99,474.712c-.334-4.69-1.037-15.16-1.927-19.994s-.222-8.145,1.927-9.248c-6.679-.276-5.163,3.862-9.094,5.793s-8.59,4.69-5.862,8.276c0,0,3.839-1.691,4.869-1.441C1535.9,458.1,1544.669,472.229,1545.99,474.712Z" transform="translate(-1449.683 -384.556)"/></g></g><g transform="translate(87.214)"><path class="n" d="M1708.473,309.936c5.879-.941,6.978,7.262-.769,13C1707.7,322.938,1707.706,311.7,1708.473,309.936Z" transform="translate(-1668.908 -273.74)"/><path class="n" d="M1561.009,309.936c-5.879-.941-6.977,7.262.769,13C1561.779,322.938,1561.776,311.7,1561.009,309.936Z" transform="translate(-1556.284 -273.74)"/><path class="g" d="M1608.472,226.75c-7.288-4.046-12.487-3.533-17.733-3.748-5.246.214-10.445-.3-17.733,3.748a193.053,193.053,0,0,0,2,36.867c.47,3.486,6.379,10.035,11.438,13.848.727.548,2.495.757,4.3.835,1.8-.079,3.57-.287,4.3-.835,5.059-3.813,10.968-10.361,11.438-13.848A193.042,193.042,0,0,0,1608.472,226.75Z" transform="translate(-1568.574 -209.135)"/><path class="o" d="M1610.871,376.706c6.065,1.722,10.436,1.538,16.357,0,0,0-2.233,7.512-8,7.512C1613.663,384.218,1610.871,376.706,1610.871,376.706Z" transform="translate(-1596.885 -323.457)"/><path class="p" d="M1565.74,217.916c-4.117-13.095-4.768-26.6,1.484-28.81-1.537-12.941,33.844-10.522,32.839,1.175,8.372,3.345,1.3,25.237.475,27.56.472-15.422-2.124-11.485-1.526-22.044a74.188,74.188,0,0,1-15.876,1.321c-8.332-.119-9.6-.46-14.94-1.526C1568.747,205.936,1565.207,201.478,1565.74,217.916Z" transform="translate(-1560.973 -177.452)"/><path class="q" d="M1674.685,310.425a1.641,1.641,0,1,1,1.594,2.029A1.851,1.851,0,0,1,1674.685,310.425Z" transform="translate(-1644.349 -272.649)"/><path class="q" d="M1604.052,310.425a1.641,1.641,0,1,1,1.594,2.029A1.852,1.852,0,0,1,1604.052,310.425Z" transform="translate(-1591.813 -272.649)"/><path class="o" d="M1642.488,322.1a.784.784,0,0,1-.117-1.56c1.6-.243,2.14-.693,2.319-.938a.77.77,0,0,0,.126-.618c-.188-1.177-.5-2.365-.828-3.624a26.415,26.415,0,0,1-1.133-6.589.785.785,0,0,1,.782-.787h0a.784.784,0,0,1,.784.782,25.244,25.244,0,0,0,1.082,6.2c.324,1.24.659,2.521.859,3.773a2.341,2.341,0,0,1-.408,1.791,4.854,4.854,0,0,1-3.35,1.564A.781.781,0,0,1,1642.488,322.1Z" transform="translate(-1619.818 -272.34)"/><path class="p" d="M1662.325,287.038c-1.746.247-3.414,3.194-1.833,3.055,6.7-.588,9.308.572,9.588.327C1671.113,289.515,1666.894,286.391,1662.325,287.038Z" transform="translate(-1633.321 -256.698)"/><path class="p" d="M1595.577,287.05c1.745.247,3.6,3.194,2.022,3.055-6.7-.588-9.828.894-10.035.585C1586.907,289.713,1591.007,286.4,1595.577,287.05Z" transform="translate(-1579.497 -256.711)"/><path class="p" d="M1652.078,172.064a20.791,20.791,0,0,0,10.779-3.186s.108,4.9-.693,5.944c4.788.763,8.769.65,10.087-.229-.993,4.994-5.227,10.108-5.227,10.108Z" transform="translate(-1627.534 -168.878)"/><g transform="translate(13.986 53.174)"><path class="b" d="M1610.871,376.415a31.952,31.952,0,0,0,16.357,0s-2.233,6.54-8,6.54C1613.663,382.955,1610.871,376.415,1610.871,376.415Z" transform="translate(-1610.871 -376.415)"/><g class="r"><ellipse class="s" cx="7.892" cy="3.731" rx="7.892" ry="3.731" transform="translate(0.287 -4.788)"/><ellipse class="t" cx="5.898" cy="3.72" rx="5.898" ry="3.72" transform="translate(2.898 4.128)"/></g></g></g><path class="u" d="M1661.944,313.647a5.867,5.867,0,1,1,5.867-5.867A5.874,5.874,0,0,1,1661.944,313.647Zm0-10.688a4.821,4.821,0,1,0,4.821,4.821A4.827,4.827,0,0,0,1661.944,302.959Z" transform="translate(-1543.294 -267.827)"/><path class="u" d="M1595.357,313.647a5.867,5.867,0,1,1,5.867-5.867A5.874,5.874,0,0,1,1595.357,313.647Zm0-10.688a4.821,4.821,0,1,0,4.822,4.821A4.826,4.826,0,0,0,1595.357,302.959Z" transform="translate(-1493.768 -267.827)"/><path class="u" d="M1631.7,313.939l-.6-.856a5.984,5.984,0,0,1,7.546.063l-.749.731A4.911,4.911,0,0,0,1631.7,313.939Z" transform="translate(-1524.718 -275.172)"/><path class="u" d="M1698.316,315.631a.523.523,0,0,1-.312-.943l3.8-2.819a.523.523,0,1,1,.623.84l-3.8,2.819A.521.521,0,0,1,1698.316,315.631Z" transform="translate(-1574.321 -275.156)"/><path class="u" d="M1575.3,317.382a.522.522,0,0,1-.209-.044l-5.068-2.217a.523.523,0,0,1,.419-.958l5.069,2.216a.523.523,0,0,1-.211,1Z" transform="translate(-1479.056 -276.906)"/><path class="s" d="M1569.475,559.39l-.056,0a.784.784,0,0,1-.728-.837,66.347,66.347,0,0,1,1.8-11.228,44.945,44.945,0,0,0,1.406-14.944.785.785,0,0,1,.733-.833.773.773,0,0,1,.833.733,46.837,46.837,0,0,1-1.442,15.393,65.092,65.092,0,0,0-1.763,10.988A.784.784,0,0,1,1569.475,559.39Z" transform="translate(-1478.297 -438.624)"/><path class="s" d="M1702.127,553.389a.785.785,0,0,1-.779-.7,42.127,42.127,0,0,0-1.237-6.328,47.322,47.322,0,0,1-1.65-14.04.785.785,0,0,1,.785-.779h.005a.785.785,0,0,1,.779.79,45.958,45.958,0,0,0,1.6,13.642,44.15,44.15,0,0,1,1.275,6.543.784.784,0,0,1-.694.866A.8.8,0,0,1,1702.127,553.389Z" transform="translate(-1574.818 -438.623)"/><g transform="translate(68.869 87.636)"><g transform="translate(16.759 74.806)"><path class="v" d="M1620.284,802.884H1562.9l-.966,1.075.966,48.208h57.38Z" transform="translate(-1558.904 -802.884)"/><path class="s" d="M1613.023,807.079h-56.858l-1.988,1.27,1.988,44.62h56.858Z" transform="translate(-1553.131 -806.005)"/><path class="w" d="M1608.52,812.036h-57.38l-1.046.523,1.046,46.415h57.38Z" transform="translate(-1550.094 -809.691)"/></g><circle class="s" cx="12.966" cy="12.966" r="12.966" transform="translate(38.805 100.881) rotate(-45)"/><path class="e" d="M1551.12,841.788a5.784,5.784,0,0,0,2.946,0l-.864-2.744S1551.384,840.533,1551.12,841.788Z" transform="translate(-1534.098 -754.973)"/><path class="e" d="M1758.517,830.035a21.485,21.485,0,0,1-3.173,1.469l-.137-4.573Z" transform="translate(-1685.894 -745.964)"/><g transform="translate(52.055 80.268)"><path class="g" d="M1709.492,828.005s-1.752,26.069-1.788,28.138,10.594,1.35,10.958-1.035c.79-5.173,3.281-30.207,3.281-30.207S1711.111,822.005,1709.492,828.005Z" transform="translate(-1702.618 -824.203)"/><path class="g" d="M1692.938,944.123c-3.036,3.621-3.421,5.232-4.692,7.966-.928,2-.128,3.907,1.448,5.483,0,0-1.022,7.242.319,7.862s3.405.623,3.593-.488.783-3.2.783-3.2,2.387,1.718,3.694,1.126,4.135-1.886,4.146-1.886,3.413.261,3.9-1.241c1.045-3.207-2.236-15-2.236-16.656C1703.9,941.285,1692.938,944.123,1692.938,944.123Z" transform="translate(-1687.852 -912.182)"/><path class="n" d="M1690.334,987.2h0a7.456,7.456,0,0,0,1.207,1.544c.1-1.035.517-4.345.517-4.345Z" transform="translate(-1689.698 -943.354)"/></g><g transform="translate(17.311 80.008)"><path class="g" d="M1565.52,825.593s5.679,27.725,5.715,29.794-10.594,1.35-10.958-1.035c-.79-5.173-8.03-27.656-8.03-27.656S1563.9,819.593,1565.52,825.593Z" transform="translate(-1552.247 -823.185)"/><path class="g" d="M1587.459,944.123c3.036,3.621,3.421,5.232,4.692,7.966.929,2,.128,3.907-1.448,5.483,0,0,1.022,7.242-.319,7.862s-3.405.623-3.593-.488-.782-3.2-.782-3.2-2.388,1.718-3.694,1.126-4.136-1.886-4.147-1.886-3.413.261-3.9-1.241c-1.046-3.207,2.236-15,2.236-16.656C1576.5,941.285,1587.459,944.123,1587.459,944.123Z" transform="translate(-1568.471 -911.921)"/><path class="n" d="M1638.723,987.2h0a7.445,7.445,0,0,1-1.207,1.544c-.1-1.035-.517-4.345-.517-4.345Z" transform="translate(-1615.284 -943.094)"/></g><g transform="translate(55.557 0)"><path class="u" d="M1719.939,511.352c5.667,4.951,7.544,15.774,5.682,26.74a155.544,155.544,0,0,0-1.448,27.932c.207,1.242,3.135,5.642,2.274,7.655s-5,4.809-4.463,5.566c1.015,1.441,1.836,2.917,1.288,4.779s-4.686,3.517-4.686,3.517v7.449s-8.143-2.9-13.692,0c0,0,.041-5.27-.489-6.621-1.3-3.311-2.884-5.963-2.884-7.242,0-4.759,5.659-10.458,4.332-13.035-.959-1.862-.959-6.621-.959-6.621s2.555-10.966,8.313-41.38C1713.9,516.426,1717.319,509.062,1719.939,511.352Z" transform="translate(-1701.522 -510.919)"/><path class="l" d="M1754.777,755.868c-8.275,4.552-14.068.414-15.1,2.276s10.639,3.29,10.639,3.29S1754.654,757.242,1754.777,755.868Z" transform="translate(-1729.851 -693.108)"/><path class="l" d="M1701.522,784.939c0,1.279,1.584,3.931,2.884,7.242,4.25-2.069,14.181-.828,14.181-.828s4.138-1.655,4.687-3.517C1719.622,789.491,1706.6,791.56,1701.522,784.939Z" transform="translate(-1701.522 -714.731)"/><path class="l" d="M1714.391,708.224c.959,3.327,7.588,4.759,9.169,5.793,1.708,1.117-8.21.828-8.21.828S1713.9,710.42,1714.391,708.224Z" transform="translate(-1711.018 -657.671)"/></g><g transform="translate(0 0.058)"><path class="u" d="M1491.512,511.208c2.509-1.44,9.016,22.5,10.483,30.156,1.086,5.668,11.7,32.759,11.9,36.183s-.043,9.749-.043,9.749l1.411,6.207c-5.756-1.034-13.562,4.4-13.562,4.4l-2.125-5.848s-3.573-.413-4.607-1.034-.772-5.587-1.392-6.1-2.644-1.579-3.133-2.247c-1.005-1.374-.289-4.7.236-8.822-.311-2.6-6-43.651-6-48C1484.684,517.157,1489.187,512.542,1491.512,511.208Z" transform="translate(-1484.684 -511.146)"/><path class="l" d="M1505.384,783.959c4.835,1.448,14.34-1.241,14.656,0s-10,4.337-11.063,3.621S1505.405,785.568,1505.384,783.959Z" transform="translate(-1500.081 -713.809)"/><path class="l" d="M1543.728,780.057s.25-6.324.043-9.749c-1.078,7.254-4.212,5.515-6.908,7.611-3.607,2.8-6.48,4.893-12.019,5.862,1.034.621,4.607,1.034,4.607,1.034C1530.9,782.746,1538.969,780.471,1543.728,780.057Z" transform="translate(-1514.555 -703.907)"/></g></g></g><path class="o" d="M1639.768,413.091a6.264,6.264,0,0,0-3.719.593c-.624.235-.354,1.247.278,1.009a5.484,5.484,0,0,1,3.164-.593C1640.143,414.26,1640.422,413.252,1639.768,413.091Z" transform="translate(-1528.134 -350.442)"/></svg>