<svg xmlns="http://www.w3.org/2000/svg" xmlns:xlink="http://www.w3.org/1999/xlink" width="327" height="327" viewBox="0 0 327 327"><defs><style>.a{fill:#3f89fc;}.b{fill:#542929;}.c{fill:none;}.d{clip-path:url(#a);}.e{fill:#1b161c;}.f{fill:#9b241b;}.g{fill:#e59276;}.h{fill:#b25649;}.i{fill:#fff;}.j{fill:#a2d3e0;}.k{fill:#ffd255;}.l{fill:#3d303e;}.m{fill:#e54d4a;}.n{fill:#ebf9ff;}.o{fill:#cc5f4a;}.p{fill:#45ada3;}.q{fill:#349387;}.r{fill:#dc765d;}.s{fill:#4c4151;}.t{fill:#542f28;}.u{fill:#2e282f;}.v{clip-path:url(#b);}.w{fill:#fc7272;}.x{clip-path:url(#c);}.y{fill:#ef9770;}.z{fill:#6a52ce;}.aa{fill:#403b72;}.ab{fill:#a5e1ef;}.ac{fill:#e5dcf4;}.ad{fill:#c09fff;}.ae{fill:#7661d1;}.af{fill:url(#d);}.ag{fill:#eae3e1;}.ah{fill:#28ce9a;}.ai{fill:#127c72;}.aj{fill:#ffb692;}.ak{fill:#5e2722;}.al{fill:#381a16;}.am{fill:#c62610;}</style><clipPath id="a"><circle class="a" cx="94.752" cy="94.752" r="94.752" transform="translate(8004.248 12396.383)"/></clipPath><clipPath id="b"><path class="b" d="M1610.871,376.415c7.664,1.9,13.188,1.692,20.67,0,0,0-2.821,8.265-10.111,8.265C1614.4,384.68,1610.871,376.415,1610.871,376.415Z" transform="translate(-1610.871 -376.415)"/></clipPath><clipPath id="c"><circle class="a" cx="94.752" cy="94.752" r="94.752" transform="translate(7766.248 12396.383)"/></clipPath><linearGradient id="d" x1="-0.453" y1="0.651" x2="2.353" y2="0.234" gradientUnits="objectBoundingBox"><stop offset="0.006" stop-color="#c09fff"/><stop offset="0.296" stop-color="#9978ff"/><stop offset="1" stop-color="#6a52ce"/></linearGradient></defs><g transform="translate(-272 -181)"><circle class="c" cx="163.5" cy="163.5" r="163.5" transform="translate(272 181)"/><g transform="translate(-7664 -12141)"><circle class="a" cx="94.752" cy="94.752" r="94.752" transform="translate(8004.248 12396.383)"/><g class="d"><g transform="translate(8073.095 12330)"><g transform="translate(0 0)"><g transform="translate(0 79.102)"><path class="e" d="M1534,861.116c.5,1.394,3.357,25.8,3.357,25.8s73.145,5.166,72.447,4.152-2.89-29.949-2.89-29.949Z" transform="translate(-1516.835 -716.088)"/><path class="f" d="M1626.757,446.819c-6.944-5.578-17.486-7.974-24.955-5.787-4.962,1.453-9.838-1.257-19.525.906-4.313.963-4.547,14.642-4.547,14.642h43.724Z" transform="translate(-1546.407 -431.475)"/><g transform="translate(20.42)"><path class="g" d="M1589.8,432.731c-1.775-1.211-2.255-10.807-1.641-19.542h-24.271c.615,8.735.134,18.332-1.641,19.542-3.216,2.194-8.531,3.746-18.193,8,10.777,8.811,22.766,12.276,31.97,11.979,9.2.3,21.192-3.168,31.969-11.979C1598.33,436.478,1593.015,434.925,1589.8,432.731Z" transform="translate(-1544.053 -413.189)"/><path class="h" d="M1629.42,416.078h0c.041-.966.094-1.933.161-2.889h-24.271a93.03,93.03,0,0,1,.076,12.6S1624.095,425.093,1629.42,416.078Z" transform="translate(-1585.477 -413.189)"/></g><path class="i" d="M1554.957,484.279c12.34,15.753,33.771,12.553,42.131,0l13.24,5.324-2.336,118.778-63.939-1.66V488.807Z" transform="translate(-1523.633 -461.262)"/><path class="j" d="M1578.149,514.864c4.3,34.107,4.437,64.52,6.983,71.014s22.52,2.572,24.69,4.141-24.423,3.86-24.2,7.551,10.931,5.883,15.121,6.879,16.764-13.907,17.382-20.444,2.91,35.82,2.91,35.82l-48.228-11.047Z" transform="translate(-1543.078 -481.944)"/><path class="j" d="M1661.164,637.162c-8.062,10.981-22.032,16.733-20.93,18.825s21.474,1.988,23.446,0S1661.164,637.162,1661.164,637.162Z" transform="translate(-1588.632 -564.645)"/><path class="k" d="M1562.588,486.26c24.018,27.3,48.51,7.976,52.474.207l-5.441-2.188c-10.739,14.486-32.428,12.9-42.131,0Z" transform="translate(-1536.167 -461.262)"/><path class="l" d="M1497.958,489.734l-7.146,3.551s1.307,37.846,0,49.873-8.628,43.14-9.674,47.847,3.66,8.105,3.66,8.105l-2.092,7.059s26,6.275,29.6,5.491,6.016-84.748,4.547-102.753S1506.412,476.574,1497.958,489.734Z" transform="translate(-1480.986 -461.491)"/><path class="l" d="M1716.354,490.011l6.154,3.6s-1.186,35.1-.14,53.923,16.995,41.049,9.413,55.429-19.486,22.485-23.6,9.151-9.947-88.3-10.041-102.579,7.357-24.751,10.041-25.013S1716.354,490.011,1716.354,490.011Z" transform="translate(-1627.83 -461.42)"/><path class="e" d="M1698.122,508.163c8.586-22.909,19.583-18.519,21.988-17.316l-3.774-2.206s-9.816-8.018-11.646-5.752S1697.875,501.046,1698.122,508.163Z" transform="translate(-1627.813 -460.049)"/><path class="e" d="M1499.661,585.884s-3.628,6.237-8.362,16.549c-.086,3.708-.24,6.921-.489,9.2-1.307,12.027-8.628,43.14-9.674,47.847s3.661,8.105,3.661,8.105l-2.092,7.059s15.444,7.059,29.6,5.491c2.08-.231,3.706-27.7,4.492-54.479C1513.34,618.259,1506.6,603.436,1499.661,585.884Z" transform="translate(-1480.986 -529.97)"/><path class="e" d="M1717.9,566.906s-12.56,35.352-12.481,36.356c2.1,26.049,5.2,56.522,7.684,64.567,4.114,13.334,16.018,5.229,23.6-9.151s-8.367-36.6-9.412-55.429c-.333-6.008-.44-13.673-.43-21.326C1721.767,572.878,1717.9,566.906,1717.9,566.906Z" transform="translate(-1632.752 -517.136)"/><path class="e" d="M1575.937,576.951a.992.992,0,0,1-.984-.884c-.415-3.791.387-11.84,1.162-19.625.611-6.14,1.188-11.94.94-13.819a.992.992,0,0,1,1.966-.26c.279,2.107-.283,7.746-.933,14.276-.729,7.325-1.556,15.628-1.164,19.213a.991.991,0,0,1-.878,1.093A1.048,1.048,0,0,1,1575.937,576.951Z" transform="translate(-1544.452 -499.957)"/><path class="e" d="M1700.517,565.1a.992.992,0,0,1-.965-.766c-1.064-4.563-2.911-26.326-2.382-28.055a.992.992,0,0,1,1.9.58c-.3,1.671,1.263,22.079,2.416,27.025a.992.992,0,0,1-.74,1.191A1.01,1.01,0,0,1,1700.517,565.1Z" transform="translate(-1627.112 -495.952)"/><path class="m" d="M1697.581,490.478c-.7-5.229.154-19.672.425-26.221s5.363-10.035,9.615-6.549,3.9,6.275,6.692,7.321,4.867,5.131,1.482,5.926c0,0-4.409-3.512-8.174-2.8S1697.929,487.689,1697.581,490.478Z" transform="translate(-1627.271 -442.364)"/><path class="m" d="M1550.149,482.426c-.422-5.926-1.31-19.157-2.435-25.266s-.28-10.292,2.435-11.687c-8.441-.348-6.524,4.881-11.491,7.321s-10.855,5.926-7.407,10.458c0,0,4.851-2.137,6.152-1.821C1537.4,461.432,1548.479,479.289,1550.149,482.426Z" transform="translate(-1514.278 -435.009)"/></g><path class="n" d="M1569.682,566.732l-.07,0a.991.991,0,0,1-.92-1.058,83.846,83.846,0,0,1,2.271-14.189,56.8,56.8,0,0,0,1.776-18.885.992.992,0,0,1,.926-1.053.976.976,0,0,1,1.052.927,59.193,59.193,0,0,1-1.822,19.451,82.266,82.266,0,0,0-2.228,13.885A.991.991,0,0,1,1569.682,566.732Z" transform="translate(-1540.293 -414.122)"/><path class="n" d="M1703.094,559.149a.992.992,0,0,1-.984-.883,53.247,53.247,0,0,0-1.562-8,59.8,59.8,0,0,1-2.084-17.742.991.991,0,0,1,.991-.984h.007a.991.991,0,0,1,.984,1,58.084,58.084,0,0,0,2.024,17.239,55.783,55.783,0,0,1,1.611,8.268.992.992,0,0,1-.877,1.094A1.041,1.041,0,0,1,1703.094,559.149Z" transform="translate(-1628.047 -414.121)"/></g><path class="o" d="M1640.841,413.119a7.914,7.914,0,0,0-4.7.75c-.789.3-.447,1.575.351,1.275,1.256-.473,2.635-1.084,4-.75C1641.316,414.6,1641.668,413.322,1640.841,413.119Z" transform="translate(-1585.603 -333.95)"/></g></g><g transform="translate(8074.292 12440.744)"><g transform="translate(21.178 94.531)"><path class="p" d="M1635.669,802.884h-72.511l-1.22,1.358,1.22,60.92h72.511Z" transform="translate(-1558.103 -802.884)"/><path class="n" d="M1628.539,807.079h-71.85l-2.513,1.6,2.513,56.386h71.85Z" transform="translate(-1552.854 -805.721)"/><path class="q" d="M1623.927,812.036h-72.511l-1.322.661,1.322,58.654h72.511Z" transform="translate(-1550.094 -809.073)"/></g><circle class="n" cx="16.385" cy="16.385" r="16.385" transform="translate(49.037 127.482) rotate(-45)"/><path class="e" d="M1551.12,842.512a7.308,7.308,0,0,0,3.722,0l-1.091-3.468S1551.452,840.925,1551.12,842.512Z" transform="translate(-1529.61 -732.805)"/><path class="e" d="M1759.389,830.853a27.153,27.153,0,0,1-4.009,1.857l-.174-5.779Z" transform="translate(-1667.618 -724.614)"/><g transform="translate(65.781 101.434)"><path class="g" d="M1709.964,829.008s-2.214,32.944-2.26,35.558,13.388,1.706,13.848-1.307c1-6.538,4.147-38.172,4.147-38.172S1712.009,821.425,1709.964,829.008Z" transform="translate(-1701.276 -824.203)"/><path class="g" d="M1694.279,944.553c-3.837,4.576-4.323,6.611-5.929,10.066-1.173,2.525-.161,4.938,1.83,6.928,0,0-1.291,9.151.4,9.935s4.3.787,4.54-.616.989-4.044.989-4.044,3.017,2.171,4.668,1.423,5.226-2.384,5.24-2.384,4.313.33,4.932-1.569c1.321-4.053-2.825-18.956-2.825-21.048C1708.127,940.967,1694.279,944.553,1694.279,944.553Z" transform="translate(-1687.851 -904.19)"/><path class="r" d="M1690.334,987.938h0a9.421,9.421,0,0,0,1.525,1.951c.131-1.307.654-5.491.654-5.491Z" transform="translate(-1689.53 -932.531)"/></g><g transform="translate(21.875 101.104)"><path class="g" d="M1569.02,826.228s7.176,35.035,7.222,37.65-13.388,1.706-13.847-1.307c-1-6.538-10.148-34.948-10.148-34.948S1566.976,818.646,1569.02,826.228Z" transform="translate(-1552.247 -823.185)"/><path class="g" d="M1590.992,944.553c3.837,4.576,4.323,6.611,5.929,10.066,1.174,2.525.161,4.938-1.83,6.928,0,0,1.291,9.151-.4,9.935s-4.3.787-4.54-.616-.989-4.044-.989-4.044-3.017,2.171-4.668,1.423-5.226-2.384-5.24-2.384-4.313.33-4.932-1.569c-1.321-4.053,2.825-18.956,2.825-21.048C1577.145,940.967,1590.992,944.553,1590.992,944.553Z" transform="translate(-1566.997 -903.861)"/><path class="r" d="M1639.177,987.938h0a9.428,9.428,0,0,1-1.525,1.951c-.131-1.307-.654-5.491-.654-5.491Z" transform="translate(-1609.558 -932.202)"/></g><g transform="translate(70.207)"><path class="s" d="M1724.8,511.466c7.161,6.256,9.534,19.934,7.181,33.791s-2.092,33.728-1.83,35.3,3.962,7.129,2.874,9.674-6.313,6.077-5.64,7.033c1.281,1.822,2.32,3.687,1.627,6.04s-5.921,4.445-5.921,4.445v9.413s-10.291-3.661-17.3,0c0,0,.052-6.659-.618-8.367-1.642-4.184-3.644-7.535-3.644-9.151,0-6.013,7.151-13.216,5.474-16.472-1.212-2.353-1.212-8.367-1.212-8.367s3.229-13.857,10.505-52.291C1717.166,517.879,1721.484,508.572,1724.8,511.466Z" transform="translate(-1701.522 -510.918)"/><path class="l" d="M1758.777,755.868c-10.457,5.752-17.778.523-19.085,2.876s13.445,4.157,13.445,4.157S1758.62,757.6,1758.777,755.868Z" transform="translate(-1727.278 -676.559)"/><path class="l" d="M1701.522,784.939c0,1.616,2,4.968,3.644,9.151,5.371-2.615,17.921-1.046,17.921-1.046s5.229-2.092,5.922-4.444C1724.394,790.691,1707.933,793.306,1701.522,784.939Z" transform="translate(-1701.522 -696.218)"/><path class="l" d="M1714.417,708.224c1.212,4.2,9.589,6.014,11.587,7.321,2.158,1.411-10.375,1.046-10.375,1.046S1713.8,711,1714.417,708.224Z" transform="translate(-1710.155 -644.341)"/></g><g transform="translate(0 0.074)"><path class="s" d="M1493.312,511.225c3.171-1.82,11.393,28.434,13.247,38.107,1.373,7.163,14.783,41.4,15.044,45.724s-.054,12.32-.054,12.32l1.783,7.843c-7.274-1.307-17.138,5.56-17.138,5.56l-2.685-7.39s-4.515-.522-5.822-1.306-.975-7.06-1.76-7.714-3.341-2-3.959-2.839c-1.27-1.736-.365-5.941.3-11.149-.393-3.284-7.582-55.161-7.582-60.658C1484.684,518.742,1490.374,512.911,1493.312,511.225Z" transform="translate(-1484.684 -511.146)"/><path class="l" d="M1505.384,784.048c6.109,1.83,18.122-1.568,18.521,0s-12.639,5.481-13.981,4.576S1505.411,786.081,1505.384,784.048Z" transform="translate(-1498.682 -695.401)"/><path class="l" d="M1548.707,782.627s.315-7.992.054-12.319c-1.361,9.166-5.322,6.97-8.729,9.618-4.558,3.544-8.189,6.182-15.187,7.408,1.307.784,5.822,1.306,5.822,1.306C1532.5,786.026,1542.693,783.15,1548.707,782.627Z" transform="translate(-1511.841 -686.398)"/></g></g><g transform="translate(8073.095 12330)"><g transform="translate(24.379)"><path class="r" d="M1708.676,309.956c7.429-1.19,8.818,9.177-.972,16.431C1707.7,326.386,1707.707,312.185,1708.676,309.956Z" transform="translate(-1658.678 -264.215)"/><path class="r" d="M1562.255,309.956c-7.429-1.19-8.818,9.177.972,16.431C1563.228,326.386,1563.225,312.185,1562.255,309.956Z" transform="translate(-1556.283 -264.215)"/><path class="g" d="M1617.876,227.738c-9.21-5.113-15.78-4.465-22.409-4.736-6.629.271-13.2-.377-22.409,4.736a243.93,243.93,0,0,0,2.525,46.588c.594,4.406,8.061,12.681,14.454,17.5.919.693,3.153.956,5.43,1.056,2.277-.1,4.511-.363,5.43-1.056,6.393-4.818,13.86-13.093,14.454-17.5A243.94,243.94,0,0,0,1617.876,227.738Z" transform="translate(-1567.458 -205.478)"/><path class="o" d="M1610.871,376.706c7.664,2.176,13.188,1.943,20.67,0,0,0-2.821,9.492-10.111,9.492C1614.4,386.2,1610.871,376.706,1610.871,376.706Z" transform="translate(-1593.197 -309.416)"/><path class="t" d="M1566.572,227.807c-5.2-16.548-6.025-33.61,1.876-36.406-1.943-16.354,42.767-13.3,41.5,1.485,10.579,4.227,1.638,31.892.6,34.827.6-19.489-2.684-14.513-1.928-27.857-5.272,1.27-13.731,1.759-20.063,1.669-10.529-.15-12.135-.581-18.879-1.928C1570.371,212.668,1565.9,207.035,1566.572,227.807Z" transform="translate(-1560.547 -176.673)"/><path class="u" d="M1674.685,310.96a2.073,2.073,0,1,1,2.014,2.564A2.34,2.34,0,0,1,1674.685,310.96Z" transform="translate(-1636.349 -263.224)"/><path class="u" d="M1604.052,310.96a2.073,2.073,0,1,1,2.015,2.564A2.34,2.34,0,0,1,1604.052,310.96Z" transform="translate(-1588.586 -263.224)"/><path class="o" d="M1642.695,325.819a.991.991,0,0,1-.148-1.971c2.021-.308,2.7-.875,2.931-1.186a.972.972,0,0,0,.159-.781c-.237-1.487-.63-2.989-1.046-4.579a33.391,33.391,0,0,1-1.432-8.327.991.991,0,0,1,.988-.994h0a.991.991,0,0,1,.991.988,31.909,31.909,0,0,0,1.367,7.832c.409,1.566.833,3.186,1.086,4.768a2.958,2.958,0,0,1-.516,2.263c-.736,1.009-2.121,1.655-4.234,1.976A.987.987,0,0,1,1642.695,325.819Z" transform="translate(-1614.047 -262.942)"/><path class="t" d="M1662.975,287.061c-2.206.312-4.314,4.036-2.316,3.861,8.465-.742,11.762.722,12.115.413C1674.081,290.191,1668.749,286.244,1662.975,287.061Z" transform="translate(-1626.323 -248.721)"/><path class="t" d="M1597.708,287.072c2.206.312,4.553,4.036,2.555,3.861-8.465-.742-12.419,1.129-12.681.74C1586.752,290.437,1591.933,286.255,1597.708,287.072Z" transform="translate(-1577.389 -248.733)"/><path class="t" d="M1652.078,172.9a26.275,26.275,0,0,0,13.621-4.026s.136,6.191-.875,7.512c6.051.965,11.081.821,12.746-.289-1.255,6.311-6.605,12.773-6.605,12.773Z" transform="translate(-1621.062 -168.878)"/><g transform="translate(17.674 67.195)"><path class="b" d="M1610.871,376.415c7.664,1.9,13.188,1.692,20.67,0,0,0-2.821,8.265-10.111,8.265C1614.4,384.68,1610.871,376.415,1610.871,376.415Z" transform="translate(-1610.871 -376.415)"/><g class="v"><ellipse class="n" cx="9.973" cy="4.715" rx="9.973" ry="4.715" transform="translate(0.362 -6.05)"/><ellipse class="w" cx="7.454" cy="4.701" rx="7.454" ry="4.701" transform="translate(3.662 5.217)"/></g></g></g><path class="s" d="M1663.49,316.741a7.414,7.414,0,1,1,7.414-7.414A7.423,7.423,0,0,1,1663.49,316.741Zm0-13.507a6.092,6.092,0,1,0,6.092,6.092A6.1,6.1,0,0,0,1663.49,303.235Z" transform="translate(-1599.386 -258.84)"/><path class="s" d="M1596.9,316.741a7.414,7.414,0,1,1,7.414-7.414A7.422,7.422,0,0,1,1596.9,316.741Zm0-13.507a6.092,6.092,0,1,0,6.093,6.092A6.1,6.1,0,0,0,1596.9,303.235Z" transform="translate(-1554.359 -258.84)"/><path class="s" d="M1631.861,314.507l-.761-1.082c4.659-3.273,8.707-.77,9.536.079l-.946.924C1639.026,313.748,1635.752,311.77,1631.861,314.507Z" transform="translate(-1582.497 -265.517)"/><path class="s" d="M1698.453,316.651a.661.661,0,0,1-.394-1.192l4.808-3.563a.661.661,0,0,1,.787,1.062l-4.808,3.563A.657.657,0,0,1,1698.453,316.651Z" transform="translate(-1627.595 -265.502)"/><path class="s" d="M1576.774,318.242a.658.658,0,0,1-.264-.056l-6.4-2.8a.661.661,0,1,1,.529-1.211l6.4,2.8a.661.661,0,0,1-.266,1.267Z" transform="translate(-1540.982 -267.094)"/></g><g class="x" transform="translate(238)"><g transform="translate(7756 12367.558)"><g transform="translate(1.656 92.747)"><g transform="translate(0 27.731)"><path class="y" d="M1272.81,1457.539c-3.1-7.94-16.606-42.667-16.606-42.667l-19.723,22.469s11.629,19.012,14.474,21.358S1272.81,1457.539,1272.81,1457.539Z" transform="translate(-1141.809 -1413.718)"/><path class="r" d="M1240.574,1481.163c7.548-9.794,11.442-.4,19.744-11.469l-4.945-3.094-21.128,5.6S1236.581,1479.891,1240.574,1481.163Z" transform="translate(-1140.157 -1451.935)"/><path class="z" d="M984.87,1709.495c1.3-12.307,3.137-29.147,3.137-29.147s67.464,2.311,69.084.692c1.932,14.206,2.591,29.427,2.591,29.427Z" transform="translate(-955.92 -1609.85)"/><path class="aa" d="M1059.725,1681.319c-28.418,9.959-45.1,11.156-66.029,6.671l.832-7.643Z" transform="translate(-962.441 -1609.85)"/></g><g transform="translate(8.497)"><path class="i" d="M1230.455,1318.474c3.239,1.9,21.051,35.257,21.375,37.2s-3.562,5.83-5.505,6.8-9.068-1.619-11.011,0-12.7,4.858-15.418,4.21S1230.455,1318.474,1230.455,1318.474Z" transform="translate(-1137.781 -1314.769)"/><path class="j" d="M1246.186,1386.318c-2.267-10.444-8.42-35.571-8.42-35.571l-3.521,39.866C1239.043,1389.181,1244.325,1387.75,1246.186,1386.318Z" transform="translate(-1148.654 -1338.612)"/><path class="i" d="M991.725,1304.289l-6.855,3.705s6.768,28.576,6.768,41.539c0,20.025-.325,30.959-1.465,39.6-6.6,10.141-2.165,11.112-2.166,13.379,3.339,2.88,16.512,10.714,32.973,6.347,14.65-3.886,30.913.746,36.11-5.655,1.932-6.521,5.233-3.606-3.068-17.438-.959-8.1-1.493-18.936-1.142-36.982.179-9.21,4.21-40.8,4.21-40.8l-2.267-1.664Z" transform="translate(-964.417 -1304.289)"/><path class="ab" d="M996.252,1530.827a196.318,196.318,0,0,1-1.324,21.652c-4.218,6.482-3.927,9.216-3.17,10.938,8.878-12.942,58.8-15.3,70.841,1.1,1.817-4.023,3.455-3.282-3.822-15.405a196.556,196.556,0,0,1-1.191-19.665c-.2-.045-.4-.094-.6-.131C1036.4,1525.55,1006.592,1522.152,996.252,1530.827Z" transform="translate(-969.172 -1467.63)"/><path class="ab" d="M1030.646,1663.683c-8.635,5.052-38.669-.531-39.333-7.477-.123,2.644,1.449,3.536,1.449,4.886,3.339,2.88,16.512,10.714,32.973,6.347,14.65-3.886,30.913.746,36.11-5.655.925-3.123,2.161-4.083,2.29-5.754C1060.734,1651.053,1040.87,1657.7,1030.646,1663.683Z" transform="translate(-969.172 -1562.864)"/></g></g></g></g><g transform="translate(7995.656 12460.305)"><path class="y" d="M874.037,1456.353c1.661-9.27,17.99-45.9,17.99-45.9l18.161,23.622s-11.629,19.012-14.474,21.358S874.037,1456.353,874.037,1456.353Z" transform="translate(-874.037 -1382.725)"/><path class="r" d="M935.328,1477.251c-3.462-8.874-18.177-9.348-19.791-15.575,2.306-9.917,5.8-.991,5.8-.991l21.757,4.372Z" transform="translate(-904.697 -1417.108)"/><path class="i" d="M927.021,1318.474c-4.858,2.871-19.755,34.933-20.4,36.228s5.182,7.449,8.744,7.773,15.366.659,19.666,2.272S927.021,1318.474,927.021,1318.474Z" transform="translate(-898.07 -1314.77)"/><path class="j" d="M990.315,1392.675c-.927-5.871,1.563-34.694,1.563-34.694l4.869,35.954Z" transform="translate(-959.79 -1343.957)"/></g><g transform="translate(7994 12367.558)"><g transform="translate(27.867 120.467)"><path class="ac" d="M1019.444,1417.3c4.982-4.606,24.847-3.352,33.822-6.49l2.826.441-33.377,6.706h-9.133l-33.63-6.751,5.334-.791C988.414,1411.406,1006.731,1409.961,1019.444,1417.3Z" transform="translate(-978.497 -1410.411)"/><path class="ad" d="M1018.621,1419.569h-9.174l-33.61-6.13-1.454.38,15.382,32.848,20.794,7.392h6.949l26.372-3.648,9.805-36.592-1.708-.335Z" transform="translate(-974.383 -1412.648)"/><path class="ae" d="M1116.73,1473.511H1109.8l-1.1-34.226h9.133Z" transform="translate(-1073.616 -1431.743)"/><path class="af" d="M1165.723,1451.868l-26.281,3.624,1.1-34.226,35.084-6.371Z" transform="translate(-1096.328 -1413.724)"/><path class="p" d="M984.29,1451.868l26.281,3.624-1.1-34.226-35.084-6.371Z" transform="translate(-974.383 -1413.724)"/><path class="i" d="M1169.572,1445.708a1.248,1.248,0,0,1-.212-2.478l18.546-3.225a1.248,1.248,0,1,1,.428,2.459l-18.546,3.225A1.232,1.232,0,0,1,1169.572,1445.708Z" transform="translate(-1117.666 -1432.261)"/><path class="i" d="M1183.089,1461.963a.78.78,0,0,1-.129-1.549l11.9-2.014a.78.78,0,0,1,.26,1.538l-11.9,2.014A.781.781,0,0,1,1183.089,1461.963Z" transform="translate(-1127.998 -1445.856)"/><path class="ag" d="M1122.655,1517.964a.625.625,0,0,1-.589-.417c-.045-.129-.088-.25-.09-12.122a.624.624,0,0,1,1.249,0c0,4.479.014,11.275.049,11.825a.625.625,0,0,1-.618.713Z" transform="translate(-1083.424 -1480.146)"/><path class="ag" d="M1129.951,1528.018h-.005a.468.468,0,0,1-.463-.473l.1-8.885a.468.468,0,0,1,.468-.463h.005a.468.468,0,0,1,.463.473l-.1,8.885A.468.468,0,0,1,1129.951,1528.018Z" transform="translate(-1088.97 -1490.043)"/><path class="p" d="M1139.655,1496.928l4.089-4.488,3.864,1.77,6.019-8.5,3.908-1.62h5.785l7.756-4.138-5.354,19.98-26.281,3.624Z" transform="translate(-1096.328 -1461.787)"/><path class="ah" d="M974.383,1413.819l1.454-.38,33.61,6.13.02.621Z" transform="translate(-974.383 -1412.648)"/></g><path class="ai" d="M1016.015,1496.269l-5.72,9.331,13.434,2.435-2.047,6.021-15.006-2.069-1.992-7.436Z" transform="translate(-968.902 -1353.376)"/><path class="ai" d="M1181.139,1502.532l3.706,5.9-9.584,4.245,2.621,6,14.3-2.069,2.17-9.522Z" transform="translate(-1094.923 -1358.004)"/><path class="aj" d="M892.124,1500.375c3.167-2.578,5.075-10.075,9.58-11.928l.759,2.831c2.251-2.5,9.957-7.572,11.2-7.821s2.274,1.836,1.152,3.332-10.247,7.977-9.86,8.975l.387,1s14.889-7.756,16.357-7.119a2.824,2.824,0,0,1,.845,4.687c.374,2.432,1.247,4.177-2.119,6.047a15,15,0,0,1-6.664,7.6c-2.062,1.122-14.651,3.241-14.651,3.241-3.366,1.371-14.663,11.585-18.943,13.1s-13.116-3.728-12.426-7.594,1.933-11.316,6.213-12.769S891.23,1501.1,892.124,1500.375Z" transform="translate(-867.697 -1343.896)"/><path class="g" d="M995.658,1505.45s-3.519,2.318-.759-2.831Z" transform="translate(-960.893 -1358.067)"/><path class="aj" d="M1202.912,1506.037c-3.166-2.578-5.075-10.075-9.58-11.928l-.758,2.831c-2.533-1.829-11.1-5.565-12.339-5.815s-2.956,1.466-1.834,2.962,12.072,6.342,11.685,7.339h0s-15.276-6.759-16.744-6.122a2.824,2.824,0,0,0-.845,4.687c-.374,2.432-1.246,4.177,2.119,6.047a15,15,0,0,0,6.664,7.6c2.062,1.122,14.651,3.241,14.651,3.241,3.365,1.371,14.663,11.585,18.943,13.1s13.116-3.728,12.426-7.594-1.933-11.316-6.213-12.769S1203.805,1506.765,1202.912,1506.037Z" transform="translate(-1092.186 -1349.558)"/><path class="g" d="M1252.024,1505.45s3.519,2.318.758-2.831Z" transform="translate(-1151.636 -1358.067)"/></g><g transform="translate(7994 12367.558)"><g transform="translate(35.782)"><path class="ak" d="M1008.245,1129.918c-1.969,15.283-9.506,41.394,6.029,42.656,12.571,1.021,8.791.156,2.883-1.585s-12.629-1.5-9.309-30.646C1007.848,1140.343,1009.857,1132.366,1008.245,1129.918Z" transform="translate(-1004.683 -1082.718)"/><path class="ak" d="M1031.966,952.351c-5.088-.854-13.8,4.98-14.627,21.364-1.546,30.764-3.416,40.669-1.354,51.667,1.317,7.024,8.22,7.125,13.546,15.383,6.722,6.269,26.765,11.791,42.791,4.129,2.334-1.116,10.484-1.068,8.783-10.364-.64-3.5-5.1-3.321-3.644-9.387.685-2.858,2.592-5.105,1.3-11.308-.782-3.744-5.843-7.835-5.771-11.787C1073.576,969.678,1065.629,939.195,1031.966,952.351Z" transform="translate(-1012.36 -949.215)"/><path class="al" d="M1058.951,1148.372c-13.943-16.351-8.03-39.694-5.416-42.118s24.7-13.261,31.63.876c7.014,14.3,3.772,39.748-6.532,42.4A34.76,34.76,0,0,1,1058.951,1148.372Z" transform="translate(-1038.188 -1060.614)"/><g transform="translate(1.592 67.237)"><path class="aj" d="M1053.231,1224.726c-1.644-1.121-2.088-10.008-1.52-18.1h-22.476c.569,8.09.124,16.977-1.52,18.1-2.979,2.032-7.9,3.47-16.848,7.412-1.674,3.337,21.083,11.369,29.606,11.094,8.523.275,27.836,5.2,33.492-9.052C1065.019,1230.237,1056.21,1226.758,1053.231,1224.726Z" transform="translate(-1010.78 -1206.628)"/><path class="r" d="M1103.762,1209.3h0c.038-.894.087-1.79.149-2.676h-22.476a86.136,86.136,0,0,1,.07,11.665S1098.83,1217.652,1103.762,1209.3Z" transform="translate(-1062.979 -1206.628)"/></g><g transform="translate(7.642 13.817)"><path class="g" d="M1191.088,1094.735c6.88-1.1,8.166,8.5-.9,15.216C1190.188,1109.951,1190.19,1096.8,1191.088,1094.735Z" transform="translate(-1149.375 -1070.477)"/><path class="g" d="M1039.47,1094.735c-6.88-1.1-8.166,8.5.9,15.216C1040.371,1109.951,1040.368,1096.8,1039.47,1094.735Z" transform="translate(-1033.94 -1070.477)"/><path class="aj" d="M1087.4,1023.4c0-6.88-21.769-5.094-31.439-21.287-3.258,8.664-9.892,13.636-8.784,23.68.274,4.557.684,9.769,1.038,13.976a23.416,23.416,0,0,0,6.866,14.657,48.459,48.459,0,0,0,7.313,6.184,9.345,9.345,0,0,0,9.74,0,47.473,47.473,0,0,0,7.459-6.359,23.232,23.232,0,0,0,6.54-13.556A154.321,154.321,0,0,0,1087.4,1023.4Z" transform="translate(-1043.625 -1002.113)"/><path class="u" d="M1160.825,1104.355a1.986,1.986,0,1,1,1.93,2.456A2.241,2.241,0,0,1,1160.825,1104.355Z" transform="translate(-1127.682 -1075.834)"/><path class="u" d="M1079.744,1104.355a1.986,1.986,0,1,1,1.93,2.456A2.241,2.241,0,0,1,1079.744,1104.355Z" transform="translate(-1067.78 -1075.834)"/><path class="r" d="M1126.034,1118.453a1.043,1.043,0,0,1-.371-2.018c1.8-.684,1.719-1.286,1.059-4.015a22.259,22.259,0,0,1-.79-5.467,1.043,1.043,0,0,1,2.086,0,20.206,20.206,0,0,0,.732,4.976c.606,2.5,1.232,5.093-2.344,6.455A1.039,1.039,0,0,1,1126.034,1118.453Z" transform="translate(-1101.208 -1078.798)"/><path class="am" d="M1105.927,1173.943a16.044,16.044,0,0,1-6.875-1.842.887.887,0,0,1,.754-1.606c4.717,2.213,7.4,2.235,11.973.1a.887.887,0,0,1,.751,1.608A15.42,15.42,0,0,1,1105.927,1173.943Z" transform="translate(-1081.667 -1126.45)"/><path class="ak" d="M1147.552,1077.119c-2.042.289-4.406,3.043-2.555,2.88,7.839-.687,11.766,1,11.562.619C1156.009,1079.587,1152.9,1076.363,1147.552,1077.119Z" transform="translate(-1115.494 -1057.443)"/><path class="ak" d="M1071.345,1077.119c2.042.289,4.033,3.043,2.182,2.88-7.839-.687-11.766,1-11.562.619C1062.516,1079.587,1066,1076.363,1071.345,1077.119Z" transform="translate(-1054.64 -1057.443)"/></g></g><path class="s" d="M1042.463,1285.374c-1.019,2.273-1.064,9.6-1.064,9.6.789.353,2.07.81,3.675,1.407-.013-5.71.344-10.008,1.208-12.428Z" transform="translate(-996.027 -1196.521)"/><path class="s" d="M1188.263,1283.957c2.1,2.42,2.1,17.238,2.1,17.238a21.028,21.028,0,0,0,4.085-.779c-.234-5.495-.87-12.989-1.918-14.529Z" transform="translate(-1104.53 -1196.521)"/></g></g></g></svg>