<?xml version="1.0" encoding="UTF-8"?>
<svg width="30px" height="31px" viewBox="0 0 30 31" version="1.1" xmlns="http://www.w3.org/2000/svg" xmlns:xlink="http://www.w3.org/1999/xlink">
    <!-- Generator: Sketch 57.1 (83088) - https://sketch.com -->
    <title>Cross</title>
    <desc>Created with Sketch.</desc>
    <defs>
        <polygon id="path-1" points="0 0.6 29.986 0.6 29.986 30.587 0 30.587"></polygon>
    </defs>
    <g id="Page-1" stroke="none" stroke-width="1" fill="none" fill-rule="evenodd">
        <g id="Cross">
            <mask id="mask-2" fill="white">
                <use xlink:href="#path-1"></use>
            </mask>
            <g id="a"></g>
            <path d="M25.3,7.206 C19.958,0.681 10.024,0.683 4.685,7.209 C0.732,12.04 0.732,19.145 4.685,23.977 C10.025,30.505 19.964,30.505 25.305,23.974 C29.256,19.141 29.255,12.036 25.3,7.206 M4.386,26.2 C-1.863,19.953 -1.434,9.518 5.668,3.841 C11.077,-0.482 18.912,-0.481 24.321,3.843 C31.421,9.519 31.848,19.952 25.6,26.2 C19.752,32.05 10.235,32.05 4.386,26.2" id="Shape" fill="#FFFFFF" fill-rule="nonzero"></path>
            <path d="M18.57,20.382 L10.206,12.018 C9.98931842,11.8014971 9.90459933,11.4858418 9.98375559,11.1899386 C10.0629119,10.8940354 10.2939177,10.6628389 10.5897556,10.5834386 C10.8855934,10.5040383 11.2013184,10.5884971 11.418,10.805 L19.782,19.169 C20.0826748,19.5089683 20.0669959,20.0241789 19.7462048,20.3452347 C19.4254136,20.6662905 18.9102162,20.6823944 18.57,20.382" id="Path" fill="#FFFFFF" fill-rule="nonzero"></path>
            <path d="M10.206,20.382 C10.0448368,20.2213729 9.95416806,20.0032477 9.95398018,19.7757074 C9.95379289,19.548167 10.0441019,19.3298926 10.205,19.169 L18.569,10.805 C18.9063286,10.4844665 19.4376755,10.491248 19.7667138,10.8202862 C20.095752,11.1493245 20.1025335,11.6806714 19.782,12.018 L11.418,20.382 C11.257411,20.54297 11.0393767,20.633434 10.812,20.633434 C10.5846233,20.633434 10.366589,20.54297 10.206,20.382" id="Path" fill="#FFFFFF" fill-rule="nonzero"></path>
        </g>
    </g>
</svg>