<svg xmlns="http://www.w3.org/2000/svg" width="16" height="15">
    <path fill-rule="evenodd" d="M12.639 14.48H3.475c-1.498-.066-2.688-1.282-2.72-2.779v-.689c.017-.255.208-.463.461-.502H3.58L3.664.648c-.001-.014 0-.029.001-.044.024-.206.21-.355.417-.332h10.859c.239-.001.438.181.46.418v11.032c0 1.523-1.237 2.758-2.762 2.758zM1.592 11.346v.355c.023 1.08.906 1.944 1.988 1.943h7.009c-.533-.507-.835-1.208-.837-1.943v-.355h-8.16zM14.564 1.108H4.501l-.084 9.402h5.795c.231 0 .377.272.377.502v.689c0 1.096.89 1.985 1.987 1.985 1.098 0 1.988-.889 1.988-1.985V1.108zM12.43 8.839H5.839c-.231 0-.418-.187-.418-.418 0-.231.187-.418.418-.418h6.591c.231 0 .419.187.419.418 0 .231-.188.418-.419.418zm0-2.507H5.839c-.231 0-.418-.187-.418-.418 0-.231.187-.418.418-.418h6.591c.231 0 .419.187.419.418 0 .231-.188.418-.419.418zM9.082 4.033H5.839c-.231 0-.418-.187-.418-.418 0-.23.187-.418.418-.418h3.243c.231 0 .419.188.419.418 0 .231-.188.418-.419.418z" opacity=".6"/>
</svg>
