<svg xmlns="http://www.w3.org/2000/svg" width="43" height="43">
    <defs>
        <filter id="prefix__a" width="42" height="42" x=".5" y=".5" filterUnits="userSpaceOnUse">
            <feOffset dy="2" in="SourceAlpha"/>
            <feGaussianBlur result="blurOut" stdDeviation="2.236"/>
            <feFlood flood-color="#000" result="floodOut"/>
            <feComposite in="floodOut" in2="blurOut" operator="atop"/>
            <feComponentTransfer>
                <feFuncA slope=".04" type="linear"/>
            </feComponentTransfer>
            <feMerge>
                <feMergeNode/>
                <feMergeNode in="SourceGraphic"/>
            </feMerge>
        </filter>
    </defs>
    <g filter="url(#prefix__a)">
        <path fill="#FFF" fill-rule="evenodd" stroke="#000" d="M21.166 3.672c8.673 0 15.703 7.03 15.703 15.703 0 8.673-7.03 15.703-15.703 15.703-8.673 0-15.703-7.03-15.703-15.703 0-8.673 7.03-15.703 15.703-15.703z"/>
    </g>
    <path fill-rule="evenodd" d="M14.444 26.461h.094l4.537-.988c.088-.014.17-.055.235-.117l7.687-7.69c.561-.561.874-1.323.869-2.117.001-.799-.311-1.568-.869-2.14-.561-.562-1.323-.875-2.116-.87-.798-.007-1.564.316-2.116.894l-7.663 7.69c-.068.054-.117.128-.141.211l-.987 4.539c-.027.163.025.329.141.447.087.089.205.139.329.141zM24.881 13.48c1.129 0 2.045.916 2.045 2.046v.023c.008.539-.205 1.057-.588 1.435l-2.891-2.916c.381-.379.897-.591 1.434-.588zm-2.092 1.27l2.891 2.892-6.699 6.679-2.892-2.869 6.7-6.702zm-7.076 7.643l2.327 2.328-2.985.658.658-2.986z" opacity=".4"/>
</svg>
