<svg xmlns="http://www.w3.org/2000/svg" width="15" height="14">
    <path fill-rule="evenodd" d="M.944 13.961h.094l4.537-.988c.088-.014.17-.055.235-.117l7.686-7.69c.562-.561.875-1.323.87-2.117.001-.799-.311-1.568-.87-2.14-.56-.562-1.322-.875-2.115-.87-.799-.007-1.564.316-2.116.894l-7.663 7.69c-.068.054-.117.128-.142.212l-.986 4.538c-.028.163.025.329.14.447.088.089.206.14.33.141zM11.381.98c1.129 0 2.044.916 2.044 2.046v.023c.008.539-.204 1.057-.586 1.435L9.947 1.568c.381-.379.897-.591 1.434-.588zM9.289 2.25l2.891 2.892-6.7 6.679-2.891-2.869 6.7-6.702zM2.213 9.893l2.327 2.328-2.985.658.658-2.986z" opacity=".4"/>
</svg>
