<svg id="Layer_1" data-name="Layer 1" xmlns="http://www.w3.org/2000/svg" xmlns:xlink="http://www.w3.org/1999/xlink" viewBox="0 0 26.65 27.67"><defs><style>.cls-1,.cls-2,.cls-4{fill:#fff;}.cls-1{clip-rule:evenodd;}.cls-2{fill-rule:evenodd;}.cls-3{clip-path:url(#clip-path);}</style><clipPath id="clip-path" transform="translate(4.89 4.69)"><path class="cls-1" d="M15.88.25H1a1,1,0,0,0-.95,1V17.1a1,1,0,0,0,1,.95H8.05V11.53H5.81V8.92H8.05V7A3.14,3.14,0,0,1,11.4,3.56a18.3,18.3,0,0,1,2,.11V6H12c-1.08,0-1.29.52-1.29,1.27V8.92h2.58L13,11.53H10.74v6.52h5.14a1,1,0,0,0,.95-.95V1.2A1,1,0,0,0,15.88.25Z"/></clipPath></defs><title>Facebook</title><path class="cls-2" d="M15.88.25H1a1,1,0,0,0-.95,1V17.1a1,1,0,0,0,1,.95H8.05V11.53H5.81V8.92H8.05V7A3.14,3.14,0,0,1,11.4,3.56a18.3,18.3,0,0,1,2,.11V6H12c-1.08,0-1.29.52-1.29,1.27V8.92h2.58L13,11.53H10.74v6.52h5.14a1,1,0,0,0,.95-.95V1.2A1,1,0,0,0,15.88.25Z" transform="translate(4.89 4.69)"/><g class="cls-3"><rect class="cls-4" width="26.65" height="27.67"/></g></svg>