<?xml version="1.0" encoding="utf-8"?>
<!-- Generator: Adobe Illustrator 22.0.0, SVG Export Plug-In . SVG Version: 6.00 Build 0)  -->
<svg version="1.1" id="Layer_1" xmlns="http://www.w3.org/2000/svg" xmlns:xlink="http://www.w3.org/1999/xlink" x="0px" y="0px"
	 viewBox="0 0 122.5 118.6" style="enable-background:new 0 0 122.5 118.6;" xml:space="preserve">
<style type="text/css">
	.st0{opacity:0.65;}
	.st1{fill:#DCE8F7;}
	.st2{opacity:0.8;fill:#DCE8F7;}
	.st3{fill:#263238;}
	.st4{fill:#FFFFFF;}
	.st5{fill:#282828;}
	.st6{fill:#CBECF4;}
	.st7{fill:#267BF8;}
	.st8{fill:#1A2E35;}
	.st9{fill:#66CAF3;}
	.st10{fill:#FE5356;}
	.st11{fill:#FFBE9D;}
	.st12{fill:#EA424A;}
	.st13{fill:#A1E2EC;}
	.st14{opacity:0.5;fill:#267BF8;}
	.st15{opacity:0.5;fill:#66CAF3;}
</style>
<g>
	<g class="st0">
		<path class="st1" d="M118.6,76.7c0,0-8.1,19.3-29.2,25.9c-21.2,6.6-44-1.4-62.6-7.4C8.1,89.3-1.9,73.3,2,56.8
			c3.9-16.5,19.5-15.6,33.8-30.4c14.3-14.8,15.9-21,36-25.6c20.1-4.6,42.5,12,48.4,36C126.1,60.8,118.6,76.7,118.6,76.7z"/>
		<path class="st2" d="M118.6,76.7c0,0-8.1,19.3-29.2,25.9c-21.2,6.6-44-1.4-62.6-7.4C8.1,89.3-1.9,73.3,2,56.8
			c3.9-16.5,19.5-15.6,33.8-30.4c14.3-14.8,15.9-21,36-25.6c20.1-4.6,42.5,12,48.4,36C126.1,60.8,118.6,76.7,118.6,76.7z"/>
	</g>
	<g>
		<path class="st3" d="M59.9,29.8c0,0-2.7,0.3-3.7-1.3c0,0-3.1,0-3.5-2.6c-0.4-2.5,1-3.9,1-3.9s-2.4-0.5-2.9-2.6
			c-0.6-2.6,1.5-3.6,1.5-3.6s-2.5-2.2,0-4.9c1.5-1.6,3.6-0.3,3.6-0.3s-0.7-3.3,2.7-3.8c3.6-0.5,3.8,2.5,3.8,2.5s0-4.4,4.7-3.5
			c4,0.8,3.1,4.3,3.1,4.3s1.2-3.5,4.8-1.6c3,1.6,1.6,4.7,1.6,4.7s2.7-0.2,3.3,2.7c0.9,4.3-1.7,5.2-1.7,5.2s1.9,0.9,1.7,3.4
			c-0.3,2.8-3.1,3.5-3.1,3.5s-1.6,2.5-4.5,1.9"/>
		<g>
			<path class="st4" d="M72.3,37.3c0,0-0.3,5.9-5.7,5.7c-1.2,0-2.1-0.3-3-0.7c-3-1.5-4-4.6-4-4.6c2.5-0.7,2.5-5.3,2.5-5.3l7,0.2
				c0,0,0,0.5,0.1,1.2c0.1,0.9,0.4,2.2,1,2.8C71.5,37.8,72.3,37.3,72.3,37.3z"/>
			<path class="st5" d="M72.3,37.3c0,1.5-0.5,3.1-1.5,4.3c-1,1.3-2.8,1.8-4.3,1.7c-1.6,0-3.2-0.6-4.5-1.6c-1.3-1-2.2-2.4-2.8-3.9
				L59,37.3l0.5-0.2c0.8-0.2,1.4-1,1.7-1.9c0.3-0.9,0.5-2,0.5-2.9l0-0.5l0.5,0c2.3,0.1,4.7,0.2,7,0.4l0.3,0l0,0.3
				c0,0.5,0,1.1,0.1,1.6c0.1,0.5,0.2,1,0.3,1.5c0.2,0.5,0.5,0.9,0.9,1.2C71.2,37.2,71.8,37.5,72.3,37.3z M72.3,37.3
				c-0.5,0.3-1.1,0.1-1.6-0.2c-0.5-0.3-0.9-0.7-1.1-1.3c-0.2-0.5-0.4-1.1-0.5-1.6c-0.1-0.5-0.1-1.1-0.2-1.7l0.3,0.3
				c-2.3,0-4.7,0-7,0l0.5-0.5c0,1.1-0.2,2.2-0.5,3.3c-0.2,0.5-0.4,1.1-0.8,1.5c-0.4,0.5-0.9,0.9-1.5,1l0.3-0.6
				c0.5,1.3,1.3,2.6,2.4,3.5c1.1,0.9,2.5,1.5,3.9,1.6c1.4,0.1,2.9-0.3,4-1.3C71.5,40.3,72,38.8,72.3,37.3z"/>
		</g>
		<path class="st6" d="M63.9,34.4c0,0-2,2.7-1.5,4.4c0.5,1.6,1.8,3.1,3.1,3.3l-1.8,0.3c-3-1.5-4-4.6-4-4.6c2.5-0.7,2.5-5.3,2.5-5.3
			l7,0.2c0,0,0,0.5,0.1,1.2C68.5,34.2,66.4,35.2,63.9,34.4z"/>
		<g>
			<path class="st4" d="M50.7,90.7l-1.3,4.5l-0.7,2.3c0,0-15.3-9-15.6-15.5c-0.4-6.5,3.5-20,3.5-20s0.9,0.5,2.2,1
				c1,0.4,2.1,0.8,3.4,1.2c3.2,0.9,4.2,1.1,4.2,1.1s-3.9,12.8-3,17.7C44.4,88,50.7,90.7,50.7,90.7z"/>
			<path class="st5" d="M50.8,90.7l-0.8,3.5c-0.3,1.2-0.6,2.3-0.9,3.5L48.9,98l-0.3-0.2c-3.1-1.8-6.1-3.8-8.9-6.1
				c-1.4-1.2-2.7-2.4-3.9-3.8c-1.2-1.4-2.3-2.9-2.8-4.7c-0.3-0.9-0.2-1.8-0.1-2.7c0-0.9,0.1-1.8,0.2-2.7c0.2-1.8,0.5-3.5,0.8-5.3
				c0.6-3.5,1.4-7,2.3-10.5l0.1-0.4l0.4,0.2c0.8,0.3,1.6,0.7,2.4,1l2.4,0.8c0.8,0.3,1.6,0.5,2.5,0.7l2.5,0.7l0.5,0.1l-0.1,0.5
				c-0.6,2.3-1.3,4.6-1.8,7c-0.5,2.3-1,4.7-1.3,7.1c-0.1,1.2-0.2,2.4,0,3.5c0.2,1.1,0.7,2.2,1.4,3.1C46.7,88.1,48.6,89.5,50.8,90.7z
				 M50.7,90.7c-2.2-0.9-4.3-2.3-5.9-4.2c-0.8-1-1.4-2.1-1.7-3.4c-0.2-1.3-0.2-2.5-0.1-3.7c0.2-2.5,0.6-4.9,1.1-7.2
				c0.5-2.4,1.1-4.7,1.8-7.1l0.4,0.6l-2.5-0.7c-0.8-0.2-1.7-0.4-2.5-0.8l-2.5-0.9c-0.8-0.3-1.6-0.7-2.4-1.1l0.6-0.2
				c-1,3.4-2,6.9-2.7,10.4c-0.3,1.8-0.7,3.5-0.8,5.3c-0.1,0.9-0.2,1.8-0.2,2.7c0,0.9,0,1.8,0.3,2.6c0.5,1.6,1.7,3,2.8,4.3
				c1.2,1.3,2.5,2.5,3.9,3.6c2.7,2.3,5.6,4.3,8.6,6.3l-0.4,0.2c0.4-1.1,0.7-2.3,1.1-3.3L50.7,90.7z"/>
		</g>
		<g>
			<path class="st4" d="M99,82c-0.3,4.7-8.5,10.9-12.9,13.8c-1.6,1.1-2.7,1.7-2.7,1.7l-2-6.8c0,0,1.3-0.5,2.7-1.6
				c0,0,0.1-0.1,0.1-0.1c0,0,0,0,0,0c1.8-1.3,3.9-3.3,4.4-6c0.9-4.9-3.4-17.8-3.4-17.8s0.9-0.2,3-0.8c0.5-0.1,1-0.3,1.6-0.4
				c3.1-0.9,5.7-2,5.7-2S99.4,75.5,99,82z"/>
			<path class="st5" d="M99.1,82c-0.2,1.9-1.3,3.6-2.4,5.1c-1.2,1.5-2.5,2.8-3.9,4.1c-1.4,1.3-2.9,2.4-4.4,3.6
				c-1.5,1.1-3.1,2.1-4.7,3.1l-0.5,0.3L83,97.6l-1.8-6.9l-0.1-0.2l0.2-0.1c1-0.4,2-1,2.9-1.6L84.1,89c0-0.1,0.1-0.2,0.2-0.2l-0.1,0
				c1.7-1.2,3.3-2.8,4-4.8c0.7-2,0.3-4.2,0-6.3c-0.4-2.1-0.9-4.2-1.5-6.2c-0.6-2.1-1.2-4.1-1.9-6.1l-0.2-0.5l0.5-0.1l5.2-1.5
				c1.7-0.5,3.4-1.1,5-1.8l0.5-0.2l0.2,0.6c0.5,1.6,0.8,3.3,1.2,5c0.4,1.7,0.7,3.3,0.9,5c0.3,1.7,0.5,3.4,0.7,5.1
				C99,78.6,99.2,80.3,99.1,82z M99,82c0.1-1.7-0.1-3.4-0.4-5.1c-0.3-1.7-0.6-3.3-1-5c-0.8-3.3-1.7-6.6-2.5-9.8l0.7,0.3
				c-1.7,0.7-3.4,1.3-5.1,1.9c-1.7,0.5-3.5,0.9-5.2,1.4l0.3-0.6c1.3,4.1,2.4,8.3,3,12.6c0.3,2.1,0.5,4.4-0.2,6.5
				c-0.8,2.1-2.4,3.7-4.2,5l-0.1,0c0.1,0,0.2-0.1,0.2-0.2l-0.1,0.1c-0.9,0.6-1.9,1.2-2.9,1.7l0.1-0.3l2.2,6.8l-0.6-0.2
				c1.6-1,3.1-2,4.7-3.1c1.5-1.1,3-2.2,4.5-3.3c1.5-1.2,2.9-2.4,4.1-3.8C97.7,85.5,98.8,83.9,99,82z"/>
		</g>
		<path class="st7" d="M60,37.3c0,0,2.1,5.2,6.1,5.3c4.2,0.1,5.1-2.7,5.7-5.3c19.9-0.2,26,26.1,26,26.1s-2.2,1-4.3,1.6
			c-2.3,0.7-7,2-7,2l0.4,36.2H44.7l0.9-36.2c0,0-4.4-1-6.6-1.8c-3.3-1.1-4.5-2.1-4.5-2.1S39.8,37.3,60,37.3z"/>
		<g>
			<path class="st8" d="M46.7,63.3c0-1.6,0.2-3.2,0.6-4.7c0.2-0.8,0.6-1.5,0.8-2.3c0.2-0.8,0.4-1.5,0.5-2.3c0.2-1.6,0.6-3.1,1.1-4.7
				c0.5-1.5,1.2-3,2.1-4.3c0,0,0,0,0.1,0c0,0,0,0,0,0.1c-0.3,1.6-0.7,3.1-1.2,4.6c-0.2,0.8-0.5,1.5-0.7,2.3
				c-0.2,0.8-0.5,1.5-0.8,2.2c-0.3,0.7-0.5,1.5-0.7,2.3c-0.1,0.8-0.2,1.6-0.3,2.4C47.9,60.3,47.5,61.9,46.7,63.3
				C46.8,63.4,46.8,63.4,46.7,63.3C46.7,63.4,46.7,63.3,46.7,63.3z"/>
		</g>
		<g>
			<path class="st8" d="M84.2,62.9c-1-2-1.8-4-2.6-6l-2.3-6.1c0.8,0.8,1.3,1.8,1.9,2.7c0.5,1,1,2,1.4,3c0.4,1,0.7,2.1,1,3.1
				C83.8,60.7,84,61.8,84.2,62.9z"/>
		</g>
		<g>
			<path class="st8" d="M72.3,53c-0.1,2.2-0.6,4.4-1.3,6.6c-0.7,2.1-1.7,4.2-2.9,6.1c-1.2,1.9-2.8,3.6-4.6,4.9
				c-1.8,1.4-4,2.2-6.1,2.7c0.5-0.2,1-0.5,1.5-0.7l0.8-0.3l0.7-0.4c0.5-0.3,1-0.5,1.4-0.9l1.3-1c1.6-1.4,3.1-3,4.3-4.9
				c1.2-1.8,2.2-3.8,3-5.8c0.4-1,0.8-2.1,1.1-3.1C71.8,55.1,72,54,72.3,53z"/>
		</g>
		<g>
			<path class="st8" d="M64.5,57.4c-0.1,1.4-0.5,2.7-1.2,3.9c-0.4,0.6-0.8,1.1-1.2,1.6c-0.4,0.6-0.7,1.1-1.1,1.7
				c-0.3,0.6-0.7,1.2-1.2,1.7c-0.4,0.5-1,1-1.5,1.4c-1.1,0.8-2.4,1.4-3.8,1.6c0,0-0.1,0-0.1,0c0,0,0,0,0-0.1
				c1.1-0.8,2.2-1.5,3.2-2.3c1-0.8,2-1.7,2.9-2.6c0.5-0.5,0.9-1,1.2-1.6c0.3-0.6,0.5-1.2,0.8-1.8C63.1,59.6,63.7,58.5,64.5,57.4
				C64.4,57.3,64.5,57.3,64.5,57.4C64.5,57.3,64.5,57.3,64.5,57.4z"/>
		</g>
		<g>
			<path class="st8" d="M60.2,37c0.6,1.3,1.3,2.4,2.3,3.3c1,0.9,2.2,1.6,3.5,1.5c1.3,0,2.7-0.4,3.5-1.3c0.9-0.9,1.2-2.3,1.5-3.6
				l0-0.2l0.2,0c3.2-0.1,6.4,0.6,9.3,2.1c2.9,1.4,5.3,3.6,7.4,6c2.1,2.4,3.8,5.1,5.1,8c1.4,2.9,2.5,5.8,3.3,8.9l0.1,0.3l-0.3,0.1
				c-0.9,0.4-1.7,0.8-2.6,1.1c-0.9,0.3-1.8,0.6-2.7,0.8l-5.4,1.5l0.3-0.3c0,5.7,0,11.5,0,17.2c0,5.7,0.1,11.5,0.2,17.2l0,0.2l-0.2,0
				l-40.1,0.3l-0.5,0l0-0.5l0.4-17.2l0.4-17.2l0.4,0.5c-1.8-0.4-3.6-0.9-5.5-1.4c-0.9-0.3-1.8-0.6-2.7-1c-0.9-0.4-1.7-0.8-2.6-1.4
				l-0.2-0.2l0.1-0.3c0.7-3.1,1.8-6,3.2-8.9c1.4-2.8,3-5.5,5.1-7.9c2.1-2.4,4.5-4.4,7.4-5.8C53.9,37.6,57,37,60.2,37z M60.1,37.1
				c-3,0.1-6.2,0.8-8.9,2.2c-2.7,1.4-5.1,3.4-7.1,5.8c-2,2.4-3.6,5-4.8,7.8c-1.3,2.8-2.3,5.7-3,8.7l-0.1-0.4
				c0.7,0.5,1.5,0.9,2.4,1.2c0.8,0.3,1.7,0.6,2.6,0.9c1.8,0.5,3.6,1,5.4,1.4l0.4,0.1l0,0.4l-0.4,17.2l-0.5,17.2l-0.5-0.5l40.1,0.3
				l-0.2,0.2c0-5.7-0.1-11.5-0.2-17.2C85.2,76.7,85.1,71,85,65.3l0-0.3l0.3-0.1l5.4-1.6c0.9-0.3,1.8-0.5,2.7-0.9
				c0.9-0.3,1.7-0.7,2.6-1.1l-0.2,0.5c-0.8-3-1.9-5.9-3.3-8.7c-1.4-2.8-3-5.5-5-7.8c-2-2.4-4.4-4.4-7.1-5.8
				c-2.7-1.4-5.8-2.2-8.9-2.2l0.3-0.2c-0.3,1.3-0.7,2.7-1.7,3.8c-1,1.1-2.5,1.4-3.9,1.3c-1.4,0-2.7-0.8-3.7-1.7
				C61.4,39.6,60.6,38.3,60.1,37.1z"/>
		</g>
		<path class="st9" d="M92.8,101.6H42.4l-1.1-31c0-0.8,0.6-1.5,1.4-1.5h49.9c0.8,0,1.5,0.7,1.4,1.5L92.8,101.6z"/>
		<g>
			<path class="st8" d="M90.6,100.2l-12.3,0.2c-4.1,0.1-8.2,0.1-12.4,0.1c-4.1,0-8.3,0.1-12.5,0c-4.2,0-8.3-0.1-12.5-0.1l-0.3,0
				l0-0.3c-0.2-9.6-0.5-19.3-1-28.9l-0.1-1.8c0-0.3-0.1-0.7,0.1-1c0.1-0.3,0.4-0.6,0.7-0.8c0.3-0.2,0.7-0.3,1-0.3l0.9,0l1.8,0
				l7.2-0.1l14.4-0.1c4.8,0,9.6-0.1,14.4,0l7.2,0l1.8,0l0.9,0c0.3,0,0.8,0.1,1.1,0.3c0.3,0.2,0.6,0.6,0.7,0.9
				c0.2,0.4,0.1,0.8,0.1,1.1l-0.1,1.8C91.6,81.1,91.2,90.8,90.6,100.2z M90.6,100.2c0.2-9.8,0.4-19.3,0.6-28.9l0-1.8
				c0-0.3,0-0.5-0.1-0.7c-0.1-0.2-0.2-0.3-0.4-0.4c-0.2-0.1-0.3-0.2-0.6-0.1l-0.9,0l-1.8,0l-7.2,0c-4.8,0-9.6,0-14.4,0l-14.4-0.1
				L44.2,68l-1.8,0l-0.9,0c-0.3,0-0.5,0-0.7,0.2c-0.2,0.1-0.4,0.3-0.5,0.6c-0.1,0.2-0.1,0.5-0.1,0.8l0,1.8
				c0.2,9.6,0.6,19.3,1.1,28.9l-0.3-0.3c4.1-0.1,8.2-0.1,12.3-0.1c4.1,0,8.2,0,12.3,0c4.1,0,8.2,0.1,12.4,0.1L90.6,100.2z"/>
		</g>
		<path class="st10" d="M89.3,111.3c0,0,1-0.9,2.9-0.8c1.3,0.1,4.9,1.3,6.6,1.4s3.6,0,4.4,1.5c1.4,2.7,0.5,4.9-2.4,4.9
			c-1.6,0-2.7-1.1-5.2-1.1c-2.4,0-6.1-1.2-7-3"/>
		<path class="st11" d="M86.1,109.8c0,0,1.9,0.7,3.1,0.9c1.3,0.2,4.2,0.2,5.4,1.1c1.3,1,0.5,3.4-0.4,3.8c-1.5,0.8-2.6,0.2-5.2-0.9
			c-2.5-1.1-5.7-1.1-5.7-1.1"/>
		<g>
			<path class="st4" d="M28.7,87.9c-4.4-0.3-8,3.5-7.3,7.8c0,0.1,0,0.1,0,0.2c1.1,6.5,9.1,10.6,18.7,12.9c9.6,2.3,46.1,6.7,46.1,6.7
				s1.8-1.8,1.6-6.5c0,0-8.5-2.8-19.4-8.5C54.8,93.3,42.9,88.9,28.7,87.9z"/>
			<path class="st5" d="M28.7,87.9c-1.7-0.1-3.5,0.4-4.8,1.5c-1.3,1.1-2.3,2.7-2.4,4.3c-0.1,0.8,0,1.7,0.2,2.5
				c0.1,0.4,0.2,0.8,0.4,1.2l0.2,0.6l0.3,0.5c0.8,1.5,2,2.7,3.4,3.7c2.7,2.1,5.9,3.4,9.1,4.5c1.6,0.5,3.3,1,4.9,1.4
				c1.7,0.4,3.4,0.7,5,1.1c6.8,1.3,13.6,2.3,20.5,3.3c6.8,0.9,13.7,1.7,20.6,2.4l-0.3,0.1c0.3-0.4,0.6-0.9,0.8-1.4
				c0.2-0.5,0.3-1,0.5-1.6c0.1-0.5,0.2-1.1,0.2-1.6c0-0.6,0-1.1,0-1.7l0.3,0.4c-5-1.7-9.9-3.8-14.7-6c-2.4-1.1-4.7-2.4-7.1-3.6
				c-2.3-1.2-4.7-2.3-7.1-3.4c-4.8-2.2-9.7-4.1-14.7-5.6c-2.5-0.7-5.1-1.3-7.7-1.8C33.9,88.5,31.3,88.1,28.7,87.9z M28.7,87.8
				c5.3,0.4,10.5,1.2,15.6,2.4c5.1,1.3,10.1,3,15,5.2c2.4,1.1,4.8,2.2,7.2,3.4c2.4,1.2,4.7,2.4,7,3.5c4.7,2.3,9.6,4.4,14.5,6.1
				l0.3,0.1l0,0.3c0,0.6,0,1.2-0.1,1.8c-0.1,0.6-0.1,1.2-0.3,1.7c-0.1,0.6-0.3,1.1-0.5,1.7c-0.2,0.6-0.5,1.1-1,1.6l-0.1,0.1l-0.2,0
				l-20.5-2.8c-6.8-0.9-13.7-1.8-20.6-2.8c-3.4-0.5-6.8-1.3-10.1-2.4c-3.3-1.1-6.5-2.6-9.3-4.8c-1.4-1.1-2.6-2.5-3.4-4l-0.3-0.6
				l-0.2-0.6c-0.2-0.4-0.3-0.8-0.4-1.3c-0.2-0.8-0.2-1.8-0.1-2.6c0.2-1.8,1.2-3.4,2.6-4.4C25.1,88.2,26.9,87.7,28.7,87.8z"/>
		</g>
		<path class="st12" d="M95.4,112.3c0,0-0.9-0.6-1.3-0.1c-0.4,0.5-0.8,3-0.7,3.4c0.2,0.7,1.7,0.6,1.7,0.6l1.5-3L95.4,112.3z"/>
		<path class="st10" d="M42.6,111.5c0,0-1-0.9-3-0.8c-1.3,0.1-5,1.3-6.8,1.5c-1.8,0.2-3.6,0-4.6,1.3c-1.9,2.5,0.4,5.1,3.4,5.2
			c1.6,0,2-0.9,4.5-0.9c2.5,0,6.2-1.2,7.1-3.1"/>
		<path class="st11" d="M45.9,110c0,0-1.9,0.8-3.2,1c-1.3,0.2-4.3,0.2-5.5,1.1c-1.3,1.1-0.6,3.4,0.4,3.9c1.6,0.8,2.7,0.2,5.3-0.9
			c2.6-1.1,5.8-1.1,5.8-1.1"/>
		<g>
			<path class="st4" d="M103.3,87.9c4.4-0.3,8,3.5,7.3,7.8c0,0.1,0,0.1,0,0.2c-1.1,6.5-9.1,10.6-18.7,12.9
				c-9.6,2.3-46.1,6.7-46.1,6.7s-1.8-1.8-1.6-6.5c0,0,8.5-2.8,19.4-8.5C77.1,93.3,89,88.9,103.3,87.9z"/>
			<path class="st5" d="M103.3,87.8c1.7-0.1,3.5,0.4,4.9,1.5c1.4,1.1,2.3,2.7,2.6,4.4c0.1,0.9,0.1,1.8-0.1,2.6
				c-0.1,0.4-0.2,0.9-0.4,1.3l-0.2,0.6l-0.3,0.6c-0.8,1.6-2,2.9-3.4,4c-2.7,2.2-6,3.7-9.3,4.8c-3.3,1.1-6.7,1.9-10.1,2.4
				c-6.8,1.1-13.7,1.9-20.6,2.8l-20.5,2.8l-0.2,0l-0.1-0.1c-0.5-0.5-0.7-1-1-1.6c-0.2-0.6-0.4-1.1-0.5-1.7c-0.1-0.6-0.2-1.2-0.3-1.7
				c0-0.6-0.1-1.2-0.1-1.8l0-0.3l0.3-0.1c4.9-1.8,9.8-3.8,14.5-6.1c2.4-1.1,4.7-2.3,7-3.5c2.4-1.2,4.7-2.3,7.2-3.4
				c4.8-2.1,9.8-3.9,15-5.2C92.8,89,98,88.2,103.3,87.8z M103.3,87.9c-2.6,0.2-5.2,0.5-7.8,1c-2.6,0.5-5.1,1.1-7.7,1.8
				c-5,1.5-9.9,3.4-14.7,5.6c-2.4,1.1-4.8,2.2-7.1,3.4c-2.3,1.2-4.7,2.4-7.1,3.6c-4.8,2.2-9.6,4.3-14.7,6l0.3-0.4c0,0.6,0,1.1,0,1.7
				c0,0.6,0.1,1.1,0.2,1.6c0.1,0.5,0.3,1.1,0.5,1.6c0.2,0.5,0.5,1,0.8,1.4l-0.3-0.1c6.9-0.8,13.7-1.5,20.6-2.4
				c6.8-0.9,13.7-2,20.5-3.3c1.7-0.3,3.4-0.7,5-1.1c1.7-0.4,3.3-0.9,4.9-1.4c3.2-1.1,6.4-2.4,9.1-4.5c1.3-1,2.6-2.3,3.4-3.7l0.3-0.5
				l0.2-0.6c0.2-0.4,0.3-0.8,0.4-1.2c0.3-0.8,0.3-1.7,0.2-2.5c-0.1-1.7-1.1-3.3-2.4-4.3C106.7,88.3,105,87.8,103.3,87.9z"/>
		</g>
		<g>
			<path class="st4" d="M65.3,33.7c0,0-9,1.2-7.9-16.6h17C74.4,17.1,76.5,34.8,65.3,33.7z"/>
			<path class="st5" d="M65.3,33.7c-1.7,0.1-3.4-0.7-4.6-1.9c-1.2-1.2-2-2.8-2.6-4.5c-0.5-1.7-0.8-3.4-1-5.1c0-0.9-0.2-1.7-0.1-2.6
				l0-2.6l0-0.4l0.4,0c5.7-0.1,11.3-0.1,17,0l0.4,0l0,0.4c0.1,1.9,0.1,3.7-0.1,5.5c-0.2,1.8-0.5,3.7-1.2,5.4
				c-0.6,1.7-1.6,3.4-3.1,4.5c-0.7,0.5-1.6,0.9-2.5,1.1C67.2,33.8,66.2,33.8,65.3,33.7z M65.3,33.7c0.9,0.1,1.8,0.1,2.7-0.2
				c0.9-0.2,1.7-0.6,2.4-1.2c1.5-1.1,2.3-2.8,2.9-4.5c0.5-1.7,0.8-3.5,0.9-5.3c0.1-1.8,0-3.6-0.2-5.4l0.4,0.4
				c-5.7,0.1-11.3,0.1-17,0l0.4-0.4l-0.1,2.6c-0.1,0.9,0,1.7,0,2.6c0.1,1.7,0.3,3.4,0.7,5.1c0.5,1.6,1.2,3.2,2.4,4.5
				C61.9,33,63.6,33.8,65.3,33.7z"/>
		</g>
		<path class="st3" d="M56.5,22.7c0,0,1.8,0.3,2.4-1.4c0,0,2.9-0.3,3-2.8c0,0,2.5,0.9,3.8-0.9c0,0,0.6,1.7,2.2,1.7
			c1.6,0,2.1-1,2.1-1s0.2,2.3,2.4,2.7c2.3,0.4,2.9-2.1,2.9-2.1l-0.6-3.6L68,14.3l-9.4,0.9l-3.4,0.4L56.5,22.7z"/>
		<path class="st13" d="M68.7,83c0,1.8-1.4,3.2-3.2,3.2c-1.8,0-3.2-1.4-3.2-3.2s1.4-3.2,3.2-3.2C67.2,79.8,68.7,81.2,68.7,83z"/>
		<g>
			<g>
				<g>
					<g>
						<g>
							<g>
								<g>
									<g>
										<g>
											<g>
												<path class="st8" d="M61.5,24c0,0.3,0.3,0.6,0.7,0.6c0.4,0,0.7-0.3,0.7-0.6c0-0.3-0.3-0.6-0.7-0.6
													C61.8,23.4,61.5,23.7,61.5,24z"/>
											</g>
										</g>
									</g>
								</g>
							</g>
						</g>
					</g>
				</g>
			</g>
		</g>
		<g>
			<g>
				<g>
					<g>
						<g>
							<g>
								<g>
									<g>
										<g>
											<g>
												<g>
													<path class="st8" d="M61,23c0.1,0.1,0.6-0.3,1.3-0.3c0.7,0,1.2,0.3,1.3,0.2c0,0-0.1-0.2-0.3-0.3
														c-0.2-0.2-0.6-0.3-1-0.3c-0.4,0-0.8,0.2-1,0.4C61,22.8,61,23,61,23z"/>
												</g>
											</g>
										</g>
									</g>
								</g>
							</g>
						</g>
					</g>
				</g>
			</g>
		</g>
		<g>
			<g>
				<g>
					<g>
						<g>
							<g>
								<g>
									<g>
										<g>
											<g>
												<path class="st8" d="M68.6,24.1c0,0.3,0.3,0.6,0.7,0.6c0.4,0,0.7-0.3,0.7-0.6c0-0.3-0.3-0.6-0.7-0.6
													C68.8,23.5,68.6,23.8,68.6,24.1z"/>
											</g>
										</g>
									</g>
								</g>
							</g>
						</g>
					</g>
				</g>
			</g>
		</g>
		<g>
			<g>
				<g>
					<g>
						<g>
							<g>
								<g>
									<g>
										<g>
											<g>
												<g>
													<path class="st8" d="M67.9,23c0.1,0.1,0.6-0.3,1.3-0.3c0.7,0,1.2,0.3,1.3,0.2c0,0-0.1-0.2-0.3-0.3
														c-0.2-0.2-0.6-0.3-1-0.3c-0.4,0-0.8,0.2-1,0.4C68,22.8,67.9,22.9,67.9,23z"/>
												</g>
											</g>
										</g>
									</g>
								</g>
							</g>
						</g>
					</g>
				</g>
			</g>
		</g>
		<g>
			<g>
				<g>
					<g>
						<g>
							<g>
								<g>
									<g>
										<g>
											<g>
												<path class="st8" d="M66.1,28.7c0,0-0.4-0.1-1-0.1c-0.2,0-0.3,0-0.3-0.1c0-0.1,0-0.3,0.1-0.4c0.1-0.4,0.3-0.8,0.4-1.2
													c0.6-1.6,1-3,0.9-3c-0.1,0-0.6,1.3-1.1,2.9c-0.1,0.4-0.3,0.8-0.4,1.2c-0.1,0.2-0.1,0.4-0.1,0.6c0,0.1,0.2,0.2,0.3,0.2
													c0.1,0,0.2,0,0.3,0C65.7,28.7,66.1,28.7,66.1,28.7z"/>
											</g>
										</g>
									</g>
								</g>
							</g>
						</g>
					</g>
				</g>
			</g>
		</g>
		<g>
			<g>
				<g>
					<g>
						<g>
							<g>
								<g>
									<g>
										<g>
											<g>
												<path class="st8" d="M68.6,29.8c-0.1,0-0.3,0.7-1.1,1c-0.8,0.3-1.5,0-1.6,0.1c0,0,0.1,0.2,0.5,0.3
													c0.3,0.1,0.8,0.2,1.3,0c0.5-0.2,0.8-0.6,0.9-0.9C68.7,30,68.7,29.8,68.6,29.8z"/>
											</g>
										</g>
									</g>
								</g>
							</g>
						</g>
					</g>
				</g>
			</g>
		</g>
		<g>
			<g>
				<g>
					<g>
						<g>
							<g>
								<path class="st8" d="M67.7,20.2c0.1,0.2,0.8,0.1,1.6,0.2c0.8,0.1,1.5,0.3,1.6,0.1c0-0.1-0.1-0.3-0.4-0.4
									c-0.3-0.2-0.7-0.3-1.2-0.4c-0.5,0-1,0.1-1.2,0.2C67.8,20,67.6,20.1,67.7,20.2z"/>
							</g>
						</g>
					</g>
				</g>
			</g>
		</g>
		<g>
			<g>
				<g>
					<g>
						<g>
							<g>
								<path class="st8" d="M61.2,21c0.1,0.2,0.6,0,1.2-0.1c0.6,0,1.1,0.1,1.2-0.1c0-0.1,0-0.2-0.3-0.4c-0.2-0.1-0.6-0.3-1-0.2
									c-0.4,0-0.7,0.2-0.9,0.4C61.2,20.7,61.1,20.9,61.2,21z"/>
							</g>
						</g>
					</g>
				</g>
			</g>
		</g>
	</g>
	<path class="st14" d="M0.3,68.8l-0.2-0.3c-0.4-0.6,0.3-1.4,1-1l0.3,0.2C3.4,69,6.1,69,8.2,67.7l0.3-0.2c0.6-0.4,1.4,0.3,1,1
		l-0.2,0.3c-1.3,2.1-1.3,4.7,0.1,6.8l0.2,0.3c0.4,0.6-0.3,1.4-1,1l-0.3-0.2c-2.1-1.3-4.7-1.3-6.8,0.1l-0.3,0.2c-0.6,0.4-1.4-0.3-1-1
		l0.2-0.3C1.6,73.5,1.6,70.9,0.3,68.8z"/>
	<path class="st15" d="M18.4,10.8l0.2-0.1c0.4-0.2,0.8,0.2,0.6,0.6L19,11.4c-0.8,1.2-0.8,2.8-0.1,4l0.1,0.2c0.2,0.4-0.2,0.8-0.6,0.6
		L18.3,16c-1.2-0.8-2.8-0.8-4-0.1l-0.2,0.1c-0.4,0.2-0.8-0.2-0.6-0.6l0.1-0.2c0.8-1.2,0.8-2.8,0.1-4l-0.1-0.2
		c-0.2-0.4,0.2-0.8,0.6-0.6l0.2,0.1C15.6,11.5,17.2,11.5,18.4,10.8z"/>
</g>
</svg>
