<svg id="Layer_1" data-name="Layer 1" xmlns="http://www.w3.org/2000/svg" xmlns:xlink="http://www.w3.org/1999/xlink" viewBox="0 0 27.03 27.37"><defs><style>.cls-1{fill:none;}.cls-2{clip-path:url(#clip-path);}.cls-3{fill:#4285f4;}.cls-4{clip-path:url(#clip-path-2);}.cls-5{fill:#34a853;}.cls-6{clip-path:url(#clip-path-3);}.cls-7{fill:#fbbc04;}.cls-8{clip-path:url(#clip-path-4);}.cls-9{fill:#ea4335;}</style><clipPath id="clip-path" transform="translate(4.96 4.7)"><path class="cls-1" d="M17.05,9.18a10.37,10.37,0,0,0-.15-1.76H8.72v3.34h4.69a4,4,0,0,1-1.74,2.63v2.17h2.8A8.47,8.47,0,0,0,17.05,9.18Z"/></clipPath><clipPath id="clip-path-2" transform="translate(4.96 4.7)"><path class="cls-1" d="M8.72,17.65a8.29,8.29,0,0,0,5.75-2.09l-2.79-2.17a5.26,5.26,0,0,1-7.82-2.75H1v2.24A8.67,8.67,0,0,0,8.72,17.65Z"/></clipPath><clipPath id="clip-path-3" transform="translate(4.96 4.7)"><path class="cls-1" d="M3.85,10.64a5.24,5.24,0,0,1,0-3.32V5.09H1a8.68,8.68,0,0,0,0,7.79Z"/></clipPath><clipPath id="clip-path-4" transform="translate(4.96 4.7)"><path class="cls-1" d="M8.72,3.74A4.74,4.74,0,0,1,12.05,5l2.48-2.47A8.38,8.38,0,0,0,8.72.31,8.68,8.68,0,0,0,1,5.09L3.85,7.32A5.2,5.2,0,0,1,8.72,3.74Z"/></clipPath></defs><title>Google</title><g class="cls-2"><rect class="cls-3" x="8.67" y="7.11" width="18.36" height="18.17"/></g><g class="cls-4"><rect class="cls-5" x="0.92" y="10.33" width="23.52" height="17.04"/></g><g class="cls-6"><rect class="cls-7" y="4.78" width="13.83" height="17.81"/></g><g class="cls-8"><rect class="cls-9" x="0.92" width="23.58" height="17.04"/></g></svg>