<svg xmlns="http://www.w3.org/2000/svg" width="334" height="1257.22" viewBox="0 0 334 1257.22"><defs><style>.a,.i{fill:none;}.a{stroke:#fff;stroke-width:7px;stroke-dasharray:30 10;}.b{fill:#fff;}.c{fill:#ef5fb4;}.d{fill:#20bcf7;}.e{fill:#2af4d4;}.f{fill:#9b5de5;}.g{fill:#3f89fc;}.h{fill:red;}.j,.k,.l{fill:#141414;}.j{font-size:16px;font-family:Nunito-SemiBold, Nunito;font-weight:600;}.k{font-size:20px;font-family:Nunito-Bold, Nunito;font-weight:700;}.m{fill:#fd0d1b;}</style></defs><g transform="translate(-524 -3788.78)"><g transform="translate(4903.78 3575.78) rotate(90)"><path class="a" d="M3225,4011h92s32.751-1.249,47.761,13.761,12.279,46.279,12.279,46.279V4240" transform="translate(-2125 59.62)"/><circle class="b" cx="20" cy="20" r="20" transform="translate(1233 4283.78)"/><circle class="b" cx="20" cy="20" r="20" transform="translate(792 4114)"/><circle class="b" cx="20" cy="20" r="20" transform="translate(568.22 4283.78)"/><circle class="b" cx="20" cy="20" r="20" transform="translate(387 4105.78)"/><circle class="b" cx="20" cy="20" r="20" transform="translate(213 4283.78)"/><path class="a" d="M3247,4010h40s32.751-.268,47.761,14.867,12.279,45.671,12.279,45.671v168s-1.656,30.588,12.221,44.58,43.285,12.387,43.285,12.387H3444" transform="translate(-2940 59.62)"/><path class="a" d="M3464,4011h-62s-32.751-.267-47.761,14.868-12.279,45.673-12.279,45.673v167.995s1.656,29.589-12.221,43.581-43.285,12.387-43.285,12.387H3256" transform="translate(-2754 60)"/><path class="a" d="M3225,4011h112s32.751-1.249,47.761,13.761,12.279,46.279,12.279,46.279V4240s-1.656,29.344,12.221,43.221,43.285,12.285,43.285,12.285H3494" transform="translate(-2585 59.62)"/><path class="a" d="M3414,4010h-12s-30.751.751-45.761,15.761-14.279,44.279-14.279,44.279v173.053" transform="translate(-3109 60)"/><circle class="c" cx="10" cy="10" r="10" transform="translate(223 4293.78)"/><circle class="d" cx="10" cy="10" r="10" transform="translate(397 4115.78)"/><circle class="e" cx="10" cy="10" r="10" transform="translate(578 4293.78)"/><circle class="f" cx="10" cy="10" r="10" transform="translate(802 4124)"/><circle class="g" cx="10" cy="10" r="10" transform="translate(1243 4293.78)"/><path class="a" d="M3421,4011h-19s-32.751-.267-47.761,14.868-12.279,45.673-12.279,45.673v167.995s1.656,29.589-12.221,43.581-43.285,12.387-43.285,12.387H3233" transform="translate(-2314 60)"/><circle class="b" cx="20" cy="20" r="20" transform="translate(1007 4283.78)"/><circle class="h" cx="10" cy="10" r="10" transform="translate(1017 4293.78)"/></g><g transform="translate(728 4140)"><path class="i" d="M0,0H48V48H0Z"/><path class="b" d="M15.274,19.637,0,4.363,4.363,0,24,19.637,4.363,39.274,0,34.911Z" transform="translate(12.444 4.454)"/></g><g transform="translate(729 4580)"><path class="i" d="M0,0H48V48H0Z"/><path class="b" d="M15.274,19.637,0,4.363,4.363,0,24,19.637,4.363,39.274,0,34.911Z" transform="translate(12.444 4.454)"/></g><g transform="translate(858 3851) rotate(90)"><path class="i" d="M0,0H48V48H0Z"/><path class="b" d="M15.274,19.637,0,4.363,4.363,0,24,19.637,4.363,39.274,0,34.911Z" transform="translate(12.444 4.454)"/></g><g transform="translate(580 4364)"><path class="i" d="M48,0H0V48H48Z"/><path class="b" d="M8.726,19.637,24,4.363,19.637,0,0,19.637,19.637,39.274,24,34.911Z" transform="translate(11.556 4.454)"/></g><g transform="translate(720 4804)"><path class="i" d="M48,0H0V48H48Z"/><path class="b" d="M8.726,19.637,24,4.363,19.637,0,0,19.637,19.637,39.274,24,34.911Z" transform="translate(11.556 4.454)"/></g><g transform="translate(572 4049) rotate(90)"><path class="i" d="M0,0H48V48H0Z"/><path class="b" d="M15.274,19.637,0,4.363,4.363,0,24,19.637,4.363,39.274,0,34.911Z" transform="translate(12.444 4.454)"/></g><g transform="translate(482 233)"><text class="j" transform="translate(111 4457)"><tspan x="0" y="16">Industry-validated projects</tspan><tspan x="0" y="38">Professional networking</tspan><tspan x="0" y="60">Personal brand building</tspan><tspan x="0" y="82">Public speaking &amp; presentation</tspan><tspan x="0" y="104">skills</tspan></text><text class="k" transform="translate(100 4448)"><tspan x="0" y="0">College Years: 1 &amp; 2</tspan></text><circle class="l" cx="3" cy="3" r="3" transform="translate(100 4465)"/><circle class="l" cx="3" cy="3" r="3" transform="translate(100 4486)"/><circle class="l" cx="3" cy="3" r="3" transform="translate(100 4508)"/><circle class="l" cx="3" cy="3" r="3" transform="translate(100 4531)"/><g transform="translate(0 -6)"><rect class="b" width="78" height="18" rx="9" transform="translate(100 4411)"/><circle class="c" cx="4.5" cy="4.5" r="4.5" transform="translate(104.5 4415.5)"/><circle class="d" cx="4.5" cy="4.5" r="4.5" transform="translate(119.5 4415.5)"/><circle class="e" cx="4.5" cy="4.5" r="4.5" transform="translate(134.5 4415.5)"/><circle class="f" cx="4.5" cy="4.5" r="4.5" transform="translate(149.5 4415.5)"/><circle class="m" cx="4.5" cy="4.5" r="4.5" transform="translate(164.5 4415.5)"/></g></g><g transform="translate(482 457)"><text class="j" transform="translate(111 4457)"><tspan x="0" y="16">Industry visits</tspan><tspan x="0" y="38">Accelerator &amp; bootcamps</tspan><tspan x="0" y="60">Area-specific internships</tspan><tspan x="0" y="82">Resume and cover letters </tspan><tspan x="0" y="104">Job pitches and interviews </tspan><tspan x="0" y="126">Global exposure</tspan></text><text class="k" transform="translate(100 4448)"><tspan x="0" y="0">College Years: 3 &amp; 4</tspan></text><circle class="l" cx="3" cy="3" r="3" transform="translate(100 4466)"/><circle class="l" cx="3" cy="3" r="3" transform="translate(100 4487)"/><circle class="l" cx="3" cy="3" r="3" transform="translate(100 4509)"/><circle class="l" cx="3" cy="3" r="3" transform="translate(100 4531)"/><circle class="l" cx="3" cy="3" r="3" transform="translate(100 4552)"/><circle class="l" cx="3" cy="3" r="3" transform="translate(100 4574)"/><g transform="translate(0 -6)"><rect class="b" width="93" height="18" rx="9" transform="translate(100 4411)"/><circle class="c" cx="4.5" cy="4.5" r="4.5" transform="translate(104.5 4415.5)"/><circle class="e" cx="4.5" cy="4.5" r="4.5" transform="translate(134.5 4415.5)"/><circle class="f" cx="4.5" cy="4.5" r="4.5" transform="translate(149.5 4415.5)"/><circle class="m" cx="4.5" cy="4.5" r="4.5" transform="translate(164.5 4415.5)"/><circle class="d" cx="4.5" cy="4.5" r="4.5" transform="translate(119.5 4415.5)"/><circle class="g" cx="4.5" cy="4.5" r="4.5" transform="translate(179.5 4415.5)"/></g></g><g transform="translate(482 -393)"><text class="j" transform="translate(111 4469)"><tspan x="0" y="0">Peer-to-peer mentoring</tspan><tspan x="0" y="22">Self-discovery</tspan><tspan x="0" y="44">Effective communication</tspan></text><text class="k" transform="translate(100 4448)"><tspan x="0" y="0">Grade 10</tspan></text><circle class="l" cx="3" cy="3" r="3" transform="translate(100 4461)"/><circle class="l" cx="3" cy="3" r="3" transform="translate(100 4483)"/><circle class="l" cx="3" cy="3" r="3" transform="translate(100 4505)"/><g transform="translate(0 -6)"><rect class="b" width="33" height="18" rx="9" transform="translate(100 4411)"/><circle class="c" cx="4.5" cy="4.5" r="4.5" transform="translate(104.5 4415.5)"/><circle class="d" cx="4.5" cy="4.5" r="4.5" transform="translate(119.5 4415.5)"/></g></g><g transform="translate(482 -566)"><text class="j" transform="translate(111 4457)"><tspan x="0" y="16">Understanding focus</tspan><tspan x="0" y="38">Project-based learning</tspan><tspan x="0" y="60">Habit formation</tspan></text><text class="k" transform="translate(100 4448)"><tspan x="0" y="0">Grade 9</tspan></text><circle class="l" cx="3" cy="3" r="3" transform="translate(100 4464)"/><circle class="l" cx="3" cy="3" r="3" transform="translate(100 4487)"/><circle class="l" cx="3" cy="3" r="3" transform="translate(100 4509)"/><g transform="translate(0 -6)"><circle class="b" cx="9" cy="9" r="9" transform="translate(100 4411)"/><circle class="c" cx="4.5" cy="4.5" r="4.5" transform="translate(104.5 4415.5)"/></g></g><g transform="translate(482 -197)"><text class="j" transform="translate(111 4457)"><tspan x="0" y="16">Effective higher ed planning</tspan><tspan x="0" y="38">Building confidence</tspan><tspan x="0" y="60">Internship-based projects</tspan><tspan x="0" y="82">Future discovery programs</tspan></text><text class="k" transform="translate(100 4448)"><tspan x="0" y="0">Grade 11</tspan></text><circle class="l" cx="3" cy="3" r="3" transform="translate(100 4465)"/><circle class="l" cx="3" cy="3" r="3" transform="translate(100 4486)"/><circle class="l" cx="3" cy="3" r="3" transform="translate(100 4509)"/><circle class="l" cx="3" cy="3" r="3" transform="translate(100 4530)"/><g transform="translate(0 -6)"><rect class="b" width="48" height="18" rx="9" transform="translate(100 4411)"/><circle class="c" cx="4.5" cy="4.5" r="4.5" transform="translate(104.5 4415.5)"/><circle class="d" cx="4.5" cy="4.5" r="4.5" transform="translate(119.5 4415.5)"/><circle class="e" cx="4.5" cy="4.5" r="4.5" transform="translate(134.5 4415.5)"/></g></g><g transform="translate(482 18)"><text class="j" transform="translate(111 4457)"><tspan x="0" y="16">Higher ed applications</tspan><tspan x="0" y="38">Interaction with field experts</tspan><tspan x="0" y="60">Global peer network</tspan><tspan x="0" y="82">Understanding research</tspan></text><text class="k" transform="translate(100 4448)"><tspan x="0" y="0">Grade 12</tspan></text><circle class="l" cx="3" cy="3" r="3" transform="translate(100 4465)"/><circle class="l" cx="3" cy="3" r="3" transform="translate(100 4487)"/><circle class="l" cx="3" cy="3" r="3" transform="translate(100 4508)"/><circle class="l" cx="3" cy="3" r="3" transform="translate(100 4530)"/><g transform="translate(-619 381)"><rect class="b" width="63" height="18" rx="9" transform="translate(719 4024)"/><circle class="c" cx="4.5" cy="4.5" r="4.5" transform="translate(723.5 4028.5)"/><circle class="d" cx="4.5" cy="4.5" r="4.5" transform="translate(738.5 4028.5)"/><circle class="e" cx="4.5" cy="4.5" r="4.5" transform="translate(753.5 4028.5)"/><circle class="f" cx="4.5" cy="4.5" r="4.5" transform="translate(768.5 4028.5)"/></g></g></g></svg>