<svg xmlns="http://www.w3.org/2000/svg" width="40" height="33.846" viewBox="0 0 40 33.846"><defs><style>.a{fill:#3f89fc;}</style></defs><g transform="translate(0 0)"><path class="a" d="M4.615,70.393h9.231a4.6,4.6,0,0,0,4.615-4.615V56.547a4.6,4.6,0,0,0-4.615-4.615H8.461a2.3,2.3,0,0,1-2.308-2.308v-.769a5.929,5.929,0,0,1,1.8-4.351,5.93,5.93,0,0,1,4.351-1.8h1.538a1.56,1.56,0,0,0,1.539-1.539V38.086a1.56,1.56,0,0,0-1.539-1.539H12.308a11.993,11.993,0,0,0-4.772.974A12.189,12.189,0,0,0,.973,44.083,11.99,11.99,0,0,0,0,48.855V65.778a4.451,4.451,0,0,0,1.346,3.269A4.451,4.451,0,0,0,4.615,70.393Z" transform="translate(21.538 -36.547)"/><path class="a" d="M257.163,69.047a4.451,4.451,0,0,0,3.269,1.346h9.231a4.6,4.6,0,0,0,4.615-4.615V56.547a4.6,4.6,0,0,0-4.615-4.615h-5.385a2.3,2.3,0,0,1-2.308-2.308v-.769a6.155,6.155,0,0,1,6.154-6.153h1.539a1.561,1.561,0,0,0,1.539-1.539V38.086a1.561,1.561,0,0,0-1.539-1.539h-1.539a11.994,11.994,0,0,0-4.772.974,12.192,12.192,0,0,0-6.562,6.563,11.991,11.991,0,0,0-.974,4.771V65.778A4.449,4.449,0,0,0,257.163,69.047Z" transform="translate(-255.817 -36.547)"/></g></svg>