<svg xmlns="http://www.w3.org/2000/svg" width="15" height="15" viewBox="0 0 15 15"><defs><style>.a{fill:none;}</style></defs><path class="a" d="M0,0H15V15H0Z"/><path d="M14.25,11.387V13.6a.625.625,0,0,1-.581.624c-.273.019-.5.029-.669.029a10,10,0,0,1-10-10q0-.259.029-.669A.625.625,0,0,1,3.653,3h2.21a.313.313,0,0,1,.311.281c.014.144.027.258.04.345a8.688,8.688,0,0,0,.755,2.5.285.285,0,0,1-.092.354l-1.349.964a8.154,8.154,0,0,0,4.278,4.278l.962-1.346a.289.289,0,0,1,.358-.093,8.688,8.688,0,0,0,2.5.753c.087.013.2.026.344.04a.312.312,0,0,1,.281.311Z" transform="translate(-1.125 -1.125)"/></svg>