<svg xmlns="http://www.w3.org/2000/svg" width="150" height="150" viewBox="0 0 150 150"><defs><style>.a{fill:#fff;}.b{fill:#f15bb5;}</style></defs><g transform="translate(-102 -3326)"><circle class="a" cx="75" cy="75" r="75" transform="translate(102 3326)"/><g transform="translate(149.001 3372.667)"><path class="b" d="M55.09,266.259l-7.174-3.572-15.773,7.853a9.325,9.325,0,0,1-8.288,0L8.082,262.688.908,266.259a1.641,1.641,0,0,0,0,2.937L25.318,281.35a6.048,6.048,0,0,0,5.363,0L55.09,269.2a1.641,1.641,0,0,0,0-2.937Zm0,0" transform="translate(0 -239.398)"/><path class="b" d="M55.09,423.4l-7.174-3.572-15.773,7.854a9.331,9.331,0,0,1-8.288,0L8.082,419.832.908,423.4a1.641,1.641,0,0,0,0,2.937l24.409,12.154a6.045,6.045,0,0,0,5.363,0L55.09,426.341a1.641,1.641,0,0,0,0-2.937Zm0,0" transform="translate(0 -382.792)"/><path class="b" d="M.909,16.052,25.319,28.206a6.045,6.045,0,0,0,5.363,0L55.091,16.052a1.641,1.641,0,0,0,0-2.937L30.681.96a6.049,6.049,0,0,0-5.363,0L.909,13.115a1.641,1.641,0,0,0,0,2.937Zm0,0" transform="translate(-0.001)"/></g></g></svg>