<svg xmlns="http://www.w3.org/2000/svg" width="150" height="150" viewBox="0 0 150 150"><defs><style>.a{fill:#fff;}.b{fill:#f15bb5;}</style></defs><g transform="translate(-358 -3326)"><circle class="a" cx="75" cy="75" r="75" transform="translate(358 3326)"/><g transform="translate(400 3338.082)"><path class="b" d="M240.037,65.366a14.993,14.993,0,0,0-21.224-21.182l-.024.023L205.872,56.738a3.483,3.483,0,1,0,4.883,4.968l3.492-3.492a2.192,2.192,0,0,1,3.1,0l14.7,14.7Z" transform="translate(-178.407 -5.117)"/><g transform="translate(0 33.918)"><path class="b" d="M38.217,244.223a2.907,2.907,0,0,0-4.111,0L27.527,250.8a2.907,2.907,0,0,0,0,4.111h0l.065.065a2.91,2.91,0,0,0,4.11,0l6.578-6.578a2.91,2.91,0,0,0,0-4.111Z" transform="translate(-23.237 -216.371)"/><path class="b" d="M151.147,357.152l-.064-.064a2.907,2.907,0,0,0-4.111,0l-6.578,6.578a2.907,2.907,0,0,0,0,4.111h0l.065.065a2.91,2.91,0,0,0,4.11,0l6.578-6.578A2.91,2.91,0,0,0,151.147,357.152Z" transform="translate(-121.554 -314.686)"/><path class="b" d="M94.65,300.655a2.906,2.906,0,0,0-4.111,0l-6.578,6.578a2.907,2.907,0,0,0,0,4.111h0l.065.065a2.909,2.909,0,0,0,4.11,0l6.578-6.578a2.91,2.91,0,0,0,0-4.111Z" transform="translate(-72.395 -265.528)"/><path class="b" d="M52.572,72.929l-.513-.513-.013-.013L37.39,57.747l-1.943,1.942A7.866,7.866,0,1,1,24.415,48.474l6.4-6.211-3.7-3.7A15.885,15.885,0,0,0,4.653,61.028l.385.374,2.731-2.731a7.289,7.289,0,0,1,10.309,0l.064.064a7.266,7.266,0,0,1,2.131,5.077,7.24,7.24,0,0,1,5.08,2.133l.064.064a7.266,7.266,0,0,1,2.131,5.078,7.24,7.24,0,0,1,5.08,2.133l.064.064a7.247,7.247,0,0,1,1.941,3.495,2.179,2.179,0,0,1,1.246.618l1.765,1.765.023.02,4.083,4.083a2.817,2.817,0,1,0,3.984-3.984L43.36,76.91l-3.579-3.579a2.191,2.191,0,0,1,3.1-3.1l1.846,1.846h0l1.733,1.733,2.615,2.615a2.473,2.473,0,1,0,3.5-3.5Z" transform="translate(0 -33.918)"/><path class="b" d="M238.782,404.963a7.259,7.259,0,0,1-1.339,1.845l-2.392,2.392,4.364,4.364a2.817,2.817,0,0,0,3.984-3.984Z" transform="translate(-204.751 -357.132)"/></g></g></g></svg>