<svg xmlns="http://www.w3.org/2000/svg" width="150" height="150" viewBox="0 0 150 150"><defs><style>.a{fill:#fff;}.b{fill:#f15bb5;}</style></defs><g transform="translate(-606 -3326)"><circle class="a" cx="75" cy="75" r="75" transform="translate(606 3326)"/><g transform="translate(166.97 4213.743)"><path class="b" d="M618.066-685.936h-7.13c.4-1.969.737-3.871,1.181-5.748a41.984,41.984,0,0,1,14.4-23.13c1.019-.849,1.061-1.172.28-2.278-.429-.608-.907-1.18-1.345-1.781-.69-.948-.422-1.587.731-1.735q6.952-.9,13.906-1.78c.483-.062.964-.149,1.449-.181.954-.064,1.274.353.909,1.239-1.132,2.757-2.292,5.5-3.44,8.254-.824,1.973-1.641,3.948-2.473,5.917-.508,1.2-1.162,1.28-1.969.247-.48-.614-.941-1.242-1.42-1.856-.8-1.025-1.376-1.1-2.347-.274a36.39,36.39,0,0,0-12.357,21.086C618.31-687.293,618.194-686.626,618.066-685.936Z" transform="translate(-100.564 -96.749)"/><path class="b" d="M593.317-799.347c-1.141-1.737-2.295-3.453-3.39-5.2a2.257,2.257,0,0,1-.159-1.126q-.013-9.643-.006-19.285c0-1.9-.234-2.138-2.11-2.139-.65,0-1.3.014-1.948,0-1.1-.032-1.445-.635-.889-1.6q3.224-5.615,6.474-11.215c.422-.731.824-1.474,1.266-2.192.5-.816,1.068-.841,1.542-.026q3.916,6.733,7.788,13.492c.521.911.152,1.515-.889,1.544-.811.023-1.624,0-2.436.007-1.252.011-1.622.372-1.624,1.632q-.01,5.505,0,11.01c0,2.914.022,5.829-.023,8.743a3.148,3.148,0,0,1-.471,1.512C595.442-802.573,594.377-800.984,593.317-799.347Z" transform="translate(-79.322)"/><path class="b" d="M509.611-690.947A39.865,39.865,0,0,0,499.032-707.8c-.452-.42-.911-.833-1.389-1.223a1.3,1.3,0,0,0-2.153.217c-.524.661-1.017,1.348-1.538,2.012-.8,1.02-1.459.924-1.962-.3q-2.669-6.471-5.326-12.947a10.8,10.8,0,0,1-.486-1.055c-.1-.344-.234-.826-.076-1.055a1.263,1.263,0,0,1,1.011-.3c2.226.242,4.448.533,6.669.819q4.25.547,8.5,1.109c1.23.161,1.512.789.789,1.769-.443.6-.909,1.185-1.353,1.785a1.466,1.466,0,0,0,.3,2.34A41.047,41.047,0,0,1,512.886-701.3a1.368,1.368,0,0,1,.091.971c-1.042,3.066-2.121,6.12-3.193,9.175C509.764-691.093,509.7-691.053,509.611-690.947Z" transform="translate(0 -96.845)"/></g></g></svg>