<svg xmlns="http://www.w3.org/2000/svg" width="150" height="150" viewBox="0 0 150 150"><defs><style>.a{fill:#fff;}.b{fill:#f15bb5;}</style></defs><g transform="translate(-860 -3326)"><circle class="a" cx="75" cy="75" r="75" transform="translate(860 3326)"/><g transform="translate(908 3374)"><path class="b" d="M282.422,187.614a6.328,6.328,0,0,1-5.569-4.707H271v15.418h10.841A43.784,43.784,0,0,0,282.422,187.614Z" transform="translate(-242.418 -163.616)"/><path class="b" d="M357.75,138.037a3.15,3.15,0,1,0,3.15,3.15A3.154,3.154,0,0,0,357.75,138.037Z" transform="translate(-317.201 -123.478)"/><circle class="b" cx="4.758" cy="4.758" r="4.758" transform="translate(8.541 31.637)"/><path class="b" d="M155.05,0c-3.611,2.481-6.547,6.665-8.574,11.51a35.768,35.768,0,0,0-1.56,4.617H155.05Z" transform="translate(-129.632 0)"/><path class="b" d="M131.767,192.116a7.936,7.936,0,0,1,7.119,6.209h4.38V182.907H132.428A43.738,43.738,0,0,0,131.767,192.116Z" transform="translate(-117.848 -163.616)"/><path class="b" d="M171.125,375.22V359.093h-4.338a7.943,7.943,0,0,1-3.9,5.424C164.861,369.024,167.623,372.858,171.125,375.22Z" transform="translate(-145.707 -321.22)"/><path class="b" d="M271,375.22c3.786-2.6,6.818-7.016,8.852-12.194a36.268,36.268,0,0,0,1.286-3.933H271Z" transform="translate(-242.418 -321.22)"/><path class="b" d="M329.521,364.184a30.58,30.58,0,0,1-6.288,10.094,27.063,27.063,0,0,0,17.628-15.184h-9.737a39.779,39.779,0,0,1-1.6,5.09Z" transform="translate(-289.142 -321.221)"/><path class="b" d="M32.644,365.537a7.934,7.934,0,0,1-7.781-6.444H21.626a27.064,27.064,0,0,0,17.536,15.159A28.742,28.742,0,0,1,33.5,365.49a7.969,7.969,0,0,1-.853.047Z" transform="translate(-19.345 -321.22)"/><path class="b" d="M404.729,187.081a47.106,47.106,0,0,1-.507,11.244h10.249a27.121,27.121,0,0,0,0-15.418h-6.218A6.341,6.341,0,0,1,404.729,187.081Z" transform="translate(-361.589 -163.616)"/><path class="b" d="M10.767,192.506a47.054,47.054,0,0,1,.6-9.6H1.119a27.121,27.121,0,0,0,0,15.418H5.559a7.949,7.949,0,0,1,5.208-5.819Z" transform="translate(0 -163.616)"/><path class="b" d="M329.639,19.388h.033a6.326,6.326,0,0,1,6.114,4.732h5.056A27.062,27.062,0,0,0,323.211,8.935a26.524,26.524,0,0,1,1.75,2.018A32.208,32.208,0,0,1,329.639,19.388Z" transform="translate(-289.122 -7.993)"/><path class="b" d="M271,0V16.127h5.854a6.339,6.339,0,0,1,3.006-3.912C278.3,8.229,275.6,3.14,271,0Z" transform="translate(-242.418)"/><path class="b" d="M33.269,18.279a30.238,30.238,0,0,1,5.987-9.347A27.063,27.063,0,0,0,21.625,24.117h9.739a39.312,39.312,0,0,1,1.905-5.838Z" transform="translate(-19.344 -7.99)"/></g></g></svg>