<svg xmlns="http://www.w3.org/2000/svg" width="150" height="150" viewBox="0 0 150 150"><defs><style>.a{fill:#fff;}.b{fill:#f15bb5;}</style></defs><g transform="translate(-1108 -3326)"><circle class="a" cx="75" cy="75" r="75" transform="translate(1108 3326)"/><g transform="translate(-3.512 4170.378)"><path class="b" d="M1251.233-682.929a18.8,18.8,0,0,1-19.138-17.927,18.736,18.736,0,0,1,17.783-19.467,18.685,18.685,0,0,1,19.617,17.972A18.7,18.7,0,0,1,1251.233-682.929Zm-5.187-21.711a20.159,20.159,0,0,0-2.037.021,1.318,1.318,0,0,0-.909.458c-.25.41.109.72.453.967,1.086.778,2.153,1.581,3.253,2.338a.676.676,0,0,1,.31.919c-.446,1.282-.877,2.569-1.249,3.874a1.1,1.1,0,0,0,.179.966,1.114,1.114,0,0,0,.984-.12c1.092-.726,2.163-1.489,3.188-2.305a.811.811,0,0,1,1.2.02c1.038.8,2.1,1.575,3.189,2.306.244.164.774.257.925.117a1.132,1.132,0,0,0,.206-.965c-.376-1.327-.819-2.636-1.26-3.943a.594.594,0,0,1,.258-.812c1.062-.729,2.093-1.5,3.134-2.263.374-.273.86-.515.659-1.1s-.744-.47-1.2-.474c-1.266-.008-2.532-.02-3.8.007a.648.648,0,0,1-.743-.543c-.4-1.3-.8-2.594-1.266-3.868-.106-.292-.464-.675-.713-.68s-.614.376-.722.665c-.457,1.227-.875,2.472-1.226,3.733a.8.8,0,0,1-.988.694C1247.267-704.676,1246.655-704.641,1246.045-704.64Zm-7.949,3.878a12.628,12.628,0,0,0,7.793,10.831,12.024,12.024,0,0,0,4.712,1c.489.012.868-.16.875-.683s-.384-.7-.861-.709l-.211,0a11.307,11.307,0,0,1-10.9-10.716c-.026-.544.09-1.274-.746-1.245C1237.9-702.264,1238.155-701.522,1238.1-700.762Zm13.445-13.561c-.257,0-.562-.086-.761.021a1.2,1.2,0,0,0-.623.675c-.029.179.343.463.584.63.131.091.365.036.551.049a11.272,11.272,0,0,1,10.548,8.865,18.345,18.345,0,0,1,.272,2.3c.047.475.217.856.751.821.483-.031.66-.386.63-.849-.006-.093,0-.187-.006-.281A12.708,12.708,0,0,0,1251.541-714.323Z" transform="translate(-63.797 -65.795)"/><path class="b" d="M1199.554-728.6c-.889-.6-1.72-1.116-2.5-1.7-.815-.607-.827-.861-.161-1.656a8.731,8.731,0,0,1,6.434-3.169,29.539,29.539,0,0,1,3.215.2.8.8,0,0,0,.592-.19c.588-.757,1.132-1.547,1.743-2.4-.7-.17-1.311-.3-1.91-.469-.808-.231-.947-.485-.723-1.285a8.949,8.949,0,0,1,5.2-5.837,1.074,1.074,0,0,0,.733-.9c.1-.735.22-1.467.344-2.281-.467.123-.822.229-1.183.309-.758.168-1.027.007-1.228-.745a8.367,8.367,0,0,1,1.164-7,2.559,2.559,0,0,0,.286-2.651c-.148-.357-.247-.735-.4-1.187-.3.385-.537.7-.788,1-.486.585-.745.62-1.362.153a8.5,8.5,0,0,1-3.393-6.087,31.612,31.612,0,0,1,.064-3.428,1.286,1.286,0,0,0-.266-.856c-.931-.89-1.907-1.734-2.883-2.576a.865.865,0,0,0-.559-.213c-3.733.274-6.508-1.4-8.662-4.282a11.561,11.561,0,0,1-2.182-5.786c-.083-.76.127-1.012.907-1.1a9.07,9.07,0,0,1,7.7,2.853,11.713,11.713,0,0,1,3.3,6.7,1.087,1.087,0,0,0,.242.616c.964.849,1.957,1.667,2.87,2.437.66-1.052,1.3-2.138,2.009-3.174.459-.669.761-.682,1.4-.193a8.936,8.936,0,0,1,3.481,6.788,11.579,11.579,0,0,1-.807,5.029,1.532,1.532,0,0,0-.014.922c.261.874.585,1.729.894,2.621a12.752,12.752,0,0,1,1.748-1.255,38.542,38.542,0,0,1,3.725-1.6c.727-.269,1.028-.039,1.217.721a9.07,9.07,0,0,1-2.445,8.742,29.339,29.339,0,0,1-2.939,2.373,1.514,1.514,0,0,0-.5.8c-.151.8-.214,1.61-.32,2.485a12.26,12.26,0,0,1,5.892.163c1.054.3,1.2.509.855,1.553-1.139,3.46-3.675,5.384-7.076,6.3-.763.2-1.575.217-2.359.352a1.042,1.042,0,0,0-.638.309c-.632.9-1.219,1.829-1.8,2.722.974.606,1.988,1.174,2.931,1.841,1.024.726,1.027.994.179,1.95a9.124,9.124,0,0,1-7.284,3.042,8.288,8.288,0,0,1-2.09-.235,2.108,2.108,0,0,0-1.7.3c-9.094,4.936-18.173,4.867-27.239-.105a2.014,2.014,0,0,0-1.233-.2c-3.5.639-6.685.111-9.307-2.484-1.245-1.232-1.219-1.533.214-2.52.826-.569,1.722-1.035,2.618-1.566-.6-.92-1.216-1.909-1.9-2.846-.132-.182-.539-.2-.824-.227a10.6,10.6,0,0,1-7.523-3.62,8.236,8.236,0,0,1-1.737-3.339c-.17-.636.039-.953.661-1.142a12.328,12.328,0,0,1,6.167-.247c-.113-1-.192-1.952-.349-2.889-.031-.184-.345-.345-.556-.471a10.46,10.46,0,0,1-5.473-7.757,12.63,12.63,0,0,1,.21-3.338c.1-.718.452-.869,1.179-.695a12.155,12.155,0,0,1,5.461,2.927c.37-1.052.739-2.042,1.053-3.049.057-.184-.1-.444-.178-.66a10.816,10.816,0,0,1,.066-8.357,8.1,8.1,0,0,1,2.624-3.334c.655-.487.954-.488,1.4.168.712,1.037,1.353,2.124,2.023,3.187.918-.773,1.926-1.6,2.908-2.465a1.02,1.02,0,0,0,.2-.565,11.259,11.259,0,0,1,6.45-8.888,8.207,8.207,0,0,1,4.67-.675c.556.074.86.346.808.93-.467,5.207-4.1,9.244-8.325,10.091a6.713,6.713,0,0,1-1.952.164,1.853,1.853,0,0,0-1.584.507c-.787.737-1.582,1.467-2.4,2.173a1.008,1.008,0,0,0-.313,1.059,9.741,9.741,0,0,1-1.99,8.13,11.743,11.743,0,0,1-1.434,1.34.745.745,0,0,1-1.209-.144c-.255-.332-.514-.661-.867-1.114-.267.923-.536,1.729-.715,2.554-.046.214.157.513.3.734a9.064,9.064,0,0,1,1.549,7.277c-.263,1.158-.463,1.266-1.608.962-.247-.066-.5-.128-.887-.228.167.964.294,1.857.5,2.732.042.178.363.319.582.422a9.078,9.078,0,0,1,5.188,5.774c.271.924.145,1.141-.807,1.4-.559.154-1.128.273-1.807.436.618.858,1.167,1.668,1.779,2.427.118.146.5.159.734.12,3.322-.544,6.36-.024,8.886,2.371,1.452,1.376,1.421,1.673-.2,2.8-.576.4-1.19.74-1.891,1.171a24.636,24.636,0,0,0,8.981,3.05A25.5,25.5,0,0,0,1199.554-728.6Z" transform="translate(0 -15.081)"/><path class="b" d="M1176.531-801.378a3.457,3.457,0,0,1,3.5,3.456,3.5,3.5,0,0,1-3.431,3.471,3.52,3.52,0,0,1-3.507-3.475A3.472,3.472,0,0,1,1176.531-801.378Z" transform="translate(-15.899 0)"/><path class="b" d="M1473.522-783.946a2.786,2.786,0,0,1-2.8,2.742,2.814,2.814,0,0,1-2.744-2.811,2.832,2.832,0,0,1,2.815-2.746A2.8,2.8,0,0,1,1473.522-783.946Z" transform="translate(-255.333 -11.868)"/><path class="b" d="M1474.488-486.73a1.42,1.42,0,0,1-1.414,1.358,1.416,1.416,0,0,1-1.358-1.413,1.4,1.4,0,0,1,1.412-1.352A1.409,1.409,0,0,1,1474.488-486.73Z" transform="translate(-258.372 -254.342)"/><path class="b" d="M1170.829-514.8a1.367,1.367,0,0,1-1.366-1.4,1.358,1.358,0,0,1,1.363-1.33,1.357,1.357,0,0,1,1.4,1.362A1.358,1.358,0,0,1,1170.829-514.8Z" transform="translate(-12.952 -230.475)"/><path class="b" d="M1231.185-789.021a1.41,1.41,0,0,1-1.367,1.4,1.412,1.412,0,0,1-1.407-1.361,1.416,1.416,0,0,1,1.368-1.4A1.417,1.417,0,0,1,1231.185-789.021Z" transform="translate(-60.815 -8.925)"/><path class="b" d="M1421.426-790.415a1.424,1.424,0,0,1,1.423,1.355,1.411,1.411,0,0,1-1.354,1.416,1.42,1.42,0,0,1-1.424-1.349A1.425,1.425,0,0,1,1421.426-790.415Z" transform="translate(-216.436 -8.901)"/><path class="b" d="M1170.848-736.037a1.412,1.412,0,0,1-1.4-1.375,1.4,1.4,0,0,1,1.368-1.4,1.4,1.4,0,0,1,1.392,1.375A1.394,1.394,0,0,1,1170.848-736.037Z" transform="translate(-12.941 -50.802)"/><path class="b" d="M1480.493-524.924a1.372,1.372,0,0,1,1.407,1.345,1.385,1.385,0,0,1-1.368,1.392,1.353,1.353,0,0,1-1.4-1.348A1.357,1.357,0,0,1,1480.493-524.924Z" transform="translate(-264.398 -224.473)"/><path class="b" d="M1194.365-479.346a1.384,1.384,0,0,1-1.4,1.374,1.375,1.375,0,0,1-1.358-1.41,1.364,1.364,0,0,1,1.358-1.334A1.382,1.382,0,0,1,1194.365-479.346Z" transform="translate(-30.93 -260.368)"/><path class="b" d="M1480.489-724.015a1.383,1.383,0,0,1,1.392,1.367,1.391,1.391,0,0,1-1.374,1.393,1.382,1.382,0,0,1-1.387-1.371A1.384,1.384,0,0,1,1480.489-724.015Z" transform="translate(-264.384 -62.816)"/><path class="b" d="M1306.393-643.932c.909,0,1.819-.021,2.727.007a.952.952,0,0,0,1.069-.784,15.326,15.326,0,0,1,.985-2.571c.266.809.564,1.61.788,2.431a1.074,1.074,0,0,0,1.25.929,13.352,13.352,0,0,1,2.681.121q-.966.7-1.931,1.407c-.965.7-.967.7-.594,1.852l.788,2.432c-.85-.614-1.561-1.068-2.2-1.608a1.161,1.161,0,0,0-1.73.023c-.624.527-1.318.971-2.162,1.582.31-.992.518-1.813.826-2.593a1.132,1.132,0,0,0-.505-1.6c-.709-.445-1.36-.984-2.036-1.482Z" transform="translate(-124.097 -125.123)"/></g></g></svg>