<svg xmlns="http://www.w3.org/2000/svg" width="150" height="150" viewBox="0 0 150 150"><defs><style>.a{fill:#fff;}.b{fill:#f15bb5;}</style></defs><g transform="translate(-232 -3550)"><circle class="a" cx="75" cy="75" r="75" transform="translate(232 3550)"/><g transform="translate(256.012 3595)"><path class="b" d="M184.832,229.239h-4.655a4.194,4.194,0,0,1-4.189-4.189V196.189A4.194,4.194,0,0,1,180.177,192h4.655a4.194,4.194,0,0,1,4.189,4.189V225.05A4.194,4.194,0,0,1,184.832,229.239Z" transform="translate(-134.311 -169.656)"/><path class="b" d="M32.832,299.93H28.177a4.194,4.194,0,0,1-4.189-4.189V276.189A4.194,4.194,0,0,1,28.177,272h4.655a4.194,4.194,0,0,1,4.189,4.189V295.74A4.194,4.194,0,0,1,32.832,299.93Z" transform="translate(0 -240.346)"/><path class="b" d="M294.4,59.583h-4.655a4.194,4.194,0,0,1-4.189-4.189V16.758h-2.558a3.026,3.026,0,0,1-2.3-4.995l.027-.031L290.682.619a1.862,1.862,0,0,1,2.773,0l9.958,11.113.027.031a3.026,3.026,0,0,1-2.3,4.995h-2.558V55.394A4.194,4.194,0,0,1,294.4,59.583Z" transform="translate(-226.187 0)"/></g></g></svg>