<svg xmlns="http://www.w3.org/2000/svg" width="150" height="150" viewBox="0 0 150 150"><defs><style>.a{fill:#fff;}.b{fill:#f15bb5;}</style></defs><g transform="translate(-735 -3550)"><circle class="a" cx="75" cy="75" r="75" transform="translate(735 3550)"/><g transform="translate(739 3594)"><g transform="translate(46)"><g transform="translate(0)"><path class="b" d="M137.045,92h1.544a1.045,1.045,0,0,1,1.045,1.045v1.544a1.045,1.045,0,0,1-1.045,1.045h-1.544A1.045,1.045,0,0,1,136,94.588V93.045A1.045,1.045,0,0,1,137.045,92Z" transform="translate(-125.102 -80.859)"/><path class="b" d="M46,1.045v45.38a1.045,1.045,0,0,0,1.045,1.045H67.074A1.042,1.042,0,0,0,68.1,46.6a16.116,16.116,0,0,1,4.083-8.279,1.044,1.044,0,0,0-.769-1.75H54.31a1.045,1.045,0,0,1-1.045-1.045V33.982a1.045,1.045,0,0,1,1.045-1.045H74.018a1.045,1.045,0,0,1,1.045,1.045h0a1.044,1.044,0,0,0,1.537.92,16.077,16.077,0,0,1,4.856-1.658,1.045,1.045,0,0,0,.873-1.03V1.045A1.045,1.045,0,0,0,81.284,0H47.045A1.045,1.045,0,0,0,46,1.045Zm8.31,6.463H63.12a1.045,1.045,0,0,1,1.045,1.045v8.809a1.045,1.045,0,0,1-1.045,1.045H54.31a1.045,1.045,0,0,1-1.045-1.045V8.552A1.045,1.045,0,0,1,54.31,7.508ZM74.018,29.3H54.31a1.045,1.045,0,0,1-1.045-1.045V26.716a1.045,1.045,0,0,1,1.045-1.045H74.018a1.045,1.045,0,0,1,1.045,1.045V28.26A1.045,1.045,0,0,1,74.018,29.3Zm0-10.9H68.841A1.045,1.045,0,0,1,67.8,17.362V15.818a1.045,1.045,0,0,1,1.045-1.045h5.177a1.045,1.045,0,0,1,1.045,1.045v1.544A1.045,1.045,0,0,1,74.018,18.406Zm0-7.266H68.841A1.045,1.045,0,0,1,67.8,10.1V8.552a1.045,1.045,0,0,1,1.045-1.045h5.177a1.045,1.045,0,0,1,1.045,1.045V10.1A1.045,1.045,0,0,1,74.018,11.141Z" transform="translate(-46)"/></g><path class="b" d="M268.826,302a12.715,12.715,0,1,0,12.6,12.6A12.715,12.715,0,0,0,268.826,302Zm-2.266,18.032-4.127-4.127a.693.693,0,0,1,0-.981l1.652-1.652a.6.6,0,0,1,.853,0l1.614,1.614a.747.747,0,0,0,1.056,0l4.38-4.378a.547.547,0,0,1,.774,0l1.778,1.778a.571.571,0,0,1,0,.807l-6.94,6.938A.736.736,0,0,1,266.559,320.033Z" transform="translate(-230.57 -265.43)"/></g><path class="b" d="M376,62.908V86.821a.9.9,0,0,0,.755.9c.586.095,1.164.214,1.73.364a.91.91,0,0,0,1.147-.876v-24.3a.908.908,0,0,0-.908-.908h-1.816A.908.908,0,0,0,376,62.908Z" transform="translate(-290.039 -54.492)"/><path class="b" d="M106,422.908v1.816a.908.908,0,0,0,.908.908h13.4a.91.91,0,0,0,.876-1.147c-.15-.566-.269-1.144-.364-1.73a.9.9,0,0,0-.9-.755H106.908A.908.908,0,0,0,106,422.908Z" transform="translate(-52.734 -370.898)"/></g></g></svg>