<svg xmlns="http://www.w3.org/2000/svg" width="150" height="150" viewBox="0 0 150 150"><defs><style>.a{fill:#fff;}.b{fill:#f15bb5;}</style></defs><g transform="translate(-986 -3550)"><circle class="a" cx="75" cy="75" r="75" transform="translate(986 3550)"/><g transform="translate(1030 3594)"><path class="b" d="M15.993.689A7.358,7.358,0,0,0,9.622,4.9,6.353,6.353,0,0,0,7.09,6.474a6.157,6.157,0,0,0-1.8,4.593A7.656,7.656,0,0,0,1.74,17.541a6.946,6.946,0,0,0,.339,2.1A7.156,7.156,0,0,0,0,24.747a8.145,8.145,0,0,0,1.022,3.832,7.121,7.121,0,0,0,.9,8.381c-.019.213-.028.422-.027.629A7.692,7.692,0,0,0,4,42.762,7.02,7.02,0,0,0,8.719,45,8.115,8.115,0,0,0,15.4,48.562h.062a7.457,7.457,0,0,0,4.276-1.4V1.776A6.836,6.836,0,0,0,16.047.689h-.054ZM12.739,38.575a4.907,4.907,0,0,1-4.9-4.9,1.816,1.816,0,0,1,3.633,0,1.27,1.27,0,0,0,1.266,1.271,1.816,1.816,0,0,1,0,3.633Zm2.21-9.27q-.317.031-.633.031a6.375,6.375,0,0,1-6.329-5.758,1.816,1.816,0,1,1,3.616-.353,2.74,2.74,0,0,0,2.992,2.465,1.817,1.817,0,1,1,.354,3.616Zm1.572-13.819a1.816,1.816,0,0,1-2.529.449,1.263,1.263,0,0,0-1.761.315A1.816,1.816,0,1,1,9.25,14.173a4.9,4.9,0,0,1,6.822-1.217,1.816,1.816,0,0,1,.449,2.529Z" transform="translate(0 -0.606)"/><path class="b" d="M356.734,353.78a3.039,3.039,0,1,0,3.044,3.04A3.045,3.045,0,0,0,356.734,353.78Z" transform="translate(-310.859 -310.94)"/><path class="b" d="M274.949,259.037h-1.477a12.055,12.055,0,0,0-1.451-3.5l1.074-1.073a2.842,2.842,0,0,0-4.02-4.018L268,251.522a12.062,12.062,0,0,0-3.5-1.45V248.6a2.843,2.843,0,0,0-5.686,0v1.476a12.087,12.087,0,0,0-3.538,1.472l-1.038-1.036a2.841,2.841,0,1,0-4.02,4.016l1.052,1.051a12.038,12.038,0,0,0-1.449,3.546h-1.456a2.84,2.84,0,1,0,0,5.68h1.5a12.055,12.055,0,0,0,1.477,3.488l-1,1a2.842,2.842,0,0,0,4.02,4.018l1.029-1.029A12.052,12.052,0,0,0,258.9,273.7v1.455a2.843,2.843,0,0,0,5.686,0v-1.5a12.107,12.107,0,0,0,3.454-1.451l1.037,1.036a2.841,2.841,0,1,0,4.02-4.016l-1.051-1.051a12.04,12.04,0,0,0,1.428-3.461h1.477a2.84,2.84,0,1,0,0-5.681Zm-13.283,9.729a6.889,6.889,0,1,1,6.893-6.888A6.9,6.9,0,0,1,261.665,268.766Z" transform="translate(-215.791 -215.997)"/><path class="b" d="M199.931,38.989a6.317,6.317,0,0,1,8.488-8.531,6.345,6.345,0,0,1,3.927-4.038,8.071,8.071,0,0,0,.428-2.613,7.155,7.155,0,0,0-2.158-5.078,6.952,6.952,0,0,0,.307-2.1,7.655,7.655,0,0,0-3.642-6.415A6.127,6.127,0,0,0,205.4,5.645a6.345,6.345,0,0,0-2.555-1.53A7.364,7.364,0,0,0,196.461,0h-.048a6.829,6.829,0,0,0-3.39.943V46.395a8.38,8.38,0,0,0,3.18,1.332,6.312,6.312,0,0,1,3.729-8.737ZM196.677,12.35a4.9,4.9,0,0,1,6.822,1.218,1.816,1.816,0,1,1-2.981,2.076,1.263,1.263,0,0,0-1.76-.315,1.817,1.817,0,0,1-2.08-2.978Zm-.265,14.364a1.815,1.815,0,0,1,1.985-1.631,2.74,2.74,0,0,0,2.992-2.465,1.816,1.816,0,1,1,3.616.353,6.375,6.375,0,0,1-6.329,5.758q-.315,0-.633-.031a1.817,1.817,0,0,1-1.631-1.985Z" transform="translate(-169.648)"/></g></g></svg>