<svg xmlns="http://www.w3.org/2000/svg" width="150" height="150" viewBox="0 0 150 150"><defs><style>.a{fill:#fff;}.b{fill:#ce8d1c;}.c{fill:#497a3c;}.d{fill:#1d396d;}.e{fill:#047ebd;}.f{fill:#f46f0f;}.g{fill:#ec1d2a;}.h{fill:#e10e84;}.i{fill:#fa9f04;}.j{fill:#c42131;}.k{fill:#92183a;}.l{fill:#299c45;}.m{fill:#5dbc40;}.n{fill:#04568d;}.o{fill:#039cdc;}.p{fill:#f15bb5;}</style></defs><g transform="translate(-481 -3550)"><circle class="a" cx="75" cy="75" r="75" transform="translate(481 3550)"/><g transform="translate(525 3594)"><path class="b" d="M710.793,702.952c.036.275-.306.422-.555.612-3.118,2.377-6.249,4.739-9.359,7.128-.542.416-.852.368-1.23-.207a34.863,34.863,0,0,1-3.542-7.077c-.264-.71.062-.913.644-1.078q5.652-1.606,11.294-3.244c.612-.179.9-.083,1.152.559C709.628,700.738,710.212,701.771,710.793,702.952Z" transform="translate(-694.405 -662.251)"/><path class="c" d="M691.358,671.656c3.826.337,7.688.693,11.554,1,.691.055,1.074.221.984.99a5.564,5.564,0,0,0,.017.992c.176,2.807.178,2.811-2.573,3.605-2.95.852-5.91,1.669-8.85,2.554-.918.276-1.32.153-1.506-.9a36.364,36.364,0,0,1-.623-7.334C690.377,671.935,690.46,671.39,691.358,671.656Z" transform="translate(-690.35 -642.618)"/><path class="d" d="M773.561,576.422c0,1.938-.019,3.876.01,5.813.01.628-.14.911-.841.975-1.208.11-2.747.906-3.511.418-.878-.56-1.081-2.2-1.546-3.377-1.037-2.633-2.013-5.291-3.1-7.9-.38-.911-.152-1.186.728-1.441a40.023,40.023,0,0,1,7.234-1.313c.85-.085,1.06.225,1.043,1.015C773.533,572.546,773.561,574.484,773.561,576.422Z" transform="translate(-743.366 -569.58)"/><path class="e" d="M704.175,643.178c-3.894-.338-7.8-.689-11.7-1-.723-.058-.963-.262-.84-1.045a32.667,32.667,0,0,1,2.216-7.582c.259-.62.554-.614,1.071-.354q5.309,2.671,10.636,5.307c.479.237.749.437.5,1.068a20.816,20.816,0,0,0-.9,2.972C705.012,643.143,704.766,643.358,704.175,643.178Z" transform="translate(-691.245 -615.009)"/><path class="f" d="M788.363,753.405c-1.268-.083-2.446-.179-3.626-.229-.765-.032-.958-.383-.819-1.1.748-3.846,1.5-7.694,2.186-11.55.128-.716.435-.8,1.046-.737a6.336,6.336,0,0,0,2.117,0c1.413-.364,1.718.316,1.921,1.519.6,3.537,1.272,7.063,1.993,10.577.191.928-.143,1.191-.945,1.245C790.916,753.217,789.6,753.316,788.363,753.405Z" transform="translate(-757.315 -691.38)"/><path class="g" d="M803.057,576.363c0-1.892.029-3.786-.014-5.677-.018-.794.19-1.086,1.044-1a38.8,38.8,0,0,1,7.231,1.374c.758.225.926.535.625,1.295-1.427,3.6-2.811,7.217-4.183,10.838-.24.635-.487.873-1.224.636-1.105-.356-2.715-.188-3.277-.9-.583-.739-.185-2.261-.2-3.44C803.046,578.446,803.057,577.4,803.057,576.363Z" transform="translate(-770.965 -569.645)"/><path class="h" d="M757.276,735.551c-.781,4.1-1.542,8.033-2.27,11.974-.115.623-.337.734-.946.583a33.575,33.575,0,0,1-7.256-2.75c-.616-.316-.839-.589-.4-1.277q3.138-4.963,6.188-9.982c.326-.533.589-.72,1.224-.409a21.475,21.475,0,0,0,2.767,1.061C757.087,734.918,757.483,735.068,757.276,735.551Z" transform="translate(-730.32 -686.975)"/><path class="b" d="M838.958,583.738c-.305.375-.47.6-.655.8-2.61,2.862-5.234,5.712-7.825,8.59-.48.533-.868.6-1.4.122a7.212,7.212,0,0,0-.928-.648c-2.1-1.36-2.1-1.358-1.167-3.783,1.171-3.038,2.371-6.065,3.488-9.122.289-.792.591-.9,1.308-.543a33.421,33.421,0,0,1,6.349,3.976C838.38,583.335,838.651,583.515,838.958,583.738Z" transform="translate(-787.753 -576.298)"/><path class="i" d="M843.282,733.151c-.458-.048-.564-.394-.729-.661-2.038-3.285-4.058-6.581-6.114-9.855-.367-.584-.421-.983.215-1.391a7.761,7.761,0,0,0,1.07-.923c1.643-1.545,1.641-1.548,3.4-.225q4.069,3.067,8.139,6.13c.5.371.862.625.276,1.3a33.61,33.61,0,0,1-5.7,5.277C843.648,732.936,843.444,733.049,843.282,733.151Z" transform="translate(-794.757 -676.661)"/><path class="i" d="M722.209,733.538c-.2-.131-.4-.253-.591-.389a33.666,33.666,0,0,1-5.652-5.116c-.539-.609-.376-.881.187-1.3q4.642-3.478,9.235-7.022c.55-.425.929-.5,1.4.083A10.045,10.045,0,0,0,728,720.976c1.49,1.312,1.5,1.309.413,3.063-1.782,2.889-3.561,5.78-5.36,8.658C722.849,733.023,722.764,733.521,722.209,733.538Z" transform="translate(-708.455 -676.833)"/><path class="j" d="M859.222,644.147c-.746.239-1.1-.212-1.147-1.086a4.242,4.242,0,0,0-.192-.824c-.638-2.406-.64-2.408,1.539-3.493,2.909-1.449,5.845-2.846,8.715-4.369.951-.506,1.243-.266,1.582.622a36.376,36.376,0,0,1,1.956,7.065c.113.684,0,.9-.714.963C867.109,643.364,863.263,643.755,859.222,644.147Z" transform="translate(-810.04 -615.786)"/><path class="k" d="M818.145,748.411c-.48.171-.5-.327-.56-.656-.761-3.981-1.494-7.966-2.263-11.945a.6.6,0,0,1,.5-.818c.406-.12.812-.245,1.207-.4,2.462-.945,2.458-.945,3.883,1.363,1.658,2.688,3.3,5.389,5,8.049.5.779.44,1.151-.411,1.589A33.509,33.509,0,0,1,818.145,748.411Z" transform="translate(-779.812 -687.307)"/><path class="l" d="M846.683,614.754c-.093-.045-.25-.072-.323-.165-.8-1.048-1.618-2.089-2.372-3.172-.246-.354.2-.583.4-.8,2.643-2.9,5.309-5.778,7.941-8.687.457-.5.754-.549,1.233-.04a33.267,33.267,0,0,1,4.663,6.225c.254.443.321.752-.214,1.017q-5.521,2.733-11.033,5.484C846.9,614.654,846.809,614.693,846.683,614.754Z" transform="translate(-800.305 -592.453)"/><path class="m" d="M719.3,610.437c-.5.586-.974,1.108-1.409,1.661-1.457,1.85-1.45,1.851-3.544.807-2.957-1.475-5.9-2.976-8.885-4.4-.88-.419-.929-.8-.441-1.579a35.743,35.743,0,0,1,4.5-5.82c.484-.5.794-.65,1.337-.043,2.616,2.923,5.274,5.807,7.914,8.708C718.951,609.975,719.11,610.2,719.3,610.437Z" transform="translate(-700.632 -591.839)"/><path class="g" d="M873.731,674.673a38.258,38.258,0,0,1-.715,6.013c-.154.709-.446.83-1.068.648-3.8-1.109-7.6-2.219-11.413-3.3-.521-.147-.712-.368-.612-.883.081-.417.149-.837.2-1.258.31-2.5.31-2.485,2.891-2.708,2.821-.244,5.64-.517,8.457-.8C873.8,672.153,873.794,672.137,873.731,674.673Z" transform="translate(-811.748 -643.12)"/><path class="n" d="M742.7,590.688c.031.389-.236.493-.5.62-.338.166-.67.346-1,.534-2.275,1.311-2.272,1.31-4.011-.6-2.158-2.374-4.293-4.769-6.5-7.1-.656-.694-.633-1.06.129-1.625a34.564,34.564,0,0,1,6.282-3.788c.427-.194.806-.483,1.088.259,1.44,3.783,2.925,7.549,4.392,11.322A3.7,3.7,0,0,1,742.7,590.688Z" transform="translate(-718.909 -575.969)"/><path class="o" d="M862.216,710.622c-.175-.124-.406-.28-.628-.447-3.058-2.3-6.1-4.631-9.184-6.893-.709-.52-.784-.963-.28-1.6.058-.074.092-.166.146-.242.591-.829.554-2.318,1.494-2.549.878-.216,1.975.444,2.972.731,2.9.833,5.8,1.682,8.7,2.5.681.192,1.1.39.778,1.247a32.691,32.691,0,0,1-3.34,6.7C862.734,710.282,862.658,710.606,862.216,710.622Z" transform="translate(-805.95 -662.134)"/></g><g transform="translate(-2038.141 1454.702)"><g transform="translate(2579.979 2155.862)"><path class="p" d="M2915.4,2173.309a.466.466,0,0,1-.418-.316,3.674,3.674,0,0,1-.13-.416c-.038-.125-.065-.253-.114-.374a.5.5,0,0,0-.6-.332c-.026.119.051.2.1.294a4.456,4.456,0,0,1,.28.5.9.9,0,0,1-.225,1.016.757.757,0,0,1-.353-.418c-.076-.193-.136-.391-.212-.584a.823.823,0,0,0-.368-.461,1.405,1.405,0,0,0-.5.276c-.255.221-.366.234-.624.026a.283.283,0,0,0-.392-.014,7.648,7.648,0,0,0-.632.5,1.83,1.83,0,0,1-1.169.526,1.175,1.175,0,0,1-.318-.034.175.175,0,0,1-.111-.1,1.339,1.339,0,0,1-.056-.334.863.863,0,0,1,.052-.246,1.9,1.9,0,0,0,.083-.959c.223,0,.428-.016.631,0a.407.407,0,0,0,.424-.228,3.514,3.514,0,0,1,1.078-1.117,3.46,3.46,0,0,1,1.7-.5l.16-.012c.007,0,.014-.007.039-.021a.35.35,0,0,0,0-.14c-.067-.153-.141-.3-.223-.45-.06-.106-.128-.114-.227-.032a2.472,2.472,0,0,0-.172.184.269.269,0,0,1-.306.1.282.282,0,0,1-.149-.328,2.055,2.055,0,0,1,.727-1.22,3.938,3.938,0,0,0,.867-.944.253.253,0,0,1,.26-.108,4.807,4.807,0,0,1,.637.067c.315.055.627.128.971.2a2.407,2.407,0,0,1,0,.3,1.758,1.758,0,0,1-.8,1.238.169.169,0,0,1-.124.039,1.619,1.619,0,0,1-.423-.172c-.08-.055-.111-.182-.174-.3a.589.589,0,0,0-.378.462.57.57,0,0,0,.189.515.15.15,0,0,0,.189.031,6.927,6.927,0,0,0,.777-.341,3.448,3.448,0,0,0,1.446-1.736,6.06,6.06,0,0,0,.432-2.221c.006-.259,0-.519,0-.8.173.048.335.088.493.139a15.774,15.774,0,0,1,5.473,3,13.114,13.114,0,0,1,4.475,7.976,12.7,12.7,0,0,1,.184,2.2c-.007.458.019.92-.023,1.375-.068.739-.18,1.474-.275,2.21a.478.478,0,0,1-.052.1c0-.115,0-.192,0-.27,0-.837.013-1.674-.021-2.51a7.474,7.474,0,0,0-.546-2.758,3.054,3.054,0,0,0-.642-.947c-.069-.068-.149-.125-.238-.2a1.677,1.677,0,0,0-.229.85,7.44,7.44,0,0,0,.106,1.327c.049.418.084.837.121,1.257a1.186,1.186,0,0,1-.02.2,2.456,2.456,0,0,1-.506-.592c-.216-.335-.419-.679-.622-1.022a5.908,5.908,0,0,0-.775-1.111c-.163-.171-.352-.316-.53-.473a.407.407,0,0,0-.325-.082,3.909,3.909,0,0,1-2.48-.486.169.169,0,0,0-.064-.01.521.521,0,0,0,.318.691,2.929,2.929,0,0,0,.58.128c.28.043.564.057.842.109.256.048.278.1.266.363a2.442,2.442,0,0,1-.852,1.867,7.964,7.964,0,0,1-.875.589c-.142.089-.3.152-.472.236-.059-.053-.125-.1-.179-.165a9.384,9.384,0,0,1-1.519-2.376c-.1-.222-.2-.445-.316-.695a.586.586,0,0,0-.071.122,2.115,2.115,0,0,0,.175,1.454,5,5,0,0,0,1.21,1.549.57.57,0,0,1,.07.06.718.718,0,0,0,.916.17,3.5,3.5,0,0,0,.489-.254,1.248,1.248,0,0,1,.676-.222,2.294,2.294,0,0,1-.013,1.048,3.021,3.021,0,0,1-.618,1.247c-.3.372-.613.726-.921,1.089a4.482,4.482,0,0,0-.643.95,1.526,1.526,0,0,0-.124,1.136c.052.176.075.36.122.538a.962.962,0,0,1-.1.667,4.488,4.488,0,0,1-.759,1.064,6.773,6.773,0,0,0-.868,1.128,2.343,2.343,0,0,0-.311,1.117.265.265,0,0,1-.067.18,3.179,3.179,0,0,1-1.5.8c-.27.046-.548.052-.822.074a.328.328,0,0,1-.28-.124,7.963,7.963,0,0,1-.887-1.2c-.318-.5-.627-1-.943-1.5a.3.3,0,0,1-.053-.276,4.4,4.4,0,0,0-.014-2.559,7.514,7.514,0,0,0-1.061-2.159.525.525,0,0,0-.19-.156,2.98,2.98,0,0,0-1.1-.3c-.374-.034-.75-.034-1.124-.062-.465-.033-.93-.076-1.394-.123a.346.346,0,0,1-.2-.092,3.494,3.494,0,0,1-.684-4.056,5.661,5.661,0,0,1,4.084-3.127,4.748,4.748,0,0,1,1.281-.082c.122.193.236.383.36.567a2.365,2.365,0,0,0,.86.781.418.418,0,0,0,.431.011,2.486,2.486,0,0,1,1.066-.247,7.965,7.965,0,0,1,2.16.272c.067.016.135.029.2.041.013,0,.028-.01.064-.023a2.752,2.752,0,0,0-.373-1.228,3.415,3.415,0,0,1-1.46-.191,1.14,1.14,0,0,1,.4-.911,1.891,1.891,0,0,1,1.076-.354c.213-.018.428,0,.641,0l.02-.048a1.477,1.477,0,0,0-.107-.124,1.534,1.534,0,0,0-.755-.416.74.74,0,0,0-.591.115,2.627,2.627,0,0,0-.524.476c-.287.369-.541.763-.809,1.146C2915.458,2173.235,2915.429,2173.271,2915.4,2173.309Z" transform="translate(-2899.552 -2164.117)"/><path class="p" d="M2587.629,2182.316a8.927,8.927,0,0,1-1.9-.915,10.939,10.939,0,0,1-3.362-3.354,14.62,14.62,0,0,1-2.122-5.523,13.91,13.91,0,0,1-.232-2.1c-.013-.56-.05-1.121-.026-1.679a13.836,13.836,0,0,1,1.227-5.319,11.989,11.989,0,0,1,1.988-3,13.2,13.2,0,0,1,3.267-2.593,17.512,17.512,0,0,1,5.022-1.878c.141-.03.282-.055.481-.094a1.86,1.86,0,0,1-.185.329,4.921,4.921,0,0,1-.619.613c-.409.31-.838.594-1.27.873-.405.262-.824.5-1.224.744-.217-.1-.414-.2-.621-.275a.724.724,0,0,0-.731.147c-.069.055-.163.112-.1.223.051.087.153.084.28,0,.017-.011.035-.02.059-.033a.448.448,0,0,1-.038.444c-.107.194-.227.382-.35.568a1.8,1.8,0,0,0-.363.882.157.157,0,0,1-.122.147c-.137.049-.273.1-.414.141a1.023,1.023,0,0,0-.621.406.666.666,0,0,1-.833.3.948.948,0,0,0-.866.173,5.385,5.385,0,0,0-2.153,2.564,13,13,0,0,0-.559,1.967,7.082,7.082,0,0,0-.149,1.323,1.439,1.439,0,0,0,.176.729c.154.274.316.543.47.818.108.194.213.391.311.59a2.011,2.011,0,0,1,.141,1.3,1.24,1.24,0,0,0,.258,1.079c.156.188.322.37.489.549.2.213.411.414.6.631a1.577,1.577,0,0,1,.38,1.058,8.918,8.918,0,0,1-.125,1.487,7.272,7.272,0,0,0-.117,1.533,6.635,6.635,0,0,0,.463,1.891c.091.244.2.48.293.725a1.773,1.773,0,0,0,.545.725,13.582,13.582,0,0,0,1.854,1.24c.274.167.542.344.813.517Z" transform="translate(-2579.979 -2155.862)"/><path class="p" d="M2951.485,2182.172a3.737,3.737,0,0,0-2.924.742,1.822,1.822,0,0,1,.491-1.064,4.466,4.466,0,0,1,1.184-.826,6.26,6.26,0,0,0,1.048-.663,2.185,2.185,0,0,0,.578-.765.6.6,0,0,1,.587.193c.081.092.158.188.237.281a.645.645,0,0,0,.514.264.4.4,0,0,1,.089.016c.006,0,.01.01.026.029a.962.962,0,0,1-.35.561,6.037,6.037,0,0,1-.528.367c-.147.1-.3.188-.446.285A1.589,1.589,0,0,0,2951.485,2182.172Z" transform="translate(-2940.069 -2179.038)"/><path class="p" d="M3467.491,3018.106a2.558,2.558,0,0,1-.276,1.158c-.159.3-.346.6-.53.886-.225.355-.46.7-.7,1.06-.25-.017-.345-.1-.365-.35a3.166,3.166,0,0,1,.007-.436c.018-.282.041-.563.063-.863-.007.007,0-.008.014-.013a1.911,1.911,0,0,0,1.079-1.128c.191-.4.081-.328.539-.335A1.244,1.244,0,0,1,3467.491,3018.106Z" transform="translate(-3445.215 -2998.22)"/><path class="p" d="M3045.373,2373.354a1.469,1.469,0,0,1,1.457-1.069c.057.244.121.494.17.748a.646.646,0,0,1-.022.248c-.051.233-.146.293-.375.23a1.516,1.516,0,0,1-.363-.138.8.8,0,0,0-.686-.065C3045.5,2373.325,3045.45,2373.334,3045.373,2373.354Z" transform="translate(-3034.651 -2367.295)"/><path class="p" d="M2651.49,2500.445a.474.474,0,0,1-.062-.514,8.62,8.62,0,0,0,.515-1.993c.075-.389.174-.775.266-1.161a1.777,1.777,0,0,1,.076-.205l.05.009c-.012.193-.021.385-.038.578a7.984,7.984,0,0,1-.373,1.978,3.4,3.4,0,0,1-.244.517.4.4,0,0,0-.056.255,1.576,1.576,0,0,1-.039.406C2651.578,2500.356,2651.53,2500.392,2651.49,2500.445Z" transform="translate(-2649.735 -2488.721)"/><path class="p" d="M3036.444,2300.445a.365.365,0,0,1-.214.46.964.964,0,0,1-.8.019.531.531,0,0,1-.117-.07.4.4,0,0,1-.155-.406.38.38,0,0,1,.353-.212,1.863,1.863,0,0,1,.336.062C3036.036,2300.342,3036.228,2300.391,3036.444,2300.445Z" transform="translate(-3024.656 -2296.909)"/><path class="p" d="M3643.748,2690.324a.46.46,0,0,1,.481.139,2.293,2.293,0,0,1,.289.411c.13.234.241.479.364.717a3.6,3.6,0,0,0,.2.337,1.191,1.191,0,0,0,.969.6.721.721,0,0,1-.831-.1,2.446,2.446,0,0,1-.51-.73c-.1-.2-.2-.4-.3-.595A1.89,1.89,0,0,0,3643.748,2690.324Z" transform="translate(-3619.24 -2677.995)"/><path class="p" d="M3154.981,2269.475c-.241-.572.62-1.56,1.44-1.618A4.435,4.435,0,0,0,3154.981,2269.475Z" transform="translate(-3141.693 -2265.277)"/><path class="p" d="M3299.052,2245.742a2.318,2.318,0,0,1-.34,0,.412.412,0,0,1-.351-.347.861.861,0,0,1,.011-.558A.748.748,0,0,1,3299.052,2245.742Z" transform="translate(-3281.769 -2242.784)"/><path class="p" d="M2916.007,2864.907a.261.261,0,0,1,.326.018c.128.083.248.181.372.271a4.162,4.162,0,0,0,.454.313,1.776,1.776,0,0,0,.391.114c.029.008.063,0,.092,0,.067.016.153.033.128.123-.009.033-.106.072-.149.06a2.411,2.411,0,0,1-.606-.2C2916.675,2865.4,2916.36,2865.155,2916.007,2864.907Z" transform="translate(-2908.265 -2848.523)"/><path class="p" d="M3496.433,2874.655a.261.261,0,0,1,.005-.349,3.7,3.7,0,0,1,.278-.363c.139-.172.278-.344.421-.513a.668.668,0,0,1,.121-.089c.092.111.026.2-.02.264-.154.228-.317.449-.483.668C3496.66,2874.4,3496.551,2874.516,3496.433,2874.655Z" transform="translate(-3475.255 -2856.811)"/><path class="p" d="M3005.815,2905.414c.01.12-.061.159-.152.162a2.977,2.977,0,0,1-.343-.01c-.128-.01-.255-.027-.392-.043-.012-.11.053-.149.142-.162a.813.813,0,0,1,.182,0C3005.44,2905.373,3005.627,2905.394,3005.815,2905.414Z" transform="translate(-2995.136 -2888.085)"/></g></g></g></svg>