<?xml version="1.0" encoding="utf-8"?>
<!-- Generator: Adobe Illustrator 22.0.0, SVG Export Plug-In . SVG Version: 6.00 Build 0)  -->
<svg version="1.1" id="Layer_1" xmlns="http://www.w3.org/2000/svg" xmlns:xlink="http://www.w3.org/1999/xlink" x="0px" y="0px"
	 viewBox="0 0 170.4 167" style="enable-background:new 0 0 170.4 167;" xml:space="preserve">
<style type="text/css">
	.st0{opacity:0.21;fill:#FE5356;}
	.st1{opacity:0.76;fill:#FE5356;}
	.st2{opacity:0.69;fill:#FE5356;}
	.st3{fill:#FF7D84;}
	.st4{fill:#1A2E35;}
	.st5{fill:#FAFAFA;}
	.st6{fill:#FFFFFF;}
	.st7{fill:#FF717F;}
</style>
<g>
	<path class="st0" d="M47.5,132.7l0.4,0.3c1,0.6,0.5,2.2-0.7,2.1l-0.5-0.1c-3.9-0.4-7.6,1.4-9.7,4.7l-0.3,0.4
		c-0.6,1-2.2,0.5-2.1-0.7l0.1-0.5c0.4-3.9-1.4-7.6-4.7-9.7l-0.4-0.3c-1-0.6-0.5-2.2,0.7-2.1l0.5,0.1c3.9,0.4,7.6-1.4,9.7-4.7
		l0.3-0.4c0.6-1,2.2-0.5,2.1,0.7l-0.1,0.5C42.4,126.9,44.2,130.6,47.5,132.7z"/>
	<path class="st1" d="M60,11.9l0.1,0.3c0.2,0.8-0.8,1.4-1.4,0.8l-0.2-0.3c-1.9-2.1-4.8-3-7.5-2.2l-0.3,0.1c-0.8,0.2-1.4-0.8-0.8-1.4
		l0.3-0.2c2.1-1.9,3-4.8,2.2-7.5l-0.1-0.3c-0.2-0.8,0.8-1.4,1.4-0.8l0.2,0.3c1.9,2.1,4.8,3,7.5,2.2l0.3-0.1c0.8-0.2,1.4,0.8,0.8,1.4
		l-0.3,0.2C60.1,6.3,59.2,9.2,60,11.9z"/>
	<path class="st2" d="M164.7,70.2l-0.2,0.2c-0.4,0.4-1,0-0.8-0.6l0.1-0.2c0.6-1.7,0.3-3.6-1-4.9l-0.2-0.2c-0.4-0.4,0-1,0.6-0.8
		l0.2,0.1c1.7,0.6,3.6,0.3,4.9-1l0.2-0.2c0.4-0.4,1,0,0.8,0.6l-0.1,0.2c-0.6,1.7-0.3,3.6,1,4.9l0.2,0.2c0.4,0.4,0,1-0.6,0.8
		l-0.2-0.1C167.9,68.6,166,68.9,164.7,70.2z"/>
	<g>
		<circle class="st3" cx="118.4" cy="127.4" r="39.6"/>
		<path class="st4" d="M154.6,125.3c-0.5,5.2-2,10.2-4.4,14.8c-2.4,4.6-5.7,8.8-9.7,12.2c-4,3.4-8.7,6-13.7,7.5
			c-5,1.6-10.4,2-15.6,1.5c-5.2-0.6-10.3-2.2-14.9-4.7c-4.6-2.5-8.6-6-11.9-10c-3.3-4.1-5.8-8.7-7.3-13.7c-1.5-5-2.1-10.3-1.7-15.5
			c0.5-5.2,1.9-10.4,4.4-15c2.4-4.7,5.8-8.8,9.9-12.2c4.1-3.4,8.8-5.9,13.8-7.5c5-1.6,10.4-2,15.7-1.5c5.2,0.6,10.4,2.1,15,4.6
			c4.6,2.5,8.7,6,12,10.1C152.7,104.3,155.7,115,154.6,125.3z M154.5,125.3c0.5-5.1,0-10.4-1.6-15.3c-1.6-4.9-4.1-9.5-7.4-13.4
			c-6.6-7.8-16.3-12.9-26.4-13.8c-10.1-1-20.6,2.1-28.5,8.5c-3.9,3.2-7.3,7.2-9.7,11.7c-2.4,4.5-4,9.4-4.6,14.5
			c-1.2,10.2,1.9,20.9,8.6,28.8c6.5,8,16.4,13,26.5,13.8c10.2,1,20.6-2.1,28.6-8.5c4-3.2,7.4-7.1,9.9-11.6
			C152.4,135.5,153.9,130.5,154.5,125.3z"/>
		<g>
			<path class="st5" d="M113,146.7L113,146.7c-8.3-0.8-15.3-3.8-21-8.9l0-0.3c0.1-0.9,0.3-2.3,0.3-2.5c2.2-10.6,13.5-11.8,22.5-10.9
				l0.4,0l0.3,0c9,0.9,19.9,4.3,20,15.1c0,0.3-0.1,1.9-0.2,2.8l0,0.1C128.8,145.9,121.1,147.5,113,146.7z"/>
			<path class="st5" d="M118,96.7c6.1,0.6,9.8,5.5,9.2,12.2c-0.7,7.2-5.9,12.6-11.6,12c-5.7-0.6-9.7-6.9-9-14.1
				C107.3,100.2,111.9,96.1,118,96.7z"/>
		</g>
		<g>
			<path class="st4" d="M113,146.8c-1.9-0.2-3.8-0.5-5.7-0.9c-1.9-0.4-3.8-0.9-5.6-1.6c-1.8-0.7-3.6-1.5-5.3-2.5
				c-1.7-1-3.3-2.2-4.7-3.5l-0.3-0.2l0-0.3l0.2-1.9c0-0.3,0.1-0.6,0.1-1l0.3-1l0.3-1l0.4-0.9c0.1-0.3,0.3-0.6,0.4-0.9l0.5-0.8
				c0.7-1.1,1.7-2.1,2.7-2.9c0.6-0.4,1.1-0.8,1.7-1.1c0.6-0.3,1.2-0.6,1.8-0.8c4.9-1.9,10.2-2,15.4-1.7c2.6,0.2,5.2,0.5,7.7,1.2
				c2.5,0.7,5,1.6,7.3,3.1c0.6,0.3,1.1,0.8,1.6,1.2c0.5,0.4,1,1,1.4,1.4c0.8,1.1,1.6,2.2,2.1,3.5l0.4,1c0.1,0.3,0.2,0.7,0.2,1l0.2,1
				l0.1,1l0.1,1l-0.1,1l-0.2,2l0,0.4l-0.3,0.2c-3.4,2-7.2,3.2-11.1,3.8c-1.9,0.3-3.9,0.5-5.8,0.5C116.9,147.1,114.9,147,113,146.8z
				 M113,146.6c1.9,0.2,3.9,0.2,5.8,0.1c1.9-0.2,3.8-0.5,5.7-0.9c3.7-0.9,7.2-2.4,10.5-4.3l-0.4,0.6l0.1-1.9l0.1-0.9l-0.1-0.9
				l-0.1-0.9l-0.2-0.9c-0.1-0.3-0.1-0.6-0.2-0.9l-0.3-0.8c-0.4-1.1-1.1-2.2-1.8-3.1c-0.4-0.4-0.8-0.9-1.3-1.3
				c-0.5-0.4-0.9-0.8-1.4-1.1c-2-1.4-4.4-2.4-6.8-3.1c-2.4-0.7-4.9-1.2-7.5-1.5c-2.5-0.3-5.1-0.5-7.7-0.3c-2.5,0.2-5.1,0.6-7.4,1.7
				c-0.6,0.2-1.1,0.6-1.7,0.9c-0.5,0.3-1,0.7-1.5,1.1c-0.9,0.9-1.8,1.8-2.4,2.9l-0.5,0.8c-0.1,0.3-0.2,0.6-0.4,0.9l-0.3,0.9
				l-0.2,0.9l-0.2,0.9c0,0.3-0.1,0.6-0.1,0.9l-0.2,1.9l-0.2-0.6c1.4,1.3,2.9,2.4,4.5,3.5c1.6,1,3.2,2,5,2.8c1.7,0.8,3.5,1.5,5.4,2
				C109.2,146.1,111.1,146.4,113,146.6z"/>
			<path class="st4" d="M118,96.6c1.5,0.1,3,0.5,4.3,1.2c1.4,0.7,2.6,1.7,3.5,2.9c1.9,2.5,2.4,5.9,1.8,8.9c-0.3,1.5-0.7,3-1.4,4.4
				c-0.7,1.4-1.6,2.6-2.6,3.7c-2,2.2-4.9,3.8-8.1,3.6c-1.6-0.1-3.1-0.6-4.4-1.5c-1.3-0.9-2.4-2.1-3.2-3.4c-1.7-2.7-2.4-5.9-2.1-9
				c0.1-1.5,0.4-3.1,1-4.6c0.6-1.5,1.5-2.8,2.7-3.8c1.2-1,2.6-1.8,4-2.2C115,96.5,116.5,96.4,118,96.6z M118,96.8
				c-1.5-0.1-3,0-4.3,0.6c-1.4,0.5-2.6,1.4-3.5,2.5c-1.8,2.2-2.7,5-2.8,7.8c-0.2,2.8,0.4,5.7,1.8,8.1c1.4,2.4,3.7,4.4,6.5,4.8
				c1.4,0.2,2.9,0,4.2-0.6c1.3-0.6,2.5-1.5,3.5-2.6c1.9-2.2,2.9-5.1,3.2-7.9c0.3-2.8,0-5.7-1.4-8.2c-0.7-1.2-1.7-2.3-2.9-3.1
				C120.9,97.3,119.5,96.9,118,96.8z"/>
			<path class="st4" d="M123,125.8c-0.5,1.6-2,2.7-3.6,3.1c-0.8,0.2-1.6,0.1-2.4,0.1c-0.8,0-1.6,0.1-2.4,0.1c-0.8,0.1-1.6,0-2.4-0.2
				c-0.8-0.2-1.6-0.5-2.3-0.9c-1.4-0.9-2.6-2.3-2.7-4l0.1-0.1c1,1.2,2.1,2,3.4,2.7c0.6,0.3,1.2,0.7,1.9,0.9c0.7,0.3,1.4,0.5,2.1,0.7
				c0.7,0.2,1.5,0.3,2.2,0.2c0.7-0.1,1.4-0.5,2.1-0.8c1.3-0.6,2.5-1.1,3.8-2L123,125.8z"/>
		</g>
		<g>
			<path class="st6" d="M127,108.5C127,108.5,127,108.5,127,108.5c0-1.5-0.1-2.8-0.4-4.2c-0.1-0.5-0.1-1-0.5-1.4
				c-1.7-1.8-3.6-2.3-5.7-3.3c-0.2-0.2-0.4-0.1-0.6,0c-3.7,2.1-6.7,2.4-9,2.9c-1.2,0.2-2.2,0.5-3,1.2c-0.8,0.6-1.3,1.6-1.4,3
				c-0.1,0-0.1,0-0.2,0c0,0-0.1,0-0.1,0c-1.3-5.6,2.5-13.8,9.7-13.1c0.9,0,1.6,0,2.4,0.1c3,0.5,3.3,2.1,3.7,3.2
				c5.1-0.8,8.1,3.9,5.4,11.8C127.3,108.6,127.2,108.5,127,108.5z"/>
			<path class="st4" d="M127,108.6L127,108.6l-0.1,0l0-0.1c0-1,0-2.1-0.2-3.1c-0.1-0.5-0.2-1-0.3-1.5c-0.1-0.2-0.1-0.5-0.3-0.6
				c-0.1-0.2-0.3-0.3-0.5-0.5c-0.8-0.6-1.6-1.1-2.6-1.5c-0.9-0.4-1.9-0.7-2.9-1.1l-0.1-0.1c0,0,0.1,0,0.1,0c0,0-0.1,0-0.3,0.1
				l0.3-0.1c-1.2,0.7-2.5,1.3-3.8,1.7c-1.3,0.4-2.7,0.6-4,0.8c-1.3,0.2-2.7,0.3-3.8,0.8c-1.1,0.6-1.7,1.9-1.9,3.1l0,0.2l-0.2,0
				c0,0-0.1,0-0.1,0c0,0-0.1,0-0.2,0l-0.2,0l0-0.2c-0.4-1.6-0.4-3.2-0.1-4.8c0.3-1.6,0.8-3.2,1.6-4.6c0.8-1.4,2-2.7,3.5-3.5
				c1.5-0.8,3.3-1.2,5-1l-0.1,0l2,0l0.5,0l0.5,0.1c0.4,0.1,0.7,0.2,1,0.3c0.7,0.3,1.4,0.7,1.9,1.4c0.5,0.7,0.7,1.4,0.9,2l-0.9-0.5
				c1.4-0.2,3.1,0,4.3,0.9c1.3,0.8,2,2.3,2.3,3.7c0.3,1.4,0.2,2.8,0,4.1c-0.2,1.3-0.6,2.6-1,3.9l0,0.1l-0.1,0L127,108.6z
				 M127.1,108.4l0.4,0.1l-0.1,0.1c0.4-1.3,0.7-2.6,0.8-3.9c0.1-1.3,0-2.6-0.5-3.8c-0.4-1.2-1.1-2.2-2.2-2.8c-1-0.6-2.2-0.7-3.4-0.5
				l-0.7,0.1l-0.2-0.6c-0.2-0.7-0.4-1.1-0.7-1.5c-0.3-0.4-0.7-0.6-1.2-0.8c-0.2-0.1-0.5-0.2-0.8-0.2l-0.4-0.1l-0.5,0l-1.8-0.1
				l-0.1,0c-1.4-0.2-2.9,0.1-4.2,0.7c-1.3,0.6-2.4,1.7-3.3,2.9c-0.9,1.2-1.5,2.6-1.9,4.1c-0.4,1.5-0.4,3.1-0.1,4.6l-0.2-0.2l0.4,0
				l-0.3,0.2c0.2-1.3,0.7-2.8,2-3.6c1.2-0.8,2.6-1,3.9-1.3c2.6-0.6,5.1-1.4,7.3-2.7l0.4-0.2l-0.1,0.1c0,0,0.1,0,0.3,0
				c0.2,0,0.5,0.1,0.7,0.2l-0.1-0.1c0.9,0.5,1.8,0.9,2.7,1.4c0.9,0.5,1.8,1.1,2.5,1.9c0.2,0.2,0.4,0.4,0.5,0.7
				c0.1,0.3,0.2,0.6,0.2,0.8c0.1,0.5,0.1,1,0.2,1.6C127,106.5,127.1,107.5,127.1,108.4L127.1,108.4L127.1,108.4z"/>
		</g>
	</g>
	<circle class="st7" cx="115.9" cy="31.2" r="26.2"/>
	<path class="st4" d="M139.8,33.1c-1.6,6.7-5.7,12.8-11.6,16.6c-2.9,1.9-6.3,3.2-9.7,3.8c-3.5,0.6-7,0.4-10.4-0.4
		c-3.4-0.9-6.6-2.4-9.4-4.5c-2.8-2.1-5.1-4.7-6.9-7.7c-1.8-3-3-6.3-3.6-9.7c-0.5-3.4-0.5-6.9,0.3-10.3c1.5-6.8,5.8-13,11.8-16.7
		c3-1.9,6.3-3.1,9.8-3.7c3.5-0.6,7.1-0.4,10.5,0.4c3.4,0.8,6.7,2.3,9.5,4.4c2.8,2.1,5.2,4.8,6.9,7.8
		C140.5,19.1,141.5,26.4,139.8,33.1z M139.7,33c0.7-3.3,0.9-6.8,0.3-10.2c-0.6-3.3-1.9-6.5-3.8-9.4c-3.7-5.6-9.5-9.7-16-11.3
		c-6.5-1.5-13.5-0.5-19.2,3c-5.7,3.4-10,9.2-11.7,15.7c-1.7,6.5-0.7,13.8,3,19.5c3.6,5.8,9.6,9.9,16.1,11.3
		c6.5,1.5,13.6,0.4,19.4-2.9c2.9-1.7,5.5-4,7.6-6.7C137.4,39.5,138.8,36.3,139.7,33z"/>
	<g>
		<path class="st6" d="M110.3,43.6L110.3,43.6c-5.5-1.3-10-4-13.3-7.9l0.1-0.2c0.2-0.6,0.4-1.5,0.4-1.7c2.5-7,10.2-6.7,16.2-5.3
			l0.3,0.1l0.2,0c6,1.4,13,4.7,12.1,12c0,0.2-0.3,1.2-0.4,1.9l0,0C121,44.5,115.6,44.9,110.3,43.6z"/>
		<path class="st6" d="M118.3,10.3c4.1,1,6.1,4.6,5,9.1c-1.1,4.8-5.1,7.9-8.9,7c-3.8-0.9-5.9-5.5-4.8-10.3
			C110.7,11.7,114.2,9.4,118.3,10.3z"/>
		<g>
			<path class="st4" d="M110.3,43.7c-1.3-0.3-2.5-0.7-3.8-1.1c-1.3-0.4-2.5-0.9-3.7-1.5c-1.2-0.6-2.4-1.3-3.4-2.1
				c-1.1-0.8-2-1.8-2.9-2.8l-0.2-0.3l0.1-0.3l0.4-1.3l0.2-0.6l0.3-0.6c0.1-0.2,0.2-0.4,0.3-0.6l0.4-0.6c0.2-0.4,0.5-0.8,0.9-1.1
				c0.6-0.7,1.4-1.2,2.2-1.7c0.8-0.4,1.7-0.7,2.5-0.9c1.7-0.4,3.5-0.5,5.3-0.4c1.8,0.1,3.5,0.3,5.3,0.7c1.7,0.3,3.5,0.8,5.1,1.4
				c1.7,0.7,3.3,1.5,4.7,2.8c1.4,1.2,2.6,2.9,3,4.8c0.1,0.5,0.2,0.9,0.2,1.4l0.1,0.7l0,0.7l-0.1,0.7l-0.1,0.7l-0.3,1.3l-0.1,0.4
				l-0.4,0.1c-2.5,1-5.2,1.5-7.9,1.4c-1.3,0-2.7-0.1-4-0.3C112.9,44.2,111.6,44,110.3,43.7z M110.3,43.5c1.3,0.3,2.6,0.5,3.9,0.5
				c1.3,0,2.6,0,3.9-0.2c2.6-0.3,5-1.1,7.4-2l-0.5,0.5c0.4-1.7,0.6-3.3,0.2-4.8c-0.2-0.8-0.5-1.5-0.9-2.2c-0.4-0.7-0.9-1.3-1.5-1.9
				c-2.4-2.2-5.7-3.5-9-4.5c-3.3-1-6.9-1.5-10.2-0.5c-1.6,0.5-3.1,1.5-4.1,2.8c-1,1.3-1.5,2.9-1.9,4.6l-0.1-0.6
				c0.8,1,1.7,1.9,2.7,2.7c1,0.8,1.9,1.7,3,2.4c1.1,0.7,2.2,1.4,3.4,1.9C107.8,42.8,109,43.2,110.3,43.5z"/>
			<path class="st4" d="M118.3,10.3c2,0.5,3.9,1.5,5,3.5c1.2,1.9,1.2,4.3,0.5,6.3c-0.7,2-2,3.8-3.6,5.1c-1.6,1.3-3.7,2.2-5.9,1.8
				c-2.2-0.4-4-2.1-4.9-4.1c-0.9-2-1.1-4.3-0.7-6.4c0.2-1.1,0.6-2.1,1.2-3c0.6-0.9,1.3-1.8,2.3-2.3C114.1,9.9,116.3,9.8,118.3,10.3z
				 M118.2,10.4c-1-0.2-2-0.2-3,0c-1,0.2-1.8,0.8-2.5,1.4c-1.3,1.3-2.1,3.1-2.5,4.9c-0.4,1.8-0.3,3.8,0.4,5.5c0.7,1.7,2,3.2,3.8,3.8
				c0.9,0.3,1.9,0.3,2.8,0.1c0.9-0.2,1.8-0.7,2.5-1.4c1.5-1.3,2.3-3.2,2.7-5c0.4-1.9,0.5-3.8-0.1-5.5c-0.3-0.9-0.8-1.7-1.6-2.4
				C120.1,11.1,119.2,10.6,118.2,10.4z"/>
		</g>
		<g>
			<g>
				<path class="st6" d="M119.5,10.6c-0.4-0.1-0.8-0.2-1.3-0.2c-0.5-0.2-1-0.3-1.5-0.4c-3.5-0.7-5.5,1.4-6.6,3.9
					c0.5-0.1,1-0.2,1.6-0.5c1-0.4,2.8-0.4,3.8,0c0.2,0.1,0.3,0.3,0.2,0.5c-0.3,0.7-0.6,1.1-0.9,1.5c-0.2,0.2-0.3,0.4-0.5,0.7
					c2.5,0,3.9-0.3,4.8-0.7c0.5-0.2,0.8-0.4,1.2-0.6c0.4-0.2,0.7-0.3,1.2-0.3c0.3,0,1.2,0.2,1.5,0.3c0.2,0.1,0.4,0.2,0.5,0.3
					c0.1,0.1,0.2,0.2,0.3,0.3C123.5,13.3,122.3,11.4,119.5,10.6z"/>
				<path class="st4" d="M119.5,10.7c-0.4-0.1-0.9-0.1-1.3-0.2l0,0c-0.8-0.2-1.6-0.4-2.4-0.3c-0.8,0.1-1.5,0.3-2.1,0.6
					c-0.6,0.3-1.2,0.8-1.7,1.3c-0.5,0.6-1,1.2-1.4,1.9l-0.5-0.6l1.1-0.2c0.2,0,0.3-0.1,0.5-0.1c0.2-0.1,0.4-0.1,0.6-0.2
					c0.8-0.2,1.5-0.2,2.3-0.1c0.4,0,0.8,0.1,1.1,0.2c0.1,0,0.3,0.1,0.4,0.2c0.1,0.1,0.2,0.3,0.2,0.4c0,0.1,0,0.2,0,0.3l0,0.1
					l-0.1,0.3c-0.3,0.7-0.8,1.4-1.2,2l-0.4-0.9c1.6-0.1,3.3-0.2,4.6-0.9c0.4-0.2,0.7-0.4,1.1-0.6c0.4-0.2,1.1-0.4,1.6-0.4L123,14
					c0.2,0,0.5,0.2,0.8,0.3c0.3,0.2,0.4,0.4,0.6,0.7l-1.3,0.5c-0.1-1-0.3-2.1-0.9-2.9c-0.3-0.4-0.7-0.8-1.2-1.1
					C120.6,11.1,120.1,10.9,119.5,10.7z M119.6,10.6c1.1,0.3,2.2,0.7,3.1,1.5c0.9,0.8,1.6,2,1.8,3.2c0.1,0.4-0.2,0.7-0.6,0.8
					c-0.2,0-0.4,0-0.6-0.2l-0.2-0.1c-0.2-0.2-0.3-0.3-0.7-0.4c-0.4-0.1-0.7-0.1-1-0.2c-0.3,0-0.5,0-0.8,0.2
					c-0.4,0.2-0.8,0.4-1.1,0.6c-0.8,0.4-1.8,0.6-2.6,0.7c-0.9,0.1-1.7,0.1-2.6,0l-0.1,0c-0.3,0-0.5-0.3-0.5-0.6
					c0-0.1,0.1-0.2,0.1-0.3c0.5-0.6,1-1,1.4-1.6c0.2-0.4,0.3-0.4,0.1-0.5c-0.3-0.1-0.6-0.2-1-0.3c-0.7-0.1-1.4-0.1-2.1,0.1
					c-0.2,0.1-0.3,0.1-0.5,0.2c-0.2,0.1-0.4,0.2-0.5,0.2l-1,0.4c-0.2,0.1-0.5,0-0.5-0.3c0-0.1,0-0.2,0-0.3l0-0.1
					c0.3-0.8,0.7-1.6,1.2-2.3c0.6-0.7,1.3-1.3,2.2-1.6c0.9-0.3,1.8-0.3,2.7-0.2c0.9,0.1,1.6,0.6,2.4,0.8l0,0
					C118.7,10.4,119.1,10.5,119.6,10.6z"/>
			</g>
			<g>
				<path class="st6" d="M111.7,28.2c-1.1-0.1-2.3-0.2-3.4-0.1l1.2,2.7L111.7,28.2z"/>
				<path class="st4" d="M111.7,28.2c-0.1,0-0.2,0.1-0.2,0.2c-0.1,0-0.1,0.1-0.2,0.1c-0.1,0.1-0.3,0.1-0.4,0.1
					c-0.3,0.1-0.6,0.1-0.8,0.1c-0.3,0-0.5,0-0.8-0.1c-0.3-0.1-0.5-0.2-0.8-0.3l0.3-0.4c0.1,0.5,0.4,0.9,0.7,1.3
					c0.2,0.2,0.4,0.4,0.5,0.6c0.1,0.2,0.3,0.4,0.4,0.6l-1.3-0.2c0.1-0.2,0.2-0.4,0.4-0.5c0.2-0.1,0.3-0.3,0.6-0.4
					C110.4,29.1,111,28.8,111.7,28.2z M111.8,28.2c0,0.3-0.2,0.8-0.5,1.4c-0.1,0.3-0.3,0.6-0.5,0.9c-0.2,0.3-0.5,0.5-0.7,0.8
					l-0.1,0.1c-0.3,0.3-0.7,0.3-1,0c-0.1-0.1-0.1-0.2-0.2-0.3c-0.1-0.2-0.1-0.5-0.2-0.7c-0.1-0.2-0.1-0.5-0.1-0.8
					c0-0.5-0.2-1-0.5-1.4c-0.1-0.1-0.1-0.2,0-0.3c0,0,0,0,0.1,0l0.2,0c0.3-0.1,0.6-0.2,0.9-0.3c0.3-0.1,0.6-0.1,0.9,0
					c0.3,0,0.6,0.1,0.9,0.2c0.1,0.1,0.3,0.1,0.4,0.2l0.2,0.1C111.7,28,111.8,28.1,111.8,28.2z"/>
			</g>
			<g>
				<path class="st6" d="M115.9,29.2l0.8,3.3l2.3-1.9C118,30.1,117,29.6,115.9,29.2z"/>
				<path class="st4" d="M115.9,29.3c0.4,0.8,0.7,1.3,1,1.8c0.1,0.2,0.2,0.4,0.2,0.6c0,0.2-0.1,0.5-0.1,0.7l-0.5-0.2
					c0.5-0.2,0.8-0.6,1.1-1c0.1-0.2,0.3-0.4,0.4-0.6c0.2-0.2,0.3-0.4,0.5-0.6l0.1,1.2c-0.2-0.1-0.5-0.2-0.7-0.3
					c-0.2-0.1-0.5-0.3-0.7-0.4c-0.2-0.2-0.4-0.3-0.7-0.5c-0.1-0.1-0.2-0.2-0.3-0.3l-0.2-0.2C116,29.4,116,29.3,115.9,29.3z
					 M115.8,29.2c0,0,0.2-0.1,0.3-0.1l0.2,0c0.2,0,0.3,0,0.5,0c0.3,0,0.6,0.1,0.9,0.1c0.3,0.1,0.6,0.2,0.8,0.3
					c0.3,0.1,0.5,0.3,0.7,0.5l0.2,0.1c0.3,0.2,0.4,0.6,0.2,0.9c-0.1,0.1-0.1,0.1-0.2,0.2c-0.2,0.1-0.4,0.3-0.6,0.4
					c-0.2,0.1-0.5,0.2-0.7,0.3c-0.5,0.2-0.9,0.4-1.2,0.8c-0.1,0.1-0.2,0.1-0.3,0.1c0,0-0.1-0.1-0.1-0.1l-0.1-0.1
					c-0.1-0.3-0.4-0.6-0.5-0.9c-0.2-0.3-0.2-0.7-0.2-1C115.6,30,115.7,29.4,115.8,29.2z"/>
			</g>
			<g>
				<path class="st6" d="M113.8,28.7c-0.6-0.1-0.9,0-1,0c-0.3,0.3-0.4,0.7-0.5,1.2l0.7,0.7c0.2,0.2,0.2,0.4,0.2,0.7
					c0.1-0.2,0.3-0.4,0.5-0.5l0.9-0.4c0.1-0.4,0.2-0.9,0.2-1.3C114.6,28.9,114.2,28.8,113.8,28.7z"/>
				<path class="st4" d="M113.8,28.8c-0.2,0-0.3,0-0.5,0.1c-0.2,0.1-0.3,0.2-0.2,0.3l0.1-0.1c0,0.2,0,0.3,0,0.4
					c0,0.2-0.2,0.4-0.3,0.6l-0.1-0.4c0.1,0.3,0.2,0.6,0.4,0.8c0.1,0.1,0.2,0.2,0.3,0.4c0.1,0.2,0.2,0.4,0.2,0.6l-0.8-0.2
					c0-0.2,0.1-0.4,0.2-0.7c0.1-0.2,0.4-0.4,0.5-0.4c0.2-0.2,0.5-0.3,0.8-0.4l-0.5,0.5c0.1-0.4,0.2-0.6,0.4-1l0,0.1
					c0.1,0,0.1-0.2,0-0.3C114.1,28.9,113.9,28.8,113.8,28.8z M113.8,28.6c0.2,0,0.4,0,0.6,0c0.2,0,0.5,0,0.8,0.3l0,0.1
					c0.4,0.6,0.3,1.2,0.1,1.7l0,0.1c-0.1,0.2-0.2,0.4-0.4,0.4c-0.3,0.1-0.6,0.1-0.8,0.2c-0.2,0-0.1,0-0.2,0c-0.1,0-0.2,0-0.2,0.1
					l-0.4,0.3c-0.1,0.1-0.3,0.1-0.4-0.1c-0.1-0.1-0.1-0.3,0-0.4c0.1-0.1,0.1-0.2,0.1-0.3c0-0.1,0-0.2-0.2-0.3
					c-0.2-0.2-0.5-0.3-0.8-0.5c0,0,0,0,0,0l-0.1-0.4c-0.1-0.2-0.1-0.4,0-0.7c0.1-0.3,0.3-0.6,0.6-0.7l0.1-0.1c0.3-0.1,0.6,0,0.8,0.1
					C113.5,28.5,113.6,28.6,113.8,28.6z"/>
			</g>
			<g>
				<path class="st6" d="M113.1,31.6c-1.5,3.8-3.1,7.5-4.7,11.3c1.3,0.3,2.4,0.6,3.7,0.9C112.4,39.5,112.9,35.2,113.1,31.6
					L113.1,31.6z"/>
				<path class="st4" d="M113.2,31.6c-0.2,1-0.4,2-0.7,3c-0.3,1-0.7,1.9-1,2.9c-0.4,0.9-0.9,1.8-1.4,2.7c-0.5,0.9-0.9,1.8-1.3,2.8
					l-0.2-0.3c1.2,0.2,2.5,0.3,3.8,0.5l-0.8,0.6c0-1,0.1-2,0.1-3.1c0-1,0.1-2,0.2-3c0.1-1,0.3-2,0.5-3c0.1-0.5,0.2-1,0.3-1.5
					l0.2-0.8l0.1-0.4l0.1-0.2l0-0.1l0,0l0,0l0,0l0,0l0,0C113.1,31.6,112.9,31.5,113.2,31.6z M113,31.5c0.3,0.1,0.1,0,0.1,0l0,0l0,0
					l0,0l0,0l0,0l0,0.1l0,0.2l0,0.4l0.1,0.8c0,0.5,0.1,1,0.1,1.5c0,1,0,2,0,3.1c0,1-0.1,2-0.2,3c-0.1,1-0.2,2-0.4,3l0,0.1
					c0,0.3-0.3,0.5-0.6,0.5c0,0-0.1,0-0.1,0c-1.2-0.4-2.4-0.9-3.6-1.2l0,0c-0.1,0-0.2-0.2-0.2-0.3l0,0c0.4-0.9,0.8-1.9,1-2.9
					c0.3-1,0.5-2,0.9-2.9c0.4-0.9,0.8-1.9,1.3-2.8C111.9,33.3,112.4,32.4,113,31.5z"/>
			</g>
		</g>
	</g>
	<circle class="st7" cx="30.7" cy="63.1" r="26.3"/>
	<path class="st4" d="M49.8,47.8c3.4,6,4.7,13.3,3,20.1c-0.8,3.4-2.4,6.6-4.5,9.5c-2.1,2.8-4.9,5.1-7.9,6.9c-3.1,1.7-6.5,2.8-10,3.2
		c-3.5,0.4-7,0.1-10.4-0.8c-3.3-1-6.5-2.5-9.3-4.6c-2.8-2.1-5.2-4.7-6.9-7.7c-3.6-6-4.8-13.5-2.9-20.3c0.9-3.4,2.5-6.7,4.6-9.5
		c2.1-2.8,4.9-5.2,8-6.9c3.1-1.7,6.5-2.9,10-3.3C27,33.7,30.5,34,33.9,35C40.6,37.1,46.4,41.7,49.8,47.8z M49.7,47.8
		c-1.8-2.9-4.1-5.6-6.8-7.6c-2.8-2-5.9-3.5-9.2-4.2c-6.6-1.6-13.6-0.6-19.4,2.8c-5.8,3.4-10.2,9-12,15.5c-1.8,6.5-1,13.6,2.3,19.6
		c3.2,6,9,10.6,15.7,12.2c6.6,1.8,13.8,0.6,19.6-2.9c5.8-3.4,10.2-9,12.1-15.5c1-3.2,1.3-6.7,0.9-10.1
		C52.5,54.1,51.4,50.8,49.7,47.8z"/>
	<g>
		<path class="st5" d="M35.4,75.6L35.4,75.6c-4.8,2.8-9.8,3.9-14.9,3.3l-0.1-0.2c-0.3-0.5-0.7-1.3-0.8-1.5c-2.9-6.6,2.8-11.7,8-14.7
			l0.2-0.1l0.2-0.1c5.3-3,12.4-5.4,16.7,0.4c0.1,0.1,0.6,1.1,1,1.6l0,0C43.6,69.1,40.1,72.9,35.4,75.6z"/>
		<path class="st5" d="M18.6,46.5c3.6-2.1,7.5-0.8,9.7,3.1c2.4,4.2,1.7,9.1-1.6,11c-3.3,1.9-7.9,0-10.4-4.2
			C14.2,52.5,15.1,48.5,18.6,46.5z"/>
	</g>
	<g>
		<path class="st4" d="M35.4,75.7c-1.1,0.6-2.3,1.2-3.5,1.8c-1.2,0.6-2.4,1-3.7,1.4c-1.3,0.4-2.6,0.7-3.9,0.8c-1.3,0.1-2.7,0.1-4,0
			l-0.4,0l-0.2-0.3l-0.6-1.2L19,77.5l-0.2-0.7c-0.1-0.2-0.1-0.4-0.2-0.7l-0.1-0.7c-0.1-0.4-0.1-0.9-0.1-1.4c0-0.9,0.1-1.8,0.4-2.7
			c0.3-0.8,0.7-1.7,1.2-2.4c1-1.5,2.2-2.8,3.5-3.9c1.3-1.1,2.7-2.2,4.2-3.1c1.5-0.9,3-1.8,4.6-2.4c1.6-0.7,3.4-1.1,5.2-1.2
			c1.8-0.1,3.8,0.3,5.3,1.4c0.4,0.3,0.8,0.5,1.1,0.9l0.5,0.5l0.4,0.5l0.4,0.5l0.3,0.6l0.7,1.1l0.2,0.4l-0.2,0.4
			c-1.1,2.4-2.8,4.6-4.7,6.4c-1,0.9-2,1.7-3,2.5C37.6,74.3,36.6,75,35.4,75.7z M35.4,75.5c1.1-0.7,2.2-1.4,3.1-2.2
			c1-0.9,1.9-1.8,2.7-2.8c1.6-2,2.9-4.2,3.9-6.4l0,0.7c-0.9-1.5-1.8-2.7-3.1-3.6c-0.6-0.4-1.4-0.7-2.1-1c-0.8-0.2-1.5-0.3-2.4-0.3
			c-3.2,0-6.5,1.3-9.5,2.9c-3,1.5-6,3.6-7.6,6.5c-0.8,1.5-1.2,3.1-1,4.7c0.2,1.6,0.9,3.1,1.8,4.5l-0.5-0.3c1.2,0.1,2.5,0.2,3.8,0.2
			c1.3,0,2.5-0.1,3.8-0.3c1.3-0.2,2.5-0.5,3.7-0.9C33.1,76.7,34.2,76.2,35.4,75.5z"/>
		<path class="st4" d="M18.6,46.4c1.7-1,3.8-1.5,5.9-0.9c2.1,0.6,3.7,2.3,4.6,4.2c0.9,1.9,1.1,4.1,0.8,6.1c-0.3,2-1.2,4-3,5.2
			c-1.8,1.2-4.3,1.2-6.2,0.4c-2-0.8-3.7-2.3-4.8-4.1c-0.5-0.9-1-1.9-1.2-3c-0.2-1.1-0.2-2.2,0-3.2C15.3,48.9,16.9,47.4,18.6,46.4z
			 M18.7,46.5c-0.8,0.5-1.6,1.2-2.1,2c-0.5,0.8-0.8,1.8-0.8,2.7c-0.1,1.8,0.5,3.6,1.6,5.2c1,1.5,2.3,2.9,4,3.7
			c1.6,0.8,3.6,1,5.3,0.2c0.8-0.4,1.6-1,2.1-1.9c0.5-0.8,0.8-1.8,0.9-2.7c0.2-1.9-0.5-3.8-1.5-5.4c-0.9-1.6-2.2-3-3.8-3.9
			c-0.8-0.4-1.8-0.7-2.7-0.6C20.5,45.7,19.5,46.1,18.7,46.5z"/>
	</g>
	<g>
		<path class="st6" d="M33.9,60c1.3,3.7,2.5,9.7,2.1,14.2l1.1-0.6l0.9-6.1l-1.6-0.4c-0.6-0.2-0.8-1-0.4-1.5l1.9-1.8l-2.9-3.9
			C34.7,59.9,34.3,59.9,33.9,60z"/>
		<path class="st4" d="M34,60c0.2,0.3,0.3,0.5,0.4,0.8c0.1,0.3,0.3,0.6,0.4,0.8c0.2,0.6,0.5,1.1,0.6,1.7c0.4,1.2,0.7,2.4,0.9,3.6
			c0.2,1.2,0.2,2.5,0.1,3.7l-0.2,3.7L35.9,74c0.4-0.2,0.7-0.5,1.1-0.7l-0.2,0.2l0.2-3.1c0.1-1,0.2-2,0.3-3l0.5,0.8l-1.5-0.3l-0.1,0
			l-0.2-0.1c-0.1,0-0.2-0.1-0.3-0.2c-0.2-0.2-0.4-0.3-0.5-0.5c-0.2-0.4-0.3-0.9-0.1-1.3c0.1-0.2,0.2-0.5,0.4-0.7l0.3-0.3l0.6-0.5
			c0.4-0.3,0.8-0.7,1.1-1l-0.1,0.9c-0.9-1.4-1.7-2.8-2.5-4.2l0.2,0.1C34.8,60.1,34.4,60,34,60z M33.9,59.9c0.3-0.1,0.7-0.2,1.2-0.3
			c0.1,0,0.1,0,0.2,0.1l0,0.1c1.2,1.2,2.2,2.4,3.3,3.7c0.2,0.3,0.2,0.6,0,0.9l-0.1,0.1c-0.3,0.4-0.7,0.7-1,1.1L36.9,66l-0.3,0.3
			c0,0,0,0,0,0c0,0,0,0.1,0,0.1c0,0,0,0,0,0c0,0,0,0,0,0c0,0,0,0,0,0l0.1,0l1.4,0.4l0.1,0c0.3,0.1,0.5,0.4,0.5,0.8
			c-0.2,1-0.3,2-0.6,3l-0.7,3l0,0.1c0,0.1-0.1,0.1-0.1,0.2c-0.4,0.2-0.8,0.4-1.2,0.6l0,0c-0.1,0.1-0.3,0-0.3-0.1c0,0,0-0.1,0-0.1
			c0.1-1.2,0.1-2.4-0.1-3.6c-0.2-1.2-0.5-2.3-0.7-3.5l-0.6-3.5l-0.3-1.8L34,60.9C33.9,60.6,33.9,60.2,33.9,59.9z"/>
	</g>
	<g>
		<path class="st6" d="M22.7,66.6c-0.2,0.3-0.4,0.6-0.6,0.9l1.8,4.4l2.5-0.7c0.6-0.2,1.2,0.5,1.1,1.1l-0.4,1.6l5.7,2.3l1.1-0.7
			C29.7,73.5,25.3,69.5,22.7,66.6z"/>
		<path class="st4" d="M22.7,66.7c-0.2,0.4-0.3,0.7-0.4,1l0-0.3c0.8,1.4,1.5,2.8,2.1,4.3l-0.8-0.4c0.5-0.1,1-0.3,1.4-0.4
			c0.2-0.1,0.5-0.1,0.7-0.2l0.4-0.1c0.2-0.1,0.5,0,0.7,0c0.4,0.1,0.7,0.4,0.9,0.7c0.1,0.2,0.1,0.4,0.2,0.6c0,0.2-0.1,0.5-0.1,0.5
			c-0.2,0.5-0.4,0.9-0.5,1.4l-0.2-0.3c0.9,0.5,1.9,0.8,2.8,1.2c0.5,0.2,1,0.3,1.5,0.5l1.5,0.4l-0.5,0c0.4-0.3,0.7-0.5,1.1-0.7l0,1.1
			c-1.2-0.5-2.2-1.1-3.3-1.7c-1-0.6-2-1.4-2.9-2.2c-0.9-0.8-1.8-1.7-2.6-2.6c-0.4-0.5-0.8-0.9-1.2-1.4c-0.2-0.2-0.4-0.5-0.5-0.7
			C23,67.2,22.9,67,22.7,66.7z M22.7,66.5c0.2,0.1,0.5,0.4,0.8,0.6l0.7,0.6l1.4,1.1c0.9,0.7,1.9,1.5,2.8,2.2l2.8,2.1
			c0.9,0.7,1.9,1.3,3,1.9l0.1,0c0.3,0.2,0.4,0.5,0.2,0.8c-0.1,0.1-0.2,0.2-0.3,0.3c-0.4,0.2-0.8,0.4-1.2,0.6l-0.1,0
			c-0.1,0.1-0.3,0-0.4,0l-1.4-0.7c-0.5-0.2-0.9-0.5-1.4-0.7c-0.9-0.4-1.9-0.8-2.8-1.1c-0.1,0-0.2-0.2-0.2-0.3l0,0
			c0.1-0.5,0.2-1,0.2-1.5c0-0.2,0-0.1,0-0.2c0,0,0-0.1-0.1-0.1c-0.1-0.1-0.2-0.1-0.3-0.1c0,0-0.1,0-0.1,0l-0.3,0.1
			c-0.2,0.1-0.5,0.2-0.7,0.2c-0.5,0.1-1,0.3-1.5,0.4l0,0c-0.3,0.1-0.6-0.1-0.7-0.4c-0.6-1.5-1-3-1.4-4.6l0-0.1c0-0.1,0-0.1,0-0.2
			C22.2,67,22.5,66.7,22.7,66.5z"/>
	</g>
	<g>
		<path class="st6" d="M16.9,56.9C16.9,56.9,16.9,56.9,16.9,56.9c-0.4-0.9-0.7-1.8-1-2.8c-0.1-0.4-0.2-0.7-0.1-1
			c0.5-1.6,1.5-2.5,2.5-3.7c0.1-0.2,0.2-0.1,0.3-0.2c2.8,0.4,4.7-0.3,6.3-0.6c0.8-0.2,1.4-0.3,2.1-0.1c0.6,0.2,1.2,0.7,1.8,1.5
			c0,0,0.1-0.1,0.1-0.1c0,0,0.1,0,0.1,0c-0.8-3.9-5.5-8.1-9.7-5.7c-0.5,0.2-1,0.4-1.4,0.7c-1.7,1.1-1.4,2.2-1.3,3
			c-3.3,0.9-3.8,4.6,0.1,8.9C16.8,57,16.8,57,16.9,56.9z"/>
		<path class="st4" d="M16.9,56.9L16.9,56.9L16.9,56.9c-0.4-0.5-0.7-1.1-1-1.8c-0.2-0.3-0.3-0.7-0.4-1c-0.1-0.2-0.1-0.4-0.1-0.6
			c0-0.1,0-0.2,0-0.4l0.1-0.3c0.2-0.7,0.6-1.4,1-2c0.4-0.6,0.9-1.1,1.3-1.6l-0.1,0.1c0.1-0.2,0.3-0.4,0.5-0.4
			c0.2-0.1,0.3-0.1,0.2-0.1l0.3,0c1.7,0.2,3.4,0.1,5.2-0.2c0.9-0.1,1.8-0.4,2.8-0.2c1,0.2,1.8,1,2.2,1.8L28.7,50l0.3-0.1l-0.1,0.3
			c-0.5-2-1.9-3.8-3.7-4.8c-0.9-0.5-1.8-0.9-2.8-0.9c-0.9-0.1-1.9,0.2-2.7,0.7l-0.1,0l-1,0.5c-0.2,0.1-0.3,0.2-0.5,0.3
			c-0.1,0.1-0.3,0.2-0.4,0.3c-0.4,0.5-0.5,0.8-0.4,1.8l0.1,0.7l-0.7,0.2C16,49.1,15.4,49.5,15,50c-0.4,0.6-0.5,1.4-0.4,2.2
			c0.2,1.7,1.2,3.3,2.2,4.8l-0.1,0L16.9,56.9z M16.9,57l-0.2,0.2l-0.1,0.1l-0.1-0.1c-0.7-0.6-1.4-1.3-1.9-2.1
			c-0.5-0.8-1-1.6-1.3-2.6c-0.2-1-0.2-2.1,0.3-3.1c0.6-1,1.6-1.7,2.6-1.9l-0.6,0.9c-0.1-0.4-0.2-0.9-0.1-1.5
			c0.1-0.6,0.4-1.1,0.8-1.5c0.2-0.2,0.4-0.4,0.6-0.5l0.3-0.2l0.3-0.2l1.3-0.6l-0.1,0c1.1-0.6,2.3-0.9,3.6-0.7
			c1.2,0.2,2.3,0.7,3.2,1.4c0.9,0.7,1.6,1.6,2.2,2.5c0.6,1,1,2,1.3,3.1l0,0.2l-0.2,0.1c0,0-0.1,0-0.1,0.1c0,0,0,0-0.1,0l-0.2,0.1
			l-0.1-0.2c-0.5-0.7-1.1-1.4-1.9-1.4c-0.8-0.1-1.6,0.3-2.5,0.5c-0.9,0.3-1.8,0.5-2.7,0.6c-0.9,0.1-1.9,0.1-2.9-0.1l0.3,0
			c-0.2,0.1-0.2,0.1-0.2,0c0.1,0,0.2-0.1,0.2-0.2l-0.1,0.1c-1,1.1-2,2-2.5,3.2l-0.1,0.2c0,0,0,0.1,0,0.1c0,0.1,0,0.2,0,0.4
			c0.1,0.3,0.1,0.7,0.2,1c0.1,0.7,0.4,1.3,0.6,2l0,0.1L16.9,57L16.9,57z"/>
	</g>
	<path class="st4" d="M102.4,84c-1.2-1.1-2.1-2.3-2.9-3.7c-0.4-0.7-0.7-1.4-1.1-2.1c-0.3-0.7-0.6-1.4-0.8-2.2L97,73.7
		c-0.1-0.8-0.2-1.5-0.4-2.3c-0.2-1.5-0.6-3-0.8-4.6c-0.5-3.1-0.4-6.3,0.4-9.4c0.3-1.5,1-3,1.6-4.4c0.3-0.7,0.8-1.4,1.1-2.1
		c0.4-0.7,0.8-1.3,1.3-2l0.1,0.1c-0.2,0.8-0.5,1.5-0.7,2.2c-0.2,0.7-0.6,1.4-0.7,2.2c-0.4,1.5-0.9,2.9-1.1,4.4
		c-0.4,1.5-0.6,2.9-0.8,4.4c-0.1,0.7-0.1,1.5-0.2,2.3l-0.1,1.1l0,1.1c-0.1,1.5,0.1,3.1,0.5,4.5c0.2,0.7,0.5,1.5,0.7,2.2l0.9,2.1
		c1.2,2.8,2.4,5.5,3.8,8.3L102.4,84z"/>
	<path class="st4" d="M86.6,94c-1.1-2.8-3.3-5-6-6.2c-1.3-0.6-2.7-1.1-4.2-1.4l-1.1-0.2l-1.1-0.1C73.5,86,72.8,86,72.1,86
		c-2.9,0.1-5.6,1.7-7.7,3.8c-2.2,2.1-3.9,4.6-6,6.9c-2,2.3-4.5,4.4-7.6,5.3c-1.6,0.4-3.2,0.5-4.8,0.4c-1.6-0.2-3.1-0.7-4.6-1.1
		c-2.9-1.1-5.7-2.9-7.5-5.6c-1.8-2.7-2.3-6-1.5-9l0.1,0c-0.3,3,0.6,6,2.3,8.3c1.8,2.3,4.4,3.8,7.1,4.8c1.4,0.4,2.8,0.9,4.2,1.1
		c1.4,0.2,2.9,0.2,4.2-0.2c2.8-0.7,5.2-2.5,7.4-4.5c2.2-2.1,4.1-4.4,6.2-6.6c1.1-1.1,2.2-2.2,3.5-3c1.3-0.9,2.8-1.5,4.5-1.7
		c0.8-0.1,1.6,0,2.4,0.1l1.2,0.1l1.2,0.2c0.8,0.1,1.5,0.4,2.3,0.6c0.4,0.1,0.7,0.3,1.1,0.5c0.4,0.1,0.7,0.3,1.1,0.5
		c2.8,1.5,5,4.1,5.6,7.2L86.6,94z"/>
</g>
</svg>
