<?xml version="1.0" encoding="utf-8"?>
<!-- Generator: Adobe Illustrator 22.0.0, SVG Export Plug-In . SVG Version: 6.00 Build 0)  -->
<svg version="1.1" id="Layer_1" xmlns="http://www.w3.org/2000/svg" xmlns:xlink="http://www.w3.org/1999/xlink" x="0px" y="0px"
	 viewBox="0 0 189.5 168.9" style="enable-background:new 0 0 189.5 168.9;" xml:space="preserve">
<style type="text/css">
	.st0{fill:#FF7D84;}
	.st1{fill:#1A2E35;}
	.st2{fill:#FFFFFF;}
	.st3{fill:#FC636B;}
	.st4{fill:#FF8086;}
	.st5{opacity:0.64;fill:#FE5356;}
	.st6{opacity:0.83;fill:#FE5356;}
	.st7{opacity:0.43;fill:#FE5356;}
</style>
<g>
	<path class="st0" d="M126.4,168.5L17.1,145.4c-8-1.7-13.1-9.5-11.4-17.5l14.9-70.2c0.6-2.6,3.2-4.3,5.8-3.8l128.7,27.3
		c2.6,0.6,4.3,3.2,3.8,5.8L144,157.1C142.3,165.1,134.4,170.2,126.4,168.5z"/>
	<path class="st1" d="M122.5,160.5l-29.1-6l-29.2-5.9c-9.7-1.9-19.4-4-29.2-6c-4.9-1-9.7-2-14.6-3.1l-7.3-1.6
		c-1.2-0.3-2.4-0.5-3.7-0.8c-1.2-0.4-2.5-0.9-3.5-1.6c-2.2-1.4-3.9-3.5-4.9-5.9c-1-2.4-1.4-5.1-0.9-7.6c1-4.9,2.1-9.7,3.2-14.6
		C5.5,97.7,7.6,88,9.7,78.3c2.1-9.7,4.1-19.4,6.1-29.1l1.5-7.3c0.3-1.2,0.5-2.4,0.9-3.7c0.4-1.2,1-2.3,1.7-3.4
		c1.5-2.1,3.6-3.7,5.9-4.6c1.2-0.5,2.4-0.7,3.7-0.9c1.3-0.1,2.6,0,3.8,0.2l58.3,12l29.1,6.1l14.6,3.1l7.3,1.5
		c1.2,0.3,2.4,0.5,3.7,0.8c1.3,0.4,2.5,0.9,3.6,1.6c2.2,1.4,4,3.5,5,5.9c1.1,2.4,1.4,5.1,1,7.7c-1,4.9-2,9.7-3.1,14.6l-6.4,29.1
		l-6.4,29.1l-1.6,7.3c-0.3,1.2-0.5,2.4-0.9,3.6c-0.4,1.2-1,2.3-1.7,3.3c-1.5,2-3.5,3.6-5.9,4.5c-1.2,0.5-2.4,0.7-3.6,0.8
		C125,160.8,123.8,160.7,122.5,160.5z M122.6,160.3c1.2,0.2,2.4,0.3,3.7,0.2c1.2-0.1,2.4-0.4,3.6-0.8c2.3-0.9,4.3-2.5,5.7-4.5
		c0.7-1,1.3-2.1,1.7-3.3c0.4-1.2,0.6-2.4,0.9-3.6l1.5-7.3l5.9-29.2l5.9-29.2l3-14.5c0.4-2.3,0.1-4.7-0.9-6.8c-0.9-2.1-2.5-4-4.5-5.2
		c-1-0.7-2.1-1.1-3.2-1.5c-1.1-0.3-2.4-0.5-3.6-0.8l-7.3-1.5l-14.6-3.1L91.4,43L33.2,30.4c-1.2-0.2-2.4-0.3-3.6-0.2
		c-1.2,0.1-2.4,0.3-3.5,0.8c-2.2,0.9-4.2,2.4-5.6,4.3c-0.7,1-1.3,2.1-1.7,3.2c-0.4,1.1-0.6,2.4-0.9,3.6l-1.6,7.3
		c-2.1,9.7-4.2,19.4-6.2,29.1c-2,9.7-4,19.4-6,29.1c-1,4.9-2,9.7-2.9,14.6c-0.4,2.3-0.1,4.8,0.9,7c1,2.2,2.6,4,4.6,5.3
		c1,0.7,2.1,1.1,3.2,1.5c1.1,0.3,2.4,0.5,3.6,0.8l7.3,1.5c4.9,1,9.7,2,14.6,3.1c9.7,2.1,19.4,4.2,29.1,6.3l29.1,6.4L122.6,160.3z"/>
	<g>
		<path class="st2" d="M63.2,96.8l-40.1-8.5c-2.5-0.5-4.1-3-3.6-5.5l4.6-21.6c0.5-2.5,3-4.1,5.5-3.6l40.1,8.5c2.5,0.5,4.1,3,3.6,5.5
			l-4.6,21.6C68.1,95.7,65.7,97.3,63.2,96.8z"/>
		<path class="st1" d="M63.2,96.9c-6.3-1.4-12.7-2.5-19-3.6c-6.4-1.1-12.7-2.5-19-3.9c-0.8-0.2-1.6-0.3-2.4-0.6
			c-0.9-0.2-1.7-0.7-2.3-1.4c-1.3-1.3-1.8-3.3-1.3-4.9c0.8-3.1,1.5-6.3,2.2-9.4c0.7-3.2,1.4-6.3,2-9.5l0.5-2.4
			c0.2-0.8,0.5-1.6,1.1-2.3c1.1-1.3,3-2,4.7-1.6c6.4,1.2,12.7,2.4,19,3.7c6.3,1.3,12.7,2.6,19,3.9c0.8,0.2,1.5,0.3,2.4,0.5
			c0.9,0.2,1.8,0.7,2.4,1.4c0.7,0.7,1.2,1.5,1.4,2.4c0.3,0.9,0.2,1.9,0,2.7c-0.7,3.1-1.4,6.3-2.2,9.4l-2.3,9.4
			c-0.2,0.8-0.4,1.6-0.6,2.4c-0.2,0.8-0.6,1.6-1.1,2.2C66.6,96.7,64.8,97.2,63.2,96.9z M63.2,96.7c1.6,0.3,3.3-0.3,4.3-1.5
			c1.1-1.2,1.1-2.9,1.5-4.5l1.7-9.5c0.6-3.2,1.2-6.4,1.8-9.5c0.3-1.4-0.1-2.8-1.1-3.8c-0.5-0.5-1.1-0.8-1.7-1
			c-0.7-0.2-1.6-0.3-2.3-0.5c-6.3-1.3-12.6-2.7-19-4.1c-6.3-1.4-12.6-2.8-18.9-4.3c-1.4-0.3-3.1,0.1-4.1,1.3c-0.5,0.5-0.9,1.2-1,2
			l-0.5,2.4c-0.7,3.2-1.4,6.3-2,9.5c-0.7,3.2-1.3,6.3-1.9,9.5c-0.4,1.5,0.1,3,1.2,4c0.5,0.5,1.2,0.8,1.9,1l2.4,0.5
			c6.3,1.3,12.7,2.6,18.9,4.2C50.6,93.8,56.9,95.4,63.2,96.7z"/>
	</g>
	<g>
		<path class="st2" d="M122,154.1l-51.7-10.9c-2.8-0.6-4.6-3.3-4-6.1l6.1-28.7c0.6-2.8,3.3-4.6,6.1-4l51.7,10.9
			c2.8,0.6,4.6,3.3,4,6.1l-6.1,28.7C127.5,152.9,124.8,154.7,122,154.1z"/>
		<path class="st1" d="M121.9,154.2c-8-1.7-16.1-3.2-24.1-4.7c-8.1-1.5-16.1-3.2-24.1-4.9l-3-0.7c-0.5-0.1-1.1-0.2-1.6-0.5
			c-0.5-0.2-1-0.5-1.4-0.9c-0.9-0.7-1.5-1.7-1.8-2.8c-0.1-0.5-0.2-1.1-0.2-1.7c0-0.6,0.1-1.1,0.3-1.6c0.9-4,1.8-8,2.7-12
			c0.9-4,1.7-8,2.5-12l0.6-3c0.1-0.5,0.2-1,0.3-1.5c0.2-0.5,0.4-1,0.7-1.5c1.2-1.9,3.5-2.9,5.7-2.4c8.1,1.6,16.1,3.2,24.1,4.8
			c8,1.6,16.1,3.3,24.1,5l3,0.6c0.5,0.1,1.1,0.2,1.6,0.5c0.5,0.2,1,0.5,1.5,0.9c0.9,0.8,1.6,1.8,1.9,2.9c0.2,0.6,0.2,1.2,0.2,1.7
			c0,0.6-0.2,1.2-0.3,1.7c-0.9,4-1.8,8-2.8,12l-2.8,12c-0.2,1-0.5,2-0.7,3c-0.1,0.5-0.2,1-0.4,1.5c-0.2,0.5-0.4,1-0.7,1.4
			C126.3,153.7,124,154.6,121.9,154.2z M122,154c2,0.4,4.2-0.5,5.2-2.2c0.3-0.4,0.5-0.9,0.6-1.4c0.1-0.5,0.2-1,0.3-1.5
			c0.2-1,0.4-2,0.6-3l2.3-12.1c0.7-4,1.5-8.1,2.3-12.1c0.1-0.5,0.2-0.9,0.2-1.4c0-0.4-0.1-0.9-0.2-1.3c-0.2-0.8-0.7-1.6-1.4-2.2
			c-0.3-0.3-0.7-0.5-1.1-0.7c-0.4-0.2-0.8-0.3-1.3-0.4l-3-0.6c-8-1.7-16-3.4-24.1-5.2c-8-1.7-16-3.5-24-5.4c-1.8-0.4-3.9,0.4-5,2
			c-0.3,0.4-0.5,0.8-0.6,1.3c-0.1,0.4-0.2,1-0.4,1.5l-0.7,3c-0.9,4-1.8,8-2.6,12c-0.8,4-1.6,8-2.4,12.1c-0.1,0.5-0.2,1-0.2,1.4
			c0,0.5,0.1,0.9,0.2,1.4c0.3,0.9,0.8,1.7,1.5,2.3c0.4,0.3,0.8,0.5,1.2,0.7c0.4,0.2,0.9,0.3,1.4,0.4l3,0.6c8,1.6,16.1,3.3,24,5.2
			C106,150.4,114,152.3,122,154z"/>
	</g>
	<path class="st1" d="M142,73.8c-5.3-0.9-10.5-2-15.8-3l-15.7-3.1c-10.5-2.1-20.9-4.3-31.4-6.5c-10.4-2.3-20.9-4.5-31.3-6.8
		l-15.6-3.5c-5.2-1.2-10.4-2.4-15.6-3.7c5.3,0.9,10.5,2,15.8,3L48,53.3c10.5,2.1,20.9,4.3,31.4,6.5c10.4,2.3,20.9,4.5,31.3,6.8
		l15.6,3.5C131.6,71.3,136.8,72.5,142,73.8z"/>
	<g>
		<circle class="st2" cx="31.7" cy="40.7" r="3.2"/>
		<path d="M34.8,41.4c-0.2,0.8-0.5,1.7-1.2,2.4c-0.7,0.7-1.8,1-2.8,0.7c-1-0.3-1.6-1.1-2.1-1.8c-0.4-0.8-0.7-1.6-0.6-2.6
			c0-0.9,0.5-1.9,1.4-2.5c0.8-0.6,1.9-0.9,2.9-0.6c1,0.2,1.9,0.9,2.2,1.9C35.1,39.7,35,40.6,34.8,41.4z M34.7,41.4
			c0.2-0.8-0.2-1.6-0.8-2.1c-0.6-0.5-1.1-0.7-1.7-0.9c-0.6-0.1-1.2,0-1.8,0.3c-0.6,0.3-1.1,0.8-1.3,1.5c-0.3,0.7-0.2,1.5,0.2,2.2
			c0.5,0.6,1.3,0.9,1.9,0.9c0.7,0,1.3,0,2-0.2C33.8,42.8,34.5,42.2,34.7,41.4z"/>
	</g>
	<g>
		<circle class="st2" cx="42.6" cy="43" r="3.2"/>
		<path d="M45.7,43.7c-0.2,0.8-0.5,1.7-1.2,2.4c-0.7,0.7-1.8,1-2.8,0.7c-1-0.3-1.6-1.1-2.1-1.8c-0.4-0.8-0.7-1.6-0.6-2.6
			c0-0.9,0.5-1.9,1.4-2.5c0.8-0.6,1.9-0.9,2.9-0.6c1,0.2,1.9,0.9,2.2,1.9C46,42,45.9,42.9,45.7,43.7z M45.6,43.7
			c0.2-0.8-0.2-1.6-0.8-2.1c-0.6-0.5-1.1-0.7-1.7-0.9c-0.6-0.1-1.2,0-1.8,0.3c-0.6,0.3-1.1,0.8-1.3,1.5c-0.3,0.7-0.2,1.5,0.2,2.2
			c0.5,0.6,1.3,0.9,1.9,0.9c0.7,0,1.3,0,2-0.2C44.7,45.1,45.5,44.5,45.6,43.7z"/>
	</g>
	<g>
		<circle class="st2" cx="53.6" cy="45.4" r="3.2"/>
		<path d="M56.8,46c-0.2,0.8-0.5,1.7-1.2,2.4c-0.7,0.7-1.8,1-2.8,0.7c-1-0.3-1.6-1.1-2.1-1.8c-0.4-0.8-0.7-1.6-0.6-2.6
			c0-0.9,0.5-1.9,1.4-2.5c0.8-0.6,1.9-0.9,2.9-0.6c1,0.2,1.9,0.9,2.2,1.9C57,44.3,56.9,45.2,56.8,46z M56.6,46
			c0.2-0.8-0.2-1.6-0.8-2.1c-0.6-0.5-1.1-0.7-1.7-0.9c-0.6-0.1-1.2,0-1.8,0.3c-0.6,0.3-1.1,0.8-1.3,1.5c-0.3,0.7-0.2,1.5,0.2,2.2
			c0.5,0.6,1.3,0.9,1.9,0.9c0.7,0,1.3,0,2-0.2C55.7,47.4,56.5,46.8,56.6,46z"/>
	</g>
	<g>
		<circle class="st2" cx="145.5" cy="68" r="28.1"/>
		<path d="M151.3,40.6c-3.6-0.7-7.3-0.8-10.9,0c-3.6,0.8-7,2.2-10,4.3c-6,4.1-10.3,10.4-11.8,17.5c-1.6,7-0.4,14.8,3.6,20.9
			c3.9,6.2,10.5,10.6,17.6,11.9c7.1,1.4,14.7-0.2,20.7-4.1c6-4,10.3-10.3,11.8-17.3c1.5-7,0.2-14.6-3.6-20.7c-1.9-3.1-4.4-5.8-7.4-8
			C158.3,42.9,154.9,41.4,151.3,40.6z M151.3,40.4c7.2,1.5,13.9,5.8,18.2,12c2.1,3.1,3.6,6.6,4.4,10.3c0.8,3.7,0.7,7.6-0.1,11.3
			c-0.8,3.7-2.3,7.3-4.4,10.4c-2.2,3.1-4.9,5.8-8.1,7.8c-6.3,4.1-14.4,5.5-21.6,3.8c-3.6-0.8-7.1-2.4-10.2-4.5
			c-3.1-2.1-5.7-4.8-7.7-7.9c-2-3.1-3.5-6.6-4.3-10.3c-0.8-3.7-0.8-7.5-0.1-11.2c0.8-3.7,2.2-7.3,4.4-10.3c2.2-3.1,4.9-5.7,8.1-7.7
			C136.3,40.1,144.1,38.9,151.3,40.4z"/>
	</g>
	<path class="st1" d="M157.3,63.4c-0.2,0.6-0.5,1.1-1,1.5c-0.5,0.4-0.9,0.8-1.4,1.1c-0.9,0.7-1.9,1.4-2.9,2
		c-1.9,1.3-3.9,2.6-5.9,3.9c-2,1.2-4.1,2.3-6.1,3.5l-0.4,0.2c-0.1,0.1-0.2,0.2-0.4,0.2c-0.1,0-0.2,0.1-0.3,0.1l-0.2,0l-0.4,0
		l-1.7,0.2l-1.7,0.2l-0.9,0.1c-0.3,0.1-0.8,0.1-1.1-0.4c-0.3-0.4-0.1-0.9,0.1-1.1l0.4-0.8l0.8-1.6l0.8-1.6l0.2-0.4
		c0.1-0.2,0.2-0.3,0.3-0.5c0.1-0.1,0.3-0.3,0.4-0.4l0.4-0.3c1.9-1.3,3.9-2.6,5.8-3.9c1.9-1.3,3.9-2.5,5.9-3.8l3-1.8
		c0.5-0.3,1-0.6,1.6-0.9c0.6-0.3,1.3-0.4,1.9-0.3l0.1,0l0,0l0.6,0.2l0.4,0.5c0,0,0,0,0-0.1c0,0,0-0.2-0.3-0.3
		c-0.3,0-0.3,0.1-0.3,0.1c0,0,0,0,0,0c0,0,0.1,0,0.2,0c0,0,0.1,0,0.2,0l0,0l0.1,0l0.1,0.1c0.1,0.1,0.2,0.1,0.3,0.2
		c0.2,0.1,0.3,0.2,0.5,0.4c0.3,0.3,0.5,0.6,0.7,0.9c0.2,0.3,0.3,0.7,0.4,1.1c0.1,0.4,0.1,0.8,0.1,1.1l0,0L157.3,63.4z M157.2,63.4
		c0,0,0-0.1,0-0.1l0-0.2l0-0.3l0,0c0-0.7-0.3-1.3-0.7-1.9c-0.2-0.3-0.4-0.5-0.7-0.7c-0.1-0.1-0.3-0.2-0.4-0.2
		c-0.1,0-0.1-0.1-0.2-0.1l-0.1,0l-0.1,0c0,0,0,0,0,0c0.1,0,0.1,0,0.2,0c0.1,0,0.1,0,0.2,0c0,0,0.1,0,0,0c0,0,0,0.1-0.3,0.1
		c-0.3-0.1-0.3-0.3-0.3-0.3c0-0.2,0-0.1,0-0.2l0.4,0.5l-0.7-0.1l0.1,0c-1,0-1.9,0.6-2.8,1.3l-2.9,2c-1.9,1.3-3.9,2.6-5.9,3.8
		c-2,1.2-4,2.5-6,3.6c-0.6,0.3-0.6,0.4-1,1l-0.9,1.5l-0.9,1.5l-0.5,0.8c-0.2,0.3-0.2,0.4-0.2,0.5c0.1,0.3,0.8,0.1,1.4,0.1l1.7-0.2
		l1.7-0.2l0.4-0.1l0.2,0c0,0,0.1,0,0.1,0c0.1,0,0.2-0.1,0.3-0.2l0.4-0.3c1.9-1.4,3.8-2.8,5.7-4.1c2-1.3,4-2.5,6-3.7
		c1-0.6,2-1.2,3.1-1.7c0.5-0.3,1.1-0.5,1.5-0.8C156.5,64.3,156.9,63.9,157.2,63.4z"/>
	<path class="st1" d="M79.3,80.2c6.3,0.7,12.6,1.9,18.8,3.2c6.2,1.3,12.4,2.8,18.5,4.7c-6.3-0.7-12.6-1.9-18.8-3.2
		C91.6,83.6,85.4,82.1,79.3,80.2z"/>
	<path class="st1" d="M77.8,87.4c1.6,0,3.2,0.2,4.8,0.4c1.6,0.2,3.1,0.5,4.7,0.8c1.5,0.3,3.1,0.7,4.6,1.1c1.5,0.4,3,0.9,4.5,1.6
		c-1.6,0-3.2-0.2-4.8-0.4c-1.6-0.2-3.1-0.5-4.7-0.8c-1.5-0.3-3.1-0.7-4.6-1.1C80.8,88.6,79.3,88.1,77.8,87.4z"/>
	<path class="st1" d="M20.9,105.5c6.3,0.7,12.6,1.9,18.8,3.2c6.2,1.3,12.4,2.8,18.5,4.7c-6.3-0.7-12.6-1.9-18.8-3.2
		C33.2,108.8,27,107.4,20.9,105.5z"/>
	<path class="st1" d="M19.4,112.7c1.6,0,3.2,0.2,4.8,0.4c1.6,0.2,3.1,0.5,4.7,0.8c1.5,0.3,3.1,0.7,4.6,1.1c1.5,0.4,3,0.9,4.5,1.6
		c-1.6,0-3.2-0.2-4.8-0.4c-1.6-0.2-3.1-0.5-4.7-0.8c-1.5-0.3-3.1-0.7-4.6-1.1C22.4,113.8,20.9,113.4,19.4,112.7z"/>
	<g>
		<polygon class="st3" points="42.6,82.9 51.4,75.5 55.9,85.7 		"/>
		<polygon class="st4" points="30.8,80.4 42.9,70.1 49.3,84.3 		"/>
		<circle class="st3" cx="59.9" cy="75.5" r="1.8"/>
	</g>
	<g>
		<polygon class="st3" points="96.5,134.9 105.2,127.5 109.8,137.7 		"/>
		<polygon class="st4" points="84.6,132.3 96.8,122.1 103.1,136.3 		"/>
		<circle class="st3" cx="113.7" cy="127.5" r="1.8"/>
	</g>
	<path class="st5" d="M26.2,0.6l0.3-0.3c0.8-0.8,2.2,0.1,1.7,1.2l-0.2,0.4c-1.4,3.5-0.6,7.5,2,10.3l0.3,0.3c0.8,0.8-0.1,2.2-1.2,1.7
		l-0.4-0.2c-3.5-1.4-7.5-0.6-10.3,2l-0.3,0.3c-0.8,0.8-2.2-0.1-1.7-1.2l0.2-0.4c1.4-3.5,0.6-7.5-2-10.3l-0.3-0.3
		c-0.8-0.8,0.1-2.2,1.2-1.7l0.4,0.2C19.4,4,23.4,3.2,26.2,0.6z"/>
	<path class="st6" d="M137.6,24.8l0.2,0.2c0.5,0.5-0.1,1.3-0.7,1l-0.3-0.1c-2.1-0.9-4.4-0.5-6.1,1l-0.2,0.2c-0.5,0.5-1.3-0.1-1-0.7
		l0.1-0.3c0.9-2.1,0.5-4.4-1-6.1l-0.2-0.2c-0.5-0.5,0.1-1.3,0.7-1l0.3,0.1c2.1,0.9,4.4,0.5,6.1-1l0.2-0.2c0.5-0.5,1.3,0.1,1,0.7
		l-0.1,0.3C135.7,20.8,136.1,23.1,137.6,24.8z"/>
	<path class="st7" d="M187.7,153.5l0.5,0c1.3,0,1.7,1.8,0.5,2.3l-0.5,0.2c-3.8,1.8-6.3,5.7-6.3,9.9l0,0.5c0,1.3-1.8,1.7-2.3,0.5
		l-0.2-0.5c-1.8-3.8-5.7-6.3-9.9-6.3l-0.5,0c-1.3,0-1.7-1.8-0.5-2.3l0.5-0.2c3.8-1.8,6.3-5.7,6.3-9.9l0-0.5c0-1.3,1.8-1.7,2.3-0.5
		l0.2,0.5C179.6,151,183.5,153.5,187.7,153.5z"/>
</g>
</svg>
