<?xml version="1.0" encoding="utf-8"?>
<!-- Generator: Adobe Illustrator 22.0.0, SVG Export Plug-In . SVG Version: 6.00 Build 0)  -->
<svg version="1.1" id="Layer_1" xmlns="http://www.w3.org/2000/svg" xmlns:xlink="http://www.w3.org/1999/xlink" x="0px" y="0px"
	 viewBox="0 0 151.9 154.9" style="enable-background:new 0 0 151.9 154.9;" xml:space="preserve">
<style type="text/css">
	.st0{opacity:0.72;fill:#FE5356;}
	.st1{opacity:0.53;fill:#FE5356;}
	.st2{fill:#FAFAFA;}
	.st3{fill:#263238;}
	.st4{fill:#FF7D84;}
	.st5{fill:#1A2E35;}
	.st6{fill:#FFFFFF;}
	.st7{opacity:0.19;fill:#FE5356;}
</style>
<g>
	<path class="st0" d="M63.1,35.4l0.2,0.2c0.5,0.5-0.1,1.3-0.7,1l-0.3-0.1c-2.1-0.9-4.6-0.5-6.3,1.1l-0.2,0.2c-0.5,0.5-1.3-0.1-1-0.7
		l0.1-0.3c0.9-2.1,0.5-4.6-1.1-6.3l-0.2-0.2c-0.5-0.5,0.1-1.3,0.7-1l0.3,0.1c2.1,0.9,4.6,0.5,6.3-1.1l0.2-0.2c0.5-0.5,1.3,0.1,1,0.7
		L62,29.1C61.2,31.2,61.6,33.7,63.1,35.4z"/>
	<path class="st1" d="M140.6,73.9l0.2,0.2c0.5,0.5-0.1,1.3-0.7,1l-0.3-0.1c-2.1-0.9-4.6-0.5-6.3,1.1l-0.2,0.2
		c-0.5,0.5-1.3-0.1-1-0.7l0.1-0.3c0.9-2.1,0.5-4.6-1.1-6.3l-0.2-0.2c-0.5-0.5,0.1-1.3,0.7-1l0.3,0.1c2.1,0.9,4.6,0.5,6.3-1.1
		l0.2-0.2c0.5-0.5,1.3,0.1,1,0.7l-0.1,0.3C138.6,69.7,139.1,72.2,140.6,73.9z"/>
	<g>
		<path class="st2" d="M49.2,120.3L12,129.9c-1.7,0.4-3.5-0.6-3.9-2.3L0.1,96.8c-0.4-1.7,0.6-3.5,2.3-3.9l37.2-9.6
			c1.7-0.4,3.5,0.6,3.9,2.3l7.9,30.8C51.9,118.1,50.9,119.9,49.2,120.3z"/>
		<path class="st3" d="M2.8,92.9c-1.6,0.4-2.8,2-2.6,3.7c0.1,0.8,0.4,1.6,0.6,2.4l0.7,2.4l2.8,9.6c0.9,3.2,1.8,6.4,2.7,9.6
			c0.4,1.6,0.9,3.2,1.3,4.8c0.2,0.8,0.4,1.7,0.6,2.3c0.3,0.6,0.8,1.1,1.5,1.4c0.6,0.3,1.3,0.3,2.1,0.1l2.4-0.6l4.9-1.1
			c3.2-0.8,6.5-1.5,9.7-2.3c6.5-1.6,12.9-3.4,19.3-5.1c1.4-0.4,2.4-1.9,2.3-3.3c0-0.2-0.1-0.4-0.1-0.5l-0.2-0.6l-0.3-1.2l-0.7-2.4
			l-2.6-9.7l-2.6-9.7l-1.3-4.8c-0.2-0.8-0.4-1.7-0.6-2.2c-0.3-0.6-0.8-1.1-1.4-1.3c-0.6-0.3-1.3-0.3-2-0.1l-2.4,0.6
			c-1.6,0.4-3.2,0.8-4.9,1.2c-3.2,0.8-6.5,1.6-9.7,2.3l-9.8,2.2C9.3,91.2,6,92.1,2.8,92.9z M2.8,92.7c3.2-0.9,6.4-1.7,9.7-2.6
			l9.6-2.8c3.2-0.9,6.4-1.8,9.6-2.7c1.6-0.5,3.2-0.9,4.8-1.3l2.4-0.6c0.9-0.3,2-0.2,2.9,0.2c0.9,0.4,1.7,1.1,2.2,2
			c0.2,0.5,0.4,1,0.5,1.3l0.3,1.2l1.2,4.8l2.4,9.7l2.4,9.7l0.6,2.4l0.3,1.2l0.1,0.6c0,0.2,0.1,0.5,0.1,0.7c0.1,1-0.2,1.9-0.8,2.7
			c-0.6,0.8-1.4,1.3-2.3,1.5c-6.5,1.5-13,3.1-19.4,4.8c-3.2,0.8-6.4,1.7-9.6,2.7l-4.8,1.4l-2.4,0.7c-0.9,0.3-1.9,0.3-2.8-0.1
			c-0.9-0.4-1.7-1.1-2.1-1.9c-0.2-0.4-0.4-0.9-0.5-1.3l-0.3-1.2c-0.4-1.6-0.9-3.2-1.2-4.8c-0.8-3.2-1.6-6.5-2.3-9.7l-2.2-9.8
			c-0.3-1.6-0.8-3.2-1.1-4.9c-0.1-0.9,0.2-1.7,0.7-2.4C1.2,93.4,1.9,92.9,2.8,92.7z"/>
		<path class="st3" d="M9.3,113.3c0.9-0.5,1.9-0.9,2.8-1.2c1-0.3,1.9-0.6,2.9-0.8c1-0.2,2-0.2,3-0.4c1-0.2,2-0.5,2.9-0.9
			c0.9-0.4,1.9-0.8,2.9-1c1-0.3,1.9-0.6,2.9-0.8c2-0.4,4-0.8,6.1-0.8l0,0.1c-1.8,1-3.8,1.6-5.7,2.2c-1,0.3-2,0.5-3,0.7
			c-1,0.2-2,0.4-3,0.5c-1,0.1-2,0.3-3,0.6c-1,0.3-1.9,0.8-2.9,1.1c-1,0.3-2,0.5-3,0.7c-1,0.2-2,0.3-3.1,0.3L9.3,113.3z"/>
		<path class="st3" d="M10.2,117.1c0.9-0.6,1.9-1,2.9-1.4c1-0.4,2-0.7,3-0.9c1-0.3,2-0.5,3.1-0.6c1-0.2,2.1-0.3,3.2-0.2
			c-0.9,0.6-1.9,1-2.9,1.4c-1,0.4-2,0.7-3,0.9c-1,0.3-2,0.5-3.1,0.6C12.4,117,11.3,117.1,10.2,117.1z"/>
		<g>
			<path class="st4" d="M65.1,152.4l-9.7,2.3c-2.9,0.7-5.7-1.1-6.4-4L42.1,121c-0.7-2.9,1.1-5.7,4-6.4l9.7-2.3
				c2.9-0.7,5.7,1.1,6.4,4l6.9,29.8C69.7,148.9,67.9,151.8,65.1,152.4z"/>
		</g>
		<g>
			<path class="st4" d="M93.6,145.7l-9.7,2.3c-2.9,0.7-5.7-1.1-6.4-4l-10.2-43.9c-0.7-2.9,1.1-5.7,4-6.4l9.7-2.3
				c2.9-0.7,5.7,1.1,6.4,4l10.2,43.9C98.2,142.2,96.5,145,93.6,145.7z"/>
		</g>
		<g>
			<path class="st4" d="M122.8,138.9l-9.7,2.3c-2.9,0.7-5.7-1.1-6.4-4L92.6,76.6c-0.7-2.9,1.1-5.7,4-6.4l9.7-2.3
				c2.9-0.7,5.7,1.1,6.4,4l14.1,60.6C127.5,135.3,125.7,138.2,122.8,138.9z"/>
		</g>
		<g>
			<path class="st5" d="M61.1,149.7c-2.3,0.6-4.6,1.1-6.9,1.7l-1.7,0.5c-0.6,0.1-1.1,0.3-1.8,0.4c-1.2,0.2-2.5-0.1-3.6-0.8
				c-1.1-0.7-1.9-1.7-2.4-3c-0.4-1.2-0.6-2.3-1-3.5c-0.6-2.3-1.1-4.6-1.7-7c-1-4.7-1.9-9.3-2.9-14l-0.8-3.5l-0.4-1.7
				c-0.1-0.6-0.3-1.2-0.3-1.8c-0.1-2.5,1.7-5,4.3-5.6l6.9-1.8l1.7-0.4l0.9-0.2c0.3-0.1,0.6-0.2,1-0.2c1.3-0.2,2.7,0.2,3.8,0.9
				c1.1,0.7,2,1.9,2.4,3.2c0.4,1.3,0.6,2.3,0.9,3.5c0.6,2.3,1.1,4.6,1.6,7c1.1,4.6,2.1,9.3,2.9,14l0.7,3.5l0.3,1.8
				c0.1,0.6,0.2,1.2,0.2,1.8C65.4,146.9,63.5,149.1,61.1,149.7z M61.1,149.5c1.1-0.3,2.2-0.9,2.9-1.9c0.7-0.9,1.1-2.1,1-3.3
				c0-0.6-0.2-1.1-0.3-1.7l-0.5-1.7l-1-3.4c-1.3-4.6-2.5-9.2-3.6-13.8c-0.5-2.3-1.1-4.6-1.6-7c-0.3-1.1-0.5-2.4-0.8-3.4
				c-0.3-1-0.9-1.9-1.8-2.4c-0.9-0.6-1.9-0.9-2.9-0.8c-0.3,0-0.5,0.1-0.8,0.1l-0.9,0.2l-1.7,0.4l-7,1.4c-1.1,0.2-2.1,0.8-2.8,1.7
				c-0.7,0.9-1.1,2-1.1,3.1c0,0.6,0.1,1.1,0.3,1.7l0.4,1.7l0.9,3.5c1.2,4.6,2.5,9.2,3.6,13.8c0.6,2.3,1.1,4.6,1.6,7
				c0.3,1.1,0.5,2.4,0.7,3.5c0.3,1,0.9,2,1.8,2.6c0.9,0.6,2,1,3.2,0.9c0.6,0,1.1-0.2,1.7-0.3l1.8-0.4
				C56.4,150.6,58.8,150.1,61.1,149.5z"/>
		</g>
		<path class="st6" d="M89.9,34.5l4.8-1.1l8,33.2l-4.8,1.1L89.9,34.5z"/>
		<path class="st5" d="M88,33.7l2.3-0.7c0.8-0.3,1.6-0.5,2.4-0.8l0.4-0.1l0.1,0.4c0.8,2.7,1.6,5.5,2.2,8.2c0.7,2.8,1.4,5.5,1.9,8.3
			c0.6,2.8,1,5.6,1.7,8.4c0.6,2.8,1.4,5.5,2.2,8.3l0.1,0.4l-0.4,0.1l-4.7,1.3l-0.5,0.1l-0.2-0.5c-0.8-2.8-1.5-5.6-2.2-8.4
			c-0.7-2.8-1.4-5.6-2-8.4c-0.6-2.8-1.2-5.6-1.8-8.4C89,39.1,88.5,36.4,88,33.7z M88.2,33.8c0.9,2.9,1.7,5.7,2.5,8.5
			c0.7,2.8,1.5,5.5,2.2,8.2c0.7,2.7,1.4,5.4,2,8.1c0.6,2.7,1.2,5.4,1.8,8.2L96,66.4l4.8-1l-0.3,0.5c-0.6-2.8-1.1-5.6-1.8-8.3
			c-0.7-2.8-1.5-5.5-2.3-8.2c-0.8-2.7-1.5-5.5-2.1-8.3c-0.6-2.8-1.2-5.6-1.7-8.4L93,33c-0.8,0.2-1.5,0.3-2.3,0.4L88.2,33.8z"/>
		<g>
			<path class="st5" d="M89.7,142.9c-2.9,0.7-5.8,1.4-8.7,2.1c-0.7,0.2-1.5,0.4-2.2,0.4c-0.8,0-1.6-0.1-2.3-0.4
				c-1.4-0.6-2.6-1.9-3.1-3.4c-1.6-5.8-3.1-11.6-4.4-17.4c-1.3-5.8-2.4-11.7-3.7-17.5c-0.6-2.9-1.3-5.8-2-8.7
				c-0.2-0.7-0.4-1.5-0.3-2.3c0.1-0.8,0.3-1.6,0.6-2.3c0.7-1.4,2.1-2.5,3.6-2.9l8.7-2.2c0.4-0.1,0.7-0.2,1.1-0.3
				c0.4-0.1,0.8-0.1,1.2-0.1c0.8,0,1.7,0.2,2.4,0.5c1.5,0.7,2.8,2,3.3,3.6c1.5,5.9,2.8,11.6,4.2,17.5c1.3,5.8,2.6,11.6,3.7,17.5
				l1.8,8.8c0.2,0.7,0.3,1.5,0.2,2.3c-0.1,0.8-0.3,1.5-0.7,2.2C92.5,141.6,91.2,142.6,89.7,142.9z M89.6,142.8
				c1.4-0.3,2.7-1.3,3.4-2.6c0.7-1.3,0.8-2.8,0.3-4.3l-2.3-8.7c-1.6-5.8-3-11.6-4.4-17.4l-2-8.7l-2-8.7c-0.4-1.2-1.3-2.3-2.5-2.9
				c-0.6-0.3-1.2-0.4-1.9-0.5c-0.3,0-0.7,0-1,0.1c-0.3,0.1-0.7,0.2-1.1,0.2l-8.8,1.9c-1.4,0.3-2.6,1.2-3.3,2.4
				c-0.4,0.6-0.6,1.3-0.6,2c-0.1,0.7,0.1,1.4,0.2,2.1c0.6,2.9,1.3,5.8,2,8.7c1.4,5.8,3,11.6,4.5,17.4c1.4,5.8,2.6,11.7,3.8,17.5
				c0.4,1.3,1.3,2.5,2.6,3.1c0.6,0.3,1.3,0.5,2.1,0.5c0.7,0,1.4-0.1,2.2-0.3C83.8,144.1,86.7,143.5,89.6,142.8z"/>
		</g>
		<g>
			<path class="st5" d="M118.9,136.1l-5.4,1.3l-2.7,0.7c-0.9,0.2-1.8,0.5-2.7,0.5c-1.9,0.1-3.8-1-4.8-2.6c-0.5-0.8-0.7-1.8-1-2.7
				l-0.7-2.7c-0.9-3.6-1.9-7.2-2.7-10.8l-1.3-5.4l-1.2-5.4c-1.6-7.2-3.1-14.5-4.7-21.7c-0.8-3.6-1.6-7.2-2.5-10.8l-0.6-2.7
				c-0.2-0.9-0.2-2,0.1-2.9c0.5-1.9,2.1-3.4,4.1-3.9l5.4-1.4l2.7-0.7l1.3-0.3c0.4-0.1,1-0.2,1.5-0.2c2.1-0.1,4.1,1.1,5.2,2.8
				c0.3,0.5,0.5,0.9,0.6,1.4c0.1,0.5,0.2,0.9,0.3,1.4l0.6,2.7c1.7,7.2,3.5,14.4,5.1,21.6c1.7,7.2,3.3,14.4,4.7,21.7l2.2,10.9
				l0.6,2.7c0.2,0.9,0.2,1.9-0.1,2.8C122.3,134.2,120.7,135.7,118.9,136.1z M118.9,135.9c1.8-0.4,3.3-1.8,3.8-3.6
				c0.6-1.8-0.2-3.6-0.6-5.4l-2.8-10.7c-1.9-7.2-3.7-14.3-5.3-21.6c-1.7-7.2-3.4-14.4-5-21.6l-0.6-2.7c-0.1-0.4-0.2-0.9-0.3-1.3
				c-0.1-0.4-0.3-0.8-0.5-1.1c-0.8-1.4-2.4-2.4-4.1-2.3c-0.4,0-0.8,0.1-1.2,0.2l-1.4,0.3l-2.7,0.6l-5.4,1.2
				c-1.7,0.4-3.1,1.7-3.7,3.3c-0.3,0.8-0.3,1.7-0.1,2.6l0.6,2.7c0.8,3.6,1.7,7.2,2.5,10.8c1.7,7.2,3.7,14.3,5.4,21.5l1.3,5.4
				l1.2,5.4c0.8,3.6,1.6,7.2,2.3,10.9l0.6,2.7c0.2,0.9,0.3,1.8,0.8,2.6c0.9,1.5,2.6,2.6,4.4,2.6c0.9,0,1.8-0.3,2.7-0.5l2.7-0.6
				L118.9,135.9z"/>
		</g>
		<path class="st4" d="M151.3,34.8l-37.1,8.9c-1.5,0.1-2.8-0.7-3.4-2.1l-5.3-21.9l39.8-9.6c0.8-0.1,1.1,0.2,0.9,1.1l-5.7,13l11,9
			C152,33.7,152,34.6,151.3,34.8L151.3,34.8z"/>
		<path class="st5" d="M148.5,33.1c-3.1,0.8-6.2,1.5-9.2,2.4L130,38c-6.1,1.7-12.3,3.1-18.6,4.5l0,0l0,0c-0.8,0.1-1.7-0.2-2.3-0.6
			c-0.7-0.4-1.2-1.1-1.5-1.9l0,0l0,0c-0.8-3.7-1.6-7.3-2.4-11c-0.4-1.8-0.9-3.6-1.3-5.5c-0.5-1.8-0.9-3.6-1.4-5.5l-0.1-0.3l0.3-0.1
			l10.4-2.7l10.4-2.6l10.4-2.6l5.2-1.3l2.6-0.6l0.7-0.2c0.1,0,0.3-0.1,0.4-0.1c0.2,0,0.3,0,0.6,0c0.2,0,0.5,0.2,0.7,0.4
			c0.2,0.2,0.3,0.5,0.3,0.7c0.1,0.4,0,0.7,0,1l0,0.1l0,0.1c-1.9,4.3-3.9,8.6-5.9,12.9l-0.1-0.5l6,5.3l3,2.6l1.5,1.3
			c0.3,0.2,0.5,0.6,0.4,0.9C149.1,32.7,148.8,33.1,148.5,33.1z M148.4,33c0.6-0.1,0.7-1.1,0.1-1.4l-1.6-1.3l-3.1-2.5l-6.3-4.9
			l-0.3-0.2l0.1-0.3c1.7-4.4,3.5-8.8,5.4-13.2l0,0.1c0-0.2,0-0.3,0-0.4c0,0,0,0,0,0.1c0,0.1,0.1,0.1,0.1,0.1c0,0,0,0-0.1,0
			c-0.1,0-0.1,0-0.2,0l-0.6,0.2l-2.6,0.6l-5.2,1.2l-10.4,2.4L113.2,16l-10.5,2.3l0.2-0.4c0.4,1.8,0.8,3.7,1.2,5.5
			c0.4,1.8,0.8,3.7,1.3,5.5c0.9,3.7,1.9,7.3,2.8,10.9l0-0.1c0.5,1.2,1.7,1.9,2.9,1.7l-0.1,0c6.1-1.7,12.3-3.2,18.6-4.5l9.3-1.9
			C142.2,34.4,145.3,33.7,148.4,33z"/>
		<path class="st4" d="M128.8,27.2l-35,8.4c-1.5,0.1-2.8-0.7-3.4-2.1l-4.6-19.2c-0.1-1.5,0.7-2.9,2.1-3.4l35-8.4
			c1.5-0.1,2.8,0.7,3.4,2.1l4.6,19.2C131,25.2,130.2,26.6,128.8,27.2z"/>
		<path class="st5" d="M126,25.5c-2.9,0.7-5.8,1.4-8.7,2.3l-8.7,2.4c-5.8,1.6-11.6,3-17.5,4.2l0,0l0,0c-0.8,0.1-1.7-0.2-2.3-0.6
			c-0.7-0.4-1.2-1.1-1.5-1.8l0,0l0,0c-0.7-3.2-1.4-6.4-2.1-9.6c-0.4-1.6-0.8-3.2-1.2-4.8c-0.4-1.6-0.8-3.2-1.2-4.8l0,0l0,0
			c-0.1-0.8,0.1-1.6,0.5-2.3c0.4-0.7,1-1.2,1.8-1.5l0,0l0,0c5.8-1.6,11.6-3.1,17.4-4.5l8.7-2.2c2.9-0.7,5.8-1.4,8.8-2.1l0.1,0l0,0
			c0.9-0.1,1.8,0.1,2.5,0.6c0.7,0.5,1.3,1.2,1.6,2l0,0.1l0,0c1.4,6.4,2.6,12.9,4,19.3l0,0l0,0c0.1,0.7-0.1,1.5-0.5,2.1
			C127.3,24.7,126.7,25.2,126,25.5z M126,25.3c0.6-0.3,1.2-0.7,1.5-1.3c0.4-0.6,0.5-1.3,0.4-2l0,0c-1.6-6.4-3.6-12.7-5.2-19l0,0.1
			c-0.4-1-1.6-1.7-2.6-1.6l0.1,0c-2.9,0.7-5.8,1.4-8.7,2.1l-8.8,2c-5.8,1.4-11.7,2.7-17.6,3.9l0.1,0c-1.2,0.4-2,1.7-1.9,3l0,0
			c0.3,1.6,0.7,3.2,1.1,4.8c0.4,1.6,0.7,3.2,1.1,4.8c0.8,3.2,1.6,6.4,2.5,9.5l0-0.1c0.5,1.2,1.8,1.9,3,1.7l-0.1,0
			c5.8-1.6,11.6-3,17.5-4.2l8.8-1.8C120.1,26.7,123.1,26,126,25.3z"/>
		<path class="st3" d="M16.7,96.8l5.3-0.9c0.2,0,0.4,0.1,0.4,0.3c0,0.1,0,0.2,0,0.2l0,0l-2.5,4.8l0-0.6l2.1,5l0,0
			c0.1,0.2,0,0.5-0.2,0.6c-0.1,0-0.2,0-0.3,0l-5.2-1.4l0.2-0.1l-3.8,3.8c-0.2,0.2-0.5,0.2-0.6,0c-0.1-0.1-0.1-0.2-0.1-0.3l0,0
			l-0.7-5.4l0.3,0.5l-4.7-2.6c-0.3-0.2-0.5-0.6-0.3-1c0.1-0.1,0.2-0.2,0.3-0.3l0,0l5-2.2l-0.4,0.5l1.4-5.2l0-0.1
			c0.1-0.2,0.3-0.3,0.5-0.3c0.1,0,0.2,0.1,0.2,0.1L16.7,96.8z M16.7,96.9L12.8,93l0.7-0.2l-0.7,5.4c0,0.2-0.2,0.4-0.4,0.5l0,0
			l-5,2.1l0.1-1.3l4.7,2.7l0,0c0.2,0.1,0.3,0.3,0.3,0.5l0.3,5.4l-0.8-0.3l4.1-3.5c0.1,0,0.1-0.1,0.2-0.1l5.3,1l-0.5,0.6l-2.5-4.8
			l0,0c-0.1-0.2-0.1-0.4,0-0.6l3-4.5l0.4,0.6L16.7,96.9z"/>
	</g>
	<path class="st7" d="M23.5,73.1l0.4,0.2c1,0.6,0.5,2.1-0.7,2l-0.5-0.1c-3.8-0.4-7.5,1.4-9.4,4.6L13,80.3c-0.6,1-2.1,0.5-2-0.7
		l0.1-0.5c0.4-3.8-1.4-7.5-4.6-9.4l-0.4-0.2c-1-0.6-0.5-2.1,0.7-2l0.5,0.1c3.8,0.4,7.5-1.4,9.4-4.6l0.2-0.4c0.6-1,2.1-0.5,2,0.7
		l-0.1,0.5C18.5,67.5,20.3,71.1,23.5,73.1z"/>
</g>
</svg>
