<?xml version="1.0" encoding="utf-8"?>
<!-- Generator: Adobe Illustrator 22.0.0, SVG Export Plug-In . SVG Version: 6.00 Build 0)  -->
<svg version="1.1" id="Layer_1" xmlns="http://www.w3.org/2000/svg" xmlns:xlink="http://www.w3.org/1999/xlink" x="0px" y="0px"
	 viewBox="0 0 197.4 155.1" style="enable-background:new 0 0 197.4 155.1;" xml:space="preserve">
<style type="text/css">
	.st0{fill:#FFFFFF;}
	.st1{fill:#1A2E35;}
	.st2{fill:#FF7D84;}
	.st3{opacity:0.46;}
	.st4{fill:#FF8086;}
	.st5{opacity:0.52;fill:#FE5356;}
	.st6{opacity:0.77;fill:#FE5356;}
	.st7{opacity:0.53;fill:#FE5356;}
</style>
<g>
	<g>
		<g>
			<path class="st0" d="M95.6,130.9l-91-19.1c-2.9-0.6-4.8-3.5-4.2-6.4l0,0c0.6-2.9,3.5-4.8,6.4-4.2l44.4,9.3l46.6,9.8L95.6,130.9z"
				/>
			<path class="st1" d="M95.7,131l-49.7-10.2L21,115.6L8.6,113l-3.1-0.6c-0.5-0.1-1-0.2-1.6-0.3c-0.6-0.1-1.1-0.3-1.6-0.6
				c-1.1-0.6-1.7-1.7-2-2.8C0,107.5,0,106.5,0,105.3c0.4-2.2,2.3-4.1,4.5-4.6c0.6-0.1,1.1-0.2,1.7-0.1c0.6,0.1,1.1,0.2,1.6,0.3
				l3.1,0.6l12.5,2.5l24.9,5.1c16.6,3.5,33.1,7,49.6,10.8l0.4,0.1l-0.1,0.3L95.7,131z M95.6,130.8l1.9-10.7l0.3,0.4
				c-16.6-3.1-33.2-6.5-49.8-10l-24.8-5.3l-12.4-2.7l-3.1-0.7c-0.5-0.1-1-0.2-1.5-0.3c-0.5-0.1-1,0-1.4,0.1c-1.9,0.3-3.6,1.9-4,3.9
				c-0.2,0.5-0.2,1-0.2,1.5c0.1,0.5,0.2,1,0.5,1.4c0.6,0.8,1.3,1.4,1.9,2.1c0.4,0.3,0.8,0.5,1.2,0.8c0.1,0.1,0.2,0.1,0.3,0.2
				c0.1,0.1,0.2,0.1,0.4,0.1l0.8,0.2l3.1,0.7l12.4,2.6l24.8,5.3L95.6,130.8z"/>
		</g>
	</g>
	<g>
		<g>
			<path class="st0" d="M139.5,140.1l-45.5-9.5l2.2-10.7l45.5,9.5c2.9,0.6,4.8,3.5,4.2,6.4v0C145.4,138.8,142.5,140.7,139.5,140.1z"
				/>
			<path class="st1" d="M139.5,140.2L94,130.7l-0.1,0l0-0.1c0.1-0.9,0.1-1.8,0.1-2.8c0.1-0.9,0.3-1.8,0.6-2.7
				c0.3-0.9,0.6-1.7,0.9-2.6c0.1-0.4,0.2-0.9,0.3-1.3c0.1-0.4,0.1-0.9,0.2-1.4l0-0.3l0.4,0.1l7.8,1.4l7.8,1.5c5.2,1,10.4,2,15.6,3.1
				c2.6,0.6,5.2,1.1,7.8,1.7l3.9,0.9l1.9,0.5c0.6,0.2,1.3,0.3,2,0.6c1.3,0.6,2.3,1.8,2.8,3.1c0.5,1.3,0.5,2.8,0.1,4.1
				C145.1,139.1,142.2,140.8,139.5,140.2z M139.5,140c1.3,0.3,2.6,0,3.8-0.6c1.1-0.7,2-1.7,2.3-3c0.4-1.2,0.2-2.6-0.3-3.7
				c-0.5-1.1-1.5-2-2.6-2.5c-0.6-0.2-1.1-0.3-1.8-0.4l-2-0.3l-3.9-0.7c-2.6-0.5-5.2-1-7.8-1.5c-5.2-1.1-10.4-2.2-15.5-3.4l-7.7-1.8
				l-7.7-1.8l0.4-0.3c-0.2,0.4-0.3,0.9-0.4,1.3c-0.1,0.4-0.2,0.9-0.3,1.3c-0.1,0.9-0.1,1.8-0.2,2.7c-0.1,0.9-0.3,1.8-0.6,2.7
				c-0.3,0.9-0.7,1.7-1,2.6l-0.1-0.2L139.5,140z"/>
		</g>
	</g>
	<g>
		<path class="st2" d="M149.2,126.7L56,107.2c-3.5-0.7-5.3-4.5-3.8-7.7l25.1-51c1.1-2.2,3.6-3.4,6-2.9L176.5,65
			c3.5,0.7,5.3,4.5,3.8,7.7l-25.1,51C154.1,126,151.6,127.2,149.2,126.7z"/>
	</g>
	<g class="st3">
		<path class="st0" d="M139.3,113.5l-30.2-6.3c-1.1-0.2-1.7-1.5-1.2-2.5l8.2-16.6c0.4-0.7,1.2-1.1,1.9-0.9l30.2,6.3
			c1.1,0.2,1.7,1.5,1.2,2.5l-8.2,16.6C140.9,113.3,140.1,113.6,139.3,113.5z"/>
	</g>
	<g>
		<path class="st1" d="M142.5,129.7l-20.7-4.2l-20.7-4.1c-13.8-2.7-27.6-5.6-41.4-8.5l-10.3-2.3c-1.9-0.4-3.5-1.8-4.3-3.5
			c-0.4-0.9-0.5-1.9-0.4-2.8c0.1-0.9,0.5-1.9,0.9-2.6c3.2-6.3,6.4-12.6,9.5-18.9c3.2-6.3,6.2-12.6,9.3-19l4.6-9.5l1.1-2.4
			c0.3-0.8,0.8-1.7,1.5-2.3c1.3-1.3,3.4-1.9,5.2-1.5c27.6,5.5,55.2,11.1,82.8,17l10.3,2.2c2,0.4,3.7,1.8,4.5,3.7
			c0.4,0.9,0.6,1.9,0.5,2.9c0,0.5-0.2,1-0.3,1.5c-0.1,0.2-0.2,0.5-0.3,0.7l-0.3,0.6c-3.2,6.3-6.3,12.6-9.5,18.9l-9.6,18.8
			c-1.6,3.1-3.2,6.3-4.7,9.4l-1.2,2.4c-0.4,0.8-0.8,1.6-1.5,2.2C146.1,129.5,144.2,130.1,142.5,129.7z M142.5,129.5
			c1.7,0.4,3.6-0.2,4.8-1.4c0.6-0.6,1-1.4,1.4-2.2l1.2-2.4c1.5-3.2,3.1-6.3,4.6-9.5l9.1-19.1c3-6.4,6.1-12.7,9.1-19.1l0.3-0.6
			c0.1-0.2,0.1-0.4,0.2-0.5c0.1-0.4,0.2-0.7,0.2-1.1c0.1-0.8-0.1-1.5-0.4-2.2c-0.6-1.4-1.9-2.5-3.4-2.8l-10.3-2.2
			c-27.6-5.7-55.1-11.7-82.7-17.7c-1.6-0.4-3.4,0.1-4.5,1.3c-0.6,0.6-1,1.3-1.4,2.1l-1.2,2.4L64.8,64c-3.1,6.3-6.3,12.6-9.3,19
			c-3.1,6.3-6.2,12.7-9.2,19c-0.4,0.8-0.7,1.5-0.7,2.3c-0.1,0.8,0.1,1.6,0.4,2.4c0.6,1.5,2,2.6,3.6,2.9l10.4,2.1
			c13.8,2.8,27.6,5.7,41.3,8.8l20.6,4.6L142.5,129.5z"/>
	</g>
	<g>
		
			<rect x="28.6" y="30.9" transform="matrix(0.9679 -0.2512 0.2512 0.9679 -12.2581 19.9262)" class="st0" width="86.7" height="54.1"/>
		<g>
			<g>
				<path class="st1" d="M36.7,94.8l42.1-11.2c7-1.9,14-3.7,21-5.5l21-5.4l-0.2,0.3L114,46.9l-6.9-26l0.3,0.1l-21,5.6l-21.1,5.5
					L23.2,43l0.3-0.4L36.7,94.8z M36.7,94.9L22.8,42.8l-0.1-0.4l0.4-0.1l42.1-10.9L86.3,26l21.1-5.4l0.2-0.1l0.1,0.2l6.7,26.1
					l6.9,26l0.1,0.2l-0.2,0.1l-21.1,5.6c-7,1.9-14.1,3.7-21.1,5.4L36.7,94.9z"/>
			</g>
			<g>
				<g>
					<path class="st4" d="M53.3,75.1c5.3-3.7,13.6,0.7,18.7-3.3c3-2.3,3.5-6.5,4.3-10.2c0.8-3.7,2.7-7.8,6.4-8.4
						c3.7-0.6,7.8,2.9,11,1c2.1-1.2,2.5-4,2.5-6.4c0-2.4-0.3-5,1-7c1.3-2,4.9-2.5,5.8-0.3l7.2,27.6L44.3,85.3
						C44.3,85.3,51.5,76.4,53.3,75.1z"/>
				</g>
			</g>
			<g>
				<g>
					<g>
						<g>
							<path class="st1" d="M42.5,85.8c0,0.1,16-4,35.7-9.1c19.7-5.1,35.7-9.3,35.6-9.4c0-0.1-16,4-35.7,9.1
								C58.4,81.5,42.5,85.7,42.5,85.8z"/>
							<path class="st1" d="M42.6,86.1L42.6,86.1c-0.4,0-0.5-0.1-0.5-0.2l0,0c0-0.1-0.1-0.2,0.3-0.4l0-0.1c0.1,0,0.3-0.1,0.6-0.1
								c1.2-0.4,3.9-1.1,9.8-2.6c6.4-1.7,15.4-4,25.2-6.6c9.9-2.6,18.8-4.9,25.2-6.5c5.9-1.5,8.6-2.2,9.8-2.4
								c0.3-0.1,0.5-0.1,0.6-0.2l0,0.1c0.4,0,0.4,0,0.5,0.2c0,0.1,0.1,0.2-0.3,0.4l0,0.1c-0.1,0-0.3,0.1-0.6,0.1
								c-1.2,0.4-3.9,1.1-9.8,2.6c-6.4,1.7-15.4,4-25.2,6.6c-9.8,2.6-18.8,4.9-25.2,6.5c-5.9,1.5-8.6,2.2-9.8,2.5
								C42.9,86,42.7,86.1,42.6,86.1z"/>
						</g>
					</g>
				</g>
			</g>
			<g>
				<g>
					<g>
						<g>
							<path class="st1" d="M39.4,73.7c0,0.1,16-4,35.7-9.1c19.7-5.1,35.7-9.3,35.6-9.4c0-0.1-16,4-35.7,9.1
								C55.3,69.5,39.4,73.6,39.4,73.7z"/>
							<path class="st1" d="M39.5,74L39.5,74c-0.3,0-0.3,0-0.3,0L39,73.9l0-0.2c0-0.1-0.1-0.2,0.3-0.4l0-0.1c0.1,0,0.3-0.1,0.6-0.1
								c1.2-0.4,3.9-1.1,9.8-2.6c6.4-1.7,15.4-4,25.2-6.6c9.9-2.6,18.8-4.9,25.2-6.5c5.9-1.5,8.6-2.2,9.8-2.4
								c0.3-0.1,0.5-0.1,0.6-0.2l0,0.1c0.4,0,0.4,0,0.5,0.2c0,0.1,0.1,0.2-0.3,0.4l0,0.1c-0.1,0-0.3,0.1-0.6,0.1
								c-1.2,0.4-3.9,1.1-9.8,2.6c-6.4,1.7-15.4,4-25.2,6.6c-26.8,6.9-33.5,8.7-35.3,9C39.7,74,39.6,74,39.5,74z"/>
						</g>
					</g>
				</g>
			</g>
			<g>
				<g>
					<g>
						<g>
							<path class="st1" d="M36.2,61.6c0,0.1,16-4,35.7-9.1c19.7-5.1,35.7-9.3,35.6-9.4c0-0.1-16,4-35.7,9.1
								C52.2,57.4,36.2,61.6,36.2,61.6z"/>
							<path class="st1" d="M36.4,62L36.4,62c-0.3,0-0.3,0-0.3,0l-0.3-0.2l0.2-0.3c0,0,0-0.1,0.3-0.1l0,0c0,0,0.2,0,0.3-0.1
								c1.7-0.5,8.5-2.3,35.2-9.3c9.9-2.6,18.8-4.9,25.2-6.5c5.9-1.5,8.6-2.2,9.8-2.4c0.3-0.1,0.5-0.1,0.6-0.2l0,0.1
								c0.4,0,0.4,0,0.5,0.2c0,0.1,0.1,0.2-0.3,0.4l0,0.1c-0.1,0-0.3,0.1-0.6,0.1c-1.2,0.4-3.9,1.1-9.8,2.6
								c-6.4,1.7-15.4,4-25.2,6.6c-26.8,6.9-33.5,8.7-35.3,9C36.5,61.9,36.4,62,36.4,62z"/>
						</g>
					</g>
				</g>
			</g>
			<g>
				<g>
					<g>
						<g>
							<path class="st1" d="M33.3,50.2c0,0.1,16-4,35.7-9.1c19.7-5.1,35.7-9.3,35.6-9.4c0-0.1-16,4-35.7,9.1
								C49.2,45.9,33.2,50.1,33.3,50.2z"/>
							<path class="st1" d="M33.4,50.5L33.4,50.5c-0.5,0-0.5-0.1-0.5-0.2l0,0c0-0.1-0.1-0.2,0.3-0.4l0-0.1c0.1,0,0.3-0.1,0.6-0.1
								c1.2-0.4,3.9-1.1,9.8-2.6c6.4-1.7,15.4-4,25.2-6.6c9.9-2.6,18.8-4.9,25.2-6.5c5.9-1.5,8.6-2.2,9.8-2.5
								c0.3-0.1,0.5-0.1,0.6-0.2l0,0.1c0.4,0,0.4,0,0.5,0.2c0,0.1,0.1,0.2-0.3,0.4l0,0.1c-0.1,0-0.3,0.1-0.6,0.1
								c-1.2,0.4-3.9,1.1-9.8,2.6c-6.4,1.7-15.4,4-25.2,6.6c-9.8,2.6-18.8,4.9-25.2,6.5c-5.9,1.5-8.6,2.2-9.8,2.4
								C33.6,50.4,33.5,50.5,33.4,50.5z"/>
						</g>
					</g>
				</g>
			</g>
		</g>
	</g>
	<path class="st5" d="M44.3,146.7l0.4,0.3c1.1,0.7,0.5,2.3-0.8,2.2l-0.5-0.1c-4.1-0.5-8.2,1.5-10.3,5l-0.3,0.4
		c-0.7,1.1-2.3,0.5-2.2-0.8l0.1-0.5c0.5-4.1-1.5-8.2-5-10.3l-0.4-0.3c-1.1-0.7-0.5-2.3,0.8-2.2l0.5,0.1c4.1,0.5,8.2-1.5,10.3-5
		l0.3-0.4c0.7-1.1,2.3-0.5,2.2,0.8l-0.1,0.5C38.8,140.5,40.8,144.5,44.3,146.7z"/>
	<path class="st6" d="M122.4,7l0.3,0.2c0.6,0.4,0.3,1.3-0.4,1.3l-0.3,0c-2.4-0.3-4.7,0.9-6,2.9l-0.2,0.3c-0.4,0.6-1.3,0.3-1.3-0.4
		l0-0.3c0.3-2.4-0.9-4.7-2.9-6l-0.3-0.2c-0.6-0.4-0.3-1.3,0.4-1.3l0.3,0c2.4,0.3,4.7-0.9,6-2.9l0.2-0.3c0.4-0.6,1.3-0.3,1.3,0.4
		l0,0.3C119.2,3.4,120.4,5.8,122.4,7z"/>
	<path class="st7" d="M196.8,117.1l0.3,0.2c0.6,0.4,0.3,1.3-0.4,1.3l-0.3,0c-2.4-0.3-4.7,0.9-6,2.9l-0.2,0.3
		c-0.4,0.6-1.3,0.3-1.3-0.4l0-0.3c0.3-2.4-0.9-4.7-2.9-6l-0.3-0.2c-0.6-0.4-0.3-1.3,0.4-1.3l0.3,0c2.4,0.3,4.7-0.9,6-2.9l0.2-0.3
		c0.4-0.6,1.3-0.3,1.3,0.4l0,0.3C193.7,113.5,194.8,115.8,196.8,117.1z"/>
</g>
</svg>
