<?xml version="1.0" encoding="utf-8"?>
<!-- Generator: Adobe Illustrator 22.0.0, SVG Export Plug-In . SVG Version: 6.00 Build 0)  -->
<svg version="1.1" id="Layer_1" xmlns="http://www.w3.org/2000/svg" xmlns:xlink="http://www.w3.org/1999/xlink" x="0px" y="0px"
	 viewBox="0 0 199.8 160.5" style="enable-background:new 0 0 199.8 160.5;" xml:space="preserve">
<style type="text/css">
	.st0{fill:#66CAF3;}
	.st1{fill:#1A2E35;}
	.st2{fill:#FFFFFF;}
	.st3{fill:#267BF8;}
	.st4{opacity:0.77;fill:#66CAF3;}
	.st5{opacity:0.77;fill:#267BF8;}
</style>
<g>
	<path class="st0" d="M165.3,85.7L52.6,140.5c-4.8,2.3-10.6,0.3-12.9-4.5l-31-63.7c-2.3-4.8-0.3-10.6,4.5-12.9L125.9,4.7
		c4.8-2.3,10.6-0.3,12.9,4.5l31,63.7C172.1,77.6,170.1,83.4,165.3,85.7z"/>
	<path class="st1" d="M157.7,82.6c-33.9,16.5-67.6,33.5-101.7,49.8l-6.4,3.1l-3.2,1.5c-1,0.5-2.1,1.1-3.3,1.3c-2.4,0.6-5,0.2-7.1-1
		c-1.1-0.6-2-1.4-2.8-2.3c-0.8-0.9-1.4-2-1.8-3.1l-12.3-25.5c-4.1-8.5-8.2-17-12.4-25.4c-2.1-4.3-4.2-8.4-6.2-12.8
		c-0.8-2.3-0.8-4.8,0.1-7.1C1.6,58.9,3.4,57,5.5,56l50.8-24.9l50.9-24.8l6.4-3.1l3.2-1.5c1-0.5,2.1-1.1,3.4-1.4c2.4-0.6,5-0.2,7.2,1
		c1.1,0.6,2.1,1.4,2.9,2.3c0.8,0.9,1.4,2.1,1.9,3.1l12.2,25.5l12.2,25.5c2,4.3,4.1,8.5,6.1,12.8c0.8,2.2,0.7,4.8-0.2,7
		C161.6,79.7,159.9,81.5,157.7,82.6z M157.7,82.5c2.1-1,3.8-2.9,4.7-5c0.9-2.2,0.9-4.7,0.1-6.8c-2-4.3-4.1-8.5-6.2-12.7l-12.5-25.4
		L131.3,7.1c-0.5-1.1-1-2.1-1.8-2.9c-0.7-0.8-1.6-1.6-2.6-2.1c-2-1.1-4.3-1.4-6.5-0.9c-1.1,0.3-2.1,0.8-3.2,1.3L114,4.1l-6.4,3.1
		L56.8,31.9l-51,24.6c-2.1,1-3.7,2.8-4.6,4.9c-0.9,2.1-0.9,4.6-0.1,6.7c1.9,4.2,4.1,8.5,6.1,12.7c4.1,8.5,8.2,17,12.4,25.5
		l12.5,25.4c0.5,1.1,1,2.1,1.8,2.9c0.7,0.9,1.6,1.6,2.6,2.1c2,1.1,4.4,1.4,6.6,0.9c1.1-0.3,2.1-0.8,3.2-1.3l3.2-1.6l6.4-3.1
		C89.6,115,123.7,99,157.7,82.5z"/>
	<g>
		<g>
			<g>
				<g>
					<path class="st1" d="M139.9,78.2c0,0-0.1,0.1-0.3,0.2c-0.2,0.1-0.6,0.3-1,0.5c-0.9,0.4-2.2,1.1-3.9,1.9c-3.4,1.7-8.3,4-14.3,7
						c-12.1,5.9-28.8,14-47.2,23c-7.2,3.5-14,6.8-20.4,9.9l-0.1,0.1l-0.1-0.1c-6.5-13.5-12.2-25.1-16.2-33.4
						c-2-4.1-9.8-20.2-10.9-22.5c-0.5-1.1-0.9-2-1.2-2.6c-0.1-0.3-0.2-0.5-0.3-0.7C24,61.4,24,61.3,24,61.3s0,0.1,0.1,0.2
						c0.1,0.2,0.2,0.4,0.3,0.7c0.3,0.6,0.7,1.4,1.3,2.6c1.1,2.2,8.9,18.3,11,22.4c4,8.2,9.7,19.8,16.2,33.3l-0.2-0.1
						c6.3-3.1,13.2-6.4,20.4-9.9c18.4-8.9,35.1-17,47.3-22.9c6-2.9,10.9-5.3,14.3-6.9c1.7-0.8,3-1.4,3.9-1.9c0.4-0.2,0.8-0.4,1-0.5
						C139.8,78.2,139.9,78.2,139.9,78.2z"/>
					<path class="st1" d="M52.5,121.2l-0.3-0.6l-0.5-0.2l0.3-0.2L36.1,87.4c-1.1-2.4-4.2-8.6-6.8-14c-1.9-4-3.6-7.5-4.1-8.5
						l-1.5-3.2c-0.1-0.2-0.1-0.3-0.1-0.3L22.4,58l1.9,3.1c0,0,0,0.1,0.1,0.2l1.6,3.2c0.5,0.9,2.1,4.3,4,8.3
						c2.6,5.4,5.8,11.8,6.9,14.2l16,32.9l19.9-9.7l47.3-22.9l19.3-9.3c0.2-0.1,0.4-0.2,0.4-0.2l0.3,0.7c0,0-0.1,0.1-0.4,0.2
						l-4.9,2.4l-14.3,7l-67.1,32.7l0.2,0.3l-0.5-0.2L52.5,121.2z"/>
				</g>
			</g>
		</g>
		<g>
			<rect x="55.9" y="103" transform="matrix(0.8995 -0.437 0.437 0.8995 -41.0352 37.4215)" class="st2" width="9.8" height="9.8"/>
		</g>
		<g>
			
				<rect x="67.3" y="90.1" transform="matrix(0.8995 -0.437 0.437 0.8995 -35.7747 41.4473)" class="st2" width="9.8" height="16.8"/>
		</g>
		<g>
			
				<rect x="78.5" y="76.2" transform="matrix(0.8995 -0.437 0.437 0.8995 -30.332 45.3592)" class="st2" width="9.8" height="24.7"/>
		</g>
		<g>
			
				<rect x="89.1" y="61.7" transform="matrix(0.8995 -0.437 0.437 0.8995 -24.8562 48.9908)" class="st2" width="9.8" height="33.6"/>
		</g>
		<g>
			
				<rect x="99.5" y="44.7" transform="matrix(0.8995 -0.437 0.437 0.8995 -18.8556 52.3867)" class="st2" width="9.8" height="44.9"/>
		</g>
		<g>
			
				<rect x="110.3" y="30.3" transform="matrix(0.8995 -0.437 0.437 0.8995 -13.2735 56.0583)" class="st2" width="9.8" height="53.1"/>
		</g>
		<g>
			<g>
				<g>
					<path class="st1" d="M49.9,96.6c0,0,0,0,0.1-0.1c0.1-0.1,0.1-0.2,0.2-0.4c0.2-0.4,0.5-0.9,0.9-1.5c0.8-1.4,2-3.3,3.4-5.8
						c3-4.9,7.1-11.9,11.9-19.9l0.1-0.2l0.1,0.2c0.6,1.2,1.3,2.6,1.9,3.9l-0.3,0c1.5-2.6,3.1-5.2,4.6-8c6.4-10.9,12.2-20.9,16.4-28
						c2.1-3.6,3.8-6.5,5-8.5c0.6-1,1.1-1.8,1.4-2.3c0.2-0.3,0.3-0.4,0.4-0.6c0.1-0.1,0.1-0.2,0.1-0.2c0,0,0,0.1-0.1,0.2
						c-0.1,0.1-0.2,0.4-0.3,0.6c-0.3,0.5-0.8,1.3-1.3,2.3c-1.2,2-2.8,4.9-4.9,8.5c-4.2,7.2-10,17.1-16.3,28.1
						c-1.6,2.7-3.1,5.4-4.6,8l-0.1,0.2l-0.1-0.3c-0.7-1.4-1.3-2.7-1.9-3.9l0.3,0c-4.9,8-9,14.9-12,19.9c-1.5,2.4-2.7,4.4-3.5,5.7
						c-0.4,0.7-0.7,1.2-0.9,1.5c-0.1,0.2-0.2,0.3-0.2,0.4C49.9,96.6,49.9,96.6,49.9,96.6z"/>
					<path class="st1" d="M49.9,97c-0.1,0-0.1,0-0.2-0.1c-0.3-0.2-0.1-0.5-0.1-0.6l1.1-2L66,68.9l-0.2-0.3l0.3,0l0.5-0.8l0.4,0.8
						l0.3,0l-0.2,0.3l1.4,2.8l20.6-35.2l6.7-11.4c0.1-0.2,0.3-0.5,0.6-0.3c0.3,0.2,0.1,0.5,0,0.7l-1.7,2.9L84.5,46.4L69.1,72.9
						l0.2,0.3l-0.3,0l-0.5,0.8L68,73.1l-0.3,0l0.2-0.3L66.5,70L50.3,96.7C50.2,96.8,50.1,97,49.9,97z"/>
				</g>
			</g>
		</g>
		<g>
			<g>
				<g>
					<path class="st1" d="M98.1,28.9c0,0-0.3-0.4-0.6-1c-0.4-0.7-0.8-1.6-1.3-2.6l0.2,0.1c-0.1,0.1-0.2,0.1-0.3,0.2
						c-1.1,0.5-2.2,1-2.9,1.4c-0.8,0.3-1.2,0.5-1.2,0.5c0,0,0.4-0.3,1.1-0.7c0.7-0.4,1.7-0.9,2.9-1.4c0.1-0.1,0.2-0.1,0.3-0.2
						l0.1-0.1l0.1,0.1c0.5,1.1,0.9,2,1.2,2.7C98,28.5,98.1,28.9,98.1,28.9z"/>
					<path class="st1" d="M98.1,29.2c-0.2,0-0.3-0.3-0.8-1.2c-0.3-0.6-0.7-1.4-1.2-2.3c-1.1,0.5-2.1,1-2.9,1.4
						c-1.3,0.6-1.4,0.6-1.6,0.4c-0.1-0.3,0-0.3,1.3-1c0.8-0.4,1.8-0.9,2.8-1.4l-0.1-0.2l0.3,0.1l0.5-0.3l0.2,0.4
						c0,0.1,0.1,0.1,0.1,0.2l0.3,0.1l-0.2,0.1c0.4,0.9,0.8,1.7,1.1,2.3c0.5,1.2,0.6,1.3,0.3,1.5l0,0C98.1,29.2,98.1,29.2,98.1,29.2z
						"/>
				</g>
			</g>
		</g>
	</g>
	<g>
		<g>
			<g>
				<path class="st3" d="M197.4,148.8L197.4,148.8c-2.9,2.4-7.1,2-9.5-0.9l-33.1-41.3l10.4-8.7l33.1,41.3
					C200.6,142.1,200.2,146.4,197.4,148.8z"/>
			</g>
			<path class="st3" d="M161.4,48.9c-24.9-12.6-55.5,8.4-55,35.8c0.2,10.4,4.5,19.3,11.2,25.5c9.2,8.5,22.8,11.9,36.2,6.6
				c10.5-4.1,20.1-11.7,24.6-22.1C185.6,78.3,177.5,57,161.4,48.9z M164.8,90c-3.2,7.4-10,12.8-17.5,15.7
				c-9.5,3.7-19.2,1.4-25.7-4.7c-4.7-4.4-7.8-10.7-7.9-18.1c-0.4-19.4,21.4-34.4,39-25.4C164.1,63.2,169.9,78.4,164.8,90z"/>
			<g>
				<path class="st1" d="M194,147.8c-1.8,1.5-4.3,2-6.5,1.3c-1.1-0.3-2.2-0.9-3-1.8c-0.8-0.8-1.5-1.7-2.3-2.6
					c-3-3.4-5.9-6.9-8.7-10.4c-2.8-3.6-5.5-7.2-8.2-10.8c-2.7-3.6-5.6-7.1-8.5-10.6l-0.2-0.2l0.2-0.2l10.6-8.5l0.4-0.3l0.4,0.4
					c2.9,3.4,5.8,6.9,8.6,10.4c2.9,3.5,5.7,7,8.5,10.5c2.8,3.5,5.5,7.1,8.1,10.8c0.7,0.9,1.3,1.8,2,2.7c0.7,1,1,2.1,1.2,3.2
					C196.7,144,195.7,146.3,194,147.8z M193.9,147.7c0.8-0.7,1.5-1.7,1.9-2.7c0.4-1,0.5-2.2,0.4-3.3c-0.2-1.1-0.6-2.1-1.3-3
					c-0.7-0.8-1.5-1.7-2.2-2.5c-3-3.4-5.9-6.8-8.7-10.3c-2.9-3.5-5.6-7-8.4-10.5c-2.8-3.5-5.5-7.1-8.3-10.7l0.8,0.1l-10.9,8.1l0-0.4
					c2.8,3.6,5.6,7.2,8.5,10.6c2.9,3.5,5.9,6.9,8.8,10.4c2.9,3.5,5.6,7.1,8.3,10.8c0.7,0.9,1.3,1.9,2,2.7c0.7,0.8,1.7,1.5,2.7,1.8
					c1,0.4,2.2,0.4,3.3,0.3C192,148.9,193,148.4,193.9,147.7z"/>
			</g>
			<g>
				<path class="st1" d="M114.2,109.1c1.8,1.6,3.7,3.1,5.8,4.3c2.1,1.2,4.3,2.2,6.6,2.9c4.6,1.4,9.5,1.9,14.2,1.3
					c2.4-0.3,4.7-0.9,7-1.6c2.3-0.8,4.5-1.7,6.6-2.8c4.3-2.2,8.3-4.9,11.7-8.2c3.5-3.3,6.4-7.2,8.4-11.6c2-4.4,2.9-9.2,2.7-14
					c-0.1-4.8-1.3-9.6-3.3-14c-2-4.4-4.8-8.4-8.3-11.7c-3.5-3.3-7.7-5.7-12.2-7.3c-4.5-1.5-9.3-2-14.1-1.6
					c-9.5,0.9-18.5,5.6-25,12.4c-6.6,6.9-10.7,16.2-10.8,25.8c-0.1,4.8,0.8,9.6,2.6,14.1C107.9,101.7,110.7,105.7,114.2,109.1z
					 M114.1,109.2c-7.2-6.6-11.4-16.2-11.6-26.1c-0.1-2.5,0.1-4.9,0.6-7.4c0.5-2.4,1.2-4.8,2.1-7.1c0.9-2.3,2.1-4.5,3.4-6.6
					c1.4-2.1,2.9-4,4.6-5.8c6.8-7.2,16.2-12,26-12.8c2.5-0.2,5-0.1,7.4,0.2c2.5,0.3,4.9,0.9,7.2,1.7c4.6,1.7,8.9,4.4,12.4,7.8
					c7,6.9,11.1,16.5,11.6,26.2c0.2,4.9-0.6,9.8-2.4,14.4c-1.9,4.5-4.8,8.6-8.3,12.1c-1.8,1.7-3.7,3.3-5.7,4.7
					c-2,1.4-4.1,2.7-6.3,3.8c-2.2,1.1-4.5,2-6.8,2.8c-2.4,0.7-4.8,1.2-7.2,1.4c-4.9,0.4-9.9-0.2-14.5-1.8c-2.3-0.8-4.5-1.8-6.6-3.1
					C117.8,112.3,115.9,110.8,114.1,109.2z"/>
			</g>
			<g>
				<path class="st1" d="M121.7,101c1.3,1.2,2.7,2.2,4.1,3.1c1.5,0.9,3.1,1.5,4.7,2.1c3.3,1,6.7,1.3,10.1,0.8
					c1.7-0.2,3.3-0.7,4.9-1.2c1.6-0.5,3.2-1.2,4.7-2c3-1.6,5.8-3.4,8.3-5.8c2.5-2.3,4.5-5,6-8.1c1.4-3.1,2.1-6.5,1.9-9.9
					c-0.2-6.8-3.3-13.5-8.2-18.1c-2.5-2.3-5.5-4-8.7-5.1c-3.2-1.1-6.6-1.4-9.9-1.1c-6.7,0.6-13,4-17.6,8.8
					c-4.6,4.9-7.5,11.4-7.7,18.1c-0.1,3.4,0.5,6.8,1.7,10C117.2,95.7,119.2,98.6,121.7,101z M121.6,101.1
					c-5.1-4.7-8.1-11.5-8.4-18.5c-0.1-1.8,0.1-3.5,0.4-5.3c0.3-1.7,0.8-3.4,1.5-5.1c1.3-3.3,3.3-6.3,5.7-8.9
					c4.8-5.2,11.6-8.6,18.6-9.1c3.5-0.3,7.1,0.2,10.4,1.4c3.3,1.2,6.4,3.1,8.8,5.6c5,5,7.8,11.8,8.2,18.7c0.1,3.5-0.4,7-1.7,10.3
					c-1.3,3.2-3.4,6.2-5.9,8.7c-2.5,2.4-5.4,4.5-8.6,6.1c-1.6,0.8-3.2,1.4-4.9,2c-1.7,0.5-3.4,0.9-5.2,1
					C133.7,108.4,126.6,105.8,121.6,101.1z"/>
			</g>
		</g>
	</g>
	<path class="st4" d="M172.7,17.1l0.2,0.2c0.5,0.5-0.1,1.3-0.7,1l-0.3-0.1c-2.1-0.9-4.6-0.5-6.3,1.1l-0.2,0.2
		c-0.5,0.5-1.3-0.1-1-0.7l0.1-0.3c0.9-2.1,0.5-4.6-1.1-6.3l-0.2-0.2c-0.5-0.5,0.1-1.3,0.7-1l0.3,0.1c2.1,0.9,4.6,0.5,6.3-1.1
		l0.2-0.2c0.5-0.5,1.3,0.1,1,0.7l-0.1,0.3C170.8,13,171.2,15.4,172.7,17.1z"/>
	<path class="st5" d="M118.4,152.8l0.4,0.2c1,0.6,0.5,2.1-0.7,2l-0.5-0.1c-3.8-0.4-7.5,1.4-9.4,4.6l-0.2,0.4c-0.6,1-2.1,0.5-2-0.7
		l0.1-0.5c0.4-3.8-1.4-7.5-4.6-9.4l-0.4-0.2c-1-0.6-0.5-2.1,0.7-2l0.5,0.1c3.8,0.4,7.5-1.4,9.4-4.6l0.2-0.4c0.6-1,2.1-0.5,2,0.7
		l-0.1,0.5C113.3,147.1,115.1,150.8,118.4,152.8z"/>
</g>
</svg>
