<?xml version="1.0" encoding="utf-8"?>
<!-- Generator: Adobe Illustrator 22.0.0, SVG Export Plug-In . SVG Version: 6.00 Build 0)  -->
<svg version="1.1" id="Layer_1" xmlns="http://www.w3.org/2000/svg" xmlns:xlink="http://www.w3.org/1999/xlink" x="0px" y="0px"
	 viewBox="0 0 255.5 193" style="enable-background:new 0 0 255.5 193;" xml:space="preserve">
<style type="text/css">
	.st0{fill:#FFDC78;}
	.st1{clip-path:url(#SVGID_2_);}
	.st2{fill:#1A2E35;}
	.st3{fill:#66CAF3;}
	.st4{fill:#FF9A6C;}
	.st5{fill:#F2875C;}
	.st6{fill:#FAFAFA;}
	.st7{fill:#FFFFFF;}
	.st8{clip-path:url(#SVGID_4_);}
	.st9{fill:#A1E2EC;}
	.st10{fill:#4F5BFF;}
	.st11{fill:#EBEBEB;}
	.st12{fill:#032F6D;}
	.st13{fill:#282828;}
	.st14{fill:#FFBF9D;}
	.st15{fill:#F2A786;}
	.st16{fill:#267BF8;}
	.st17{fill:#375A64;}
	.st18{clip-path:url(#SVGID_6_);}
	.st19{fill:#C78976;}
	.st20{opacity:0.2;}
	.st21{fill:#B66955;}
</style>
<g>
	<g>
		<path class="st0" d="M144.1,34.8c-0.8,19.5-15.2,35.7-34.7,36.1c-19.5,0.4-35.7-15.2-36.1-34.7C72.9,16.6,88.5-1.4,108,0.1
			C128.8,1.7,144.8,17,144.1,34.8z"/>
		<g>
			<defs>
				<path id="SVGID_1_" d="M144.1,34.8c-0.8,19.5-15.2,35.7-34.7,36.1c-19.5,0.4-35.7-15.2-36.1-34.7C72.9,16.6,88.5-1.4,108,0.1
					C128.8,1.7,144.8,17,144.1,34.8z"/>
			</defs>
			<clipPath id="SVGID_2_">
				<use xlink:href="#SVGID_1_"  style="overflow:visible;"/>
			</clipPath>
			<g class="st1">
				<path class="st2" d="M93.4,14.5c-0.2,3.5-0.4,4.5-1.7,7.3c-0.8,1.6-1.8,3.2-2.3,4.9c-0.4,1.7-0.2,3.4-0.5,5.1
					c-0.5,2.8-2.3,5-3.7,7.5c-1.4,2.4-2.3,5.5-0.9,8l14-1.7l1-17.4L93.4,14.5z"/>
				<path class="st2" d="M121.3,8.6c1.8,3.9-0.7,7.7,1.1,11.6c0.9,1.9,1.8,3.8,2.3,5.9c0.4,1.9,0.5,3.8,1.3,5.6
					c1.2,2.8,3.9,4.7,5.2,7.4c1.9,4.1-0.1,9.2-3.7,11.9c-3.6,2.7-8.3,3.4-12.8,3.1c-2.7-0.2-5.5-0.7-7.8-2.1
					c-2.3-1.4-4.2-3.8-4.5-6.5"/>
				<path class="st2" d="M100.5,1.7c-9,4-10.8,18.8-10.9,20.8c-0.1,2.4-1.3,2.9-2.9,4.1c-1.6,1.2-3.1,2.8-3.6,4.7
					c-0.3,1.5,0,3.2-0.7,4.6c-0.9,1.7-2.9,2.3-4.5,3.3c-3,1.9-4.5,5.6-4.7,9.1c-0.2,3.5,0.8,7,1.8,10.4c0.4,1.3,0.9,2.8,2.1,3.5
					c0.9,0.6,2.1,0.6,3.2,0.5c5.7-0.1,11.4-0.3,17.1-0.4c4.4-0.1,8.9-0.2,12.9-1.8c3.3-1.3,6.2-3.7,7.9-6.7c1.8-3,2.4-6.7,1.4-10
					c-0.7-2.6-2.3-4.9-2.7-7.5c-0.6-3.3,2.2-4.6,3.2-7.8c1-3.2,1.8-10.7,0.5-13.8"/>
				<path class="st3" d="M90.1,83.5l2.8-9l0.4,13.8c0,0-3.7,9.4-6.4,16.6c5.6,3.3,12,5.4,19,5.9c8.6,0.5,16.8-1.5,23.8-5.6
					l-4.3-15.6l2.1-17.6l5.7,8.2l12.2-11.8c0,0-8.9-16.5-10.1-18c-7.1-9.6-19.3-9.4-19.3-9.4l-17.3,1c0,0-9.7-0.5-16.1,7.1
					c0,0-6.2,9.5-11.4,33L90.1,83.5z"/>
				<path class="st4" d="M161,29.5c-1.3,0.1-0.9,6.9-1.8,5.5c-0.9-1.5,0.5-8.4-0.8-8.3c-1.7,0.2-1.2,7.3-1.2,7.9
					c0,0.6-0.9,0.6-0.9,0.1c0-0.8,0.3-9.1-1.4-9c-0.9,0.1-0.6,1.7-0.6,1.7s0.3,7.8-0.5,7.8c-0.8,0-1.2-4.5-1.2-6.1
					c0-1.5-0.7-2.2-1.4-1.6c-0.5,0.4-0.5,5.1-0.5,6.7c0,1.5,0.2,5.7-1.5,3.7c-1.8-2-3.9-3-4.6-2.8c-0.7,0.1-0.8,1.2,0,1.6
					c0.6,0.3,1.5,1.1,2.1,1.7c0.5,0.5,0.9,1.1,1.3,1.8c0.4,0.7,0.6,1.1,0.9,2.2L146.7,71l-1.8-2.2l-10,9.7l5.2,6
					c3.8,4.4,10.7,4.7,14.6,0.3c0.1-0.2,0.3-0.3,0.4-0.5c1-1.2,1.5-2.8,1.6-4.3l3.3-37.1l0,0c0.1-4.1,1.2-7.3,1.4-9.4
					C161.9,29.5,161.5,29.5,161,29.5z"/>
				<g>
					<g>
						<g>
							<g>
								<g>
									<path class="st4" d="M114.9,44.8c0-4.3,0-8.9,0-8.9s5.5-1,6.6-8.2c1-6.9-0.7-21.8-0.7-21.8l0,0c-8-3.2-17.1-1.9-22.7,4.5
										l0,0l0.9,35c0.1,4.1,3.7,7.2,8,7.1h0C111.4,52.4,114.9,48.9,114.9,44.8z"/>
								</g>
								<g>
									<g>
										<path class="st2" d="M119.3,17.3c0,0.5-0.4,0.9-0.9,0.9c-0.5,0-0.9-0.3-1-0.8c0-0.5,0.4-0.9,0.9-0.9
											C118.8,16.5,119.2,16.8,119.3,17.3z"/>
									</g>
									<g>
										<g>
											<path class="st2" d="M120.8,16.3c-0.1,0.1-0.8-0.4-1.8-0.4c-1,0-1.7,0.5-1.8,0.4c-0.1-0.1,0.1-0.3,0.4-0.5
												c0.3-0.2,0.8-0.5,1.5-0.5c0.6,0,1.1,0.2,1.5,0.5C120.7,16,120.8,16.2,120.8,16.3z"/>
										</g>
									</g>
								</g>
								<g>
									<g>
										<path class="st2" d="M109,17.6c0,0.5-0.4,0.9-0.9,0.9c-0.5,0-0.9-0.3-1-0.8c0-0.5,0.4-0.9,0.9-0.9
											C108.6,16.8,109,17.1,109,17.6z"/>
									</g>
									<g>
										<g>
											<path class="st2" d="M110.3,16.7c-0.1,0.1-0.8-0.4-1.8-0.4c-1,0-1.7,0.5-1.8,0.4c-0.1-0.1,0.1-0.3,0.4-0.5
												c0.3-0.2,0.8-0.5,1.5-0.5c0.6,0,1.1,0.2,1.5,0.5C110.3,16.5,110.4,16.7,110.3,16.7z"/>
										</g>
									</g>
								</g>
								<g>
									<g>
										<path class="st2" d="M114,24.1c0-0.1,0.6-0.2,1.6-0.3c0.3,0,0.5-0.1,0.5-0.3c0.1-0.2-0.1-0.5-0.2-0.8
											c-0.2-0.6-0.5-1.3-0.8-1.9c-1.1-2.8-1.9-5-1.8-5.1c0.1,0,1.1,2.2,2.2,4.9c0.3,0.7,0.5,1.3,0.7,1.9c0.1,0.3,0.3,0.6,0.1,1
											c-0.1,0.2-0.3,0.3-0.4,0.4c-0.2,0.1-0.3,0.1-0.4,0.1C114.7,24.2,114,24.2,114,24.1z"/>
									</g>
								</g>
								<g>
									<path class="st5" d="M114.9,35.9c0,0-4.9,0.4-9.7-2.5c0,0,2.4,5,9.7,4.2L114.9,35.9z"/>
								</g>
								<g>
									<path class="st4" d="M113.6,26.5c-0.4-0.5-1-0.7-1.6-0.7c-0.4,0.1-0.9,0.3-1.1,0.6c-0.3,0.4-0.3,0.9-0.1,1.2
										c0.3,0.4,0.8,0.5,1.3,0.3c0.5-0.1,0.9-0.5,1.3-0.8c0.1-0.1,0.2-0.2,0.3-0.3C113.8,26.8,113.8,26.7,113.6,26.5"/>
								</g>
								<g>
									<g>
										<path class="st2" d="M111.1,24.8c0.2,0,0.2,1.1,1.1,1.8c0.9,0.8,2.1,0.6,2.1,0.8c0,0.1-0.3,0.2-0.7,0.2
											c-0.5,0-1.2-0.1-1.8-0.6c-0.6-0.5-0.8-1.1-0.9-1.5C110.9,25.1,111,24.8,111.1,24.8z"/>
									</g>
								</g>
							</g>
							<g>
								<path class="st2" d="M101.2,5.2c2.7,3.8,9.7,7.7,14.7,8.6c-0.6-0.8-3.7-2.7-4.3-3.4c2.3,1.7,5.5,4,8.6,4.1
									c0.4,0,0.7,0,1-0.2c0.4-0.2,0.5-0.7,0.5-1.1c0.2-1.8,0.1-4.8-0.2-6.6c-0.3-1.8-1.1-3.5-2.6-4.7c-1.9-1.5-4.7-1.9-7.3-1.9
									c-2.2-0.1-4.4,0.1-6.5,0.9c-2,0.8-3.7,2.4-4,4.2"/>
							</g>
							<g>
								<path class="st2" d="M93.6,22.2c-0.4-1.9-0.7-3.7-0.7-4.8c-0.2-3.7,0.9-17.5,13.8-16.4l-3.1,4c0,0,2.5,8.4-2.9,14.1
									c0,0-0.3,3.4-4.1,7.3C96.6,26.3,94.4,26.2,93.6,22.2"/>
							</g>
							<g>
								<path class="st4" d="M100.8,18.4c-0.8-0.1-1.6-0.1-2.3,0.2c-0.7,0.3-1.4,0.8-1.7,1.6c-0.3,0.7-0.3,1.6,0,2.3
									c0.3,0.7,0.8,1.4,1.3,1.9c0.4,0.4,0.9,0.8,1.4,0.9c0.5,0.2,1.2,0.1,1.6-0.3"/>
							</g>
							<g>
								<g>
									<path class="st5" d="M100.4,23.1c0.1,0-0.2,0.5-1,0.3c-0.3-0.1-0.7-0.4-0.9-0.8c-0.2-0.4-0.3-0.8-0.4-1.3
										c-0.1-0.5,0-1,0.3-1.4c0.2-0.4,0.7-0.6,1-0.6c0.7,0,1,0.5,0.9,0.5c-0.1,0.1-0.3-0.2-0.8-0.1c-0.5,0.1-0.9,0.7-0.8,1.5
										c0.1,0.8,0.4,1.5,0.8,1.7C100.1,23.2,100.4,23,100.4,23.1z"/>
								</g>
							</g>
						</g>
					</g>
				</g>
				<g>
					<polygon class="st2" points="91.7,92.5 91.7,89.2 115,89.2 121.9,59.2 156.8,59.5 148.3,92.5 					"/>
					<path class="st6" d="M140.2,75.9c-0.5,1.6-1.9,2.6-3.1,2.2s-1.8-2-1.3-3.6c0.5-1.6,1.9-2.6,3.1-2.2
						C140.2,72.7,140.7,74.3,140.2,75.9z"/>
				</g>
				<path class="st4" d="M123.5,92.3c0.6-1.1,1.1-2.3,1.5-3.5c0.1-0.3,0.2-0.6,0.1-0.9c0-0.3-0.2-0.6-0.5-0.7
					c-0.5-0.1-0.9,0.5-1.1,1.1c-0.8,1.9-2.6,3.4-4.6,3.8l-1.4,0l0-0.1L87,89.4l1.5-6l-16.1-1.2l-1.5,6c-0.8,7.4,5.2,13.8,12.7,13.6
					l35,0c11.1,0.7,13.2-9.1,13.2-9.1L123.5,92.3z"/>
				<g>
					<path class="st2" d="M97.5,41.7c0,0,0,0.1-0.1,0.3c0,0.2-0.1,0.5-0.1,0.9c-0.1,0.8,0,2,0.5,3.4c0.5,1.4,1.3,2.9,2.8,4.2
						c1.4,1.3,3.5,2.1,5.7,2.2c2.2,0.1,4.3-0.5,5.9-1.7c1.6-1.1,2.6-2.6,3.2-3.9c0.6-1.3,0.7-2.5,0.8-3.3c0-0.4,0-0.7,0-0.9
						c0-0.2,0-0.3,0-0.3c0,0,0,0.4,0,1.2c-0.1,0.8-0.3,1.9-0.9,3.2c-0.6,1.3-1.6,2.7-3.1,3.8c-1.5,1.1-3.6,1.7-5.7,1.6
						c-2.1-0.1-4.1-0.9-5.5-2.1c-1.4-1.2-2.3-2.7-2.7-4c-0.5-1.3-0.6-2.5-0.5-3.3C97.4,42.2,97.5,41.8,97.5,41.7z"/>
				</g>
				<g>
					<path class="st2" d="M88.3,45.1c0,0,0.5,0,1.2,0.3c0.8,0.3,1.8,0.9,2.7,2.1c0.9,1.1,1.5,2.8,1.7,4.8c0.1,1,0.2,2,0.2,3
						c0,1.1,0.1,2.2,0.1,3.3c0,4.5-0.2,8.6-0.5,11.5c-0.1,1.5-0.3,2.7-0.4,3.5c0,0.4-0.1,0.7-0.1,0.9c0,0.2,0,0.3,0,0.3
						c0,0,0-0.1,0.1-0.3c0-0.2,0.1-0.6,0.2-0.9c0.1-0.8,0.3-2,0.5-3.5c0.3-2.9,0.6-7,0.6-11.6c0-1.1,0-2.2-0.1-3.3
						c0-1.1-0.1-2.1-0.2-3.1c-0.2-2-0.9-3.7-1.8-4.9c-0.9-1.2-2-1.8-2.9-2C88.8,45,88.3,45.1,88.3,45.1z"/>
				</g>
				<g>
					<path class="st2" d="M123.5,41.3c0,0,0,0.1,0,0.3c0,0.3,0.1,0.6,0.2,1c0.2,0.9,0.4,2.1,0.7,3.6c0.5,3,1.2,7.3,1.9,11.9
						c0.6,4.7,1.1,8.9,1.3,12c0.1,1.5,0.2,2.7,0.3,3.6c0,0.4,0.1,0.7,0.1,1c0,0.2,0,0.3,0.1,0.3c0,0,0-0.1,0-0.3c0-0.3,0-0.6,0-1
						c0-0.9-0.1-2.1-0.2-3.7c-0.2-3.1-0.6-7.3-1.2-12c-0.6-4.7-1.4-8.9-2-11.9c-0.3-1.5-0.6-2.7-0.8-3.6c-0.1-0.4-0.2-0.7-0.2-1
						C123.6,41.4,123.6,41.3,123.5,41.3z"/>
				</g>
			</g>
		</g>
	</g>
	<g>
		<path class="st7" d="M255.4,136.4c-1.2,30.6-23.8,56-54.4,56.6c-30.7,0.6-56-23.8-56.6-54.4c-0.6-30.7,23.9-58.9,54.4-56.6
			C231.5,84.4,256.5,108.4,255.4,136.4z"/>
		<path class="st2" d="M250.5,131.4c-0.3,7.3-1.8,14.5-4.5,21.2c-2.7,6.8-6.6,13-11.6,18.4c-5,5.3-11,9.7-17.7,12.6
			c-6.7,3-14,4.4-21.2,4.5c-7.3,0.1-14.6-1.3-21.3-4c-6.8-2.7-12.9-6.8-18.1-11.9c-5.2-5.1-9.4-11.2-12.2-17.9
			c-2.9-6.7-4.4-13.9-4.5-21.2c-0.2-14.6,5.3-29.1,15.1-39.9c4.9-5.4,10.9-9.8,17.6-12.7c6.7-2.9,14.1-4.2,21.4-3.7
			c7.3,0.5,14.5,2.1,21.2,4.8c6.8,2.7,13.1,6.5,18.5,11.4c5.4,4.8,10,10.7,13,17.3C249.3,116.8,250.8,124.1,250.5,131.4z
			 M250.4,131.4c0.3-7.3-1.3-14.5-4.4-21.1c-3.1-6.6-7.7-12.4-13.1-17.2c-10.9-9.6-25.2-14.9-39.6-15.9c-7.2-0.5-14.5,0.8-21.1,3.7
			c-6.6,2.9-12.6,7.3-17.4,12.6c-9.7,10.7-15.3,25.1-15.2,39.6c0.1,7.2,1.6,14.5,4.4,21.1c2.8,6.7,7,12.8,12.2,17.8
			c5.2,5.1,11.4,9.1,18.1,11.8c6.7,2.7,14,4,21.2,3.9c7.2-0.1,14.4-1.6,21.1-4.5c6.6-2.9,12.7-7.2,17.6-12.4
			c5-5.3,8.9-11.5,11.6-18.2C248.6,145.8,250.1,138.6,250.4,131.4z"/>
		<g>
			<defs>
				<path id="SVGID_3_" d="M250.5,131.4c-1.2,30.6-23.8,56-54.4,56.6c-27.3,0.5-50.3-18.7-55.5-44.5c-0.6-3.2-47.4-9.5-47.4-12.9
					c-0.4-18.2-2.7-18.1,10.6-28.7c9.1-7.3,77.7-51.6,90.2-50.6c17.4,1.3,34.9,3.7,45.2,14.6C248,75.4,251,118.4,250.5,131.4z"/>
			</defs>
			<clipPath id="SVGID_4_">
				<use xlink:href="#SVGID_3_"  style="overflow:visible;"/>
			</clipPath>
			<g class="st8">
				<path class="st9" d="M239.7,159.4h-36.8v-50.3c0-6.8,5.5-12.3,12.3-12.3h12.1c6.8,0,12.3,5.5,12.3,12.3V159.4z"/>
				<path class="st2" d="M233,157.5l-36.8,0.1c-0.1,0-0.1-0.1-0.1-0.1v0l-0.1-37.9l0-9.5c0-1.6-0.1-3.2,0.1-4.8
					c0.2-1.6,0.8-3.1,1.6-4.5c1.6-2.8,4.3-4.9,7.4-5.8c1.5-0.5,3.2-0.5,4.8-0.5l4.7,0l4.7,0c1.6,0,3.2,0,4.7,0.5
					c3.1,0.9,5.8,3,7.4,5.8c0.8,1.4,1.3,2.9,1.6,4.5c0.2,1.6,0.1,3.2,0.1,4.8l0,9.5L233,157.5z M233,157.5l-0.1-37.9l0-9.4
					c0-1.6,0.1-3.2-0.1-4.7c-0.2-1.5-0.7-3-1.5-4.4c-1.6-2.7-4.2-4.7-7.2-5.6c-1.5-0.4-3-0.5-4.6-0.5l-4.7,0l-4.7,0
					c-1.6,0-3.1,0-4.6,0.5c-3,0.8-5.6,2.9-7.1,5.6c-0.8,1.3-1.3,2.8-1.5,4.4c-0.2,1.5-0.1,3.1-0.1,4.7l0,9.5l-0.1,37.9l-0.1-0.1
					L233,157.5z"/>
				<path class="st2" d="M236.7,157.2l-18.3,0.1l-18.4,0.1c-0.1,0-0.2-0.1-0.2-0.2v0l0.1-37.9l0-9.5c0-1.6-0.1-3.2,0.1-4.7
					c0.2-1.6,0.7-3.1,1.5-4.5c1.6-2.8,4.3-4.9,7.4-5.8c1.5-0.5,3.2-0.5,4.7-0.5l4.7,0l4.7,0c1.6,0,3.2,0,4.8,0.5
					c3.1,0.9,5.8,3,7.4,5.8c0.8,1.4,1.3,2.9,1.6,4.5c0.2,1.6,0.1,3.2,0.1,4.8l0,9.5L236.7,157.2z M236.7,157.2l-0.2-37.9l0-9.4
					c0-1.6,0.1-3.2-0.1-4.7c-0.2-1.5-0.7-3-1.5-4.4c-1.5-2.7-4.2-4.7-7.1-5.6c-1.5-0.4-3-0.5-4.6-0.5l-4.7,0l-4.7,0
					c-1.6,0-3.1,0-4.6,0.4c-3,0.8-5.6,2.9-7.2,5.6c-0.8,1.3-1.3,2.8-1.5,4.4c-0.2,1.5-0.1,3.1-0.2,4.7l0,9.5l0.1,37.9l-0.2-0.2
					L236.7,157.2z"/>
				<g>
					<path class="st2" d="M213.8,75.5c-0.1,0.6,0,1.3,0.5,1.7c0.4,0.4,1.1,0.5,1.6,0.2c0.9-0.6,1-2.1,0.8-3.3
						c-0.2-1.2-0.6-2.5-0.2-3.6c0.3-0.9,1-1.4,1.6-2.1c1-1.2,1.4-2.9,1.2-4.5c-0.3-1.6-1.3-3-2.7-3.4c-1.4-0.4-3.1,0.1-4.1-1
						c-0.8-0.8-0.8-2.2-1.4-3.2c-0.9-1.5-2.8-1.7-4.4-1.5c-1.6,0.3-3.2,0.9-4.7,0.5c-1.3-0.3-2.4-1.4-3.6-2c-2.7-1.3-6-0.5-8,2
						c-2,2.5-2.4,6.5-1,9.4c0.5,1.1,1.2,2,2.2,2.5"/>
					<g>
						<g>
							<g>
								<g>
									<path class="st10" d="M176,315l-1.2,15.4c0,0-15.2,4.9-15.3,7.7l29.7,0.4l0.9-23.5L176,315z"/>
								</g>
							</g>
						</g>
						<g>
							<g>
								<g>
									<g>
										<path class="st11" d="M183.9,328.8c0.6,0.1,1,0.8,0.9,1.4c-0.1,0.6-0.8,1-1.3,0.9c-0.6-0.1-1.1-0.9-0.9-1.4
											c0.2-0.6,1-1,1.5-0.8"/>
									</g>
								</g>
							</g>
						</g>
						<g>
							<g>
								<g>
									<path class="st11" d="M189.2,338.5l-0.1-2.4l-28.1,0.2c0,0-1.6,1-1.6,1.9L189.2,338.5z"/>
								</g>
							</g>
						</g>
						<g>
							<g>
								<g>
									<g>
										<path class="st2" d="M174.3,330.2c0,0.1,0.7,0.2,1.5,0.6c0.7,0.4,1.1,1,1.3,1c0.1,0-0.1-0.9-1-1.4
											C175.1,329.9,174.3,330.1,174.3,330.2z"/>
									</g>
								</g>
							</g>
						</g>
						<g>
							<g>
								<g>
									<g>
										<path class="st2" d="M171.2,331.6c0,0.1,0.6,0.4,1.1,1c0.5,0.6,0.7,1.2,0.8,1.2c0.1,0,0.2-0.8-0.4-1.6
											C172.1,331.5,171.2,331.5,171.2,331.6z"/>
									</g>
								</g>
							</g>
						</g>
						<g>
							<g>
								<g>
									<g>
										<path class="st2" d="M169.6,335.4c0.1,0,0.3-0.7-0.1-1.5c-0.4-0.8-1.1-1.1-1.1-1c-0.1,0.1,0.4,0.5,0.7,1.2
											C169.4,334.8,169.4,335.4,169.6,335.4z"/>
									</g>
								</g>
							</g>
						</g>
						<g>
							<g>
								<g>
									<g>
										<path class="st2" d="M174.5,326.7c0.1,0.1,0.7-0.1,1.5-0.1c0.8,0,1.5,0.3,1.5,0.1c0.1-0.1-0.6-0.6-1.5-0.6
											C175,326.1,174.4,326.6,174.5,326.7z"/>
									</g>
								</g>
							</g>
						</g>
					</g>
					<g>
						<g>
							<g>
								<g>
									<path class="st2" d="M174.3,323.6c0,0.1,0.6,0.1,1.5-0.1c0.5-0.1,1-0.3,1.5-0.5c0.3-0.1,0.6-0.3,0.8-0.5
										c0.1-0.1,0.3-0.2,0.4-0.4c0.2-0.2,0.2-0.5,0-0.8c-0.2-0.2-0.4-0.3-0.6-0.3c-0.2,0-0.4,0-0.6,0.1c-0.3,0.1-0.6,0.2-0.9,0.3
										c-0.6,0.3-1,0.6-1.3,0.9c-0.7,0.7-0.9,1.2-0.8,1.2c0.1,0,0.4-0.4,1.1-1c0.3-0.3,0.8-0.6,1.3-0.8c0.3-0.1,0.5-0.2,0.8-0.3
										c0.3-0.1,0.6-0.1,0.7,0c0,0.1,0,0.1,0,0.2c-0.1,0.1-0.2,0.2-0.3,0.3c-0.3,0.2-0.5,0.3-0.8,0.5c-0.5,0.3-1,0.5-1.4,0.6
										C174.9,323.5,174.3,323.6,174.3,323.6z"/>
								</g>
							</g>
						</g>
					</g>
					<g>
						<g>
							<g>
								<g>
									<path class="st2" d="M174.5,323.8c0.1,0,0.3-0.5,0.3-1.4c0-0.5-0.1-1-0.3-1.6c-0.1-0.3-0.2-0.6-0.4-0.9
										c-0.2-0.3-0.4-0.7-1-0.7c-0.3,0-0.5,0.2-0.6,0.4c-0.1,0.2-0.1,0.4-0.1,0.5c0,0.3,0,0.7,0,1c0.1,0.6,0.4,1.1,0.7,1.5
										c0.6,0.8,1.2,0.9,1.2,0.9c0-0.1-0.5-0.3-0.9-1.1c-0.2-0.4-0.4-0.8-0.5-1.4c0-0.3,0-0.6,0-0.9c0-0.3,0.1-0.6,0.3-0.5
										c0.1,0,0.4,0.2,0.5,0.5c0.2,0.3,0.3,0.5,0.4,0.8c0.2,0.5,0.3,1,0.3,1.5C174.6,323.3,174.4,323.8,174.5,323.8z"/>
								</g>
							</g>
						</g>
					</g>
					<g>
						<g>
							<g>
								<g>
									<path class="st10" d="M242.7,315l1.2,15.4c0,0,15.2,4.9,15.3,7.7l-29.7,0.4l-0.9-23.5L242.7,315z"/>
								</g>
							</g>
						</g>
						<g>
							<g>
								<g>
									<g>
										<path class="st11" d="M234.8,328.8c-0.6,0.1-1,0.8-0.9,1.4c0.1,0.6,0.8,1,1.3,0.9c0.6-0.1,1.1-0.9,0.9-1.4
											c-0.2-0.6-1-1-1.5-0.8"/>
									</g>
								</g>
							</g>
						</g>
						<g>
							<g>
								<g>
									<path class="st11" d="M229.5,338.5l0.1-2.4l28.1,0.2c0,0,1.6,1,1.6,1.9L229.5,338.5z"/>
								</g>
							</g>
						</g>
						<g>
							<g>
								<g>
									<g>
										<path class="st2" d="M244.4,330.2c0,0.1-0.7,0.2-1.5,0.6c-0.7,0.4-1.1,1-1.3,1c-0.1,0,0.1-0.9,1-1.4
											C243.6,329.9,244.5,330.1,244.4,330.2z"/>
									</g>
								</g>
							</g>
						</g>
						<g>
							<g>
								<g>
									<g>
										<path class="st2" d="M247.5,331.6c0,0.1-0.6,0.4-1.1,1c-0.5,0.6-0.7,1.2-0.8,1.2c-0.1,0-0.2-0.8,0.4-1.6
											C246.7,331.5,247.5,331.5,247.5,331.6z"/>
									</g>
								</g>
							</g>
						</g>
						<g>
							<g>
								<g>
									<g>
										<path class="st2" d="M249.2,335.4c-0.1,0-0.3-0.7,0.1-1.5c0.4-0.8,1.1-1.1,1.1-1c0.1,0.1-0.4,0.5-0.7,1.2
											C249.4,334.8,249.3,335.4,249.2,335.4z"/>
									</g>
								</g>
							</g>
						</g>
						<g>
							<g>
								<g>
									<g>
										<path class="st2" d="M244.3,326.7c-0.1,0.1-0.7-0.1-1.5-0.1c-0.8,0-1.5,0.3-1.5,0.1c-0.1-0.1,0.6-0.6,1.5-0.6
											C243.7,326.1,244.4,326.6,244.3,326.7z"/>
									</g>
								</g>
							</g>
						</g>
					</g>
					<g>
						<g>
							<g>
								<g>
									<path class="st2" d="M244.4,323.6c0,0.1-0.6,0.1-1.5-0.1c-0.5-0.1-1-0.3-1.5-0.5c-0.3-0.1-0.6-0.3-0.8-0.5
										c-0.1-0.1-0.3-0.2-0.4-0.4c-0.2-0.2-0.2-0.5,0-0.8c0.2-0.2,0.4-0.3,0.6-0.3c0.2,0,0.4,0,0.6,0.1c0.3,0.1,0.6,0.2,0.9,0.3
										c0.6,0.3,1,0.6,1.3,0.9c0.7,0.7,0.9,1.2,0.8,1.2c-0.1,0-0.4-0.4-1.1-1c-0.3-0.3-0.8-0.6-1.3-0.8c-0.3-0.1-0.5-0.2-0.8-0.3
										c-0.3-0.1-0.6-0.1-0.7,0c0,0.1,0,0.1,0,0.2c0.1,0.1,0.2,0.2,0.3,0.3c0.3,0.2,0.5,0.3,0.8,0.5c0.5,0.3,1,0.5,1.4,0.6
										C243.9,323.5,244.4,323.6,244.4,323.6z"/>
								</g>
							</g>
						</g>
					</g>
					<g>
						<g>
							<g>
								<g>
									<path class="st2" d="M244.2,323.8c-0.1,0-0.3-0.5-0.3-1.4c0-0.5,0.1-1,0.3-1.6c0.1-0.3,0.2-0.6,0.4-0.9
										c0.2-0.3,0.4-0.7,1-0.7c0.3,0,0.5,0.2,0.6,0.4c0.1,0.2,0.1,0.4,0.1,0.5c0,0.3,0,0.7,0,1c-0.1,0.6-0.4,1.1-0.7,1.5
										c-0.6,0.8-1.2,0.9-1.2,0.9c0-0.1,0.5-0.3,0.9-1.1c0.2-0.4,0.4-0.8,0.5-1.4c0-0.3,0-0.6,0-0.9c0-0.3-0.1-0.6-0.3-0.5
										c-0.1,0-0.4,0.2-0.5,0.5c-0.2,0.3-0.3,0.5-0.4,0.8c-0.2,0.5-0.3,1-0.3,1.5C244.2,323.3,244.3,323.8,244.2,323.8z"/>
								</g>
							</g>
						</g>
					</g>
					<g>
						<path class="st12" d="M175.8,173.9c-0.2,0-2.5,150.4-2.5,150.4l18.2-0.6l6.3-74l1.5-54.3l12.4,50.2l15.4,78.8l18.2-4.6
							l-23.1-147l-21.8-4.2L175.8,173.9z"/>
						<path class="st13" d="M175.8,173.9l-0.6,37.6l-0.5,37.6l-1.1,75.2l-0.2-0.2l18.2-0.6l-0.2,0.2l5.5-64l0.7-8l0.2-2l0.1-2l0.1-4
							l0.4-16.1l0.9-32.1l0-0.9l0.2,0.9l7.9,32l4,16l0.5,2l0.4,2l0.8,4l1.6,8.1l12.7,64.8l-0.3-0.2l18.2-4.6L245,320l-11.6-73.5
							l-11.4-73.5l0.1,0.1l-21.7-4.2l0,0L175.8,173.9z M175.8,173.9l24.6-5.2l0,0l0,0l21.8,4.2l0.1,0l0,0.1l11.7,73.5l11.6,73.5
							l0,0.2l-0.2,0.1l-18.2,4.6l-0.2,0.1l0-0.2l-12.6-64.8l-1.6-8.1l-0.8-4.1l-0.4-2l-0.5-2l-3.9-16l-7.9-32.1l0.2,0l-0.9,32.1
							l-0.4,16.1l-0.1,4l-0.1,2l-0.2,2l-0.7,8l-5.4,64.1l0,0.2l-0.2,0l-18.2,0.6l-0.2,0l0-0.2l0.6-37.6l0.6-37.6l0.7-37.6l0.3-18.8
							C175.5,186.4,175.6,180.2,175.8,173.9z"/>
					</g>
					<g>
						<g>
							<g>
								<g>
									<g>
										<g>
											<g>
												<g>
													<g>
														<g>
															<g>
																<path class="st14" d="M197.4,116.3c0.1-2.1,0.5-20.7,0.5-20.8c0,0-6.9-0.9-7.2-7.7c-0.1-3.3,0.1-10.2,0.4-16.4
																	c0.3-6.7,5.7-12,12.4-12.2l0.7,0c7.2,0.2,11,6.4,10.6,13.6l-1,39.9L197.4,116.3z"/>
																<path class="st13" d="M197.4,116.4l0.1-10.4l0.2-10.5l0.2,0.2c-2.2-0.4-4.4-1.5-5.8-3.3c-0.7-0.9-1.2-2-1.4-3.1
																	c-0.2-1.1-0.2-2.3-0.2-3.4c0-4.5,0.2-8.9,0.5-13.4c0.1-1.1,0.1-2.2,0.4-3.3c0.3-1.1,0.6-2.2,1.2-3.2
																	c0.5-1,1.2-1.9,1.9-2.7c0.7-0.8,1.6-1.6,2.6-2.2c0.9-0.6,2-1.1,3-1.5c1.1-0.3,2.2-0.6,3.3-0.6c0.6-0.1,1.1,0,1.7,0
																	c0.6,0,1.1,0.2,1.7,0.3c1.1,0.3,2.2,0.7,3.1,1.3c1.9,1.2,3.4,3.1,4.2,5.2c0.9,2.1,1.2,4.4,1.1,6.6l-0.3,13.4
																	c-0.2,8.9-0.5,17.8-0.8,26.8l0,0.1l-0.1,0L197.4,116.4z M197.4,116.3l16.4-3.8l-0.1,0.2c0.1-8.9,0.3-17.9,0.6-26.8
																	l0.4-13.4c0.1-2.2-0.2-4.4-1-6.5c-0.8-2-2.2-3.9-4-5.1c-1.8-1.2-4.1-1.7-6.3-1.6c-1.1,0-2.2,0.3-3.3,0.6
																	c-1,0.4-2.1,0.8-3,1.4c-1.9,1.2-3.4,2.9-4.4,4.9c-0.5,1-0.9,2-1.1,3.1c-0.3,1.1-0.3,2.2-0.3,3.3
																	c-0.2,4.5-0.4,8.9-0.3,13.4c0,1.1,0,2.2,0.2,3.3c0.2,1.1,0.7,2.1,1.3,2.9c1.3,1.7,3.4,2.8,5.5,3.2l0.2,0l0,0.1
																	L197.4,116.3z"/>
															</g>
														</g>
													</g>
												</g>
											</g>
										</g>
									</g>
								</g>
							</g>
						</g>
					</g>
					<g>
						<g>
							<g>
								<g>
									<g>
										<g>
											<g>
												<g>
													<g>
														<g>
															<path class="st15" d="M198.4,95.5c0,0,4.4,0.1,8.9-2.9c0,0-2.1,4.3-9,3.9L198.4,95.5z"/>
														</g>
													</g>
												</g>
											</g>
										</g>
									</g>
								</g>
							</g>
						</g>
					</g>
					<g>
						<g>
							<g>
								<g>
									<g>
										<g>
											<g>
												<g>
													<g>
														<g>
															<g>
																<g>
																	<g>
																		<g>
																			<g>
																				<g>
																					<path class="st2" d="M192.2,76c0,0.5,0.4,1,1,1c0.5,0,1-0.4,1-0.9c0-0.5-0.4-1-1-1
																						C192.7,75.1,192.2,75.5,192.2,76z"/>
																				</g>
																			</g>
																		</g>
																	</g>
																</g>
															</g>
														</g>
													</g>
												</g>
											</g>
											<g>
												<g>
													<g>
														<g>
															<g>
																<g>
																	<g>
																		<g>
																			<g>
																				<g>
																					<g>
																						<path class="st2" d="M192.6,74.7c0.1,0.1,0.9-0.5,1.9-0.5c1.1,0,1.9,0.5,2,0.3c0.1-0.1-0.1-0.3-0.4-0.5
																							c-0.3-0.2-0.9-0.5-1.6-0.4c-0.7,0-1.2,0.3-1.5,0.5C192.7,74.4,192.6,74.6,192.6,74.7z"/>
																					</g>
																				</g>
																			</g>
																		</g>
																	</g>
																</g>
															</g>
														</g>
													</g>
												</g>
											</g>
										</g>
										<g>
											<g>
												<g>
													<g>
														<g>
															<g>
																<g>
																	<g>
																		<g>
																			<g>
																				<g>
																					<path class="st2" d="M202.8,76.2c0,0.5,0.4,1,1,1c0.5,0,1-0.4,1-0.9c0-0.5-0.4-1-1-1
																						C203.3,75.2,202.8,75.7,202.8,76.2z"/>
																				</g>
																			</g>
																		</g>
																	</g>
																</g>
															</g>
														</g>
													</g>
												</g>
											</g>
											<g>
												<g>
													<g>
														<g>
															<g>
																<g>
																	<g>
																		<g>
																			<g>
																				<g>
																					<g>
																						<path class="st2" d="M203.1,74.6c0.1,0.1,0.9-0.5,1.9-0.5c1.1,0,1.9,0.5,2,0.3c0.1-0.1-0.1-0.3-0.4-0.5
																							c-0.3-0.2-0.9-0.5-1.6-0.4c-0.7,0-1.2,0.3-1.5,0.5C203.1,74.3,203,74.5,203.1,74.6z"/>
																					</g>
																				</g>
																			</g>
																		</g>
																	</g>
																</g>
															</g>
														</g>
													</g>
												</g>
											</g>
										</g>
										<g>
											<g>
												<g>
													<g>
														<g>
															<g>
																<g>
																	<g>
																		<g>
																			<g>
																				<g>
																					<path class="st2" d="M199.5,82.5c0-0.1-0.7-0.2-1.7-0.3c-0.3,0-0.5-0.1-0.6-0.2c-0.1-0.2,0-0.5,0.2-0.8
																						c0.2-0.7,0.5-1.4,0.7-2.1c1-3,1.7-5.4,1.6-5.4c-0.1,0-1,2.3-2.1,5.3c-0.2,0.7-0.5,1.4-0.7,2.1
																						c-0.1,0.3-0.3,0.7-0.1,1.1c0.1,0.2,0.3,0.3,0.5,0.4c0.2,0,0.3,0,0.5,0C198.8,82.6,199.5,82.6,199.5,82.5z"/>
																				</g>
																			</g>
																		</g>
																	</g>
																</g>
															</g>
														</g>
													</g>
												</g>
											</g>
										</g>
										<g>
											<g>
												<g>
													<g>
														<g>
															<g>
																<g>
																	<g>
																		<g>
																			<g>
																				<g>
																					<path class="st2" d="M202.6,83.2c-0.2,0-0.1,1.1-1.1,2c-1,0.8-2.2,0.8-2.2,0.9c0,0.1,0.3,0.2,0.8,0.2
																						c0.5,0,1.2-0.2,1.8-0.7c0.6-0.5,0.8-1.2,0.8-1.7C202.8,83.4,202.7,83.2,202.6,83.2z"/>
																				</g>
																			</g>
																		</g>
																	</g>
																</g>
															</g>
														</g>
													</g>
												</g>
											</g>
										</g>
									</g>
								</g>
							</g>
							<g>
								<g>
									<g>
										<g>
											<g>
												<g>
													<g>
														<g>
															<g>
																<g>
																	<path class="st2" d="M202.6,70.4c0.1,0.3,1.2,0.1,2.4,0.2c1.2,0.1,2.3,0.4,2.4,0.2c0.1-0.1-0.1-0.4-0.5-0.7
																		c-0.4-0.3-1.1-0.5-1.8-0.6c-0.7-0.1-1.4,0.1-1.9,0.3C202.8,70.1,202.6,70.3,202.6,70.4z"/>
																</g>
															</g>
														</g>
													</g>
												</g>
											</g>
										</g>
									</g>
								</g>
							</g>
							<g>
								<g>
									<g>
										<g>
											<g>
												<g>
													<g>
														<g>
															<g>
																<g>
																	<path class="st2" d="M192.9,71.6c0.2,0.2,0.9,0,1.8-0.1c0.9-0.1,1.6,0.1,1.8-0.1c0.1-0.1-0.1-0.4-0.4-0.6
																		c-0.3-0.2-0.9-0.4-1.5-0.3c-0.6,0-1.1,0.3-1.4,0.5C192.9,71.3,192.8,71.5,192.9,71.6z"/>
																</g>
															</g>
														</g>
													</g>
												</g>
											</g>
										</g>
									</g>
								</g>
							</g>
						</g>
					</g>
					<g>
						<g>
							<g>
								<g>
									<g>
										<g>
											<g>
												<g>
													<g>
														<g>
															<g>
																<path class="st14" d="M214.4,77.8c0.1-0.1,4.7-1.5,4.7,3.2c0,4.7-4.7,3.7-4.7,3.6C214.3,84.5,214.4,77.8,214.4,77.8
																	z"/>
																<path class="st13" d="M214.4,77.8c0.8-0.3,1.7-0.4,2.6-0.3c0.9,0.1,1.7,0.8,2,1.7c0.3,0.9,0.3,1.8,0.3,2.7
																	c-0.1,0.9-0.5,1.8-1.3,2.4c-0.8,0.6-1.7,0.7-2.6,0.7c-0.2,0-0.5,0-0.7-0.1c-0.1,0-0.2,0-0.4-0.1
																	c-0.1,0-0.1-0.1-0.1-0.2c0-0.1,0,0,0-0.1l0-0.1l0-0.2l0-1.3C214.2,81.3,214.3,79.5,214.4,77.8z M214.4,77.8
																	c0.1,1.8,0.1,3.5,0.1,5.2l0,1.3l0,0.2l0,0.1c0,0,0,0.1,0,0c0,0,0-0.1-0.1-0.1c0,0,0.1,0,0.2,0c0.2,0,0.4,0,0.6,0.1
																	c0.8,0,1.7-0.2,2.3-0.7c0.6-0.5,1-1.2,1.1-2c0.1-0.8,0.1-1.7-0.2-2.5c-0.2-0.8-0.9-1.4-1.7-1.6
																	C216.1,77.6,215.2,77.6,214.4,77.8z"/>
															</g>
														</g>
													</g>
												</g>
											</g>
										</g>
									</g>
								</g>
							</g>
						</g>
					</g>
					<g>
						<g>
							<g>
								<g>
									<g>
										<g>
											<g>
												<path class="st14" d="M151.7,118l-28.6-2.7l-4.5-1.1l-4.9-1.3c0,0-0.9-0.2-2.1,0.3c-1.2,0.5-1.4,7.7-0.1,8.7
													c1.5,1.1,5.9,0,5.9,0s4.6,1.2,6.3,1.5l26.4,5.6c3.7,1,6.9,1.3,7.8-2.5v0C158.7,122.4,155.8,118.4,151.7,118z"/>
												<path class="st13" d="M151.7,118c-2.4-0.2-4.8-0.4-7.2-0.6l-7.2-0.6c-4.8-0.4-9.5-1-14.3-1.4l0,0l0,0
													c-2.2-0.6-4.4-1.1-6.5-1.7l-1.6-0.4l-0.8-0.2c-0.3-0.1-0.5-0.2-0.8-0.1c-0.5,0-1.1,0.1-1.6,0.3
													c-0.2,0.1-0.4,0.3-0.5,0.6c-0.1,0.2-0.2,0.5-0.2,0.8c-0.2,1.1-0.3,2.2-0.3,3.3c0,1.1,0.1,2.3,0.5,3.3
													c0.1,0.2,0.2,0.5,0.4,0.6c0.2,0.1,0.5,0.2,0.7,0.3c0.5,0.1,1.1,0.1,1.6,0.1c1.1-0.1,2.2-0.2,3.3-0.5l0.1,0l0.1,0
													c1.7,0.4,3.5,0.9,5.2,1.3c1.7,0.3,3.5,0.7,5.2,1.1l10.5,2.2c3.5,0.7,7,1.5,10.5,2.3c1.8,0.3,3.5,1,5.2,0.9
													c0.9,0,1.8-0.2,2.4-0.8c0.7-0.5,1.1-1.4,1.3-2.2l0,0l0,0c0.5-1.9,0.1-4-1-5.6C155.5,119.3,153.6,118.2,151.7,118z
													 M151.7,118c2,0.2,3.9,1.2,5,2.9c1.2,1.6,1.6,3.7,1.2,5.7l0,0l0,0c-0.2,0.9-0.6,1.8-1.3,2.4c-0.7,0.6-1.7,0.8-2.6,0.9
													c-1.8,0.1-3.6-0.5-5.3-0.8c-3.5-0.7-7-1.4-10.5-2.2l-10.5-2.2c-1.8-0.4-3.5-0.8-5.3-1.1c-1.8-0.4-3.5-0.8-5.2-1.3l0.1,0
													c-1.1,0.3-2.2,0.4-3.4,0.5c-0.6,0-1.2,0-1.7-0.2c-0.3-0.1-0.6-0.2-0.8-0.4c-0.3-0.2-0.4-0.5-0.5-0.8
													c-0.4-1.1-0.4-2.3-0.5-3.4c0-1.1,0.1-2.3,0.3-3.4c0.1-0.3,0.1-0.6,0.3-0.8c0.1-0.3,0.3-0.6,0.6-0.7
													c0.5-0.2,1.1-0.3,1.7-0.3c0.3,0,0.6,0.1,0.8,0.2l0.8,0.2l1.6,0.4c2.2,0.6,4.4,1.1,6.6,1.6l0,0c4.8,0.4,9.6,0.8,14.3,1.3
													l7.1,0.8C146.9,117.5,149.3,117.7,151.7,118z"/>
											</g>
										</g>
									</g>
								</g>
							</g>
						</g>
						<g>
							<g>
								<g>
									<g>
										<g>
											<g>
												<g>
													<path class="st14" d="M122.4,116c0,0.6-0.6,1-1.2,1.2c-0.6,0.1-1.2,0.1-1.8,0.2c-1.8,0.3-3.1,2-4.9,2.2
														c-0.2,0-0.6,0-0.6-0.2c-0.1-0.2,0.1-0.4,0.3-0.6c1.4-1.4,2.9-2.7,4.3-4.1"/>
													<path class="st13" d="M122.4,116c0,0.4-0.2,0.7-0.4,1c-0.3,0.2-0.6,0.4-1,0.5c-0.7,0.1-1.4,0.1-2,0.3
														c-0.6,0.2-1.2,0.5-1.8,0.8c-0.6,0.3-1.1,0.7-1.8,1c-0.3,0.1-0.6,0.3-1.1,0.3c-0.2,0-0.5-0.1-0.6-0.4
														c-0.1-0.3,0.1-0.6,0.2-0.7c0.5-0.5,1-1,1.5-1.5c1-0.9,2-1.8,3.1-2.7l0,0c-0.9,1.1-1.8,2-2.8,3c-0.5,0.5-1,1-1.5,1.4
														c-0.1,0.1-0.1,0.2-0.1,0.2c0,0,0.1,0.1,0.2,0.1c0.3,0,0.6,0,0.9-0.1c1.3-0.3,2.3-1.4,3.6-2c0.7-0.3,1.4-0.2,2-0.3
														C121.5,117,122.2,116.7,122.4,116L122.4,116z"/>
												</g>
											</g>
										</g>
									</g>
								</g>
							</g>
							<g>
								<g>
									<g>
										<g>
											<g>
												<g>
													<g>
														<path class="st14" d="M118.5,114.7c0,0-0.2,0.1-0.5,0.4c-0.3,0.3-0.8,0.7-1.3,1.2c-0.6,0.5-1.2,1.1-1.9,1.8
															c-0.2,0.2-0.4,0.3-0.5,0.5c-0.2,0.2-0.4,0.3-0.5,0.7c0,0.2,0.2,0.4,0.3,0.5c0.2,0.1,0.3,0.1,0.5,0.1
															c0.3,0,0.6-0.1,0.9-0.2c1.1-0.4,1.9-1.1,2.8-1.6c0.4-0.2,0.8-0.4,1.3-0.5c0.4-0.1,0.8-0.1,1.2-0.1
															c0.8,0,1.4-0.4,1.6-0.8c0.2-0.4,0.2-0.6,0.2-0.6c0,0,0,0.2-0.3,0.6c-0.3,0.3-0.8,0.6-1.5,0.6c-0.4,0-0.8,0-1.2,0.1
															c-0.4,0.1-0.9,0.2-1.3,0.5c-0.9,0.4-1.7,1.1-2.8,1.5c-0.3,0.1-0.5,0.2-0.8,0.2c-0.2,0-0.5-0.1-0.4-0.2
															c0-0.1,0.2-0.3,0.4-0.5c0.2-0.2,0.4-0.4,0.5-0.5c0.7-0.7,1.3-1.3,1.9-1.8c0.5-0.5,0.9-0.9,1.2-1.2
															C118.4,114.9,118.5,114.7,118.5,114.7z"/>
														<path class="st13" d="M118.5,114.7c-0.3,0.3-0.7,0.6-1,0.9c-0.4,0.3-0.7,0.7-1,1c-0.7,0.7-1.3,1.4-2,2l0,0
															c-0.4,0.3-0.5,0.6-0.3,0.8c0.2,0.2,0.7,0,1.2-0.1c0.9-0.2,1.6-0.8,2.4-1.2c0.4-0.2,0.8-0.5,1.3-0.6
															c0.5-0.2,0.9-0.2,1.4-0.2c0.5,0,0.9-0.1,1.3-0.3c0.2-0.1,0.4-0.3,0.5-0.4c0.1-0.1,0.1-0.2,0.1-0.3c0,0,0-0.1,0-0.1
															l0-0.1l0,0l0,0l0,0l0,0l0,0c0,0.1,0.2,0.1,0.2,0l-0.1,0c0.2,0,0.1-0.1,0.2-0.1c0,0,0,0,0,0l0,0l0,0.1
															c0,0.1,0,0.1-0.1,0.2c0,0.1-0.1,0.2-0.2,0.3c-0.1,0.2-0.3,0.3-0.5,0.4c-0.4,0.2-0.8,0.3-1.2,0.3l-1.1,0.1
															c-0.4,0.1-0.7,0.2-1.1,0.4c-0.7,0.3-1.3,0.8-2,1.2c-0.4,0.2-0.7,0.4-1.1,0.5l-0.6,0.1c-0.1,0-0.2,0-0.4,0
															c-0.1,0-0.1,0-0.2-0.1c-0.1,0-0.2-0.2-0.2-0.4l0,0c0-0.3,0.2-0.4,0.3-0.5l0.3-0.3l0.6-0.5l1.2-1.1
															c0.4-0.4,0.8-0.7,1.2-1.1C117.7,115.4,118.1,115,118.5,114.7z M118.5,114.7c-0.3,0.5-0.7,0.8-1.1,1.2l-1.1,1.2
															l-1.1,1.2l-0.6,0.6l-0.3,0.3c-0.1,0.1-0.1,0.2-0.1,0.2l0,0c0-0.2-0.1-0.1,0-0.1c0.1,0,0.1,0,0.2,0l0.5-0.1
															c0.4-0.1,0.7-0.3,1-0.5c0.7-0.4,1.3-0.8,2.1-1.2c0.4-0.2,0.8-0.3,1.2-0.4l1.2-0.1c0.4,0,0.7-0.1,1.1-0.2
															c0.2-0.1,0.3-0.2,0.4-0.3c0.1-0.1,0.1-0.1,0.1-0.2c0,0,0-0.1,0-0.1l0-0.1l0,0l0,0c0,0,0-0.1,0.2-0.1l-0.1,0
															c0-0.1,0.2,0,0.2,0l0,0l0,0l0,0l0,0l0,0.1c0,0,0,0.1,0,0.1c0,0.1,0,0.1,0,0.2c0,0.1-0.1,0.2-0.2,0.3
															c-0.2,0.2-0.4,0.4-0.6,0.5c-0.4,0.2-0.9,0.3-1.4,0.3c-0.5,0.1-0.9,0-1.4,0.2c-0.4,0.2-0.8,0.4-1.2,0.6
															c-0.8,0.5-1.5,1.1-2.4,1.4l-0.7,0.2c-0.2,0.1-0.5,0-0.8-0.1c-0.1-0.1-0.2-0.2-0.3-0.4c-0.1-0.2,0-0.3,0-0.5
															c0.1-0.3,0.4-0.5,0.5-0.6l0,0c0.7-0.7,1.4-1.3,2.2-1.9l1.1-0.9C117.7,115.3,118,114.9,118.5,114.7z"/>
													</g>
												</g>
											</g>
										</g>
									</g>
								</g>
							</g>
						</g>
						<g>
							<g>
								<g>
									<g>
										<g>
											<g>
												<g>
													<path class="st14" d="M119.4,121.3c0,0,0-0.2,0.2-0.5c0.2-0.3,0.5-0.7,1-0.9l0,0.2c-0.2-0.1-0.4-0.2-0.7-0.3
														c-1.3-0.7-1.9-1.7-1.9-1.8c0,0,0.8,0.9,2,1.6c0.2,0.1,0.4,0.2,0.6,0.3l0.2,0.1l-0.2,0.1c-0.5,0.2-0.8,0.5-1,0.8
														C119.5,121.2,119.4,121.3,119.4,121.3z"/>
													<path class="st13" d="M119.4,121.4c0-0.2,0.1-0.3,0.1-0.5c0.1-0.1,0.1-0.3,0.2-0.4c0.2-0.3,0.4-0.5,0.8-0.7l0.3-0.1
														l0,0.3l0,0.2l0,0.3l-0.3-0.1c-0.5-0.2-1-0.6-1.4-1l-0.6-0.6c-0.1-0.1-0.2-0.2-0.3-0.3l-0.1-0.2l-0.1-0.1l0-0.1l0,0
														c0,0,0,0,0,0c0-0.1,0-0.1,0.1-0.1l0,0c0,0,0.1,0,0.1,0c0.1,0,0,0,0,0l0,0l0.1,0l0.1,0.1l0.2,0.1l0.3,0.3
														c0.2,0.2,0.4,0.4,0.7,0.5c0.5,0.3,1,0.6,1.5,0.8l0.5,0.3l-0.5,0.2c-0.3,0.1-0.6,0.2-0.9,0.3c-0.1,0.1-0.3,0.2-0.4,0.3
														C119.6,121.1,119.5,121.2,119.4,121.4z M119.4,121.3c0-0.1,0.1-0.3,0.2-0.4c0.1-0.1,0.2-0.3,0.3-0.4
														c0.2-0.3,0.6-0.5,0.9-0.6l0,0.4c-0.3-0.1-0.5-0.2-0.8-0.4c-0.3-0.1-0.5-0.3-0.8-0.5c-0.2-0.2-0.5-0.4-0.7-0.6
														c-0.1-0.1-0.2-0.2-0.3-0.3l-0.1-0.2l-0.1-0.1l0,0l0,0c0,0,0,0,0,0c0,0,0.1,0,0.1,0l0,0c0,0,0.1-0.1,0.1-0.1
														c0,0,0,0,0,0l0,0l0,0l0,0.1l0.1,0.2c0.1,0.1,0.2,0.2,0.3,0.3c0.2,0.2,0.4,0.4,0.6,0.5c0.5,0.3,1,0.5,1.5,0.7l-0.3,0.2
														l0-0.2l0.3,0.2c-0.3,0.1-0.5,0.2-0.8,0.4c-0.1,0.1-0.2,0.2-0.3,0.3C119.5,121,119.4,121.2,119.4,121.3z"/>
												</g>
											</g>
										</g>
									</g>
								</g>
							</g>
						</g>
					</g>
					<path class="st16" d="M155.7,130.8l23.1-3.9c0,0-1,17.1-1,24.1c0,9.6-2.7,26.4-2.7,26.4l49,0.7l1.3-39.8l2.4-31.4l-8.2-5.8
						l-3.4-3.3l-5.3,4.9c-4.5,4.2-11.8,2.7-14.4-2.8l-0.8-1.6l-5,1.3l-14.7,4.2l-24.9,11.6l-19.7-0.2l-2.6,13.5L155.7,130.8z"/>
					<g>
						<path class="st2" d="M179.8,126.1c-0.1,0-0.2-3.5-0.2-7.9c0-4.4,0.1-7.9,0.2-7.9c0.1,0,0.2,3.5,0.2,7.9
							C180.1,122.6,180,126.1,179.8,126.1z"/>
					</g>
					<path class="st2" d="M227.5,109l-9.8-6c0,0,0,0,0,0l-3.4-4.6l0.2,0c-1.2,1.3-2.3,2.7-3.6,3.9c-1.3,1.2-3.1,2-4.9,2.2
						c-1.8,0.2-3.7-0.1-5.3-1c-1.6-0.8-2.9-2.2-3.8-3.8l0-0.1l0,0c0.1,0-0.2-0.1,0.2,0.1l0,0l0,0l-0.2,0.1l-0.3,0.1l-0.6,0.2
						l-1.3,0.4l-2.6,0.7l-5.1,1.5l-10.3,3l0,0l-23.6,10.9c0,0,0,0-0.1,0L133,116l0.1-0.1l-2.3,12.3l-0.1-0.1l24.5,1.5l0,0l24.7-4.5
						c0.1,0,0.2,0,0.2,0.1l0,0l-1.2,25c-0.4,8.3-1.1,16.7-2.1,25l-0.2-0.3l22.8,0.3l22.8,0.4l-0.2,0.2l1.4-36.2c0,0,0,0,0,0
						c0,0,0,0,0,0l-1.1,36.2c0,0.1-0.1,0.2-0.2,0.2l-22.8-0.2l-22.8-0.3c-0.1,0-0.2-0.1-0.2-0.2l0,0c1-8.3,1.7-16.6,2.1-24.9l1.3-25
						l0.2,0.2l-24.7,4.4l0,0l-24.5-1.6c0,0-0.1,0-0.1-0.1l0,0l2.3-12.3c0-0.1,0.1-0.1,0.1-0.1l20.1,0.6l-0.1,0l23.5-11l0,0l10.3-2.9
						l5.1-1.5l2.6-0.7l1.3-0.4l0.6-0.2l0.3-0.1l0.2,0l0,0l0,0c0.4,0.2,0.1,0.1,0.2,0.1l0,0l0,0.1c0.8,1.6,2.1,2.9,3.6,3.7
						c1.5,0.8,3.3,1.2,5.1,1c1.7-0.2,3.4-0.9,4.7-2.1c1.3-1.2,2.4-2.6,3.6-3.9c0-0.1,0.1-0.1,0.2,0l0,0l3.4,4.7l0,0L227.5,109
						C227.6,109,227.6,109,227.5,109C227.6,109,227.6,109,227.5,109z"/>
					<g>
						<g>
							<path class="st14" d="M219.2,190.6c-2.6-1.7-3.8-3.3-4.8-5c0-0.1,0-0.1,0-0.2c0-0.1-0.1-0.1-0.2-0.1
								c-0.6-0.9-1.1-1.8-1.4-2.5c1.5-1,3.5-2.5,1.3-2.8c-2.6-0.4-4.5-1.6-4.8-2.3c-0.3-0.7,0.6-1.3,1.3-0.9
								c0.6,0.4,1.7,0.7,2.5,0.9c0.7,0.2,1.4,0.2,2.1,0.1c0.4,0,2-1.1,3.7-1.9c0.2-0.1,0.5-0.1,0.8-0.1l0.6,0c0.7,0,1.3-0.5,1.6-1.1
								l2.4-4.7l7.3,4.3l-5.8,8.1C226,182.5,222,187.8,219.2,190.6z"/>
							<path class="st13" d="M219.2,190.6c-1-0.6-1.9-1.3-2.8-2.1c-0.8-0.8-1.5-1.8-2.2-2.7l0-0.1l0-0.1c0,0,0,0,0,0c0,0,0,0,0,0
								c0,0,0,0-0.1,0l-0.1,0l0-0.1l-1.4-2.5l-0.1-0.2l0.2-0.1c0.7-0.5,1.5-1,2-1.7c0.1-0.2,0.2-0.3,0.1-0.4c0-0.1-0.2-0.2-0.4-0.2
								c-0.4-0.1-0.9-0.2-1.3-0.3c-0.9-0.2-1.8-0.6-2.6-1c-0.4-0.2-0.8-0.5-1.1-0.9c-0.1-0.2-0.3-0.4-0.3-0.7c0-0.3,0.2-0.5,0.4-0.7
								c0.2-0.1,0.5-0.2,0.7-0.2c0.3,0,0.5,0.2,0.7,0.3c0.4,0.2,0.8,0.3,1.2,0.5c0.9,0.3,1.7,0.5,2.6,0.5c0.2,0,0.5,0,0.6-0.1
								c0.2-0.1,0.4-0.2,0.6-0.3l1.2-0.7c0.4-0.2,0.8-0.4,1.2-0.7c0.2-0.1,0.4-0.2,0.6-0.3c0.2-0.1,0.5-0.1,0.7-0.1l0,0
								c0.3,0,0.7,0,1-0.1c0.3-0.1,0.6-0.2,0.8-0.4c0.2-0.2,0.4-0.5,0.5-0.8l0.4-0.9l1.8-3.5l0.1-0.2l0.2,0.1l7.4,4.3l0.3,0.1
								l-0.2,0.2c-2,2.8-4,5.5-6,8.3c-1.1,1.3-2.1,2.7-3.2,4C221.6,188.2,220.5,189.4,219.2,190.6z M219.2,190.6
								c1.1-1.2,2.2-2.6,3.3-3.9c1.1-1.3,2.1-2.7,3.1-4l3-4.2l3-4.2l0.1,0.4l-7.3-4.4l0.3-0.1l-1.9,3.5l-0.5,0.9
								c-0.1,0.3-0.3,0.6-0.6,0.8c-0.3,0.2-0.6,0.4-0.9,0.5c-0.4,0.1-0.7,0.1-1,0.1l0,0l0,0c-0.4-0.1-0.8,0.1-1.2,0.3
								c-0.4,0.2-0.8,0.4-1.2,0.6l-1.2,0.7c-0.2,0.1-0.4,0.2-0.6,0.3c-0.2,0.1-0.5,0.1-0.7,0.1c-0.9,0-1.8-0.2-2.7-0.4
								c-0.4-0.1-0.9-0.3-1.3-0.5c-0.2-0.1-0.4-0.2-0.6-0.3c-0.2,0-0.4,0-0.5,0.1c-0.3,0.2-0.3,0.7,0,1c0.3,0.3,0.6,0.6,1,0.8
								c0.8,0.4,1.6,0.7,2.5,1c0.4,0.1,0.8,0.1,1.3,0.3c0.2,0.1,0.5,0.1,0.7,0.5c0.2,0.4,0,0.7-0.2,0.9c-0.6,0.8-1.4,1.2-2.2,1.8
								l0.1-0.3l1.4,2.5l-0.1-0.1c0.1,0,0.2,0,0.3,0.2c0,0,0.1,0.1,0.1,0.2c0,0.1,0,0.1,0,0.2l0-0.2c0.6,1,1.3,1.9,2.1,2.8
								C217.4,189.2,218.3,189.9,219.2,190.6z"/>
						</g>
					</g>
					<g>
						<path class="st17" d="M220.7,191.4c0,0-0.7-0.2-1.7-0.8c-1-0.6-2.3-1.6-3.5-2.9c-1.2-1.3-2-2.7-2.5-3.8
							c-0.5-1.1-0.6-1.8-0.6-1.8c0.1-0.1,1,2.7,3.4,5.3C218.1,190.1,220.8,191.3,220.7,191.4z"/>
					</g>
					<g>
						<path class="st17" d="M197.6,196.2c0,0-0.1,0-0.2-0.1c-0.1-0.1-0.3-0.2-0.5-0.3c-0.4-0.3-0.9-1-1.2-1.9
							c-0.3-0.9-0.5-2-0.8-3.2c-0.3-1.2-0.5-2.5-0.8-3.9c-0.6-2.8-1-5.4-1.2-7.2c-0.1-0.9-0.2-1.7-0.3-2.2c-0.1-0.5-0.1-0.8,0-0.8
							c0,0,0.1,0.3,0.2,0.8c0.1,0.6,0.2,1.3,0.4,2.2c0.3,1.8,0.8,4.4,1.4,7.2c0.3,1.4,0.5,2.7,0.8,3.9c0.3,1.2,0.4,2.3,0.7,3.2
							c0.3,0.9,0.7,1.5,1,1.9C197.4,196,197.6,196.1,197.6,196.2z"/>
					</g>
					<g>
						<path class="st17" d="M197,179.4c0,0,0.1,0,0.3,0c0.2,0.1,0.5,0.3,0.7,0.6c0.2,0.3,0.3,0.9-0.1,1.4c-0.3,0.4-0.9,0.8-1.6,0.6
							c-0.6-0.2-1-0.7-1.1-1.3c-0.1-0.6,0.2-1,0.5-1.3c0.6-0.5,1.2-0.4,1.2-0.3c0,0.1-0.5,0-1,0.5c-0.2,0.2-0.4,0.6-0.3,1
							c0.1,0.4,0.4,0.8,0.8,1c0.4,0.1,0.9-0.1,1.2-0.4c0.3-0.3,0.2-0.7,0.1-1C197.5,179.5,197,179.4,197,179.4z"/>
					</g>
					<g>
						<path class="st17" d="M181.1,176.4c0,0,0.2,0.6,0.2,1.7c0,1.1-0.3,2.6-1.1,4c-0.8,1.5-1.9,2.5-2.8,3.1
							c-0.9,0.6-1.5,0.8-1.5,0.8c0-0.1,0.6-0.4,1.4-1c0.8-0.6,1.8-1.7,2.6-3.1c0.8-1.4,1.1-2.8,1.2-3.9
							C181.1,177,181,176.4,181.1,176.4z"/>
					</g>
					<g>
						<g>
							<path class="st2" d="M152.1,123.9c-0.1,0,0.1-1.7,0.4-3.7c0.3-2,0.4-3.7,0.5-3.7c0.1,0,0.1,1.7-0.2,3.7
								C152.6,122.3,152.2,123.9,152.1,123.9z"/>
						</g>
					</g>
					<path class="st16" d="M227.8,106.9c0,0,6.2,5.3,6.6,8.3c0.3,2.3,6.4,24.1,9.1,33.9c0.9,3,0.7,6.3-0.5,9.2l-7.9,19.5l-12.8-7.6
						l6.4-18.3l-5.3-15.5L227.8,106.9z"/>
					<path class="st2" d="M227.6,109c1.1,1,2.2,2,3.1,3.2c0.9,1.1,1.9,2.3,2.3,3.8c0.6,2.9,1.4,5.7,2.2,8.6l4.7,17.1l1.2,4.3
						c0.4,1.4,0.9,2.8,1,4.3c0.2,1.5,0.1,3-0.2,4.5c-0.3,1.5-1,2.8-1.5,4.2c-2.3,5.5-4.4,11-6.6,16.5c0,0.1-0.1,0.1-0.2,0.1l0,0
						l-12.1-7.1c-0.1-0.1-0.1-0.2-0.1-0.2l6-17.3l0,0.2c-0.7-1.9-1.4-3.8-2.1-5.7c-0.7-1.9-1.3-3.8-2-5.7c0,0,0,0,0,0c0,0,0,0,0,0
						c0.8,1.9,1.5,3.7,2.3,5.6c0.8,1.9,1.5,3.8,2.2,5.7c0,0.1,0,0.1,0,0.2l-6.1,17.3l-0.1-0.2l12,7.2l-0.2,0.1
						c2.2-5.5,4.5-11,6.7-16.5c0.5-1.4,1.2-2.7,1.5-4.2c0.3-1.4,0.4-2.9,0.2-4.4c-0.2-1.5-0.7-2.9-1.1-4.3l-1.2-4.3
						c-1.6-5.7-3.2-11.4-4.7-17.2c-0.7-2.9-1.6-5.7-2.1-8.6c-0.4-1.4-1.3-2.6-2.2-3.8C229.6,111.1,228.6,110.1,227.6,109
						C227.5,109,227.5,109,227.6,109C227.5,109,227.6,109,227.6,109z"/>
					<g>
						<path class="st2" d="M233.6,175.5c0,0-0.1,0-0.2-0.1c-0.2-0.1-0.4-0.2-0.6-0.4c-0.6-0.3-1.4-0.8-2.4-1.4
							c-2.1-1.2-5.2-3-8.8-5.2l-0.1-0.1l0-0.1c1.7-4.9,3.7-10.8,6-17.3l0,0.1c-0.7-1.9-1.4-3.9-2.2-5.9c-1.8-4.8-3.5-9.3-5-13.5l0,0
							c-1.5-3.2-2.9-6.3-3.2-9.3c-0.2-1.5-0.1-2.9,0.1-4.2c0.3-1.3,0.7-2.4,1.2-3.4c1-1.9,2.2-3.2,3.1-3.9c0.4-0.4,0.8-0.7,1-0.8
							c0.2-0.2,0.4-0.3,0.4-0.3c0,0-0.1,0.1-0.4,0.3c-0.2,0.2-0.6,0.5-1,0.9c-0.8,0.8-2,2.1-3,4c-0.5,0.9-0.9,2.1-1.1,3.3
							c-0.2,1.2-0.3,2.6-0.1,4.1c0.4,2.9,1.7,6,3.3,9.2l0,0l0,0c1.5,4.1,3.2,8.7,5,13.4c0.8,2,1.5,4,2.2,5.9l0,0.1l0,0.1
							c-2.3,6.5-4.4,12.4-6.1,17.3l-0.1-0.2c3.7,2.2,6.7,4,8.8,5.3c1,0.6,1.8,1.1,2.4,1.5c0.3,0.2,0.5,0.3,0.6,0.4
							C233.5,175.5,233.6,175.5,233.6,175.5z"/>
					</g>
					<path class="st2" d="M190.6,130.8c0.4,3.1,1.4,6,2.5,8.9c1.2,2.9,2.5,5.6,4.2,8.2c0.4,0.7,0.8,1.3,1.3,1.9l0.6,1l0.7,0.9
						l1.4,1.8l1.5,1.8c1,1.2,2.1,2.3,3.1,3.4c1.1,1.1,2.2,2.1,3.4,3.2c-1.2-1-2.4-2-3.5-3c-1.1-1.1-2.3-2.1-3.3-3.3l-1.5-1.7
						l-1.4-1.8l-0.7-0.9l-0.7-1c-0.4-0.6-0.9-1.3-1.3-1.9c-1.6-2.7-3-5.4-4.1-8.4C191.7,137,190.8,133.9,190.6,130.8z"/>
					<path class="st2" d="M186,148.8c0.9,1.6,2,3.1,3.2,4.4c1.2,1.4,2.5,2.6,4,3.8c1.4,1.1,2.9,2.2,4.5,3.1c1.6,0.9,3.2,1.7,4.9,2.5
						c-0.9-0.3-1.7-0.6-2.6-0.9c-0.8-0.4-1.7-0.7-2.5-1.2c-1.7-0.8-3.2-1.9-4.7-3c-1.4-1.2-2.8-2.5-4-3.9
						C187.8,152,186.8,150.5,186,148.8z"/>
					<path class="st2" d="M191.7,64.3c0,0,3.6,2.6,9.3,0.9c3.7-1.1,7.8-1.3,8.5-0.4c0.8,0.8,0.3,4.4,3.5,6c0,0-1.4,6.6,1.3,6.9
						c2.7,0.2,2.8-10.4,2.8-10.4l-3.9-5.2l-6.5-4.2h-8l-6.8,2.9L191.7,64.3z"/>
					<g>
						<path class="st17" d="M126.5,99.6c0.1,0.4,1.2,26.6,1.2,26.6l-14.5-1.5l-1.6-21.6L126.5,99.6z"/>
						<polygon class="st2" points="127.8,126.2 129.2,125.9 127.9,99.3 126.4,99.6 						"/>
						<path class="st2" d="M119.1,104.7c0,0.3-0.3,0.6-0.6,0.6c-0.3,0-0.6-0.3-0.6-0.6c0-0.3,0.3-0.6,0.6-0.6
							C118.8,104.1,119.1,104.3,119.1,104.7z"/>
					</g>
				</g>
				<path class="st9" d="M225.6,154.7c0,0-15.2-14.4-17.8-29.9c-2.6-15.6,14.9-23.6,14.9-23.6l5.5,3.1c0,0-15,5.9-15,16.5
					c0,10.5,12.3,29.4,12.3,29.4L225.6,154.7z"/>
				<path class="st2" d="M225.6,153.3c-4-3.8-7.5-8-10.5-12.5c-3-4.5-5.6-9.4-6.9-14.8c-0.3-1.3-0.6-2.7-0.7-4
					c-0.1-1.4-0.1-2.7,0.1-4.1c0.4-2.7,1.4-5.3,2.9-7.6c3-4.6,7.4-8.1,12.2-10.6c0,0,0.1,0,0.1,0l0,0l5.6,3.1
					c0.1,0.1,0.1,0.2,0.1,0.3c0,0-0.1,0.1-0.1,0.1l0,0c-2.1,0.9-4.1,2-6.1,3.3c-1.9,1.3-3.7,2.8-5.2,4.5c-1.5,1.7-2.7,3.7-3.2,6
					c-0.6,2.2-0.2,4.5,0.2,6.8c1,4.5,2.9,8.8,4.9,12.9c2,4.2,4.3,8.2,6.7,12.1c0,0,0,0,0,0L225.6,153.3z M225.6,153.2l0-4.5l0,0
					c-2.6-3.9-4.9-7.9-7-12.1c-2.1-4.2-4-8.4-5-13c-0.5-2.3-0.8-4.7-0.2-7c0.5-2.3,1.8-4.4,3.4-6.2c1.5-1.8,3.4-3.3,5.3-4.6
					c1.9-1.3,4-2.4,6.2-3.3l0,0.3l-5.5-3.1l0.1,0c-2.4,1.2-4.7,2.7-6.8,4.4c-2.1,1.7-4,3.7-5.4,6c-1.5,2.3-2.4,4.9-2.8,7.6
					c-0.2,1.3-0.2,2.7,0,4c0.2,1.3,0.4,2.7,0.8,4c1.4,5.2,3.9,10.1,6.8,14.7C218.4,145.1,221.8,149.3,225.6,153.2z"/>
			</g>
			<g class="st8">
				<g>
					<path class="st14" d="M112.2,113c0,0,4-1.3,4.4,2.4c0.4,3.8-1.2,7.6-3.9,6.8"/>
					<path class="st13" d="M112.2,112.9c0.6-0.3,1.2-0.4,1.9-0.4c0.6,0,1.4,0.2,1.8,0.8c0.5,0.5,0.6,1.2,0.7,1.8
						c0.1,0.6,0.1,1.3,0.1,1.9c0,1.3-0.2,2.6-0.8,3.7c-0.3,0.6-0.8,1.1-1.4,1.4c-0.6,0.3-1.3,0.3-1.9,0.1l0,0c0.6,0.1,1.2,0,1.7-0.3
						c0.5-0.3,0.8-0.8,1.1-1.3c0.6-1.1,0.8-2.3,1-3.5c0.1-1.2,0-2.6-0.9-3.4C114.7,112.8,113.4,112.8,112.2,112.9L112.2,112.9z"/>
				</g>
				<g>
					<path class="st14" d="M116.5,115.3c0,0-1.9-0.7-4.2,0"/>
					<path class="st13" d="M116.5,115.3c-0.4,0-0.7,0-1.1-0.1c-0.2-0.1-0.3-0.2-0.5-0.2c-0.2,0-0.4,0-0.5,0
						c-0.7,0.2-1.3,0.3-2.1,0.2l0,0c0.6-0.5,1.4-0.6,2.1-0.4c0.2,0,0.4,0.1,0.5,0.1c0.2,0,0.4-0.1,0.6-0.1
						C115.9,114.8,116.2,115,116.5,115.3L116.5,115.3z"/>
				</g>
				<g>
					<path class="st14" d="M116.4,117.7c0,0-2.2-0.7-4.8,0"/>
					<path class="st13" d="M116.4,117.7c-0.8,0-1.6-0.1-2.4-0.1c-0.4,0-0.8,0-1.2,0l-1.2,0c0.7-0.4,1.6-0.6,2.4-0.6
						c0.4,0,0.8,0,1.2,0.1C115.6,117.3,116,117.5,116.4,117.7z"/>
				</g>
				<g>
					<path class="st14" d="M116,120.2c0,0-1.9-0.7-4.2,0"/>
					<path class="st13" d="M116,120.2c-0.4,0-0.7,0-1.1-0.1c-0.2-0.1-0.3-0.2-0.5-0.2c-0.2,0-0.4,0-0.5,0c-0.7,0.2-1.3,0.3-2.1,0.2
						l0,0c0.6-0.5,1.4-0.6,2.1-0.4c0.2,0,0.4,0.1,0.5,0.1c0.2,0,0.4-0.1,0.6-0.1C115.3,119.7,115.7,119.9,116,120.2L116,120.2z"/>
				</g>
			</g>
		</g>
	</g>
	<g>
		<path class="st0" d="M73.3,102.9c-0.8,20.2-15.7,36.9-35.9,37.3C17.1,140.6,0.4,124.5,0,104.3C-0.4,84.1,15.7,65.4,35.9,67
			C57.4,68.6,74,84.4,73.3,102.9z"/>
		<g>
			<defs>
				<path id="SVGID_5_" d="M73.3,102.9c-0.8,20.2-15.7,36.9-35.9,37.3C17.1,140.6,0.4,124.5,0,104.3C-0.4,84.1,15.7,65.4,35.9,67
					C57.4,68.6,74,84.4,73.3,102.9z"/>
			</defs>
			<clipPath id="SVGID_6_">
				<use xlink:href="#SVGID_5_"  style="overflow:visible;"/>
			</clipPath>
			<g class="st18">
				<g>
					<g>
						<path class="st19" d="M-12.4,156.4l14.6,9l-5.4,12.9c-4.9-4.6-8.9-10.2-11.5-16.6L-12.4,156.4z"/>
						<g>
							<path class="st3" d="M-16.3,156.7c1.9-4.5,8.4-19.5,13.8-25c8.1-8.4,22.4-7.2,22.4-7.2l18.6,0.7c0,0,7.1,0.8,13.7,4.2
								l0.5,0.1l0,0.1c5.2,2.8,12.6,9.6,19.6,16.2l-8.4,7.8l-9.3,8.2c0,0,0,0.1,0,0.2c-0.1,0.5,1.5,10.5,2.9,19.1
								c-8.2,6.3-18.5,10-29.6,9.8c-7.1-0.1-13.8-1.8-19.7-4.8l-0.7-8c-0.6-7.2-1.1-16.2-1.1-16.2l-2.7,6.8l-19.4-10.1
								C-16,157.9-16.2,157.3-16.3,156.7z"/>
							<g>
								<path class="st2" d="M19.4,123.7c0,0,0,0.1-0.1,0.3c-0.1,0.2-0.1,0.5-0.1,1c-0.1,0.8,0,2.1,0.5,3.6c0.5,1.4,1.4,3.1,2.9,4.4
									c1.5,1.4,3.7,2.2,6.1,2.4c2.3,0.1,4.6-0.6,6.3-1.8c1.7-1.2,2.7-2.8,3.3-4.1c0.6-1.4,0.8-2.7,0.8-3.5c0-0.4,0-0.8,0-1
									c0-0.2,0-0.3,0-0.3c0,0,0,0.5-0.1,1.3c-0.1,0.8-0.3,2.1-0.9,3.4c-0.6,1.4-1.7,2.9-3.3,4c-1.6,1.2-3.8,1.8-6.1,1.7
									c-2.3-0.1-4.4-1-5.9-2.3c-1.5-1.3-2.4-2.9-2.9-4.3c-0.5-1.4-0.6-2.6-0.6-3.5C19.3,124.2,19.4,123.7,19.4,123.7z"/>
							</g>
							<g>
								<path class="st2" d="M1.7,127.7c0,0,0.5,0,1.3,0.3c0.8,0.3,1.9,1,2.9,2.2c1,1.2,1.6,3,1.8,5.1c0.1,1,0.2,2.1,0.2,3.2
									c0,1.1,0.1,2.3,0.1,3.5c0,4.8-0.2,9.1-0.6,12.2c-0.1,1.6-0.3,2.8-0.4,3.7c0,0.4-0.1,0.7-0.1,1c0,0.2,0,0.4,0,0.4
									c0,0,0-0.1,0.1-0.3c0-0.3,0.1-0.6,0.2-1c0.1-0.9,0.3-2.1,0.5-3.7c0.4-3.1,0.7-7.5,0.7-12.3c0-1.2,0-2.4-0.1-3.5
									c0-1.1-0.1-2.2-0.2-3.3c-0.3-2.1-0.9-3.9-1.9-5.2c-1-1.3-2.2-1.9-3-2.2C2.2,127.6,1.7,127.7,1.7,127.7z"/>
							</g>
							<g>
								<path class="st2" d="M45.9,126.5c0,0,0,0.1,0.1,0.4c0.1,0.3,0.2,0.6,0.3,1c0.3,0.9,0.6,2.2,1.1,3.7
									c0.9,3.2,2.1,7.5,3.3,12.4c1.2,4.9,2.1,9.3,2.7,12.5c0.3,1.6,0.6,2.9,0.7,3.8c0.1,0.4,0.2,0.8,0.2,1
									c0.1,0.2,0.1,0.4,0.1,0.4c0,0,0-0.1,0-0.4c0-0.3-0.1-0.6-0.1-1c-0.1-0.9-0.3-2.2-0.6-3.8c-0.6-3.2-1.5-7.7-2.6-12.6
									c-1.2-4.9-2.4-9.2-3.4-12.4c-0.5-1.6-0.9-2.8-1.2-3.7c-0.1-0.4-0.3-0.7-0.3-1C45.9,126.6,45.9,126.5,45.9,126.5z"/>
							</g>
							<g>
								<path class="st2" d="M-16,153.6c0,0,0.3,0.2,0.8,0.6c0.5,0.3,1.2,0.8,2.1,1.4c1.8,1.2,4.4,2.8,7.3,4.4
									c2.9,1.6,5.5,3.1,7.5,4c1,0.5,1.8,0.9,2.3,1.1c0.6,0.3,0.9,0.4,0.9,0.4c0,0-0.3-0.2-0.8-0.5c-0.6-0.3-1.3-0.7-2.3-1.2
									c-1.9-1-4.5-2.5-7.4-4.1c-2.9-1.6-5.4-3.2-7.3-4.3c-0.9-0.5-1.6-1-2.2-1.3C-15.7,153.7-16,153.5-16,153.6z"/>
							</g>
							<g>
								<path class="st2" d="M53.5,156.4c0.1,0.1,3.7-2.8,8.2-6.4c4.4-3.6,8-6.6,7.9-6.7c-0.1-0.1-3.7,2.8-8.2,6.4
									C57,153.3,53.5,156.3,53.5,156.4z"/>
							</g>
							<path class="st20" d="M8.2,143.3l-7.3,23.9l2.7,1.4l2.7-6.8C6.3,161.9,9,147.7,8.2,143.3z"/>
							<g class="st20">
								<path d="M45.1,126.5c3.9,2.1-5.9,7-10.3,6.9l3.2-8.5C38,124.9,43.8,125.8,45.1,126.5z"/>
							</g>
						</g>
						<g>
							<path class="st2" d="M22.3,96.1c0.2,0.6-0.1,1.4-0.6,1.8c-0.5,0.4-1.3,0.5-1.9,0.2c-1.1-0.6-1.2-2.2-1-3.4
								c0.2-1.2,0.7-2.6,0.2-3.7c-0.4-0.9-1.2-1.5-1.9-2.2c-1.2-1.2,0.1-3.6,0.4-5.2c0.3-1.7-0.6-4.3,0.1-5.9
								c0.9-2,7.1-3.9,15.8-5.6c5.8-1.1,13.5-0.2,17.4,3c2.7,2.3,2.9,6.7,1.2,9.8c-0.6,1.1-1.5,2.1-2.7,2.6"/>
							<g>
								<g>
									<g>
										<g>
											<g>
												<path class="st19" d="M29.1,135.2L29.1,135.2c5.1,0,9.3-4,9.6-9c0.2-4.2,0.4-8.3,0.4-8.3s7.8-0.6,8.5-8.2
													c0.7-7.7,0.8-25.3,0.8-25.3l0,0c-8.6-4.5-19.1-4.1-27.3,1.2L20.4,86l-0.9,39.6C19.4,130.9,23.7,135.2,29.1,135.2z"/>
											</g>
											<g>
												<g>
													<path class="st2" d="M33.5,96.1c0.6,0.2,0.9,0.8,0.7,1.4c-0.2,0.6-0.8,0.9-1.4,0.7c-0.6-0.2-0.9-0.8-0.7-1.4
														C32.3,96.2,33,95.9,33.5,96.1z"/>
												</g>
												<g>
													<g>
														<path class="st2" d="M35.7,96.5c-0.1,0.1-0.9-0.5-1.9-0.6c-1.1-0.1-1.9,0.4-2,0.3c-0.1-0.1,0.1-0.3,0.4-0.5
															c0.3-0.2,0.9-0.4,1.6-0.4c0.7,0,1.2,0.3,1.5,0.6C35.7,96.2,35.8,96.4,35.7,96.5z"/>
													</g>
												</g>
											</g>
											<g>
												<g>
													<path class="st2" d="M45.2,96.1c0.6,0.2,0.9,0.8,0.7,1.4c-0.2,0.6-0.8,0.9-1.4,0.7c-0.6-0.2-0.9-0.8-0.7-1.4
														C44,96.2,44.6,95.9,45.2,96.1z"/>
												</g>
												<g>
													<g>
														<path class="st2" d="M47.5,96.5c-0.1,0.1-0.9-0.5-1.9-0.6c-1.1-0.1-1.9,0.4-2,0.3c-0.1-0.1,0.1-0.3,0.4-0.5
															c0.3-0.2,0.9-0.4,1.6-0.4c0.7,0,1.2,0.3,1.5,0.6C47.5,96.2,47.6,96.4,47.5,96.5z"/>
													</g>
												</g>
											</g>
											<g>
												<g>
													<path class="st2" d="M39.5,104.8c0-0.1,0.7-0.2,1.8-0.2c0.3,0,0.5-0.1,0.5-0.2c0.1-0.2,0-0.5-0.1-0.8
														c-0.2-0.7-0.4-1.4-0.7-2.2c-0.9-3.1-1.5-5.7-1.4-5.8c0.2,0,1,2.5,1.9,5.6c0.2,0.8,0.4,1.5,0.6,2.2
														c0.1,0.3,0.2,0.7,0.1,1.2c-0.1,0.2-0.3,0.4-0.5,0.4c-0.2,0-0.3,0-0.5,0C40.1,104.9,39.5,104.9,39.5,104.8z"/>
												</g>
											</g>
											<g>
												<path class="st7" d="M35.9,105.7c2.1,1,3.1,1.4,5.1,1.9c0,0-1.4,1.9-3.6,0.9C35.2,107.4,35.9,105.7,35.9,105.7z"/>
											</g>
											<g>
												<path class="st21" d="M39.1,117.8c0,0-4.9,0-9.8-3.7c0,0,1.9,5.7,9.7,5.6L39.1,117.8z"/>
											</g>
										</g>
									</g>
									<g>
										<g>
											<path class="st19" d="M20.2,93.7c0-0.6-0.5-1.2-1.1-1.2c-1.4-0.1-3.8,0.5-4.1,4.4c-0.4,5.6,5.1,4.3,5.1,4.2
												C20.1,101,20.2,95.9,20.2,93.7z"/>
										</g>
										<g>
											<g>
												<path class="st21" d="M18.9,98.9c0,0-0.1,0.1-0.3,0.1c-0.2,0.1-0.5,0.1-0.7,0c-0.6-0.3-1-1.2-1-2.3c0-0.5,0.2-1,0.4-1.4
													c0.2-0.4,0.5-0.7,0.8-0.7c0.3,0,0.5,0.1,0.6,0.3c0.1,0.2,0,0.3,0,0.3c0,0,0.1-0.1,0.1-0.3c0-0.1-0.1-0.3-0.2-0.4
													c-0.1-0.1-0.3-0.2-0.5-0.2c-0.4,0-0.9,0.4-1.1,0.8c-0.3,0.4-0.4,1-0.5,1.5c0,1.1,0.5,2.2,1.3,2.5c0.4,0.1,0.7,0,0.9-0.1
													C18.9,99,18.9,98.9,18.9,98.9z"/>
											</g>
										</g>
									</g>
								</g>
								<g>
									<path class="st2" d="M31.9,93.3c0.2,0.3,1.1,0.2,2.2,0.1c1.1-0.1,1.9,0,2.1-0.4c0.2-0.4-0.8-1.2-2.2-1
										C32.6,92.1,31.6,93,31.9,93.3z"/>
								</g>
								<g>
									<path class="st2" d="M44.2,93.1c0.1,0.4,0.8,0.6,1.6,0.7c0.8,0.1,1.5,0,1.7-0.4c0.1-0.4-0.5-1-1.5-1.1
										C44.9,92.3,44.1,92.8,44.2,93.1z"/>
								</g>
							</g>
							<path class="st2" d="M49.5,86.7c0,0-4.6,2.2-10.7-0.8c-4-2-8.6-2.9-9.6-2.1c-1,0.8-1.2,4.9-5.2,6.1c0,0,0.3,7.8-2.8,7.5
								C18.1,97.1,20,85.1,20,85.1l7.6-3.7l8.3-1.6l7.8,1.1l6,1.7L49.5,86.7z"/>
						</g>
					</g>
				</g>
				<g>
					<g>
						<path class="st17" d="M77.3,100.1c-0.3,0.4-9.2,31.4-9.2,31.4l17.7,2.4l8.2-25.3L77.3,100.1z"/>
						<polygon class="st2" points="68,131.5 66.4,130.7 75.7,99.3 77.5,100.2 						"/>
						<path class="st2" d="M84.7,108.3c-0.1,0.4,0.2,0.8,0.6,0.9c0.4,0.1,0.8-0.2,0.9-0.6c0.1-0.4-0.2-0.8-0.6-0.9
							C85.2,107.6,84.8,107.9,84.7,108.3z"/>
					</g>
					<path class="st19" d="M71.4,145.7l11.6,7.6l2.1-27.1l0,0l-0.2-1.4l-7.9-3l2.3-5.8c1.1-2.7,4.3-3.9,6.9-2.6
						c0.8,0.4,1.7,0.9,2.5,1.3c1.8,0.9,3.1,2.5,3.6,4.5c0.9,3.4,1.7,7,1.6,6.7l0,0h0l5,34.9c0,0,2.4,10.1-4.5,14.9
						c-5.2,3.6-14-0.2-18.6-2.9l-20.2-12.2L71.4,145.7z"/>
				</g>
			</g>
		</g>
	</g>
	<path class="st2" d="M157.7,84.5c-1.9-1.6-3.6-3.4-5.3-5.2c-0.8-0.9-1.6-1.9-2.4-2.8c-0.8-0.9-1.7-1.8-2.6-2.6
		c-3.6-3.4-7-7-10-10.9l0.1-0.1c3.7,3.3,7.1,6.9,10.2,10.6c0.8,0.9,1.6,1.9,2.5,2.7c0.9,0.9,1.8,1.7,2.7,2.6
		C154.7,80.7,156.3,82.5,157.7,84.5L157.7,84.5z"/>
	<path class="st2" d="M105.3,116.9c-2.1-0.1-4.1-0.3-6.1-0.7c-1-0.2-2-0.5-3-0.7c-1-0.2-2-0.3-3-0.4c-4.1-0.4-8.1-1-12.1-2.2l0-0.1
		c4.1,0.2,8.1,0.9,12.1,1.8c1,0.2,2,0.4,3,0.6c1,0.1,2,0.2,3.1,0.3C101.3,115.8,103.3,116.2,105.3,116.9L105.3,116.9z"/>
</g>
</svg>
