<?xml version="1.0" encoding="utf-8"?>
<!-- Generator: Adobe Illustrator 22.0.0, SVG Export Plug-In . SVG Version: 6.00 Build 0)  -->
<svg version="1.1" id="Layer_1" xmlns="http://www.w3.org/2000/svg" xmlns:xlink="http://www.w3.org/1999/xlink" x="0px" y="0px"
	 viewBox="0 0 247.8 181.6" style="enable-background:new 0 0 247.8 181.6;" xml:space="preserve">
<style type="text/css">
	.st0{fill:#FAFAFA;}
	.st1{fill:#1A2E35;}
	.st2{fill:#FFFFFF;}
	.st3{fill:#66CAF3;}
	.st4{clip-path:url(#SVGID_2_);}
	.st5{fill:#BF654E;}
	.st6{fill:#FE5356;}
	.st7{opacity:0.6;}
	.st8{fill:#375A64;}
	.st9{fill:#AE4F32;}
	.st10{fill:#267BF8;}
	.st11{fill:#EBEBEB;}
	.st12{opacity:0.2;}
	.st13{clip-path:url(#SVGID_4_);fill:#1A2E35;}
	.st14{clip-path:url(#SVGID_4_);fill:#66CAF3;}
	.st15{clip-path:url(#SVGID_4_);fill:#FF9A6C;}
	.st16{clip-path:url(#SVGID_4_);}
	.st17{fill:#FF9A6C;}
	.st18{fill:#F2875C;}
</style>
<g>
	<g>
		<g>
			<polygon class="st0" points="203,89.8 90.2,89.8 90.2,4.7 203.1,4.6 			"/>
		</g>
		<g>
			<g>
				<g>
					<path class="st1" d="M198.6,85.4c0-0.6,0-45.9-0.1-85.2l0.1,0.1C166,0.3,127.3,0.4,86,0.5c-0.1,0-0.1,0-0.2,0l0.1-0.1
						c0,23.9,0,66,0,85l-0.1-0.1C153.4,85.4,197.6,85.4,198.6,85.4c-1,0-45.2,0-112.8,0.1l-0.1,0v-0.1c0-19,0-61.1,0-85V0.3l0.1,0
						c0.1,0,0.1,0,0.2,0c41.3-0.1,80-0.1,112.7-0.1l0.1,0l0,0.1C198.7,39.5,198.6,84.8,198.6,85.4z"/>
					<path class="st1" d="M198.6,85.4l-0.2-85.2c0-0.1,0.1-0.1,0.1-0.1c0,0,0,0,0.1,0l0.1,0.1c0.1,0,0.1,0.1,0,0.2
						c0,0-0.1,0.1-0.1,0.1l-56.4,0.2L85.8,0.6c-0.1,0-0.2-0.1-0.2-0.2c0-0.1,0-0.1,0.1-0.2l0.1-0.1c0.1-0.1,0.2,0,0.3,0.1
						c0,0,0,0.1,0,0.1l-0.1,85c0,0.1,0,0.1-0.1,0.1c0,0,0,0-0.1,0l-0.1-0.1c-0.1,0-0.1-0.1,0-0.1c0,0,0.1-0.1,0.1-0.1l112.8,0
						c0.1,0,0.1,0.1,0.1,0.1c0,0.1-0.1,0.1-0.1,0.1l-113,0.2c-0.1,0-0.2-0.1-0.2-0.2v0l0-85.2c0-0.1,0.1-0.2,0.2-0.2l113.2,0
						c0.1,0,0.1,0.1,0.1,0.1v0L198.6,85.4z M198.6,85.4l0-85.2l0.1,0.1L85.6,0.5l0.2-0.2l0,85.2l-0.2-0.2l113,0v0.3L85.8,85.4
						l0.1-0.2l0.1,0.1l-0.2,0.1l-0.1-85L86,0.5l-0.1,0.1l-0.1-0.4l56.4-0.1l56.5,0l-0.1,0.2l-0.1-0.1l0.2-0.1L198.6,85.4z"/>
				</g>
			</g>
		</g>
	</g>
	<path class="st2" d="M123.8,122.1c-1.3,32.2-25,58.9-57.3,59.5c-32.2,0.6-58.9-25-59.5-57.3c-0.6-32.2,25.1-62,57.3-59.5
		C98.6,67.4,125,92.7,123.8,122.1z"/>
	<g>
		<g>
			<g>
				<g>
					<path class="st1" d="M188.4,74.2c0,0-0.1,0-0.4,0c-0.2,0-0.6,0-1,0c-0.9,0-2.3,0-4,0c-3.5,0-8.6,0-14.8,0
						c-12.5,0-29.8,0-48.9,0c-7.4,0-14.5,0-21.1,0l-0.1,0l0-0.1c0-14,0-26,0.1-34.5c0-4.3,0-7.6,0-10c0-1.2,0-2,0-2.7
						c0-0.3,0-0.5,0-0.7c0-0.2,0-0.2,0-0.2s0,0.1,0,0.2c0,0.2,0,0.4,0,0.7c0,0.6,0,1.5,0,2.7c0,2.3,0,5.7,0,10
						c0,8.5,0,20.5,0.1,34.5L98.2,74c6.5,0,13.7,0,21.1,0c19.1,0,36.4,0,48.9,0c6.2,0,11.3,0,14.8,0c1.7,0,3.1,0,4,0
						c0.5,0,0.8,0,1,0C188.2,74.2,188.4,74.2,188.4,74.2z"/>
					<path class="st1" d="M188.4,74.2c-3.8,0.1-7.5,0.1-11.3,0.2l-11.3,0.1l-22.6,0.1c-15.1,0.1-30.1,0-45.2-0.1l-0.1,0l0-0.1
						L98,50.2l0-12c0-4,0-8,0.1-12.1h0.3c0.1,4,0.1,8,0.1,12l0.1,12l0.1,24l0,0.6l-0.4-0.4L98,74.2l-0.4-0.4h0.6
						c15,0,30.1-0.1,45.1,0l22.5,0.1l11.3,0.1C180.9,74.1,184.6,74.1,188.4,74.2z M188.3,74.2l-45.1,0.1l-45.1,0l0.2-0.4l0.1,0.1
						l-0.4,0.2l0-24l0-12c0-4,0-8,0-12h0.3c-0.1,4-0.1,8-0.1,12l0,12l0,24.1L98,74.2l22.6-0.1c7.5,0,15.1-0.1,22.6,0L188.3,74.2z"/>
				</g>
			</g>
		</g>
		<g>
			<rect x="105.5" y="62.3" class="st3" width="9.1" height="9.1"/>
		</g>
		<g>
			<rect x="118.9" y="55.8" class="st3" width="9.1" height="15.6"/>
		</g>
		<g>
			<rect x="132.3" y="48.4" class="st3" width="9.1" height="23"/>
		</g>
		<g>
			<rect x="145.3" y="40.2" class="st3" width="9.1" height="31.3"/>
		</g>
		<g>
			<rect x="158.6" y="29.6" class="st3" width="9.1" height="41.8"/>
		</g>
		<g>
			<rect x="171.8" y="21.6" class="st3" width="9.1" height="49.4"/>
		</g>
		<g>
			<g>
				<g>
					<path class="st1" d="M105.5,53c0,0,0,0,0.1-0.1c0.1-0.1,0.2-0.1,0.4-0.2c0.3-0.2,0.8-0.5,1.4-0.9c1.2-0.8,3-2,5.2-3.4
						c4.5-2.9,10.8-7,18.1-11.8l0.2-0.1l0,0.3c0,1.3,0,2.7,0,4.1l-0.2-0.1c2.3-1.5,4.7-3.1,7.1-4.8c9.8-6.6,18.7-12.5,25.1-16.8
						c3.2-2.1,5.8-3.9,7.6-5.1c0.9-0.6,1.6-1,2.1-1.4c0.2-0.1,0.4-0.3,0.5-0.3c0.1-0.1,0.2-0.1,0.2-0.1c0,0-0.1,0-0.2,0.1
						c-0.1,0.1-0.3,0.2-0.5,0.4c-0.5,0.3-1.2,0.8-2.1,1.4c-1.8,1.2-4.4,3-7.6,5.1c-6.4,4.3-15.3,10.3-25.1,16.9
						c-2.4,1.6-4.8,3.2-7.1,4.8l-0.2,0.1l0-0.3c0-1.4,0-2.8,0-4.1l0.2,0.1c-7.3,4.7-13.6,8.8-18.1,11.7c-2.2,1.4-4,2.6-5.3,3.4
						c-0.6,0.4-1.1,0.7-1.4,0.9c-0.2,0.1-0.3,0.2-0.4,0.2C105.6,53,105.5,53,105.5,53z"/>
					<path class="st1" d="M105.5,53c2.1-1.5,4.2-2.9,6.3-4.3l6.3-4.2l12.7-8.4l0.3-0.2l0,0.4l0,4.3l0,0.4l-0.3-0.2l-0.2-0.1
						l-0.3-0.2l0.3-0.2L152,26.1c3.6-2.4,7.2-4.7,10.7-7.1l5.3-3.6l2.7-1.8l1.3-0.9l0.7-0.4l0.3-0.2c0,0,0.2-0.1,0.3-0.1
						c0.2,0,0.1,0.1,0,0.2c-0.1,0.1-0.2,0.1-0.2,0.2l-0.2,0.1l-0.3,0.2l-0.7,0.5l-1.3,0.9l-2.7,1.8l-5.3,3.6l-10.7,7.2l-21.4,14.4
						l-0.4,0.3l0-0.5l0-4.3l0-0.4l0.3,0.2l0.2,0.1l0.3,0.2l-0.3,0.2L118.3,45l-6.3,4C109.8,50.3,107.7,51.7,105.5,53z M105.5,53
						l25.2-16.5l0,0.4l-0.2-0.1l0.3-0.2l0,4.3l-0.4-0.2l42.7-28.6c0,0.1,0.2,0,0.1,0.1c0,0.1,0.1,0,0,0.1l-0.3,0.2l-0.7,0.4
						l-1.3,0.9l-2.7,1.8l-5.4,3.5c-3.6,2.4-7.1,4.8-10.7,7.2l-21.3,14.4l0-0.4l0.2,0.1l-0.3,0.2l0-4.3l0.3,0.2L105.5,53z"/>
				</g>
			</g>
		</g>
		<g>
			<g>
				<g>
					<path class="st1" d="M173.4,15.9c0,0-0.1-0.4-0.1-1.1c0-0.7,0-1.7,0-2.8l0.1,0.1c-0.1,0-0.2,0-0.3,0c-1.2,0-2.2,0-3,0
						c-0.8,0-1.2-0.1-1.2-0.1s0.5-0.1,1.2-0.1c0.8,0,1.8,0,3,0c0.1,0,0.2,0,0.3,0l0.1,0l0,0.1c0,1.1,0,2.1,0,2.8
						C173.5,15.5,173.4,15.9,173.4,15.9z"/>
					<path class="st1" d="M173.4,15.9c-0.1-0.2-0.1-0.3-0.1-0.5l0-0.5l-0.1-1c-0.1-0.6-0.1-1.3-0.1-1.9l0-0.5l0.4,0.4l0.1,0.1
						l0.4,0.4l-0.5,0c-0.8,0-1.6-0.1-2.3-0.2c-0.4,0-0.8,0-1.2,0l-0.6,0l-0.3,0l-0.2,0l0,0c0,0,0,0,0,0c0,0,0,0-0.1-0.1
						c0,0,0-0.1,0-0.1c0,0,0,0,0,0c0,0,0,0,0,0l0,0c0.8-0.1,1.6-0.2,2.3-0.2c0.8,0,1.6-0.1,2.3,0l0.3,0l0,0.2c0,0.7-0.1,1.3-0.1,2
						l-0.1,1C173.5,15.3,173.5,15.6,173.4,15.9z M173.4,15.9c0-0.3,0-0.7,0-1l-0.1-1c-0.1-0.7-0.1-1.3-0.1-2l0.3,0.3
						c-0.8,0-1.5,0-2.3,0c-0.8,0-1.6,0-2.3,0l0,0c0,0,0,0,0,0l0,0c0,0,0-0.1,0-0.1c0-0.1-0.1-0.1-0.1-0.1c0,0,0,0,0,0l0,0l0.1,0
						l0.3,0c0.2,0,0.4,0,0.6,0c0.4,0,0.8,0,1.2,0c0.8,0,1.5-0.1,2.3-0.1l-0.2,0.4l-0.1-0.1l0.4-0.2c0,0.6,0,1.3,0,1.9l-0.1,1
						C173.3,15.3,173.4,15.6,173.4,15.9z"/>
				</g>
			</g>
		</g>
	</g>
	<path class="st1" d="M119.8,118.1c-0.3,7.6-1.9,15.2-4.7,22.3c-2.8,7.1-7,13.7-12.2,19.3c-5.2,5.6-11.6,10.2-18.6,13.3
		c-7,3.1-14.7,4.7-22.3,4.8c-7.7,0.1-15.3-1.4-22.4-4.2c-7.1-2.9-13.6-7.2-19.1-12.5c-5.5-5.4-9.9-11.8-12.9-18.8
		c-3-7-4.6-14.7-4.7-22.3c-0.2-15.3,5.6-30.7,15.9-42c5.2-5.7,11.5-10.3,18.5-13.4c7-3.1,14.8-4.4,22.5-3.9
		c7.6,0.5,15.2,2.2,22.3,5.1c7.1,2.9,13.8,6.9,19.5,12c5.7,5.1,10.5,11.3,13.7,18.2C118.5,102.7,120.1,110.4,119.8,118.1z
		 M119.8,118.1c0.3-7.6-1.4-15.3-4.6-22.2c-3.3-6.9-8-13-13.8-18.1C89.9,67.7,74.9,62.1,59.7,61c-7.6-0.5-15.3,0.8-22.3,3.9
		c-7,3-13.2,7.7-18.3,13.3C8.9,89.4,3,104.6,3.2,119.9c0.1,7.6,1.6,15.2,4.6,22.2c3,7,7.4,13.4,12.8,18.8c5.5,5.3,12,9.6,19.1,12.4
		c7.1,2.8,14.7,4.2,22.3,4.1c7.6-0.1,15.2-1.7,22.2-4.8c7-3,13.3-7.6,18.5-13.1c5.2-5.6,9.4-12.1,12.2-19.2
		C117.8,133.3,119.4,125.7,119.8,118.1z"/>
	<g>
		<defs>
			<path id="SVGID_1_" d="M136.3,112.8C135,145,94.8,177,62.5,177.6c-32.2,0.6-58.9-25-59.5-57.3c-0.3-15.6-7.8-43.9,2-55
				c10.4-11.8,30.4-28.7,47-27.5c15,1.2,69.6,19.8,80,28C145.3,76.6,137,96.3,136.3,112.8z"/>
		</defs>
		<clipPath id="SVGID_2_">
			<use xlink:href="#SVGID_1_"  style="overflow:visible;"/>
		</clipPath>
		<g class="st4">
			<g>
				<g>
					<g>
						<polygon class="st5" points="24.4,278 22.2,319.9 37.3,323.5 40.3,282.6 						"/>
					</g>
				</g>
			</g>
			<g>
				<g>
					<g>
						<polygon class="st6" points="21.7,319.5 19.1,330.9 36.6,330.9 37.3,323.5 						"/>
					</g>
				</g>
			</g>
			<g>
				<g>
					<g>
						<g>
							<path class="st1" d="M36.9,329.2c0,0.1-1,0.1-2.5,0.1c-1.6,0-3.7,0-6.1-0.1c-2.3-0.1-4.4-0.2-6.1-0.3
								c-1.6-0.1-2.5-0.1-2.5-0.2c0-0.1,1-0.1,2.5-0.1c1.6,0,3.7,0,6.1,0.1c2.3,0.1,4.4,0.2,6.1,0.3C36,329.1,36.9,329.2,36.9,329.2
								z"/>
						</g>
					</g>
				</g>
			</g>
			<g>
				<g>
					<g>
						<g>
							<path class="st1" d="M29.5,321.7c0.1,0,0.1,1.7,0,3.7c-0.1,2-0.4,3.7-0.5,3.6c-0.1,0-0.1-1.7,0-3.7
								C29.2,323.4,29.4,321.7,29.5,321.7z"/>
						</g>
					</g>
				</g>
			</g>
			<g class="st7">
				<g>
					<g>
						<polyline class="st2" points="19.1,330.9 36.6,330.9 36.7,329.2 19.4,328.8 19.1,330.7 						"/>
					</g>
				</g>
			</g>
			<g>
				<g>
					<g>
						<g>
							<g>
								<polygon class="st5" points="82,298.4 85.7,326.1 99.1,325.2 96.3,299.7 								"/>
							</g>
						</g>
					</g>
				</g>
				<g>
					<g>
						<g>
							<g>
								<g>
									<path class="st6" d="M99.3,322.2L99.3,322.2c0,0,15.1,5.1,15.3,7.8l-28.8,0.8l-0.3-7.5l1.1,0.2
										C90.8,324.4,95.3,323.9,99.3,322.2z"/>
								</g>
							</g>
						</g>
					</g>
				</g>
				<g class="st7">
					<g>
						<g>
							<g>
								<g>
									<g>
										<path class="st2" d="M88.9,324.6c-0.6,0.2-0.9,0.8-0.8,1.4c0.1,0.6,0.8,0.9,1.3,0.8c0.6-0.2,1-0.9,0.8-1.5
											c-0.2-0.5-1-0.9-1.5-0.7"/>
									</g>
								</g>
							</g>
						</g>
					</g>
				</g>
				<g class="st7">
					<g>
						<g>
							<g>
								<g>
									<path class="st2" d="M85.7,330.8l0-2.3l27.7,0.1c0,0,1.3,0.5,1.2,1.4L85.7,330.8z"/>
								</g>
							</g>
						</g>
					</g>
				</g>
				<g>
					<g>
						<g>
							<g>
								<g>
									<g>
										<path class="st1" d="M99.7,322c0,0.1-0.7,0.2-1.4,0.7c-0.7,0.5-1,1.1-1.2,1c-0.1,0,0.1-0.9,0.9-1.4
											C98.9,321.7,99.7,321.9,99.7,322z"/>
									</g>
								</g>
							</g>
						</g>
					</g>
				</g>
				<g>
					<g>
						<g>
							<g>
								<g>
									<g>
										<path class="st1" d="M102.8,323.2c0,0.1-0.6,0.4-1,1c-0.5,0.6-0.6,1.2-0.7,1.2c-0.1,0-0.3-0.8,0.3-1.5
											C101.9,323.1,102.8,323,102.8,323.2z"/>
									</g>
								</g>
							</g>
						</g>
					</g>
				</g>
				<g>
					<g>
						<g>
							<g>
								<g>
									<g>
										<path class="st1" d="M104.6,326.7c-0.1,0-0.3-0.7,0-1.4c0.3-0.8,1-1.1,1.1-1c0.1,0.1-0.3,0.5-0.6,1.2
											C104.8,326.1,104.7,326.7,104.6,326.7z"/>
									</g>
								</g>
							</g>
						</g>
					</g>
				</g>
				<g>
					<g>
						<g>
							<g>
								<g>
									<g>
										<path class="st1" d="M99.4,321.9c0,0.1-0.6,0.2-1.4,0c-0.4-0.1-1-0.2-1.5-0.4c-0.3-0.1-0.6-0.3-0.8-0.4
											c-0.1-0.1-0.3-0.2-0.4-0.3c-0.2-0.1-0.3-0.5-0.1-0.7c0.1-0.2,0.4-0.3,0.6-0.3c0.2,0,0.4,0,0.5,0.1
											c0.3,0.1,0.6,0.2,0.9,0.3c0.6,0.2,1,0.5,1.4,0.8c0.7,0.6,0.9,1.1,0.9,1.1c-0.1,0-0.4-0.4-1.1-0.9
											c-0.3-0.2-0.8-0.5-1.3-0.7c-0.3-0.1-0.5-0.2-0.8-0.2c-0.3-0.1-0.6-0.1-0.6,0.1c0,0.1,0,0.1,0,0.2c0.1,0.1,0.2,0.2,0.3,0.2
											c0.3,0.2,0.5,0.3,0.8,0.4c0.5,0.2,1,0.4,1.4,0.5C98.9,321.8,99.4,321.8,99.4,321.9z"/>
									</g>
								</g>
							</g>
						</g>
					</g>
				</g>
				<g>
					<g>
						<g>
							<g>
								<g>
									<g>
										<path class="st1" d="M99.2,322.1c0,0-0.3-0.5-0.4-1.4c0-0.5,0-1,0.2-1.6c0.1-0.3,0.2-0.6,0.3-0.9c0.2-0.3,0.4-0.7,0.9-0.8
											c0.3,0,0.5,0.2,0.6,0.4c0.1,0.2,0.1,0.4,0.2,0.5c0.1,0.3,0.1,0.7,0,1c-0.1,0.6-0.3,1.1-0.6,1.5c-0.5,0.8-1.1,0.9-1.1,0.9
											c0-0.1,0.4-0.4,0.8-1.1c0.2-0.4,0.4-0.8,0.4-1.4c0-0.3,0-0.6-0.1-0.8c-0.1-0.3-0.2-0.5-0.3-0.5c-0.1,0-0.4,0.2-0.5,0.5
											c-0.1,0.3-0.3,0.5-0.3,0.8c-0.2,0.5-0.2,1-0.2,1.4C99.1,321.6,99.3,322.1,99.2,322.1z"/>
									</g>
								</g>
							</g>
						</g>
					</g>
				</g>
			</g>
			<g>
				<g>
					<g>
						<g>
							<g>
								<path class="st1" d="M35.6,157.9c0,0-10.6,17.8-10.6,28.4l-2.6,129.6l16.8,4L52,193.3c0,0,31.1,127,32.1,127
									c1,0,16.3-2.7,16.3-2.7l-23.2-159L35.6,157.9z"/>
							</g>
						</g>
					</g>
					<g>
						<g>
							<g>
								<path class="st8" d="M42.3,189.8c0,0,0,0.1,0,0.3c0,0.2-0.1,0.6-0.1,1c-0.1,0.9-0.3,2.1-0.6,3.7c-0.5,3.2-1.2,7.8-2.1,13.4
									c-1.7,11.3-3.8,27.1-5.6,44.5c-1.8,17.4-2.9,33.3-3.5,44.7c-0.3,5.7-0.5,10.4-0.7,13.6c-0.1,1.6-0.1,2.8-0.2,3.7
									c0,0.4,0,0.7-0.1,1c0,0.2,0,0.3,0,0.3c0,0,0-0.1,0-0.3c0-0.2,0-0.6,0-1c0-0.9,0-2.1,0.1-3.7c0.1-3.2,0.3-7.9,0.5-13.6
									c0.5-11.5,1.6-27.3,3.4-44.8c1.8-17.4,4-33.2,5.8-44.5c0.9-5.7,1.7-10.3,2.2-13.4c0.3-1.6,0.5-2.8,0.7-3.6
									c0.1-0.4,0.1-0.7,0.2-0.9C42.2,189.9,42.3,189.8,42.3,189.8z"/>
							</g>
						</g>
					</g>
					<g>
						<g>
							<g>
								<path class="st8" d="M68.9,192c0.1,0,5.3,28.4,11.5,63.5c6.2,35.1,11.1,63.6,11,63.6c-0.1,0-5.3-28.4-11.5-63.5
									C73.7,220.5,68.8,192,68.9,192z"/>
							</g>
						</g>
					</g>
				</g>
				<g>
					<g>
						<path class="st8" d="M51.4,193.1c0,0-0.1-0.1-0.2-0.3c-0.1-0.2-0.3-0.5-0.4-1c-0.3-0.8-0.8-2.1-1.2-3.7
							c-0.9-3.1-1.6-7.7-1.2-12.6c0.1-1.2,0.3-2.5,0.4-3.6c0.2-1.2,0.5-2.3,0.8-3.3c0.6-2.1,1.2-3.9,1.7-5.5c0.5-1.5,1-2.8,1.3-3.6
							c0.2-0.4,0.3-0.7,0.4-1c0.1-0.2,0.2-0.3,0.2-0.3c0,0,0,0.1-0.1,0.4c-0.1,0.3-0.2,0.6-0.3,1c-0.3,0.9-0.7,2.2-1.2,3.7
							c-0.5,1.5-1.1,3.4-1.6,5.5c-0.3,1-0.6,2.1-0.8,3.3c-0.2,1.1-0.4,2.3-0.4,3.6c-0.4,4.9,0.3,9.4,1.1,12.5
							c0.4,1.6,0.8,2.8,1.1,3.7C51.3,192.6,51.5,193.1,51.4,193.1z"/>
					</g>
				</g>
				<g>
					<g>
						<path class="st8" d="M56.2,171.3c0,0,0,0.1,0,0.2c0,0.2,0,0.4,0,0.7c0,0.6,0.1,1.5,0.1,2.6c0.1,2.2,0.2,5.3,0.3,9l-0.1-0.2
							c2,0.8,4.2,1.7,6.5,2.6l-0.2,0c1.7-1,3.4-2.1,5.3-3.2c0.1-0.1,0.2-0.1,0.3-0.2l-0.1,0.2c0.4-4.3,0.8-8.3,1.1-11.8l0.2,0.2
							c-4,0-7.3-0.1-9.7-0.1c-1.2,0-2.1,0-2.8,0c-0.3,0-0.5,0-0.7,0C56.3,171.3,56.2,171.3,56.2,171.3c0,0,0.3,0,0.9,0
							c0.7,0,1.6,0,2.7,0c2.4,0,5.8-0.1,9.8-0.1l0.2,0l0,0.2c-0.3,3.5-0.7,7.5-1,11.8l0,0.1l-0.1,0.1c-0.1,0.1-0.2,0.1-0.3,0.2
							c-1.8,1.1-3.6,2.2-5.3,3.2l-0.1,0.1l-0.1,0c-2.3-1-4.5-1.9-6.5-2.7l-0.1,0l0-0.1c-0.1-3.7-0.1-6.9-0.1-9.1c0-1.1,0-1.9,0-2.5
							C56.2,171.6,56.2,171.3,56.2,171.3z"/>
					</g>
				</g>
				<g>
					<g>
						<path class="st8" d="M31.8,167.9c0,0,0,0.3-0.1,0.9c-0.1,0.6-0.2,1.4-0.4,2.4c-0.3,2.1-0.8,4.9-1.3,8.3l-0.1-0.2
							c1.5,1.1,3.1,2.3,4.9,3.6l-0.2,0c1.9-0.5,3.9-1.1,5.9-1.7c0.1,0,0.2-0.1,0.3-0.1l-0.1,0.1c1.1-3.9,2.2-7.5,3.1-10.7l0.1,0.2
							c-3.6-0.9-6.6-1.6-8.8-2.1c-1-0.3-1.9-0.5-2.5-0.6C32.2,168,31.9,167.9,31.8,167.9c0,0,0.3,0,0.9,0.2c0.6,0.1,1.5,0.3,2.5,0.5
							c2.2,0.5,5.3,1.1,8.9,1.9l0.2,0l-0.1,0.2c-0.9,3.1-2,6.8-3.1,10.7l0,0.1l-0.1,0c-0.1,0-0.2,0.1-0.3,0.1
							c-2.1,0.6-4.1,1.1-5.9,1.6l-0.1,0l-0.1-0.1c-1.7-1.3-3.4-2.5-4.9-3.7l-0.1-0.1l0-0.1c0.6-3.4,1.2-6.3,1.5-8.4
							c0.2-1,0.3-1.7,0.4-2.3C31.8,168.2,31.8,167.9,31.8,167.9z"/>
					</g>
				</g>
				<g>
					<g>
						<path class="st8" d="M65.8,190.6c0,0.1-3.2,0.9-7.2,1.8c-4,0.9-7.2,1.5-7.2,1.4c0-0.1,3.2-0.9,7.2-1.8
							C62.6,191.1,65.8,190.5,65.8,190.6z"/>
					</g>
				</g>
				<g>
					<g>
						<path class="st8" d="M44.9,191.1c0,0.1-0.7,0.1-1.8,0c-1.1-0.1-2.7-0.3-4.4-0.7c-1.7-0.4-3.2-0.9-4.2-1.3
							c-1.1-0.4-1.7-0.8-1.7-0.8c0-0.1,0.7,0.2,1.7,0.5c1.1,0.3,2.6,0.8,4.2,1.2c1.7,0.4,3.2,0.6,4.3,0.8
							C44.2,191,44.9,191.1,44.9,191.1z"/>
					</g>
				</g>
			</g>
			<g>
				<g>
					<g>
						<path class="st1" d="M43,56.1c0.6,1.7-1.4,3.1-3.1,3.5c-1.7,0.4-3.8,0.6-4.6,2.2c-0.7,1.4,0,3.1-0.6,4.5
							c-1.2,2.7-6,2.1-6.9,4.9c-0.6,1.9,1.1,3.9,0.9,5.9c-0.2,1.7-1.8,2.9-3.1,3.9c-1.4,1-2.8,2.5-2.6,4.2c0.3,2,2.7,3.4,2.4,5.3
							c-0.2,2-2.9,2.9-3.2,4.8c-0.4,2.3,2.4,3.8,3.3,5.9c0.7,1.6,0.3,3.7,1.5,5.1c1.2,1.4,3.4,1.1,5.2,0.7
							c5.9-1.3,11.9-2.5,17.8-3.8c-1.2-2.8-0.1-6.1,1.6-8.6c1.7-2.5,4-4.7,5.5-7.4c1.5-2.7,2-6.3,0-8.7"/>
					</g>
				</g>
				<g>
					<g>
						<g>
							<path class="st1" d="M74.4,70.4c-0.1,0,0-1.1-0.6-2.8c-0.2-0.4-0.4-0.9-0.7-1.2c-0.4-0.3-0.8-0.1-1.1,0.4
								c-0.6,0.9-0.8,2.3-0.8,3.6c0,1.3,0.2,2.7,0.8,3.6c0.3,0.5,0.7,0.7,1.1,0.4c0.4-0.3,0.6-0.8,0.7-1.2
								C74.4,71.5,74.3,70.4,74.4,70.4c0,0,0.1,0.3,0.1,0.8c0,0.5-0.1,1.2-0.3,2.1c-0.2,0.4-0.3,0.9-0.8,1.3
								c-0.2,0.2-0.6,0.4-0.9,0.2c-0.3-0.1-0.6-0.4-0.8-0.6c-0.7-1.1-0.9-2.5-0.9-3.8c0-1.4,0.2-2.8,0.9-3.8
								c0.2-0.3,0.4-0.5,0.8-0.6c0.3-0.1,0.7,0,0.9,0.2c0.4,0.4,0.6,0.9,0.8,1.3c0.3,0.9,0.3,1.6,0.3,2.1
								C74.4,70.1,74.4,70.4,74.4,70.4z"/>
						</g>
					</g>
				</g>
				<g>
					<g>
						<g>
							<path class="st1" d="M45.3,86.8c-3.2-5.4-4.1-12.7-5-19c-0.4-3-1.1-7.2,1-9c2.2-2,2.4-5,5-6.6c2.6-1.5,6-1.7,8.4,0.1"/>
						</g>
					</g>
					<g>
						<g>
							<g>
								<g>
									<g>
										<g>
											<g>
												<g>
													<g>
														<path class="st5" d="M54.2,106.1L54.2,106.1c4.9,0.4,9.2-3.4,9.4-8.3c0.2-4.8,0.4-9.6,0.4-9.6s7.2-0.7,7.8-7.8
															c0.5-7.1,0.4-23.6,0.4-23.6l0,0c-8-4.1-17.6-3.5-25.1,1.5l0.4,25.1l0,13.5C47.4,101.5,49.7,105.7,54.2,106.1z"/>
													</g>
												</g>
											</g>
										</g>
									</g>
								</g>
							</g>
							<g>
								<g>
									<path class="st1" d="M64.7,71.6c-1.2-1.5-3.2-2.1-4.9-1.1c-1.6,1.1-2.3,3.4-1.4,5.2c0.6,1.2,2.1,2.4,3.5,2.7
										c1.3,0.3,2.3,1.6,2.1,3c-0.2,1.8-3.2,2.5-4.5,3.9c-2.1,2.3-6.7,3.3-9.8,3.6c-3,0.4-2.7,0.4-4.4-2.1
										C44,85,43.6,83.2,43.6,81c-0.1-5.3-0.2-10.5-0.3-15.8c0-1.9-0.1-3.8,0.4-5.7c0.4-1.8,1.4-3.6,3-4.7
										c1.7-1.1,3.9-1.2,5.9-1.9c2.5-0.8,4.6-2.4,6.9-3.6c2.3-1.2,5.2-1.9,7.5-0.7c1.7,0.8,2.8,2.5,4.4,3.4c2.3,1.3,5.4,1,6.6,4.4
										c0.4,1.2,0.4,2.5,0,3.6c-1.6,4.6-7.3,6.5-11.4,4.4c-0.1,0.8,0.7,2.5-0.1,5C66,70.4,65.9,71.6,64.7,71.6"/>
								</g>
							</g>
						</g>
						<g>
							<g>
								<g>
									<path class="st9" d="M63.4,76.1c0,0,0,0.1-0.1,0.3c-0.1,0.2-0.4,0.4-0.8,0.4c-0.8,0.1-1.8-0.8-1.8-2c0-0.6,0.2-1.1,0.5-1.5
										c0.3-0.4,0.8-0.6,1.1-0.6c0.7-0.2,1.2,0.1,1.1,0.2c0,0.1-0.4,0-1,0.2c-0.6,0.2-1.3,0.8-1.2,1.8c0,0.9,0.8,1.6,1.3,1.6
										C63.1,76.5,63.4,76,63.4,76.1z"/>
								</g>
							</g>
						</g>
					</g>
				</g>
				<g>
					<g>
						<g>
							<path class="st1" d="M74.4,70c0,0.1-2.1,0.6-4.8,1c-2.7,0.4-4.9,0.7-4.9,0.6c0-0.1,2.1-0.6,4.8-1
								C72.2,70.2,74.4,69.9,74.4,70z"/>
						</g>
					</g>
				</g>
				<g>
					<g>
						<path class="st1" d="M45.9,93.7c0.4,0.9,1.5,1.3,2.5,1c0.9-0.3,1.7-1,2.4-1.6c0.7-0.7,1.4-1.4,2.4-1.7
							c1.9-0.6,4.2,0.7,5.8-0.5c1.5-1.1,1.3-3.5,2.7-4.6c0.8-0.6,1.8-0.7,2.6-1.2c1.4-1.1,1.2-3.5,0-4.8c-1.2-1.3-3-1.9-4.8-2.3
							l-15.3,6.5L45.9,93.7z"/>
					</g>
				</g>
				<g>
					<g>
						<g>
							<path class="st8" d="M64.1,66c0,0,0,0-0.1,0.1c-0.1,0.1-0.2,0.1-0.4,0.2c-0.4,0.2-0.9,0.4-1.7,0.6c-0.8,0.2-1.7,0.3-2.8,0.4
								c-1.1,0.1-2.3,0.2-3.7,0.5c-1.3,0.3-2.8,0.9-3.8,2.1c-1,1.2-1.4,2.9-2.2,4.6c-0.4,0.8-1,1.7-1.8,2.2c-0.8,0.6-1.7,1-2.7,1.3
								c-1.9,0.6-4,1-5.5,2.3C38.7,81.1,38.2,82,38,83c-0.1,1,0,2,0,3c0,1,0,2.1-0.6,2.9c-0.5,0.9-1.3,1.5-2.1,2
								c-1.6,0.9-3.3,1.4-4.6,2.3c-0.7,0.4-1.2,0.9-1.7,1.5c-0.4,0.6-0.6,1.3-0.6,2c-0.1,1.3,0.3,2.6,0.5,3.6c0.2,1.1,0.3,2,0.3,2.8
								c-0.1,0.8-0.3,1.4-0.5,1.7c-0.2,0.4-0.4,0.5-0.4,0.5c-0.1,0,0.6-0.7,0.7-2.2c0-0.8-0.1-1.7-0.3-2.7c-0.2-1.1-0.6-2.3-0.6-3.7
								c0-0.7,0.2-1.5,0.7-2.1c0.4-0.7,1-1.2,1.7-1.7c1.4-0.9,3.1-1.4,4.6-2.3c0.8-0.5,1.5-1,1.9-1.8c0.5-0.8,0.5-1.7,0.5-2.7
								c0-1-0.2-2,0-3.1c0.1-1.1,0.7-2.1,1.6-2.8c1.7-1.4,3.8-1.8,5.7-2.4c0.9-0.3,1.8-0.7,2.5-1.2c0.7-0.5,1.3-1.3,1.7-2.1
								c0.8-1.6,1.2-3.4,2.3-4.7c1.1-1.3,2.7-1.8,4-2.1c1.4-0.3,2.6-0.4,3.7-0.4c1.1-0.1,2-0.2,2.8-0.4C63.3,66.5,64.1,66,64.1,66z"
								/>
						</g>
					</g>
				</g>
				<g>
					<g>
						<g>
							<path class="st8" d="M60,68.6c0,0.1-0.5,0-1.5,0.2c-0.9,0.2-2.3,0.8-3.4,2.1c-0.6,0.6-1.1,1.4-1.4,2.4
								c-0.3,0.9-0.3,2-0.3,3.2c0,1.1,0,2.4-0.5,3.7c-0.3,0.6-0.8,1.1-1.3,1.5c-0.6,0.4-1.2,0.6-1.8,0.9c-0.6,0.3-1.1,0.6-1.5,1.1
								c-0.4,0.5-0.6,1-0.6,1.6c-0.1,1.2,0.2,2.5-0.4,3.7c-0.6,1.1-1.5,1.8-2.4,2.4c-0.9,0.5-1.8,0.9-2.5,1.4
								c-0.7,0.4-1.4,0.9-1.8,1.5c-0.4,0.5-0.7,1.1-0.8,1.5c-0.2,0.9,0.1,1.5,0,1.5c0,0-0.1-0.1-0.2-0.4c-0.1-0.3-0.1-0.6,0-1.1
								c0.1-0.5,0.3-1.1,0.7-1.7c0.4-0.6,1.1-1.1,1.8-1.6c0.7-0.5,1.6-0.9,2.5-1.4c0.8-0.5,1.7-1.2,2.2-2.2c0.5-1,0.3-2.2,0.3-3.5
								c0-0.6,0.2-1.4,0.7-1.9c0.5-0.5,1.1-0.9,1.7-1.2c1.2-0.6,2.4-1.1,2.9-2.2c0.5-1.1,0.5-2.3,0.5-3.5c0-1.2,0-2.3,0.3-3.3
								c0.3-1,0.9-1.9,1.5-2.5c1.3-1.3,2.7-1.8,3.6-2c0.5-0.1,0.9-0.1,1.1-0.1C59.8,68.6,60,68.6,60,68.6z"/>
						</g>
					</g>
				</g>
			</g>
			<g>
				<polyline class="st10" points="65.8,94.8 63.9,91 47.8,90.4 45.3,95.4 65.5,95.4 				"/>
			</g>
			<g>
				<g>
					<g>
						<path class="st8" d="M121.2,129.3c-0.1-0.6,4.3-23.3,5.5-29.6c0.2-0.8-0.5-1.6-1.3-1.6H93.1c-0.6,0-1.1,0.4-1.3,1L85.2,127
							l-16.3,1.2l0.6,1.1H121.2z"/>
					</g>
					<g>
						<polygon class="st11" points="119.7,127.3 125,99.7 93.2,99.9 86.3,127.3 						"/>
						<path class="st1" d="M86.3,127.3L86.3,127.3l7-27.5h0l31.7-0.2l0,0l-5.2,27.6h0L86.3,127.3z M93.3,99.9l-7,27.4l33.4,0
							l5.2-27.5L93.3,99.9z"/>
					</g>
					<g>
						<g>
							<path class="st1" d="M119.7,127.5c0,0.1-9.3,0.2-20.7,0.2c-11.4,0-20.7-0.1-20.7-0.2c0-0.1,9.3-0.2,20.7-0.2
								C110.4,127.3,119.7,127.3,119.7,127.5z"/>
						</g>
					</g>
				</g>
				<g>
					<g>
						<g>
							<g>
								<g>
									<path class="st8" d="M117.5,120.5c0,0-0.1,0-0.4,0c-0.3,0-0.7,0-1.2,0c-1.1,0-2.6,0-4.4,0.1c-3.7,0-8.8,0.1-14.4,0.1
										c-1.6,0-3.2,0-4.6,0l-0.3,0l0.1-0.2c1.1-4.3,2.1-8.1,2.8-10.9c0.4-1.3,0.6-2.4,0.9-3.2c0.2-0.7,0.3-1.1,0.4-1.1
										c0,0-0.1,0.4-0.2,1.2c-0.2,0.8-0.4,1.9-0.7,3.2c-0.7,2.8-1.6,6.6-2.7,11l-0.2-0.2c1.5,0,3,0,4.6,0c5.6,0,10.7,0,14.4,0.1
										c1.8,0,3.3,0,4.4,0.1c0.5,0,0.9,0,1.2,0C117.4,120.5,117.5,120.5,117.5,120.5z"/>
								</g>
							</g>
							<g>
								<polygon class="st3" points="94.5,119.4 95.1,116.8 99.2,116.8 98.7,119.4 								"/>
							</g>
							<g>
								<polygon class="st3" points="100.1,119.4 101.3,114.2 105.4,114.2 104.3,119.4 								"/>
							</g>
							<g>
								<polygon class="st3" points="105.6,119.4 106.2,116.8 110.3,116.8 109.8,119.4 								"/>
							</g>
							<g>
								<polygon class="st3" points="111.2,119.4 113.5,109.3 117.6,109.3 115.4,119.4 								"/>
							</g>
						</g>
						<g>
							<g>
								<path class="st8" d="M97.8,122.4c0,0.1-0.7,0.2-1.6,0.2c-0.9,0-1.6-0.1-1.6-0.2c0-0.1,0.7-0.2,1.6-0.2
									C97,122.2,97.8,122.3,97.8,122.4z"/>
							</g>
						</g>
						<g>
							<g>
								<path class="st8" d="M103.1,122.4c0,0.1-0.7,0.2-1.6,0.2c-0.9,0-1.6-0.1-1.6-0.2c0-0.1,0.7-0.2,1.6-0.2
									C102.4,122.2,103.1,122.3,103.1,122.4z"/>
							</g>
						</g>
						<g>
							<g>
								<path class="st8" d="M108.5,122.4c0,0.1-0.7,0.2-1.6,0.2c-0.9,0-1.6-0.1-1.6-0.2c0-0.1,0.7-0.2,1.6-0.2
									C107.8,122.2,108.5,122.3,108.5,122.4z"/>
							</g>
						</g>
						<g>
							<g>
								<path class="st8" d="M113.9,122.4c0,0.1-0.7,0.2-1.6,0.2c-0.9,0-1.6-0.1-1.6-0.2c0-0.1,0.7-0.2,1.6-0.2
									C113.2,122.2,113.9,122.3,113.9,122.4z"/>
							</g>
						</g>
					</g>
					<g>
						<g>
							<path class="st8" d="M106,104c0,0.1-2,0.2-4.6,0.2c-2.5,0-4.6-0.1-4.6-0.2s2-0.2,4.6-0.2C103.9,103.8,106,103.9,106,104z"/>
						</g>
					</g>
					<g>
						<g>
							<path class="st8" d="M101.2,102.9c0,0.1-0.9,0.2-2,0.2c-1.1,0-2-0.1-2-0.2c0-0.1,0.9-0.2,2-0.2
								C100.3,102.7,101.2,102.8,101.2,102.9z"/>
						</g>
					</g>
				</g>
			</g>
			<g>
				<path class="st10" d="M92.4,146.1l18.7-13.5l-0.7-1.1c-1-1.7-2.6-2.9-4.4-3.7l-2.9,0.5l-17.3,2.6L92.4,146.1z"/>
			</g>
			<g>
				<polygon class="st10" points="26.1,143 41.6,136.8 38.1,123.9 25.5,128.2 				"/>
			</g>
			<g>
				<g>
					<g>
						<path class="st10" d="M91.8,146.4c3.9-1.9,4.9-6.5,3-10.4l-16.1-34.3c-0.4-0.8-0.9-1.6-1.6-2.2c-6.3-5.5-13.3-4.6-13.3-4.6
							L47,94.4c0,0-13.2,0-18.1,10.4c-0.4,0.8-8,15.9-13.1,25.9c-2.3,4.6-0.1,10.2,4.7,12v0c4.3,1.6,9-0.4,10.9-4.6l5.5-12.2
							l3.5,17.5l-5,14.4l41.6,0.6l-3.2-19.3l-1-13.8l8.4,17.4C83.1,146.7,87.9,148.4,91.8,146.4L91.8,146.4z"/>
					</g>
					<g class="st12">
						<g>
							<g>
								<path class="st10" d="M41.8,143.2c3.1,2.4,7.8,1.6,11.7,0.9c3.9-0.6,7.6-2.5,10.2-5.5c1.1-1.4,2-3,1.9-4.8
									c-0.2-1.8-1.7-3.5-3.5-3.2c-2,0.2-3,2.5-3.9,4.3c-3.1,5.6-10,8.9-16.2,7.6C41.9,142.4,41.2,142.7,41.8,143.2z"/>
							</g>
						</g>
					</g>
					<g class="st12">
						<g>
							<g>
								<path class="st10" d="M67.5,116.1c1,7.9,0.5,7.3,2.2,15.1c0.8,3.8,1.8,7.8,4.4,10.7l-1.3-16.5L67.5,116.1z"/>
							</g>
						</g>
					</g>
				</g>
				<g>
					<g>
						<g>
							<path class="st10" d="M28.4,73.2"/>
						</g>
					</g>
				</g>
			</g>
			<g>
				<polygon class="st10" points="35.4,157.9 34.2,154.4 37.3,152.4 75.5,149.2 78.1,154.3 77,158.5 				"/>
			</g>
			<g>
				<g>
					<path class="st1" d="M43.3,92.5c-1.6,0.6-2.9,2-3.4,3.6c-0.5,1.6-0.2,3.5,0.7,4.9c0.3,0.5,0.8,1,0.7,1.6
						c-0.1,1.4-2.3,1.4-3.1,2.7c-0.5,0.8-0.1,1.9,0.6,2.5c0.7,0.7,1.6,1,2.3,1.6c0.8,0.5,1.5,1.3,1.4,2.3c0.8,0,1.3-1,1.1-1.8
						c-0.1-0.8-0.6-1.5-1-2.2c-0.4-0.7-0.6-1.6-0.1-2.3c0.5-0.7,1.6-0.8,2.4-1.1c1.6-0.6,2.5-2.7,1.8-4.4c-0.5-1.1-1.7-2.3-1.1-3.4
						c0.3-0.6,1.1-0.9,1.7-1.2c1.3-0.7,2.1-2,2.2-3.5c0.1-1.4-0.5-2.9-1.7-3.8"/>
				</g>
			</g>
			<g>
				<g>
					<path class="st1" d="M36.8,127.7c0,0-0.3,0.8-0.8,2c-0.6,1.2-1.4,2.8-2.4,4.5c-1,1.7-2,3.2-2.8,4.3c-0.8,1.1-1.3,1.7-1.3,1.7
						c0,0,0.4-0.7,1.1-1.8c0.7-1.1,1.7-2.6,2.7-4.4c1-1.7,1.9-3.3,2.5-4.4C36.4,128.3,36.8,127.6,36.8,127.7z"/>
				</g>
			</g>
			<g>
				<g>
					<path class="st1" d="M33.2,134.3c0.1,0,0.2,1.3-0.3,2.9c-0.5,1.6-1.4,2.6-1.5,2.5c-0.1-0.1,0.6-1.1,1.1-2.6
						C33,135.5,33.1,134.3,33.2,134.3z"/>
				</g>
			</g>
			<g>
				<g>
					<path class="st1" d="M94.1,134.8c-0.1,0-3.4-6.8-7.3-15.2c-3.9-8.4-7-15.3-6.9-15.4c0.1,0,3.4,6.8,7.3,15.2
						C91.1,127.8,94.2,134.7,94.1,134.8z"/>
				</g>
			</g>
			<g>
				<g>
					<path class="st1" d="M74.3,99.7c0,0.1-0.7,0.3-1.7,1c-1,0.6-2.4,1.7-3.4,3.3c-1,1.5-1.5,3.2-1.7,4.4c-0.2,1.2-0.1,2-0.2,2
						c0,0-0.2-0.8-0.1-2c0.1-1.2,0.5-3,1.6-4.6c1.1-1.6,2.5-2.7,3.6-3.3C73.5,99.8,74.3,99.6,74.3,99.7z"/>
				</g>
			</g>
			<g>
				<g>
					<path class="st1" d="M40.3,143.7c-0.1,0-2-7.9-4.2-17.8C34,116,32.3,108,32.4,108c0.1,0,2,7.9,4.2,17.8
						C38.8,135.6,40.5,143.6,40.3,143.7z"/>
				</g>
			</g>
			<g>
				<polyline class="st5" points="111.1,132.5 118.7,129.3 108.6,129.3 110.8,132.1 				"/>
			</g>
			<g>
				<g>
					<path class="st1" d="M95.5,133.4c-0.1,0.1-0.8-0.8-1.8-1.7c-1-1-1.8-1.7-1.8-1.8c0.1-0.1,1.1,0.5,2.1,1.5
						C95,132.4,95.6,133.3,95.5,133.4z"/>
				</g>
			</g>
			<g>
				<g>
					<path class="st1" d="M81.6,143.4c0,0-0.3-0.4-0.6-1.1c-0.4-0.7-0.9-1.7-1.6-3c-1.3-2.5-3.1-6-5-9.9c-1.9-3.9-3.7-7.4-5-9.9
						c-0.6-1.2-1.1-2.2-1.5-3c-0.4-0.7-0.6-1.1-0.5-1.1c0,0,0.3,0.4,0.7,1c0.4,0.7,1,1.7,1.7,2.9c1.4,2.5,3.2,6,5.1,9.8
						c1.9,3.8,3.6,7.3,4.9,9.9c0.6,1.2,1.1,2.2,1.5,3C81.4,143,81.6,143.4,81.6,143.4z"/>
				</g>
			</g>
			<g>
				<g>
					<path class="st1" d="M66.6,132.8c0,0,0,0.1,0,0.3c0,0.2,0,0.4-0.1,0.8c-0.1,0.7-0.5,1.6-1,2.7c-1.1,2.2-3.6,4.7-7,6.2
						c-3.4,1.5-6.8,2-9.2,2.3c-1.2,0.1-2.2,0.2-2.8,0.3c-0.7,0-1,0.1-1,0c0,0,0.4-0.1,1-0.2c0.7-0.1,1.7-0.2,2.8-0.4
						c2.4-0.4,5.7-0.9,9-2.4c3.3-1.5,5.8-3.9,6.9-6C66.4,134.3,66.5,132.8,66.6,132.8z"/>
				</g>
			</g>
			<g>
				<g>
					<path class="st1" d="M58.2,153c0,0.1-5.1,0.6-11.5,1c-6.4,0.4-11.5,0.7-11.5,0.6c0-0.1,5.1-0.6,11.5-1
						C53,153.1,58.2,152.9,58.2,153z"/>
				</g>
			</g>
			<g>
				<g>
					<path class="st1" d="M64.9,149.9c0.1,0,0.6,1.7,0.8,3.9c0.2,2.2,0.1,4,0,4c-0.1,0-0.2-1.8-0.4-3.9
						C65.1,151.7,64.8,149.9,64.9,149.9z"/>
				</g>
			</g>
			<g>
				<g>
					<path class="st1" d="M67.5,147.4c0.1,0,0.2,0.6,0.3,1.6c0.1,1,0.2,2.4,0.1,3.9c-0.1,1.5-0.4,2.9-0.6,3.8
						c-0.3,1-0.5,1.5-0.6,1.5c-0.1,0,0.6-2.4,0.8-5.4C67.8,149.8,67.4,147.4,67.5,147.4z"/>
				</g>
			</g>
			<g>
				<g>
					<path class="st1" d="M65.8,95.1c0,0.1-3.7,0-8.3-0.3c-4.6-0.3-8.3-0.6-8.3-0.7c0-0.1,3.7,0,8.3,0.3
						C62.1,94.7,65.8,95,65.8,95.1z"/>
				</g>
			</g>
		</g>
	</g>
	<g>
		<g>
			<polygon class="st0" points="245.5,111.7 159.7,111.7 159.7,47 245.6,46.9 			"/>
		</g>
		<g>
			<g>
				<g>
					<path class="st1" d="M242.2,108.4c0-0.5,0-34.9,0-64.8l0.1,0.1c-24.9,0-54.4,0.1-85.8,0.1c0,0-0.1,0-0.1,0l0.1-0.1
						c0,18.2,0,50.2,0,64.7l-0.1-0.1C207.8,108.4,241.4,108.4,242.2,108.4c-0.8,0-34.4,0-85.9,0.1l-0.1,0v-0.1c0-14.5,0-46.5,0-64.7
						v-0.1l0.1,0c0,0,0.1,0,0.1,0c31.4,0,60.9-0.1,85.8-0.1l0.1,0l0,0.1C242.3,73.5,242.2,107.9,242.2,108.4z"/>
					<path class="st1" d="M242.2,108.4L242,43.6c0-0.1,0.1-0.1,0.1-0.1c0,0,0,0,0.1,0l0.1,0.1c0.1,0,0.1,0.1,0,0.2
						c0,0-0.1,0.1-0.1,0.1l-43,0.1l-43,0c-0.1,0-0.2-0.1-0.2-0.2c0-0.1,0-0.1,0.1-0.2l0.1-0.1c0.1-0.1,0.2,0,0.3,0.1
						c0,0,0,0.1,0,0.1l-0.1,64.7c0,0.1,0,0.1-0.1,0.1c0,0,0,0-0.1,0l-0.1-0.1c-0.1,0-0.1-0.1,0-0.1c0,0,0.1-0.1,0.1-0.1l42.9,0
						l42.9,0c0.1,0,0.2,0.1,0.2,0.1c0,0.1-0.1,0.2-0.2,0.2l-86,0.1c-0.1,0-0.2-0.1-0.2-0.2v0l0-64.8c0-0.1,0.1-0.2,0.2-0.2h0l86.1,0
						c0.1,0,0.1,0.1,0.1,0.1v0L242.2,108.4z M242.2,108.4l0-64.9l0.1,0.1l-86.1,0.2l0.2-0.2l0,64.8l-0.2-0.2l86,0v0.3l-42.9-0.1
						l-42.9,0l0.1-0.2l0.1,0.1l-0.2,0.1l-0.1-64.7l0.3,0.2l-0.1,0.1l-0.1-0.4l43-0.1l43,0l-0.1,0.2l-0.1-0.1l0.2-0.1L242.2,108.4z"
						/>
				</g>
			</g>
		</g>
		<g>
			<defs>
				<polygon id="SVGID_3_" points="247.7,108.4 161.9,108.4 161.9,43.7 247.8,43.6 				"/>
			</defs>
			<clipPath id="SVGID_4_">
				<use xlink:href="#SVGID_3_"  style="overflow:visible;"/>
			</clipPath>
			<path class="st13" d="M210.3,56.7c0.1,2.3,0.3,3,1.1,4.8c0.5,1.1,1.2,2.1,1.5,3.2c0.3,1.1,0.1,2.2,0.3,3.3
				c0.3,1.8,1.5,3.3,2.4,4.9c0.9,1.6,1.5,3.6,0.6,5.2l-9.2-1.1l-0.6-11.4L210.3,56.7z"/>
			<path class="st13" d="M192.1,52.9c-1.2,2.5,0.5,5-0.7,7.6c-0.6,1.2-1.2,2.5-1.5,3.9c-0.3,1.2-0.3,2.5-0.8,3.6
				c-0.8,1.8-2.6,3.1-3.4,4.9c-1.2,2.7,0.1,6,2.4,7.8c2.3,1.8,5.5,2.2,8.4,2c1.8-0.1,3.6-0.5,5.1-1.4c1.5-0.9,2.8-2.5,2.9-4.2"/>
			<path class="st13" d="M205.7,48.4c5.9,2.6,7.1,12.3,7.1,13.6c0,1.6,0.9,1.9,1.9,2.7c1,0.8,2,1.8,2.3,3.1c0.2,1,0,2.1,0.5,3
				c0.6,1.1,1.9,1.5,3,2.2c2,1.3,2.9,3.6,3.1,5.9c0.1,2.3-0.5,4.6-1.1,6.8c-0.2,0.9-0.6,1.8-1.4,2.3c-0.6,0.4-1.4,0.4-2.1,0.3
				c-3.7-0.1-7.5-0.2-11.2-0.3c-2.9-0.1-5.8-0.1-8.4-1.2c-2.1-0.9-4-2.4-5.2-4.4c-1.2-2-1.5-4.4-0.9-6.5c0.5-1.7,1.5-3.2,1.8-4.9
				c0.4-2.1-1.4-3-2.1-5.1c-0.6-2.1-1.2-7-0.3-9"/>
			<path class="st14" d="M212.4,101.9l-1.8-5.9l-0.3,9c0,0,2.4,6.2,4.2,10.9c-3.7,2.2-7.9,3.6-12.4,3.8c-5.7,0.4-11-1-15.6-3.6
				l2.8-10.2L188,94.3l-3.7,5.4l-8-7.7c0,0,5.9-10.8,6.6-11.8c4.6-6.3,12.6-6.1,12.6-6.1l11.3,0.6c0,0,6.4-0.4,10.5,4.7
				c0,0,4.1,6.2,7.4,21.6L212.4,101.9z"/>
			<path class="st15" d="M166,66.6c0.8,0,0.6,4.5,1.2,3.6c0.6-0.9-0.3-5.5,0.5-5.4c1.1,0.1,0.8,4.8,0.8,5.2c0,0.4,0.6,0.4,0.6,0
				c0-0.5-0.2-6,0.9-5.9c0.6,0.1,0.4,1.1,0.4,1.1s-0.2,5.1,0.3,5.1c0.5,0,0.8-3,0.8-4c0-1,0.5-1.4,0.9-1.1c0.3,0.2,0.4,3.3,0.3,4.4
				c0,1-0.2,3.8,1,2.4c1.2-1.3,2.6-1.9,3-1.8c0.5,0.1,0.5,0.8,0,1c-0.4,0.2-1,0.7-1.4,1.1c-0.3,0.3-0.6,0.7-0.9,1.1
				c-0.3,0.4-0.4,0.7-0.6,1.4l1.6,18.7l1.1-1.4l6.5,6.3l-3.4,3.9c-2.5,2.9-7,3.1-9.6,0.2c-0.1-0.1-0.2-0.2-0.3-0.3
				c-0.6-0.8-1-1.8-1.1-2.8l-2.2-24.2l0,0c0-2.7-0.8-4.7-0.9-6.1C165.5,66.6,165.7,66.6,166,66.6z"/>
			<g class="st16">
				<g>
					<g>
						<g>
							<g>
								<path class="st17" d="M196.3,76.6c0-2.8,0-5.8,0-5.8s-3.6-0.6-4.3-5.4c-0.7-4.5,0.5-14.3,0.5-14.3l0,0
									c5.3-2.1,11.2-1.3,14.8,3l0,0L206.7,77c-0.1,2.7-2.4,4.7-5.3,4.6h0C198.5,81.5,196.2,79.3,196.3,76.6z"/>
							</g>
							<g>
								<g>
									<path class="st1" d="M193.4,58.6c0,0.3,0.2,0.6,0.6,0.6c0.3,0,0.6-0.2,0.6-0.5c0-0.3-0.2-0.6-0.6-0.6
										C193.7,58,193.4,58.3,193.4,58.6z"/>
								</g>
								<g>
									<g>
										<path class="st1" d="M192.4,57.9c0.1,0.1,0.5-0.3,1.2-0.2c0.7,0,1.1,0.3,1.2,0.3c0,0,0-0.2-0.2-0.3
											c-0.2-0.2-0.6-0.3-1-0.3c-0.4,0-0.8,0.1-1,0.3C192.4,57.7,192.4,57.9,192.4,57.9z"/>
									</g>
								</g>
							</g>
							<g>
								<g>
									<path class="st1" d="M200.1,58.8c0,0.3,0.2,0.6,0.6,0.6c0.3,0,0.6-0.2,0.6-0.5c0-0.3-0.2-0.6-0.6-0.6
										C200.4,58.2,200.1,58.5,200.1,58.8z"/>
								</g>
								<g>
									<g>
										<path class="st1" d="M199.2,58.2c0.1,0.1,0.5-0.3,1.2-0.2c0.7,0,1.1,0.3,1.2,0.3c0,0,0-0.2-0.2-0.3
											c-0.2-0.2-0.6-0.3-1-0.3c-0.4,0-0.8,0.1-1,0.3C199.3,58,199.2,58.2,199.2,58.2z"/>
									</g>
								</g>
							</g>
							<g>
								<g>
									<path class="st1" d="M196.8,63c0,0-0.4-0.1-1.1-0.2c-0.2,0-0.3-0.1-0.4-0.2c0-0.1,0-0.3,0.1-0.5c0.2-0.4,0.3-0.8,0.5-1.3
										c0.7-1.8,1.2-3.3,1.1-3.3c-0.1,0-0.7,1.4-1.4,3.2c-0.2,0.4-0.3,0.9-0.5,1.3c-0.1,0.2-0.2,0.4-0.1,0.7
										c0,0.1,0.2,0.2,0.3,0.2c0.1,0,0.2,0,0.3,0C196.4,63.1,196.8,63.1,196.8,63z"/>
								</g>
							</g>
							<g>
								<path class="st18" d="M196.3,70.8c0,0,3.2,0.2,6.4-1.6c0,0-1.6,3.2-6.3,2.7L196.3,70.8z"/>
							</g>
							<g>
								<path class="st17" d="M197.1,64.6c0.2-0.3,0.7-0.5,1.1-0.4c0.3,0,0.6,0.2,0.7,0.4c0.2,0.2,0.2,0.6,0,0.8
									c-0.2,0.2-0.5,0.3-0.9,0.2c-0.3-0.1-0.6-0.3-0.8-0.5c-0.1-0.1-0.1-0.1-0.2-0.2C197,64.8,197,64.7,197.1,64.6"/>
							</g>
							<g>
								<g>
									<path class="st1" d="M198.7,63.5c-0.1,0-0.1,0.7-0.7,1.2c-0.6,0.5-1.4,0.4-1.4,0.5c0,0,0.2,0.1,0.5,0.2
										c0.3,0,0.8-0.1,1.1-0.4c0.4-0.3,0.5-0.7,0.6-1C198.8,63.7,198.8,63.5,198.7,63.5z"/>
								</g>
							</g>
						</g>
						<g>
							<path class="st1" d="M205.2,50.7c-1.7,2.5-6.3,5-9.6,5.6c0.4-0.5,2.4-1.8,2.8-2.3c-1.5,1.1-3.6,2.6-5.6,2.7
								c-0.2,0-0.5,0-0.7-0.1c-0.3-0.2-0.3-0.5-0.3-0.7c-0.1-1.2,0-3.1,0.1-4.3c0.2-1.1,0.7-2.3,1.7-3.1c1.3-1,3.1-1.2,4.8-1.3
								c1.4,0,2.9,0.1,4.2,0.6C203.9,48.4,205,49.4,205.2,50.7"/>
						</g>
						<g>
							<path class="st1" d="M210.2,61.8c0.2-1.2,0.4-2.4,0.5-3.2c0.1-2.4-0.6-11.5-9-10.7l2,2.6c0,0-1.7,5.5,1.9,9.2
								c0,0,0.2,2.2,2.7,4.8C208.2,64.4,209.6,64.4,210.2,61.8"/>
						</g>
						<g>
							<path class="st17" d="M205.4,59.3c0.5-0.1,1-0.1,1.5,0.1c0.5,0.2,0.9,0.6,1.1,1c0.2,0.5,0.2,1,0,1.5
								c-0.2,0.5-0.5,0.9-0.9,1.3c-0.3,0.3-0.6,0.5-0.9,0.6c-0.4,0.1-0.8,0.1-1.1-0.2"/>
						</g>
						<g>
							<g>
								<path class="st18" d="M205.7,62.4c-0.1,0,0.2,0.3,0.6,0.2c0.2-0.1,0.4-0.2,0.6-0.5c0.1-0.2,0.2-0.5,0.3-0.8
									c0-0.3,0-0.7-0.2-0.9c-0.2-0.2-0.4-0.4-0.7-0.4c-0.5,0-0.6,0.3-0.6,0.3c0,0,0.2-0.1,0.5-0.1c0.3,0.1,0.6,0.5,0.5,1
									c-0.1,0.5-0.3,1-0.5,1.1C205.9,62.4,205.7,62.3,205.7,62.4z"/>
							</g>
						</g>
					</g>
				</g>
			</g>
			<g class="st16">
				<polygon class="st1" points="211.4,107.8 211.4,105.6 196.1,105.6 191.7,86 168.9,86.2 174.4,107.8 				"/>
				<path class="st0" d="M179.7,96.9c0.3,1,1.3,1.7,2,1.4s1.2-1.3,0.8-2.3c-0.3-1-1.3-1.7-2-1.4S179.3,95.9,179.7,96.9z"/>
			</g>
			<path class="st15" d="M190.6,107.6c-0.4-0.7-0.7-1.5-1-2.3c-0.1-0.2-0.1-0.4-0.1-0.6c0-0.2,0.2-0.4,0.4-0.4
				c0.4-0.1,0.6,0.4,0.7,0.7c0.5,1.3,1.7,2.2,3,2.5l0.9,0l0,0l19.9-1.8l-1-4l10.6-0.8l1,3.9c0.5,4.9-3.4,9.1-8.3,8.9l-22.9,0
				c-7.3,0.5-8.6-6-8.6-6L190.6,107.6z"/>
			<g class="st16">
				<path class="st1" d="M207.6,74.6c0,0,0,0.1,0.1,0.2c0,0.1,0.1,0.3,0.1,0.6c0,0.5,0,1.3-0.3,2.2c-0.3,0.9-0.9,1.9-1.8,2.7
					c-0.9,0.8-2.3,1.4-3.7,1.5c-1.4,0.1-2.8-0.4-3.9-1.1c-1-0.7-1.7-1.7-2.1-2.6c-0.4-0.9-0.5-1.6-0.5-2.2c0-0.3,0-0.5,0-0.6
					c0-0.1,0-0.2,0-0.2c0,0,0,0.3,0,0.8c0,0.5,0.2,1.3,0.6,2.1c0.4,0.8,1,1.8,2,2.5c1,0.7,2.3,1.1,3.7,1c1.4-0.1,2.7-0.6,3.6-1.4
					c0.9-0.8,1.5-1.8,1.8-2.6c0.3-0.9,0.4-1.6,0.4-2.2C207.7,74.9,207.6,74.6,207.6,74.6z"/>
			</g>
			<g class="st16">
				<path class="st1" d="M213.6,76.8c0,0-0.3,0-0.8,0.2c-0.5,0.2-1.2,0.6-1.8,1.3c-0.6,0.8-1,1.9-1.1,3.1c-0.1,0.6-0.1,1.3-0.1,2
					c0,0.7,0,1.4,0,2.2c0,3,0.2,5.6,0.3,7.5c0.1,1,0.2,1.7,0.2,2.3c0,0.2,0.1,0.5,0.1,0.6c0,0.1,0,0.2,0,0.2c0,0,0-0.1-0.1-0.2
					c0-0.2-0.1-0.4-0.1-0.6c-0.1-0.5-0.2-1.3-0.3-2.3c-0.2-1.9-0.4-4.6-0.4-7.6c0-0.7,0-1.5,0.1-2.2c0-0.7,0.1-1.4,0.2-2
					c0.2-1.3,0.6-2.4,1.2-3.2c0.6-0.8,1.3-1.2,1.9-1.3C213.3,76.7,213.6,76.8,213.6,76.8z"/>
			</g>
			<g class="st16">
				<path class="st1" d="M190.6,74.3c0,0,0,0.1,0,0.2c0,0.2-0.1,0.4-0.1,0.6c-0.1,0.6-0.3,1.4-0.4,2.4c-0.4,2-0.8,4.7-1.2,7.8
					c-0.4,3.1-0.7,5.8-0.9,7.9c-0.1,1-0.2,1.8-0.2,2.4c0,0.3,0,0.5-0.1,0.6c0,0.1,0,0.2,0,0.2c0,0,0-0.1,0-0.2c0-0.2,0-0.4,0-0.7
					c0-0.6,0.1-1.4,0.1-2.4c0.1-2,0.4-4.8,0.8-7.9c0.4-3.1,0.9-5.8,1.3-7.8c0.2-1,0.4-1.8,0.5-2.3c0.1-0.3,0.1-0.5,0.2-0.6
					C190.5,74.4,190.6,74.3,190.6,74.3z"/>
			</g>
		</g>
		<g>
			<g>
				<g>
					<path class="st1" d="M242.2,108.4c0-0.5,0-34.9,0-64.8l0.1,0.1c-24.9,0-54.4,0.1-85.8,0.1c0,0-0.1,0-0.1,0l0.1-0.1
						c0,18.2,0,50.2,0,64.7l-0.1-0.1C207.8,108.4,241.4,108.4,242.2,108.4c-0.8,0-34.4,0-85.9,0.1l-0.1,0v-0.1c0-14.5,0-46.5,0-64.7
						v-0.1l0.1,0c0,0,0.1,0,0.1,0c31.4,0,60.9-0.1,85.8-0.1l0.1,0l0,0.1C242.3,73.5,242.2,107.9,242.2,108.4z"/>
					<path class="st1" d="M242.2,108.4L242,43.6c0-0.1,0.1-0.1,0.1-0.1c0,0,0,0,0.1,0l0.1,0.1c0.1,0,0.1,0.1,0,0.2
						c0,0-0.1,0.1-0.1,0.1l-43,0.1l-43,0c-0.1,0-0.2-0.1-0.2-0.2c0-0.1,0-0.1,0.1-0.2l0.1-0.1c0.1-0.1,0.2,0,0.3,0.1
						c0,0,0,0.1,0,0.1l-0.1,64.7c0,0.1,0,0.1-0.1,0.1c0,0,0,0-0.1,0l-0.1-0.1c-0.1,0-0.1-0.1,0-0.1c0,0,0.1-0.1,0.1-0.1l42.9,0
						l42.9,0c0.1,0,0.2,0.1,0.2,0.1c0,0.1-0.1,0.2-0.2,0.2l-86,0.1c-0.1,0-0.2-0.1-0.2-0.2v0l0-64.8c0-0.1,0.1-0.2,0.2-0.2h0l86.1,0
						c0.1,0,0.1,0.1,0.1,0.1v0L242.2,108.4z M242.2,108.4l0-64.9l0.1,0.1l-86.1,0.2l0.2-0.2l0,64.8l-0.2-0.2l86,0v0.3l-42.9-0.1
						l-42.9,0l0.1-0.2l0.1,0.1l-0.2,0.1l-0.1-64.7l0.3,0.2l-0.1,0.1l-0.1-0.4l43-0.1l43,0l-0.1,0.2l-0.1-0.1l0.2-0.1L242.2,108.4z"
						/>
				</g>
			</g>
		</g>
		<circle class="st10" cx="234.4" cy="50" r="2.9"/>
	</g>
</g>
</svg>
