<?xml version="1.0" encoding="utf-8"?>
<!-- Generator: Adobe Illustrator 22.0.0, SVG Export Plug-In . SVG Version: 6.00 Build 0)  -->
<svg version="1.1" id="Layer_1" xmlns="http://www.w3.org/2000/svg" xmlns:xlink="http://www.w3.org/1999/xlink" x="0px" y="0px"
	 viewBox="0 0 198.9 167.7" style="enable-background:new 0 0 198.9 167.7;" xml:space="preserve">
<style type="text/css">
	.st0{fill:#66CAF3;}
	.st1{fill:#1A2E35;}
	.st2{fill:#FFFFFF;}
	.st3{opacity:0.58;}
	.st4{fill:#267BF8;}
	.st5{fill:#3890F9;}
	.st6{opacity:0.77;fill:#66CAF3;}
	.st7{opacity:0.77;fill:#267BF8;}
</style>
<g>
	<path class="st0" d="M155,119.8L46.7,147.6c-7.9,2-16-2.7-18-10.6L10.8,67.4c-0.7-2.6,0.9-5.3,3.5-6l127.4-32.8
		c2.6-0.7,5.3,0.9,6,3.5l17.9,69.5C167.7,109.7,162.9,117.7,155,119.8z"/>
	<path class="st1" d="M147.9,114.3l-28.8,7.5l-28.8,7.7c-9.6,2.6-19.2,5.1-28.8,7.6c-4.8,1.3-9.6,2.5-14.4,3.7l-7.2,1.8
		c-1.2,0.3-2.4,0.6-3.7,0.9c-1.3,0.2-2.6,0.3-3.9,0.1c-2.6-0.3-5.1-1.4-7-3.1c-2-1.7-3.5-3.9-4.2-6.4c-1.3-4.8-2.4-9.6-3.6-14.5
		c-2.4-9.6-4.8-19.3-7.3-28.9C7.9,81.2,5.4,71.6,2.8,62L1,54.8c-0.3-1.2-0.7-2.4-0.8-3.7c-0.2-1.3-0.1-2.5,0-3.8
		c0.4-2.5,1.5-4.9,3.3-6.8c0.9-1,1.9-1.8,2.9-2.4c1.1-0.7,2.3-1.1,3.5-1.5l57.6-15.1L96.3,14l14.4-3.7l7.2-1.8
		c1.2-0.3,2.3-0.6,3.7-0.9c1.3-0.2,2.6-0.3,3.9-0.1c2.6,0.3,5.1,1.4,7.1,3.1c2,1.7,3.5,4,4.3,6.5c1.3,4.9,2.5,9.6,3.7,14.4l7.2,28.9
		l7.1,28.9l1.8,7.2c0.3,1.2,0.6,2.4,0.8,3.6c0.2,1.2,0.1,2.5-0.1,3.7c-0.4,2.5-1.6,4.8-3.2,6.7c-0.8,0.9-1.8,1.7-2.9,2.4
		C150.3,113.5,149.1,113.9,147.9,114.3z M147.8,114.1c1.2-0.3,2.3-0.8,3.4-1.4c1-0.7,2-1.4,2.8-2.3c1.7-1.8,2.8-4.1,3.1-6.6
		c0.2-1.2,0.2-2.5,0-3.7c-0.2-1.2-0.5-2.4-0.8-3.6l-1.9-7.2l-7.7-28.8l-7.6-28.8l-3.8-14.4c-0.7-2.2-2-4.3-3.8-5.7
		c-1.8-1.5-4-2.5-6.3-2.7c-1.2-0.2-2.3-0.1-3.5,0.1c-1.1,0.2-2.4,0.6-3.6,0.9l-7.2,1.9l-14.4,3.7l-28.8,7.3L10.1,37.4
		c-1.2,0.3-2.3,0.8-3.3,1.4c-1,0.6-2,1.4-2.8,2.3c-1.6,1.8-2.7,4-3.1,6.4c-0.2,1.2-0.2,2.4-0.1,3.6c0.2,1.2,0.5,2.4,0.8,3.6l1.8,7.2
		c2.4,9.6,4.9,19.2,7.4,28.8c2.5,9.6,5,19.2,7.6,28.8c1.3,4.8,2.5,9.6,3.8,14.4c0.7,2.3,2.1,4.3,3.9,5.8c1.8,1.5,4.1,2.5,6.4,2.7
		c1.2,0.2,2.4,0.1,3.5-0.1c1.1-0.2,2.4-0.6,3.6-0.9l7.2-1.9c4.8-1.2,9.6-2.5,14.4-3.7c9.6-2.4,19.2-4.9,28.9-7.2l28.9-7.1
		L147.8,114.1z"/>
	<g>
		<path class="st2" d="M66.4,83.6L26.7,93.8c-2.5,0.6-5-0.9-5.6-3.3l-5.5-21.4c-0.6-2.5,0.9-5,3.3-5.6l39.7-10.2
			c2.5-0.6,5,0.9,5.6,3.3L69.8,78C70.4,80.4,68.9,82.9,66.4,83.6z"/>
		<path class="st1" d="M66.5,83.7c-6.3,1.6-12.5,3.4-18.7,5.2c-6.2,1.8-12.5,3.4-18.7,5c-0.8,0.2-1.5,0.4-2.4,0.6
			c-0.9,0.2-1.8,0.1-2.7-0.2c-1.7-0.6-3-2.1-3.3-3.8c-0.7-3.1-1.5-6.3-2.3-9.4c-0.8-3.1-1.6-6.3-2.4-9.4l-0.6-2.3
			c-0.2-0.8-0.2-1.7,0-2.6c0.4-1.7,1.8-3.1,3.5-3.6c6.2-1.7,12.5-3.5,18.7-5.1c6.2-1.7,12.5-3.3,18.8-4.9c0.8-0.2,1.5-0.4,2.4-0.6
			c0.9-0.2,1.9-0.1,2.8,0.2c0.9,0.3,1.7,0.8,2.3,1.5c0.6,0.7,1,1.6,1.2,2.5c0.7,3.1,1.5,6.3,2.2,9.4l2.1,9.5
			c0.2,0.8,0.4,1.6,0.6,2.4c0.2,0.8,0.2,1.7,0,2.5C69.4,82,68.1,83.3,66.5,83.7z M66.4,83.5c1.5-0.4,2.8-1.7,3.2-3.2
			c0.5-1.5-0.3-3.1-0.7-4.7l-2.7-9.3c-0.9-3.1-1.8-6.2-2.6-9.3c-0.3-1.4-1.3-2.5-2.6-2.9c-0.6-0.2-1.3-0.2-2-0.1
			c-0.7,0.2-1.5,0.4-2.3,0.6c-6.2,1.7-12.5,3.2-18.8,4.8c-6.3,1.6-12.6,3.1-18.8,4.5c-1.4,0.3-2.7,1.5-3.1,2.9
			c-0.2,0.7-0.2,1.5-0.1,2.2l0.6,2.4c0.8,3.1,1.6,6.3,2.4,9.4c0.8,3.1,1.7,6.2,2.6,9.3c0.3,1.5,1.5,2.6,2.8,3.1
			c0.7,0.2,1.4,0.2,2.1,0.1l2.3-0.6C35,91,41.2,89.4,47.5,88C53.8,86.5,60.2,85.1,66.4,83.5z"/>
	</g>
	<path class="st1" d="M126.8,27.9c-5.1,1.5-10.3,2.9-15.4,4.3l-15.5,4.2c-10.3,2.8-20.7,5.4-31,8.2c-10.4,2.6-20.7,5.3-31.1,7.8
		l-15.6,3.8C13,57.4,7.8,58.7,2.6,59.9C7.7,58.4,12.9,57,18,55.5l15.5-4.2c10.3-2.8,20.7-5.4,31-8.1c10.4-2.6,20.7-5.3,31.1-7.8
		l15.6-3.8C116.4,30.4,121.6,29.1,126.8,27.9z"/>
	<g>
		<circle class="st2" cx="13.3" cy="47.3" r="3.2"/>
		<path d="M16.4,46.5c0.2,0.8,0.3,1.7,0,2.7c-0.3,0.9-1.2,1.7-2.2,1.8c-1,0.2-1.9-0.2-2.7-0.7c-0.7-0.5-1.4-1.2-1.7-2
			c-0.4-0.9-0.4-2,0.1-2.9c0.5-0.9,1.3-1.6,2.3-1.9c1-0.2,2.1,0,2.8,0.7C15.9,44.9,16.2,45.7,16.4,46.5z M16.3,46.6
			c-0.2-0.8-0.9-1.4-1.6-1.5c-0.7-0.2-1.3-0.2-1.9,0c-0.6,0.2-1.1,0.5-1.5,1c-0.4,0.5-0.6,1.2-0.6,1.9c0,0.7,0.5,1.5,1.2,1.8
			c0.7,0.4,1.5,0.2,2.1-0.1c0.6-0.3,1.1-0.6,1.7-1.1C16.1,48.2,16.5,47.4,16.3,46.6z"/>
	</g>
	<g>
		<circle class="st2" cx="24.1" cy="44.6" r="3.2"/>
		<path d="M27.2,43.8c0.2,0.8,0.3,1.7,0,2.6c-0.3,0.9-1.2,1.7-2.2,1.8c-1,0.2-1.9-0.2-2.7-0.7c-0.7-0.5-1.4-1.2-1.7-2
			c-0.4-0.9-0.4-2,0.1-2.9c0.5-0.9,1.3-1.6,2.3-1.9c1-0.2,2.1,0,2.8,0.7C26.7,42.1,27,43,27.2,43.8z M27.1,43.8
			c-0.2-0.8-0.9-1.4-1.6-1.5c-0.7-0.2-1.3-0.2-1.9,0c-0.6,0.2-1.1,0.5-1.5,1c-0.4,0.5-0.6,1.2-0.6,1.9c0,0.7,0.5,1.5,1.2,1.8
			c0.7,0.4,1.5,0.2,2.1-0.1c0.6-0.3,1.1-0.6,1.7-1.1C26.9,45.4,27.3,44.6,27.1,43.8z"/>
	</g>
	<g>
		<circle class="st2" cx="35" cy="41.8" r="3.2"/>
		<path d="M38.1,41c0.2,0.8,0.3,1.7,0,2.6c-0.3,0.9-1.2,1.7-2.2,1.8c-1,0.2-1.9-0.2-2.7-0.7c-0.7-0.5-1.4-1.2-1.7-2
			c-0.4-0.9-0.4-2,0.1-2.9c0.5-0.9,1.3-1.6,2.3-1.9c1-0.2,2.1,0,2.8,0.7C37.6,39.3,37.9,40.2,38.1,41z M38,41
			c-0.2-0.8-0.9-1.4-1.6-1.5c-0.7-0.2-1.3-0.2-1.9,0c-0.6,0.2-1.1,0.5-1.5,1c-0.4,0.5-0.6,1.2-0.6,1.9c0,0.7,0.5,1.5,1.2,1.8
			c0.7,0.4,1.5,0.2,2.1-0.1c0.6-0.3,1.1-0.6,1.7-1.1C37.8,42.6,38.2,41.8,38,41z"/>
	</g>
	<path class="st1" d="M73.5,61.6c6-2.2,12.1-3.9,18.2-5.5c6.1-1.6,12.3-3,18.6-4c-6,2.2-12.1,3.9-18.2,5.5
		C86,59.1,79.8,60.6,73.5,61.6z"/>
	<path class="st1" d="M75.4,68.7c1.5-0.7,3-1.2,4.5-1.7c1.5-0.5,3-0.9,4.6-1.3c1.5-0.4,3.1-0.7,4.6-1c1.6-0.3,3.1-0.5,4.8-0.6
		c-1.5,0.7-3,1.3-4.5,1.8c-1.5,0.5-3,0.9-4.6,1.3c-1.5,0.4-3.1,0.7-4.6,1C78.6,68.4,77,68.6,75.4,68.7z"/>
	<g class="st3">
		<polygon class="st0" points="41.8,80.2 46.4,69.8 55,76.9 		"/>
		<polygon class="st0" points="30.1,83.3 36.4,68.7 48.4,78.6 		"/>
		<circle class="st0" cx="54" cy="66" r="1.8"/>
	</g>
	<g>
		<path class="st4" d="M165.9,51.7l-6.1,11.7c-14.5,27.8-34,52.6-57.4,73.3l-2.6,2.3c0,0,4.8,24.7,27.6,21.8l0,0
			c17.8-28,38.2-52.8,62.4-75.3l8.9-7.3L165.9,51.7z"/>
		<path class="st1" d="M164.4,45.9l-6.1,12.4c-2.1,4.1-4.3,8.2-6.6,12.1c-1.1,2-2.3,4-3.6,5.9c-1.2,2-2.5,3.9-3.7,5.8
			c-1.3,1.9-2.6,3.8-3.9,5.7c-1.3,1.9-2.7,3.7-4.1,5.6c-5.6,7.4-11.6,14.3-18,21c-3.2,3.3-6.5,6.5-9.8,9.7c-1.7,1.6-3.3,3.2-5.1,4.7
			c-1.7,1.6-3.4,3.1-5.1,4.6l0.1-0.2c0.7,3.1,1.9,6.2,3.5,9c1.6,2.8,3.5,5.4,6,7.5c2.4,2.1,5.3,3.6,8.4,4.4c3.1,0.8,6.3,0.8,9.4,0.4
			l-0.4,0.3c4.8-7.8,10-15.3,15.4-22.8c5.4-7.4,11.1-14.5,17.1-21.5c6-6.9,12.3-13.6,18.8-20.1c1.6-1.6,3.3-3.2,4.9-4.8
			c1.6-1.6,3.3-3.1,5-4.7c1.6-1.6,3.5-2.9,5.3-4.4l5.4-4.2c0,0,0.1,0,0.1,0c0,0,0,0.1,0,0.1l-5.2,4.4c-1.7,1.5-3.5,2.9-5.1,4.5
			c-1.6,1.6-3.3,3.2-4.9,4.8c-1.6,1.6-3.2,3.2-4.8,4.9c-6.4,6.6-12.5,13.3-18.4,20.3c-5.9,6.9-11.5,14.1-17,21.4
			c-5.5,7.3-10.6,14.8-15.6,22.5l0,0c-0.1,0.2-0.3,0.2-0.4,0.3c-3.3,0.4-6.7,0.2-9.9-0.6c-3.2-0.9-6.2-2.5-8.6-4.8
			c-2.5-2.2-4.4-4.9-6-7.8c-1.5-2.9-2.7-6-3.4-9.2c0-0.1,0-0.2,0.1-0.2c3.5-3,6.9-6.1,10.2-9.3c1.7-1.6,3.3-3.2,4.9-4.8
			c1.6-1.7,3.2-3.3,4.7-5c6.2-6.8,12-13.9,17.5-21.2c5.5-7.3,10.7-14.9,15.4-22.8c2.4-3.9,4.7-7.9,6.9-11.9l6.6-12.1
			C164.3,45.8,164.4,45.8,164.4,45.9C164.4,45.9,164.4,45.9,164.4,45.9z"/>
		<path class="st4" d="M198.7,78.1c-1.4,1.7-9.8-2.9-18.8-10.2c-9-7.3-15.3-14.6-14-16.3c1.4-1.7,9.9,2.9,18.9,10.2
			C193.8,69.2,200,76.5,198.7,78.1z"/>
		<g>
			<path class="st5" d="M162.5,114.8c-2.7,0.8-14.5,3.1-24.9-14.7c-1.4,1.8-2.7,3.5-4.1,5.2c7.1,11.1,14.9,14.8,20.4,15.9
				c0.9,0.2,2,0.3,2.9,0.4C158.6,119.3,160.5,117,162.5,114.8z"/>
			<polygon class="st5" points="141.5,100.8 134.4,72.2 130.6,80.6 122.2,78.7 136.7,103.5 			"/>
			<polygon class="st5" points="135.7,105.3 115.3,100.3 120,106.6 115.2,110.9 135,110.3 			"/>
			<path class="st5" d="M132,110.5c-1.8-4.9,0.8-10.3,5.8-12.1c5-1.8,10.5,0.6,12.3,5.5c1.8,4.9-0.8,10.3-5.8,12.1
				C139.3,117.8,133.8,115.3,132,110.5z"/>
		</g>
		<path class="st1" d="M197.2,72.4c-0.4,0.4-0.9,0.4-1.3,0.4c-0.5,0-0.9-0.2-1.4-0.3c-0.9-0.3-1.7-0.6-2.6-1
			c-1.7-0.7-3.3-1.6-4.9-2.5c-3.2-1.8-6.2-4-9-6.4c-2.8-2.4-5.4-5-8-7.7c-1.3-1.3-2.5-2.7-3.7-4.1c-0.6-0.7-1.1-1.5-1.6-2.3
			c-0.2-0.4-0.5-0.8-0.6-1.3c-0.1-0.2-0.1-0.5-0.2-0.8c0-0.3,0-0.6,0.3-0.9c0.5-0.6,1.2-0.5,1.6-0.5c0.5,0,1,0.1,1.4,0.3
			c0.9,0.3,1.8,0.6,2.6,1c1.7,0.8,3.3,1.7,4.9,2.7c3.2,1.9,6.2,4.1,9,6.4c2.8,2.4,5.6,4.8,8,7.6c1.2,1.4,2.4,2.8,3.5,4.3
			c0.5,0.8,1.1,1.5,1.5,2.3c0.2,0.4,0.4,0.8,0.6,1.3C197.5,71.4,197.6,72,197.2,72.4z M197.1,72.3c0.2-0.3,0.2-0.8,0-1.2
			c-0.1-0.4-0.3-0.8-0.6-1.2c-0.5-0.8-1-1.5-1.6-2.2c-1.2-1.4-2.5-2.7-3.9-3.9c-2.7-2.4-5.5-4.8-8.3-7.1c-2.8-2.3-5.7-4.5-8.8-6.5
			c-1.5-1-3.1-1.9-4.7-2.8c-0.8-0.4-1.6-0.8-2.4-1.1c-0.4-0.1-0.8-0.3-1.2-0.3c-0.4-0.1-0.8,0-0.9,0.1c-0.1,0.1-0.1,0.5,0,0.9
			c0.1,0.4,0.3,0.8,0.5,1.2c0.4,0.8,0.9,1.5,1.5,2.3c1.1,1.4,2.3,2.8,3.6,4.1c2.6,2.6,5.5,4.8,8.4,7c2.9,2.2,5.8,4.4,8.8,6.6
			c1.5,1.1,3,2.1,4.6,3c0.8,0.4,1.6,0.8,2.5,1.1c0.4,0.2,0.9,0.3,1.3,0.3C196.3,72.6,196.8,72.6,197.1,72.3z"/>
		<g>
			<path class="st1" d="M128.6,105.6l0-0.1L128.6,105.6c-2.8,0.1-5.5,0.1-8.3,0.3c-2.8,0.1-5.6,0.3-8.4,0.4c-0.2,0-0.3-0.1-0.3-0.3
				c0-0.1,0-0.2,0.1-0.2l0,0l4.7-4.4l-0.1,0.6c-1.6-2.1-3.3-4.1-4.8-6.2c-0.2-0.3-0.1-0.6,0.1-0.8c0.1-0.1,0.3-0.1,0.5-0.1l0,0
				c2.8,0.7,5.6,1.3,8.4,2l8.3,2.1l-0.7,0.4c0.6-1.7,1.7-3.3,3.1-4.4l-0.1,0.7l-6.1-10.9c-1-1.8-2.1-3.6-3.1-5.4l-3.1-5.4
				c-0.1-0.1,0-0.2,0.1-0.3c0.1,0,0.1,0,0.2,0l8.4,1.9l-0.3,0.2l3.6-8.4c0.1-0.2,0.3-0.3,0.5-0.2c0.1,0,0.2,0.1,0.2,0.3l0,0
				l3.4,12.7l3.3,12.7l-0.7-0.5c1.9-0.1,3.8,0.3,5.5,1.2c1.7,0.9,3.1,2.3,4.1,3.9c0.9,1.7,1.4,3.6,1.2,5.5c-0.1,1.9-0.8,3.8-2,5.3
				L146,107c1,0.6,2,1.1,3,1.5c1.1,0.4,2.1,0.7,3.2,0.9c2.2,0.4,4.5,0.3,6.7-0.2l0,0c0.4-0.1,0.8,0.1,0.9,0.5c0.1,0.2,0,0.5-0.2,0.7
				l-5.8,6.7l0,0.1c-0.1,0.1-0.3,0.2-0.5,0.2c-1.2-0.2-2.5-0.4-3.7-0.7c-1.2-0.3-2.4-0.7-3.5-1.2c-2.3-1-4.4-2.3-6.3-3.8l0.2,0
				c-2.3,0.5-4.8,0.2-6.9-0.9C131,109.7,129.4,107.8,128.6,105.6z M128.8,105.6c0.8,2.1,2.5,3.9,4.5,4.9c2,1,4.4,1.2,6.6,0.6
				c0.1,0,0.1,0,0.2,0l0,0c2,1.4,4.1,2.6,6.4,3.4c1.1,0.4,2.3,0.8,3.4,1c1.2,0.2,2.4,0.3,3.6,0.5l-0.5,0.2l5.6-6.9l0.8,1.2
				c-2.4,0.7-4.9,0.8-7.3,0.3c-1.2-0.2-2.4-0.6-3.5-1c-1.2-0.4-2.2-1-3.3-1.6c-0.4-0.2-0.5-0.7-0.3-1l0-0.1l0,0
				c0.9-1.3,1.5-2.9,1.6-4.5c0.1-1.6-0.2-3.2-1-4.7c-0.8-1.4-2-2.6-3.4-3.4c-1.4-0.8-3.1-1.1-4.7-1.1l0,0c-0.3,0-0.6-0.2-0.7-0.5
				l-3.1-12.8l-3-12.8l0.7,0.1l-3.9,8.3c-0.1,0.1-0.2,0.2-0.3,0.2l-8.4-2l0.2-0.3l3.2,5.4c1.1,1.8,2.1,3.6,3.2,5.3l6.5,10.6
				c0.1,0.2,0.1,0.5-0.1,0.7l0,0c-1.2,1.1-2.1,2.5-2.6,4c-0.1,0.3-0.4,0.5-0.7,0.4l-8.4-2c-2.8-0.7-5.6-1.4-8.3-2.1l0.6-0.9
				c1.6,2.1,3.1,4.2,4.6,6.4l0,0c0.1,0.2,0.1,0.4-0.1,0.6l-4.9,4.2l-0.2-0.5c2.8,0,5.6,0,8.4-0.1c2.8,0,5.6-0.1,8.4-0.2
				C128.7,105.4,128.7,105.5,128.8,105.6L128.8,105.6L128.8,105.6z"/>
		</g>
	</g>
	<path class="st6" d="M176.6,9.5l0.2,0.3c0.6,0.7-0.1,1.7-1,1.3l-0.3-0.1c-2.7-1.1-5.8-0.6-8,1.3l-0.3,0.2c-0.7,0.6-1.7-0.1-1.3-1
		l0.1-0.3c1.1-2.7,0.6-5.8-1.3-8L164.4,3c-0.6-0.7,0.1-1.7,1-1.3l0.3,0.1c2.7,1.1,5.8,0.6,8-1.3l0.3-0.2c0.7-0.6,1.7,0.1,1.3,1
		l-0.1,0.3C174.1,4.2,174.6,7.3,176.6,9.5z"/>
	<path class="st7" d="M77.6,162.1l0.3,0.2c0.7,0.4,0.3,1.5-0.5,1.4l-0.3,0c-2.7-0.3-5.3,1-6.8,3.3l-0.2,0.3
		c-0.4,0.7-1.5,0.3-1.4-0.5l0-0.3c0.3-2.7-1-5.3-3.3-6.8l-0.3-0.2c-0.7-0.4-0.3-1.5,0.5-1.4l0.3,0c2.7,0.3,5.3-1,6.8-3.3l0.2-0.3
		c0.4-0.7,1.5-0.3,1.4,0.5l0,0.3C74,158,75.3,160.7,77.6,162.1z"/>
</g>
</svg>
