<?xml version="1.0" encoding="utf-8"?>
<!-- Generator: Adobe Illustrator 22.0.0, SVG Export Plug-In . SVG Version: 6.00 Build 0)  -->
<svg version="1.1" id="Layer_1" xmlns="http://www.w3.org/2000/svg" xmlns:xlink="http://www.w3.org/1999/xlink" x="0px" y="0px"
	 viewBox="0 0 198.8 161.4" style="enable-background:new 0 0 198.8 161.4;" xml:space="preserve">
<style type="text/css">
	.st0{fill:#66CAF3;}
	.st1{fill:#FFFFFF;}
	.st2{fill:#1A2E35;}
	.st3{opacity:0.46;}
	.st4{fill:#267BF8;}
	.st5{fill:#FAFAFA;}
	.st6{opacity:0.77;fill:#267BF8;}
	.st7{opacity:0.77;fill:#66CAF3;}
</style>
<g>
	<g>
		<path class="st0" d="M51.1,153l102.3-30.8c3.8-1.2,5.5-5.6,3.5-9l-33-54.6c-1.4-2.4-4.3-3.5-7-2.7L14.6,86.7
			c-3.8,1.2-5.5,5.6-3.5,9l33,54.6C45.6,152.7,48.4,153.8,51.1,153z"/>
	</g>
	<g>
		<g>
			<path class="st1" d="M94.2,146.6l100-30.1c3.2-1,5.1-4.4,4.1-7.6l0,0c-1-3.2-4.4-5.1-7.6-4.1l-100,30.1L94.2,146.6z"/>
			<path class="st2" d="M94.3,146.5l54.6-16.6l27.2-8.3l13.6-4.1l3.4-1l0.9-0.3c0.1,0,0.3-0.1,0.4-0.2c0.1-0.1,0.2-0.1,0.4-0.2
				c0.5-0.3,0.9-0.6,1.3-1c0.7-0.8,1.4-1.6,1.9-2.6c0.3-0.5,0.4-1.1,0.4-1.6c0-0.6-0.1-1.1-0.4-1.7c-0.7-2.2-2.7-3.8-4.9-4
				c-0.5,0-1.1,0-1.6,0.1c-0.5,0.1-1.1,0.3-1.7,0.5l-3.4,1.1l-13.6,4.2l-27.3,8.3c-18.2,5.5-36.4,10.9-54.7,16l0.2-0.4L94.3,146.5z
				 M94.2,146.6L90.3,135l-0.1-0.3l0.4-0.1c18.1-5.8,36.3-11.4,54.5-16.9l27.3-8.1l13.7-4l3.4-1c0.6-0.2,1.1-0.3,1.8-0.5
				c0.6-0.1,1.3-0.1,1.9,0c2.5,0.3,4.8,2.2,5.5,4.6c0.2,1.3,0.2,2.5,0,3.7c-0.2,1.3-0.8,2.6-1.9,3.3c-0.5,0.4-1.1,0.7-1.7,0.9
				c-0.6,0.1-1.2,0.3-1.8,0.5l-3.4,1l-13.7,4.1l-27.4,8.2L94.2,146.6z"/>
		</g>
	</g>
	<g>
		<g>
			<path class="st1" d="M46,161.1l49.9-15l-3.5-11.7l-49.9,15c-3.2,1-5.1,4.4-4.1,7.6h0C39.3,160.2,42.7,162.1,46,161.1z"/>
			<path class="st2" d="M46,161l49.9-15.1l-0.1,0.2c-0.4-0.9-0.9-1.9-1.3-2.8c-0.4-0.9-0.7-1.9-0.9-2.9c-0.2-1-0.3-2-0.6-3
				c-0.1-0.5-0.3-1-0.4-1.5c-0.2-0.5-0.3-1-0.5-1.4l0.4,0.2l-8.5,2.8l-8.5,2.7c-5.7,1.8-11.4,3.6-17.1,5.3c-2.9,0.8-5.7,1.7-8.6,2.5
				l-4.3,1.2l-2.2,0.6c-0.7,0.2-1.4,0.4-2,0.7c-1.2,0.6-2.2,1.7-2.7,3.1c-0.5,1.3-0.5,2.8,0,4.2c0.5,1.3,1.6,2.5,2.9,3.1
				C43,161.3,44.5,161.4,46,161z M46,161.2c-2.9,0.9-6.3-0.6-7.6-3.5c-0.6-1.4-0.8-3-0.3-4.5c0.5-1.5,1.5-2.8,2.8-3.7
				c0.7-0.4,1.5-0.7,2.2-0.9l2.1-0.7l4.2-1.4c2.8-0.9,5.7-1.8,8.5-2.7c5.7-1.7,11.4-3.4,17.1-5l8.6-2.4l8.6-2.4l0.4-0.1l0.1,0.3
				c0.1,0.5,0.2,1,0.3,1.5c0.1,0.5,0.3,1,0.4,1.5c0.3,1,0.8,1.9,1.2,2.8c0.4,0.9,0.7,1.9,0.9,2.9c0.2,1,0.3,2,0.5,3.1l0,0.1l-0.1,0
				L46,161.2z"/>
		</g>
	</g>
	<g class="st3">
		<path class="st1" d="M43.7,131.3l33.2-10c1.2-0.4,1.8-1.8,1.1-2.9l-10.7-17.7c-0.5-0.8-1.4-1.1-2.3-0.9l-33.2,10
			c-1.2,0.4-1.8,1.8-1.1,2.9l10.7,17.7C41.9,131.2,42.8,131.6,43.7,131.3z"/>
	</g>
	<g>
		<path class="st2" d="M41.6,149.6l22.7-7l22.6-7.1c15.1-4.8,30.2-9.3,45.4-13.8l11.4-3.3c1.8-0.5,3.2-1.9,3.8-3.6
			c0.3-0.9,0.4-1.8,0.2-2.7c-0.1-0.5-0.2-0.9-0.4-1.3c-0.2-0.4-0.4-0.8-0.7-1.3c-4-6.8-8.1-13.6-12.1-20.4
			c-4.1-6.8-8.2-13.5-12.3-20.3l-6.2-10.1l-1.6-2.5c-0.5-0.9-1-1.6-1.8-2.2c-1.5-1.2-3.5-1.5-5.2-1C77.3,62.2,47,71.6,16.7,80.6
			L5.3,84c-1.7,0.5-3.1,1.8-3.6,3.5c-0.3,0.8-0.3,1.7-0.2,2.6c0.1,0.4,0.2,0.8,0.4,1.2c0.1,0.2,0.2,0.4,0.3,0.6l0.4,0.6L14.7,113
			l12,20.5l6.1,10.2l1.5,2.5c0.5,0.9,1,1.7,1.8,2.3C37.6,149.7,39.7,150.1,41.6,149.6z M41.7,149.7c-1.9,0.6-4.1,0.2-5.7-1.1
			c-0.8-0.6-1.4-1.5-1.9-2.3l-1.5-2.5l-6.2-10.1l-12.5-20.2L1.4,93.3L1,92.7c-0.1-0.2-0.3-0.5-0.4-0.7c-0.2-0.5-0.4-1-0.5-1.6
			C-0.1,89.2,0,88.1,0.3,87c0.7-2.1,2.4-3.9,4.6-4.5l11.4-3.4c30.3-9.2,60.6-18.1,91-27c2-0.6,4.3-0.1,5.9,1.2
			c0.8,0.6,1.4,1.6,1.9,2.4l1.5,2.5l6.1,10.2c4.1,6.8,8.1,13.6,12.3,20.3c4.1,6.8,8.3,13.5,12.4,20.2c0.3,0.4,0.5,0.9,0.8,1.3
			c0.2,0.5,0.4,1,0.5,1.5c0.2,1,0.1,2.1-0.2,3.1c-0.6,2-2.3,3.7-4.4,4.3l-11.3,3.5c-15.1,4.6-30.3,9.2-45.5,13.5L64.4,143
			L41.7,149.7z"/>
	</g>
	<circle class="st4" cx="124.4" cy="48.5" r="44.4"/>
	<path class="st2" d="M160.1,59.3c-3.6,11.1-11.7,20.7-22.1,26.1c-5.2,2.7-11,4.3-16.9,4.8c-5.9,0.5-11.9-0.4-17.4-2.2
		C98,86,92.9,83,88.5,79.1c-4.4-3.9-8-8.7-10.6-13.9c-2.6-5.3-4.2-11-4.6-16.8c-0.4-5.8,0.2-11.8,2-17.3
		c3.6-11.2,11.8-20.9,22.3-26.2c5.3-2.7,11.1-4.3,17-4.7c5.9-0.5,11.9,0.4,17.5,2.2c5.6,1.9,10.9,4.8,15.3,8.8
		c4.4,3.9,8.1,8.7,10.6,14C163.1,35.7,163.8,48.2,160.1,59.3z M159.9,59.2c1.8-5.5,2.5-11.4,2-17.2c-0.5-5.8-2.1-11.4-4.8-16.5
		c-5.3-10.2-14.6-18.2-25.5-21.8C120.8,0.2,108.6,1,98.3,6.1c-5.1,2.6-9.8,6.1-13.6,10.4c-3.8,4.3-6.7,9.4-8.6,14.8
		c-3.8,10.9-3,23.4,2.3,33.7c5.2,10.4,14.7,18.3,25.6,21.8c10.9,3.6,23.1,2.8,33.5-2.2c5.2-2.5,9.9-6,13.8-10.3
		C155.1,69.9,158.1,64.7,159.9,59.2z"/>
	<g>
		<path class="st5" d="M109.2,72.4L109.2,72.4c-8.8-2.9-15.8-8-20.8-14.9l0.1-0.4c0.3-1,0.9-2.4,0.9-2.7c5.1-11.1,17.7-9.6,27.4-6.3
			l0.4,0.1l0.3,0.1c9.7,3.2,20.7,9.6,18.1,21.5c-0.1,0.3-0.6,2-0.9,3l0,0.1C126.7,75.4,117.8,75.3,109.2,72.4z"/>
		<path class="st5" d="M127.1,18.8c6.6,2.2,9.4,8.5,7,15.7c-2.6,7.7-9.6,12.3-15.7,10.3c-6.1-2-8.9-9.9-6.3-17.6
			C114.5,20,120.5,16.6,127.1,18.8z"/>
	</g>
	<g>
		<path class="st2" d="M109.2,72.5c-2.1-0.7-4.1-1.5-6.1-2.4c-2-0.9-3.9-1.9-5.7-3.1c-1.8-1.2-3.6-2.5-5.2-4.1c-1.6-1.5-3-3.2-4.3-5
			l-0.2-0.3l0.1-0.3l0.7-2.1c0.1-0.3,0.2-0.7,0.4-1l0.5-1l0.6-1l0.7-0.9c0.2-0.3,0.4-0.6,0.7-0.9l0.8-0.8c1.1-1.1,2.4-1.8,3.7-2.5
			c0.7-0.3,1.4-0.6,2.1-0.8c0.7-0.2,1.4-0.4,2.2-0.5c5.8-0.9,11.7,0.3,17.2,2c2.8,0.8,5.5,1.8,8.2,3.2c2.6,1.3,5.1,3,7.2,5.2
			c0.5,0.5,1,1.2,1.4,1.7c0.4,0.6,0.8,1.3,1.2,1.9c0.7,1.4,1.2,2.8,1.4,4.4l0.1,1.1c0,0.4,0,0.8,0,1.1l0,1.1l-0.2,1.1l-0.2,1.1
			l-0.3,1.1l-0.7,2.1l-0.1,0.4l-0.4,0.1c-4.2,1.3-8.7,1.7-13.1,1.4c-2.2-0.1-4.4-0.4-6.5-0.9C113.4,73.7,111.3,73.2,109.2,72.5z
			 M109.3,72.3c2.1,0.7,4.2,1.2,6.3,1.5c2.1,0.3,4.3,0.5,6.4,0.4c4.3-0.1,8.5-0.8,12.6-2.1l-0.5,0.5l0.6-2l0.3-1l0.1-1l0.2-1l0-1
			c0-0.3,0-0.7,0-1l-0.1-1c-0.2-1.4-0.6-2.6-1.2-3.9c-0.3-0.6-0.7-1.2-1.1-1.8c-0.4-0.5-0.8-1.1-1.3-1.6c-1.9-2.1-4.2-3.7-6.7-5.1
			c-2.5-1.4-5.1-2.5-7.8-3.5c-2.7-1-5.5-1.8-8.3-2.3c-2.8-0.5-5.7-0.6-8.5,0c-0.7,0.1-1.4,0.4-2.1,0.6c-0.7,0.2-1.3,0.6-1.9,0.8
			c-1.2,0.7-2.4,1.5-3.3,2.5l-0.7,0.8c-0.2,0.3-0.4,0.6-0.6,0.9l-0.6,0.9l-0.5,0.9l-0.5,0.9c-0.1,0.3-0.2,0.7-0.3,1l-0.7,2L89,57.1
			c1.2,1.7,2.6,3.4,4.1,4.9c1.5,1.5,3.1,3,4.8,4.3c1.7,1.3,3.5,2.5,5.4,3.5C105.2,70.8,107.2,71.6,109.3,72.3z"/>
		<path class="st2" d="M127.1,18.8c1.6,0.5,3.1,1.3,4.4,2.4c1.3,1.1,2.4,2.5,3.1,4.1c1.5,3.2,1.1,7-0.2,10.2
			c-0.7,1.6-1.5,3.1-2.6,4.4c-1.1,1.3-2.4,2.5-3.8,3.4c-1.4,1-3,1.7-4.6,2.1c-1.7,0.4-3.4,0.4-5.1-0.1c-1.7-0.5-3.2-1.5-4.4-2.8
			c-1.2-1.3-2.1-2.9-2.7-4.5c-1.1-3.3-1.1-7-0.1-10.3c0.5-1.7,1.2-3.3,2.2-4.7c1-1.4,2.3-2.7,3.9-3.5c1.5-0.9,3.2-1.3,4.9-1.4
			C123.8,17.9,125.5,18.2,127.1,18.8z M127.1,18.9c-1.6-0.5-3.3-0.7-4.9-0.5c-1.6,0.2-3.2,0.9-4.4,1.8c-2.6,1.9-4.2,4.8-5.1,7.8
			c-0.9,3.1-1,6.4-0.1,9.4c0.9,3,3,5.8,6,6.9c1.5,0.6,3.2,0.7,4.8,0.4c1.6-0.3,3.1-1,4.5-2c2.7-1.9,4.5-4.9,5.5-7.9
			c1.1-3,1.4-6.3,0.5-9.4c-0.5-1.5-1.3-3-2.5-4.1C130.1,20.3,128.6,19.4,127.1,18.9z"/>
		<path class="st2" d="M125.4,51.9c-0.5,0.8-1.2,1.4-2,1.8c-0.8,0.4-1.7,0.7-2.7,0.6c-0.9,0-1.8-0.3-2.7-0.4
			c-0.9-0.2-1.7-0.3-2.6-0.4c-0.9-0.1-1.8-0.4-2.6-0.8c-0.8-0.4-1.6-0.9-2.3-1.6c-1.3-1.3-2.2-3.1-2-5l0.1,0c0.8,1.6,1.8,2.8,3,3.8
			c0.6,0.5,1.2,1,1.9,1.5c0.7,0.4,1.4,0.9,2.1,1.3c0.7,0.4,1.6,0.7,2.4,0.7c0.8,0.1,1.7-0.2,2.5-0.3c1.6-0.3,3.1-0.6,4.7-1.3
			L125.4,51.9z"/>
	</g>
	<g>
		<path class="st1" d="M134,34C134,34,134,34,134,34c0.3-1.6,0.6-3.1,0.6-4.7c0-0.6,0.1-1.1-0.2-1.6c-1.4-2.4-3.4-3.4-5.4-5.1
			c-0.2-0.2-0.4-0.2-0.6-0.2c-4.5,1.4-7.9,1-10.6,0.9c-1.3-0.1-2.5,0-3.5,0.6c-1,0.5-1.8,1.5-2.3,2.9c-0.1,0-0.1-0.1-0.2-0.1
			c-0.1,0-0.1,0-0.1,0c-0.1-6.5,6.2-14.5,13.9-11.9c0.9,0.2,1.8,0.4,2.6,0.7c3.2,1.2,3.1,3.1,3.2,4.4c5.8,0.4,7.9,6.2,3,14.2
			C134.3,34.1,134.2,34.1,134,34z"/>
		<path class="st2" d="M134,34.1L134,34.1l-0.1,0l0-0.1c0.3-1.1,0.5-2.3,0.6-3.4c0-0.6,0.1-1.1,0.1-1.7c0-0.3,0-0.5-0.1-0.8
			c-0.1-0.2-0.3-0.4-0.4-0.7c-0.7-0.9-1.5-1.6-2.4-2.3c-0.9-0.6-1.9-1.3-2.9-2l-0.1-0.1c0,0,0.1,0,0.1,0c0,0-0.1,0-0.3,0l0.3,0
			c-1.5,0.5-3,0.8-4.6,0.9c-1.6,0.1-3.1,0-4.6-0.1c-1.5-0.1-3-0.4-4.4,0c-1.4,0.4-2.4,1.6-2.8,3l-0.1,0.2l-0.2-0.1l-0.1,0
			c0,0-0.1,0-0.2,0l-0.2-0.1l0-0.2c0-1.8,0.4-3.6,1.1-5.3c0.7-1.7,1.7-3.2,2.9-4.6c1.3-1.3,2.9-2.4,4.7-2.9c1.8-0.5,3.8-0.5,5.6,0.1
			l-0.1,0l2.2,0.5l0.5,0.1L129,15c0.4,0.2,0.7,0.4,1.1,0.6c0.7,0.4,1.3,1.1,1.7,1.9c0.4,0.8,0.4,1.7,0.4,2.4l-0.7-0.7
			c1.6,0.1,3.3,0.7,4.5,2c1.2,1.2,1.6,3,1.6,4.5c0,1.6-0.4,3.1-1,4.5c-0.6,1.4-1.3,2.7-2.1,4l0,0.1l-0.1,0L134,34.1z M134.1,34
			l0.4,0.2l-0.1,0c0.7-1.3,1.4-2.6,1.8-4.1c0.4-1.4,0.6-2.9,0.5-4.3c-0.2-1.4-0.7-2.8-1.7-3.6c-1-0.9-2.3-1.3-3.6-1.4l-0.7,0
			l-0.1-0.7c-0.1-0.8-0.1-1.4-0.4-1.8c-0.2-0.5-0.6-0.9-1.1-1.3c-0.3-0.2-0.5-0.3-0.8-0.5l-0.4-0.2l-0.5-0.1l-2-0.6l-0.1,0
			c-1.5-0.5-3.2-0.6-4.8-0.2c-1.6,0.4-3.1,1.2-4.3,2.4c-1.3,1.1-2.3,2.5-3.1,4.1c-0.8,1.5-1.2,3.3-1.2,5l-0.2-0.2l0.2,0l0.2,0.1
			l-0.3,0.1c0.5-1.4,1.5-2.9,3.1-3.4c1.5-0.6,3.1-0.4,4.6-0.4c1.5,0,3-0.1,4.4-0.2c1.5-0.2,2.9-0.5,4.3-0.9l0.3-0.1l0,0.1
			c0,0,0.1,0,0.4,0c0.2,0,0.5,0.2,0.6,0.4l-0.1-0.1c0.8,0.7,1.8,1.4,2.7,2.2c0.9,0.8,1.7,1.7,2.3,2.7c0.1,0.3,0.3,0.5,0.4,0.8
			c0.1,0.3,0.1,0.6,0.1,0.9c-0.1,0.6-0.1,1.2-0.2,1.7C134.5,31.8,134.3,32.9,134.1,34L134.1,34L134.1,34z"/>
	</g>
	<path class="st6" d="M43,35.9l0.4,0.2c1,0.6,0.5,2.1-0.7,2l-0.5-0.1c-3.8-0.4-7.5,1.4-9.4,4.6l-0.2,0.4c-0.6,1-2.1,0.5-2-0.7
		l0.1-0.5c0.4-3.8-1.4-7.5-4.6-9.4l-0.4-0.2c-1-0.6-0.5-2.1,0.7-2l0.5,0.1c3.8,0.4,7.5-1.4,9.4-4.6l0.2-0.4c0.6-1,2.1-0.5,2,0.7
		l-0.1,0.5C38,30.2,39.8,33.9,43,35.9z"/>
	<path class="st7" d="M195.2,138.9l0.2,0.2c0.5,0.5-0.1,1.3-0.7,1l-0.3-0.1c-2.1-0.9-4.6-0.5-6.3,1.1l-0.2,0.2
		c-0.5,0.5-1.3-0.1-1-0.7l0.1-0.3c0.9-2.1,0.5-4.6-1.1-6.3l-0.2-0.2c-0.5-0.5,0.1-1.3,0.7-1l0.3,0.1c2.1,0.9,4.6,0.5,6.3-1.1
		l0.2-0.2c0.5-0.5,1.3,0.1,1,0.7l-0.1,0.3C193.3,134.7,193.7,137.1,195.2,138.9z"/>
</g>
</svg>
