<?xml version="1.0" encoding="utf-8"?>
<!-- Generator: Adobe Illustrator 22.0.0, SVG Export Plug-In . SVG Version: 6.00 Build 0)  -->
<svg version="1.1" id="Layer_1" xmlns="http://www.w3.org/2000/svg" xmlns:xlink="http://www.w3.org/1999/xlink" x="0px" y="0px"
	 viewBox="0 0 162.4 185.7" style="enable-background:new 0 0 162.4 185.7;" xml:space="preserve">
<style type="text/css">
	.st0{fill:#4D3963;}
	.st1{opacity:0.19;}
	.st2{fill:#FE5356;}
	.st3{opacity:0.6;}
	.st4{opacity:0.49;}
	.st5{fill:#FFFFFF;}
	.st6{fill:#1A2E35;}
	.st7{fill:#FF7D84;}
	.st8{opacity:0.43;}
</style>
<g>
	<g>
		<g>
			<path class="st0" d="M65.4,37.9c0,0.3-0.2,0.6-0.5,0.6c-0.3,0-0.6-0.2-0.6-0.5c0-0.3,0.2-0.6,0.5-0.6
				C65.1,37.4,65.4,37.6,65.4,37.9z"/>
		</g>
		<g>
			<path class="st0" d="M68.3,37.6c0,0.3-0.2,0.6-0.5,0.6c-0.3,0-0.6-0.2-0.6-0.5c0-0.3,0.2-0.6,0.5-0.6C68,37,68.3,37.3,68.3,37.6z
				"/>
		</g>
		<g>
			<rect x="70.2" y="36" transform="matrix(0.9932 -0.116 0.116 0.9932 -3.7165 9.221)" class="st0" width="14.3" height="1.2"/>
		</g>
	</g>
	<g class="st1">
		<path class="st2" d="M27.5,73.4l0.4,0.3c1,0.7,0.4,2.3-0.8,2.1l-0.5-0.1c-4-0.6-8.1,1.2-10.3,4.6L16,80.8c-0.7,1-2.3,0.4-2.1-0.8
			l0.1-0.5c0.6-4-1.2-8.1-4.6-10.3l-0.4-0.3c-1-0.7-0.4-2.3,0.8-2.1l0.5,0.1c4,0.6,8.1-1.2,10.3-4.6l0.3-0.4c0.7-1,2.3-0.4,2.1,0.8
			l-0.1,0.5C22.3,67.1,24.1,71.1,27.5,73.4z"/>
	</g>
	<g class="st3">
		<path class="st2" d="M137.8,166.4l0.6,0.4c1.5,1,0.6,3.4-1.2,3.1l-0.7-0.1c-5.9-0.9-11.8,1.7-15.1,6.7l-0.4,0.6
			c-1,1.5-3.4,0.6-3.1-1.2l0.1-0.7c0.9-5.9-1.7-11.8-6.7-15.1l-0.6-0.4c-1.5-1-0.6-3.4,1.2-3.1l0.7,0.1c5.9,0.9,11.8-1.7,15.1-6.7
			l0.4-0.6c1-1.5,3.4-0.6,3.1,1.2l-0.1,0.7C130.2,157.3,132.9,163.1,137.8,166.4z"/>
	</g>
	<g class="st4">
		<path class="st2" d="M140.2,10l0.3,0.2c0.8,0.6,0.3,1.9-0.7,1.7l-0.4-0.1c-3.3-0.5-6.6,1-8.5,3.8l-0.2,0.3
			c-0.6,0.8-1.9,0.3-1.7-0.7l0.1-0.4c0.5-3.3-1-6.6-3.8-8.5L125,6.2c-0.8-0.6-0.3-1.9,0.7-1.7l0.4,0.1c3.3,0.5,6.6-1,8.5-3.8
			l0.2-0.3c0.6-0.8,1.9-0.3,1.7,0.7l-0.1,0.4C136,4.8,137.5,8.1,140.2,10z"/>
	</g>
	<g>
		<g>
			<g>
				<path class="st5" d="M99.8,128.4c-4.2,2.4-8.6,4.2-13.2,5.4c-10.1,2.6-21,12.7-29.7,23c-7.6,8.9-14.5,14.4-17.8,21.6l0,0.1
					c-3.6,7.8-5.9,7.8-12.6,4.4C14.1,176.5-4,150.4,1.1,146.7c1.6-1.2,3.9-3.5,6.2-6.2c5.1-5.9,10.7-13.3,10.7-13.3l22.6-25
					l13.5-5.1l63-26.9c5.1-6.5,17.1-3.1,11.8,19.2C124.8,106.4,113.6,120.5,99.8,128.4z"/>
			</g>
			<g>
				<path class="st6" d="M99.9,128.5c-2.9,1.7-6,3.1-9.1,4.2c-1.6,0.6-3.2,1-4.8,1.5c-1.6,0.5-3.1,1.1-4.6,1.9
					c-6,3.1-11.1,7.5-15.8,12.2c-2.4,2.4-4.6,4.8-6.8,7.4c-2.1,2.6-4.4,5.1-6.6,7.6c-2.3,2.5-4.6,4.9-6.8,7.4
					c-2.2,2.5-4.2,5.2-5.5,8.1l0,0l0,0l0,0.1l0-0.1c-0.8,1.7-1.6,3.4-2.9,4.9c-0.6,0.7-1.5,1.5-2.5,1.8c-1,0.3-2.1,0.2-3.1,0
					c-1.9-0.5-3.6-1.4-5.2-2.2c-1.7-0.9-3.2-2-4.7-3.2c-2.9-2.4-5.5-5-8-7.8c-2.4-2.8-4.7-5.7-6.8-8.8c-2.1-3.1-4-6.3-5.4-9.7
					c-0.4-0.9-0.7-1.7-0.9-2.7c-0.2-0.9-0.4-1.9-0.3-2.8c0.1-0.5,0.2-1,0.6-1.4c0.4-0.4,0.8-0.6,1.1-0.9c0.7-0.6,1.4-1.2,2-1.9
					c2.6-2.6,4.9-5.5,7.3-8.3c2.3-2.9,4.6-5.8,6.8-8.8l0,0l0,0l22.4-25.2l0.1-0.1l0.1,0l9.7-3.7c1.6-0.6,3.2-1.2,4.8-1.9l4.8-2.1
					l19-8.2c12.7-5.5,25.4-10.9,38.1-16.3l-0.3,0.2c1.2-1.5,2.8-2.6,4.7-3c1.9-0.4,4,0,5.5,1.2c1.5,1.2,2.5,2.8,3.1,4.5
					c0.6,1.7,0.9,3.5,1,5.2c0.1,1.8,0,3.5-0.2,5.2c-0.2,1.7-0.5,3.5-0.9,5.1c-0.8,3.4-1.8,6.7-3.1,9.9c-1.3,3.2-2.9,6.3-4.7,9.2
					c-1.8,2.9-3.9,5.7-6.2,8.3C111.2,120.6,105.8,125,99.9,128.5z M99.8,128.3c5.9-3.5,11.2-8,15.6-13.2c2.2-2.6,4.2-5.4,5.9-8.4
					c1.7-2.9,3.2-6,4.4-9.2c1.2-3.2,2.1-6.5,2.8-9.8c0.6-3.3,1.1-6.7,0.8-10.1c-0.1-1.7-0.4-3.3-1-4.8c-0.6-1.5-1.5-2.9-2.7-3.8
					c-1.2-0.9-2.8-1.2-4.3-0.9c-1.5,0.3-2.8,1.3-3.8,2.5l-0.1,0.2l-0.2,0.1C104.7,76.3,92,81.8,79.2,87.1l-19.1,8.1l-4.8,2
					c-1.6,0.7-3.2,1.2-4.8,1.8l-9.7,3.6l0.2-0.1l-22.7,24.8l0,0c-2.2,2.9-4.5,5.9-6.9,8.7c-2.4,2.9-4.7,5.7-7.3,8.3
					c-0.7,0.7-1.3,1.3-2,1.9c-0.3,0.3-0.8,0.6-1,0.9c-0.3,0.3-0.4,0.7-0.5,1.1c-0.2,1.8,0.5,3.6,1.2,5.2c1.4,3.4,3.4,6.5,5.5,9.5
					c2.1,3,4.4,5.9,6.9,8.6c2.5,2.7,5.1,5.3,8,7.5c1.4,1.1,2.9,2.2,4.5,3c1.6,0.8,3.3,1.6,5,2.1c0.8,0.2,1.7,0.2,2.4,0
					c0.7-0.2,1.4-0.8,1.9-1.4c1.1-1.3,1.9-3,2.7-4.6l0,0l0,0l0-0.1l0,0.1c1.4-3.1,3.5-5.9,5.7-8.5c2.2-2.5,4.6-4.9,6.9-7.4
					c2.3-2.4,4.5-4.9,6.7-7.4c2.2-2.5,4.6-4.9,7-7.3c4.9-4.6,10.1-9,16.2-11.9c1.5-0.7,3.1-1.4,4.7-1.8c1.6-0.4,3.2-0.9,4.8-1.4
					C93.8,131.4,96.9,130,99.8,128.3z"/>
			</g>
		</g>
		<g>
			<g>
				<path class="st5" d="M117.5,146.4l-54.6,6.4c-5,0.6-9.6-3-10.2-8.1L39.6,32.1c-0.6-5,3-9.6,8.1-10.2l54.6-6.4
					c5-0.6,9.6,3,10.2,8.1l13.2,112.6C126.1,141.2,122.5,145.8,117.5,146.4z"/>
			</g>
			<g>
				<path class="st6" d="M117.5,146.4l-24.5,3l-24.4,3.1c-2.1,0.3-4,0.5-6.1,0.8c-2.2,0.2-4.4-0.5-6.2-1.7c-1.8-1.2-3.2-3.1-3.8-5.2
					c-0.2-0.5-0.3-1.1-0.3-1.6l-0.2-1.5l-0.4-3.1c-1-8.2-1.9-16.3-2.8-24.5c-1.8-16.3-3.5-32.7-5.4-49c-0.9-8.2-1.9-16.3-2.9-24.5
					l-0.7-6.1l-0.4-3.1c-0.1-1-0.2-2.1-0.1-3.1c0.2-2.1,1.2-4.1,2.7-5.7c1.5-1.5,3.5-2.5,5.7-2.8l48.9-6c2.1-0.2,4-0.5,6.2-0.7
					c2.2-0.2,4.5,0.5,6.3,1.8c1.8,1.3,3.2,3.2,3.8,5.3c0.2,0.5,0.3,1.1,0.4,1.6l0.2,1.5l0.4,3.1l2.9,24.5c1.9,16.3,3.7,32.6,5.4,49
					l2.6,24.5l0.7,6.1l0.3,3.1c0.1,1,0.2,2.1,0.1,3.1c-0.2,2.1-1.2,4-2.7,5.5C121.5,145.3,119.5,146.2,117.5,146.4z M117.5,146.3
					c2-0.3,4-1.2,5.4-2.6c1.4-1.4,2.4-3.4,2.6-5.4c0.1-1,0-2-0.1-3l-0.4-3.1l-0.8-6.1l-3.1-24.4c-2.1-16.3-4.1-32.6-6-48.9
					l-2.9-24.5l-0.3-3.1l-0.2-1.5c-0.1-0.5-0.1-0.9-0.3-1.4c-0.5-1.8-1.7-3.4-3.2-4.5c-1.5-1.1-3.5-1.7-5.3-1.5
					c-2,0.2-4.1,0.4-6.1,0.7l-49,5.4c-1.9,0.2-3.8,1.1-5.2,2.5c-1.4,1.4-2.4,3.2-2.6,5.2c-0.1,1,0,2,0.1,3l0.3,3.1l0.7,6.1
					c0.9,8.2,1.9,16.3,2.9,24.5c1.9,16.3,4.1,32.6,6.1,48.9c1,8.2,2,16.3,2.9,24.5l0.3,3.1l0.2,1.5c0.1,0.5,0.1,0.9,0.3,1.4
					c0.5,1.8,1.7,3.5,3.3,4.6c1.6,1.1,3.5,1.7,5.4,1.6c2-0.2,4.1-0.4,6.1-0.6L93,149L117.5,146.3z"/>
			</g>
		</g>
		<g>
			<path class="st7" d="M111.6,144.3l-42.5,5l-10.4,1.2c-4.8,0.6-9.2-2.9-9.8-7.7L36.5,36.3c-0.6-4.8,2.9-9.2,7.7-9.8l30-3.5
				l22.9-2.7c4.8-0.6,9.2,2.9,9.8,7.7l2.4,20.3l5.8,49.8l4.3,36.5C119.9,139.4,116.4,143.8,111.6,144.3z"/>
		</g>
		<g>
			<path class="st6" d="M117.5,146.4l-24.5,3l-24.4,3.1c-2.1,0.3-4,0.5-6.1,0.8c-2.2,0.2-4.4-0.5-6.2-1.7c-1.8-1.2-3.2-3.1-3.8-5.2
				c-0.2-0.5-0.3-1.1-0.3-1.6l-0.2-1.5l-0.4-3.1c-1-8.2-1.9-16.3-2.8-24.5c-1.8-16.3-3.5-32.7-5.4-49c-0.9-8.2-1.9-16.3-2.9-24.5
				l-0.7-6.1l-0.4-3.1c-0.1-1-0.2-2.1-0.1-3.1c0.2-2.1,1.2-4.1,2.7-5.7c1.5-1.5,3.5-2.5,5.7-2.8l48.9-6c2.1-0.2,4-0.5,6.2-0.7
				c2.2-0.2,4.5,0.5,6.3,1.8c1.8,1.3,3.2,3.2,3.8,5.3c0.2,0.5,0.3,1.1,0.4,1.6l0.2,1.5l0.4,3.1l2.9,24.5c1.9,16.3,3.7,32.6,5.4,49
				l2.6,24.5l0.7,6.1l0.3,3.1c0.1,1,0.2,2.1,0.1,3.1c-0.2,2.1-1.2,4-2.7,5.5C121.5,145.3,119.5,146.2,117.5,146.4z M117.5,146.3
				c2-0.3,4-1.2,5.4-2.6c1.4-1.4,2.4-3.4,2.6-5.4c0.1-1,0-2-0.1-3l-0.4-3.1l-0.8-6.1l-3.1-24.4c-2.1-16.3-4.1-32.6-6-48.9l-2.9-24.5
				l-0.3-3.1l-0.2-1.5c-0.1-0.5-0.1-0.9-0.3-1.4c-0.5-1.8-1.7-3.4-3.2-4.5c-1.5-1.1-3.5-1.7-5.3-1.5c-2,0.2-4.1,0.4-6.1,0.7l-49,5.4
				c-1.9,0.2-3.8,1.1-5.2,2.5c-1.4,1.4-2.4,3.2-2.6,5.2c-0.1,1,0,2,0.1,3l0.3,3.1l0.7,6.1c0.9,8.2,1.9,16.3,2.9,24.5
				c1.9,16.3,4.1,32.6,6.1,48.9c1,8.2,2,16.3,2.9,24.5l0.3,3.1l0.2,1.5c0.1,0.5,0.1,0.9,0.3,1.4c0.5,1.8,1.7,3.5,3.3,4.6
				c1.6,1.1,3.5,1.7,5.4,1.6c2-0.2,4.1-0.4,6.1-0.6L93,149L117.5,146.3z"/>
		</g>
		<g>
			<path class="st6" d="M114.3,139.7l-22,2.7l-22,2.8l-5.5,0.7c-0.9,0.1-2,0.2-2.9,0c-1-0.2-1.9-0.5-2.8-1c-1.7-0.9-3.1-2.5-3.9-4.3
				c-0.4-0.9-0.6-1.9-0.7-2.8l-0.3-2.7c-0.9-7.3-1.7-14.7-2.5-22c-1.6-14.7-3.1-29.4-4.8-44.1c-0.8-7.3-1.7-14.7-2.6-22l-0.7-5.5
				l-0.3-2.7c-0.1-0.9-0.2-1.9-0.1-2.8c0.2-1.9,1.1-3.7,2.4-5.1c1.3-1.4,3.2-2.3,5.1-2.5l44-5.4l5.5-0.7c0.9-0.1,2-0.1,3,0
				c1,0.2,1.9,0.5,2.8,1c1.8,1,3.2,2.6,3.9,4.4c0.2,0.5,0.3,1,0.5,1.4c0.1,0.5,0.2,1,0.2,1.4l0.3,2.8l2.6,22
				c1.7,14.7,3.4,29.4,4.9,44.1l2.3,22l0.6,5.5l0.3,2.8c0.1,0.9,0.2,1.9,0.1,2.8c-0.2,1.9-1.1,3.6-2.4,4.9
				C118,138.7,116.2,139.5,114.3,139.7z M114.3,139.6c1.8-0.2,3.6-1.1,4.8-2.4c1.3-1.3,2.1-3,2.3-4.8c0.1-0.9,0-1.8-0.1-2.7
				l-0.3-2.7l-0.7-5.5l-2.9-22c-1.9-14.6-3.7-29.3-5.4-44l-2.6-22l-0.3-2.8c0-0.5-0.1-0.9-0.2-1.3c-0.1-0.4-0.2-0.8-0.4-1.2
				c-0.6-1.5-1.8-2.9-3.3-3.7c-1.5-0.8-3.2-1.2-4.9-0.9l-5.5,0.6c-14.7,1.7-29.4,3.2-44.1,4.9c-1.7,0.2-3.4,1-4.7,2.2
				c-1.2,1.2-2.1,2.9-2.3,4.7c-0.1,0.9-0.1,1.8,0.1,2.7l0.3,2.8l0.6,5.5c0.8,7.3,1.7,14.7,2.6,22c1.7,14.7,3.7,29.3,5.5,44
				c0.9,7.3,1.8,14.7,2.6,22l0.3,2.8c0.1,0.9,0.2,1.7,0.6,2.5c0.6,1.6,1.8,3,3.3,3.8c1.5,0.9,3.2,1.2,5,1l5.5-0.6l22-2.3
				L114.3,139.6z"/>
		</g>
		<g>
			<g>
				<path class="st5" d="M1,146.8c14.8-11.4,28.1-38.5,31.8-45.4c3.7-6.9,7.1-17.5,13.2-20.8c5.1-2.8,14.1-4.8,18.5-3.5
					c0.9,0.3,1.6,0.7,2.1,1.2c2.6,3.4-0.6,11.9-7.7,17.1c-3.6,2.6-7,4.5-9.6,5.8l0,0c0,0,0,0,0,0c-2.5,1.2-4.2,1.9-4.2,1.9"/>
			</g>
			<g>
				<path class="st6" d="M0.9,146.8c4.2-3.7,7.8-7.9,11.2-12.3c3.3-4.4,6.4-9.1,9.3-13.8c6-9.4,11.5-19.1,15.8-29.4
					c1.2-2.5,2.5-5,4.2-7.3c0.9-1.1,1.9-2.2,3.1-3.1c1.2-0.9,2.5-1.5,3.8-2c2.6-1.1,5.4-1.9,8.2-2.4c1.4-0.2,2.8-0.4,4.3-0.5
					c1.4,0,2.9,0.1,4.4,0.6c0.7,0.3,1.5,0.7,2.1,1.4c0.2,0.4,0.5,0.7,0.6,1.1l0.2,0.6l0.1,0.6c0.2,1.6,0,3.1-0.4,4.5
					c-0.4,1.4-1,2.7-1.8,4c-0.7,1.2-1.6,2.4-2.5,3.5c-1.9,2.2-4.2,3.9-6.6,5.4c-2.4,1.5-4.9,2.8-7.4,4l0,0l0,0l0,0l0.2-0.1
					c0,0.1-0.2,0.1-0.2,0.1c0,0,0.1,0,0.1-0.1l-0.1,0.1c-1.4,0.6-2.8,1.2-4.3,1.7l-0.1-0.1c1.4-0.6,2.8-1.3,4.1-2l-0.1,0.1
					c0-0.1,0.2-0.1,0.2-0.1c0,0-0.1,0-0.1,0.1l0.2-0.1l0,0l0,0c2.4-1.3,4.8-2.8,7.1-4.3c2.3-1.6,4.4-3.3,6.1-5.4
					c1.7-2.1,3.1-4.5,3.8-7c0.4-1.3,0.5-2.6,0.3-3.8L66.5,80l-0.2-0.4c-0.1-0.3-0.3-0.5-0.4-0.7c-0.3-0.4-0.8-0.7-1.3-0.9
					c-1.2-0.4-2.5-0.5-3.8-0.5c-1.3,0-2.7,0.2-4,0.4c-2.7,0.4-5.4,1.2-7.9,2.2c-1.3,0.5-2.5,1.1-3.6,1.8c-1.1,0.8-2,1.7-2.9,2.8
					c-1.7,2.1-3.2,4.5-4.4,7c-1.3,2.5-2.5,5-3.7,7.5c-1.2,2.5-2.6,5-3.8,7.5c-2.5,5-5.1,10-7.9,14.8c-2.9,4.8-6,9.5-9.5,13.8
					c-3.5,4.3-7.4,8.5-12,11.8L0.9,146.8z"/>
			</g>
		</g>
		<g>
			<g>
				<g>
					<path class="st5" d="M158.7,66.2L73.6,76.6c-2.3,0.3-4.3-1.3-4.6-3.6l-3.8-30.7c-0.3-2.3,1.3-4.3,3.6-4.6l85.1-10.4
						c2.3-0.3,4.3,1.3,4.6,3.6l3.8,30.7C162.6,63.9,161,66,158.7,66.2z"/>
				</g>
				<g>
					<path class="st6" d="M158.7,66.3c-5.4,0.7-10.7,1.4-16.1,2.1l-16.1,2.2c-10.7,1.5-21.4,2.8-32.2,4.1l-16.1,1.8l-4,0.4
						c-0.6,0.1-1.4,0.2-2.1,0c-0.7-0.2-1.4-0.5-1.9-1c-0.5-0.5-1-1.1-1.2-1.8c-0.1-0.3-0.2-0.7-0.3-1l-0.1-1l-0.5-4
						c-0.6-5.4-1.3-10.7-2-16.1l-1-8c-0.1-0.7-0.2-1.3-0.2-2c0-0.7,0.1-1.5,0.5-2.1c0.7-1.3,2-2.3,3.5-2.5
						c21.4-2.9,42.8-5.7,64.3-8.2c5.4-0.6,10.7-1.3,16.1-1.9l4-0.4c0.6-0.1,1.5-0.2,2.2,0c0.8,0.2,1.5,0.5,2.1,1
						c0.6,0.5,1.1,1.2,1.3,1.9c0.1,0.4,0.2,0.7,0.3,1.1l0.1,1l0.4,4l1.7,16.1c0.3,2.7,0.6,5.4,0.9,8.1c0.1,0.7,0.2,1.3,0.2,2
						c0,0.7-0.2,1.4-0.5,2C161.3,65.3,160.1,66.2,158.7,66.3z M158.7,66.2c1.3-0.2,2.5-1,3.1-2.2c0.3-0.6,0.4-1.2,0.4-1.9
						c0-0.6-0.2-1.3-0.2-2c-0.4-2.7-0.7-5.4-1.1-8L158.7,36l-0.6-4l-0.1-1c-0.1-0.3-0.1-0.6-0.2-0.8c-0.2-0.5-0.6-1-1-1.4
						c-0.4-0.4-1-0.6-1.5-0.7c-0.6-0.1-1.1-0.1-1.8,0l-4,0.5c-5.4,0.7-10.7,1.3-16.1,2c-21.4,2.7-42.9,5.1-64.4,7.5
						c-1.2,0.1-2.3,0.9-2.9,2c-0.3,0.5-0.4,1.2-0.4,1.8c0,0.6,0.1,1.3,0.2,2l0.9,8.1c0.6,5.4,1.3,10.7,2,16.1l0.5,4
						c0.1,0.7,0.1,1.3,0.4,1.9c0.2,0.6,0.6,1.1,1.1,1.5c0.5,0.4,1.1,0.7,1.7,0.8c0.6,0.1,1.2,0.1,1.9,0l4-0.5l16.1-2.2
						c10.7-1.4,21.4-2.7,32.2-3.8l16.1-1.7C147.9,67.4,153.3,66.8,158.7,66.2z"/>
				</g>
			</g>
		</g>
		<g class="st8">
			<g>
				<path class="st5" d="M110.8,131L66,136.5c-1.2,0.1-2.3-0.7-2.5-1.9l-1.8-15c-0.1-1.2,0.7-2.3,1.9-2.5l44.9-5.5
					c1.2-0.1,2.3,0.7,2.5,1.9l1.8,15C112.9,129.8,112.1,130.9,110.8,131z"/>
			</g>
		</g>
		<g>
			<path class="st2" d="M91.5,58.6c-0.2,0.5-0.5,0.9-1,1.2c-0.5,0.3-1.1,0.5-1.8,0.6c-0.7,0.1-1.4,0-2-0.1s-1.1-0.5-1.5-0.9
				c-0.4-0.4-0.7-0.9-0.8-1.5l1.8-0.2c0.1,0.5,0.4,0.8,0.7,1.1c0.4,0.3,0.9,0.4,1.4,0.3c0.5-0.1,0.9-0.3,1.2-0.6
				c0.2-0.3,0.3-0.7,0.3-1.1c0-0.4-0.2-0.7-0.4-0.9c-0.2-0.2-0.5-0.4-0.8-0.5c-0.3-0.1-0.8-0.2-1.3-0.3c-0.7-0.1-1.2-0.3-1.7-0.4
				c-0.4-0.2-0.8-0.4-1.2-0.8c-0.3-0.4-0.5-0.9-0.6-1.5c-0.1-0.6,0-1.1,0.2-1.5c0.2-0.5,0.6-0.8,1.1-1.1s1.1-0.5,1.8-0.6
				c1.1-0.1,2,0,2.7,0.5c0.7,0.4,1.1,1.1,1.3,1.9L89,52.3c-0.1-0.4-0.3-0.7-0.7-1S87.5,51,87,51.1c-0.5,0.1-0.8,0.2-1.1,0.5
				s-0.4,0.6-0.3,1.1c0,0.4,0.2,0.6,0.4,0.9c0.2,0.2,0.5,0.4,0.8,0.5c0.3,0.1,0.8,0.2,1.3,0.3c0.7,0.1,1.3,0.3,1.7,0.4
				c0.4,0.2,0.8,0.4,1.2,0.8c0.3,0.4,0.6,0.9,0.6,1.6C91.7,57.7,91.7,58.2,91.5,58.6z"/>
			<path class="st2" d="M92.4,48.4c0.2-0.2,0.4-0.3,0.8-0.4c0.3,0,0.6,0,0.8,0.2s0.4,0.4,0.4,0.7s0,0.5-0.2,0.7
				c-0.2,0.2-0.4,0.3-0.8,0.4c-0.3,0-0.6,0-0.8-0.2c-0.2-0.2-0.3-0.4-0.4-0.7S92.2,48.6,92.4,48.4z M94.4,51.3l1,8.2l-1.7,0.2
				l-1-8.2L94.4,51.3z"/>
			<path class="st2" d="M101.7,50.9c0.6,0.3,1,0.7,1.3,1.3l-0.2-1.9l1.7-0.2l1,8.3c0.1,0.8,0,1.5-0.2,2.1c-0.2,0.6-0.6,1.2-1.2,1.6
				c-0.5,0.4-1.2,0.7-2,0.8c-1.2,0.1-2.1,0-2.9-0.5c-0.8-0.5-1.3-1.1-1.6-2.1l1.7-0.2c0.2,0.5,0.5,0.8,0.9,1c0.4,0.2,1,0.3,1.6,0.2
				c0.7-0.1,1.2-0.4,1.6-0.8c0.4-0.5,0.5-1.1,0.4-1.9l-0.2-2c-0.1,0.6-0.5,1.2-0.9,1.6s-1.1,0.7-1.8,0.8c-0.7,0.1-1.4,0-2-0.3
				c-0.6-0.3-1.1-0.7-1.5-1.3c-0.4-0.6-0.6-1.3-0.8-2.2c-0.1-0.9,0-1.6,0.2-2.3s0.6-1.2,1.1-1.6c0.5-0.4,1.1-0.7,1.9-0.7
				C100.5,50.4,101.2,50.6,101.7,50.9z M98.7,52.9c-0.4,0.5-0.5,1.2-0.4,2.1c0.1,0.8,0.4,1.5,0.9,1.9c0.5,0.4,1.1,0.6,1.9,0.5
				c0.5-0.1,0.9-0.2,1.2-0.5c0.4-0.3,0.6-0.6,0.8-1.1c0.2-0.4,0.2-0.9,0.2-1.5c-0.1-0.5-0.2-1-0.5-1.4c-0.3-0.4-0.6-0.7-1-0.8
				c-0.4-0.2-0.8-0.2-1.3-0.2C99.7,52.1,99.1,52.4,98.7,52.9z"/>
			<path class="st2" d="M113.6,49.8c0.7,0.5,1.1,1.4,1.2,2.5l0.6,4.8l-1.7,0.2l-0.6-4.6c-0.1-0.7-0.3-1.3-0.8-1.6
				c-0.4-0.4-1-0.5-1.6-0.4c-0.7,0.1-1.2,0.4-1.5,0.8c-0.4,0.5-0.5,1.1-0.4,2l0.5,4.4l-1.7,0.2l-1-8.2l1.7-0.2l0.2,1.8
				c0.1-0.6,0.5-1.2,0.9-1.6c0.5-0.4,1.1-0.6,1.7-0.7C112.1,49,112.9,49.2,113.6,49.8z"/>
			<path class="st2" d="M121.2,45.7l0.8,6.3c0.1,0.9,0.4,1.6,0.9,2c0.5,0.4,1.1,0.6,1.8,0.5c0.7-0.1,1.3-0.4,1.6-0.9
				s0.5-1.2,0.4-2.2l-0.8-6.3l1.7-0.2l0.8,6.3c0.2,1.4-0.1,2.6-0.7,3.4c-0.7,0.8-1.6,1.3-2.8,1.5c-1.2,0.1-2.2-0.1-3.1-0.8
				c-0.8-0.7-1.3-1.7-1.5-3.1l-0.8-6.3L121.2,45.7z"/>
			<path class="st2" d="M136.6,46.6c0.6,0.3,1.1,0.7,1.5,1.3c0.4,0.6,0.6,1.3,0.8,2.2c0.1,0.9,0,1.6-0.2,2.3
				c-0.2,0.7-0.6,1.2-1.1,1.6c-0.5,0.4-1.1,0.7-1.9,0.7c-0.7,0.1-1.4,0-2-0.3c-0.6-0.3-1-0.7-1.3-1.3l0.7,5.8l-1.7,0.2L129.9,47
				l1.7-0.2l0.2,1.9c0.1-0.6,0.4-1.2,0.9-1.6c0.5-0.4,1.1-0.7,1.8-0.8C135.3,46.2,136,46.3,136.6,46.6z M133,48.3
				c-0.4,0.3-0.6,0.6-0.8,1.1c-0.2,0.4-0.2,0.9-0.2,1.5c0.1,0.5,0.2,1,0.5,1.4c0.3,0.4,0.6,0.7,1,0.8c0.4,0.2,0.8,0.2,1.3,0.2
				c0.8-0.1,1.3-0.4,1.7-0.9c0.4-0.5,0.5-1.2,0.4-2.1c-0.1-0.8-0.4-1.5-0.9-1.9c-0.5-0.4-1.2-0.6-1.9-0.5
				C133.8,47.9,133.3,48.1,133,48.3z"/>
			<path class="st2" d="M142,42.8l0.7,7.6l-1.4,0.2l-1.2-7.6L142,42.8z M143.2,51.8l0.2,1.9l-1.9,0.2l-0.2-1.9L143.2,51.8z"/>
		</g>
	</g>
</g>
</svg>
